<svg width="35" height="35" viewBox="0 0 35 35" fill="none" xmlns="http://www.w3.org/2000/svg">
<rect x="0.5" y="0.5" width="34" height="34" rx="17" stroke="#007FF5"/>
<g clip-path="url(#clip0_3129_1275)">
<path d="M19.8797 22.7025C19.8797 21.8152 20.2611 21.0175 20.8657 20.4575C20.289 20.2337 19.667 19.8971 19.667 19.4668C19.667 19.1689 19.667 18.7967 19.667 18.2861C19.8857 17.6801 20.2142 17.6367 20.3785 16.7065C20.7615 16.5697 20.9804 16.3508 21.2538 15.3932C21.4593 14.6725 21.1566 14.4791 20.9606 14.4274C20.9646 14.389 20.9686 14.3504 20.9719 14.305C21.0459 13.2256 21.6727 10.0213 19.5028 9.63841C18.9284 9.19169 18.5639 8.98928 17.3328 9.06406C16.5535 9.06381 15.9612 9.23581 15.1358 9C14.0344 9.92387 14.337 12.9581 14.4911 14.422C14.2974 14.4654 13.9633 14.6454 14.1769 15.3933C14.4502 16.3508 14.6691 16.5697 15.052 16.7066C15.2163 17.6367 15.7161 17.9354 15.7525 18.2862C15.7525 18.7967 15.7525 19.1689 15.7525 19.4668C15.7525 19.9168 15.0184 20.2965 14.4751 20.488C13.4303 20.8562 10.5195 21.9461 10.7745 25H20.9235C20.285 24.4381 19.8797 23.6177 19.8797 22.7025Z" fill="#007FF5"/>
<path d="M22.943 20.4043C21.6741 20.4043 20.6455 21.4329 20.6455 22.7019C20.6455 23.9708 21.6741 24.9994 22.943 24.9994C24.212 24.9994 25.2406 23.9708 25.2406 22.7019C25.2406 21.4329 24.212 20.4043 22.943 20.4043ZM24.2194 23.021H21.6666V22.3827H24.2194V23.021Z" fill="#007FF5"/>
</g>
<defs>
<clipPath id="clip0_3129_1275">
<rect width="16" height="16" fill="white" transform="translate(10 9)"/>
</clipPath>
</defs>
</svg>
