<svg width="29" height="29" viewBox="0 0 29 29" fill="none" xmlns="http://www.w3.org/2000/svg">
<path d="M11.6003 4.01173C10.6773 4.01174 9.77508 4.28559 9.0078 4.79864C8.24052 5.31168 7.64272 6.04083 7.29005 6.8938C6.93739 7.74677 6.84573 8.6852 7.02668 9.59029C7.20763 10.4954 7.65305 11.3264 8.30656 11.9782C8.96006 12.6301 9.79227 13.0733 10.6978 13.2519C11.6034 13.4305 12.5416 13.3364 13.3936 12.9816C14.2457 12.6267 14.9733 12.027 15.4843 11.2584C15.9954 10.4898 16.2669 9.58681 16.2645 8.66382C16.2645 8.05188 16.1438 7.44595 15.9092 6.88075C15.6747 6.31554 15.3309 5.80216 14.8977 5.37002C14.4644 4.93787 13.9501 4.59546 13.3843 4.36238C12.8185 4.1293 12.2123 4.01014 11.6003 4.01173ZM19.7566 13.2917C19.6848 13.2932 19.6157 13.3191 19.5607 13.3653C19.5058 13.4114 19.4683 13.475 19.4545 13.5455L19.237 15.0801C18.8892 15.2274 18.5572 15.4096 18.2462 15.6238L16.7962 15.0438C16.727 15.0321 16.656 15.0408 16.5916 15.0686C16.5273 15.0965 16.4724 15.1425 16.4337 15.2009L15.2253 17.2067C15.1901 17.2674 15.178 17.3388 15.1913 17.4076C15.2046 17.4765 15.2425 17.5382 15.2978 17.5813L16.5062 18.5359C16.4548 18.937 16.4548 19.3431 16.5062 19.7442L15.2978 20.6988C15.2434 20.7398 15.2059 20.7994 15.1926 20.8663C15.1792 20.9331 15.1909 21.0025 15.2253 21.0613L16.4337 23.0792C16.5062 23.2363 16.6632 23.2363 16.7962 23.2363L18.2462 22.6442C18.5525 22.8693 18.8852 23.056 19.237 23.2001L19.4545 24.7346C19.4663 24.805 19.5036 24.8686 19.5594 24.9132C19.6151 24.9578 19.6853 24.9803 19.7566 24.9763H22.0887C22.1558 24.9745 22.2202 24.9493 22.2709 24.9053C22.3216 24.8612 22.3554 24.8009 22.3666 24.7346L22.5841 23.2001C22.9269 23.0456 23.2546 22.8596 23.5628 22.6442L25.0007 23.2363C25.1457 23.2363 25.3028 23.2363 25.3874 23.0792L26.5957 21.0613C26.6302 21.0025 26.6419 20.9331 26.6285 20.8663C26.6151 20.7994 26.5777 20.7398 26.5232 20.6988L25.3149 19.7442C25.327 19.5471 25.327 19.3493 25.3149 19.1522C25.3323 18.9592 25.3323 18.7651 25.3149 18.5721L26.5232 17.6176C26.5766 17.573 26.6129 17.5114 26.6261 17.4432C26.6393 17.3749 26.6286 17.3042 26.5957 17.243L25.3874 15.2371C25.3149 15.0801 25.1578 15.0801 25.0128 15.0801L23.5628 15.7084C23.2545 15.4897 22.9221 15.3072 22.572 15.1647L22.3545 13.6301C22.3487 13.5627 22.3184 13.4997 22.2695 13.453C22.2206 13.4063 22.1563 13.379 22.0887 13.3763H19.8895M11.7332 15.7084C6.58574 15.7084 2.41699 17.7626 2.41699 20.3363V22.6563H13.6907C13.1821 21.5817 12.9183 20.4075 12.9183 19.2186C12.9183 18.0297 13.1821 16.8555 13.6907 15.7809C13.0403 15.7177 12.3866 15.6935 11.7332 15.7084ZM20.9166 17.4363C21.1581 17.4162 21.4011 17.4464 21.6304 17.525C21.8596 17.6037 22.07 17.729 22.2484 17.8931C22.4267 18.0572 22.569 18.2565 22.6664 18.4784C22.7638 18.7003 22.814 18.94 22.814 19.1824C22.814 19.4247 22.7638 19.6644 22.6664 19.8863C22.569 20.1082 22.4267 20.3075 22.2484 20.4716C22.07 20.6357 21.8596 20.7611 21.6304 20.8397C21.4011 20.9183 21.1581 20.9485 20.9166 20.9284C20.4786 20.8919 20.0703 20.6922 19.7727 20.3688C19.4751 20.0453 19.3099 19.6219 19.3099 19.1824C19.3099 18.7428 19.4751 18.3194 19.7727 17.996C20.0703 17.6725 20.4786 17.4728 20.9166 17.4363Z" fill="#10108A"/>
</svg>
