<svg width="60" height="60" viewBox="0 0 60 60" fill="none" xmlns="http://www.w3.org/2000/svg">
<path d="M10 57.5C9.33696 57.5 8.70107 57.2366 8.23223 56.7678C7.76339 56.2989 7.5 55.663 7.5 55V47.5C7.5 46.837 7.76339 46.2011 8.23223 45.7322C8.70107 45.2634 9.33696 45 10 45C10.663 45 11.2989 45.2634 11.7678 45.7322C12.2366 46.2011 12.5 46.837 12.5 47.5V55C12.5 55.663 12.2366 56.2989 11.7678 56.7678C11.2989 57.2366 10.663 57.5 10 57.5ZM32.5 55V37.5C32.5 36.837 32.2366 36.2011 31.7678 35.7322C31.2989 35.2634 30.663 35 30 35C29.337 35 28.7011 35.2634 28.2322 35.7322C27.7634 36.2011 27.5 36.837 27.5 37.5V55C27.5 55.663 27.7634 56.2989 28.2322 56.7678C28.7011 57.2366 29.337 57.5 30 57.5C30.663 57.5 31.2989 57.2366 31.7678 56.7678C32.2366 56.2989 32.5 55.663 32.5 55ZM50 27.5C49.337 27.5 48.7011 27.7634 48.2322 28.2322C47.7634 28.7011 47.5 29.337 47.5 30V55C47.5 55.663 47.7634 56.2989 48.2322 56.7678C48.7011 57.2366 49.337 57.5 50 57.5C50.663 57.5 51.2989 57.2366 51.7678 56.7678C52.2366 56.2989 52.5 55.663 52.5 55V30C52.5 29.337 52.2366 28.7011 51.7678 28.2322C51.2989 27.7634 50.663 27.5 50 27.5ZM50.955 2.6925C50.6525 2.56576 50.3279 2.50033 50 2.5H40C39.337 2.5 38.7011 2.76339 38.2322 3.23223C37.7634 3.70107 37.5 4.33696 37.5 5C37.5 5.66304 37.7634 6.29893 38.2322 6.76777C38.7011 7.23661 39.337 7.5 40 7.5H43.965L30 21.465L21.7675 13.2325C21.2987 12.7638 20.6629 12.5005 20 12.5005C19.3371 12.5005 18.7013 12.7638 18.2325 13.2325L8.2325 23.2325C7.7771 23.704 7.52512 24.3355 7.53082 24.991C7.53651 25.6465 7.79943 26.2735 8.26295 26.737C8.72647 27.2006 9.3535 27.4635 10.009 27.4692C10.6645 27.4749 11.296 27.2229 11.7675 26.7675L20 18.535L28.2325 26.7675C28.7013 27.2362 29.3371 27.4995 30 27.4995C30.6629 27.4995 31.2987 27.2362 31.7675 26.7675L47.5 11.035V15C47.5 15.663 47.7634 16.2989 48.2322 16.7678C48.7011 17.2366 49.337 17.5 50 17.5C50.663 17.5 51.2989 17.2366 51.7678 16.7678C52.2366 16.2989 52.5 15.663 52.5 15V5C52.4994 4.50573 52.3523 4.02272 52.0774 3.612C51.8024 3.20129 51.4118 2.88131 50.955 2.6925Z" fill="#10108A"/>
</svg>
