<svg width="30" height="24" viewBox="0 0 30 24" fill="none" xmlns="http://www.w3.org/2000/svg">
<path d="M16.7 21.7448C16.4474 21.7448 16.2424 21.9403 16.2424 22.1815V22.8392H1.25108V4.11836H1.98993C2.24269 4.11836 2.4475 3.92286 2.4475 3.68158C2.4475 3.44037 2.24262 3.24487 1.98993 3.24487H0.79351C0.540744 3.24487 0.335938 3.44037 0.335938 3.68158V23.2761C0.335938 23.5173 0.540811 23.7129 0.79351 23.7129H16.7C16.9526 23.7129 17.1576 23.5173 17.1576 23.2761V22.1815C17.1576 21.9404 16.9526 21.7448 16.7 21.7448Z" fill="#002c8a"/>
<path d="M19.7944 17.1044C19.5417 17.1044 19.3368 17.2998 19.3368 17.5411V19.9688H4.34539V1.24794H11.5178C11.7706 1.24794 11.9754 1.05237 11.9754 0.811163C11.9754 0.569951 11.7705 0.37439 11.5178 0.37439H3.88775C3.63505 0.37439 3.43018 0.569951 3.43018 0.811163V20.4056C3.43018 20.6469 3.63505 20.8424 3.88775 20.8424H19.7943C20.0469 20.8424 20.2518 20.6469 20.2518 20.4056V17.5411C20.2519 17.2998 20.047 17.1044 19.7944 17.1044Z" fill="#002c8a"/>
<path d="M19.794 4.72253C19.5413 4.72253 19.3364 4.9181 19.3364 5.15931V10.9511C19.3364 11.1923 19.5413 11.3879 19.794 11.3879C20.0466 11.3879 20.2515 11.1923 20.2515 10.9511V5.15931C20.2515 4.91816 20.0466 4.72253 19.794 4.72253Z" fill="#002c8a"/>
<path d="M6.40972 18.402H8.53878C8.79147 18.402 8.99635 18.2065 8.99635 17.9653V13.4788C8.99635 13.2376 8.79147 13.042 8.53878 13.042H6.40972C6.15696 13.042 5.95215 13.2376 5.95215 13.4788V17.9653C5.95215 18.2064 6.15696 18.402 6.40972 18.402ZM6.86729 13.9155H8.08114V17.5284H6.86729V13.9155Z" fill="#002c8a"/>
<path d="M10.991 14.5056C10.7383 14.5056 10.5334 14.7011 10.5334 14.9423V17.9652C10.5334 18.2064 10.7383 18.402 10.991 18.402H13.1201C13.3728 18.402 13.5776 18.2064 13.5776 17.9652V16.4692C13.5776 16.228 13.3728 16.0325 13.1201 16.0325C12.8673 16.0325 12.6625 16.228 12.6625 16.4692V17.5284H11.4487V14.9424C11.4486 14.7011 11.2438 14.5056 10.991 14.5056Z" fill="#002c8a"/>
<path d="M15.5723 16.8086C15.3197 16.8086 15.1147 17.0042 15.1147 17.2454V17.9652C15.1147 18.2064 15.3197 18.402 15.5723 18.402H17.7014C17.9541 18.402 18.159 18.2064 18.159 17.9652V17.2454C18.159 17.0042 17.9541 16.8086 17.7014 16.8086C17.4487 16.8086 17.2439 17.0042 17.2439 17.2454V17.5284H16.03V17.2454C16.0299 17.0042 15.8249 16.8086 15.5723 16.8086Z" fill="#002c8a"/>
<path d="M16.9745 4.86669C16.7958 4.69615 16.5062 4.69609 16.3275 4.86676L13.2307 7.82275C13.052 7.99336 13.052 8.26984 13.2308 8.44045C13.4094 8.61099 13.6992 8.61106 13.8779 8.44038L16.651 5.79331L17.1877 6.30558L13.7761 9.56211C13.5974 9.73271 13.5974 10.0093 13.7761 10.1799C13.8655 10.2651 13.9826 10.3078 14.0997 10.3078C14.2168 10.3078 14.3339 10.2651 14.4233 10.1799L18.1585 6.6145C18.2444 6.53255 18.2925 6.42145 18.2925 6.30558C18.2925 6.18978 18.2443 6.07862 18.1585 5.99673L16.9745 4.86669Z" fill="#002c8a"/>
<path d="M6.70699 10.8972C6.79636 10.9823 6.91349 11.025 7.03062 11.025C7.14775 11.025 7.26487 10.9823 7.35424 10.8972L8.56228 9.74397C8.74101 9.57336 8.74101 9.29681 8.56228 9.1262C8.38354 8.95566 8.09383 8.95566 7.9151 9.1262L7.03062 9.97054L6.49388 9.4582L8.56228 7.48389C8.74101 7.31328 8.74101 7.03673 8.56228 6.86619C8.38354 6.69565 8.09383 6.69565 7.9151 6.86619L5.52321 9.14935C5.34448 9.31996 5.34448 9.59651 5.52321 9.76712L6.70699 10.8972Z" fill="#002c8a"/>
<path d="M29.1507 16.6902L26.4836 14.1444C26.3049 13.9738 26.0153 13.9738 25.8366 14.1444C25.6579 14.315 25.6579 14.5915 25.8366 14.7622L28.5037 17.308C28.6624 17.4596 28.7499 17.6611 28.7499 17.8754C28.7499 18.0897 28.6624 18.2912 28.5037 18.4428C28.1758 18.7558 27.6427 18.7558 27.3147 18.4428L23.0982 14.418C25.0028 12.9254 26.2201 10.6618 26.2201 8.13157C26.2201 3.64777 22.3986 0 17.7014 0C13.0041 0 9.18262 3.64777 9.18262 8.13157C9.18262 12.6154 13.0041 16.2631 17.7014 16.2631C19.4161 16.2631 21.0128 15.7754 22.3508 14.9399L26.6677 19.0604C26.9993 19.377 27.4403 19.5513 27.9092 19.5513C28.3782 19.5513 28.8192 19.377 29.1507 19.0604C29.8354 18.407 29.8354 17.3437 29.1507 16.6902ZM17.7014 15.3895C13.5087 15.3895 10.0978 12.1336 10.0978 8.13157C10.0978 4.12949 13.5088 0.873612 17.7014 0.873612C21.8939 0.873612 25.3049 4.12949 25.3049 8.13157C25.305 12.1336 21.894 15.3895 17.7014 15.3895Z" fill="#002c8a"/>
<path d="M17.7014 2.1665C14.2556 2.1665 11.4524 4.8424 11.4524 8.13149C11.4524 11.4206 14.2556 14.0964 17.7014 14.0964C21.1471 14.0964 23.9503 11.4206 23.9503 8.13149C23.9503 4.8424 21.1471 2.1665 17.7014 2.1665ZM17.7014 13.2227C14.7603 13.2227 12.3675 10.9388 12.3675 8.13142C12.3675 5.32405 14.7603 3.04005 17.7014 3.04005C20.6424 3.04005 23.0352 5.32405 23.0352 8.13142C23.0352 10.9388 20.6424 13.2227 17.7014 13.2227Z" fill="#002c8a"/>
<path d="M6.17345 4.09348V3.45399C6.17345 3.21277 5.96857 3.01721 5.71587 3.01721C5.46311 3.01721 5.2583 3.21277 5.2583 3.45399V4.09348C5.2583 4.33475 5.46317 4.53025 5.71587 4.53025C5.96857 4.53032 6.17345 4.33482 6.17345 4.09348Z" fill="#002c8a"/>
<path d="M7.66563 4.09344V2.72425C7.66563 2.48304 7.46076 2.28748 7.20806 2.28748C6.95536 2.28748 6.75049 2.48304 6.75049 2.72425V4.09344C6.75049 4.33471 6.95536 4.53021 7.20806 4.53021C7.46076 4.53028 7.66563 4.33478 7.66563 4.09344Z" fill="#002c8a"/>
<path d="M9.15782 4.09338V3.87061C9.15782 3.6294 8.95295 3.43384 8.70025 3.43384C8.44755 3.43384 8.24268 3.6294 8.24268 3.87061V4.09338C8.24268 4.33466 8.44755 4.53016 8.70025 4.53016C8.95295 4.53022 9.15782 4.33472 9.15782 4.09338Z" fill="#002c8a"/>
</svg>
