<svg width="60" height="60" viewBox="0 0 60 60" fill="none" xmlns="http://www.w3.org/2000/svg">
<path d="M17.5 27.5C14.75 27.5 12.5 25.25 12.5 22.5V20C12.5 17.25 14.75 15 17.5 15C20.25 15 22.5 17.25 22.5 20V22.5C22.5 25.25 20.25 27.5 17.5 27.5ZM12.5 44.9825L22.5 45C23.875 45 25 43.875 25 42.5V37.5C25 33.375 21.625 30 17.5 30C13.375 30 10 33.375 10 37.5V42.5C10 43.88 11.12 44.9825 12.5 44.9825ZM47.5 45H32.5C31.1175 45 30 43.8825 30 42.5C30 41.1175 31.1175 40 32.5 40H47.5C48.8825 40 50 41.1175 50 42.5C50 43.8825 48.8825 45 47.5 45ZM47.5 35H32.5C31.1175 35 30 33.88 30 32.5C30 31.12 31.1175 30 32.5 30H47.5C48.8825 30 50 31.12 50 32.5C50 33.88 48.8825 35 47.5 35ZM47.5 25H32.5C31.1175 25 30 23.88 30 22.5C30 21.12 31.1175 20 32.5 20H47.5C48.8825 20 50 21.12 50 22.5C50 23.88 48.8825 25 47.5 25Z" fill="#10108A"/>
<path d="M55 5H5C2.25 5 0 7.25 0 10V50C0 52.75 2.25 55 5 55H55C57.75 55 60 52.75 60 50V10C60 7.25 57.75 5 55 5ZM55 48.75C55 49.45 54.45 50 53.75 50H6.25C5.55 50 5 49.45 5 48.75V11.25C5 10.55 5.55 10 6.25 10H53.75C54.45 10 55 10.55 55 11.25V48.75Z" fill="#10108A"/>
</svg>
