<svg width="24" height="22" viewBox="0 0 24 22" fill="none" xmlns="http://www.w3.org/2000/svg">
<g clip-path="url(#clip0_1151_223)">
<path fill-rule="evenodd" clip-rule="evenodd" d="M8.9712 15.8262L5.11006 18.0627C4.75859 18.2194 4.44235 17.8949 4.60623 17.5801L6.94361 13.8841L8.9712 15.8262ZM15.7655 4.96513L18.3078 7.3645L10.229 15.0968C9.28313 14.1907 7.97283 12.9367 7.70474 12.6803L15.7655 4.96513ZM18.3078 2.53206C18.5866 2.26462 19.0387 2.26462 19.3183 2.53206L20.8327 3.98131C21.1116 4.24875 21.1116 4.68119 20.8327 4.94794L19.3183 6.39787L16.8293 3.94625L18.3078 2.53206ZM6.32905 12.4218L3.23844 18.4064C2.97897 19.0809 3.54248 19.6845 4.24685 19.3717L10.4992 16.4134C10.7688 16.3632 11.0304 16.2628 11.2388 16.0634L22.3471 5.43056C22.9049 4.89775 22.9049 4.0315 22.3471 3.498L19.8229 1.08144C19.2644 0.547936 18.3609 0.547936 17.8032 1.08144L6.69492 11.7136C6.48576 11.9137 6.38224 12.1639 6.32905 12.4218ZM22.0625 8.25V19.25C22.0625 20.0056 21.2819 20.6332 20.4935 20.6332H3.35631C2.56784 20.6332 1.92816 20.0214 1.92816 19.2658V2.86344C1.92816 2.10788 2.58581 1.375 3.375 1.375H14.875V0H3.375C1.79806 0 0.5 1.35369 0.5 2.86344V19.2658C0.5 20.7763 1.77866 22 3.35631 22H20.4935C22.0711 22 23.5 20.7598 23.5 19.25V8.25H22.0625Z" fill="#002c8a,"/>
</g>
<defs>
<clipPath id="clip0_1151_223">
<rect width="23" height="22" fill="white" transform="translate(0.5)"/>
</clipPath>
</defs>
</svg>
