<svg width="23" height="23" viewBox="0 0 23 23" fill="none" xmlns="http://www.w3.org/2000/svg">
<g clip-path="url(#clip0_3293_387)">
<path d="M4.59992 0.919922C3.83984 0.919922 3.21992 1.53984 3.21992 2.29992V5.0743L2.75992 5.5343C1.59914 7.23234 0.919922 9.28797 0.919922 11.4999C0.919922 17.3434 5.65648 22.0799 11.4999 22.0799C17.3434 22.0799 22.0799 17.3434 22.0799 11.4999C22.0799 5.65648 17.3434 0.919922 11.4999 0.919922C9.47484 0.919922 7.58813 1.50031 5.97992 2.4868V2.29992C5.97992 1.53984 5.36 0.919922 4.59992 0.919922ZM4.59992 1.83992C4.85328 1.83992 5.05992 2.04656 5.05992 2.29992V4.31242C6.82266 2.73117 9.10289 1.83992 11.4999 1.83992C16.8259 1.83992 21.1599 6.17398 21.1599 11.4999C21.1599 16.8259 16.8259 21.1599 11.4999 21.1599C6.17398 21.1599 1.83992 16.8259 1.83992 11.4999C1.83992 9.9618 2.21727 8.43086 2.91805 7.07242L3.72305 7.4893C3.07977 8.73453 2.75992 10.0876 2.75992 11.4999C2.75992 16.3191 6.6807 20.2399 11.4999 20.2399C16.3191 20.2399 20.2399 16.3191 20.2399 11.4999C20.2399 6.6807 16.3191 2.75992 11.4999 2.75992C9.30055 2.75992 7.20898 3.59188 5.60617 5.05992H7.81992C8.07328 5.05992 8.27992 5.26656 8.27992 5.51992C8.27992 5.77328 8.07328 5.97992 7.81992 5.97992H4.13992V2.29992C4.13992 2.04656 4.34656 1.83992 4.59992 1.83992ZM11.4999 3.67992C11.7551 3.67992 11.9599 3.88656 11.9599 4.13992C11.9599 4.39328 11.7551 4.59992 11.4999 4.59992C11.2466 4.59992 11.0399 4.39328 11.0399 4.13992C11.0399 3.88656 11.2466 3.67992 11.4999 3.67992ZM15.2805 4.68617C15.3398 4.69336 15.3991 4.71133 15.453 4.74367C15.6723 4.87125 15.7388 5.15695 15.6112 5.37617C15.4836 5.59539 15.1979 5.67625 14.9787 5.54867C14.7595 5.42109 14.693 5.13539 14.8205 4.91617C14.9176 4.75086 15.1027 4.66281 15.2805 4.68617ZM17.8393 7.38867C18.0172 7.36711 18.1915 7.45336 18.2849 7.61867C18.4107 7.83969 18.3334 8.12539 18.1124 8.25117C17.8914 8.37695 17.6201 8.29969 17.4943 8.07867C17.3685 7.85766 17.4458 7.57195 17.6668 7.44617C17.7225 7.41383 17.78 7.39586 17.8393 7.38867ZM8.45242 7.7768C9.68328 7.7768 10.5799 8.56203 10.5799 9.63117C10.5799 10.3176 10.2583 10.8746 9.17117 11.9743L7.7193 13.4405V13.5124H10.6949V14.418H6.32492V13.6849L8.50992 11.4137C9.37781 10.5098 9.58805 10.1648 9.58805 9.68867C9.58805 9.0957 9.07773 8.65367 8.4093 8.65367C7.69414 8.65367 7.21617 9.11188 7.21617 9.80367V9.81805H6.26742V9.80367C6.26742 8.60875 7.17664 7.7768 8.45242 7.7768ZM14.533 7.93492H15.9562V12.2618H16.8618V13.1674H15.9562V14.418H14.993V13.1674H11.8305V12.233C12.4109 11.1729 13.3777 9.66531 14.533 7.93492ZM14.9499 8.82617C14.3084 9.75516 13.5573 10.8926 12.7937 12.2187V12.2905H15.0074V8.82617H14.9499ZM4.13992 11.0399C4.39328 11.0399 4.59992 11.2466 4.59992 11.4999C4.59992 11.7551 4.39328 11.9599 4.13992 11.9599C3.88656 11.9599 3.67992 11.7551 3.67992 11.4999C3.67992 11.2466 3.88656 11.0399 4.13992 11.0399ZM18.8599 11.0399C19.1151 11.0399 19.3199 11.2466 19.3199 11.4999C19.3199 11.7551 19.1151 11.9599 18.8599 11.9599C18.6048 11.9599 18.3999 11.7551 18.3999 11.4999C18.3999 11.2466 18.6048 11.0399 18.8599 11.0399ZM5.05992 14.6912C5.23781 14.6696 5.41031 14.7559 5.50555 14.9212C5.63133 15.1422 5.55406 15.4279 5.33305 15.5537C5.11203 15.6795 4.8407 15.6022 4.71492 15.3812C4.58914 15.1602 4.66641 14.8745 4.88742 14.7487C4.94313 14.7163 5.00063 14.6984 5.05992 14.6912ZM17.9112 14.763C17.9705 14.7702 18.0298 14.7882 18.0837 14.8205C18.3029 14.9481 18.3855 15.2338 18.2562 15.453C18.1286 15.6723 17.8429 15.7388 17.6237 15.6112C17.4045 15.4836 17.3236 15.1979 17.4512 14.9787C17.5464 14.8134 17.7333 14.7397 17.9112 14.763ZM7.84867 17.3937C7.90797 17.4009 7.96727 17.4188 8.02117 17.4512C8.24039 17.5788 8.30688 17.8645 8.1793 18.0837C8.05172 18.3029 7.76602 18.3855 7.5468 18.2562C7.32758 18.1286 7.26109 17.8429 7.38867 17.6237C7.4857 17.4584 7.67078 17.3703 7.84867 17.3937ZM15.0793 17.4512C15.2572 17.4296 15.4315 17.5159 15.5249 17.6812C15.6489 17.9022 15.5734 18.1735 15.3524 18.2993C15.1314 18.4251 14.8601 18.3478 14.7343 18.1268C14.6085 17.9058 14.6858 17.6345 14.9068 17.5087C14.9625 17.4781 15.02 17.4584 15.0793 17.4512ZM11.4999 18.3999C11.7551 18.3999 11.9599 18.6048 11.9599 18.8599C11.9599 19.1151 11.7551 19.3199 11.4999 19.3199C11.2466 19.3199 11.0399 19.1151 11.0399 18.8599C11.0399 18.6048 11.2466 18.3999 11.4999 18.3999Z" fill="#10108A"/>
</g>
<defs>
<clipPath id="clip0_3293_387">
<rect width="23" height="23" fill="white"/>
</clipPath>
</defs>
</svg>
