<svg width="48" height="48" viewBox="0 0 48 48" fill="none" xmlns="http://www.w3.org/2000/svg">
<path fill-rule="evenodd" clip-rule="evenodd" d="M8 9.38867V37.3886C8 40.7024 10.6863 43.3886 14 43.3886H34C37.3138 43.3886 40 40.7024 40 37.3886V17.3887C40 14.075 37.3138 11.3887 34 11.3887H10C8.89544 11.3887 8 10.4932 8 9.38867ZM14.5 23.3886C14.5 22.5602 15.1716 21.8886 16 21.8886H32C32.8284 21.8886 33.5 22.5602 33.5 23.3886C33.5 24.217 32.8284 24.8886 32 24.8886H16C15.1716 24.8886 14.5 24.217 14.5 23.3886ZM14.5 30.3886C14.5 29.5602 15.1716 28.8886 16 28.8886H27C27.8284 28.8886 28.5 29.5602 28.5 30.3886C28.5 31.217 27.8284 31.8886 27 31.8886H16C15.1716 31.8886 14.5 31.217 14.5 30.3886Z" fill="#002c8a"/>
<path opacity="0.5" d="M36 8.00076V11.7301C35.3744 11.509 34.7012 11.3887 34 11.3887H10C8.89544 11.3887 8 10.4932 8 9.38868V9.24658C8 8.18054 8.78386 7.27674 9.83918 7.12598L31.4344 4.04096C33.844 3.6967 36 5.56656 36 8.00076Z" fill="#002c8a"/>
</svg>
