<svg width="26" height="24" viewBox="0 0 26 24" fill="none" xmlns="http://www.w3.org/2000/svg">
<path d="M23.8751 0C24.5421 0 25.0834 0.541333 25.0834 1.20833V18.125C25.0834 18.792 24.5421 19.3333 23.8751 19.3333H6.29987L0.916748 23.5625V1.20833C0.916748 0.541333 1.45808 0 2.12508 0H23.8751ZM22.6667 2.41667H3.33341V18.5902L5.46371 16.9167H22.6667V2.41667ZM19.0417 4.83333V14.5H16.6251V4.83333H19.0417ZM11.7917 6.04167V8.45712L14.2084 8.45833V10.875L11.7917 10.8738V13.2917H9.37508V10.8738L6.95842 10.875V8.45833L9.37508 8.45712V6.04167H11.7917Z" fill="#002c8a"/>
</svg>
