<svg width="42" height="42" viewBox="0 0 42 42" fill="none" xmlns="http://www.w3.org/2000/svg">
<path d="M10.5 21.2141C10.5 18.8113 10.5 17.6098 11.0452 16.6139C11.5903 15.6179 12.5863 14.9998 14.5782 13.7635L16.6782 12.4602C18.7839 11.1534 19.8367 10.5 21 10.5C22.1633 10.5 23.2161 11.1534 25.3218 12.4602L27.4218 13.7635C29.4138 14.9998 30.4097 15.6179 30.9548 16.6139C31.5 17.6098 31.5 18.8113 31.5 21.2141V22.8112C31.5 26.9071 31.5 28.9551 30.2698 30.2275C29.0397 31.5 27.0598 31.5 23.1 31.5H18.9C14.9402 31.5 12.9603 31.5 11.7301 30.2275C10.5 28.9551 10.5 26.9071 10.5 22.8112V21.2141Z" stroke="#ffffff" stroke-width="2"/>
<path d="M23.625 27.5625H17.0625" stroke="#ffffff" stroke-width="2" stroke-linecap="round"/>
</svg>
