<svg width="60" height="60" viewBox="0 0 60 60" fill="none" xmlns="http://www.w3.org/2000/svg">
<g clip-path="url(#clip0_3251_1031)">
<path d="M14.3751 51.5679L3.75 42.0911L6.24581 39.2923L16.8229 48.7266L31.2427 34.7674C31.9143 34.1173 32.8114 33.7525 33.7461 33.7496C34.6807 33.7466 35.5802 34.1058 36.2557 34.7516L43.05 41.2472L53.5108 30.0469L56.25 32.6076L45.7853 43.8122C45.4472 44.174 45.0408 44.4651 44.5895 44.6687C44.1382 44.8723 43.651 44.9843 43.156 44.9982C42.6611 45.0122 42.1684 44.9278 41.7063 44.75C41.2442 44.5721 40.822 44.3044 40.4642 43.9622L33.7583 37.5514L19.3845 51.465C18.7168 52.1115 17.8292 52.4814 16.9 52.5005C15.9708 52.5196 15.0688 52.1865 14.3751 51.5679Z" fill="#10108A"/>
<path d="M56.25 20.625H48.75L52.5 15L56.25 20.625Z" fill="#10108A"/>
<path d="M41.25 7.5H33.75V11.25H41.25V15H35.625V18.75H41.25V22.5H33.75V26.25H41.25C42.2442 26.2487 43.1972 25.8531 43.9002 25.1502C44.6031 24.4472 44.9987 23.4942 45 22.5V11.25C44.9989 10.2558 44.6034 9.30262 43.9004 8.59961C43.1974 7.8966 42.2442 7.50114 41.25 7.5Z" fill="#10108A"/>
<path d="M30 26.25H18.75V18.75C18.751 17.7557 19.1464 16.8025 19.8494 16.0994C20.5525 15.3964 21.5057 15.001 22.5 15H26.25V11.25H18.75V7.5H26.25C27.2442 7.50114 28.1974 7.8966 28.9004 8.59961C29.6034 9.30262 29.9989 10.2558 30 11.25V15C29.9989 15.9942 29.6034 16.9474 28.9004 17.6504C28.1974 18.3534 27.2442 18.7489 26.25 18.75H22.5V22.5H30V26.25Z" fill="#10108A"/>
<path d="M11.25 22.5V7.5H7.5V9.375H3.75V13.125H7.5V22.5H3.75V26.25H15V22.5H11.25Z" fill="#10108A"/>
</g>
<defs>
<clipPath id="clip0_3251_1031">
<rect width="60" height="60" fill="white"/>
</clipPath>
</defs>
</svg>
