<svg width="34" height="34" viewBox="0 0 34 34" fill="none" xmlns="http://www.w3.org/2000/svg">
<path d="M0.5 27.829V7.204C0.5 5.488 1.10498 4.025 2.31495 2.815C3.52492 1.605 4.98788 1 6.70384 1H21.8505L17.6926 5.125H6.70384C6.13186 5.125 5.63687 5.334 5.21888 5.752C4.80089 6.17 4.60289 6.654 4.62489 7.204V27.829C4.62489 28.401 4.82289 28.885 5.21888 29.281C5.61487 29.677 6.10986 29.875 6.70384 29.875H27.3283C27.8783 29.875 28.3623 29.677 28.7803 29.281C29.1983 28.885 29.3963 28.401 29.3743 27.829V16.807L33.4992 12.682V27.829C33.4992 29.545 32.8942 30.997 31.6842 32.185C30.4742 33.373 29.0223 33.978 27.3283 34H6.70384C4.98788 34 3.52492 33.395 2.31495 32.185C1.10498 30.975 0.5 29.523 0.5 27.829ZM6.70384 27.829L8.88179 19.744L21.5205 7.171L27.4273 12.913L14.7226 25.585L6.70384 27.829ZM23.3024 5.389L26.4703 2.221C27.2623 1.407 28.2303 1 29.3743 1C30.5182 1 31.4862 1.407 32.2782 2.221C33.0702 3.035 33.4772 4.003 33.4992 5.125C33.5212 6.247 33.1142 7.226 32.2782 8.062L29.2093 11.131L23.3024 5.389Z" fill="#002c8a"/>
</svg>
