<svg width="42" height="42" viewBox="0 0 42 42" fill="none" xmlns="http://www.w3.org/2000/svg">
<path d="M5.25 15.75H36.75M21 21V26.25M21 31.5H21.0175M12.25 5.25V8.75M29.75 5.25V8.75M10.85 36.75H31.15C33.1102 36.75 34.0904 36.75 34.839 36.3685C35.4975 36.033 36.033 35.4975 36.3685 34.839C36.75 34.0904 36.75 33.1102 36.75 31.15V14.35C36.75 12.3898 36.75 11.4097 36.3685 10.661C36.033 10.0025 35.4975 9.46703 34.839 9.13148C34.0904 8.75 33.1102 8.75 31.15 8.75H10.85C8.88982 8.75 7.90972 8.75 7.16104 9.13148C6.50246 9.46703 5.96703 10.0025 5.63148 10.661C5.25 11.4097 5.25 12.3898 5.25 14.35V31.15C5.25 33.1102 5.25 34.0904 5.63148 34.839C5.96703 35.4975 6.50246 36.033 7.16104 36.3685C7.90972 36.75 8.88981 36.75 10.85 36.75Z" stroke="#10108A" stroke-linecap="round" stroke-linejoin="round"/>
</svg>
