<svg width="38" height="34" viewBox="0 0 38 34" fill="none" xmlns="http://www.w3.org/2000/svg">
<path d="M4.75 12.75H33.25M14.25 21.25L17.4167 24.0833L23.75 18.4167M11.0833 4.25V7.08333M26.9167 4.25V7.08333M9.81667 29.75H28.1833C29.9568 29.75 30.8437 29.75 31.521 29.4412C32.1168 29.1696 32.6013 28.7361 32.9048 28.203C33.25 27.597 33.25 26.8035 33.25 25.2167V11.6167C33.25 10.0298 33.25 9.23644 32.9048 8.63036C32.6013 8.09723 32.1168 7.66378 31.521 7.39215C30.8437 7.08333 29.9568 7.08333 28.1833 7.08333H9.81667C8.04317 7.08333 7.15641 7.08333 6.47903 7.39215C5.88318 7.66378 5.39874 8.09723 5.09515 8.63036C4.75 9.23644 4.75 10.0298 4.75 11.6167V25.2167C4.75 26.8035 4.75 27.597 5.09515 28.203C5.39874 28.7361 5.88318 29.1696 6.47903 29.4412C7.15641 29.75 8.04316 29.75 9.81667 29.75Z" stroke="#10108A" stroke-linecap="round" stroke-linejoin="round"/>
</svg>
