<svg width="47" height="47" viewBox="0 0 47 47" fill="none" xmlns="http://www.w3.org/2000/svg">
<path d="M23.2289 20.2442C22.777 20.8769 23.0481 21.7808 23.7712 22.2327C25.2174 23.0462 26.8443 23.95 28.2001 25.2154C30.4597 23.4981 33.1712 22.5038 36.1539 22.3231C35.1597 20.6058 33.0808 19.4308 30.9116 18.4365C28.8328 17.5327 28.3808 16.7192 28.3808 15.725C28.3808 14.8212 29.0135 14.0077 29.6462 13.1942C30.9116 12.0192 31.5443 10.3923 31.5443 8.40385C31.6347 4.78846 29.5558 1.625 25.7597 1.625C23.5001 1.625 21.9635 2.8 20.8789 4.42692C23.5001 6.41538 25.0366 9.85 25.0366 13.7365C24.9462 16.2673 24.3135 18.4365 23.2289 20.2442Z" fill="#10108A"/>
<path d="M28.7422 31.3633L34.1653 36.7864L28.7422 42.2094C28.1999 42.7517 28.1999 43.6556 28.7422 44.1075L29.3749 44.7402C29.9172 45.2825 30.821 45.2825 31.2729 44.7402L36.696 39.3171L42.1191 44.7402C42.6614 45.2825 43.5653 45.2825 44.0172 44.7402L44.6499 44.1075C45.1922 43.5652 45.1922 42.6614 44.6499 42.2094L39.2268 36.7864L44.6499 31.3633C45.1922 30.821 45.1922 29.9171 44.6499 29.4652L44.0172 28.8325C43.4749 28.2902 42.571 28.2902 42.1191 28.8325L36.696 34.2556L31.2729 28.8325C30.7306 28.2902 29.8268 28.2902 29.3749 28.8325L28.7422 29.4652C28.2903 29.9171 28.2903 30.821 28.7422 31.3633Z" fill="#10108A"/>
<path d="M25.4884 27.7475C24.223 26.4822 22.3249 25.6687 20.4268 24.7648C18.0768 23.7706 17.7153 22.7764 17.7153 21.7822C17.7153 20.7879 18.348 19.7033 19.1615 18.9802C20.5172 17.6245 21.2403 15.7264 21.2403 13.5572C21.2403 9.48984 18.8903 5.96484 14.7326 5.96484H14.2807C10.123 5.96484 7.773 9.48984 7.773 13.5572C7.773 15.7264 8.49608 17.6245 9.85185 18.9802C10.6653 19.7033 11.298 20.6975 11.298 21.7822C11.298 22.7764 11.0268 23.7706 8.58646 24.7648C5.15185 26.3014 1.98839 27.8379 1.80762 31.0918C1.98839 33.3514 3.52492 35.0687 5.51339 35.0687H22.3249C22.7768 32.2668 23.8615 29.736 25.4884 27.7475Z" fill="#10108A"/>
</svg>
