<svg width="41" height="40" viewBox="0 0 41 40" fill="none" xmlns="http://www.w3.org/2000/svg">
<path d="M20.5 13.3333C23.6667 13.3333 26.3333 15.5 27 18.5C27.1667 19.3333 28.1667 20 29 19.6667C29.8333 19.5 30.5 18.5 30.1667 17.6667C29.1667 13 25.1667 10 20.5 10C15 10 10.5 14.5 10.5 20C10.5 25.1667 14.5 29.5 19.6667 30H19.8333C20.6667 30 21.3333 29.3333 21.5 28.5C21.6667 27.6667 20.8333 26.8333 20 26.6667C16.6667 26.3333 13.8333 23.3333 13.8333 20C13.8333 16.3333 16.8333 13.3333 20.5 13.3333Z" fill="#002c8a"/>
<path d="M20.5 33.3334C13.1667 33.3334 7.16671 27.3334 7.16671 20C7.16671 12.6667 13.1667 6.66671 20.5 6.66671C27.5 6.66671 33.3334 12.1667 33.8334 19.1667C33.8334 20.1667 34.6667 20.8334 35.6667 20.6667C36.6667 20.6667 37.3334 19.8334 37.1667 18.8334C36.5 10.1667 29.3334 3.33337 20.5 3.33337C11.3334 3.33337 3.83337 10.8334 3.83337 20C3.83337 29.1667 11.3334 36.6667 20.5 36.6667C21.5 36.6667 22.1667 36 22.1667 35C22.1667 34 21.5 33.3334 20.5 33.3334Z" fill="#002c8a"/>
<path d="M36 24.1667C35.8333 24 35.5 23.8333 35.3333 23.8333L24.5 20.1667C23.5 19.8333 22.3333 20.1667 21.5 21C20.6667 21.8333 20.5 23 21 24L26 35C26.5 36 27.5 36.6667 28.5 36.6667C28.6667 36.6667 28.8333 36.6667 29 36.6667C30.3333 36.5 31.1667 35.5 31.3333 34.1667L31.8333 30.1667L35.1667 29.1667C36.1667 28.8333 37 28 37.1667 26.8333C37.3333 25.8333 36.8333 24.6667 36 24.1667ZM30.6667 27C29.5 27.3333 28.8333 28.1667 28.6667 29.3333L28.3333 31.8333L24.6667 23.6667L32.6667 26.3333L30.6667 27Z" fill="#002c8a"/>
</svg>
