<svg width="25" height="26" viewBox="0 0 25 26" fill="none" xmlns="http://www.w3.org/2000/svg">
<path d="M5.1164 4.53463C5.59791 4.53463 5.98862 4.14433 5.98862 3.66282V0.871907C5.98856 0.390352 5.59786 0 5.1164 0C4.63485 0 4.24414 0.390352 4.24414 0.871856V3.66277C4.24414 4.14428 4.63485 4.53463 5.1164 4.53463Z" fill="#10108A"/>
<path d="M12.0925 4.53463C12.5741 4.53463 12.9648 4.14433 12.9648 3.66282V0.871907C12.9648 0.390352 12.5741 0 12.0925 0C11.611 0 11.2207 0.390352 11.2207 0.871856V3.66277C11.2207 4.14428 11.611 4.53463 12.0925 4.53463Z" fill="#10108A"/>
<path d="M19.0681 4.53463C19.5501 4.53463 19.9404 4.14433 19.9404 3.66282V0.871907C19.9404 0.390352 19.5501 0 19.0681 0C18.5866 0 18.1963 0.390352 18.1963 0.871856V3.66277C18.1963 4.14428 18.5866 4.53463 19.0681 4.53463Z" fill="#10108A"/>
<path d="M8.79917 20.5695C10.4293 20.5695 11.6445 19.474 11.6445 17.8177C11.6445 16.6284 10.9766 15.8403 10.4426 15.6132V15.5866C11.1105 15.1459 11.4573 14.4643 11.4573 13.7028C11.4573 12.2331 10.4826 11.1914 8.78586 11.1914C7.31617 11.1914 6.31395 12.0331 6.11352 13.1285C6.10022 13.2084 6.14013 13.2754 6.22082 13.2887L7.35613 13.556C7.43677 13.5693 7.48999 13.5427 7.51665 13.4624C7.67717 12.9014 8.06473 12.5271 8.7326 12.5271C9.49365 12.5271 9.94778 13.0349 9.94778 13.7564C9.94778 14.5578 9.42712 15.0789 8.62535 15.0789H8.2644C8.18457 15.0789 8.13125 15.1321 8.13125 15.2124V16.2678C8.13125 16.348 8.18452 16.4013 8.2644 16.4013H8.65196C9.54687 16.4013 10.1349 16.9627 10.1349 17.8843C10.1349 18.6594 9.64086 19.2337 8.79917 19.2337C8.05066 19.2337 7.60983 18.8062 7.4227 18.2718C7.39609 18.1916 7.32947 18.165 7.26295 18.1783L6.10022 18.4457C6.02039 18.4723 5.98043 18.5388 5.99373 18.6191C6.27404 19.8616 7.38279 20.5695 8.79917 20.5695Z" fill="#10108A"/>
<path d="M14.3973 14.1034L15.7862 13.1282H15.8128V20.2888C15.8128 20.3691 15.8669 20.4224 15.9467 20.4224H17.176C17.2559 20.4224 17.3091 20.3691 17.3091 20.2888V11.4714C17.3091 11.3915 17.2559 11.3379 17.176 11.3379H16.0399C15.9334 11.3379 15.8669 11.3645 15.7995 11.4181L14.344 12.4736C14.2767 12.5268 14.25 12.5804 14.25 12.6603V14.0231C14.2501 14.13 14.3166 14.1566 14.3973 14.1034Z" fill="#10108A"/>
<path d="M20.6385 2.28027V3.66304C20.6385 4.52824 19.9345 5.23247 19.0686 5.23247C18.2034 5.23247 17.4991 4.52819 17.4991 3.66304V2.28027H13.6622V3.66304C13.6622 4.52824 12.9579 5.23247 12.0923 5.23247C11.2271 5.23247 10.5229 4.52819 10.5229 3.66304V2.28027H6.68596V3.66304C6.68596 4.52824 5.98163 5.23247 5.11612 5.23247C4.25092 5.23247 3.54623 4.52819 3.54623 3.66304V2.28027H0V26.0001H24.1852V2.28027H20.6385ZM21.9879 23.803H2.19708V7.26782H21.9879V23.803Z" fill="#10108A"/>
</svg>
