<svg width="60" height="60" viewBox="0 0 60 60" fill="none" xmlns="http://www.w3.org/2000/svg">
<path d="M51.4286 8H18.5714C14.9421 8 12 10.2386 12 13V48C12 50.7614 14.9421 53 18.5714 53H51.4286C55.0579 53 58 50.7614 58 48V13C58 10.2386 55.0579 8 51.4286 8Z" fill="#10108A"/>
<path d="M23.75 18.75H36.25" stroke="#FAFAFA" stroke-width="2.5" stroke-linecap="round"/>
<path d="M23.75 26.25H31.25" stroke="#FAFAFA" stroke-width="2.5" stroke-linecap="round"/>
<path d="M23.75 33.75H33.75" stroke="#FAFAFA" stroke-width="2.5" stroke-linecap="round"/>
<path d="M23.75 41.25H31.25" stroke="#FAFAFA" stroke-width="2.5" stroke-linecap="round"/>
<path d="M20 18.75C20 18.0596 19.4404 17.5 18.75 17.5C18.0596 17.5 17.5 18.0596 17.5 18.75C17.5 19.4404 18.0596 20 18.75 20C19.4404 20 20 19.4404 20 18.75Z" fill="#FAFAFA"/>
<path d="M20 26.25C20 25.5596 19.4404 25 18.75 25C18.0596 25 17.5 25.5596 17.5 26.25C17.5 26.9404 18.0596 27.5 18.75 27.5C19.4404 27.5 20 26.9404 20 26.25Z" fill="#FAFAFA"/>
<path d="M20 33.75C20 33.0596 19.4404 32.5 18.75 32.5C18.0596 32.5 17.5 33.0596 17.5 33.75C17.5 34.4404 18.0596 35 18.75 35C19.4404 35 20 34.4404 20 33.75Z" fill="#FAFAFA"/>
<path d="M20 41.25C20 40.5596 19.4404 40 18.75 40C18.0596 40 17.5 40.5596 17.5 41.25C17.5 41.9404 18.0596 42.5 18.75 42.5C19.4404 42.5 20 41.9404 20 41.25Z" fill="#FAFAFA"/>
<path d="M48.5 44.875C49.8117 44.875 50.875 43.8117 50.875 42.5C50.875 41.1883 49.8117 40.125 48.5 40.125C47.1883 40.125 46.125 41.1883 46.125 42.5C46.125 43.8117 47.1883 44.875 48.5 44.875Z" stroke="#FAFAFA" stroke-miterlimit="10" stroke-linecap="round" stroke-linejoin="round"/>
<path d="M40.583 43.1964V41.8031C40.583 40.9798 41.2559 40.299 42.0872 40.299C43.5201 40.299 44.1059 39.2856 43.3855 38.0427C42.9738 37.3302 43.2193 36.404 43.9397 35.9923L45.3093 35.2086C45.9347 34.8365 46.7422 35.0581 47.1143 35.6836L47.2013 35.834C47.9138 37.0769 49.0855 37.0769 49.8059 35.834L49.893 35.6836C50.2651 35.0581 51.0726 34.8365 51.698 35.2086L53.0676 35.9923C53.788 36.404 54.0334 37.3302 53.6218 38.0427C52.9013 39.2856 53.4872 40.299 54.9201 40.299C55.7434 40.299 56.4243 40.9719 56.4243 41.8031V43.1964C56.4243 44.0198 55.7513 44.7006 54.9201 44.7006C53.4872 44.7006 52.9013 45.7139 53.6218 46.9569C54.0334 47.6773 53.788 48.5956 53.0676 49.0073L51.698 49.791C51.0726 50.1631 50.2651 49.9414 49.893 49.316L49.8059 49.1656C49.0934 47.9227 47.9218 47.9227 47.2013 49.1656L47.1143 49.316C46.7422 49.9414 45.9347 50.1631 45.3093 49.791L43.9397 49.0073C43.2193 48.5956 42.9738 47.6694 43.3855 46.9569C44.1059 45.7139 43.5201 44.7006 42.0872 44.7006C41.2559 44.7006 40.583 44.0198 40.583 43.1964Z" stroke="#FAFAFA" stroke-miterlimit="10" stroke-linecap="round" stroke-linejoin="round"/>
</svg>
