<svg width="38" height="38" viewBox="0 0 38 38" fill="none" xmlns="http://www.w3.org/2000/svg">
<path d="M33.1422 5.358C28.6647 0.880695 21.3803 0.880695 16.9033 5.35783C12.9579 9.30352 12.4906 15.4303 15.4996 19.8933L3.14357 32.2496C2.28515 33.1079 2.2858 34.4989 3.14357 35.3566C4.00102 36.2142 5.3922 36.2148 6.25046 35.3566L18.6068 23.0002C23.0698 26.009 29.1963 25.5419 33.142 21.5963C37.6191 17.1191 37.6195 9.83529 33.1422 5.358ZM31.3073 18.9664C31.0633 18.3144 30.8712 17.8567 30.8712 17.8567C30.7327 17.5255 30.3984 17.3431 30.0812 17.1828L27.931 16.1929L26.8978 15.3217L25.2377 16.9728L25.9547 21.7656C25.4133 21.8259 24.867 21.8335 24.3244 21.7883L25.0445 16.9728L23.3847 15.3217L22.3515 16.1929L20.2011 17.1829C19.8806 17.3242 19.582 17.4823 19.4113 17.8568C19.4113 17.8568 19.1819 18.4032 18.906 19.153C15.8706 15.8847 15.9421 10.7565 19.1219 7.57681C22.3757 4.32318 27.67 4.32335 30.9231 7.57681C34.0427 10.6962 34.1708 15.6923 31.3073 18.9664Z" fill="#002c8a"/>
<path d="M25.0804 15.1548C27.2062 15.1548 28.7924 13.1741 28.8284 9.85287C28.8514 7.54841 27.7536 6.16907 25.0804 6.16907C22.4071 6.16907 21.3091 7.54841 21.3321 9.85287C21.3685 13.1741 22.9546 15.1548 25.0804 15.1548Z" fill="#002c8a"/>
</svg>
