<svg width="30" height="31" viewBox="0 0 30 31" fill="none" xmlns="http://www.w3.org/2000/svg">
<path d="M23.3621 14.8947C22.6496 14.701 21.8121 14.5977 20.8121 14.5977C19.4246 14.5977 18.9121 14.9464 18.1996 15.5018C18.1621 15.5277 18.1246 15.5664 18.0871 15.6052L16.8996 16.9097C15.9121 18.0077 14.0996 18.0077 13.0996 16.9097L11.9121 15.6181C11.8746 15.5664 11.8371 15.5277 11.7996 15.5018C11.0746 14.9464 10.5621 14.5977 9.18711 14.5977C8.18711 14.5977 7.34961 14.6881 6.63711 14.8947C3.66211 15.7214 3.66211 18.1627 3.66211 20.3068V21.5081C3.66211 24.7502 3.66211 28.4185 10.3496 28.4185H19.6496C24.0871 28.4185 26.3371 26.0935 26.3371 21.5081V20.3068C26.3371 18.1627 26.3371 15.7214 23.3621 14.8947Z" fill="#10108A"/>
<path d="M18.4864 2.58398H11.5113C5.98633 2.58398 5.98633 5.6194 5.98633 8.29315V13.0723C6.03633 13.0465 6.09883 13.0336 6.14883 13.0207C7.02383 12.7752 8.01133 12.659 9.18633 12.659C11.1113 12.659 12.0238 13.2402 12.9239 13.9507C13.0489 14.0411 13.1739 14.1573 13.2864 14.2865L14.4614 15.5652C14.5864 15.7073 14.7864 15.7848 14.9989 15.7848C15.2114 15.7848 15.4114 15.7073 15.5239 15.5782L16.7239 14.2736C16.8239 14.1702 16.9364 14.054 17.0614 13.9636C17.9864 13.2402 18.8864 12.659 20.8114 12.659C21.9864 12.659 22.9739 12.7752 23.8489 13.0207C23.8989 13.0336 23.9614 13.0465 24.0114 13.0723V8.29315C24.0114 5.6194 24.0114 2.58398 18.4864 2.58398ZM16.9364 10.9798H13.0614C12.5864 10.9798 12.1863 10.5665 12.1863 10.0757C12.1863 9.5719 12.5864 9.17148 13.0614 9.17148H16.9364C17.4114 9.17148 17.8114 9.5719 17.8114 10.0757C17.8114 10.5665 17.4114 10.9798 16.9364 10.9798ZM17.9114 7.37607H12.0863C11.6113 7.37607 11.2238 6.96273 11.2238 6.4719C11.2238 5.96815 11.6113 5.56773 12.0863 5.56773H17.9114C18.3864 5.56773 18.7739 5.96815 18.7739 6.4719C18.7739 6.96273 18.3864 7.37607 17.9114 7.37607Z" fill="#10108A"/>
</svg>
