<svg width="41" height="41" viewBox="0 0 41 41" fill="none" xmlns="http://www.w3.org/2000/svg">
<path d="M14.5208 29.0404V17.082M14.5208 17.082L18.7917 22.207M14.5208 17.082L10.25 22.207" stroke="#10108A" stroke-width="2" stroke-linecap="round" stroke-linejoin="round"/>
<path d="M26.4793 29.0404V17.082M26.4793 17.082L30.7502 22.207M26.4793 17.082L22.2085 22.207" stroke="#10108A" stroke-width="2" stroke-linecap="round" stroke-linejoin="round"/>
<path d="M30.75 11.957H20.5H10.25" stroke="#10108A" stroke-width="2" stroke-linecap="round"/>
<path d="M37.5832 20.5013C37.5832 28.5544 37.5832 32.5811 35.0813 35.0828C32.5796 37.5846 28.5529 37.5846 20.4998 37.5846C12.4467 37.5846 8.42009 37.5846 5.91831 35.0828C3.4165 32.5811 3.4165 28.5544 3.4165 20.5013C3.4165 12.4481 3.4165 8.42156 5.91831 5.91977C8.42009 3.41797 12.4467 3.41797 20.4998 3.41797C28.5529 3.41797 32.5796 3.41797 35.0813 5.91977C36.7449 7.58324 37.3023 9.92082 37.489 13.668" stroke="#10108A" stroke-width="2" stroke-linecap="round"/>
</svg>
