<svg width="46" height="46" viewBox="0 0 46 46" fill="none" xmlns="http://www.w3.org/2000/svg">
<path d="M23 32.5846V19.168M23 19.168L28.75 24.918M23 19.168L17.25 24.918" stroke="#10108A" stroke-width="2" stroke-linecap="round" stroke-linejoin="round"/>
<path d="M30.6668 13.418H23.0002H15.3335" stroke="#10108A" stroke-width="2" stroke-linecap="round"/>
<path d="M42.1668 22.9987C42.1668 32.0339 42.1668 36.5516 39.3599 39.3584C36.5531 42.1654 32.0353 42.1654 23.0002 42.1654C13.9649 42.1654 9.44728 42.1654 6.6404 39.3584C3.8335 36.5516 3.8335 32.0339 3.8335 22.9987C3.8335 13.9634 3.8335 9.44581 6.6404 6.63893C9.44728 3.83203 13.9649 3.83203 23.0002 3.83203C32.0353 3.83203 36.5531 3.83203 39.3599 6.63893C41.2263 8.50527 41.8517 11.1279 42.0612 15.332" stroke="#10108A" stroke-width="2" stroke-linecap="round"/>
</svg>
