<svg width="35" height="35" viewBox="0 0 35 35" fill="none" xmlns="http://www.w3.org/2000/svg">
<rect x="0.5" y="0.5" width="34" height="34" rx="17" stroke="#007FF5"/>
<g clip-path="url(#clip0_3129_1238)">
<path d="M19.7324 24.2717C19.7324 23.2181 20.1854 22.2707 20.9033 21.6058C20.2185 21.34 19.4799 20.9403 19.4799 20.4293C19.4799 20.0756 19.4799 19.6336 19.4799 19.0273C19.7395 18.3076 20.1297 18.2561 20.3248 17.1515C20.7796 16.989 21.0395 16.7291 21.3642 15.592C21.6082 14.7361 21.2487 14.5064 21.0161 14.4451C21.0208 14.3995 21.0256 14.3536 21.0294 14.2998C21.1173 13.0179 21.8616 9.21288 19.2848 8.75814C18.6027 8.22763 18.1699 7.98723 16.7081 8.07607C15.7826 8.07578 15.0792 8.28006 14.0991 8C12.7911 9.09714 13.1505 12.7003 13.3335 14.4386C13.1035 14.4901 12.7068 14.7039 12.9605 15.592C13.2849 16.7291 13.5448 16.989 13.9996 17.1515C14.1947 18.2561 14.7883 18.6108 14.8315 19.0273C14.8315 19.6336 14.8315 20.0755 14.8315 20.4293C14.8315 20.9637 13.9596 21.4146 13.3146 21.6419C12.0738 22.0792 8.61723 23.3735 8.92008 27H20.9719C20.2138 26.3327 19.7324 25.3585 19.7324 24.2717Z" fill="#007FF5"/>
<path d="M23.3699 21.543C21.8631 21.543 20.6416 22.7645 20.6416 24.2713C20.6416 25.7781 21.8631 26.9996 23.3699 26.9996C24.8768 26.9996 26.0982 25.7781 26.0982 24.2713C26.0982 22.7645 24.8768 21.543 23.3699 21.543ZM24.8857 24.6502H23.7488V25.787H22.991V24.6502H21.8542V23.8924H22.991V22.7556H23.7488V23.8924H24.8857V24.6502Z" fill="#007FF5"/>
</g>
<defs>
<clipPath id="clip0_3129_1238">
<rect width="19" height="19" fill="white" transform="translate(8 8)"/>
</clipPath>
</defs>
</svg>
