<svg width="38" height="38" viewBox="0 0 38 38" fill="none" xmlns="http://www.w3.org/2000/svg">
<path d="M25.1667 2.04163C27.7211 2.04163 29.7917 4.11232 29.7917 6.66663C29.7917 7.51806 29.1015 8.20829 28.2501 8.20829C27.3986 8.20829 26.7084 7.51806 26.7084 6.66663C26.7084 5.81519 26.0182 5.12496 25.1667 5.12496H6.66675C5.81532 5.12496 5.12508 5.81519 5.12508 6.66663V31.3333C5.12508 32.1848 5.81532 32.875 6.66675 32.875H25.1667C26.0182 32.875 26.7084 32.1848 26.7084 31.3333V29.7916C26.7084 28.9402 27.3986 28.25 28.2501 28.25C29.1015 28.25 29.7917 28.9402 29.7917 29.7916V31.3333C29.7917 33.8877 27.7211 35.9583 25.1667 35.9583H6.66675C4.11244 35.9583 2.04175 33.8877 2.04175 31.3333V6.66663C2.04175 4.11232 4.11244 2.04163 6.66675 2.04163H25.1667Z" fill="#002c8a"/>
<path fill-rule="evenodd" clip-rule="evenodd" d="M32.5653 13.143C32.1031 12.6808 31.3537 12.6808 30.8914 13.143L18.8715 25.1631C18.6442 25.3902 18.4936 25.6828 18.4409 25.9998L18.1873 27.5211L19.7086 27.2675C20.0256 27.2148 20.3182 27.0642 20.5452 26.8371L32.5653 14.817C33.0277 14.3547 33.0277 13.6053 32.5653 13.143ZM28.7111 10.9628C30.3775 9.29643 33.0793 9.29642 34.7457 10.9628C36.4119 12.6291 36.4119 15.3308 34.7457 16.9972L22.7256 29.0173C22.0439 29.6989 21.1664 30.1504 20.2155 30.3089L18.6942 30.5625C16.6074 30.9103 14.7981 29.1012 15.1459 27.0142L15.3994 25.4929C15.5579 24.542 16.0095 23.6645 16.6911 22.9828L28.7111 10.9628Z" fill="#002c8a"/>
<path d="M8.20825 11.2917C8.20825 10.4402 8.89849 9.75 9.74992 9.75H22.0833C22.9347 9.75 23.6249 10.4402 23.6249 11.2917C23.6249 12.1431 22.9347 12.8333 22.0833 12.8333H9.74992C8.89849 12.8333 8.20825 12.1431 8.20825 11.2917Z" fill="#002c8a"/>
<path d="M8.20825 17.4583C8.20825 16.6068 8.89849 15.9166 9.74992 15.9166H15.9166C16.768 15.9166 17.4583 16.6068 17.4583 17.4583C17.4583 18.3098 16.768 19 15.9166 19H9.74992C8.89849 19 8.20825 18.3098 8.20825 17.4583Z" fill="#002c8a"/>
<path d="M8.20825 23.625C8.20825 22.7736 8.89849 22.0834 9.74992 22.0834H11.2916C12.143 22.0834 12.8333 22.7736 12.8333 23.625C12.8333 24.4765 12.143 25.1667 11.2916 25.1667H9.74992C8.89849 25.1667 8.20825 24.4765 8.20825 23.625Z" fill="#002c8a"/>
</svg>
