<svg width="8" height="8" viewBox="0 0 8 8" fill="none" xmlns="http://www.w3.org/2000/svg">
<path fill-rule="evenodd" clip-rule="evenodd" d="M5.40875 3.09073C5.40875 4.37097 4.37094 5.40878 3.09071 5.40878C1.8105 5.40878 0.772678 4.37097 0.772678 3.09073C0.772678 1.81051 1.8105 0.772683 3.09071 0.772683C4.37094 0.772683 5.40875 1.81051 5.40875 3.09073ZM4.98599 5.53236C4.46258 5.9392 3.80492 6.18146 3.09071 6.18146C1.38376 6.18146 0 4.79769 0 3.09073C0 1.38377 1.38376 0 3.09071 0C4.79766 0 6.18143 1.38377 6.18143 3.09073C6.18143 3.80495 5.93916 4.46261 5.53232 4.98597L8 7.45366L7.45361 8L4.98599 5.53236Z" fill="#B1B1B1"/>
</svg>
