<svg width="32" height="32" viewBox="0 0 32 32" fill="none" xmlns="http://www.w3.org/2000/svg">
<path d="M15.5 19C17.433 19 19 17.6569 19 16C19 14.3431 17.433 13 15.5 13C13.567 13 12 14.3431 12 16C12 17.6569 13.567 19 15.5 19Z" stroke="#ffffff" stroke-width="2"/>
<path d="M17.6533 3.19791C17.205 3 16.6367 3 15.5 3C14.3633 3 13.7951 3 13.3467 3.19791C12.749 3.4618 12.2741 3.96795 12.0265 4.60502C11.9134 4.89584 11.8692 5.23405 11.8519 5.72739C11.8265 6.45238 11.4776 7.12346 10.8881 7.48621C10.2986 7.84895 9.57887 7.8354 8.97705 7.49639C8.56754 7.26569 8.2706 7.13741 7.97778 7.09633C7.33632 7.00631 6.68758 7.19158 6.17429 7.61136C5.78932 7.92619 5.50515 8.45077 4.93682 9.49991C4.3685 10.5491 4.08433 11.0736 4.02099 11.5864C3.93655 12.27 4.11037 12.9615 4.50424 13.5085C4.68401 13.7583 4.93667 13.9681 5.3288 14.2307C5.90526 14.6168 6.27618 15.2745 6.27614 16C6.2761 16.7255 5.9052 17.3831 5.32879 17.769C4.9366 18.0318 4.68391 18.2417 4.50412 18.4914C4.11025 19.0385 3.93643 19.7298 4.02088 20.4135C4.08421 20.9262 4.36837 21.4509 4.9367 22.5C5.50504 23.5491 5.78921 24.0738 6.17417 24.3885C6.68746 24.8083 7.33619 24.9935 7.97766 24.9036C8.27046 24.8625 8.56738 24.7342 8.97687 24.5036C9.57873 24.1645 10.2985 24.151 10.888 24.5137C11.4776 24.8765 11.8265 25.5476 11.8519 26.2727C11.8692 26.7659 11.9134 27.1042 12.0265 27.395C12.2741 28.032 12.749 28.5382 13.3467 28.8021C13.7951 29 14.3633 29 15.5 29C16.6367 29 17.205 29 17.6533 28.8021C18.251 28.5382 18.726 28.032 18.9735 27.395C19.0865 27.1042 19.1308 26.7659 19.1481 26.2726C19.1735 25.5476 19.5224 24.8765 20.1119 24.5137C20.7014 24.1509 21.4211 24.1645 22.0231 24.5036C22.4325 24.7342 22.7294 24.8624 23.0222 24.9034C23.6636 24.9935 24.3124 24.8083 24.8257 24.3885C25.2106 24.0736 25.4948 23.5491 26.0631 22.4999C26.6315 21.4508 26.9157 20.9262 26.979 20.4135C27.0634 19.7298 26.8896 19.0384 26.4958 18.4913C26.316 18.2416 26.0632 18.0316 25.6711 17.769C25.0948 17.3831 24.7238 16.7254 24.7238 15.9999C24.7238 15.2743 25.0948 14.6169 25.6711 14.231C26.0634 13.9682 26.3161 13.7584 26.4959 13.5085C26.8897 12.9615 27.0635 12.2701 26.9791 11.5865C26.9158 11.0737 26.6316 10.5491 26.0632 9.5C25.495 8.45086 25.2108 7.92628 24.8258 7.61145C24.3125 7.19167 23.6638 7.00641 23.0223 7.09642C22.7296 7.1375 22.4327 7.26577 22.0231 7.49644C21.4213 7.83547 20.7015 7.84903 20.112 7.48625C19.5224 7.12348 19.1735 6.45236 19.1481 5.72732C19.1308 5.23402 19.0865 4.89583 18.9735 4.60502C18.726 3.96795 18.251 3.4618 17.6533 3.19791Z" stroke="#ffffff" stroke-width="2"/>
</svg>
