<svg width="25" height="25" viewBox="0 0 25 25" fill="none" xmlns="http://www.w3.org/2000/svg">
<g clip-path="url(#clip0_1151_228)">
<path d="M8.30742 10.8695H5.823V13.3541H8.30742V10.8695Z" fill="#002c8a"/>
<path d="M19.177 10.8695H16.6926V13.3541H19.177V10.8695Z" fill="#002c8a"/>
<path d="M15.5538 10.8695H13.0693V13.3541H15.5538V10.8695Z" fill="#002c8a"/>
<path d="M8.30742 14.7515H5.823V17.2361H8.30742V14.7515Z" fill="#002c8a"/>
<path d="M15.5538 14.7515H13.0693V17.2361H15.5538V14.7515Z" fill="#002c8a"/>
<path d="M11.9307 14.7515H9.44629V17.2361H11.9307V14.7515Z" fill="#002c8a"/>
<path d="M19.177 18.6334H16.6926V21.118H19.177V18.6334Z" fill="#002c8a"/>
<path d="M15.5538 18.6334H13.0693V21.118H15.5538V18.6334Z" fill="#002c8a"/>
<path d="M11.9307 18.6334H9.44629V21.118H11.9307V18.6334Z" fill="#002c8a"/>
<path d="M21.4492 2.68774H19.4289V4.62476C19.4289 5.34751 18.8334 5.9353 18.1016 5.9353H15.4636C14.7318 5.9353 14.1364 5.34751 14.1364 4.62476V2.68774H10.8603V4.60654C10.8603 5.33936 10.2583 5.9353 9.51831 5.9353H6.90972C6.16973 5.9353 5.56772 5.33936 5.56772 4.60654V2.68774H3.54741C2.23364 2.68774 1.16479 3.74692 1.16479 5.04878V22.6389C1.16479 23.9407 2.23364 25 3.54741 25H21.4492C22.7649 25 23.8354 23.9408 23.8354 22.6389V5.04878C23.8354 3.74697 22.7649 2.68774 21.4492 2.68774ZM22.1274 22.5931C22.1274 23.011 21.8466 23.2917 21.4286 23.2917H3.57158C3.15361 23.2917 2.8728 23.011 2.8728 22.5931V8.6957H22.1274V22.5931Z" fill="#002c8a"/>
<path d="M6.9105 5.00522H9.51753C9.73828 5.00522 9.91787 4.82686 9.91787 4.60757V1.00063C9.91787 0.448877 9.46523 0 8.90879 0H7.51919C6.96279 0 6.51001 0.448828 6.51001 1.00063V4.60757C6.51006 4.82686 6.68965 5.00522 6.9105 5.00522Z" fill="#002c8a"/>
<path d="M15.4635 5.00522H18.1014C18.3137 5.00522 18.4864 4.83369 18.4864 4.6231V0.985254C18.4864 0.442041 18.0407 0 17.4927 0H16.0722C15.5243 0 15.0786 0.442041 15.0786 0.985254V4.6231C15.0786 4.83369 15.2513 5.00522 15.4635 5.00522Z" fill="#002c8a"/>
</g>
<defs>
<clipPath id="clip0_1151_228">
<rect width="25" height="25" fill="white"/>
</clipPath>
</defs>
</svg>
