<svg width="28" height="27" viewBox="0 0 28 27" fill="none" xmlns="http://www.w3.org/2000/svg">
<path d="M0.18457 26.1846V3.51801H3.55957V1.51804C3.55964 0.781615 4.16402 0.184704 4.90958 0.184704H7.60954C8.35511 0.184704 8.95949 0.781615 8.95956 1.51791V3.51801H18.4096L18.4095 1.51791C18.4095 0.781481 19.014 0.18457 19.7595 0.18457H22.4596C23.2051 0.18457 23.8096 0.781481 23.8096 1.51791V3.51801H27.1846V26.1846H0.18457ZM2.20956 24.1846H25.1595V8.85135H2.20956V24.1846ZM3.55957 19.5179H7.60954V22.8512H3.55957V19.5179ZM8.95956 19.5179H13.0095V22.8512H8.95956V19.5179ZM14.3595 19.5179H18.4095V22.8512H14.3595V19.5179ZM19.7595 19.5179H23.8096V22.8512H19.7595V19.5179ZM3.55957 14.8513H7.60954V18.1846H3.55957V14.8513ZM8.95956 14.8513H13.0095V18.1846H8.95956V14.8513ZM14.3595 14.8513H18.4095V18.1846H14.3595V14.8513ZM19.7595 14.8513H23.8096V18.1846H19.7595V14.8513ZM8.95956 10.1847H13.0095V13.5181H8.95956V10.1847ZM14.3595 10.1847H18.4095V13.5181H14.3595V10.1847ZM19.7595 10.1847H23.8096V13.5181H19.7595V10.1847ZM20.772 1.5181C20.2129 1.5181 19.7595 1.96577 19.7595 2.51809V4.51806C19.7595 5.07031 20.2129 5.51804 20.772 5.51804H21.447C22.0062 5.51804 22.4596 5.07031 22.4596 4.51806V2.51809C22.4596 1.96577 22.0062 1.5181 21.447 1.5181H20.772ZM5.92208 1.51804C5.36285 1.51804 4.90958 1.96577 4.90958 2.51802V4.51806C4.90958 5.07031 5.36285 5.51804 5.92208 5.51804H6.59705C7.15628 5.51804 7.60954 5.07031 7.60954 4.51806V2.51802C7.60954 1.96577 7.15628 1.51804 6.59705 1.51804H5.92208ZM9.6346 15.5179V17.5179H12.3346V15.5179H9.6346Z" fill="#10108A"/>
</svg>
