<svg width="22" height="23" viewBox="0 0 22 23" fill="none" xmlns="http://www.w3.org/2000/svg">
<path d="M21.9743 8.34314C21.9074 8.13807 21.7256 8.00301 21.52 7.99799H13.8828L11.4534 0.344507C11.3721 0.0843732 11.0995 -0.0606771 10.8509 0.0243459C10.7074 0.0743843 10.5926 0.194439 10.5448 0.344507L8.11538 8.04803H0.478238C0.2152 8.00301 0 8.22309 0 8.5032C0 8.65829 0.0669363 8.80334 0.186507 8.8984L6.32689 13.9257L3.65361 22.3395C3.56753 22.5996 3.70145 22.8848 3.95489 22.9748C4.10315 23.0248 4.26572 22.9998 4.39009 22.9048L11.0039 17.8625L17.6177 22.7897C17.8329 22.9498 18.1294 22.8998 18.2825 22.6747C18.3686 22.5446 18.3925 22.3795 18.3494 22.2295L15.7001 13.7256L21.807 8.90341C21.9743 8.77332 22.0413 8.54822 21.9743 8.34314ZM14.8536 13.1353C14.691 13.2654 14.6241 13.4855 14.6863 13.6906L16.9913 21.089L11.2813 16.832C11.1139 16.707 10.8891 16.707 10.7218 16.8371L5.03569 21.174L7.34071 13.9107C7.40289 13.7106 7.34071 13.4905 7.18289 13.3605L1.86507 8.99843H8.45975C8.6654 8.99843 8.84711 8.85835 8.91405 8.65327L10.9991 2.08028L13.0842 8.65327C13.1511 8.85835 13.3329 8.99341 13.5385 8.99843H20.0901L14.8536 13.1353Z" fill="#E1DFDF"/>
</svg>
