<svg width="38" height="38" viewBox="0 0 38 38" fill="none" xmlns="http://www.w3.org/2000/svg">
<g clip-path="url(#clip0_3188_1027)">
<path fill-rule="evenodd" clip-rule="evenodd" d="M21.616 33.0104C21.1475 33.0973 20.6709 33.1614 20.1875 33.2013V30.875H17.8125V33.2013C10.8593 32.6275 5.32159 27.0619 4.79156 20.0965H7.125V17.7215H4.80657C5.41835 10.8413 10.92 5.3674 17.8125 4.79878V7.125H20.1875V4.79878C27.1104 5.3699 32.6301 10.8896 33.2013 17.8125H30.875V20.1875H33.2013C33.1614 20.6709 33.0973 21.1475 33.0104 21.616C33.8053 21.7985 34.562 22.0808 35.2669 22.4489C35.5015 21.3362 35.625 20.1825 35.625 19C35.625 9.81827 28.1817 2.375 19 2.375C9.81827 2.375 2.375 9.81827 2.375 19C2.375 28.1817 9.81827 35.625 19 35.625C20.1825 35.625 21.3362 35.5015 22.4489 35.2669C22.0808 34.562 21.7985 33.8053 21.616 33.0104ZM23.5213 24.8603L16.604 21.3958L11.7958 11.7956L21.396 16.6037L24.8605 23.521C24.3708 23.922 23.9222 24.3706 23.5213 24.8603ZM22.4091 22.4088L20.1417 17.858L15.5909 15.5906L17.8583 20.1415L22.4091 22.4088Z" fill="#10108A"/>
<path fill-rule="evenodd" clip-rule="evenodd" d="M26.9166 24.9508C28.0882 24.1678 29.4659 23.75 30.875 23.75C32.7641 23.7524 34.5748 24.5038 35.9105 25.8395C37.2462 27.1752 37.9977 28.9859 38 30.875C38 32.2841 37.5823 33.6618 36.7992 34.8334C36.0164 36.0052 34.9035 36.9184 33.6018 37.4575C32.2998 37.9969 30.8672 38.138 29.4849 37.8632C28.1029 37.5882 26.8333 36.9096 25.8369 35.9131C24.8404 34.9168 24.1619 33.6471 23.8868 32.2651C23.612 30.8828 23.7531 29.4502 24.2925 28.1483C24.8316 26.8465 25.7448 25.7336 26.9166 24.9508ZM30.9498 34.0162L35.2006 28.3487L33.3006 26.9237L29.7849 31.611L27.7056 29.9476L26.2219 31.802L29.2581 34.2309L30.9498 34.0162Z" fill="#10108A"/>
</g>
<defs>
<clipPath id="clip0_3188_1027">
<rect width="38" height="38" fill="white"/>
</clipPath>
</defs>
</svg>
