<svg width="35" height="35" viewBox="0 0 35 35" fill="none" xmlns="http://www.w3.org/2000/svg">
<rect x="0.5" y="0.5" width="34" height="34" rx="17" stroke="#007FF5"/>
<path d="M21.7364 11C21.2595 11 20.8073 11.1074 20.4023 11.2988C20.557 11.498 20.696 11.7101 20.817 11.9332C20.9356 12.1521 21.037 12.3817 21.1196 12.6198C21.2844 13.0948 21.3743 13.6045 21.3743 14.1348C21.3743 14.6651 21.2844 15.1748 21.1196 15.6498C21.037 15.888 20.9356 16.1174 20.817 16.3363C20.696 16.5595 20.557 16.7715 20.4023 16.9707C20.8073 17.1621 21.2595 17.2696 21.7364 17.2696C23.4649 17.2697 24.8712 15.8634 24.8712 14.1349C24.8712 12.4062 23.4649 11 21.7364 11Z" fill="#007FF5"/>
<path d="M21.7367 18.7676C21.5512 18.7676 21.3663 18.7767 21.1826 18.7945C21.4688 19.0173 21.738 19.2608 21.9876 19.5232C22.2396 19.788 22.4714 20.072 22.6813 20.3723C23.3673 21.3535 23.8169 22.5115 23.9461 23.7633C23.9716 24.0097 23.9847 24.2596 23.9847 24.5126C23.9847 24.7753 23.939 25.0274 23.8559 25.262H26.7324C27.1462 25.262 27.4817 24.9264 27.4817 24.5126C27.4817 21.3448 24.9045 18.7676 21.7367 18.7676Z" fill="#007FF5"/>
<path d="M12.3619 15.6498C12.1971 15.1749 12.1073 14.6652 12.1073 14.1349C12.1073 13.6046 12.1971 13.0949 12.3619 12.6199C12.4446 12.3816 12.5459 12.1521 12.6646 11.9332C12.7856 11.7101 12.9245 11.4981 13.0792 11.2988C12.6742 11.1075 12.222 11 11.7451 11C10.0166 11 8.61035 12.4062 8.61035 14.1348C8.61035 15.8633 10.0166 17.2696 11.7451 17.2696C12.222 17.2696 12.6742 17.1621 13.0792 16.9707C12.9245 16.7715 12.7856 16.5595 12.6646 16.3363C12.5459 16.1175 12.4446 15.888 12.3619 15.6498Z" fill="#007FF5"/>
<path d="M11.7451 18.7676C8.57724 18.7676 6 21.3448 6 24.5126C6 24.9265 6.33552 25.262 6.74934 25.262H9.62585C9.54274 25.0274 9.497 24.7753 9.497 24.5126C9.497 24.2596 9.51014 24.0097 9.53556 23.7633C9.66479 22.5115 10.1144 21.3535 10.8004 20.3723C11.0104 20.072 11.2421 19.788 11.4941 19.5232C11.7437 19.2608 12.0129 19.0173 12.2991 18.7945C12.1154 18.7767 11.9305 18.7676 11.7451 18.7676Z" fill="#007FF5"/>
<path d="M19.6527 12.9747C19.5474 12.7116 19.4081 12.4658 19.2391 12.2433C18.6662 11.4886 17.7599 11 16.7413 11C15.7227 11 14.8164 11.4886 14.2434 12.2434C14.0745 12.4659 13.9351 12.7117 13.8299 12.9748C13.6863 13.3339 13.6064 13.7251 13.6064 14.1348C13.6064 14.5445 13.6863 14.9357 13.8299 15.2948C13.9351 15.558 14.0745 15.8038 14.2434 16.0263C14.8164 16.781 15.7227 17.2696 16.7413 17.2696C17.7599 17.2696 18.6662 16.781 19.2391 16.0262C19.4081 15.8037 19.5474 15.5579 19.6527 15.2948C19.7962 14.9357 19.8761 14.5445 19.8761 14.1348C19.8761 13.725 19.7962 13.3338 19.6527 12.9747Z" fill="#007FF5"/>
<path d="M22.4373 23.7633C22.2648 22.4458 21.6443 21.2674 20.7341 20.3863C20.5186 20.1777 20.287 19.9857 20.0412 19.8127C19.7876 19.6341 19.5191 19.4753 19.2378 19.3391C18.6969 19.077 18.109 18.8973 17.4904 18.8164V23.5135C17.4904 23.9273 17.1549 24.2629 16.7411 24.2629C16.3273 24.2629 15.9918 23.9273 15.9918 23.5135V18.8164C15.3732 18.8973 14.7853 19.077 14.2444 19.3391C13.9631 19.4754 13.6945 19.6341 13.441 19.8127C13.1951 19.9858 12.9635 20.1778 12.7481 20.3863C11.8378 21.2674 11.2173 22.4458 11.0449 23.7633C11.0128 24.0086 10.9961 24.2587 10.9961 24.5126C10.9961 24.9264 11.3316 25.262 11.7454 25.262H21.7369C22.1507 25.262 22.4862 24.9264 22.4862 24.5126C22.4862 24.2587 22.4694 24.0086 22.4373 23.7633Z" fill="#007FF5"/>
</svg>
