<svg width="38" height="38" viewBox="0 0 38 38" fill="none" xmlns="http://www.w3.org/2000/svg">
<path d="M35.625 5.9375H14.25V2.375C14.25 2.06006 14.1249 1.75801 13.9022 1.53531C13.6795 1.31261 13.3774 1.1875 13.0625 1.1875H5.0825C4.04948 1.1875 3.05877 1.59786 2.32832 2.32832C1.59786 3.05877 1.1875 4.04948 1.1875 5.0825V25.7925C1.1875 26.8255 1.59786 27.8162 2.32832 28.5467C3.05877 29.2771 4.04948 29.6875 5.0825 29.6875H9.8325C10.3678 31.7153 11.5591 33.509 13.2207 34.7888C14.8822 36.0686 16.9205 36.7626 19.0178 36.7626C21.1151 36.7626 23.1534 36.0686 24.815 34.7888C26.4765 33.509 27.6678 31.7153 28.2031 29.6875H32.9531C33.98 29.6781 34.9615 29.2636 35.6843 28.5342C36.4071 27.8047 36.8125 26.8194 36.8125 25.7925V7.125C36.8125 6.81005 36.6874 6.50801 36.4647 6.28531C36.242 6.06261 35.9399 5.9375 35.625 5.9375ZM19 34.4375C17.5908 34.4375 16.2133 34.0196 15.0416 33.2367C13.8699 32.4538 12.9566 31.341 12.4174 30.0391C11.8781 28.7372 11.737 27.3046 12.0119 25.9225C12.2868 24.5404 12.9654 23.2708 13.9619 22.2744C14.9583 21.2779 16.2279 20.5993 17.61 20.3244C18.9921 20.0495 20.4247 20.1906 21.7266 20.7299C23.0285 21.2691 24.1413 22.1824 24.9242 23.3541C25.7071 24.5258 26.125 25.9033 26.125 27.3125C26.125 29.2022 25.3743 31.0144 24.0381 32.3506C22.7019 33.6868 20.8897 34.4375 19 34.4375ZM34.4375 11.875H21.375C21.0601 11.875 20.758 12.0001 20.5353 12.2228C20.3126 12.4455 20.1875 12.7476 20.1875 13.0625C20.1875 13.3774 20.3126 13.6795 20.5353 13.9022C20.758 14.1249 21.0601 14.25 21.375 14.25H34.4375V25.7925C34.4375 26.1956 34.2774 26.5822 33.9923 26.8673C33.7072 27.1524 33.3206 27.3125 32.9175 27.3125H28.5C28.5 24.7929 27.4991 22.3766 25.7175 20.595C23.9359 18.8134 21.5196 17.8125 19 17.8125C16.4804 17.8125 14.0641 18.8134 12.2825 20.595C10.5009 22.3766 9.5 24.7929 9.5 27.3125H5.0825C4.67937 27.3125 4.29275 27.1524 4.0077 26.8673C3.72264 26.5822 3.5625 26.1956 3.5625 25.7925V5.0825C3.5625 4.67937 3.72264 4.29275 4.0077 4.0077C4.29275 3.72264 4.67937 3.5625 5.0825 3.5625H11.875V7.125C11.875 7.43994 12.0001 7.74199 12.2228 7.96469C12.4455 8.18739 12.7476 8.3125 13.0625 8.3125H34.4375V11.875Z" fill="#002c8a"/>
<path d="M10.6874 13.0625C10.6874 13.3775 10.8125 13.6795 11.0352 13.9022C11.2579 14.1249 11.56 14.25 11.8749 14.25H16.6249C16.9398 14.25 17.2419 14.1249 17.4646 13.9022C17.6873 13.6795 17.8124 13.3775 17.8124 13.0625C17.8124 12.7476 17.6873 12.4456 17.4646 12.2229C17.2419 12.0002 16.9398 11.875 16.6249 11.875H11.8749C11.56 11.875 11.2579 12.0002 11.0352 12.2229C10.8125 12.4456 10.6874 12.7476 10.6874 13.0625ZM7.77802 12.0769C7.71753 12.0297 7.64919 11.9935 7.57615 11.97C7.50677 11.926 7.43051 11.8939 7.35052 11.875C7.19814 11.84 7.03978 11.84 6.8874 11.875C6.81305 11.8882 6.74103 11.9122 6.67365 11.9463C6.59786 11.972 6.52595 12.008 6.4599 12.0532L6.28177 12.1957C6.16883 12.3094 6.08009 12.4449 6.02091 12.5939C5.96172 12.7429 5.93331 12.9023 5.9374 13.0625C5.93649 13.2188 5.96645 13.3737 6.02554 13.5184C6.08464 13.6631 6.17171 13.7947 6.28177 13.9057C6.3972 14.0106 6.52974 14.0949 6.67365 14.155C6.81579 14.2179 6.96949 14.2503 7.1249 14.2503C7.28031 14.2503 7.434 14.2179 7.57615 14.155C7.71995 14.0947 7.85245 14.0104 7.96802 13.9057C8.07808 13.7947 8.16516 13.6631 8.22425 13.5184C8.28335 13.3737 8.3133 13.2188 8.3124 13.0625C8.30802 12.7481 8.18502 12.447 7.96802 12.2194L7.77802 12.0769ZM22.5624 26.125H20.1874V22.5625C20.1874 22.2476 20.0623 21.9455 19.8396 21.7228C19.6169 21.5001 19.3148 21.375 18.9999 21.375C18.685 21.375 18.3829 21.5001 18.1602 21.7228C17.9375 21.9455 17.8124 22.2476 17.8124 22.5625V27.3125C17.8124 27.6275 17.9375 27.9295 18.1602 28.1522C18.3829 28.3749 18.685 28.5 18.9999 28.5H22.5624C22.8773 28.5 23.1794 28.3749 23.4021 28.1522C23.6248 27.9295 23.7499 27.6275 23.7499 27.3125C23.7499 26.9976 23.6248 26.6955 23.4021 26.4728C23.1794 26.2501 22.8773 26.125 22.5624 26.125Z" fill="#002c8a"/>
</svg>
