<svg width="26" height="26" viewBox="0 0 26 26" fill="none" xmlns="http://www.w3.org/2000/svg">
<path d="M6.5 0.8125C6.5 0.597012 6.4144 0.390349 6.26202 0.237976C6.10965 0.0856024 5.90299 0 5.6875 0C5.47201 0 5.26535 0.0856024 5.11298 0.237976C4.9606 0.390349 4.875 0.597012 4.875 0.8125V1.625H3.25C2.38805 1.625 1.5614 1.96741 0.951903 2.5769C0.34241 3.1864 0 4.01305 0 4.875L0 6.5H26V4.875C26 4.01305 25.6576 3.1864 25.0481 2.5769C24.4386 1.96741 23.612 1.625 22.75 1.625H21.125V0.8125C21.125 0.597012 21.0394 0.390349 20.887 0.237976C20.7347 0.0856024 20.528 0 20.3125 0C20.097 0 19.8903 0.0856024 19.738 0.237976C19.5856 0.390349 19.5 0.597012 19.5 0.8125V1.625H6.5V0.8125ZM26 22.75V8.125H0V22.75C0 23.612 0.34241 24.4386 0.951903 25.0481C1.5614 25.6576 2.38805 26 3.25 26H22.75C23.612 26 24.4386 25.6576 25.0481 25.0481C25.6576 24.4386 26 23.612 26 22.75ZM15.4375 11.375H17.0625C17.278 11.375 17.4847 11.4606 17.637 11.613C17.7894 11.7653 17.875 11.972 17.875 12.1875V13.8125C17.875 14.028 17.7894 14.2347 17.637 14.387C17.4847 14.5394 17.278 14.625 17.0625 14.625H15.4375C15.222 14.625 15.0153 14.5394 14.863 14.387C14.7106 14.2347 14.625 14.028 14.625 13.8125V12.1875C14.625 11.972 14.7106 11.7653 14.863 11.613C15.0153 11.4606 15.222 11.375 15.4375 11.375ZM20.3125 11.375H21.9375C22.153 11.375 22.3597 11.4606 22.512 11.613C22.6644 11.7653 22.75 11.972 22.75 12.1875V13.8125C22.75 14.028 22.6644 14.2347 22.512 14.387C22.3597 14.5394 22.153 14.625 21.9375 14.625H20.3125C20.097 14.625 19.8903 14.5394 19.738 14.387C19.5856 14.2347 19.5 14.028 19.5 13.8125V12.1875C19.5 11.972 19.5856 11.7653 19.738 11.613C19.8903 11.4606 20.097 11.375 20.3125 11.375ZM3.25 17.0625C3.25 16.847 3.3356 16.6403 3.48798 16.488C3.64035 16.3356 3.84701 16.25 4.0625 16.25H5.6875C5.90299 16.25 6.10965 16.3356 6.26202 16.488C6.4144 16.6403 6.5 16.847 6.5 17.0625V18.6875C6.5 18.903 6.4144 19.1097 6.26202 19.262C6.10965 19.4144 5.90299 19.5 5.6875 19.5H4.0625C3.84701 19.5 3.64035 19.4144 3.48798 19.262C3.3356 19.1097 3.25 18.903 3.25 18.6875V17.0625ZM8.9375 16.25H10.5625C10.778 16.25 10.9847 16.3356 11.137 16.488C11.2894 16.6403 11.375 16.847 11.375 17.0625V18.6875C11.375 18.903 11.2894 19.1097 11.137 19.262C10.9847 19.4144 10.778 19.5 10.5625 19.5H8.9375C8.72201 19.5 8.51535 19.4144 8.36298 19.262C8.2106 19.1097 8.125 18.903 8.125 18.6875V17.0625C8.125 16.847 8.2106 16.6403 8.36298 16.488C8.51535 16.3356 8.72201 16.25 8.9375 16.25Z" fill="#10108A"/>
<rect x="12.5664" y="16.0332" width="3.46667" height="3.46667" rx="1" fill="white"/>
<rect x="17.333" y="16.0332" width="3.46667" height="3.46667" rx="1" fill="white"/>
<rect x="21.667" y="16.0332" width="3.46667" height="3.46667" rx="1" fill="white"/>
</svg>
