<svg width="47" height="47" viewBox="0 0 47 47" fill="none" xmlns="http://www.w3.org/2000/svg">
<g clip-path="url(#clip0_3293_711)">
<path d="M9.79199 9.79167H11.7503V11.75H9.79199V9.79167ZM13.7087 11.75H15.667V9.79167H13.7087V11.75ZM43.0837 5.875V21.5417H41.1253V15.6667H5.87533V21.5417H21.542V23.5H5.87533V29.375H21.542V31.3333H3.91699V5.875H43.0837ZM41.1253 7.83333H5.87533V13.7083H41.1253V7.83333ZM9.79199 17.625V19.5833H11.7503V17.625H9.79199ZM13.7087 17.625V19.5833H15.667V17.625H13.7087ZM9.79199 25.4583V27.4167H11.7503V25.4583H9.79199ZM13.7087 25.4583V27.4167H15.667V25.4583H13.7087ZM17.6253 11.75H19.5837V9.79167H17.6253V11.75ZM17.6253 17.625V19.5833H19.5837V17.625H17.6253ZM17.6253 25.4583V27.4167H19.5837V25.4583H17.6253ZM43.0837 25.4583H35.0819L35.6557 24.8845L34.2712 23.5L31.3337 26.4375L34.2712 29.375L35.6557 27.9905L35.0819 27.4167H43.0837V43.0833H41.1253V45.0417H43.0837C43.603 45.0417 44.1012 44.8353 44.4684 44.4681C44.8357 44.1008 45.042 43.6027 45.042 43.0833V27.4167C45.042 26.8973 44.8357 26.3992 44.4684 26.0319C44.1012 25.6647 43.603 25.4583 43.0837 25.4583ZM38.4228 44.0625L34.2712 48.2142L31.0987 45.0417H27.417C26.3399 45.0417 25.4587 44.1604 25.4587 43.0833V39.1667H23.5003V33.2917H25.4587V29.1987C24.3228 28.7875 23.5003 27.7104 23.5003 26.4375C23.5003 24.8121 24.8124 23.5 26.4378 23.5C28.0632 23.5 29.3753 24.8121 29.3753 26.4375C29.3753 27.7104 28.5528 28.7875 27.417 29.1987V33.2917H29.3753V39.1667H27.417V43.0833H31.0987L34.2712 39.9108L38.4228 44.0625ZM25.4587 27.4167H27.417V25.4583H25.4587V27.4167ZM27.417 37.2083V35.25H25.4587V37.2083H27.417ZM34.2712 45.4529L35.6616 44.0625L34.2712 42.6721L32.8807 44.0625L34.2712 45.4529Z" fill="#10108A"/>
</g>
<defs>
<clipPath id="clip0_3293_711">
<rect width="47" height="47" fill="white"/>
</clipPath>
</defs>
</svg>
