<svg width="60" height="60" viewBox="0 0 60 60" fill="none" xmlns="http://www.w3.org/2000/svg">
<path d="M18.75 17.9699C22.0611 16.5232 24.375 13.2193 24.375 9.375C24.375 4.19734 20.1777 0 15 0C9.82234 0 5.625 4.19734 5.625 9.375C5.625 13.2193 7.93894 16.5232 11.25 17.9699V42.03C7.93894 43.4768 5.625 46.7805 5.625 50.625C5.625 55.8026 9.82234 60 15 60C20.1777 60 24.375 55.8026 24.375 50.625C24.375 46.7805 22.0611 43.4768 18.75 42.03V33.75H48.75V17.9699C52.0613 16.5232 54.375 13.2193 54.375 9.375C54.375 4.19734 50.1776 0 45 0C39.8224 0 35.625 4.19734 35.625 9.375C35.625 13.2193 37.9387 16.5232 41.25 17.9699V26.25H18.75V17.9699Z" fill="#10108A"/>
</svg>
