<svg width="28" height="25" viewBox="0 0 28 25" fill="none" xmlns="http://www.w3.org/2000/svg">
<path d="M17.1255 24.2494C16.8579 24.2587 16.5949 24.1774 16.3794 24.0186C16.1638 23.8598 16.0082 23.6327 15.9379 23.3744L12.0629 11.6869L8.93795 19.6869C8.85931 19.9231 8.70837 20.1287 8.50648 20.2745C8.3046 20.4203 8.06198 20.499 7.81295 20.4994C7.57085 20.5055 7.33179 20.4445 7.1222 20.3231C6.91262 20.2018 6.74069 20.0249 6.62545 19.8119L4.37545 15.2494L2.43795 17.5619C2.2211 17.8083 1.916 17.9596 1.58856 17.983C1.26112 18.0063 0.937627 17.9 0.687949 17.6869C0.441497 17.47 0.290239 17.1649 0.266851 16.8375C0.243462 16.51 0.34982 16.1865 0.562949 15.9369L3.68795 12.1869C3.81356 12.03 3.97693 11.9076 4.16276 11.831C4.34859 11.7545 4.5508 11.7264 4.75045 11.7494C4.96016 11.775 5.16058 11.8509 5.33468 11.9706C5.50878 12.0903 5.65141 12.2502 5.75045 12.4369L7.62545 16.1869L10.9379 7.56186C11.0265 7.31371 11.1912 7.0999 11.4085 6.95095C11.6259 6.802 11.8847 6.72553 12.1481 6.73246C12.4115 6.73939 12.6659 6.82937 12.8751 6.98954C13.0843 7.14972 13.2376 7.3719 13.3129 7.62435L17.0004 18.6244L21.5629 1.43686C21.6187 1.17733 21.7598 0.943979 21.9637 0.774047C22.1677 0.604114 22.4226 0.507403 22.688 0.499355C22.9637 0.486733 23.2358 0.565724 23.4619 0.724008C23.6881 0.882291 23.8554 1.11096 23.938 1.37436L27.688 12.6244C27.756 12.9297 27.707 13.2494 27.5508 13.5203C27.3946 13.7913 27.1425 13.9939 26.8443 14.0881C26.546 14.1823 26.2233 14.1612 25.9398 14.0291C25.6563 13.897 25.4326 13.6633 25.3129 13.3744L22.8755 6.12436L18.3129 23.3119C18.2572 23.5714 18.1161 23.8047 17.9122 23.9747C17.7082 24.1446 17.4533 24.2413 17.188 24.2494H17.1255Z" fill="#0099e0"/>
</svg>
