<svg width="25" height="27" viewBox="0 0 25 27" fill="none" xmlns="http://www.w3.org/2000/svg">
<path d="M12.5009 18.3768L3.34506 13.1976L7.08671 11.079L5.41418 10.1328L0 13.1976L12.5009 20.2671L25 13.1976L19.5858 10.1328L17.9169 11.079L21.6567 13.1976L12.5009 18.3768Z" fill="#0099e0"/>
<path d="M12.5009 24.4979L3.34506 19.3187L7.08671 17.2001L5.41418 16.2539L0 19.3187L12.5009 26.3882L25 19.3187L19.5858 16.2539L17.9169 17.2001L21.6567 19.3187L12.5009 24.4979Z" fill="#0099e0"/>
<path d="M12.5009 0L0 7.0695L12.5009 14.1369L25 7.06744L12.5009 0ZM12.5009 1.89027L21.6567 7.0695L12.5009 12.2487L3.34506 7.0695L12.5009 1.89027Z" fill="#0099e0"/>
</svg>
