<svg width="33" height="33" viewBox="0 0 33 33" fill="none" xmlns="http://www.w3.org/2000/svg">
<path d="M18.6993 32.8637C7.97413 34.2387 -1.23849 25.1636 0.136525 14.3009C1.09904 7.01335 7.01161 0.963277 14.2992 0.138266C25.0243 -1.23675 34.237 7.83837 32.8619 18.701C31.8994 25.9886 25.9869 31.9012 18.6993 32.8637ZM18.8368 2.8883C9.48664 1.37578 1.37404 9.48839 2.88656 18.8385C3.84907 24.4761 8.38663 29.1511 14.1617 30.1136C23.5118 31.6262 31.6244 23.5136 30.1119 14.1634C29.1494 8.52587 24.4743 3.85081 18.8368 2.8883Z" fill="#0099e0"/>
<path d="M7.69944 5.77734L27.2247 25.1651L25.2997 27.2276L5.77441 7.70237" fill="#0099e0"/>
</svg>
