<svg width="37" height="37" viewBox="0 0 37 37" fill="none" xmlns="http://www.w3.org/2000/svg">
<path d="M10.375 5.5V2.25C10.375 1.81902 10.5462 1.4057 10.851 1.10095C11.1557 0.796205 11.569 0.625 12 0.625C12.431 0.625 12.8443 0.796205 13.149 1.10095C13.4538 1.4057 13.625 1.81902 13.625 2.25V5.5C13.625 5.93098 13.4538 6.3443 13.149 6.64905C12.8443 6.95379 12.431 7.125 12 7.125C11.569 7.125 11.1557 6.95379 10.851 6.64905C10.5462 6.3443 10.375 5.93098 10.375 5.5ZM2.25 13.625H5.5C5.93098 13.625 6.3443 13.4538 6.64905 13.149C6.95379 12.8443 7.125 12.431 7.125 12C7.125 11.569 6.95379 11.1557 6.64905 10.851C6.3443 10.5462 5.93098 10.375 5.5 10.375H2.25C1.81902 10.375 1.4057 10.5462 1.10095 10.851C0.796205 11.1557 0.625 11.569 0.625 12C0.625 12.431 0.796205 12.8443 1.10095 13.149C1.4057 13.4538 1.81902 13.625 2.25 13.625ZM36.375 20.125V34.75C36.375 35.181 36.2038 35.5943 35.899 35.899C35.5943 36.2038 35.181 36.375 34.75 36.375H12C11.569 36.375 11.1557 36.2038 10.851 35.899C10.5462 35.5943 10.375 35.181 10.375 34.75V12C10.375 11.569 10.5462 11.1557 10.851 10.851C11.1557 10.5462 11.569 10.375 12 10.375H26.625C27.0517 10.3952 27.458 10.5636 27.7739 10.8511L35.8989 18.9761C36.1914 19.2889 36.3605 19.6971 36.375 20.125ZM33.125 21.75H26.625C26.194 21.75 25.7807 21.5788 25.476 21.274C25.1712 20.9693 25 20.556 25 20.125V13.625H13.625V33.125H33.125V21.75Z" fill="#0099e0"/>
</svg>
