<svg width="24" height="25" viewBox="0 0 24 25" fill="none" xmlns="http://www.w3.org/2000/svg">
<path d="M1.42474 18.7554C1.42474 17.4911 1.42474 2.6879 1.42474 1.42249C2.67659 1.42249 16.0313 1.42249 17.2832 1.42249C17.2832 1.86991 17.2832 4.01208 17.2832 6.64577C17.5894 6.58925 17.9034 6.55086 18.2255 6.55086C18.3904 6.55086 18.5463 6.58475 18.709 6.59946V0H0V20.1779H11.7662V18.7554C7.48408 18.7554 2.19078 18.7554 1.42474 18.7554Z" fill="white"/>
<path d="M3.45117 10.834H13.1147C13.2096 10.3019 13.3972 9.80698 13.6435 9.34375H3.45117V10.834Z" fill="white"/>
<path d="M15.2558 4.68457H3.45117V6.17484H15.2558V4.68457Z" fill="white"/>
<path d="M3.45117 15.4942H13.4695C13.7372 15.3315 14.0231 15.1993 14.3293 15.1179C14.0389 14.7801 13.8005 14.4005 13.5971 14.0039H3.45117V15.4942Z" fill="white"/>
<path d="M18.2271 15.6436C20.3783 15.6436 22.1114 13.9048 22.1114 11.7604C22.1114 9.61368 20.3782 7.87598 18.2271 7.87598C16.0849 7.87598 14.3506 9.61368 14.3506 11.7604C14.3506 13.9048 16.0849 15.6436 18.2271 15.6436Z" fill="white"/>
<path d="M21.3436 16.2744H15.1181C14.0064 16.2744 13.0957 17.2935 13.0957 18.5488V24.7991C13.0957 24.868 13.1273 24.929 13.1318 25.0002H23.3241C23.3287 24.9302 23.3603 24.868 23.3603 24.7991V18.5488C23.3648 17.2969 22.4564 16.2744 21.3436 16.2744Z" fill="white"/>
</svg>
