<svg width="30" height="30" viewBox="0 0 41 36" fill="none" xmlns="http://www.w3.org/2000/svg">
<path d="M38.4334 4.16699C38.9513 4.96537 39.25 5.90536 39.25 6.91152C39.25 9.80799 36.7745 12.1561 33.7206 12.1561C33.1634 12.1561 31.8947 12.0341 31.2774 11.5462L30.5059 12.2781C29.863 12.8878 30.3773 12.8878 30.6345 13.3757C30.6345 13.3757 31.2774 14.2295 30.6345 15.0832C30.2487 15.5711 29.1685 16.2541 27.9341 15.0832L27.6769 15.3272C27.6769 15.3272 28.4485 16.1809 27.8055 17.0347C27.4197 17.5226 26.391 18.0104 25.4909 17.1567C25.448 17.1973 25.208 17.425 24.5908 18.0104C23.9735 18.5958 23.2192 18.2543 22.9191 18.0104L22.1476 17.2786C21.4275 16.5956 21.8476 15.8557 22.1476 15.5711L28.8343 9.22891C28.8343 9.22891 28.1913 8.25314 28.1913 6.91152C28.1913 4.01505 30.6669 1.66699 33.7206 1.66699C34.4371 1.66699 35.1218 1.79623 35.75 2.03148" stroke="white" stroke-linecap="round" stroke-linejoin="round"/>
<path d="M35.6497 6.91152C35.6497 7.92192 34.7862 8.741 33.7208 8.741C32.6556 8.741 31.792 7.92192 31.792 6.91152C31.792 5.90112 32.6556 5.08203 33.7208 5.08203C34.7862 5.08203 35.6497 5.90112 35.6497 6.91152Z" stroke="white"/>
<path d="M25 23.0794C25 19.6105 23.6836 16.2837 21.3405 13.8309C18.9974 11.378 15.8195 10 12.5058 10C9.35964 9.99696 6.32821 11.2366 4.01702 13.4712C1.70584 15.7058 0.285049 18.7709 0.0384592 22.0543C-0.20813 25.3376 0.737633 28.5975 2.68683 31.1828C4.63603 33.768 7.44517 35.4883 10.5531 36V26.8594H7.38315V23.0794H10.5549V20.1982C10.5549 16.9209 12.4201 15.1084 15.2741 15.1084C16.6414 15.1084 18.0711 15.3644 18.0711 15.3644V18.5838H16.495C14.9422 18.5838 14.4602 19.5928 14.4602 20.6261V23.0794H17.9247L17.3714 26.8594H14.4584V36C17.3973 35.5128 20.0736 33.9439 22.006 31.5754C23.9384 29.2068 25.0001 26.1942 25 23.0794Z" fill="white"/>
</svg>
