<svg width="20" height="20" viewBox="0 0 34 33" fill="none" xmlns="http://www.w3.org/2000/svg">
<path d="M33.5 16.6008C33.5 12.198 31.7624 7.97552 28.6695 4.86227C25.5766 1.74901 21.3817 7.0871e-06 17.0076 7.0871e-06C12.8547 -0.00385327 8.85323 1.56947 5.80247 4.40571C2.75171 7.24195 0.876265 11.1323 0.550766 15.2996C0.225268 19.467 1.47368 23.6046 4.04662 26.8858C6.61956 30.1671 10.3276 32.3506 14.4301 33V21.3984H10.2458V16.6008H14.4325V12.9439C14.4325 8.78419 16.8945 6.4838 20.6619 6.4838C22.4666 6.4838 24.3538 6.8087 24.3538 6.8087V10.8949H22.2734C20.2236 10.8949 19.5875 12.1755 19.5875 13.487V16.6008H24.1606L23.4302 21.3984H19.5852V33C23.4644 32.3817 26.9972 30.3903 29.5479 27.3841C32.0987 24.3779 33.5001 20.5542 33.5 16.6008Z" fill="#333232"/>
</svg>
