<svg width="20" height="20" viewBox="0 0 20 20" fill="none" xmlns="http://www.w3.org/2000/svg">
<g clip-path="url(#clip0_3192_1040)">
<path d="M19.7618 10.1858C19.7618 9.36645 19.6954 8.76851 19.5515 8.14844H10.1948V11.8468H15.687C15.5763 12.7658 14.9783 14.15 13.6496 15.08L13.6309 15.2039L16.5893 17.4957L16.7943 17.5161C18.6767 15.7777 19.7618 13.2198 19.7618 10.1858Z" fill="white"/>
<path d="M10.1947 19.9322C12.8854 19.9322 15.1442 19.0463 16.7941 17.5183L13.6494 15.0822C12.8079 15.669 11.6784 16.0787 10.1947 16.0787C7.55932 16.0787 5.3226 14.3403 4.52527 11.9375L4.4084 11.9474L1.33222 14.3281L1.29199 14.4399C2.93077 17.6954 6.29695 19.9322 10.1947 19.9322Z" fill="white"/>
<path d="M4.52526 11.9383C4.31488 11.3182 4.19313 10.6538 4.19313 9.9673C4.19313 9.28073 4.31488 8.61638 4.51419 7.99631L4.50862 7.86424L1.39389 5.44531L1.29198 5.49379C0.616561 6.8447 0.229004 8.36173 0.229004 9.9673C0.229004 11.5729 0.616561 13.0898 1.29198 14.4407L4.52526 11.9383Z" fill="white"/>
<path d="M10.1947 3.85336C12.066 3.85336 13.3283 4.66168 14.048 5.33718L16.8605 2.59107C15.1332 0.985496 12.8854 0 10.1947 0C6.29695 0 2.93077 2.23672 1.29199 5.49214L4.51421 7.99466C5.3226 5.59183 7.55932 3.85336 10.1947 3.85336Z" fill="#FFFEFE"/>
</g>
<defs>
<clipPath id="clip0_3192_1040">
<rect width="20" height="20" fill="white"/>
</clipPath>
</defs>
</svg>
