<svg width="30" height="30" viewBox="0 0 39 38" fill="none" xmlns="http://www.w3.org/2000/svg">
<path d="M37.16 3.55C37.6927 4.36434 38 5.32314 38 6.34943C38 9.30383 35.4537 11.6989 32.3126 11.6989C31.7395 11.6989 30.4345 11.5744 29.7996 11.0768L29.006 11.8233C28.3448 12.4453 28.8738 12.4453 29.1383 12.9429C29.1383 12.9429 29.7996 13.8138 29.1383 14.6846C28.7415 15.1822 27.6305 15.8788 26.3608 14.6846L26.0963 14.9334C26.0963 14.9334 26.8898 15.8042 26.2285 16.675C25.8317 17.1727 24.7736 17.6703 23.8478 16.7995C23.8037 16.841 23.5568 17.0732 22.9219 17.6703C22.2871 18.2674 21.5111 17.9191 21.2025 17.6703L20.409 16.9238C19.6683 16.2272 20.1004 15.4725 20.409 15.1822L27.2867 8.71316C27.2867 8.71316 26.6253 7.71788 26.6253 6.34943C26.6253 3.39502 29.1716 1 32.3126 1C33.0495 1 33.7538 1.13183 34.4 1.37177" stroke="#333232" stroke-linecap="round" stroke-linejoin="round"/>
<path d="M34 6.50001C34 7.32844 33.3285 8 32.5 8C31.6716 8 31 7.32844 31 6.50001C31 5.67158 31.6716 5 32.5 5C33.3285 5 34 5.67158 34 6.50001Z" stroke="#333232"/>
<g clip-path="url(#clip0_2503_1498)">
<path d="M6.33935 37.9116C4.85259 37.844 4.04494 37.5965 3.50774 37.387C2.79594 37.1099 2.28847 36.78 1.75424 36.2465C1.22002 35.713 0.889381 35.2055 0.613725 34.4937C0.404197 33.9566 0.156775 33.1489 0.089161 31.6621C0.0148602 30.055 0 29.5728 0 25.5011C0 21.4294 0.0163462 20.948 0.088418 19.3393C0.156032 17.8526 0.40494 17.0464 0.612982 16.5077C0.890124 15.7959 1.22076 15.2885 1.7535 14.7535C2.28698 14.22 2.79445 13.8886 3.507 13.613C4.04419 13.4035 4.85184 13.156 6.3386 13.0884C7.94647 13.0149 8.42943 13 12.4996 13C16.5713 13 17.0528 13.0163 18.6614 13.0884C20.1482 13.156 20.9543 13.4049 21.493 13.613C22.2048 13.8886 22.7123 14.22 23.2465 14.7535C23.7807 15.287 24.1099 15.7952 24.387 16.507C24.5965 17.0442 24.844 17.8518 24.9116 19.3386C24.9851 20.9472 25 21.4287 25 25.5004C25 29.5706 24.9851 30.0535 24.9116 31.6621C24.844 33.1489 24.5951 33.9566 24.387 34.4937C24.1099 35.2055 23.78 35.713 23.2465 36.2465C22.713 36.78 22.2048 37.1099 21.493 37.387C20.9558 37.5965 20.1482 37.844 18.6614 37.9116C17.0543 37.9851 16.5713 38 12.4996 38C8.42943 38 7.94647 37.9859 6.33935 37.9116Z" fill="url(#paint0_radial_2503_1498)"/>
<path d="M6.33935 37.9116C4.85259 37.844 4.04494 37.5965 3.50774 37.387C2.79594 37.1099 2.28847 36.78 1.75424 36.2465C1.22002 35.713 0.889381 35.2055 0.613725 34.4937C0.404197 33.9566 0.156775 33.1489 0.089161 31.6621C0.0148602 30.055 0 29.5728 0 25.5011C0 21.4294 0.0163462 20.948 0.088418 19.3393C0.156032 17.8526 0.40494 17.0464 0.612982 16.5077C0.890124 15.7959 1.22076 15.2885 1.7535 14.7535C2.28698 14.22 2.79445 13.8886 3.507 13.613C4.04419 13.4035 4.85184 13.156 6.3386 13.0884C7.94647 13.0149 8.42943 13 12.4996 13C16.5713 13 17.0528 13.0163 18.6614 13.0884C20.1482 13.156 20.9543 13.4049 21.493 13.613C22.2048 13.8886 22.7123 14.22 23.2465 14.7535C23.7807 15.287 24.1099 15.7952 24.387 16.507C24.5965 17.0442 24.844 17.8518 24.9116 19.3386C24.9851 20.9472 25 21.4287 25 25.5004C25 29.5706 24.9851 30.0535 24.9116 31.6621C24.844 33.1489 24.5951 33.9566 24.387 34.4937C24.1099 35.2055 23.78 35.713 23.2465 36.2465C22.713 36.78 22.2048 37.1099 21.493 37.387C20.9558 37.5965 20.1482 37.844 18.6614 37.9116C17.0543 37.9851 16.5713 38 12.4996 38C8.42943 38 7.94647 37.9859 6.33935 37.9116Z" fill="#333232"/>
<path d="M9.43149 25.5532C9.43149 23.8435 10.8171 22.4571 12.5269 22.4571C14.2366 22.4571 15.623 23.8435 15.623 25.5532C15.623 27.263 14.2366 28.6493 12.5269 28.6493C10.8171 28.6493 9.43149 27.263 9.43149 25.5532ZM7.75779 25.5532C7.75779 28.1872 9.8929 30.3223 12.5269 30.3223C15.1608 30.3223 17.2959 28.1872 17.2959 25.5532C17.2959 22.9193 15.1608 20.7842 12.5269 20.7842C9.8929 20.7842 7.75786 22.9191 7.75786 25.5532M16.3703 20.5951C16.3702 20.8155 16.4355 21.031 16.5579 21.2143C16.6803 21.3977 16.8543 21.5406 17.0579 21.625C17.2615 21.7094 17.4856 21.7316 17.7018 21.6887C17.918 21.6458 18.1166 21.5397 18.2726 21.3839C18.4285 21.2281 18.5347 21.0296 18.5778 20.8134C18.6209 20.5972 18.5989 20.3731 18.5147 20.1694C18.4304 19.9657 18.2876 19.7916 18.1044 19.6691C17.9211 19.5465 17.7057 19.4811 17.4853 19.481H17.4848C17.1893 19.4811 16.906 19.5985 16.697 19.8074C16.4881 20.0163 16.3705 20.2996 16.3703 20.5951ZM8.77467 33.1132C7.86917 33.072 7.377 32.9211 7.04992 32.7937C6.6163 32.6249 6.30692 32.4238 5.98163 32.099C5.65634 31.7741 5.45498 31.465 5.28691 31.0314C5.15941 30.7045 5.00858 30.2122 4.96742 29.3067C4.92239 28.3277 4.9134 28.0336 4.9134 25.5534C4.9134 23.0731 4.92314 22.7799 4.96742 21.8001C5.00866 20.8946 5.1606 20.4032 5.28691 20.0753C5.45573 19.6417 5.65678 19.3323 5.98163 19.007C6.30647 18.6817 6.61556 18.4804 7.04992 18.3123C7.37685 18.1848 7.86917 18.034 8.77467 17.9928C9.75366 17.9478 10.0477 17.9388 12.5269 17.9388C15.006 17.9388 15.3004 17.9484 16.2802 17.993C17.1857 18.0342 17.677 18.1862 18.0049 18.3125C18.4385 18.4805 18.7479 18.6823 19.0732 19.0072C19.3985 19.332 19.5991 19.6419 19.7679 20.0755C19.8954 20.4024 20.0463 20.8947 20.0874 21.8002C20.1324 22.78 20.1414 23.0733 20.1414 25.5535C20.1414 28.0338 20.1324 28.327 20.0874 29.3068C20.0462 30.2123 19.8946 30.7045 19.7679 31.0316C19.5991 31.4652 19.3981 31.7746 19.0732 32.0991C18.7484 32.4237 18.4385 32.625 18.0049 32.7938C17.678 32.9213 17.1857 33.0722 16.2802 33.1133C15.3012 33.1584 15.0071 33.1674 12.5269 33.1674C10.0466 33.1674 9.75336 33.1584 8.77467 33.1133M8.69777 16.3219C7.70905 16.3669 7.03343 16.5237 6.44341 16.7533C5.83273 16.9904 5.31507 17.3084 4.79816 17.8245C4.28125 18.3406 3.96399 18.8584 3.72689 19.4698C3.4973 20.0602 3.34053 20.7354 3.2955 21.7241C3.24973 22.7144 3.23926 23.031 3.23926 25.5532C3.23926 28.0754 3.24973 28.392 3.2955 29.3823C3.34053 30.3711 3.4973 31.0463 3.72689 31.6367C3.96399 32.2474 4.28133 32.7661 4.79816 33.2819C5.315 33.7978 5.83199 34.1154 6.44341 34.3532C7.03454 34.5828 7.70905 34.7396 8.69777 34.7846C9.68857 34.8296 10.0046 34.8408 12.5269 34.8408C15.0491 34.8408 15.3657 34.8304 16.356 34.7846C17.3447 34.7396 18.0199 34.5828 18.6103 34.3532C19.221 34.1154 19.7386 33.798 20.2556 33.2819C20.7725 32.7658 21.0891 32.2474 21.3268 31.6367C21.5564 31.0463 21.7139 30.371 21.7582 29.3823C21.8032 28.3913 21.8137 28.0754 21.8137 25.5532C21.8137 23.031 21.8032 22.7144 21.7582 21.7241C21.7132 20.7353 21.5564 20.0598 21.3268 19.4698C21.0891 18.8591 20.7717 18.3414 20.2556 17.8245C19.7395 17.3076 19.221 16.9904 18.6111 16.7533C18.0199 16.5237 17.3447 16.3662 16.3567 16.3219C15.3663 16.2766 15.0498 16.2656 12.528 16.2656C10.0061 16.2656 9.68894 16.2761 8.69814 16.3219" fill="white"/>
</g>
<defs>
<radialGradient id="paint0_radial_2503_1498" cx="0" cy="0" r="1" gradientUnits="userSpaceOnUse" gradientTransform="translate(1.61797 37.4523) scale(31.7407)">
<stop offset="0.09" stop-color="#FA8F21"/>
<stop offset="0.78" stop-color="#D82D7E"/>
</radialGradient>
<clipPath id="clip0_2503_1498">
<rect width="25" height="25" fill="white" transform="translate(0 13)"/>
</clipPath>
</defs>
</svg>
