<svg width="20" height="20" viewBox="0 0 30 30" fill="none" xmlns="http://www.w3.org/2000/svg">
<g clip-path="url(#clip0_2503_1471)">
<path d="M7.60722 29.8939C5.8231 29.8128 4.85392 29.5159 4.20929 29.2644C3.35513 28.9319 2.74616 28.536 2.10509 27.8958C1.46402 27.2556 1.06726 26.6467 0.73647 25.7925C0.485036 25.1479 0.18813 24.1787 0.106993 22.3946C0.0178322 20.466 0 19.8874 0 15.0013C0 10.1153 0.0196154 9.53755 0.106102 7.60722C0.187238 5.8231 0.485927 4.85571 0.735578 4.20929C1.06815 3.35513 1.46492 2.74616 2.1042 2.1042C2.74438 1.46402 3.35334 1.06637 4.2084 0.735578C4.85303 0.484144 5.82221 0.187238 7.60632 0.106102C9.53577 0.0178322 10.1153 0 14.9996 0C19.8856 0 20.4633 0.0196154 22.3937 0.106102C24.1778 0.187238 25.1452 0.485927 25.7916 0.735578C26.6458 1.06637 27.2547 1.46402 27.8958 2.1042C28.5369 2.74438 28.9319 3.35424 29.2644 4.2084C29.5159 4.85303 29.8128 5.82221 29.8939 7.60632C29.9822 9.53666 30 10.1144 30 15.0004C30 19.8847 29.9822 20.4642 29.8939 22.3946C29.8128 24.1787 29.5141 25.1479 29.2644 25.7925C28.9319 26.6467 28.536 27.2556 27.8958 27.8958C27.2556 28.536 26.6458 28.9319 25.7916 29.2644C25.147 29.5159 24.1778 29.8128 22.3937 29.8939C20.4651 29.9822 19.8856 30 14.9996 30C10.1153 30 9.53577 29.9831 7.60722 29.8939Z" fill="url(#paint0_radial_2503_1471)"/>
<path d="M7.60722 29.8939C5.8231 29.8128 4.85392 29.5159 4.20929 29.2644C3.35513 28.9319 2.74616 28.536 2.10509 27.8958C1.46402 27.2556 1.06726 26.6467 0.73647 25.7925C0.485036 25.1479 0.18813 24.1787 0.106993 22.3946C0.0178322 20.466 0 19.8874 0 15.0013C0 10.1153 0.0196154 9.53755 0.106102 7.60722C0.187238 5.8231 0.485927 4.85571 0.735578 4.20929C1.06815 3.35513 1.46492 2.74616 2.1042 2.1042C2.74438 1.46402 3.35334 1.06637 4.2084 0.735578C4.85303 0.484144 5.82221 0.187238 7.60632 0.106102C9.53577 0.0178322 10.1153 0 14.9996 0C19.8856 0 20.4633 0.0196154 22.3937 0.106102C24.1778 0.187238 25.1452 0.485927 25.7916 0.735578C26.6458 1.06637 27.2547 1.46402 27.8958 2.1042C28.5369 2.74438 28.9319 3.35424 29.2644 4.2084C29.5159 4.85303 29.8128 5.82221 29.8939 7.60632C29.9822 9.53666 30 10.1144 30 15.0004C30 19.8847 29.9822 20.4642 29.8939 22.3946C29.8128 24.1787 29.5141 25.1479 29.2644 25.7925C28.9319 26.6467 28.536 27.2556 27.8958 27.8958C27.2556 28.536 26.6458 28.9319 25.7916 29.2644C25.147 29.5159 24.1778 29.8128 22.3937 29.8939C20.4651 29.9822 19.8856 30 14.9996 30C10.1153 30 9.53577 29.9831 7.60722 29.8939Z" fill="#333232"/>
<path d="M11.3164 15.0641C11.3164 13.0124 12.9792 11.3487 15.0309 11.3487C17.0826 11.3487 18.7462 13.0124 18.7462 15.0641C18.7462 17.1158 17.0826 18.7794 15.0309 18.7794C12.9792 18.7794 11.3164 17.1158 11.3164 15.0641ZM9.30798 15.0641C9.30798 18.2248 11.8701 20.787 15.0309 20.787C18.1916 20.787 20.7538 18.2248 20.7538 15.0641C20.7538 11.9033 18.1916 9.34118 15.0309 9.34118C11.8701 9.34118 9.30807 11.9031 9.30807 15.0641M19.643 9.11427C19.6429 9.37878 19.7212 9.63739 19.8681 9.85739C20.015 10.0774 20.2238 10.2489 20.4681 10.3502C20.7124 10.4515 20.9813 10.4781 21.2408 10.4266C21.5002 10.3751 21.7386 10.2478 21.9257 10.0609C22.1128 9.87391 22.2403 9.63566 22.292 9.37624C22.3437 9.11683 22.3173 8.84791 22.2162 8.60349C22.1151 8.35907 21.9438 8.15012 21.7239 8.00308C21.504 7.85603 21.2455 7.77749 20.9809 7.77739H20.9804C20.6258 7.77755 20.2858 7.91844 20.0351 8.1691C19.7843 8.41976 19.6433 8.75971 19.643 9.11427ZM10.5282 24.136C9.44163 24.0865 8.85103 23.9055 8.45854 23.7526C7.9382 23.5501 7.56693 23.3088 7.17659 22.919C6.78624 22.5292 6.54461 22.1583 6.34293 21.6379C6.18993 21.2456 6.00893 20.6548 5.95954 19.5682C5.90551 18.3934 5.89472 18.0405 5.89472 15.0642C5.89472 12.088 5.9064 11.736 5.95954 10.5603C6.00902 9.47368 6.19136 8.88405 6.34293 8.49059C6.5455 7.97024 6.78677 7.59898 7.17659 7.20863C7.5664 6.81828 7.93731 6.57666 8.45854 6.37497C8.85085 6.22197 9.44163 6.04098 10.5282 5.99158C11.703 5.93755 12.0559 5.92676 15.0309 5.92676C18.0058 5.92676 18.3591 5.93826 19.5348 5.99176C20.6214 6.04124 21.2111 6.22358 21.6045 6.37515C22.1249 6.57683 22.4961 6.819 22.8865 7.20881C23.2768 7.59862 23.5176 7.97042 23.7201 8.49076C23.8731 8.88307 24.0541 9.47385 24.1035 10.5605C24.1576 11.7362 24.1684 12.0881 24.1684 15.0644C24.1684 18.0407 24.1576 18.3926 24.1035 19.5684C24.054 20.655 23.8722 21.2456 23.7201 21.6381C23.5176 22.1584 23.2763 22.5297 22.8865 22.9192C22.4967 23.3086 22.1249 23.5502 21.6045 23.7528C21.2122 23.9058 20.6214 24.0868 19.5348 24.1362C18.36 24.1902 18.0071 24.201 15.0309 24.201C12.0546 24.201 11.7027 24.1902 10.5282 24.1362M10.436 3.98644C9.24949 4.04047 8.43875 4.2286 7.73072 4.50411C6.99791 4.78862 6.37672 5.17032 5.75643 5.78963C5.13614 6.40894 4.75542 7.03022 4.47091 7.76392C4.1954 8.4724 4.00727 9.28269 3.95324 10.4692C3.89831 11.6575 3.88574 12.0374 3.88574 15.0641C3.88574 18.0907 3.89831 18.4706 3.95324 19.659C4.00727 20.8455 4.1954 21.6557 4.47091 22.3642C4.75542 23.097 5.13622 23.7195 5.75643 24.3385C6.37663 24.9576 6.99702 25.3387 7.73072 25.624C8.44009 25.8995 9.24949 26.0877 10.436 26.1417C11.6249 26.1957 12.0042 26.2092 15.0309 26.2092C18.0575 26.2092 18.4374 26.1966 19.6258 26.1417C20.8123 26.0877 21.6225 25.8995 22.331 25.624C23.0638 25.3387 23.685 24.9578 24.3053 24.3385C24.9256 23.7192 25.3055 23.097 25.5908 22.3642C25.8663 21.6557 26.0554 20.8454 26.1085 19.659C26.1625 18.4698 26.1751 18.0907 26.1751 15.0641C26.1751 12.0374 26.1625 11.6575 26.1085 10.4692C26.0545 9.2826 25.8663 8.47195 25.5908 7.76392C25.3055 7.03111 24.9246 6.40993 24.3053 5.78963C23.686 5.16934 23.0638 4.78862 22.3319 4.50411C21.6225 4.2286 20.8122 4.03958 19.6267 3.98644C18.4382 3.93214 18.0584 3.91895 15.0322 3.91895C12.006 3.91895 11.6254 3.93152 10.4364 3.98644" fill="white"/>
</g>
<defs>
<radialGradient id="paint0_radial_2503_1471" cx="0" cy="0" r="1" gradientUnits="userSpaceOnUse" gradientTransform="translate(1.94157 29.3428) scale(38.0889)">
<stop offset="0.09" stop-color="#FA8F21"/>
<stop offset="0.78" stop-color="#D82D7E"/>
</radialGradient>
<clipPath id="clip0_2503_1471">
<rect width="30" height="30" fill="white"/>
</clipPath>
</defs>
</svg>
