<svg width="30" height="30" viewBox="0 0 38 37" fill="none" xmlns="http://www.w3.org/2000/svg">
<path d="M34.9334 4.16699C35.4513 4.96537 35.75 5.90536 35.75 6.91152C35.75 9.80799 33.2745 12.1561 30.2206 12.1561C29.6634 12.1561 28.3947 12.0341 27.7774 11.5462L27.0059 12.2781C26.363 12.8878 26.8773 12.8878 27.1345 13.3757C27.1345 13.3757 27.7774 14.2295 27.1345 15.0832C26.7487 15.5711 25.6685 16.2541 24.4341 15.0832L24.1769 15.3272C24.1769 15.3272 24.9485 16.1809 24.3055 17.0347C23.9197 17.5226 22.891 18.0104 21.9909 17.1567C21.948 17.1973 21.708 17.425 21.0908 18.0104C20.4735 18.5958 19.7192 18.2543 19.4191 18.0104L18.6476 17.2786C17.9275 16.5956 18.3476 15.8557 18.6476 15.5711L25.3343 9.22891C25.3343 9.22891 24.6913 8.25314 24.6913 6.91152C24.6913 4.01505 27.1669 1.66699 30.2206 1.66699C30.9371 1.66699 31.6218 1.79623 32.25 2.03148" stroke="#333232" stroke-linecap="round" stroke-linejoin="round"/>
<path d="M32.1497 6.91152C32.1497 7.92192 31.2862 8.741 30.2208 8.741C29.1556 8.741 28.292 7.92192 28.292 6.91152C28.292 5.90112 29.1556 5.08203 30.2208 5.08203C31.2862 5.08203 32.1497 5.90112 32.1497 6.91152Z" stroke="#333232"/>
<path d="M19.5979 33.5979H16.1901V28.26C16.1901 26.9873 16.1671 25.3486 14.4172 25.3486C12.6423 25.3486 12.3702 26.7362 12.3702 28.1661V33.5979H8.96233V22.6212H12.2341V24.1219H12.2801C12.9471 22.9834 14.1891 22.3011 15.5077 22.349C18.9616 22.349 19.5998 24.6202 19.5998 27.5776L19.5979 33.596V33.5979ZM5.1175 21.1204C4.59401 21.1179 4.09265 20.909 3.7223 20.539C3.35195 20.169 3.14252 19.6678 3.1395 19.1443C3.1395 18.0595 4.03267 17.1664 5.1175 17.1664C6.20233 17.1664 7.09358 18.0595 7.0955 19.1443C7.0955 20.2292 6.20233 21.1204 5.1175 21.1204ZM6.82142 33.5979H3.40975V22.6212H6.82142V33.5979ZM21.2942 14H1.69625C1.25187 13.9974 0.82443 14.1703 0.506811 14.4811C0.189192 14.7919 0.00706227 15.2155 0 15.6599V35.3401C0.00706227 35.7844 0.189192 36.208 0.506811 36.5188C0.82443 36.8296 1.25187 37.0025 1.69625 36.9999H21.2961C21.7415 37.0036 22.1703 36.8312 22.4894 36.5204C22.8084 36.2096 22.9919 35.7855 23 35.3401V15.6579C22.9919 15.2129 22.8083 14.7892 22.4891 14.479C22.17 14.1688 21.7411 13.9973 21.2961 14.0019L21.2942 14Z" fill="#333232"/>
</svg>
