<svg width="20" height="20" viewBox="0 0 34 33" fill="none" xmlns="http://www.w3.org/2000/svg">
<path d="M28.6188 28.1187H23.7292V20.46C23.7292 18.634 23.6963 16.2827 21.1855 16.2827C18.639 16.2827 18.2485 18.2737 18.2485 20.3252V28.1187H13.359V12.3695H18.0533V14.5227H18.1192C19.0762 12.8892 20.8582 11.9102 22.7502 11.979C27.7057 11.979 28.6215 15.2377 28.6215 19.481L28.6188 28.1159V28.1187ZM7.8425 10.2163C7.0914 10.2126 6.37206 9.91286 5.84069 9.38201C5.30932 8.85116 5.00884 8.1321 5.0045 7.38101C5.0045 5.82452 6.286 4.54302 7.8425 4.54302C9.399 4.54302 10.6778 5.82452 10.6805 7.38101C10.6805 8.93751 9.399 10.2163 7.8425 10.2163ZM10.2873 28.1187H5.39225V12.3695H10.2873V28.1187ZM31.0525 4.08737e-05H2.93375C2.29616 -0.00366234 1.68288 0.244404 1.22716 0.690333C0.77145 1.13626 0.510133 1.74402 0.5 2.38153V30.6184C0.510133 31.2559 0.77145 31.8637 1.22716 32.3096C1.68288 32.7556 2.29616 33.0036 2.93375 32.9999H31.0553C31.6943 33.0051 32.3096 32.7579 32.7674 32.3119C33.2251 31.866 33.4884 31.2574 33.5 30.6184V2.37878C33.4884 1.74031 33.225 1.13229 32.767 0.687232C32.3091 0.242174 31.6938 -0.00384518 31.0553 0.00279066L31.0525 4.08737e-05Z" fill="#333232"/>
</svg>
