<svg width="25" height="25" viewBox="0 0 60 60" fill="none" xmlns="http://www.w3.org/2000/svg">
<path d="M52.7927 18.2139H50.1963V34.2865H52.7927C54.5547 34.2865 55.9818 32.8586 55.9818 31.0975V21.4038C55.9817 19.6419 54.5546 18.2139 52.7927 18.2139Z" fill="white"/>
<path d="M51.4271 0H47.9466H8.57363C6.05762 0 4.01855 2.03988 4.01855 4.55508V55.4441C4.01855 57.9602 6.0575 60 8.57363 60H43.3907C45.9069 60 47.9466 57.9602 47.9466 55.4441V16.0718H52.793C54.5551 16.0718 55.9822 14.6446 55.9822 12.8835V4.55508C55.9822 2.03988 53.9424 0 51.4271 0ZM18.972 24.2681C18.972 20.0645 22.3788 16.657 26.5831 16.657C30.7858 16.657 34.1926 20.0646 34.1926 24.2681V26.0911C34.1926 30.2938 30.7858 33.7005 26.5831 33.7005C22.3788 33.7005 18.972 30.2938 18.972 26.0911V24.2681ZM35.8885 45.6826C33.4268 45.6826 26.5832 45.6826 26.5832 45.6826C26.5832 45.6826 19.7381 45.6826 17.2763 45.6826C14.8147 45.6826 13.6988 42.1027 15.1227 39.5732C16.1949 37.6656 17.9518 35.5051 20.8136 34.2764C22.45 35.4206 24.438 36.0945 26.5832 36.0945C28.726 36.0945 30.7148 35.4206 32.3512 34.2764C35.2122 35.5051 36.97 37.6655 38.043 39.5732C39.466 42.1027 38.3502 45.6826 35.8885 45.6826Z" fill="white"/>
</svg>
