<svg width="29" height="29" viewBox="0 0 29 29" fill="none" xmlns="http://www.w3.org/2000/svg">
<g clip-path="url(#clip0_2503_1426)">
<path d="M26.9781 21.1703C26.9214 20.9694 26.789 20.7983 26.6086 20.6931C26.4283 20.5879 26.2142 20.5568 26.0114 20.6064L24.0056 21.1461C25.1032 19.5282 25.7687 17.6563 25.9389 15.7086C26.1034 13.8864 25.837 12.051 25.1611 10.3507C24.4852 8.65048 23.4188 7.13308 22.0481 5.92113C21.8896 5.79008 21.687 5.72458 21.4818 5.73806C21.2767 5.75154 21.0844 5.84298 20.9445 5.99363C20.8036 6.15396 20.7322 6.3636 20.7458 6.57655C20.7594 6.78949 20.8569 6.98835 21.017 7.12947C22.1981 8.17205 23.117 9.47822 23.6992 10.9422C24.2814 12.4061 24.5106 13.9866 24.3681 15.5556C24.2301 17.2082 23.6758 18.7989 22.757 20.1795L22.5556 18.1575C22.5707 18.0385 22.5592 17.9176 22.5217 17.8037C22.4842 17.6897 22.4217 17.5856 22.3388 17.4989C22.2559 17.4122 22.1547 17.3451 22.0426 17.3025C21.9304 17.2599 21.8102 17.2429 21.6906 17.2527C21.5711 17.2625 21.4552 17.2989 21.3515 17.3592C21.2478 17.4195 21.1589 17.5022 21.0912 17.6013C21.0236 17.7003 20.9789 17.8133 20.9605 17.9318C20.9421 18.0503 20.9503 18.1715 20.9847 18.2864L21.3875 23.4742L26.4222 22.137C26.6217 22.0786 26.7909 21.9455 26.8944 21.7653C26.998 21.5852 27.028 21.372 26.9781 21.1703Z" fill="white"/>
<path d="M3.47208 13.759C3.57915 13.8279 3.70025 13.8719 3.82653 13.8879C4.03676 13.9155 4.24939 13.8591 4.41829 13.7309C4.5872 13.6027 4.69875 13.4131 4.72875 13.2032C5.06161 10.7456 6.31059 8.5044 8.22559 6.92849C10.1406 5.35257 12.5802 4.55825 15.056 4.70459L13.2515 5.93709C13.1239 6.03328 13.0277 6.16527 12.9753 6.31627C12.9228 6.46728 12.9165 6.63047 12.9571 6.78508C12.9977 6.93969 13.0834 7.07872 13.2032 7.18449C13.3231 7.29026 13.4717 7.35798 13.6301 7.37904C13.8116 7.39563 13.9934 7.35019 14.1457 7.25015L18.4393 4.30181L14.766 0.61237C14.7006 0.512208 14.6138 0.427859 14.5117 0.365447C14.4097 0.303034 14.2951 0.264124 14.1761 0.251541C14.0572 0.238958 13.9369 0.253018 13.8241 0.292701C13.7113 0.332384 13.6087 0.396693 13.5238 0.48096C13.4389 0.565226 13.3739 0.667336 13.3334 0.779876C13.2929 0.892415 13.278 1.01256 13.2897 1.13159C13.3014 1.25062 13.3395 1.36554 13.4012 1.46802C13.4628 1.57049 13.5466 1.65795 13.6463 1.72404L15.0157 3.09348C12.1566 2.95677 9.35023 3.89691 7.15047 5.7283C4.95072 7.55969 3.5175 10.1492 3.13375 12.9857C3.1131 13.1333 3.13379 13.2837 3.19352 13.4202C3.25325 13.5568 3.34968 13.674 3.47208 13.759Z" fill="white"/>
<path d="M17.5052 24.1106C16.2472 24.5124 14.9203 24.6522 13.6063 24.5214C12.0059 24.3646 10.4678 23.8206 9.12468 22.9364C7.78157 22.0522 6.67383 20.8544 5.8971 19.4464L7.90294 20.1956C8.08784 20.2277 8.27813 20.1942 8.44097 20.1009C8.60381 20.0077 8.72898 19.8605 8.79487 19.6847C8.86076 19.509 8.86324 19.3158 8.80188 19.1385C8.74052 18.9612 8.61916 18.8108 8.45877 18.7134L4.76127 17.3439L3.5771 16.917L2.68294 22.0323C2.65194 22.2367 2.70072 22.4452 2.81918 22.6146C2.93763 22.7841 3.11671 22.9015 3.31933 22.9425H3.45627C3.64587 22.946 3.8306 22.8824 3.97795 22.7631C4.12531 22.6437 4.22583 22.4762 4.26183 22.29L4.60016 20.3567C5.51126 21.9527 6.79101 23.3076 8.33252 24.3082C9.87403 25.3088 11.6326 25.926 13.4613 26.1084C14.9902 26.2599 16.5339 26.0954 17.9965 25.625C18.1828 25.5479 18.3333 25.4038 18.4185 25.2211C18.5037 25.0384 18.5172 24.8304 18.4565 24.6382C18.3958 24.446 18.2653 24.2835 18.0906 24.1829C17.916 24.0822 17.71 24.0507 17.5132 24.0945L17.5052 24.1106Z" fill="white"/>
<path d="M17.7227 10.4727H11.2782C11.0646 10.4727 10.8597 10.5575 10.7086 10.7086C10.5575 10.8597 10.4727 11.0646 10.4727 11.2782V17.7227C10.4727 17.9363 10.5575 18.1412 10.7086 18.2923C10.8597 18.4433 11.0646 18.5282 11.2782 18.5282H17.7227C17.9363 18.5282 18.1412 18.4433 18.2923 18.2923C18.4433 18.1412 18.5282 17.9363 18.5282 17.7227V11.2782C18.5282 11.0646 18.4433 10.8597 18.2923 10.7086C18.1412 10.5575 17.9363 10.4727 17.7227 10.4727ZM16.9171 16.9171H12.0838V12.0838H16.9171V16.9171Z" fill="white"/>
</g>
<defs>
<clipPath id="clip0_2503_1426">
<rect width="29" height="29" fill="black"/>
</clipPath>
</defs>
</svg>
