<svg width="26" height="25" viewBox="0 0 26 25" fill="none" xmlns="http://www.w3.org/2000/svg">
<path d="M5.05078 22.4884H20.9492V2.95719C20.9492 2.94994 20.9472 2.94283 20.9434 2.93666C20.9396 2.93049 20.9341 2.9255 20.9276 2.92226C20.9211 2.91901 20.9139 2.91764 20.9066 2.91829C20.8994 2.91894 20.8925 2.92159 20.8867 2.92594L19.2812 4.42985C19.2737 4.43473 19.2649 4.43732 19.2559 4.43732C19.2469 4.43732 19.238 4.43473 19.2305 4.42985L17.9414 2.91032C17.935 2.90455 17.9266 2.90137 17.918 2.90137C17.9093 2.90137 17.901 2.90455 17.8945 2.91032L16.4414 4.43376C16.434 4.43915 16.4251 4.44206 16.416 4.44206C16.4069 4.44206 16.398 4.43915 16.3906 4.43376L15.1055 2.91423C15.1022 2.9108 15.0982 2.90807 15.0939 2.90621C15.0895 2.90435 15.0848 2.90339 15.0801 2.90339C15.0753 2.90339 15.0706 2.90435 15.0663 2.90621C15.0619 2.90807 15.058 2.9108 15.0547 2.91423L13.9375 4.42594C13.9298 4.43229 13.9201 4.43577 13.9102 4.43577C13.9002 4.43577 13.8905 4.43229 13.8828 4.42594L12.6094 2.91423C12.6061 2.9108 12.6022 2.90807 12.5978 2.90621C12.5934 2.90435 12.5887 2.90339 12.584 2.90339C12.5792 2.90339 12.5745 2.90435 12.5702 2.90621C12.5658 2.90807 12.5619 2.9108 12.5586 2.91423L11.5078 4.42204C11.5005 4.4292 11.4907 4.4332 11.4805 4.4332C11.4702 4.4332 11.4604 4.4292 11.4531 4.42204L10.3281 2.91423C10.3208 2.90707 10.311 2.90306 10.3008 2.90306C10.2906 2.90306 10.2807 2.90707 10.2734 2.91423L9.16015 4.42204C9.15285 4.4292 9.14304 4.4332 9.13281 4.4332C9.12259 4.4332 9.11277 4.4292 9.10547 4.42204L8.03906 2.92204C8.03585 2.9172 8.0315 2.91324 8.02639 2.91049C8.02128 2.90775 8.01557 2.90632 8.00976 2.90632C8.00396 2.90632 7.99825 2.90775 7.99314 2.91049C7.98803 2.91324 7.98368 2.9172 7.98047 2.92204L7.10156 4.42204C7.0942 4.42743 7.0853 4.43034 7.07617 4.43034C7.06704 4.43034 7.05815 4.42743 7.05078 4.42204L5.09765 2.91032C5.09162 2.90683 5.08476 2.90502 5.07779 2.90507C5.07081 2.90513 5.06398 2.90705 5.058 2.91064C5.05202 2.91423 5.04711 2.91935 5.04378 2.92548C5.04045 2.9316 5.03882 2.93851 5.03906 2.94548L5.05078 22.4884Z" stroke="#333232" stroke-linecap="round"/>
<path d="M12.9646 7.54297L11.906 9.6875C11.9038 9.69302 11.9001 9.69779 11.8952 9.70125C11.8904 9.70471 11.8846 9.70672 11.8787 9.70703L9.51152 10.0508C9.50586 10.0543 9.5012 10.0592 9.49796 10.065C9.49473 10.0708 9.49303 10.0773 9.49303 10.084C9.49303 10.0906 9.49473 10.0972 9.49796 10.103C9.5012 10.1088 9.50586 10.1137 9.51152 10.1172L11.2029 11.7852C11.2063 11.7966 11.2063 11.8088 11.2029 11.8203L10.8123 14.1641C10.8118 14.1713 10.8131 14.1785 10.8162 14.1851C10.8192 14.1917 10.8239 14.1974 10.8298 14.2017C10.8356 14.206 10.8424 14.2087 10.8496 14.2097C10.8568 14.2106 10.8641 14.2097 10.8709 14.207L12.9842 13.0938C12.99 13.0899 12.9968 13.0878 13.0037 13.0878C13.0107 13.0878 13.0175 13.0899 13.0232 13.0938L15.1326 14.2188C15.1394 14.2214 15.1467 14.2223 15.1539 14.2214C15.1611 14.2204 15.1679 14.2177 15.1737 14.2134C15.1796 14.2091 15.1843 14.2034 15.1873 14.1968C15.1904 14.1903 15.1917 14.183 15.1912 14.1758L14.8006 11.832C14.7972 11.8206 14.7972 11.8084 14.8006 11.7969L16.5154 10.1172C16.5206 10.1122 16.5242 10.106 16.526 10.0991C16.5279 10.0922 16.5278 10.0849 16.5258 10.0781C16.5237 10.0712 16.5199 10.0651 16.5146 10.0603C16.5094 10.0554 16.5029 10.0522 16.4959 10.0508L14.1287 9.70703C14.1228 9.70672 14.117 9.70471 14.1122 9.70125C14.1073 9.69779 14.1036 9.69302 14.1014 9.6875L13.0428 7.54297C13.0428 7.53261 13.0387 7.52267 13.0313 7.51535C13.024 7.50802 13.0141 7.50391 13.0037 7.50391C12.9933 7.50391 12.9834 7.50802 12.9761 7.51535C12.9688 7.52267 12.9646 7.53261 12.9646 7.54297Z" stroke="#333232" stroke-linecap="round"/>
<path d="M17.9141 17.0078H7.52344" stroke="#333232" stroke-linecap="round"/>
<path d="M17.9141 19.4453H7.52344" stroke="#333232" stroke-linecap="round"/>
</svg>
