<svg width="60" height="60" viewBox="0 0 60 60" fill="none" xmlns="http://www.w3.org/2000/svg">
<path d="M60 47.5607V3.6582H0V47.5606H21.9512V51.9508H16.8293V56.341H43.1707V51.9508H38.0488V47.5606H60V47.5607ZM33.6585 51.9509H26.3414V47.5607H33.6585V51.9509ZM4.3902 43.1704V8.04852H55.6097V43.1704H4.3902Z" fill="#333232"/>
<path d="M29.2168 29.4117C29.2168 28.7319 29.1314 28.0718 28.9719 27.4409L31.1371 26.1909L28.942 22.389L26.7716 23.6421C25.8284 22.7257 24.6623 22.0387 23.3632 21.6698V19.168H18.973V21.6698C17.6739 22.0387 16.5078 22.7257 15.5646 23.642L13.3944 22.3889L11.1992 26.1908L13.3644 27.4408C13.2049 28.0719 13.1195 28.7319 13.1195 29.4118C13.1195 30.0917 13.2049 30.7517 13.3644 31.3828L11.1992 32.6328L13.3944 36.4347L15.5646 35.1816C16.5079 36.0979 17.6739 36.7848 18.973 37.1538V39.6556H23.3632V37.1538C24.6624 36.7849 25.8284 36.0979 26.7716 35.1815L28.942 36.4346L31.1371 32.6327L28.9719 31.3827C29.1313 30.7514 29.2168 30.0914 29.2168 29.4117ZM21.168 33.0704C19.1507 33.0704 17.5094 31.4292 17.5094 29.4118C17.5094 27.3945 19.1506 25.7533 21.168 25.7533C23.1853 25.7533 24.8265 27.3945 24.8265 29.4118C24.8265 31.4292 23.1853 33.0704 21.168 33.0704Z" fill="#333232"/>
<path d="M47.7053 21.3637V16.9735H45.1337C45 16.597 44.8322 16.2295 44.6281 15.8759C44.4238 15.5224 44.1895 15.1932 43.9305 14.889L45.2161 12.662L41.4142 10.4668L40.1276 12.6955C39.3235 12.5448 38.5096 12.5441 37.7204 12.6915L36.4359 10.4668L32.6339 12.662L33.9203 14.89C33.3909 15.5107 32.9879 16.2188 32.7215 16.9735H30.1445V21.3637H32.7176C32.85 21.7379 33.0166 22.1054 33.2219 22.4613C33.4272 22.8171 33.6632 23.144 33.9208 23.4458L32.6336 25.6753L36.4355 27.8704L37.7237 25.6391C38.1224 25.7134 38.528 25.7527 38.9357 25.7527C39.3329 25.7527 39.7315 25.715 40.1274 25.642L41.414 27.8704L45.2159 25.6753L43.9314 23.4506C44.4538 22.8406 44.8602 22.1357 45.1319 21.3637H47.7053ZM40.0226 21.0696C38.9743 21.6747 37.6293 21.3144 37.024 20.2661C36.4187 19.2179 36.7792 17.8727 37.8275 17.2674C38.1658 17.0722 38.541 16.9723 38.9215 16.9723C39.1122 16.9723 39.3043 16.9974 39.4933 17.0482C40.0596 17.1999 40.5329 17.5631 40.8262 18.071C41.4312 19.1193 41.0709 20.4643 40.0226 21.0696Z" fill="#333232"/>
</svg>
