<svg width="30" height="30" viewBox="0 0 35 35" fill="none" xmlns="http://www.w3.org/2000/svg">
<path d="M32.4334 4.16699C32.9513 4.96537 33.25 5.90536 33.25 6.91152C33.25 9.80799 30.7745 12.1561 27.7206 12.1561C27.1634 12.1561 25.8947 12.0341 25.2774 11.5462L24.5059 12.2781C23.863 12.8878 24.3773 12.8878 24.6345 13.3757C24.6345 13.3757 25.2774 14.2295 24.6345 15.0832C24.2487 15.5711 23.1685 16.2541 21.9341 15.0832L21.6769 15.3272C21.6769 15.3272 22.4485 16.1809 21.8055 17.0347C21.4197 17.5226 20.391 18.0104 19.4909 17.1567C19.448 17.1973 19.208 17.425 18.5908 18.0104C17.9735 18.5958 17.2192 18.2543 16.9191 18.0104L16.1476 17.2786C15.4275 16.5956 15.8476 15.8557 16.1476 15.5711L22.8343 9.22891C22.8343 9.22891 22.1913 8.25314 22.1913 6.91152C22.1913 4.01505 24.6669 1.66699 27.7206 1.66699C28.4371 1.66699 29.1218 1.79623 29.75 2.03148" stroke="white" stroke-linecap="round" stroke-linejoin="round"/>
<path d="M29.6497 6.91152C29.6497 7.92192 28.7862 8.741 27.7208 8.741C26.6556 8.741 25.792 7.92192 25.792 6.91152C25.792 5.90112 26.6556 5.08203 27.7208 5.08203C28.7862 5.08203 29.6497 5.90112 29.6497 6.91152Z" stroke="white"/>
<path d="M13.0955 22.3165L17.3893 17.5H15.4486L12.2303 21.0877L6.55141 13H0L8.58949 25.2311L0 35H1.94072L9.45009 26.4571L15.4486 35H22L13.0955 22.3165ZM10.4365 25.3385L9.5649 24.1198L2.64059 14.4316H5.62193L11.2117 22.2532L12.0797 23.4719L19.3447 33.6381H16.3634L10.4365 25.3385Z" fill="white"/>
</svg>
