<svg width="60" height="60" viewBox="0 0 60 60" fill="none" xmlns="http://www.w3.org/2000/svg">
<mask id="mask0_3276_1037" style="mask-type:luminance" maskUnits="userSpaceOnUse" x="0" y="12" width="60" height="36">
<path d="M59.9215 12.5312H0.274414V47.4724H59.9215V12.5312Z" fill="white"/>
</mask>
<g mask="url(#mask0_3276_1037)">
<path d="M56.3027 12.6698C55.1998 12.5748 54.3735 12.796 53.7778 13.3435C53.0016 14.0564 52.6265 15.3033 52.5993 17.2632C51.9573 17.9952 51.3174 18.7233 50.68 19.4475C49.2072 21.1217 47.6846 22.8527 46.2065 24.5605C44.7284 26.2683 43.2372 28.0185 41.7951 29.7109C41.176 30.4369 40.5566 31.1637 39.9361 31.8911C39.7685 31.8874 39.5938 31.8752 39.4106 31.8625C38.8688 31.7911 38.3189 31.8191 37.7874 31.9451C37.0801 32.1597 36.6598 31.9591 36.0379 31.4596C32.6149 28.7126 29.4336 26.5782 26.3119 24.9351C26.0668 24.8224 25.8509 24.6542 25.681 24.4435C25.5113 24.2329 25.392 23.9855 25.3328 23.7207C25.0852 22.7683 24.4766 21.9519 23.6377 21.4473C22.799 20.9427 21.7972 20.7904 20.8481 21.023C19.883 21.2502 19.0386 21.836 18.4834 22.6635C17.9282 23.491 17.7031 24.4992 17.8532 25.4867C17.8919 25.7476 17.9387 26.0085 17.9837 26.257L18.0199 26.4611L5.48436 38.6123C5.42066 38.6062 5.35716 38.5992 5.29391 38.5926C5.08501 38.5699 4.8688 38.5472 4.65206 38.5415C2.57881 38.4814 1.30438 39.3956 0.638811 41.4194C0.139575 42.9373 0.686074 44.2921 1.14074 45.1792C1.44879 45.8166 1.91792 46.3611 2.50102 46.7575C3.08413 47.1541 3.76056 47.3889 4.46228 47.4382C4.53294 47.442 4.60342 47.4438 4.67383 47.4441C5.34929 47.4339 6.01166 47.2541 6.6011 46.9215C7.19052 46.5887 7.68844 46.1133 8.05007 45.5382C9.13046 43.9014 9.29839 42.3674 8.56014 40.8542L20.7239 29.1748L24.1124 28.1197L34.1646 35.071C34.2438 36.566 34.6132 37.6871 35.3553 38.6922C35.7873 39.3096 36.4145 39.7611 37.1341 39.973C37.8538 40.1847 38.6232 40.1441 39.3171 39.858C41.3228 39.0897 42.4367 37.3873 42.3841 35.1792L54.5835 19.9062C56.314 20.2466 57.6573 20.0878 58.5774 19.4321C59.2889 18.9259 59.722 18.1411 59.8642 17.0994C59.9458 16.5742 59.9196 16.0375 59.7873 15.5229C59.6549 15.0082 59.4192 14.5264 59.0945 14.1074C58.7514 13.688 58.3268 13.344 57.8465 13.0968C57.3665 12.8495 56.8409 12.7042 56.3027 12.6698Z" fill="white"/>
</g>
</svg>
