<svg width="29" height="29" viewBox="0 0 29 29" fill="none" xmlns="http://www.w3.org/2000/svg">
<path d="M3.02051 22.9585V8.4585H25.9788V22.9585C25.9788 24.2877 24.8913 25.3752 23.5622 25.3752H5.43717C4.10801 25.3752 3.02051 24.2877 3.02051 22.9585Z" fill="#FFFFFF"/>
<path d="M25.9788 6.04167V9.66667H3.02051V6.04167C3.02051 4.7125 4.10801 3.625 5.43717 3.625H23.5622C24.8913 3.625 25.9788 4.7125 25.9788 6.04167Z" fill="#002c8a"/>
<path d="M18.125 6.0415C18.125 6.52221 18.316 6.98323 18.6559 7.32314C18.9958 7.66304 19.4568 7.854 19.9375 7.854C20.4182 7.854 20.8792 7.66304 21.2191 7.32314C21.559 6.98323 21.75 6.52221 21.75 6.0415C21.75 5.5608 21.559 5.09978 21.2191 4.75987C20.8792 4.41996 20.4182 4.229 19.9375 4.229C19.4568 4.229 18.9958 4.41996 18.6559 4.75987C18.316 5.09978 18.125 5.5608 18.125 6.0415Z" fill="#007FD9"/>
<path d="M7.25 6.0415C7.25 6.52221 7.44096 6.98323 7.78087 7.32314C8.12078 7.66304 8.5818 7.854 9.0625 7.854C9.54321 7.854 10.0042 7.66304 10.3441 7.32314C10.684 6.98323 10.875 6.52221 10.875 6.0415C10.875 5.5608 10.684 5.09978 10.3441 4.75987C10.0042 4.41996 9.54321 4.229 9.0625 4.229C8.5818 4.229 8.12078 4.41996 7.78087 4.75987C7.44096 5.09978 7.25 5.5608 7.25 6.0415Z" fill="#007FD9"/>
<path d="M19.9378 1.8125C19.2732 1.8125 18.7295 2.35625 18.7295 3.02083V6.04167C18.7295 6.70625 19.2732 7.25 19.9378 7.25C20.6024 7.25 21.1462 6.70625 21.1462 6.04167V3.02083C21.1462 2.35625 20.6024 1.8125 19.9378 1.8125ZM9.06283 1.8125C8.39824 1.8125 7.85449 2.35625 7.85449 3.02083V6.04167C7.85449 6.70625 8.39824 7.25 9.06283 7.25C9.72741 7.25 10.2712 6.70625 10.2712 6.04167V3.02083C10.2712 2.35625 9.72741 1.8125 9.06283 1.8125Z" fill="#BDBDBD"/>
<path d="M13.4121 21.3272C13.4121 21.2064 13.4121 21.0252 13.4725 20.9043C13.5329 20.7835 13.5934 20.6627 13.7142 20.6022C13.835 20.5418 13.8954 20.421 14.0163 20.421C14.1371 20.3606 14.3184 20.3606 14.4392 20.3606C14.56 20.3606 14.7413 20.3606 14.8621 20.421L15.2246 20.6022C15.3454 20.6627 15.4059 20.7835 15.4663 20.9043C15.5267 21.0252 15.5267 21.146 15.5267 21.3272C15.5267 21.4481 15.5267 21.6293 15.4663 21.7502C15.4059 21.871 15.3454 21.9918 15.2246 22.0522C15.1038 22.1127 15.0434 22.2335 14.8621 22.2335C14.6809 22.2335 14.6809 22.3543 14.4996 22.3543C14.3184 22.3543 14.1975 22.3543 14.0767 22.2939C13.9559 22.2335 13.835 22.1731 13.7746 22.1127C13.6538 22.0522 13.5934 21.9314 13.5329 21.8106C13.4725 21.6293 13.4121 21.5085 13.4121 21.3272ZM15.285 18.7293H13.7142L13.4725 12.0835H15.4663L15.285 18.7293Z" fill="#002c8a"/>
</svg>
