<svg width="60" height="60" viewBox="0 0 60 60" fill="none" xmlns="http://www.w3.org/2000/svg">
<path d="M25.3545 56.1414C28.5438 59.3305 31.4566 59.3055 34.6208 56.1414L38.4879 52.2993C38.8897 51.9227 39.2412 51.7719 39.7686 51.7719H45.1927C49.6875 51.7719 51.772 49.7129 51.772 45.1927V39.7686C51.772 39.2413 51.9226 38.8897 52.2991 38.4879L56.1161 34.6207C59.3304 31.4567 59.3052 28.5438 56.1161 25.3546L52.2991 21.4874C51.9226 21.1106 51.772 20.734 51.772 20.2319V14.7826C51.772 10.3127 49.7128 8.20336 45.1927 8.20336H39.7686C39.2412 8.20336 38.8897 8.07779 38.4879 7.70108L34.6208 3.85904C31.4566 0.669826 28.5438 0.695005 25.3545 3.85904L21.4873 7.70108C21.1107 8.07779 20.734 8.20336 20.2317 8.20336H14.7825C10.2876 8.20336 8.20332 10.2625 8.20332 14.7826V20.2319C8.20332 20.734 8.07775 21.1106 7.70114 21.4874L3.859 25.3546C0.669893 28.5438 0.694965 31.4567 3.859 34.6207L7.70114 38.4879C8.07775 38.8897 8.20332 39.2413 8.20332 39.7686V45.1927C8.20332 49.6877 10.2876 51.7719 14.7825 51.7719H20.2317C20.734 51.7719 21.1107 51.9227 21.4873 52.2993L25.3545 56.1414ZM28.167 53.3288L23.446 48.5828C22.8936 48.0052 22.3161 47.7793 21.5376 47.7793H14.7825C12.5476 47.7793 12.196 47.4276 12.196 45.1927V38.4377C12.196 37.6844 11.97 37.1069 11.4176 36.5543L6.6715 31.8333C5.08954 30.2261 5.08954 29.7742 6.6715 28.1671L11.4176 23.4461C11.97 22.8936 12.196 22.3161 12.196 21.5376V14.7826C12.196 12.5225 12.5226 12.1961 14.7825 12.1961H21.5376C22.3161 12.1961 22.8936 11.9951 23.446 11.4176L28.167 6.67154C29.7742 5.08947 30.2262 5.08947 31.8334 6.67154L36.5543 11.4176C37.1067 11.9951 37.6843 12.1961 38.4376 12.1961H45.1927C47.4277 12.1961 47.7792 12.5476 47.7792 14.7826V21.5376C47.7792 22.3161 48.0304 22.8936 48.5829 23.4461L53.3287 28.1671C54.9106 29.7742 54.9106 30.2261 53.3287 31.8333L48.5829 36.5543C48.0304 37.1069 47.7792 37.6844 47.7792 38.4377V45.1927C47.7792 47.4276 47.4277 47.7793 45.1927 47.7793H38.4376C37.6843 47.7793 37.1067 48.0052 36.5543 48.5828L31.8334 53.3288C30.2262 54.9109 29.7742 54.9109 28.167 53.3288ZM26.0828 42.0287C26.811 42.0287 27.3635 41.7273 27.7402 41.2753L41.6771 21.7888C41.9533 21.3869 42.104 20.9349 42.104 20.5081C42.104 19.4031 41.2503 18.5242 40.095 18.5242C39.2664 18.5242 38.8144 18.8004 38.3122 19.5287L26.0075 36.8557L19.6542 29.8495C19.2274 29.3724 18.7503 29.1715 18.1224 29.1715C16.892 29.1715 16.0131 30.0002 16.0131 31.1554C16.0131 31.6576 16.1888 32.1347 16.5404 32.4862L24.5259 41.3758C24.9026 41.7775 25.3797 42.0287 26.0828 42.0287Z" fill="#002c8a"/>
</svg>
