<svg width="32" height="32" viewBox="0 0 32 32" fill="none" xmlns="http://www.w3.org/2000/svg">
<path d="M32 0H0V32H32V0Z" fill="white"/>
<path d="M12.6141 25.1176C11.7954 25.1176 9.2448 25.1176 7.35509 25.1176C6.34824 25.1176 5.69462 24.1053 6.14489 23.2448L7.30169 21.0342C7.67782 20.3154 7.87364 19.5237 7.87364 18.72C7.87364 17.724 7.87364 16.2444 7.87364 14.7647C7.87364 12.1765 9.22805 7 16.0001 7C22.7721 7 24.1265 12.1765 24.1265 14.7647C24.1265 16.2444 24.1265 17.724 24.1265 18.72C24.1265 19.5237 24.3224 20.3154 24.6985 21.0342L25.8553 23.2448C26.3055 24.1053 25.6506 25.1176 24.6439 25.1176H19.3861M12.6141 25.1176C12.6141 27.7059 13.9685 29 16.0001 29C18.0317 29 19.3861 27.7059 19.3861 25.1176M12.6141 25.1176C14.7298 25.1176 19.3861 25.1176 19.3861 25.1176" stroke="#002c8a" stroke-width="1.5" stroke-linejoin="round"/>
<path d="M16 7V4" stroke="#002c8a" stroke-width="1.5" stroke-linecap="round" stroke-linejoin="round"/>
</svg>
