<svg width="43" height="43" viewBox="0 0 43 43" fill="none" xmlns="http://www.w3.org/2000/svg">
<g clip-path="url(#clip0_1323_272)">
<path d="M0.5 34.646C0.5 36.83 1.27 38.678 2.81 40.19C4.35 41.702 6.212 42.472 8.396 42.5H34.646C36.802 42.5 38.65 41.73 40.19 40.19C41.73 38.65 42.5 36.802 42.5 34.646V8.396C42.5 6.688 42.01 5.162 41.03 3.818C40.05 2.474 38.79 1.536 37.25 1.004V4.448C37.25 5.54 36.872 6.478 36.116 7.262C35.36 8.046 34.422 8.424 33.302 8.396C32.182 8.368 31.258 7.99 30.53 7.262C29.802 6.534 29.424 5.596 29.396 4.448V0.5H13.646V4.448C13.646 5.54 13.254 6.478 12.47 7.262C11.686 8.046 10.762 8.424 9.698 8.396C8.634 8.368 7.696 7.99 6.884 7.262C6.072 6.534 5.694 5.596 5.75 4.448V1.004C4.21 1.564 2.95 2.502 1.97 3.818C0.99 5.134 0.5 6.66 0.5 8.396L0.5 34.646ZM5.75 34.646V13.646H37.25V34.646C37.25 35.374 36.998 35.99 36.494 36.494C35.99 36.998 35.374 37.25 34.646 37.25H8.396C7.668 37.25 7.038 36.998 6.506 36.494C5.974 35.99 5.722 35.374 5.75 34.646ZM8.396 4.448C8.396 4.812 8.522 5.12 8.774 5.372C9.026 5.624 9.334 5.75 9.698 5.75C10.062 5.75 10.37 5.624 10.622 5.372C10.874 5.12 11 4.812 11 4.448V0.5H8.396V4.448ZM11 32H16.25V26.75H11V32ZM11 24.146H16.25V18.896H11V24.146ZM18.896 32H24.146V26.75H18.896V32ZM18.896 24.146H24.146V18.896H18.896V24.146ZM26.75 32H32V26.75H26.75V32ZM26.75 24.146H32V18.896H26.75V24.146ZM32 4.448C32 4.812 32.126 5.12 32.378 5.372C32.63 5.624 32.938 5.75 33.302 5.75C33.666 5.75 33.974 5.624 34.226 5.372C34.478 5.12 34.618 4.812 34.646 4.448V0.5H32V4.448Z" fill="#002c8a"/>
<path d="M5.5 13.5H38.5V33.5C38.5 36.2614 36.2614 38.5 33.5 38.5H10.5C7.73858 38.5 5.5 36.2614 5.5 33.5V13.5Z" fill="#FFFBFB"/>
</g>
<defs>
<clipPath id="clip0_1323_272">
<rect width="42" height="42" fill="white" transform="translate(0.5 0.5)"/>
</clipPath>
</defs>
</svg>
