<svg width="14" height="14" viewBox="0 0 14 14" fill="#fff" xmlns="http://www.w3.org/2000/svg">
<path fill-rule="evenodd" clip-rule="evenodd" d="M7.4082 13.0601C6.12262 13.0601 4.8659 12.6788 3.79698 11.9646C2.72806 11.2504 1.89496 10.2352 1.40299 9.0475C0.911016 7.85978 0.782299 6.55285 1.0331 5.29197C1.28391 4.0311 1.90296 2.87291 2.812 1.96387C3.72104 1.05483 4.87925 0.435761 6.14012 0.184957C7.401 -0.0658467 8.70794 0.062875 9.89566 0.554844C11.0834 1.04681 12.0985 1.87994 12.8128 2.94886C13.527 4.01778 13.9082 5.27448 13.9082 6.56006C13.9082 8.28397 13.2234 9.93727 12.0044 11.1563C10.7854 12.3752 9.13211 13.0601 7.4082 13.0601ZM7.4082 1.1434C6.33689 1.1434 5.28962 1.46108 4.39885 2.05627C3.50808 2.65146 2.81384 3.49743 2.40387 4.48719C1.99389 5.47696 1.8866 6.56607 2.09561 7.6168C2.30461 8.66753 2.82052 9.63269 3.57805 10.3902C4.33559 11.1478 5.30072 11.6636 6.35145 11.8726C7.40218 12.0816 8.49131 11.9744 9.48108 11.5644C10.4708 11.1544 11.3168 10.4602 11.912 9.5694C12.5072 8.67863 12.8249 7.63138 12.8249 6.56006C12.8249 5.12347 12.2542 3.74572 11.2384 2.7299C10.2225 1.71408 8.84479 1.1434 7.4082 1.1434ZM9.95728 9.10914C9.90945 9.15698 9.85266 9.19493 9.79016 9.22082C9.72766 9.24671 9.66067 9.26004 9.59302 9.26004C9.52537 9.26004 9.45838 9.24671 9.39588 9.22082C9.33338 9.19493 9.27659 9.15698 9.22876 9.10914L7.40007 7.28048L5.57141 9.10914C5.52422 9.15918 5.46745 9.19924 5.40449 9.22695C5.34153 9.25465 5.27365 9.26944 5.20487 9.27043C5.13609 9.27143 5.06783 9.25861 5.00409 9.23273C4.94036 9.20685 4.88245 9.16845 4.83383 9.11979C4.78521 9.07113 4.74685 9.01321 4.72103 8.94946C4.6952 8.88571 4.68243 8.81742 4.68347 8.74864C4.68451 8.67986 4.69936 8.61199 4.72711 8.54906C4.75486 8.48612 4.79496 8.42939 4.84504 8.38223L6.67369 6.55356L4.84504 4.72489C4.79496 4.67774 4.75486 4.62101 4.72711 4.55807C4.69936 4.49513 4.68451 4.42726 4.68347 4.35848C4.68243 4.2897 4.6952 4.22141 4.72103 4.15766C4.74685 4.09391 4.78521 4.03599 4.83383 3.98733C4.88245 3.93867 4.94036 3.90027 5.00409 3.87439C5.06783 3.84852 5.13609 3.8357 5.20487 3.83669C5.27365 3.83768 5.34153 3.85247 5.40449 3.88017C5.46745 3.90788 5.52422 3.94794 5.57141 3.99798L7.40007 5.82665L9.22876 3.99798C9.27629 3.94934 9.33298 3.91062 9.39558 3.88406C9.45818 3.85749 9.52541 3.84361 9.59342 3.84322C9.66142 3.84283 9.72881 3.85594 9.79171 3.88178C9.85461 3.90762 9.91178 3.94569 9.95986 3.99378C10.0079 4.04186 10.046 4.09901 10.0719 4.16191C10.0977 4.22481 10.1108 4.29221 10.1104 4.36021C10.11 4.42822 10.0962 4.49546 10.0696 4.55806C10.043 4.62066 10.0043 4.67737 9.95566 4.72489L8.12701 6.55356L9.95566 8.38223C10.0521 8.47848 10.1065 8.60907 10.1068 8.74535C10.1071 8.88163 10.0533 9.01246 9.95728 9.10914Z" fill="#fff"/>
</svg>
