<svg width="12" height="12" viewBox="0 0 12 12" fill="none" xmlns="http://www.w3.org/2000/svg">
<g clip-path="url(#clip0_556_1020)">
<path d="M8.5 1.66891C7.76455 1.24349 6.9107 1 6 1C3.23857 1 1 3.23857 1 6C1 6.79985 1.18781 7.5558 1.52173 8.22625C1.61047 8.4044 1.64 8.60805 1.58856 8.8003L1.29075 9.91335C1.16148 10.3965 1.6035 10.8385 2.08667 10.7092L3.19969 10.4114C3.39196 10.36 3.5956 10.3895 3.77376 10.4782C4.44418 10.8122 5.20015 11 6 11C8.7614 11 11 8.7614 11 6C11 5.0893 10.7565 4.23543 10.3311 3.5" stroke="#999999" stroke-linecap="round"/>
<path d="M4 6H4.0045M5.9955 6H6M7.9955 6H8" stroke="#999999" stroke-linecap="round" stroke-linejoin="round"/>
</g>
<defs>
<clipPath id="clip0_556_1020">
<rect width="12" height="12" fill="white"/>
</clipPath>
</defs>
</svg>
