<svg width="38" height="38" viewBox="0 0 38 38" fill="none" xmlns="http://www.w3.org/2000/svg">
<path fill-rule="evenodd" clip-rule="evenodd" d="M7.98145 11.8359H11.7191V18.6884H20.4405V22.4261H11.7191V31.1475H20.4405V34.8851H9.85029C8.81816 34.8851 7.98145 34.0483 7.98145 33.0162V11.8359Z" fill="#10108A"/>
<path fill-rule="evenodd" clip-rule="evenodd" d="M2.375 4.36067C2.375 1.95233 4.32732 0 6.73567 0H25.4241C27.8324 0 29.7849 1.95233 29.7849 4.36067V8.72131C29.7849 11.1296 27.8324 13.082 25.4241 13.082H6.73567C4.32732 13.082 2.375 11.1296 2.375 8.72131V4.36067ZM6.73567 3.7377C6.3916 3.7377 6.1127 4.0166 6.1127 4.36067V8.72131C6.1127 9.06535 6.3916 9.34427 6.73567 9.34427H25.4241C25.7683 9.34427 26.0471 9.06535 26.0471 8.72131V4.36067C26.0471 4.0166 25.7683 3.7377 25.4241 3.7377H6.73567Z" fill="#10108A"/>
<path fill-rule="evenodd" clip-rule="evenodd" d="M18.5713 19.9349C18.5713 17.5265 20.5236 15.5742 22.932 15.5742H29.1615C31.5697 15.5742 33.5222 17.5265 33.5222 19.9349V21.1808C33.5222 23.5891 31.5697 25.5414 29.1615 25.5414H22.932C20.5236 25.5414 18.5713 23.5891 18.5713 21.1808V19.9349ZM22.932 19.3119C22.5879 19.3119 22.309 19.5908 22.309 19.9349V21.1808C22.309 21.5248 22.5879 21.8037 22.932 21.8037H29.1615C29.5054 21.8037 29.7844 21.5248 29.7844 21.1808V19.9349C29.7844 19.5908 29.5054 19.3119 29.1615 19.3119H22.932Z" fill="#10108A"/>
<path fill-rule="evenodd" clip-rule="evenodd" d="M18.5713 32.3918C18.5713 29.9835 20.5236 28.0312 22.932 28.0312H29.1615C31.5697 28.0312 33.5222 29.9835 33.5222 32.3918V33.6377C33.5222 36.0462 31.5697 37.9984 29.1615 37.9984H22.932C20.5236 37.9984 18.5713 36.0462 18.5713 33.6377V32.3918ZM22.932 31.7688C22.5879 31.7688 22.309 32.0479 22.309 32.3918V33.6377C22.309 33.9818 22.5879 34.2606 22.932 34.2606H29.1615C29.5054 34.2606 29.7844 33.9818 29.7844 33.6377V32.3918C29.7844 32.0479 29.5054 31.7688 29.1615 31.7688H22.932Z" fill="#10108A"/>
</svg>
