<svg width="27" height="27" viewBox="0 0 27 27" fill="none" xmlns="http://www.w3.org/2000/svg">
<path fill-rule="evenodd" clip-rule="evenodd" d="M13.5 2.02941C7.17435 2.02941 2.02941 7.17435 2.02941 13.5C2.02941 19.8257 7.17435 24.9706 13.5 24.9706C19.8257 24.9706 24.9706 19.8257 24.9706 13.5C24.9706 7.17435 19.8257 2.02941 13.5 2.02941ZM13.5 26.5C6.33165 26.5 0.5 20.6683 0.5 13.5C0.5 6.33165 6.33165 0.5 13.5 0.5C20.6683 0.5 26.5 6.33165 26.5 13.5C26.5 20.6683 20.6683 26.5 13.5 26.5ZM19.1591 18.7006L12.7356 13.883V5.85356H14.265V13.1183L20.0768 17.4756L19.1591 18.7006Z" fill="#002c8a"/>
</svg>
