<svg width="74" height="74" viewBox="0 0 74 74" fill="none" xmlns="http://www.w3.org/2000/svg">
<path fill-rule="evenodd" clip-rule="evenodd" d="M28.6531 3.98657C29.2313 3.40836 30.0156 3.0835 30.8333 3.0835H55.5C60.6088 3.0835 64.75 7.22488 64.75 12.3335V21.5835C64.75 23.2864 63.3696 24.6668 61.6667 24.6668C59.9637 24.6668 58.5833 23.2864 58.5833 21.5835V12.3335C58.5833 10.6306 57.2029 9.25016 55.5 9.25016H33.9167V24.6668C33.9167 26.3697 32.5363 27.7502 30.8333 27.7502H15.4167V61.6668C15.4167 63.3698 16.7971 64.7502 18.5 64.7502H33.9167C35.6196 64.7502 37 66.1306 37 67.8335C37 69.5364 35.6196 70.9168 33.9167 70.9168H18.5C13.3914 70.9168 9.25 66.7756 9.25 61.6668V24.6668C9.25 23.8491 9.57486 23.0648 10.1531 22.4866L28.6531 3.98657ZM19.7771 21.5835H27.75V13.6106L19.7771 21.5835ZM56.2708 63.9793C56.2708 66.1081 54.5454 67.8335 52.4167 67.8335C50.2879 67.8335 48.5625 66.1081 48.5625 63.9793C48.5625 61.8506 50.2879 60.1252 52.4167 60.1252C54.5454 60.1252 56.2708 61.8506 56.2708 63.9793ZM46.6672 39.9734C47.483 38.4173 49.5896 37.0002 52.4167 37.0002C56.3726 37.0002 58.5833 39.5732 58.5833 41.6252C58.5833 43.6771 56.3726 46.2502 52.4167 46.2502C50.7137 46.2502 49.3333 47.6306 49.3333 49.3335V52.4168C49.3333 54.1198 50.7137 55.5002 52.4167 55.5002C54.1196 55.5002 55.5 54.1198 55.5 52.4168V52.0672C60.5308 50.9168 64.75 47.0121 64.75 41.6252C64.75 35.1625 58.678 30.8335 52.4167 30.8335C47.6578 30.8335 43.2444 33.2215 41.2057 37.1102C40.4148 38.6183 40.9966 40.4819 42.5047 41.2727C44.0127 42.0633 45.8763 41.4818 46.6672 39.9734Z" fill="#002c8a"/>
</svg>
