<svg width="30" height="30" viewBox="0 0 30 30" fill="none" xmlns="http://www.w3.org/2000/svg">
<path d="M17.1406 18.7529V24.1113L21.9629 26.7891L26.7852 24.1113V18.7529L21.9629 16.0752L17.1406 18.7529ZM24.6406 22.8516L21.9629 24.3398L19.2852 22.8516V20.0156L21.9629 18.5273L24.6406 20.0156V22.8516Z" fill="#002c8a"/>
<path d="M20.9064 21.605C20.929 21.744 20.9787 21.8772 21.0527 21.997C21.1267 22.1168 21.2236 22.2208 21.3378 22.3032C21.452 22.3855 21.5814 22.4446 21.7184 22.4769C21.8555 22.5093 21.9975 22.5143 22.1365 22.4918C22.2755 22.4692 22.4087 22.4195 22.5285 22.3455C22.6483 22.2715 22.7523 22.1746 22.8347 22.0604C22.917 21.9462 22.976 21.8168 23.0084 21.6798C23.0408 21.5427 23.0458 21.4007 23.0233 21.2617C22.9778 20.981 22.8226 20.7298 22.5919 20.5635C22.3612 20.3972 22.0739 20.3294 21.7932 20.3749C21.5125 20.4205 21.2613 20.5756 21.095 20.8063C20.9287 21.037 20.8609 21.3243 20.9064 21.605Z" fill="#002c8a"/>
<path d="M3.21484 3.21387V26.7861H16.0732V24.6416H5.35938V5.3584H24.6455V15H26.7871V3.21387H3.21484Z" fill="#002c8a"/>
<path d="M20.3584 11.1592V12.8584H22.5V7.5H17.1445V9.6416H18.8438L14.8623 13.6201L11.6484 11.4785L6.74414 16.3857L8.25879 17.9004L11.9238 14.2354L15.1377 16.3799L20.3584 11.1592ZM7.5 20.3584H15V22.5H7.5V20.3584Z" fill="#002c8a"/>
</svg>
