<svg width="22" height="22" viewBox="0 0 22 22" fill="none" xmlns="http://www.w3.org/2000/svg">
<path d="M20.1668 3.66634V6.41634C20.1668 6.90257 19.9737 7.36889 19.6299 7.7127C19.286 8.05652 18.8197 8.24967 18.3335 8.24967H13.7502C13.2639 8.24967 12.7976 8.05652 12.4538 7.7127C12.11 7.36889 11.9168 6.90257 11.9168 6.41634V3.66634C11.9168 3.18011 12.11 2.7138 12.4538 2.36998C12.7976 2.02616 13.2639 1.83301 13.7502 1.83301H18.3335C18.8197 1.83301 19.286 2.02616 19.6299 2.36998C19.9737 2.7138 20.1668 3.18011 20.1668 3.66634ZM8.25016 13.7497H3.66683C3.1806 13.7497 2.71428 13.9428 2.37047 14.2866C2.02665 14.6305 1.8335 15.0968 1.8335 15.583V18.333C1.8335 18.8192 2.02665 19.2856 2.37047 19.6294C2.71428 19.9732 3.1806 20.1663 3.66683 20.1663H8.25016C8.73639 20.1663 9.20271 19.9732 9.54652 19.6294C9.89034 19.2856 10.0835 18.8192 10.0835 18.333V15.583C10.0835 15.0968 9.89034 14.6305 9.54652 14.2866C9.20271 13.9428 8.73639 13.7497 8.25016 13.7497Z" fill="#002c8a"/>
<path d="M10.0835 3.66634V10.083C10.0835 10.5692 9.89034 11.0356 9.54652 11.3794C9.20271 11.7232 8.73639 11.9163 8.25016 11.9163H3.66683C3.1806 11.9163 2.71428 11.7232 2.37047 11.3794C2.02665 11.0356 1.8335 10.5692 1.8335 10.083V3.66634C1.8335 3.18011 2.02665 2.7138 2.37047 2.36998C2.71428 2.02616 3.1806 1.83301 3.66683 1.83301H8.25016C8.73639 1.83301 9.20271 2.02616 9.54652 2.36998C9.89034 2.7138 10.0835 3.18011 10.0835 3.66634ZM18.3335 10.083H13.7502C13.2639 10.083 12.7976 10.2762 12.4538 10.62C12.11 10.9638 11.9168 11.4301 11.9168 11.9163V18.333C11.9168 18.8192 12.11 19.2856 12.4538 19.6294C12.7976 19.9732 13.2639 20.1663 13.7502 20.1663H18.3335C18.8197 20.1663 19.286 19.9732 19.6299 19.6294C19.9737 19.2856 20.1668 18.8192 20.1668 18.333V11.9163C20.1668 11.4301 19.9737 10.9638 19.6299 10.62C19.286 10.2762 18.8197 10.083 18.3335 10.083Z" fill="#002c8a"/>
</svg>
