<svg width="22" height="22" viewBox="0 0 22 22" fill="none" xmlns="http://www.w3.org/2000/svg">
<path d="M17.6667 1.83333H16.75V0H14.9167V1.83333H7.58333V0H5.75V1.83333H4.83333C3.81583 1.83333 3.00917 2.65833 3.00917 3.66667L3 16.5C3 17.5083 3.81583 18.3333 4.83333 18.3333H17.6667C18.675 18.3333 19.5 17.5083 19.5 16.5V3.66667C19.5 2.65833 18.675 1.83333 17.6667 1.83333ZM17.6667 16.5H4.83333V6.41667H17.6667V16.5ZM6.66667 8.25H11.25V12.8333H6.66667V8.25Z" fill="#002c8a"/>
<path d="M17.6667 1.83333H16.75V0H14.9167V1.83333H7.58333V0H5.75V1.83333H4.83333C3.81583 1.83333 3.00917 2.65833 3.00917 3.66667L3 16.5C3 17.5083 3.81583 18.3333 4.83333 18.3333H17.6667C18.675 18.3333 19.5 17.5083 19.5 16.5V3.66667C19.5 2.65833 18.675 1.83333 17.6667 1.83333ZM17.6667 16.5H4.83333V6.41667H17.6667V16.5ZM6.66667 8.25H11.25V12.8333H6.66667V8.25Z" fill="#002c8a" fill-opacity="0.2"/>
</svg>
