<svg width="14" height="15" viewBox="0 0 14 15" fill="none" xmlns="http://www.w3.org/2000/svg">
<path d="M5.64258 6.57178V11.2146" stroke="#606060" stroke-linecap="round" stroke-linejoin="round"/>
<path d="M5.64258 6.57178V11.2146" stroke="black" stroke-opacity="0.2" stroke-linecap="round" stroke-linejoin="round"/>
<path d="M8.42773 6.57178V11.2146" stroke="#606060" stroke-linecap="round" stroke-linejoin="round"/>
<path d="M8.42773 6.57178V11.2146" stroke="black" stroke-opacity="0.2" stroke-linecap="round" stroke-linejoin="round"/>
<path d="M1 3.78564H12.6071" stroke="#606060" stroke-linecap="round" stroke-linejoin="round"/>
<path d="M1 3.78564H12.6071" stroke="black" stroke-opacity="0.2" stroke-linecap="round" stroke-linejoin="round"/>
<path d="M2.39258 3.78564H6.80329H11.214V11.8112C11.214 13.02 10.2267 13.9999 9.00865 13.9999H4.59794C3.37995 13.9999 2.39258 13.02 2.39258 11.8112V3.78564Z" stroke="#606060" stroke-linecap="round" stroke-linejoin="round"/>
<path d="M2.39258 3.78564H6.80329H11.214V11.8112C11.214 13.02 10.2267 13.9999 9.00865 13.9999H4.59794C3.37995 13.9999 2.39258 13.02 2.39258 11.8112V3.78564Z" stroke="black" stroke-opacity="0.2" stroke-linecap="round" stroke-linejoin="round"/>
<path d="M4.71484 2.39286C4.71484 1.6236 5.40774 1 6.26246 1H7.81008C8.66483 1 9.3577 1.6236 9.3577 2.39286V3.78571H4.71484V2.39286Z" stroke="#606060" stroke-linecap="round" stroke-linejoin="round"/>
<path d="M4.71484 2.39286C4.71484 1.6236 5.40774 1 6.26246 1H7.81008C8.66483 1 9.3577 1.6236 9.3577 2.39286V3.78571H4.71484V2.39286Z" stroke="black" stroke-opacity="0.2" stroke-linecap="round" stroke-linejoin="round"/>
</svg>
