<svg width="23" height="23" viewBox="0 0 23 23" fill="none" xmlns="http://www.w3.org/2000/svg">
<path fill-rule="evenodd" clip-rule="evenodd" d="M3.8335 4.49902V17.9156C3.8335 19.5035 5.12068 20.7906 6.7085 20.7906H16.2918C17.8797 20.7906 19.1668 19.5035 19.1668 17.9156V8.33236C19.1668 6.74453 17.8797 5.45736 16.2918 5.45736H4.79183C4.26256 5.45736 3.8335 5.02829 3.8335 4.49902ZM6.94808 11.2073C6.94808 10.8104 7.26988 10.4886 7.66683 10.4886H15.3335C15.7304 10.4886 16.0522 10.8104 16.0522 11.2073C16.0522 11.6043 15.7304 11.9261 15.3335 11.9261H7.66683C7.26988 11.9261 6.94808 11.6043 6.94808 11.2073ZM6.94808 14.5615C6.94808 14.1645 7.26988 13.8427 7.66683 13.8427H12.9377C13.3346 13.8427 13.6564 14.1645 13.6564 14.5615C13.6564 14.9584 13.3346 15.2802 12.9377 15.2802H7.66683C7.26988 15.2802 6.94808 14.9584 6.94808 14.5615Z" fill="#002c8a"/>
<path fill-rule="evenodd" clip-rule="evenodd" d="M3.8335 4.49902V17.9156C3.8335 19.5035 5.12068 20.7906 6.7085 20.7906H16.2918C17.8797 20.7906 19.1668 19.5035 19.1668 17.9156V8.33236C19.1668 6.74453 17.8797 5.45736 16.2918 5.45736H4.79183C4.26256 5.45736 3.8335 5.02829 3.8335 4.49902ZM6.94808 11.2073C6.94808 10.8104 7.26988 10.4886 7.66683 10.4886H15.3335C15.7304 10.4886 16.0522 10.8104 16.0522 11.2073C16.0522 11.6043 15.7304 11.9261 15.3335 11.9261H7.66683C7.26988 11.9261 6.94808 11.6043 6.94808 11.2073ZM6.94808 14.5615C6.94808 14.1645 7.26988 13.8427 7.66683 13.8427H12.9377C13.3346 13.8427 13.6564 14.1645 13.6564 14.5615C13.6564 14.9584 13.3346 15.2802 12.9377 15.2802H7.66683C7.26988 15.2802 6.94808 14.9584 6.94808 14.5615Z" fill="#002c8a" fill-opacity="0.2"/>
<g opacity="0.5">
<path d="M17.2502 3.83402V5.62099C16.9504 5.51504 16.6278 5.4574 16.2918 5.4574H4.79183C4.26256 5.4574 3.8335 5.02833 3.8335 4.49907V4.43098C3.8335 3.92017 4.2091 3.48709 4.71477 3.41486L15.0625 1.93662C16.2171 1.77166 17.2502 2.66763 17.2502 3.83402Z" fill="#002c8a"/>
<path d="M17.2502 3.83402V5.62099C16.9504 5.51504 16.6278 5.4574 16.2918 5.4574H4.79183C4.26256 5.4574 3.8335 5.02833 3.8335 4.49907V4.43098C3.8335 3.92017 4.2091 3.48709 4.71477 3.41486L15.0625 1.93662C16.2171 1.77166 17.2502 2.66763 17.2502 3.83402Z" fill="#002c8a" fill-opacity="0.2"/>
</g>
</svg>
