<svg width="21" height="21" viewBox="0 0 21 21" fill="none" xmlns="http://www.w3.org/2000/svg">
<path d="M14.875 7.87695C16.7781 7.88755 17.8088 7.97194 18.4811 8.64428C19.25 9.41315 19.25 10.6506 19.25 13.1254V14.0004C19.25 16.4753 19.25 17.7128 18.4811 18.4816C17.7123 19.2504 16.4748 19.2504 14 19.2504H7C4.52512 19.2504 3.28769 19.2504 2.51884 18.4816C1.75 17.7128 1.75 16.4753 1.75 14.0004V13.1254C1.75 10.6506 1.75 9.41315 2.51884 8.64428C3.19118 7.97194 4.22185 7.88755 6.125 7.87695" stroke="#1C274C" stroke-linecap="round"/>
<path d="M10.5 1.75V13.125M10.5 13.125L7.875 10.0625M10.5 13.125L13.125 10.0625" stroke="#1C274C" stroke-linecap="round" stroke-linejoin="round"/>
</svg>
