<svg width="19" height="16" viewBox="0 0 19 16" fill="none" xmlns="http://www.w3.org/2000/svg">
<path d="M16.414 4.26654L9.25903 10.6265C8.54653 11.2598 6.43151 11.5532 5.95901 11.1332C5.48651 10.7132 5.80901 8.83317 6.52151 8.19984L13.684 1.83318C13.8607 1.66189 14.0745 1.5242 14.3127 1.4284C14.5508 1.3326 14.8084 1.28066 15.0697 1.27577C15.331 1.27088 15.5908 1.31311 15.8333 1.39992C16.0758 1.48672 16.296 1.61632 16.4806 1.78086C16.6651 1.94539 16.8103 2.14146 16.9073 2.35723C17.0043 2.57301 17.0512 2.80401 17.0449 3.03631C17.0387 3.26861 16.9795 3.4974 16.8712 3.70884C16.7627 3.92027 16.6072 4.11 16.414 4.26654Z" stroke="#606060" stroke-linecap="round" stroke-linejoin="round"/>
<path d="M8.70508 2.6665H4.95508C4.15943 2.6665 3.39641 2.94745 2.8338 3.44755C2.2712 3.94765 1.95508 4.62592 1.95508 5.33317V11.9998C1.95508 12.7071 2.2712 13.3854 2.8338 13.8854C3.39641 14.3856 4.15943 14.6665 4.95508 14.6665H13.2051C14.8626 14.6665 15.4551 13.4665 15.4551 11.9998V8.6665" stroke="#606060" stroke-linecap="round" stroke-linejoin="round"/>
</svg>
