<svg width="28" height="28" viewBox="0 0 28 28" fill="none" xmlns="http://www.w3.org/2000/svg">
<g clip-path="url(#clip0_3387_1082)">
<path fill-rule="evenodd" clip-rule="evenodd" d="M15.1816 7.30289C15.0741 7.08099 14.9063 6.89384 14.6974 6.7629C14.4885 6.63195 14.2469 6.5625 14.0004 6.5625C13.7538 6.5625 13.5122 6.63195 13.3033 6.7629C13.0944 6.89384 12.9266 7.08099 12.8191 7.30289L10.8241 11.4311L6.36862 12.0961C6.12815 12.1322 5.90244 12.2344 5.71666 12.3913C5.53089 12.5482 5.39234 12.7536 5.31648 12.9846C5.24062 13.2157 5.23043 13.4632 5.28705 13.6997C5.34367 13.9362 5.46486 14.1523 5.63712 14.3239L8.87462 17.5439L8.10987 22.0939C8.06892 22.336 8.09672 22.5848 8.19011 22.8119C8.2835 23.039 8.43874 23.2354 8.63817 23.3787C8.8376 23.522 9.07324 23.6064 9.31828 23.6225C9.56333 23.6385 9.80796 23.5855 10.0244 23.4694L14.0004 21.3326L17.9764 23.4676C18.1926 23.5836 18.4371 23.6365 18.6819 23.6206C18.9268 23.6046 19.1622 23.5203 19.3616 23.3772C19.561 23.2342 19.7162 23.0381 19.8098 22.8113C19.9033 22.5844 19.9314 22.3359 19.8909 22.0939L19.1261 17.5404L22.3636 14.3221C22.5359 14.1505 22.6571 13.9344 22.7137 13.6979C22.7703 13.4615 22.7601 13.2139 22.6843 12.9829C22.6084 12.7519 22.4699 12.5465 22.2841 12.3896C22.0983 12.2327 21.8726 12.1305 21.6321 12.0944L17.1784 11.4294L15.1834 7.30114L15.1816 7.30289ZM12.8839 13.1986L14.0004 10.8886L15.1169 13.1986C15.2101 13.3911 15.3488 13.5578 15.5212 13.6844C15.6935 13.811 15.8941 13.8935 16.1056 13.9249L18.6589 14.3064L16.7934 16.1596C16.6448 16.3077 16.534 16.4892 16.47 16.689C16.4061 16.8887 16.3909 17.1009 16.4259 17.3076L16.8581 19.8906L14.6216 18.6901C14.4306 18.5875 14.2172 18.5338 14.0004 18.5338C13.7836 18.5338 13.5701 18.5875 13.3791 18.6901L11.1426 19.8906L11.5766 17.3076C11.6113 17.1007 11.5959 16.8885 11.5316 16.6887C11.4674 16.489 11.3562 16.3075 11.2074 16.1596L9.34187 14.3046L11.8969 13.9249C12.1081 13.8933 12.3083 13.8106 12.4803 13.684C12.6523 13.5575 12.7908 13.3909 12.8839 13.1986Z" fill="#10108A"/>
<path fill-rule="evenodd" clip-rule="evenodd" d="M21 1.3125C21 0.964403 20.8617 0.630564 20.6156 0.384422C20.3694 0.138281 20.0356 0 19.6875 0C19.3394 0 19.0056 0.138281 18.7594 0.384422C18.5133 0.630564 18.375 0.964403 18.375 1.3125V1.75H9.625V1.3125C9.625 0.964403 9.48672 0.630564 9.24058 0.384422C8.99444 0.138281 8.6606 0 8.3125 0C7.9644 0 7.63056 0.138281 7.38442 0.384422C7.13828 0.630564 7 0.964403 7 1.3125V1.75H3.9375C2.89321 1.75 1.89169 2.16484 1.15327 2.90327C0.414843 3.64169 0 4.64321 0 5.6875L0 24.0625C0 25.1068 0.414843 26.1083 1.15327 26.8467C1.89169 27.5852 2.89321 28 3.9375 28H24.0625C25.1068 28 26.1083 27.5852 26.8467 26.8467C27.5852 26.1083 28 25.1068 28 24.0625V5.6875C28 4.64321 27.5852 3.64169 26.8467 2.90327C26.1083 2.16484 25.1068 1.75 24.0625 1.75H21V1.3125ZM7 5.6875V4.375H3.9375C3.5894 4.375 3.25556 4.51328 3.00942 4.75942C2.76328 5.00556 2.625 5.3394 2.625 5.6875V24.0625C2.625 24.787 3.213 25.375 3.9375 25.375H24.0625C24.4106 25.375 24.7444 25.2367 24.9906 24.9906C25.2367 24.7444 25.375 24.4106 25.375 24.0625V5.6875C25.375 5.3394 25.2367 5.00556 24.9906 4.75942C24.7444 4.51328 24.4106 4.375 24.0625 4.375H21V5.6875C21 6.0356 20.8617 6.36944 20.6156 6.61558C20.3694 6.86172 20.0356 7 19.6875 7C19.3394 7 19.0056 6.86172 18.7594 6.61558C18.5133 6.36944 18.375 6.0356 18.375 5.6875V4.375H9.625V5.6875C9.625 6.0356 9.48672 6.36944 9.24058 6.61558C8.99444 6.86172 8.6606 7 8.3125 7C7.9644 7 7.63056 6.86172 7.38442 6.61558C7.13828 6.36944 7 6.0356 7 5.6875Z" fill="#10108A"/>
</g>
<defs>
<clipPath id="clip0_3387_1082">
<rect width="28" height="28" fill="white"/>
</clipPath>
</defs>
</svg>
