<svg width="17" height="15" viewBox="0 0 17 15" fill="none" xmlns="http://www.w3.org/2000/svg">
<path opacity="0.3" d="M13.2445 6.34046C13.4314 6.67771 13.5249 6.84633 13.5249 7.26211C13.5249 7.67788 13.4314 7.84651 13.2445 8.18375C12.6089 9.33015 11.1753 11.1385 8.45582 11.1385C5.73635 11.1385 4.30277 9.33015 3.66716 8.18375C3.4802 7.84651 3.38672 7.67788 3.38672 7.26211C3.38672 6.84633 3.4802 6.67771 3.66716 6.34046C4.30277 5.19404 5.73635 3.38574 8.45582 3.38574C11.1753 3.38574 12.6089 5.19404 13.2445 6.34046Z" fill="#606060"/>
<path d="M8.45641 9.94523C9.60918 9.94523 10.5437 8.87722 10.5437 7.55977C10.5437 6.24232 9.60918 5.17432 8.45641 5.17432C7.30364 5.17432 6.36914 6.24232 6.36914 7.55977C6.36914 8.87722 7.30364 9.94523 8.45641 9.94523Z" fill="#606060"/>
<path d="M12.7703 1H12.9273C14.3329 1 15.0357 1 15.4724 1.42949C15.9091 1.85897 15.9091 2.55021 15.9091 3.93271V4.08706M12.7703 14.12H12.9273C14.3329 14.12 15.0357 14.12 15.4724 13.6905C15.9091 13.261 15.9091 12.5698 15.9091 11.1873V11.0329M4.13876 1H3.98182C2.57617 1 1.87335 1 1.43668 1.42949C1 1.85897 1 2.55021 1 3.93271V4.08706M4.13876 14.12H3.98182C2.57617 14.12 1.87335 14.12 1.43668 13.6905C1 13.261 1 12.5698 1 11.1873V11.0329" stroke="#606060" stroke-linecap="round"/>
</svg>
