<svg width="60" height="60" viewBox="0 0 60 60" fill="none" xmlns="http://www.w3.org/2000/svg">
<path d="M25 7.5H41.25C42.411 7.5 42.9915 7.5 43.479 7.56418C46.8445 8.00725 49.4928 10.6555 49.9358 14.021C50 14.5084 50 15.089 50 16.25" stroke="#FAFAFA" stroke-width="2"/>
<path d="M5 17.3744C5 15.168 5 14.0649 5.17338 13.146C5.9366 9.10077 9.10077 5.9366 13.146 5.17338C14.0649 5 15.168 5 17.3744 5C18.341 5 18.8244 5 19.2889 5.04345C21.2916 5.23072 23.1913 6.0176 24.7398 7.30128C25.099 7.59903 25.4408 7.94082 26.1243 8.62437L27.5 10C29.5395 12.0394 30.5593 13.0592 31.7803 13.7386C32.451 14.1118 33.1628 14.4065 33.901 14.6169C35.2448 15 36.6867 15 39.571 15H40.5053C47.0863 15 50.3765 15 52.5155 16.9237C52.7123 17.1006 52.8995 17.2879 53.0762 17.4846C55 19.6234 55 22.9139 55 29.4948V35C55 44.428 55 49.1422 52.071 52.071C49.1422 55 44.428 55 35 55H25C15.5719 55 10.8579 55 7.92893 52.071C5 49.1422 5 44.428 5 35V17.3744Z" stroke="#FAFAFA" stroke-width="2"/>
<rect x="35.5" y="38.5" width="14" height="11" rx="5.5" stroke="#FAFAFA"/>
<path d="M42.5021 47.137C42.3628 47.137 42.2565 47.1003 42.1831 47.027C42.1171 46.9463 42.0841 46.84 42.0841 46.708V44.75H40.1591C40.0271 44.75 39.9245 44.717 39.8511 44.651C39.7778 44.5777 39.7411 44.475 39.7411 44.343C39.7411 44.211 39.7778 44.112 39.8511 44.046C39.9245 43.9727 40.0271 43.936 40.1591 43.936H42.0841V42.033C42.0841 41.901 42.1171 41.7983 42.1831 41.725C42.2565 41.6517 42.3665 41.615 42.5131 41.615C42.6451 41.615 42.7441 41.6517 42.8101 41.725C42.8835 41.7983 42.9201 41.901 42.9201 42.033V43.936H44.8451C44.9845 43.936 45.0871 43.9727 45.1531 44.046C45.2265 44.112 45.2631 44.211 45.2631 44.343C45.2631 44.475 45.2265 44.5777 45.1531 44.651C45.0871 44.717 44.9845 44.75 44.8451 44.75H42.9201V46.708C42.9201 46.84 42.8835 46.9463 42.8101 47.027C42.7441 47.1003 42.6415 47.137 42.5021 47.137Z" fill="#FAFAFA"/>
</svg>
