<svg width="92" height="82" viewBox="0 0 92 82" fill="none" xmlns="http://www.w3.org/2000/svg">
<g clip-path="url(#clip0_2183_2708)">
<path d="M17.8955 7.87891C12.3613 7.87891 7.90625 12.3191 7.90625 17.8336V56.9153C7.90625 62.4303 12.3613 66.8699 17.8955 66.8699H22.1169V77.9111C22.1169 79.1317 22.855 80.2323 23.9867 80.6991C25.1185 81.166 26.4212 80.9073 27.2868 80.0437L40.4932 66.8699H80.935C86.4692 66.8699 90.9242 62.4303 90.9242 56.9153V17.8336C90.9242 12.3186 86.4687 7.87891 80.935 7.87891H17.8955Z" stroke="#002c8a" stroke-width="2" stroke-linecap="round" stroke-linejoin="round"/>
<path d="M11.0635 1.07227C5.5293 1.07227 1.07422 5.51242 1.07422 11.027V50.1086C1.07422 55.6236 5.52981 60.0633 11.064 60.0633H15.2859V71.1045C15.2859 72.325 16.024 73.4256 17.1557 73.8925C18.2874 74.3593 19.5902 74.1007 20.4558 73.2371L33.6622 60.0633H74.104C79.6382 60.0633 84.0932 55.6236 84.0932 50.1086V11.027C84.0932 5.51192 79.6376 1.07227 74.104 1.07227H11.0635Z" fill="white"/>
<path d="M11.0649 0C4.95341 0 0 4.93676 0 11.027V50.1082C0 56.1985 4.95341 61.1352 11.0649 61.1352H14.2111V71.1045C14.2111 72.8812 15.3292 74.2989 16.7453 74.8827C18.1613 75.4671 19.9578 75.2513 21.2175 73.9944L34.1092 61.1347H74.1053C80.2168 61.1347 85.1702 56.198 85.1702 50.1077V11.027C85.1702 4.93676 80.2168 0 74.1053 0H11.0649ZM11.0649 2.1437H74.1053C79.0623 2.1437 83.019 6.08675 83.019 11.027V50.1082C83.019 55.048 79.0623 58.9915 74.1053 58.9915H33.6635C33.3782 58.9915 33.1045 59.1045 32.9031 59.3056L19.6963 72.4794C19.0492 73.1252 18.2605 73.1877 17.5684 72.9019C16.8763 72.6165 16.3628 72.0166 16.3628 71.104V60.0629C16.3628 59.471 15.8812 58.991 15.2872 58.991H11.0654C6.10841 58.991 2.15165 55.0475 2.15165 50.1077V11.027C2.15165 6.08726 6.10841 2.1437 11.0654 2.1437H11.0649Z" fill="#002c8a"/>
<path d="M12.7305 20.1035H28.3961V23.973H17.3176V29.0373H27.0165V32.8618H17.3176V42.0941H12.7305V20.1035Z" fill="#002c8a"/>
<path d="M35.8464 33.7733H41.453L38.6947 25.1088L35.8464 33.7733ZM36.1313 20.0742H41.3483L49.1732 42.0945H44.1662L42.7421 37.5682H34.6019L33.073 42.0945H28.2461L36.1313 20.0742Z" fill="#002c8a"/>
<path d="M61.7067 38.8066C62.2364 38.8066 62.7464 38.7416 63.2361 38.6125C63.5058 38.5429 63.8508 38.4184 64.2702 38.2389L62.0366 36.1179L64.4199 33.6379L66.6536 35.7595C67.0031 35.0425 67.248 34.4149 67.3881 33.8769C67.6082 33.0703 67.718 32.129 67.718 31.0536C67.718 28.5837 67.2085 26.6765 66.1886 25.3319C65.1793 23.9772 63.7 23.3001 61.7512 23.3001C59.9224 23.3001 58.4633 23.9474 57.3741 25.2421C56.2843 26.5368 55.74 28.4738 55.74 31.0536C55.74 34.0715 56.5196 36.2324 58.0788 37.5371C59.0881 38.3836 60.2978 38.8071 61.7067 38.8071V38.8066ZM72.3355 30.7244C72.3355 32.6866 72.0957 34.3296 71.6161 35.6546C71.226 36.9195 70.6513 37.9702 69.8919 38.8066L72.4402 41.1817L70.0265 43.6914L67.3578 41.1817C66.5483 41.6697 65.8486 42.0136 65.2593 42.2127C64.2697 42.5414 63.0853 42.7058 61.7062 42.7058C58.8281 42.7058 56.4493 41.8492 54.5703 40.1361C52.2917 38.0746 51.1523 35.0471 51.1523 31.0531C51.1523 27.0591 52.3215 23.9868 54.6604 21.9252C56.5692 20.2418 58.9429 19.4004 61.7811 19.4004C64.6193 19.4004 67.0381 20.2917 68.9767 22.0745C71.2154 24.136 72.335 27.0193 72.335 30.7244H72.3355Z" fill="#002c8a"/>
</g>
<defs>
<clipPath id="clip0_2183_2708">
<rect width="92" height="82" fill="white"/>
</clipPath>
</defs>
</svg>
