<svg width="32" height="32" viewBox="0 0 32 32" fill="none" xmlns="http://www.w3.org/2000/svg">
<path d="M29.0775 12.8605C28.6669 12.8605 28.353 13.1986 28.353 13.585V26.6265C28.353 27.4476 27.7009 28.0997 26.8798 28.0997H4.80579C3.98466 28.0997 3.33258 27.4476 3.33258 26.6265V5.34951C3.33258 4.52838 3.98466 3.8763 4.80579 3.8763H19.0065C19.4171 3.8763 19.7311 3.53819 19.7311 3.15177C19.7311 2.74121 19.393 2.42725 19.0065 2.42725H4.66088C3.11522 2.42725 1.85938 3.68309 1.85938 5.22876V26.8197C1.85938 28.3654 3.11522 29.6212 4.66088 29.6212H27.0247C28.5703 29.6212 29.8262 28.3654 29.8262 26.8197V13.585C29.8262 13.1986 29.4881 12.8605 29.0775 12.8605Z" fill="#50B6FF"/>
<path d="M29.2227 5.10798L27.8944 3.77968C26.9767 2.86194 25.5277 2.76534 24.7065 3.61062L10.7231 17.594L15.4084 22.2793L29.3918 8.29591C30.2371 7.47477 30.1646 6.02572 29.2227 5.10798ZM25.6967 9.91402L15.3118 20.2989L12.7035 17.7148L23.1367 7.28157L25.6967 9.91402ZM28.3533 7.25742L26.8077 8.80308L24.2235 6.19478L25.745 4.67327C26.059 4.3593 26.6144 4.38345 26.9526 4.74572L28.2809 6.07402C28.6431 6.38798 28.6673 6.94345 28.3533 7.25742ZM10.7231 17.6423L9.27407 22.9072C9.20162 23.1487 9.27407 23.3902 9.44313 23.5593C9.61218 23.7284 9.85369 23.8008 10.0952 23.7284L15.3601 22.2793L14.2733 21.1925L10.868 22.1344L11.8099 18.705L10.7231 17.6423Z" fill="#50B6FF"/>
</svg>
