<svg width="11" height="7" viewBox="0 0 11 7" fill="none" xmlns="http://www.w3.org/2000/svg">
<path fill-rule="evenodd" clip-rule="evenodd" d="M0 0.583333C0 0.26117 0.273607 0 0.611111 0H10.3889C10.7264 0 11 0.26117 11 0.583333C11 0.905497 10.7264 1.16667 10.3889 1.16667H0.611111C0.273607 1.16667 0 0.905497 0 0.583333ZM1.83333 3.5C1.83333 3.17782 2.10694 2.91667 2.44444 2.91667H8.55556C8.89307 2.91667 9.16667 3.17782 9.16667 3.5C9.16667 3.82217 8.89307 4.08333 8.55556 4.08333H2.44444C2.10694 4.08333 1.83333 3.82217 1.83333 3.5ZM3.66667 6.41667C3.66667 6.09449 3.94027 5.83333 4.27778 5.83333H6.72222C7.05974 5.83333 7.33333 6.09449 7.33333 6.41667C7.33333 6.73884 7.05974 7 6.72222 7H4.27778C3.94027 7 3.66667 6.73884 3.66667 6.41667Z" fill="#FFFFFF"/>
</svg>
