<svg width="16" height="16" viewBox="0 0 16 16" fill="none" xmlns="http://www.w3.org/2000/svg">
<rect x="0.5" y="0.5" width="15" height="15" stroke="#002c8a"/>
<rect x="0.5" y="0.5" width="15" height="15" stroke="#002c8a" stroke-opacity="0.2"/>
<path fill-rule="evenodd" clip-rule="evenodd" d="M7.01611 7.27029C7.01611 7.52638 7.11785 7.77199 7.29893 7.95307C7.48002 8.13416 7.72562 8.23589 7.98171 8.23589C8.23781 8.23589 8.48341 8.13416 8.6645 7.95307C8.84558 7.77199 8.94731 7.52638 8.94731 7.27029C8.94731 7.01419 8.84558 6.76859 8.6645 6.58751C8.48341 6.40642 8.23781 6.30469 7.98171 6.30469C7.72562 6.30469 7.48002 6.40642 7.29893 6.58751C7.11785 6.76859 7.01611 7.01419 7.01611 7.27029Z" fill="#002c8a"/>
<path fill-rule="evenodd" clip-rule="evenodd" d="M7.01611 7.27029C7.01611 7.52638 7.11785 7.77199 7.29893 7.95307C7.48002 8.13416 7.72562 8.23589 7.98171 8.23589C8.23781 8.23589 8.48341 8.13416 8.6645 7.95307C8.84558 7.77199 8.94731 7.52638 8.94731 7.27029C8.94731 7.01419 8.84558 6.76859 8.6645 6.58751C8.48341 6.40642 8.23781 6.30469 7.98171 6.30469C7.72562 6.30469 7.48002 6.40642 7.29893 6.58751C7.11785 6.76859 7.01611 7.01419 7.01611 7.27029Z" fill="#002c8a" fill-opacity="0.2"/>
<path fill-rule="evenodd" clip-rule="evenodd" d="M7.9854 3.20035C7.18084 3.19338 6.39231 3.4254 5.71973 3.867C5.04715 4.30859 4.52079 4.93989 4.20733 5.68091C3.89387 6.42194 3.80743 7.23933 3.95895 8.02953C4.11047 8.81972 4.49313 9.54716 5.05846 10.1197C5.62379 10.6922 6.34634 11.084 7.13456 11.2455C7.92278 11.407 8.7412 11.3309 9.48612 11.0268C10.231 10.7227 10.8689 10.2044 11.319 9.53742C11.7691 8.87047 12.011 8.08493 12.0142 7.28035C12.0142 5.07395 10.2158 3.20035 7.9854 3.20035ZM10.6382 8.59075L10.4526 8.89955C10.4146 8.95528 10.3638 9.00118 10.3046 9.03345C10.2453 9.06572 10.1793 9.08344 10.1118 9.08515C10.0641 9.08245 10.0171 9.07219 9.9726 9.05475L9.4622 8.85315C9.24404 9.04215 8.99141 9.18721 8.7182 9.28035L8.6254 9.85315C8.60768 9.94297 8.55945 10.0239 8.48888 10.0822C8.41831 10.1405 8.32975 10.1727 8.2382 10.1731H7.8526C7.76105 10.1727 7.67249 10.1405 7.60192 10.0822C7.53135 10.0239 7.48312 9.94297 7.4654 9.85315L7.3726 9.28035C7.10919 9.19914 6.86635 9.06217 6.6606 8.87875L6.1198 9.08035C6.0753 9.09779 6.02832 9.10805 5.9806 9.11075C5.91125 9.1093 5.84345 9.08998 5.78375 9.05466C5.72405 9.01935 5.67447 8.96923 5.6398 8.90915L5.4542 8.58915C5.40793 8.50927 5.39185 8.41545 5.40888 8.32473C5.42591 8.23401 5.47492 8.15241 5.547 8.09475L5.995 7.72355C5.96513 7.58633 5.94958 7.44638 5.9486 7.30595C5.94966 7.17081 5.96522 7.03617 5.995 6.90435L5.547 6.53315C5.47436 6.4759 5.42493 6.39426 5.40786 6.30335C5.3908 6.21245 5.40726 6.11844 5.4542 6.03875L5.6398 5.71875C5.67294 5.65736 5.72217 5.60615 5.78221 5.57063C5.84226 5.53512 5.91084 5.51662 5.9806 5.51715C6.02832 5.51984 6.0753 5.53011 6.1198 5.54755L6.6606 5.74915C6.86962 5.56649 7.11116 5.42482 7.3726 5.33155L7.4654 4.79075C7.47992 4.70019 7.5276 4.61827 7.59916 4.5609C7.67072 4.50353 7.76105 4.47482 7.8526 4.48035H8.2398C8.32897 4.4746 8.41721 4.50121 8.48834 4.55529C8.55947 4.60937 8.6087 4.68729 8.627 4.77475L8.7198 5.33155C8.98045 5.41905 9.22208 5.55534 9.4318 5.73315L9.9726 5.53155C10.0171 5.51411 10.0641 5.50384 10.1118 5.50115C10.1811 5.5026 10.249 5.52192 10.3087 5.55723C10.3684 5.59255 10.4179 5.64267 10.4526 5.70275L10.6382 6.02275C10.6808 6.10354 10.6948 6.19636 10.6779 6.28611C10.6611 6.37587 10.6144 6.45729 10.5454 6.51715L10.0974 6.88835C10.1281 7.02543 10.1437 7.16547 10.1438 7.30595C10.1427 7.44109 10.1272 7.57573 10.0974 7.70755L10.5454 8.07875C10.6188 8.13938 10.6685 8.22406 10.6854 8.31777C10.7024 8.41149 10.6857 8.50819 10.6382 8.59075Z" fill="#002c8a"/>
<path fill-rule="evenodd" clip-rule="evenodd" d="M7.9854 3.20035C7.18084 3.19338 6.39231 3.4254 5.71973 3.867C5.04715 4.30859 4.52079 4.93989 4.20733 5.68091C3.89387 6.42194 3.80743 7.23933 3.95895 8.02953C4.11047 8.81972 4.49313 9.54716 5.05846 10.1197C5.62379 10.6922 6.34634 11.084 7.13456 11.2455C7.92278 11.407 8.7412 11.3309 9.48612 11.0268C10.231 10.7227 10.8689 10.2044 11.319 9.53742C11.7691 8.87047 12.011 8.08493 12.0142 7.28035C12.0142 5.07395 10.2158 3.20035 7.9854 3.20035ZM10.6382 8.59075L10.4526 8.89955C10.4146 8.95528 10.3638 9.00118 10.3046 9.03345C10.2453 9.06572 10.1793 9.08344 10.1118 9.08515C10.0641 9.08245 10.0171 9.07219 9.9726 9.05475L9.4622 8.85315C9.24404 9.04215 8.99141 9.18721 8.7182 9.28035L8.6254 9.85315C8.60768 9.94297 8.55945 10.0239 8.48888 10.0822C8.41831 10.1405 8.32975 10.1727 8.2382 10.1731H7.8526C7.76105 10.1727 7.67249 10.1405 7.60192 10.0822C7.53135 10.0239 7.48312 9.94297 7.4654 9.85315L7.3726 9.28035C7.10919 9.19914 6.86635 9.06217 6.6606 8.87875L6.1198 9.08035C6.0753 9.09779 6.02832 9.10805 5.9806 9.11075C5.91125 9.1093 5.84345 9.08998 5.78375 9.05466C5.72405 9.01935 5.67447 8.96923 5.6398 8.90915L5.4542 8.58915C5.40793 8.50927 5.39185 8.41545 5.40888 8.32473C5.42591 8.23401 5.47492 8.15241 5.547 8.09475L5.995 7.72355C5.96513 7.58633 5.94958 7.44638 5.9486 7.30595C5.94966 7.17081 5.96522 7.03617 5.995 6.90435L5.547 6.53315C5.47436 6.4759 5.42493 6.39426 5.40786 6.30335C5.3908 6.21245 5.40726 6.11844 5.4542 6.03875L5.6398 5.71875C5.67294 5.65736 5.72217 5.60615 5.78221 5.57063C5.84226 5.53512 5.91084 5.51662 5.9806 5.51715C6.02832 5.51984 6.0753 5.53011 6.1198 5.54755L6.6606 5.74915C6.86962 5.56649 7.11116 5.42482 7.3726 5.33155L7.4654 4.79075C7.47992 4.70019 7.5276 4.61827 7.59916 4.5609C7.67072 4.50353 7.76105 4.47482 7.8526 4.48035H8.2398C8.32897 4.4746 8.41721 4.50121 8.48834 4.55529C8.55947 4.60937 8.6087 4.68729 8.627 4.77475L8.7198 5.33155C8.98045 5.41905 9.22208 5.55534 9.4318 5.73315L9.9726 5.53155C10.0171 5.51411 10.0641 5.50384 10.1118 5.50115C10.1811 5.5026 10.249 5.52192 10.3087 5.55723C10.3684 5.59255 10.4179 5.64267 10.4526 5.70275L10.6382 6.02275C10.6808 6.10354 10.6948 6.19636 10.6779 6.28611C10.6611 6.37587 10.6144 6.45729 10.5454 6.51715L10.0974 6.88835C10.1281 7.02543 10.1437 7.16547 10.1438 7.30595C10.1427 7.44109 10.1272 7.57573 10.0974 7.70755L10.5454 8.07875C10.6188 8.13938 10.6685 8.22406 10.6854 8.31777C10.7024 8.41149 10.6857 8.50819 10.6382 8.59075Z" fill="#002c8a" fill-opacity="0.2"/>
<path fill-rule="evenodd" clip-rule="evenodd" d="M4.1602 10.2734H3.957C3.75626 10.2743 3.56402 10.3545 3.42223 10.4966C3.28043 10.6387 3.20062 10.8311 3.2002 11.0318V12.0414C3.20019 12.2423 3.27988 12.435 3.42176 12.5771C3.56364 12.7193 3.75613 12.7994 3.957 12.7998H12.0434C12.2441 12.799 12.4364 12.7188 12.5782 12.5767C12.72 12.4346 12.7998 12.2422 12.8002 12.0414V11.0318C12.8002 10.831 12.7205 10.6383 12.5786 10.4961C12.4368 10.354 12.2443 10.2739 12.0434 10.2734H11.797C11.3463 10.8569 10.7678 11.3293 10.106 11.6544C9.44419 11.9794 8.7167 12.1484 7.9794 12.1484C7.24209 12.1484 6.5146 11.9794 5.85281 11.6544C5.19101 11.3293 4.61253 10.8569 4.1618 10.2734H4.1602Z" fill="#002c8a"/>
<path fill-rule="evenodd" clip-rule="evenodd" d="M4.1602 10.2734H3.957C3.75626 10.2743 3.56402 10.3545 3.42223 10.4966C3.28043 10.6387 3.20062 10.8311 3.2002 11.0318V12.0414C3.20019 12.2423 3.27988 12.435 3.42176 12.5771C3.56364 12.7193 3.75613 12.7994 3.957 12.7998H12.0434C12.2441 12.799 12.4364 12.7188 12.5782 12.5767C12.72 12.4346 12.7998 12.2422 12.8002 12.0414V11.0318C12.8002 10.831 12.7205 10.6383 12.5786 10.4961C12.4368 10.354 12.2443 10.2739 12.0434 10.2734H11.797C11.3463 10.8569 10.7678 11.3293 10.106 11.6544C9.44419 11.9794 8.7167 12.1484 7.9794 12.1484C7.24209 12.1484 6.5146 11.9794 5.85281 11.6544C5.19101 11.3293 4.61253 10.8569 4.1618 10.2734H4.1602Z" fill="#002c8a" fill-opacity="0.2"/>
</svg>