<svg width="25" height="23" viewBox="0 0 25 23" fill="none" xmlns="http://www.w3.org/2000/svg">
<path fill-rule="evenodd" clip-rule="evenodd" d="M24.5 19.55C24.5 21.4554 22.8882 23 20.9 23H4.1C2.11177 23 0.5 21.4554 0.5 19.55V3.45C0.5 1.54462 2.11177 0 4.1 0H8.9006C9.56301 0 10.1 0.514615 10.1 1.14943C10.1 1.78427 9.56305 2.29895 8.9006 2.29908L4.1 2.3C3.43726 2.3 2.9 2.81487 2.9 3.45V18.7197L7.92352 11.9816C8.30021 11.4762 9.01939 11.3548 9.54949 11.6828L9.66822 11.7665L15.842 16.6957L17.5015 14.3121C17.8936 13.7485 18.6963 13.6373 19.2369 14.0421L19.3485 14.1368L22.1 16.7727V14.95C22.1 14.3149 22.6373 13.8 23.3 13.8C23.9627 13.8 24.5 14.3149 24.5 14.95V19.55ZM9.1244 14.3267L4.3736 20.7H20.9C21.4147 20.7 21.8537 20.3895 22.0242 19.9532L18.686 16.7555L17.0985 19.0379C16.7292 19.5688 15.9876 19.7038 15.4448 19.3637L15.3318 19.2835L9.1244 14.3267ZM18.5 0C19.1627 0 19.7 0.514872 19.7 1.15V4.6H23.3C23.9627 4.6 24.5 5.11487 24.5 5.75C24.5 6.38513 23.9627 6.9 23.3 6.9H19.7V10.35C19.7 10.9851 19.1627 11.5 18.5 11.5C17.8373 11.5 17.3 10.9851 17.3 10.35V6.9H13.7C13.0373 6.9 12.5 6.38513 12.5 5.75C12.5 5.11487 13.0373 4.6 13.7 4.6H17.3V1.15C17.3 0.514872 17.8373 0 18.5 0ZM7.7 4.6C9.02548 4.6 10.1 5.62975 10.1 6.9C10.1 8.17025 9.02548 9.2 7.7 9.2C6.37452 9.2 5.3 8.17025 5.3 6.9C5.3 5.62975 6.37452 4.6 7.7 4.6Z" fill="#E1DFDF"/>
</svg>
