<svg width="30" height="32" viewBox="0 0 30 32" fill="none" xmlns="http://www.w3.org/2000/svg">
<path d="M10 14.7077C11.3807 14.7077 12.5 13.5511 12.5 12.1243C12.5 10.6976 11.3807 9.54102 10 9.54102C8.61929 9.54102 7.5 10.6976 7.5 12.1243C7.5 13.5511 8.61929 14.7077 10 14.7077Z" stroke="#000" stroke-width="2" stroke-linecap="round" stroke-linejoin="round"/>
<path d="M8.20068 27.6249C15.1631 11.9958 20.9506 9.25742 27.5006 19.397" stroke="#000" stroke-width="2" stroke-linecap="round" stroke-linejoin="round"/>
<path d="M22.5 4.375H7.5C4.73857 4.375 2.5 6.68819 2.5 9.54167V22.4583C2.5 25.3118 4.73857 27.625 7.5 27.625H22.5C25.2614 27.625 27.5 25.3118 27.5 22.4583V9.54167C27.5 6.68819 25.2614 4.375 22.5 4.375Z" stroke="#000" stroke-width="2" stroke-linecap="round" stroke-linejoin="round"/>
</svg>
