<svg width="42" height="42" viewBox="0 0 42 42" fill="none" xmlns="http://www.w3.org/2000/svg">
<path d="M33.25 22.7491C32.7859 22.7491 32.3407 22.9335 32.0126 23.2616C31.6844 23.5898 31.5 24.035 31.5 24.4991V25.1641L28.91 22.5741C27.9955 21.6668 26.7595 21.1577 25.4713 21.1577C24.183 21.1577 22.947 21.6668 22.0325 22.5741L20.8075 23.7991L16.4675 19.4591C15.5402 18.5764 14.309 18.0841 13.0288 18.0841C11.7485 18.0841 10.5173 18.5764 9.59 19.4591L7 22.0491V12.2491C7 11.785 7.18437 11.3398 7.51256 11.0116C7.84075 10.6835 8.28587 10.4991 8.75 10.4991H21C21.4641 10.4991 21.9092 10.3147 22.2374 9.98652C22.5656 9.65833 22.75 9.21321 22.75 8.74909C22.75 8.28496 22.5656 7.83984 22.2374 7.51165C21.9092 7.18346 21.4641 6.99909 21 6.99909H8.75C7.35761 6.99909 6.02226 7.55221 5.03769 8.53678C4.05312 9.52134 3.5 10.8567 3.5 12.2491V33.2491C3.5 34.6415 4.05312 35.9768 5.03769 36.9614C6.02226 37.946 7.35761 38.4991 8.75 38.4991H29.75C31.1424 38.4991 32.4777 37.946 33.4623 36.9614C34.4469 35.9768 35 34.6415 35 33.2491V24.4991C35 24.035 34.8156 23.5898 34.4874 23.2616C34.1593 22.9335 33.7141 22.7491 33.25 22.7491ZM8.75 34.9991C8.28587 34.9991 7.84075 34.8147 7.51256 34.4865C7.18437 34.1583 7 33.7132 7 33.2491V27.0016L12.075 21.9266C12.3321 21.6816 12.6736 21.5449 13.0288 21.5449C13.3839 21.5449 13.7254 21.6816 13.9825 21.9266L19.53 27.4741L27.055 34.9991H8.75ZM31.5 33.2491C31.4975 33.5841 31.387 33.9093 31.185 34.1766L23.2925 26.2491L24.5175 25.0241C24.643 24.896 24.7927 24.7943 24.958 24.7249C25.1233 24.6554 25.3007 24.6196 25.48 24.6196C25.6593 24.6196 25.8367 24.6554 26.002 24.7249C26.1673 24.7943 26.317 24.896 26.4425 25.0241L31.5 30.1166V33.2491ZM39.7425 7.50659L34.4925 2.25659C34.3261 2.09726 34.1298 1.97238 33.915 1.88909C33.4889 1.71405 33.0111 1.71405 32.585 1.88909C32.3702 1.97238 32.1739 2.09726 32.0075 2.25659L26.7575 7.50659C26.5943 7.66975 26.4649 7.86346 26.3766 8.07665C26.2883 8.28984 26.2428 8.51833 26.2428 8.74909C26.2428 9.21511 26.428 9.66205 26.7575 9.99158C27.087 10.3211 27.534 10.5062 28 10.5062C28.466 10.5062 28.913 10.3211 29.2425 9.99158L31.5 7.71659V17.4991C31.5 17.9632 31.6844 18.4083 32.0126 18.7365C32.3407 19.0647 32.7859 19.2491 33.25 19.2491C33.7141 19.2491 34.1593 19.0647 34.4874 18.7365C34.8156 18.4083 35 17.9632 35 17.4991V7.71659L37.2575 9.99158C37.4202 10.1556 37.6137 10.2858 37.827 10.3746C38.0402 10.4635 38.269 10.5092 38.5 10.5092C38.731 10.5092 38.9598 10.4635 39.173 10.3746C39.3863 10.2858 39.5798 10.1556 39.7425 9.99158C39.9065 9.8289 40.0367 9.63535 40.1256 9.42209C40.2144 9.20884 40.2601 8.98011 40.2601 8.74909C40.2601 8.51806 40.2144 8.28933 40.1256 8.07608C40.0367 7.86282 39.9065 7.66927 39.7425 7.50659Z" fill="#999999"/>
</svg>
