<svg width="61" height="61" viewBox="0 0 61 61" fill="none" xmlns="http://www.w3.org/2000/svg">
<g clip-path="url(#clip0_2067_3300)">
<path fill-rule="evenodd" clip-rule="evenodd" d="M24.2866 32.8088C19.6066 37.265 12.0173 37.265 7.33732 32.8088L2.4386 28.1444C0.0985931 25.9163 0.0985931 22.3045 2.4386 20.0764C4.7786 17.8483 8.57472 17.8483 10.9147 20.0764C14.1746 23.1803 17.749 22.895 20.047 20.704C22.3631 18.4987 22.6417 15.1039 19.3729 11.9943C17.0329 9.76619 17.0329 6.15161 19.3729 3.92352C21.7159 1.69542 25.5091 1.69542 27.8491 3.92352L32.7598 8.59933C37.4398 13.0555 37.4398 20.2819 32.7598 24.7381L58.8444 49.578C64.4502 54.9129 55.9711 62.978 50.3712 57.646L24.2866 32.8088Z" fill="#002c8a"/>
</g>
<defs>
<clipPath id="clip0_2067_3300">
<rect width="60" height="60" fill="white" transform="translate(0.683594 0.82373)"/>
</clipPath>
</defs>
</svg>
