<svg width="14" height="14" viewBox="0 0 14 14" fill="none" xmlns="http://www.w3.org/2000/svg">
<path d="M0 11.382V2.632C0 1.904 0.25666 1.28333 0.76998 0.77C1.2833 0.256667 1.90395 0 2.63193 0H9.05777L7.29381 1.75H2.63193C2.38927 1.75 2.17928 1.83867 2.00195 2.016C1.82462 2.19333 1.74062 2.39867 1.74996 2.632V11.382C1.74996 11.6247 1.83395 11.83 2.00195 11.998C2.16994 12.166 2.37994 12.25 2.63193 12.25H11.3817C11.615 12.25 11.8204 12.166 11.9977 11.998C12.175 11.83 12.259 11.6247 12.2497 11.382V6.706L13.9996 4.956V11.382C13.9996 12.11 13.743 12.726 13.2297 13.23C12.7163 13.734 12.1004 13.9907 11.3817 14H2.63193C1.90395 14 1.2833 13.7433 0.76998 13.23C0.25666 12.7167 0 12.1007 0 11.382ZM2.63193 11.382L3.55591 7.952L8.91777 2.618L11.4237 5.054L6.03385 10.43L2.63193 11.382ZM9.67375 1.862L11.0177 0.518C11.3537 0.172667 11.7644 0 12.2497 0C12.735 0 13.1457 0.172667 13.4817 0.518C13.8176 0.863333 13.9903 1.274 13.9996 1.75C14.009 2.226 13.8363 2.64133 13.4817 2.996L12.1797 4.298L9.67375 1.862Z" fill="#002c8a"/>
<path d="M0 11.382V2.632C0 1.904 0.25666 1.28333 0.76998 0.77C1.2833 0.256667 1.90395 0 2.63193 0H9.05777L7.29381 1.75H2.63193C2.38927 1.75 2.17928 1.83867 2.00195 2.016C1.82462 2.19333 1.74062 2.39867 1.74996 2.632V11.382C1.74996 11.6247 1.83395 11.83 2.00195 11.998C2.16994 12.166 2.37994 12.25 2.63193 12.25H11.3817C11.615 12.25 11.8204 12.166 11.9977 11.998C12.175 11.83 12.259 11.6247 12.2497 11.382V6.706L13.9996 4.956V11.382C13.9996 12.11 13.743 12.726 13.2297 13.23C12.7163 13.734 12.1004 13.9907 11.3817 14H2.63193C1.90395 14 1.2833 13.7433 0.76998 13.23C0.25666 12.7167 0 12.1007 0 11.382ZM2.63193 11.382L3.55591 7.952L8.91777 2.618L11.4237 5.054L6.03385 10.43L2.63193 11.382ZM9.67375 1.862L11.0177 0.518C11.3537 0.172667 11.7644 0 12.2497 0C12.735 0 13.1457 0.172667 13.4817 0.518C13.8176 0.863333 13.9903 1.274 13.9996 1.75C14.009 2.226 13.8363 2.64133 13.4817 2.996L12.1797 4.298L9.67375 1.862Z" fill="#002c8a" fill-opacity="0.2"/>
</svg>
