<svg width="28" height="28" viewBox="0 0 28 28" fill="none" xmlns="http://www.w3.org/2000/svg">
<g clip-path="url(#clip0_2207_3041)">
<path d="M25.375 0H2.625C1.17534 0 0 1.17534 0 2.625V25.375C0 26.8246 1.17534 28 2.625 28H25.375C26.8247 28 28 26.8246 28 25.375V2.625C28 1.17534 26.8247 0 25.375 0ZM24.3176 1.91406C24.8913 1.91406 25.3566 2.37929 25.3566 2.95312C25.3566 3.52691 24.8913 3.99219 24.3176 3.99219C23.7438 3.99219 23.2785 3.52691 23.2785 2.95312C23.2785 2.37929 23.7438 1.91406 24.3176 1.91406ZM20.4621 1.91406C21.0359 1.91406 21.5012 2.37929 21.5012 2.95312C21.5012 3.52691 21.0359 3.99219 20.4621 3.99219C19.8883 3.99219 19.423 3.52691 19.423 2.95312C19.423 2.37929 19.8883 1.91406 20.4621 1.91406ZM16.6066 1.91406C17.1804 1.91406 17.6457 2.37929 17.6457 2.95312C17.6457 3.52691 17.1804 3.99219 16.6066 3.99219C16.0328 3.99219 15.5676 3.52691 15.5676 2.95312C15.5676 2.37929 16.0328 1.91406 16.6066 1.91406ZM25.8125 25.375C25.8125 25.616 25.6164 25.8125 25.375 25.8125H2.625C2.38361 25.8125 2.1875 25.616 2.1875 25.375V5.6875H25.8125V25.375Z" fill="black"/>
<rect x="4.02734" y="8.56836" width="6.53333" height="14.4667" fill="#3E3E3E"/>
</g>
<defs>
<clipPath id="clip0_2207_3041">
<rect width="28" height="28" fill="white"/>
</clipPath>
</defs>
</svg>
