<svg width="19" height="19" viewBox="0 0 19 19" fill="none" xmlns="http://www.w3.org/2000/svg">
<path d="M16.8377 0.229674C16.6346 0.102261 16.4022 0.0251782 16.1612 0.00520241C15.9201 -0.0147734 15.6777 0.0229692 15.4552 0.115112L8.1648 2.89896C7.9922 2.96707 7.80762 3.00208 7.62127 3.00207H2.95398C2.56226 3.00207 2.18658 3.15294 1.90959 3.4215C1.6326 3.69005 1.47699 4.0543 1.47699 4.43409V4.54865H0V7.98551H1.47699V8.13444C1.48625 8.50824 1.64593 8.86372 1.92193 9.12488C2.19792 9.38605 2.56832 9.5322 2.95398 9.53209L4.72637 13.1752C4.84638 13.4205 5.03533 13.628 5.27151 13.7739C5.50769 13.9198 5.78152 13.9982 6.06157 14H6.80597C7.19564 13.997 7.56829 13.8448 7.84273 13.5765C8.11717 13.3083 8.27116 12.9458 8.27114 12.568V9.66957L15.4552 12.4534C15.6319 12.5216 15.8204 12.5566 16.0106 12.5565C16.3056 12.5519 16.593 12.4644 16.8377 12.3045C17.032 12.1773 17.1923 12.007 17.3053 11.8078C17.4184 11.6086 17.4808 11.3861 17.4876 11.1589V1.40966C17.4865 1.17655 17.4267 0.947211 17.3135 0.741575C17.2002 0.535938 17.0369 0.360217 16.8377 0.229674ZM6.79415 4.43409V8.13444H2.95398V4.43409H6.79415ZM6.79415 12.568H6.04975L4.59639 9.53209H6.79415V12.568ZM8.70833 8.30628C8.56804 8.23677 8.42176 8.17927 8.27114 8.13444V4.3539C8.42031 4.32406 8.56658 4.2819 8.70833 4.22788L16.0106 1.40966V11.1245L8.70833 8.30628ZM17.523 4.83506V7.6991C17.9147 7.6991 18.2904 7.54823 18.5674 7.27967C18.8444 7.01112 19 6.64688 19 6.26708C19 5.88728 18.8444 5.52304 18.5674 5.25449C18.2904 4.98593 17.9147 4.83506 17.523 4.83506Z" fill="#002c8a"/>
<path d="M16.8377 0.229674C16.6346 0.102261 16.4022 0.0251782 16.1612 0.00520241C15.9201 -0.0147734 15.6777 0.0229692 15.4552 0.115112L8.1648 2.89896C7.9922 2.96707 7.80762 3.00208 7.62127 3.00207H2.95398C2.56226 3.00207 2.18658 3.15294 1.90959 3.4215C1.6326 3.69005 1.47699 4.0543 1.47699 4.43409V4.54865H0V7.98551H1.47699V8.13444C1.48625 8.50824 1.64593 8.86372 1.92193 9.12488C2.19792 9.38605 2.56832 9.5322 2.95398 9.53209L4.72637 13.1752C4.84638 13.4205 5.03533 13.628 5.27151 13.7739C5.50769 13.9198 5.78152 13.9982 6.06157 14H6.80597C7.19564 13.997 7.56829 13.8448 7.84273 13.5765C8.11717 13.3083 8.27116 12.9458 8.27114 12.568V9.66957L15.4552 12.4534C15.6319 12.5216 15.8204 12.5566 16.0106 12.5565C16.3056 12.5519 16.593 12.4644 16.8377 12.3045C17.032 12.1773 17.1923 12.007 17.3053 11.8078C17.4184 11.6086 17.4808 11.3861 17.4876 11.1589V1.40966C17.4865 1.17655 17.4267 0.947211 17.3135 0.741575C17.2002 0.535938 17.0369 0.360217 16.8377 0.229674ZM6.79415 4.43409V8.13444H2.95398V4.43409H6.79415ZM6.79415 12.568H6.04975L4.59639 9.53209H6.79415V12.568ZM8.70833 8.30628C8.56804 8.23677 8.42176 8.17927 8.27114 8.13444V4.3539C8.42031 4.32406 8.56658 4.2819 8.70833 4.22788L16.0106 1.40966V11.1245L8.70833 8.30628ZM17.523 4.83506V7.6991C17.9147 7.6991 18.2904 7.54823 18.5674 7.27967C18.8444 7.01112 19 6.64688 19 6.26708C19 5.88728 18.8444 5.52304 18.5674 5.25449C18.2904 4.98593 17.9147 4.83506 17.523 4.83506Z" fill="#002c8a" fill-opacity="0.2"/>
</svg>
