<svg width="61" height="61" viewBox="0 0 61 61" fill="none" xmlns="http://www.w3.org/2000/svg">
<path d="M20.7227 43.1558V50.6558C20.7227 51.3188 20.986 51.9547 21.4549 52.4235C21.9237 52.8924 22.5596 53.1558 23.2227 53.1558H50.7227C51.3857 53.1558 52.0216 52.8924 52.4904 52.4235C52.9593 51.9547 53.2227 51.3188 53.2227 50.6558V10.6558C53.2227 9.99272 52.9593 9.35684 52.4904 8.88799C52.0216 8.41915 51.3857 8.15576 50.7227 8.15576H23.2227C22.5596 8.15576 21.9237 8.41915 21.4549 8.88799C20.986 9.35684 20.7227 9.99272 20.7227 10.6558V18.1558" stroke="#002c8a" stroke-width="5" stroke-linecap="round" stroke-linejoin="round"/>
<path d="M33.2227 30.6558C33.2227 33.128 32.4895 35.5448 31.116 37.6004C29.7425 39.656 27.7903 41.2582 25.5062 42.2043C23.2221 43.1504 20.7088 43.3979 18.284 42.9156C15.8593 42.4333 13.632 41.2428 11.8838 39.4946C10.1357 37.7464 8.94516 35.5192 8.46285 33.0944C7.98053 30.6696 8.22807 28.1563 9.17417 25.8722C10.1203 23.5881 11.7224 21.6359 13.778 20.2624C15.8336 18.8889 18.2504 18.1558 20.7227 18.1558M33.2227 30.6558C33.2227 27.3406 31.9057 24.1611 29.5615 21.8169C27.2173 19.4727 24.0379 18.1558 20.7227 18.1558M33.2227 30.6558H20.7227V18.1558" stroke="#002c8a" stroke-width="5" stroke-linecap="round" stroke-linejoin="round"/>
</svg>
