<svg width="30" height="25" viewBox="0 0 30 25" fill="none" xmlns="http://www.w3.org/2000/svg">
<path d="M22.7273 8.26C24.2335 8.26 25.4545 6.97058 25.4545 5.38C25.4545 3.78942 24.2335 2.5 22.7273 2.5C21.221 2.5 20 3.78942 20 5.38C20 6.97058 21.221 8.26 22.7273 8.26Z" stroke="#002c8a" stroke-width="1.5"/>
<path d="M8.75 14.5H20" stroke="#002c8a" stroke-width="1.5" stroke-linecap="round"/>
<path d="M8.75 18H16.25" stroke="#002c8a" stroke-width="1.5" stroke-linecap="round"/>
<path d="M2.5 12.5C2.5 17.214 2.5 19.5711 4.33059 21.0355C6.16116 22.5 9.10744 22.5 15 22.5C20.8925 22.5 23.8389 22.5 25.6694 21.0355C27.5 19.5711 27.5 17.214 27.5 12.5V11M16.875 2.5H15C9.10744 2.5 6.16116 2.5 4.33059 3.96447C3.11341 4.93821 2.70555 6.30655 2.56887 8.5" stroke="#002c8a" stroke-width="1.5" stroke-linecap="round"/>
</svg>
