<svg width="81" height="81" viewBox="0 0 81 81" fill="none" xmlns="http://www.w3.org/2000/svg">
<path d="M55.2886 37.8955L55.6716 37.5166C55.8222 37.3673 55.9269 37.1781 55.9732 36.9712C56.0195 36.7643 56.0056 36.5485 55.9331 36.3493C55.8607 36.1501 55.7327 35.9758 55.5642 35.8471C55.3958 35.7184 55.194 35.6407 54.9828 35.6231L46.1106 34.7439L41.5077 25.6143C41.4131 25.4293 41.2693 25.2741 41.0921 25.1657C40.9148 25.0574 40.7112 25 40.5034 25C40.2958 25 40.092 25.0574 39.9149 25.1657C39.7377 25.2741 39.5937 25.4293 39.4991 25.6143L34.8894 34.7439L26.0172 35.6231C25.806 35.6407 25.6042 35.7184 25.4358 35.8471C25.2674 35.9758 25.1393 36.1501 25.0669 36.3493C24.9944 36.5485 24.9805 36.7643 25.0268 36.9712C25.0732 37.1781 25.1778 37.3673 25.3283 37.5166L32.63 44.7555L29.9353 54.5921C29.8799 54.8007 29.886 55.021 29.9527 55.2263C30.0195 55.4315 30.1441 55.6131 30.3116 55.7493C30.4791 55.8854 30.6824 55.9702 30.8969 55.9935C31.1115 56.0167 31.3282 55.9776 31.521 55.8806L36.5535 53.3873" stroke="#002c8a" stroke-width="2" stroke-linecap="round" stroke-linejoin="round"/>
<path d="M47.5 56C52.1944 56 56 52.1944 56 47.5C56 42.8056 52.1944 39 47.5 39C42.8056 39 39 42.8056 39 47.5C39 52.1944 42.8056 56 47.5 56Z" stroke="#002c8a" stroke-width="2" stroke-linecap="round" stroke-linejoin="round"/>
<path d="M44 48.4785L45.9183 50.6791C46.0157 50.7903 46.1329 50.8761 46.2616 50.931C46.3904 50.9859 46.528 51.0085 46.6651 50.9972C46.8021 50.9859 46.9355 50.9411 47.0562 50.8657C47.1768 50.7903 47.282 50.6861 47.3646 50.5603L51 45" stroke="#002c8a" stroke-width="2" stroke-linecap="round" stroke-linejoin="round"/>
</svg>
