<svg width="14" height="14" viewBox="0 0 14 14" fill="none" xmlns="http://www.w3.org/2000/svg">
<path d="M11.5566 10.9822V7.06417C11.5561 6.02115 11.2105 5.00874 10.5756 4.19039C9.94062 3.37204 9.05343 2.7955 8.05721 2.55385V2.20946C8.05561 1.92297 7.94275 1.64876 7.74327 1.44675C7.5438 1.24474 7.27394 1.13135 6.99264 1.13135C6.71134 1.13135 6.44147 1.24474 6.242 1.44675C6.04253 1.64876 5.92966 1.92297 5.92807 2.20946V2.5577C4.93524 2.80209 4.05189 3.37928 3.41992 4.19654C2.78795 5.01381 2.44404 6.0237 2.44343 7.064V10.9822L1 12.4524V13.1313H13V12.4523L11.5566 10.9822Z" stroke="#606060" stroke-linecap="round" stroke-linejoin="round"/>
</svg>
