<svg width="56" height="59" viewBox="0 0 56 59" fill="none" xmlns="http://www.w3.org/2000/svg">
<mask id="mask0_1977_1443" style="mask-type:luminance" maskUnits="userSpaceOnUse" x="0" y="0" width="56" height="59">
<path d="M56 0H0V59H56V0Z" fill="white"/>
</mask>
<g mask="url(#mask0_1977_1443)">
<path d="M20.0377 13.9083C19.3633 13.9083 18.8164 14.455 18.8164 15.1296C18.8164 16.6111 17.611 17.8164 16.1294 17.8164C14.6479 17.8164 13.4426 16.6111 13.4426 15.1296C13.4426 13.648 14.6479 12.4426 16.1294 12.4426C16.8039 12.4426 17.3508 11.896 17.3508 11.2213C17.3508 10.5468 16.804 10 16.1294 10C13.301 10 11 12.3012 11 15.1295C11 17.9576 13.3013 20.2589 16.1294 20.2589C18.9577 20.2589 21.2588 17.9576 21.2588 15.1295C21.2591 14.455 20.7122 13.9083 20.0377 13.9083Z" fill="#002c8a"/>
<path d="M20.0377 28.2378C19.3633 28.2378 18.8164 28.7846 18.8164 29.4591C18.8164 30.9407 17.611 32.1461 16.1294 32.1461C14.6479 32.1461 13.4426 30.9407 13.4426 29.4591C13.4426 27.9777 14.6479 26.7723 16.1294 26.7723C16.8039 26.7723 17.3508 26.2255 17.3508 25.5509C17.3508 24.8764 16.804 24.3296 16.1294 24.3296C13.301 24.3296 11 26.6307 11 29.459C11 32.2873 13.3013 34.5884 16.1294 34.5884C18.9577 34.5884 21.2588 32.2873 21.2588 29.459C21.2591 28.7847 20.7122 28.2378 20.0377 28.2378Z" fill="#002c8a"/>
<path d="M46.0921 16.5142H25.2487C24.5743 16.5142 24.0273 17.0609 24.0273 17.7355C24.0273 18.4101 24.5741 18.9569 25.2487 18.9569H46.092C46.7664 18.9569 47.3133 18.4101 47.3133 17.7355C47.3133 17.0609 46.7666 16.5142 46.0921 16.5142Z" fill="#002c8a"/>
<path d="M46.0843 31.2759H25.2409C24.5664 31.2759 24.0195 31.8227 24.0195 32.4972C24.0195 33.1718 24.5663 33.7186 25.2409 33.7186H46.0842C46.7586 33.7186 47.3055 33.1718 47.3055 32.4972C47.3055 31.8227 46.7587 31.2759 46.0843 31.2759Z" fill="#002c8a"/>
<path d="M46.0843 46.2759H25.2409C24.5664 46.2759 24.0195 46.8227 24.0195 47.4972C24.0195 48.1718 24.5663 48.7186 25.2409 48.7186H46.0842C46.7586 48.7186 47.3055 48.1718 47.3055 47.4972C47.3055 46.8227 46.7587 46.2759 46.0843 46.2759Z" fill="#002c8a"/>
<path d="M40.8812 11.3032H25.2487C24.5743 11.3032 24.0273 11.85 24.0273 12.5246C24.0273 13.1991 24.5741 13.7459 25.2487 13.7459H40.8812C41.5556 13.7459 42.1025 13.1991 42.1025 12.5246C42.1025 11.85 41.5558 11.3032 40.8812 11.3032Z" fill="#002c8a"/>
<path d="M40.8538 26H25.2214C24.5469 26 24 26.5468 24 27.2213C24 27.8959 24.5468 28.4427 25.2214 28.4427H40.8538C41.5283 28.4427 42.0752 27.8959 42.0752 27.2213C42.0752 26.5468 41.5284 26 40.8538 26Z" fill="#002c8a"/>
<path d="M40.8538 41H25.2214C24.5469 41 24 41.5468 24 42.2213C24 42.8959 24.5468 43.4427 25.2214 43.4427H40.8538C41.5283 43.4427 42.0752 42.8959 42.0752 42.2213C42.0752 41.5468 41.5284 41 40.8538 41Z" fill="#002c8a"/>
<path d="M20.0377 42.5679C19.3633 42.5679 18.8164 43.1146 18.8164 43.7892C18.8164 45.2707 17.611 46.476 16.1294 46.476C14.6479 46.476 13.4426 45.2707 13.4426 43.7892C13.4426 42.3076 14.6479 41.1022 16.1294 41.1022C16.8039 41.1022 17.3508 40.5556 17.3508 39.8809C17.3508 39.2063 16.804 38.6597 16.1294 38.6597C13.301 38.6597 11 40.9608 11 43.7891C11 46.6172 13.3013 48.9185 16.1294 48.9185C18.9577 48.9185 21.2588 46.6172 21.2588 43.7891C21.2591 43.1146 20.7122 42.5679 20.0377 42.5679Z" fill="#002c8a"/>
<rect x="3" y="2" width="51" height="55" rx="4" stroke="#002c8a" stroke-width="2"/>
</g>
</svg>
