<svg width="38" height="38" viewBox="0 0 38 38" fill="none" xmlns="http://www.w3.org/2000/svg">
<path d="M30.462 7.94922C32.7777 7.94922 34.6711 9.75692 34.8082 12.0381L34.8161 12.3034V25.7698C34.8161 28.0854 33.0084 29.9789 30.7272 30.116L30.462 30.1239H7.53874C5.22306 30.1239 3.3296 28.3162 3.19252 26.035L3.18457 25.7698V12.3034C3.18457 9.98771 4.99227 8.09425 7.27349 7.95717L7.53874 7.94922H30.462ZM32.4398 17.4081H5.55799L5.55957 25.7698C5.55957 26.7945 6.33837 27.6374 7.33638 27.7387L7.53874 27.7489H30.462C31.4867 27.7489 32.3296 26.9701 32.4309 25.9721L32.4411 25.7698L32.4398 17.4081ZM28.9008 22.9581C29.5567 22.9581 30.0883 23.4898 30.0883 24.1456C30.0883 24.7468 29.6416 25.2436 29.062 25.3223L28.9008 25.3331H24.9425C24.2867 25.3331 23.755 24.8014 23.755 24.1456C23.755 23.5444 24.2018 23.0476 24.7814 22.9689L24.9425 22.9581H28.9008ZM30.462 10.3242H7.53874C6.51399 10.3242 5.67114 11.103 5.56979 12.101L5.55957 12.3034L5.55799 15.0331H32.4398L32.4411 12.3034C32.4411 11.2786 31.6623 10.4358 30.6643 10.3344L30.462 10.3242Z" fill="#10108A"/>
</svg>
