<svg width="23" height="23" viewBox="0 0 23 23" fill="none" xmlns="http://www.w3.org/2000/svg">
<g clip-path="url(#clip0_86_785)">
<path d="M16.2223 1.77776C13.8519 -0.592573 9.99544 -0.592573 7.6253 1.77768C5.53652 3.86657 5.28915 7.11016 6.88215 9.47291L0.340716 16.0145C-0.113743 16.4689 -0.1134 17.2053 0.340716 17.6594C0.79466 18.1134 1.53116 18.1137 1.98554 17.6594L8.52715 11.1178C10.8899 12.7106 14.1333 12.4634 16.2222 10.3745C18.5925 8.00424 18.5927 4.1481 16.2223 1.77776ZM15.2509 8.9822C15.1217 8.63702 15.02 8.39471 15.02 8.39471C14.9467 8.21938 14.7697 8.12283 14.6018 8.03797L13.4635 7.51387L12.9165 7.05264L12.0376 7.92676L12.4172 10.4641C12.1305 10.4961 11.8413 10.5001 11.5541 10.4761L11.9353 7.92676L11.0566 7.05264L10.5096 7.51387L9.37118 8.03801C9.20151 8.1128 9.04341 8.1965 8.95306 8.39475C8.95306 8.39475 8.8316 8.68404 8.68555 9.08098C7.07857 7.35071 7.11641 4.63581 8.7998 2.95243C10.5225 1.22992 13.3253 1.23001 15.0475 2.95243C16.6991 4.60388 16.7669 7.24884 15.2509 8.9822Z" fill="#002c8a"/>
<path d="M16.2223 1.77776C13.8519 -0.592573 9.99544 -0.592573 7.6253 1.77768C5.53652 3.86657 5.28915 7.11016 6.88215 9.47291L0.340716 16.0145C-0.113743 16.4689 -0.1134 17.2053 0.340716 17.6594C0.79466 18.1134 1.53116 18.1137 1.98554 17.6594L8.52715 11.1178C10.8899 12.7106 14.1333 12.4634 16.2222 10.3745C18.5925 8.00424 18.5927 4.1481 16.2223 1.77776ZM15.2509 8.9822C15.1217 8.63702 15.02 8.39471 15.02 8.39471C14.9467 8.21938 14.7697 8.12283 14.6018 8.03797L13.4635 7.51387L12.9165 7.05264L12.0376 7.92676L12.4172 10.4641C12.1305 10.4961 11.8413 10.5001 11.5541 10.4761L11.9353 7.92676L11.0566 7.05264L10.5096 7.51387L9.37118 8.03801C9.20151 8.1128 9.04341 8.1965 8.95306 8.39475C8.95306 8.39475 8.8316 8.68404 8.68555 9.08098C7.07857 7.35071 7.11641 4.63581 8.7998 2.95243C10.5225 1.22992 13.3253 1.23001 15.0475 2.95243C16.6991 4.60388 16.7669 7.24884 15.2509 8.9822Z" fill="#002c8a" fill-opacity="0.2"/>
<path d="M11.9543 6.96416C13.0797 6.96416 13.9195 5.91558 13.9385 4.15728C13.9507 2.93727 13.3695 2.20703 11.9543 2.20703C10.539 2.20703 9.9577 2.93727 9.96991 4.15728C9.98916 5.91558 10.8289 6.96416 11.9543 6.96416Z" fill="#002c8a"/>
<path d="M11.9543 6.96416C13.0797 6.96416 13.9195 5.91558 13.9385 4.15728C13.9507 2.93727 13.3695 2.20703 11.9543 2.20703C10.539 2.20703 9.9577 2.93727 9.96991 4.15728C9.98916 5.91558 10.8289 6.96416 11.9543 6.96416Z" fill="#002c8a" fill-opacity="0.2"/>
</g>
<defs>
<clipPath id="clip0_86_785">
<rect width="23" height="23" fill="white"/>
</clipPath>
</defs>
</svg>
