<svg width="25" height="25" viewBox="0 0 25 25" fill="none" xmlns="http://www.w3.org/2000/svg">
<path opacity="0.5" d="M16.2044 15.1539L15.7299 15.6533C15.7299 15.6533 14.6022 16.8406 11.5241 13.5999C8.44596 10.3592 9.57364 9.17195 9.57364 9.17195L9.87241 8.85741C10.6084 8.08254 10.6778 6.83851 10.0357 5.93031L8.72214 4.07251C7.92737 2.94844 6.39162 2.79995 5.48067 3.759L3.84567 5.48035C3.39399 5.9559 3.0913 6.57234 3.12801 7.25619C3.22191 9.00569 3.96949 12.7698 8.141 17.1617C12.5647 21.819 16.7154 22.0041 18.4128 21.8366C18.9497 21.7835 19.4166 21.4941 19.7928 21.0979L21.2726 19.54C22.2715 18.4884 21.9898 16.6856 20.7118 15.95L18.7217 14.8045C17.8825 14.3215 16.8602 14.4633 16.2044 15.1539Z" fill="#1C274C"/>
<path d="M13.8126 1.95832C13.8816 1.53239 14.2842 1.24347 14.7101 1.31242C14.7365 1.31747 14.8214 1.33332 14.8657 1.34322C14.9547 1.36302 15.0787 1.39349 15.2332 1.43852C15.5424 1.52856 15.9743 1.67691 16.4926 1.91454C17.5304 2.39033 18.9115 3.22262 20.3446 4.65575C21.7777 6.08887 22.61 7.46992 23.0857 8.50772C23.3234 9.02607 23.4718 9.45795 23.5618 9.76709C23.6068 9.92169 23.6373 10.0457 23.6571 10.1345C23.667 10.179 23.6743 10.2147 23.6793 10.241L23.6853 10.2735C23.7542 10.6994 23.4679 11.1188 23.042 11.1878C22.6173 11.2565 22.2172 10.9689 22.1466 10.5451C22.1444 10.5336 22.1383 10.5031 22.132 10.4742C22.1191 10.4165 22.0969 10.325 22.0617 10.204C21.9912 9.96203 21.8688 9.60231 21.6654 9.15889C21.2594 8.27315 20.5292 7.05005 19.2397 5.7606C17.9503 4.47116 16.7272 3.74097 15.8415 3.33489C15.398 3.1316 15.0383 3.00918 14.7963 2.93868C14.6753 2.90344 14.5232 2.86853 14.4655 2.85569C14.0416 2.78503 13.7439 2.38303 13.8126 1.95832Z" fill="#1C274C"/>
<path fill-rule="evenodd" clip-rule="evenodd" d="M14.0478 5.55121C14.1664 5.13633 14.5988 4.8961 15.0137 5.01463L14.7991 5.76583C15.0137 5.01463 15.0137 5.01463 15.0137 5.01463L15.0152 5.01507L15.0168 5.01553L15.0202 5.01654L15.0283 5.01896L15.049 5.02537C15.0646 5.03039 15.0843 5.03694 15.1076 5.04524C15.1544 5.06184 15.2163 5.08545 15.2921 5.11795C15.4439 5.18299 15.6512 5.28343 15.9059 5.43417C16.4157 5.73592 17.1118 6.23714 17.9295 7.05482C18.7472 7.87251 19.2483 8.56853 19.5501 9.07839C19.7008 9.33309 19.8013 9.54045 19.8664 9.69221C19.8989 9.76804 19.9225 9.82987 19.9391 9.87666C19.9474 9.90004 19.9539 9.91965 19.959 9.93536L19.9653 9.95598L19.9677 9.96405L19.9688 9.96752L19.9692 9.96912C19.9692 9.96912 19.9697 9.97062 19.2184 10.1852L19.9697 9.97062C20.0882 10.3855 19.8479 10.8179 19.4331 10.9364C19.0218 11.0539 18.5931 10.8188 18.4703 10.4104L18.4665 10.3992C18.4609 10.3835 18.4495 10.3527 18.4302 10.3077C18.3917 10.2178 18.3218 10.0707 18.2055 9.87421C17.9732 9.48177 17.5538 8.8888 16.8246 8.15968C16.0955 7.43056 15.5025 7.01108 15.1101 6.77882C14.9137 6.66255 14.7666 6.59265 14.6766 6.55411C14.6316 6.53483 14.6007 6.52333 14.5851 6.51778L14.5739 6.51394C14.1655 6.39114 13.9303 5.96255 14.0478 5.55121Z" fill="#1C274C"/>
</svg>
