<svg width="33" height="33" viewBox="0 0 33 33" fill="none" xmlns="http://www.w3.org/2000/svg">
<path d="M31.2886 13.8955L31.6716 13.5166C31.8222 13.3673 31.9269 13.1781 31.9732 12.9712C32.0195 12.7643 32.0056 12.5485 31.9331 12.3493C31.8607 12.1501 31.7327 11.9758 31.5642 11.8471C31.3958 11.7184 31.194 11.6407 30.9828 11.6231L22.1106 10.7439L17.5077 1.61426C17.4131 1.42932 17.2693 1.27412 17.0921 1.16573C16.9148 1.05735 16.7112 1 16.5034 1C16.2958 1 16.092 1.05735 15.9149 1.16573C15.7377 1.27412 15.5937 1.42932 15.4991 1.61426L10.8894 10.7439L2.01718 11.6231C1.80597 11.6407 1.60421 11.7184 1.43579 11.8471C1.26736 11.9758 1.13934 12.1501 1.06686 12.3493C0.994384 12.5485 0.980494 12.7643 1.02684 12.9712C1.07318 13.1781 1.17781 13.3673 1.32835 13.5166L8.63003 20.7555L5.93529 30.5921C5.87991 30.8007 5.88596 31.021 5.95272 31.2263C6.01948 31.4315 6.14412 31.6131 6.31162 31.7493C6.47913 31.8854 6.68238 31.9702 6.89694 31.9935C7.11149 32.0167 7.32819 31.9776 7.52101 31.8806L12.5535 29.3873" stroke="#50B6FF" stroke-width="2" stroke-linecap="round" stroke-linejoin="round"/>
<path d="M23.5 32C28.1944 32 32 28.1944 32 23.5C32 18.8056 28.1944 15 23.5 15C18.8056 15 15 18.8056 15 23.5C15 28.1944 18.8056 32 23.5 32Z" stroke="#50B6FF" stroke-width="2" stroke-linecap="round" stroke-linejoin="round"/>
<path d="M20 24.4785L21.9183 26.6791C22.0157 26.7903 22.1329 26.8761 22.2616 26.931C22.3904 26.9859 22.528 27.0085 22.6651 26.9972C22.8021 26.9859 22.9355 26.9411 23.0562 26.8657C23.1768 26.7903 23.282 26.6861 23.3646 26.5603L27 21" stroke="#50B6FF" stroke-width="2" stroke-linecap="round" stroke-linejoin="round"/>
</svg>
