<svg width="42" height="42" viewBox="0 0 42 42" fill="none" xmlns="http://www.w3.org/2000/svg">
<path d="M31.63 2.625H11.5986V39.375H11.6931H39.043V10.353L31.7206 2.7195L31.63 2.625Z" fill="#070444"/>
<path d="M29.61 4.58398H2.95703V14.8792H29.61V4.58398Z" fill="#5BC3F6"/>
<path d="M31.6299 2.625V10.353H39.0429L31.6299 2.625Z" fill="#5BC3F6"/>
<path d="M9.31885 6.54566C9.85619 6.44545 10.4025 6.40146 10.949 6.41441C11.23 6.38937 11.5132 6.42211 11.7811 6.51059C12.0491 6.59907 12.296 6.74143 12.5069 6.92891C12.8923 7.36435 13.0941 7.93211 13.07 8.51309C13.0988 9.08706 12.9333 9.65398 12.6001 10.1222C12.3944 10.3518 12.1396 10.5321 11.8547 10.6498C11.5698 10.7675 11.262 10.8195 10.9542 10.8021C10.8463 10.8019 10.7385 10.7953 10.6313 10.7824V13.0137H9.31885V6.54566ZM10.6313 9.44103C10.7305 9.45467 10.8305 9.46125 10.9306 9.46072C11.0491 9.46552 11.1673 9.44438 11.2768 9.39879C11.3863 9.3532 11.4846 9.28426 11.5647 9.19677C11.6448 9.10928 11.7048 9.00536 11.7406 8.89226C11.7764 8.77917 11.7871 8.65962 11.7719 8.54197C11.7859 8.43765 11.7768 8.33153 11.7452 8.23114C11.7135 8.13075 11.6602 8.03857 11.5889 7.96114C11.5176 7.8837 11.4301 7.82293 11.3327 7.78312C11.2352 7.74332 11.1302 7.72547 11.0251 7.73084C10.8927 7.72687 10.7603 7.74011 10.6313 7.77022V9.44103Z" fill="#070444"/>
<path d="M14.5466 11.2595C14.9262 11.5135 15.3698 11.655 15.8263 11.6677C16.2791 11.6677 16.4996 11.4629 16.4996 11.1335C16.4996 10.8041 16.2752 10.6321 15.724 10.3696C15.319 10.2235 14.969 9.95606 14.7217 9.60373C14.4744 9.2514 14.3417 8.83135 14.3419 8.40087C14.3218 8.13343 14.3583 7.86477 14.4491 7.61239C14.5398 7.36001 14.6827 7.12959 14.8684 6.93615C15.0542 6.74272 15.2787 6.5906 15.5272 6.48973C15.7756 6.38886 16.0426 6.3415 16.3106 6.35074C16.7798 6.33751 17.2434 6.45522 17.6494 6.69068L17.3777 8.09112C17.0548 7.89064 16.6829 7.78301 16.3028 7.78005C15.9011 7.78005 15.6806 7.9743 15.6806 8.26568C15.6806 8.59643 15.9431 8.73162 16.5653 9.04268C16.9581 9.19593 17.2934 9.46801 17.5242 9.82094C17.755 10.1739 17.8699 10.5901 17.8528 11.0114C17.8736 11.2925 17.8335 11.5748 17.7353 11.839C17.6371 12.1032 17.4831 12.3431 17.2838 12.5424C17.0845 12.7417 16.8446 12.8957 16.5804 12.9939C16.3162 13.0921 16.0339 13.1322 15.7528 13.1114C15.2433 13.1103 14.7438 12.9691 14.3091 12.7032L14.5466 11.2595Z" fill="#070444"/>
<path d="M20.5013 11.7855H20.37V7.55272H20.3884C20.6722 7.5207 20.9591 7.57225 21.214 7.70103C21.4015 7.85102 21.5542 8.04001 21.6615 8.2549C21.7771 8.48035 21.8438 8.7277 21.8571 8.98072C21.8702 9.2839 21.8571 9.52803 21.8571 9.73934C21.8625 9.97604 21.8471 10.2128 21.8111 10.4468C21.7689 10.6887 21.6901 10.9228 21.5775 11.1411C21.4507 11.3431 21.2791 11.5133 21.0761 11.6385C20.906 11.7484 20.7045 11.7996 20.5026 11.7842M20.7546 6.34915C20.601 6.34915 20.4527 6.36097 20.3477 6.3649L20.0235 6.37409H18.9473V13.0075H20.2125C20.6972 13.0209 21.1797 12.9389 21.6326 12.766C21.9983 12.6217 22.3222 12.3885 22.575 12.0874C22.8197 11.7842 22.9953 11.4312 23.0895 11.0532C23.1982 10.6242 23.2512 10.1831 23.247 9.74065C23.2737 9.21875 23.2331 8.69558 23.1263 8.18403C23.0236 7.80709 22.8324 7.46015 22.5685 7.17209C22.3631 6.9383 22.1115 6.74969 21.8295 6.61822C21.5879 6.50596 21.3336 6.42312 21.0722 6.37147C20.9681 6.35422 20.8627 6.34632 20.7572 6.34784" fill="#070444"/>
<path d="M20.9999 25.7926C20.6056 25.8037 20.2111 25.7901 19.8186 25.752V21.1713C19.9643 21.1503 20.4749 21.1306 21.1836 21.1306C22.8899 21.1306 23.6419 21.8473 23.6419 23.4813C23.6419 25.5236 22.4384 25.7926 20.9999 25.7926ZM21.1836 19.1895C19.8002 19.1895 18.4339 19.2105 17.7422 19.2301C17.6517 19.2301 17.6333 19.2708 17.6333 19.3732V32.4063C17.6333 32.5087 17.6701 32.5494 17.7646 32.5494H19.6874C19.7779 32.5494 19.8186 32.5087 19.8186 32.3853V27.7338H20.9474C23.6236 27.7338 25.8272 26.8702 25.8272 23.6231C25.8089 21.254 24.7536 19.1895 21.1836 19.1895Z" fill="#5BC3F6"/>
<path d="M30.2859 22.5978C29.8673 22.547 29.4427 22.5858 29.0403 22.7116C28.6379 22.8374 28.2668 23.0473 27.9516 23.3275C27.6365 23.6076 27.3845 23.9515 27.2124 24.3365C27.0404 24.7214 26.9521 25.1385 26.9535 25.5601C26.9535 27.0511 27.6097 27.8478 29.484 28.7101C30.7965 29.3021 31.1233 29.6092 31.1233 30.1395C31.1233 30.5883 30.8319 31.0582 29.9945 31.0582C28.9228 30.9952 27.8951 30.6105 27.0454 29.9544C27.0326 29.9444 27.0169 29.9388 27.0007 29.9386C26.9574 29.9386 26.918 29.9806 26.918 30.0568V31.9363C26.9139 31.9774 26.9221 32.0187 26.9414 32.0552C26.9608 32.0916 26.9906 32.1215 27.027 32.141C27.8711 32.6731 28.8511 32.9498 29.8489 32.9377C30.287 32.9909 30.7314 32.9481 31.1513 32.8122C31.5712 32.6764 31.9566 32.4507 32.2805 32.151C32.6045 31.8513 32.8593 31.4846 33.0273 31.0765C33.1953 30.6684 33.2725 30.2286 33.2535 29.7877C33.2535 28.3164 32.4529 27.5565 30.5773 26.7033C29.2123 26.0904 28.9747 25.8253 28.9747 25.3344C28.9747 24.9406 29.211 24.476 30.1035 24.476C31.0014 24.502 31.8757 24.77 32.634 25.2517C32.6539 25.2662 32.6776 25.2744 32.7022 25.2753C32.7587 25.2753 32.798 25.2189 32.798 25.1283V23.4562C32.8036 23.4068 32.7964 23.3568 32.7774 23.3109C32.7583 23.265 32.728 23.2247 32.6891 23.1937C31.9608 22.7714 31.127 22.566 30.2859 22.6018" fill="#5BC3F6"/>
</svg>
