<svg width="30" height="25" viewBox="0 0 30 25" fill="none" xmlns="http://www.w3.org/2000/svg">
<g clip-path="url(#clip0_205_2353)">
<path d="M22.2617 7.22941C22.1728 7.49308 21.8849 7.66555 21.5717 7.66555C21.5076 7.66555 21.4423 7.65826 21.3774 7.64308L15.636 6.29951C15.2547 6.21023 15.0324 5.88034 15.1395 5.56253C15.2466 5.24483 15.6424 5.05945 16.0239 5.14873L21.7653 6.4923C22.1464 6.58171 22.3689 6.91159 22.2617 7.22941ZM12.068 21.7854C11.0044 21.7854 10.1391 22.5065 10.1391 23.3928C10.1391 24.279 11.0044 25 12.068 25C13.1315 25 13.9967 24.279 13.9967 23.3928C13.9967 22.5065 13.1315 21.7854 12.068 21.7854ZM23.7745 21.7854C22.711 21.7854 21.8456 22.5065 21.8456 23.3928C21.8456 24.279 22.711 25 23.7745 25C24.838 25 25.7033 24.279 25.7033 23.3928C25.7032 22.5065 24.838 21.7854 23.7745 21.7854ZM28.3184 8.69991L26.4544 17.191C26.3921 17.4749 26.0953 17.6811 25.7491 17.6811H10.3548L10.7507 19.2363C10.8491 19.6227 11.2646 19.9033 11.7387 19.9033H24.755C25.151 19.9033 25.4721 20.1709 25.4721 20.5009C25.4721 20.8309 25.151 21.0985 24.755 21.0985H11.7385C10.5912 21.0985 9.58564 20.4196 9.34755 19.4843L8.77039 17.217L4.93095 4.21848H2.38609C1.99008 4.21848 1.66895 3.95086 1.66895 3.62086C1.66895 3.29085 1.99008 3.02324 2.38609 3.02324H5.4929C5.82293 3.02324 6.11036 3.21089 6.18925 3.47803L7.51812 7.97679L11.8165 7.98061L13.7796 2.15537C13.7798 2.15513 13.7796 2.15502 13.7798 2.15478L14.359 0.436499C14.4661 0.118804 14.862 -0.0666969 15.2433 0.022707L25.6345 2.4543C26.0158 2.54359 26.2382 2.87347 26.131 3.19117C26.0421 3.45496 25.7542 3.62731 25.441 3.62743C25.3769 3.62743 25.3116 3.62026 25.2468 3.60496L25.0881 3.56779L24.9025 4.11856L25.0612 4.15561C25.4424 4.24489 25.6647 4.57478 25.5577 4.89259L24.5133 7.99185L27.6142 7.9946C27.8268 7.99472 28.0284 8.0736 28.1645 8.20974C28.3002 8.34612 28.3567 8.52553 28.3184 8.69991ZM15.5457 1.33484L15.3601 1.88561L23.5212 3.79548L23.7068 3.24472L15.5457 1.33484ZM13.6698 7.98217L22.7177 7.9903L23.1567 6.6876C23.2081 6.53497 23.1847 6.37158 23.0916 6.23341C22.9985 6.09512 22.8433 5.99353 22.6602 5.95062L15.652 4.31063C15.4689 4.26772 15.2729 4.2872 15.1069 4.36489C14.9411 4.44247 14.8191 4.57179 14.7676 4.72442L13.6698 7.98217Z" fill="#002c8a"/>
</g>
<defs>
<clipPath id="clip0_205_2353">
<rect width="30" height="25" fill="white"/>
</clipPath>
</defs>
</svg>
