<svg width="19" height="25" viewBox="0 0 19 25" fill="none" xmlns="http://www.w3.org/2000/svg">
<path d="M13.5603 0.75H0.100586V24.25H18.2218V5.4115L13.5603 0.75ZM13.8162 2.24144L16.7303 5.15558H13.8162V2.24144ZM0.974235 23.3764V1.62365H12.9426V6.02923H17.3482V23.3764L0.974235 23.3764Z" fill="white"/>
<path d="M3.31934 7.59863H6.5332V4.38477H3.31934V7.59863ZM4.19299 5.25841H5.65955V6.72498H4.19299V5.25841Z" fill="white"/>
<path d="M3.31934 11.9375H6.5332V8.72363H3.31934V11.9375ZM4.19299 9.59728H5.65955V11.0638H4.19299V9.59728Z" fill="white"/>
<path d="M3.31934 16.2764H6.5332V13.0625H3.31934V16.2764ZM4.19299 13.9361H5.65955V15.4028H4.19299V13.9361Z" fill="white"/>
<path d="M3.31934 20.6162H6.5332V17.4023H3.31934V20.6162ZM4.19299 18.276H5.65955V19.7426H4.19299V18.276Z" fill="white"/>
<path d="M14.4474 19.7412H7.76758V20.6149H14.4474V19.7412Z" fill="white"/>
<path d="M14.4474 15.4033H7.76758V16.277H14.4474V15.4033Z" fill="white"/>
<path d="M14.4474 11.0635H7.76758V11.9371H14.4474V11.0635Z" fill="white"/>
<path d="M14.4474 6.72461H7.76758V7.59826H14.4474V6.72461Z" fill="white"/>
</svg>
