<svg width="21" height="22" viewBox="0 0 21 22" fill="none" xmlns="http://www.w3.org/2000/svg">
<path d="M1.82303 1.83327H16.4058V11.9168H18.2286V0H0V22H10.0226V20.1667H1.82303V1.83327Z" fill="#50B6FF"/>
<path d="M3.76953 3.77197H14.6649V5.59473H3.76953V3.77197ZM3.76953 7.41774H12.8489V9.24049H3.76953V7.41774ZM3.76953 11.0633H9.21723V12.886H3.76953V11.0633ZM15.5726 12.8863C13.0654 12.8863 11.0328 14.9266 11.0328 17.4434C11.0328 19.9602 13.0654 22.0005 15.5726 22.0005C18.0798 22.0005 20.1124 19.9602 20.1124 17.4434C20.1124 14.9266 18.0801 12.8863 15.5726 12.8863ZM15.5726 20.1775C14.0706 20.1775 12.8489 18.9509 12.8489 17.4434C12.8489 15.9356 14.0708 14.7093 15.5726 14.7093C17.0746 14.7093 18.2963 15.9359 18.2963 17.4434C18.2966 18.9509 17.0746 20.1775 15.5726 20.1775Z" fill="#50B6FF"/>
<path d="M16.2063 15.4004H14.7695V17.6856L16.5869 19.4861L17.5981 18.4659L16.2063 17.087V15.4004Z" fill="#50B6FF"/>
</svg>
