<svg width="15" height="11" viewBox="0 0 15 11" fill="none" xmlns="http://www.w3.org/2000/svg">
<path fill-rule="evenodd" clip-rule="evenodd" d="M5.49526 1.12166C5.75155 1.35353 5.75155 1.72948 5.49526 1.96135L2.24058 4.90609H9.40625C10.2405 4.90609 11.4771 5.12759 12.524 5.80961C13.6045 6.51349 14.4375 7.68135 14.4375 9.45817C14.4375 9.78608 14.1437 10.0519 13.7812 10.0519C13.4188 10.0519 13.125 9.78608 13.125 9.45817C13.125 8.06832 12.4996 7.25702 11.7572 6.77339C10.9812 6.26791 10.0304 6.09359 9.40625 6.09359H2.24058L5.49526 9.03835C5.75155 9.27023 5.75155 9.64611 5.49526 9.87799C5.23901 10.1099 4.82349 10.1099 4.56721 9.87799L0.192209 5.91966C-0.0640697 5.68778 -0.0640697 5.31189 0.192209 5.08001L4.56721 1.12166C4.82349 0.889786 5.23901 0.889786 5.49526 1.12166Z" fill="#606060"/>
</svg>
