<svg width="18" height="18" viewBox="0 0 18 18" fill="none" xmlns="http://www.w3.org/2000/svg">
<g clip-path="url(#clip0_86_227)">
<path d="M12 0.75C13.2427 0.75 14.25 1.75736 14.25 3C14.25 3.41421 13.9142 3.75 13.5 3.75C13.0858 3.75 12.75 3.41421 12.75 3C12.75 2.58579 12.4142 2.25 12 2.25H3C2.58579 2.25 2.25 2.58579 2.25 3V15C2.25 15.4142 2.58579 15.75 3 15.75H12C12.4142 15.75 12.75 15.4142 12.75 15V14.25C12.75 13.8358 13.0858 13.5 13.5 13.5C13.9142 13.5 14.25 13.8358 14.25 14.25V15C14.25 16.2427 13.2427 17.25 12 17.25H3C1.75736 17.25 0.75 16.2427 0.75 15V3C0.75 1.75736 1.75736 0.75 3 0.75H12Z" fill="#002c8a"/>
<path d="M12 0.75C13.2427 0.75 14.25 1.75736 14.25 3C14.25 3.41421 13.9142 3.75 13.5 3.75C13.0858 3.75 12.75 3.41421 12.75 3C12.75 2.58579 12.4142 2.25 12 2.25H3C2.58579 2.25 2.25 2.58579 2.25 3V15C2.25 15.4142 2.58579 15.75 3 15.75H12C12.4142 15.75 12.75 15.4142 12.75 15V14.25C12.75 13.8358 13.0858 13.5 13.5 13.5C13.9142 13.5 14.25 13.8358 14.25 14.25V15C14.25 16.2427 13.2427 17.25 12 17.25H3C1.75736 17.25 0.75 16.2427 0.75 15V3C0.75 1.75736 1.75736 0.75 3 0.75H12Z" fill="#002c8a" fill-opacity="0.2"/>
<path fill-rule="evenodd" clip-rule="evenodd" d="M15.5993 6.15108C15.3744 5.92621 15.0099 5.92621 14.7849 6.15108L8.93742 11.9987C8.82687 12.1092 8.75359 12.2515 8.72794 12.4057L8.60457 13.1458L9.34467 13.0225C9.49887 12.9968 9.64122 12.9235 9.75169 12.8131L15.5993 6.96542C15.8242 6.74054 15.8242 6.37595 15.5993 6.15108ZM13.7243 5.09042C14.535 4.27976 15.8493 4.27975 16.66 5.09041C17.4706 5.90108 17.4706 7.21542 16.66 8.0261L10.8124 13.8737C10.4808 14.2053 10.0539 14.425 9.59127 14.5021L8.85117 14.6254C7.83597 14.7946 6.95577 13.9145 7.12497 12.8992L7.24833 12.1591C7.32543 11.6965 7.54512 11.2696 7.87669 10.938L13.7243 5.09042Z" fill="#002c8a"/>
<path fill-rule="evenodd" clip-rule="evenodd" d="M15.5993 6.15108C15.3744 5.92621 15.0099 5.92621 14.7849 6.15108L8.93742 11.9987C8.82687 12.1092 8.75359 12.2515 8.72794 12.4057L8.60457 13.1458L9.34467 13.0225C9.49887 12.9968 9.64122 12.9235 9.75169 12.8131L15.5993 6.96542C15.8242 6.74054 15.8242 6.37595 15.5993 6.15108ZM13.7243 5.09042C14.535 4.27976 15.8493 4.27975 16.66 5.09041C17.4706 5.90108 17.4706 7.21542 16.66 8.0261L10.8124 13.8737C10.4808 14.2053 10.0539 14.425 9.59127 14.5021L8.85117 14.6254C7.83597 14.7946 6.95577 13.9145 7.12497 12.8992L7.24833 12.1591C7.32543 11.6965 7.54512 11.2696 7.87669 10.938L13.7243 5.09042Z" fill="#002c8a" fill-opacity="0.2"/>
<path d="M3.75 5.25C3.75 4.83579 4.08579 4.5 4.5 4.5H10.5C10.9142 4.5 11.25 4.83579 11.25 5.25C11.25 5.66421 10.9142 6 10.5 6H4.5C4.08579 6 3.75 5.66421 3.75 5.25Z" fill="#002c8a"/>
<path d="M3.75 5.25C3.75 4.83579 4.08579 4.5 4.5 4.5H10.5C10.9142 4.5 11.25 4.83579 11.25 5.25C11.25 5.66421 10.9142 6 10.5 6H4.5C4.08579 6 3.75 5.66421 3.75 5.25Z" fill="#002c8a" fill-opacity="0.2"/>
<path d="M3.75 8.25C3.75 7.83577 4.08579 7.5 4.5 7.5H7.5C7.91423 7.5 8.25 7.83577 8.25 8.25C8.25 8.66422 7.91423 9 7.5 9H4.5C4.08579 9 3.75 8.66422 3.75 8.25Z" fill="#002c8a"/>
<path d="M3.75 8.25C3.75 7.83577 4.08579 7.5 4.5 7.5H7.5C7.91423 7.5 8.25 7.83577 8.25 8.25C8.25 8.66422 7.91423 9 7.5 9H4.5C4.08579 9 3.75 8.66422 3.75 8.25Z" fill="#002c8a" fill-opacity="0.2"/>
<path d="M3.75 11.25C3.75 10.8358 4.08579 10.5 4.5 10.5H5.25C5.66421 10.5 6 10.8358 6 11.25C6 11.6642 5.66421 12 5.25 12H4.5C4.08579 12 3.75 11.6642 3.75 11.25Z" fill="#002c8a"/>
<path d="M3.75 11.25C3.75 10.8358 4.08579 10.5 4.5 10.5H5.25C5.66421 10.5 6 10.8358 6 11.25C6 11.6642 5.66421 12 5.25 12H4.5C4.08579 12 3.75 11.6642 3.75 11.25Z" fill="#002c8a" fill-opacity="0.2"/>
</g>
<defs>
<clipPath id="clip0_86_227">
<rect width="18" height="18" fill="white"/>
</clipPath>
</defs>
</svg>
