<svg width="27" height="30" viewBox="0 0 27 30" fill="none" xmlns="http://www.w3.org/2000/svg">
<path opacity="0.5" d="M0.904297 12.2946C0.904297 7.04461 0.904297 4.41963 2.54388 2.78867C4.18347 1.15772 6.82234 1.15771 12.1001 1.15771H14.899C20.1767 1.15771 22.8157 1.15772 24.4552 2.78867C26.0948 4.41963 26.0948 7.04461 26.0948 12.2946V17.863C26.0948 23.1129 26.0948 25.738 24.4552 27.3689C22.8157 28.9999 20.1767 28.9999 14.899 28.9999H12.1001C6.82234 28.9999 4.18347 28.9999 2.54388 27.3689C0.904297 25.738 0.904297 23.1129 0.904297 17.863V12.2946Z" stroke="#002c8a"/>
<path d="M7.97266 12.2063H19.0211" stroke="#002c8a" stroke-linecap="round"/>
<path d="M7.97266 17.9514H15.0437" stroke="#002c8a" stroke-linecap="round"/>
</svg>
