<svg width="30" height="30" viewBox="0 0 30 30" fill="none" xmlns="http://www.w3.org/2000/svg">
<path d="M16.5 7.5H28.5L25.732 3.64287C25.4451 3.24348 24.9139 2.99818 24.34 3.00001H16.5V7.5ZM13.5 3.00001H5.66C5.08611 2.99818 4.55494 3.24348 4.26799 3.64287L1.5 7.5H13.5V3.00001ZM1.5 10.5V26.25C1.5 27.4926 2.50734 28.5 3.74995 28.5H12.75C14.25 28.5 15 27 15 27C15.0007 26.1987 15.0048 25.399 15.0145 24.75C15.0145 19.3738 19.3851 15 24.7572 15H27C27 15 28.5 15 28.5 13.5V10.5H1.5ZM30 19.5C30 18.6715 29.3284 18 28.5 18C27.6716 18 27 18.6715 27 19.5V21C27 22.6569 25.6569 24 24 24H23.1213L23.5606 23.5606C24.1464 22.9749 24.1464 22.0251 23.5606 21.4393C22.9749 20.8536 22.0251 20.8536 21.4394 21.4393L18.4394 24.4393C17.8536 25.0251 17.8536 25.9749 18.4394 26.5606L21.4394 29.5606C22.0251 30.1464 22.9749 30.1464 23.5606 29.5606C24.1464 28.9749 24.1464 28.0251 23.5606 27.4393L23.1213 27H24C27.3137 27 30 24.3136 30 21V19.5Z" fill="#002c8a"/>
</svg>
