<svg width="18" height="18" viewBox="0 0 18 18" fill="none" xmlns="http://www.w3.org/2000/svg">
<path d="M8.72028 12.5007C9.67026 11.5745 10.2064 10.3155 10.2064 9C10.2064 7.68451 9.67026 6.42553 8.72028 5.4993C7.88976 4.68955 6.80245 4.19182 5.64795 4.07976V1.88889C5.64795 1.78989 5.68817 1.69231 5.76402 1.61835C5.84031 1.54397 5.94642 1.5 6.05963 1.5H16.0881C16.2013 1.5 16.3074 1.54397 16.3837 1.61835C16.4596 1.69231 16.4998 1.78989 16.4998 1.88889V16.1111C16.4998 16.2101 16.4596 16.3077 16.3837 16.3817C16.3074 16.456 16.2013 16.5 16.0881 16.5H6.05963C5.94642 16.5 5.84031 16.456 5.76403 16.3817C5.68817 16.3077 5.64795 16.2101 5.64795 16.1111V13.9202C6.80245 13.8082 7.88976 13.3104 8.72028 12.5007Z" fill="#002c8a"/>
<path d="M8.72028 12.5007C9.67026 11.5745 10.2064 10.3155 10.2064 9C10.2064 7.68451 9.67026 6.42553 8.72028 5.4993C7.88976 4.68955 6.80245 4.19182 5.64795 4.07976V1.88889C5.64795 1.78989 5.68817 1.69231 5.76402 1.61835C5.84031 1.54397 5.94642 1.5 6.05963 1.5H16.0881C16.2013 1.5 16.3074 1.54397 16.3837 1.61835C16.4596 1.69231 16.4998 1.78989 16.4998 1.88889V16.1111C16.4998 16.2101 16.4596 16.3077 16.3837 16.3817C16.3074 16.456 16.2013 16.5 16.0881 16.5H6.05963C5.94642 16.5 5.84031 16.456 5.76403 16.3817C5.68817 16.3077 5.64795 16.2101 5.64795 16.1111V13.9202C6.80245 13.8082 7.88976 13.3104 8.72028 12.5007Z" fill="#002c8a" fill-opacity="0.2"/>
<path d="M8.72028 12.5007C9.67026 11.5745 10.2064 10.3155 10.2064 9C10.2064 7.68451 9.67026 6.42553 8.72028 5.4993C7.88976 4.68955 6.80245 4.19182 5.64795 4.07976V1.88889C5.64795 1.78989 5.68817 1.69231 5.76402 1.61835C5.84031 1.54397 5.94642 1.5 6.05963 1.5H16.0881C16.2013 1.5 16.3074 1.54397 16.3837 1.61835C16.4596 1.69231 16.4998 1.78989 16.4998 1.88889V16.1111C16.4998 16.2101 16.4596 16.3077 16.3837 16.3817C16.3074 16.456 16.2013 16.5 16.0881 16.5H6.05963C5.94642 16.5 5.84031 16.456 5.76403 16.3817C5.68817 16.3077 5.64795 16.2101 5.64795 16.1111V13.9202C6.80245 13.8082 7.88976 13.3104 8.72028 12.5007Z" stroke="#002c8a"/>
<path d="M8.72028 12.5007C9.67026 11.5745 10.2064 10.3155 10.2064 9C10.2064 7.68451 9.67026 6.42553 8.72028 5.4993C7.88976 4.68955 6.80245 4.19182 5.64795 4.07976V1.88889C5.64795 1.78989 5.68817 1.69231 5.76402 1.61835C5.84031 1.54397 5.94642 1.5 6.05963 1.5H16.0881C16.2013 1.5 16.3074 1.54397 16.3837 1.61835C16.4596 1.69231 16.4998 1.78989 16.4998 1.88889V16.1111C16.4998 16.2101 16.4596 16.3077 16.3837 16.3817C16.3074 16.456 16.2013 16.5 16.0881 16.5H6.05963C5.94642 16.5 5.84031 16.456 5.76403 16.3817C5.68817 16.3077 5.64795 16.2101 5.64795 16.1111V13.9202C6.80245 13.8082 7.88976 13.3104 8.72028 12.5007Z" stroke="#002c8a" stroke-opacity="0.2"/>
<path d="M5.14795 13.4444V16.1111C5.14795 16.3469 5.244 16.573 5.41497 16.7397C5.58595 16.9064 5.81784 17 6.05963 17H16.0881C16.3299 17 16.5618 16.9064 16.7328 16.7397C16.9037 16.573 16.9998 16.3469 16.9998 16.1111V1.88889C16.9998 1.65314 16.9037 1.42705 16.7328 1.26035C16.5618 1.09365 16.3299 1 16.0881 1H6.05963C5.81784 1 5.58595 1.09365 5.41497 1.26035C5.244 1.42705 5.14795 1.65314 5.14795 1.88889V4.55556" stroke="#002c8a" stroke-linecap="round" stroke-linejoin="round"/>
<path d="M5.14795 13.4444V16.1111C5.14795 16.3469 5.244 16.573 5.41497 16.7397C5.58595 16.9064 5.81784 17 6.05963 17H16.0881C16.3299 17 16.5618 16.9064 16.7328 16.7397C16.9037 16.573 16.9998 16.3469 16.9998 16.1111V1.88889C16.9998 1.65314 16.9037 1.42705 16.7328 1.26035C16.5618 1.09365 16.3299 1 16.0881 1H6.05963C5.81784 1 5.58595 1.09365 5.41497 1.26035C5.244 1.42705 5.14795 1.65314 5.14795 1.88889V4.55556" stroke="#002c8a" stroke-opacity="0.2" stroke-linecap="round" stroke-linejoin="round"/>
<path d="M5.44047 4.55567C6.31871 4.55567 7.17723 4.81633 7.90747 5.30469C8.6377 5.79306 9.20684 6.48718 9.54293 7.2993C9.87902 8.11141 9.96696 9.00504 9.79562 9.86718C9.62428 10.7293 9.20137 11.5212 8.58036 12.1428C7.95935 12.7644 7.16813 13.1877 6.30676 13.3592C5.4454 13.5306 4.55257 13.4426 3.74118 13.1062C2.92979 12.7698 2.23628 12.2002 1.74835 11.4693C1.26043 10.7384 1 9.87914 1 9.00011C1 7.82137 1.46783 6.69091 2.30058 5.85742C3.13333 5.02392 4.26279 4.55567 5.44047 4.55567ZM5.44047 4.55567V9.00011L8.58433 12.1468C9.20694 11.5252 9.63113 10.7325 9.80313 9.86936C9.97512 9.00618 9.88718 8.11131 9.55043 7.29822C9.21369 6.48512 8.64332 5.79041 7.91162 5.30216C7.17993 4.8139 6.31987 4.5541 5.44047 4.55567Z" stroke="#002c8a" stroke-linecap="round" stroke-linejoin="round"/>
<path d="M5.44047 4.55567C6.31871 4.55567 7.17723 4.81633 7.90747 5.30469C8.6377 5.79306 9.20684 6.48718 9.54293 7.2993C9.87902 8.11141 9.96696 9.00504 9.79562 9.86718C9.62428 10.7293 9.20137 11.5212 8.58036 12.1428C7.95935 12.7644 7.16813 13.1877 6.30676 13.3592C5.4454 13.5306 4.55257 13.4426 3.74118 13.1062C2.92979 12.7698 2.23628 12.2002 1.74835 11.4693C1.26043 10.7384 1 9.87914 1 9.00011C1 7.82137 1.46783 6.69091 2.30058 5.85742C3.13333 5.02392 4.26279 4.55567 5.44047 4.55567ZM5.44047 4.55567V9.00011L8.58433 12.1468C9.20694 11.5252 9.63113 10.7325 9.80313 9.86936C9.97512 9.00618 9.88718 8.11131 9.55043 7.29822C9.21369 6.48512 8.64332 5.79041 7.91162 5.30216C7.17993 4.8139 6.31987 4.5541 5.44047 4.55567Z" stroke="#002c8a" stroke-opacity="0.2" stroke-linecap="round" stroke-linejoin="round"/>
</svg>
