<svg width="53" height="52" viewBox="0 0 53 52" fill="none" xmlns="http://www.w3.org/2000/svg">
<g clip-path="url(#clip0_2067_3290)">
<path d="M42.4 0H10.6C4.74578 0 0 4.65624 0 10.4V41.6C0 47.3438 4.74578 52 10.6 52H42.4C48.2542 52 53 47.3438 53 41.6V10.4C53 4.65624 48.2542 0 42.4 0Z" fill="#002c8a"/>
<path fill-rule="evenodd" clip-rule="evenodd" d="M22.1734 10.2266H30.8301C32.4404 10.2266 33.8166 11.2417 34.3277 12.6532H37.6318C38.2663 12.6532 38.8766 12.8925 39.3364 13.3216C39.7961 13.7508 40.0703 14.3368 40.102 14.9586L40.1051 15.0799V39.3466C40.1051 39.9692 39.8612 40.5679 39.4238 41.019C38.9866 41.4701 38.3893 41.7391 37.7554 41.7702L37.6318 41.7732H15.3718C14.7372 41.7732 14.1269 41.534 13.6671 41.1048C13.2074 40.6757 12.9333 40.0897 12.9015 39.4679L12.8984 39.3466V15.0799C12.8984 14.4573 13.1423 13.8585 13.5797 13.4074C14.0169 12.9563 14.6144 12.6874 15.2481 12.6563L15.3718 12.6532H18.6759C19.187 11.2417 20.5631 10.2266 22.1734 10.2266ZM20.9395 13.9475C20.9425 13.9055 20.943 13.8634 20.9414 13.8211C20.941 13.8093 20.9403 13.7974 20.9395 13.7857C20.9827 13.1584 21.524 12.6532 22.1734 12.6532H30.8301C31.5072 12.6532 32.0668 13.2023 32.0668 13.8666C32.0668 14.5309 31.5072 15.0799 30.8301 15.0799H22.1734C21.524 15.0799 20.9827 14.5748 20.9395 13.9475Z" fill="white"/>
<path d="M31.5516 23.573C32.0344 23.0993 32.8174 23.0994 33.3002 23.5731C33.7832 24.0468 33.7832 24.815 33.3002 25.2889L26.1362 32.3176C25.9043 32.5451 25.5899 32.6729 25.262 32.6729C24.934 32.6729 24.6195 32.5451 24.3876 32.3176L20.3153 28.3222C19.8324 27.8484 19.8324 27.0803 20.3153 26.6064C20.7982 26.1327 21.581 26.1326 22.0639 26.6063L25.262 29.7429L31.5516 23.573Z" fill="#002c8a"/>
</g>
<defs>
<clipPath id="clip0_2067_3290">
<rect width="53" height="52" fill="white"/>
</clipPath>
</defs>
</svg>
