<svg width="19" height="18" viewBox="0 0 19 18" fill="none" xmlns="http://www.w3.org/2000/svg">
<rect width="19" height="18" rx="9" fill="white"/>
<path d="M8.60047 9.89756L13.8541 4.64583M8.7498 10.1337L9.94108 12.5163C10.229 13.0921 10.3729 13.38 10.5542 13.4572C10.7116 13.5242 10.8915 13.512 11.0385 13.4245C11.2078 13.3237 11.3118 13.0191 11.5198 12.4099L13.7707 5.81808C13.952 5.28728 14.0426 5.02187 13.9805 4.8463C13.9266 4.69357 13.8064 4.57342 13.6537 4.51946C13.4781 4.45743 13.2127 4.54806 12.6819 4.7293L6.0901 6.98017C5.4809 7.18819 5.1763 7.2922 5.07547 7.46154C4.98796 7.60849 4.97584 7.78838 5.04283 7.94572C5.12003 8.12706 5.40792 8.27104 5.98369 8.55888L8.36626 9.75021C8.46115 9.79765 8.50859 9.82134 8.54965 9.85302C8.58616 9.88116 8.61885 9.91386 8.64694 9.95031C8.67867 9.99142 8.70237 10.0389 8.7498 10.1337Z" stroke="#002c8a" stroke-linecap="round" stroke-linejoin="round"/>
</svg>
