<svg width="12" height="13" viewBox="0 0 12 13" fill="none" xmlns="http://www.w3.org/2000/svg">
<path fill-rule="evenodd" clip-rule="evenodd" d="M7.20167 2.33333C7.20167 1.18274 8.20114 0.25 9.43401 0.25C10.6669 0.25 11.6663 1.18274 11.6663 2.33333C11.6663 3.48393 10.6669 4.41667 9.43401 4.41667C8.81147 4.41667 8.24887 4.17873 7.84441 3.79592L4.75414 5.76844C4.78267 5.90156 4.79767 6.03906 4.79767 6.1795C4.79767 6.45762 4.73901 6.7235 4.63273 6.9665L8.02121 9.05363C8.40581 8.76006 8.89787 8.58331 9.43401 8.58331C10.6669 8.58331 11.6663 9.51606 11.6663 10.6667C11.6663 11.8173 10.6669 12.75 9.43401 12.75C8.20114 12.75 7.20167 11.8173 7.20167 10.6667C7.20167 10.3653 7.27047 10.0784 7.39414 9.81944L4.03305 7.74919C3.64098 8.06863 3.12741 8.26281 2.56533 8.26281C1.33245 8.26281 0.333008 7.33006 0.333008 6.1795C0.333008 5.02889 1.33245 4.09616 2.56533 4.09616C3.27427 4.09616 3.90536 4.40453 4.31397 4.88449L7.30894 2.97276C7.23927 2.77099 7.20167 2.556 7.20167 2.33333Z" fill="#B1B1B1"/>
</svg>
