<svg width="29" height="39" viewBox="0 0 29 39" fill="none" xmlns="http://www.w3.org/2000/svg">
<path d="M0 0V13.8294H2.17504V2.17495H26.825V22.9585H2.17504V20.3425H0V25.1335H29V0H0Z" fill="#10108A"/>
<path d="M10.9526 30.7553C10.9526 29.0604 9.57912 27.6875 7.88487 27.6875C6.18989 27.6875 4.81641 29.0604 4.81641 30.7553C4.81641 32.4489 6.18989 33.8231 7.88487 33.8231C9.57903 33.8231 10.9526 32.4488 10.9526 30.7553Z" fill="#10108A"/>
<path d="M7.88445 35.4648C5.69742 35.4648 3.83963 36.9 3.12598 38.9086H12.643C11.9294 36.8999 10.0715 35.4648 7.88445 35.4648Z" fill="#10108A"/>
<path d="M24.1841 30.7553C24.1841 29.0604 22.8106 27.6875 21.1163 27.6875C19.4213 27.6875 18.0479 29.0604 18.0479 30.7553C18.0479 32.4489 19.4213 33.8231 21.1163 33.8231C22.8106 33.8231 24.1841 32.4488 24.1841 30.7553Z" fill="#10108A"/>
<path d="M21.115 35.4648C18.928 35.4648 17.0702 36.9 16.3564 38.9086H25.8735C25.1598 36.8999 23.302 35.4648 21.115 35.4648Z" fill="#10108A"/>
</svg>
