<svg width="35" height="35" viewBox="0 0 35 35" fill="none" xmlns="http://www.w3.org/2000/svg">
<path d="M20.417 16.0404C20.417 15.2349 21.0699 14.582 21.8753 14.582C22.6808 14.582 23.3337 15.2349 23.3337 16.0404V18.957C23.3337 19.7625 22.6808 20.4154 21.8753 20.4154C21.0699 20.4154 20.417 19.7625 20.417 18.957V16.0404Z" fill="#10108A" stroke="#1C274C"/>
<path d="M20.4369 24.7904L21.5306 24.7936V24.7904H20.4369ZM20.4369 10.207H21.5306V10.2039L20.4369 10.207ZM21.5222 27.7145L21.5306 24.7936L19.3431 24.7872L19.3347 27.7081L21.5222 27.7145ZM21.8989 24.4258C22.1048 24.4258 22.2671 24.5916 22.2671 24.7904H24.4546C24.4546 23.3783 23.3078 22.2383 21.8989 22.2383V24.4258ZM21.8989 22.2383C20.49 22.2383 19.3431 23.3783 19.3431 24.7904H21.5306C21.5306 24.5916 21.693 24.4258 21.8989 24.4258V22.2383ZM14.5763 6.92578H19.6953V4.73828H14.5763V6.92578ZM18.9701 28.0716H14.5763V30.2591H18.9701V28.0716ZM14.5763 28.0716C11.7888 28.0716 9.80785 28.0693 8.30501 27.8677C6.83333 27.6704 5.98502 27.3002 5.36582 26.6824L3.82095 28.2312C4.91454 29.322 6.30099 29.806 8.01423 30.0358C9.69628 30.2614 11.8504 30.2591 14.5763 30.2591V28.0716ZM14.5763 4.73828C11.8504 4.73828 9.69628 4.73596 8.01423 4.96155C6.30099 5.19133 4.91454 5.67533 3.82095 6.76621L5.36582 8.31493C5.98502 7.69727 6.83333 7.32701 8.30501 7.12964C9.80785 6.9281 11.7888 6.92578 14.5763 6.92578V4.73828ZM3.77356 15.9069C4.33603 16.2211 4.71077 16.8177 4.71077 17.4987H6.89827C6.89827 15.9914 6.06487 14.6809 4.84011 13.997L3.77356 15.9069ZM4.02513 13.1543C4.13893 10.4476 4.50863 9.17 5.36582 8.31493L3.82095 6.76621C2.31952 8.26392 1.95459 10.3264 1.83956 13.0624L4.02513 13.1543ZM4.71077 17.4987C4.71077 18.1797 4.33603 18.7763 3.77356 19.0905L4.84011 21.0004C6.06487 20.3165 6.89827 19.006 6.89827 17.4987H4.71077ZM1.83956 21.9349C1.95459 24.6711 2.31952 26.7334 3.82095 28.2312L5.36582 26.6824C4.50863 25.8274 4.13893 24.5499 4.02513 21.8431L1.83956 21.9349ZM30.2897 17.4987C30.2897 16.8177 30.6645 16.2211 31.227 15.9069L30.1603 13.997C28.9356 14.6809 28.1022 15.9914 28.1022 17.4987H30.2897ZM33.161 13.0624C33.0459 10.3264 32.6809 8.26392 31.1796 6.76621L29.6346 8.31493C30.4918 9.17 30.8616 10.4476 30.9754 13.1543L33.161 13.0624ZM31.227 19.0905C30.6645 18.7763 30.2897 18.1797 30.2897 17.4987H28.1022C28.1022 19.006 28.9356 20.3165 30.1603 21.0004L31.227 19.0905ZM30.9754 21.8431C30.8616 24.5499 30.4918 25.8274 29.6346 26.6824L31.1796 28.2312C32.6809 26.7334 33.0459 24.6711 33.161 21.9349L30.9754 21.8431ZM30.1603 21.0004C30.5745 21.2316 30.845 21.3831 31.0279 21.4985C31.118 21.5553 31.158 21.5855 31.1699 21.5956C31.1911 21.6131 31.1174 21.5596 31.047 21.4337L32.9558 20.3652C32.8351 20.1495 32.6732 20.0003 32.5654 19.9111C32.4486 19.8142 32.3188 19.7264 32.195 19.6484C31.9504 19.4941 31.6175 19.3086 31.227 19.0905L30.1603 21.0004ZM33.161 21.9349C33.1715 21.685 33.1833 21.427 33.1738 21.2113C33.1642 20.9927 33.1304 20.6771 32.9558 20.3652L31.047 21.4337C30.9732 21.3019 30.9841 21.2112 30.9884 21.3074C30.9903 21.3493 30.9906 21.4102 30.9881 21.5039C30.9857 21.5972 30.9811 21.7056 30.9754 21.8431L33.161 21.9349ZM31.227 15.9069C31.6175 15.6888 31.9504 15.5033 32.195 15.349C32.3188 15.2709 32.4486 15.1832 32.5654 15.0863C32.6732 14.9971 32.8351 14.8479 32.9558 14.6322L31.047 13.5636C31.1174 13.4379 31.1911 13.3843 31.1699 13.4018C31.158 13.4118 31.118 13.4421 31.0279 13.4989C30.845 13.6142 30.5745 13.7658 30.1603 13.997L31.227 15.9069ZM30.9754 13.1543C30.9811 13.2918 30.9857 13.4002 30.9881 13.4935C30.9906 13.5871 30.9903 13.6482 30.9884 13.6899C30.9841 13.7862 30.9732 13.6954 31.047 13.5636L32.9558 14.6322C33.1304 14.3203 33.1642 14.0046 33.1738 13.7861C33.1833 13.5704 33.1715 13.3125 33.161 13.0624L30.9754 13.1543ZM3.77356 19.0905C3.38298 19.3086 3.05006 19.4941 2.80547 19.6484C2.68172 19.7264 2.55191 19.8142 2.43504 19.9111C2.32725 20.0003 2.16549 20.1495 2.04469 20.3652L3.95347 21.4337C3.88306 21.5596 3.80939 21.6131 3.83053 21.5956C3.84258 21.5855 3.88255 21.5553 3.97256 21.4985C4.15546 21.3831 4.42603 21.2316 4.84011 21.0004L3.77356 19.0905ZM4.02513 21.8431C4.01934 21.7056 4.01482 21.5972 4.01242 21.5039C4.00999 21.4102 4.01027 21.3493 4.01211 21.3074C4.01634 21.2112 4.02725 21.3019 3.95347 21.4337L2.04469 20.3652C1.87014 20.6771 1.83633 20.9927 1.82672 21.2113C1.81723 21.427 1.82904 21.685 1.83956 21.9349L4.02513 21.8431ZM4.84011 13.997C4.42603 13.7658 4.15546 13.6142 3.97254 13.4989C3.88254 13.4421 3.84258 13.4118 3.83053 13.4018C3.80939 13.3843 3.88308 13.4379 3.95348 13.5636L2.04469 14.6322C2.16548 14.8479 2.32724 14.9971 2.43502 15.0863C2.55191 15.1832 2.68172 15.2709 2.80546 15.349C3.05006 15.5033 3.38298 15.6888 3.77356 15.9069L4.84011 13.997ZM1.83956 13.0624C1.82904 13.3125 1.81723 13.5704 1.82672 13.7861C1.83633 14.0046 1.87014 14.3203 2.04469 14.6322L3.95348 13.5636C4.02726 13.6955 4.01634 13.7862 4.01211 13.6899C4.01027 13.6482 4.00999 13.5871 4.01242 13.4935C4.01482 13.4002 4.01934 13.2918 4.02513 13.1543L1.83956 13.0624ZM21.5306 10.2039L21.52 6.5559L19.3325 6.56226L19.3431 10.2102L21.5306 10.2039ZM21.8989 10.5716C21.693 10.5716 21.5306 10.4058 21.5306 10.207H19.3431C19.3431 11.6191 20.49 12.7591 21.8989 12.7591V10.5716ZM22.2671 10.207C22.2671 10.4058 22.1048 10.5716 21.8989 10.5716V12.7591C23.3078 12.7591 24.4546 11.6191 24.4546 10.207H22.2671ZM22.2671 6.58479V10.207H24.4546V6.58479H22.2671ZM24.075 6.95298C27.2661 7.03529 28.6969 7.37967 29.6346 8.31493L31.1796 6.76621C29.5572 5.14784 27.2622 4.84696 24.1314 4.76621L24.075 6.95298ZM24.4546 6.58479C24.4546 6.7887 24.2865 6.95843 24.075 6.95298L24.1314 4.76621C23.1045 4.73973 22.2671 5.56713 22.2671 6.58479H24.4546ZM19.6953 6.92578C19.4979 6.92578 19.3331 6.76576 19.3325 6.56226L21.52 6.5559C21.5171 5.54866 20.6985 4.73828 19.6953 4.73828V6.92578ZM24.8871 30.2059C27.6209 30.0904 29.6817 29.7254 31.1796 28.2312L29.6346 26.6824C28.7783 27.5366 27.499 27.9061 24.7948 28.0203L24.8871 30.2059ZM22.2671 24.7904V27.6728H24.4546V24.7904H22.2671ZM19.3347 27.7081C19.3341 27.8835 19.3337 28.0185 19.3305 28.1337C19.3272 28.2497 19.3217 28.3184 19.3159 28.3605C19.3102 28.4018 19.308 28.3879 19.3251 28.3468C19.3456 28.2969 19.3831 28.2345 19.4397 28.1781L20.9842 29.7271C21.3278 29.3844 21.4392 28.9771 21.4831 28.658C21.5226 28.3703 21.5213 28.0264 21.5222 27.7145L19.3347 27.7081ZM18.9701 30.2591C19.282 30.2591 19.6259 30.2614 19.9136 30.2228C20.233 30.1799 20.6406 30.0697 20.9842 29.7271L19.4397 28.1781C19.4963 28.1216 19.5588 28.0843 19.6087 28.0639C19.65 28.047 19.6638 28.0492 19.6226 28.0547C19.5804 28.0604 19.5116 28.0658 19.3958 28.0687C19.2806 28.0716 19.1455 28.0716 18.9701 28.0716V30.2591ZM24.7948 28.0203C24.6187 28.0277 24.4841 28.0334 24.3691 28.0352C24.2538 28.0369 24.1866 28.0343 24.1466 28.0303C24.1078 28.0266 24.1249 28.0242 24.1698 28.0413C24.2236 28.0618 24.2867 28.0986 24.3423 28.1518L22.8284 29.7309C23.1845 30.0723 23.6005 30.1747 23.9327 30.2073C24.2271 30.2364 24.5758 30.219 24.8871 30.2059L24.7948 28.0203ZM22.2671 27.6728C22.2671 27.9918 22.2646 28.3449 22.3055 28.6399C22.3511 28.9692 22.4688 29.3862 22.8284 29.7309L24.3423 28.1518C24.4001 28.2072 24.4396 28.2704 24.4619 28.3226C24.4803 28.3656 24.4781 28.3811 24.4722 28.3395C24.4664 28.2971 24.4607 28.2271 24.4577 28.1085C24.4546 27.9907 24.4546 27.8524 24.4546 27.6728H22.2671Z" fill="#10108A"/>
</svg>
