<svg width="37" height="37" viewBox="0 0 37 37" fill="none" xmlns="http://www.w3.org/2000/svg">
<g clip-path="url(#clip0_3387_1037)">
<path d="M10.5339 7.08283C12.4892 7.08283 14.075 5.4971 14.075 3.54116C14.075 1.58515 12.4892 0 10.5339 0C8.57791 0 6.99219 1.58515 6.99219 3.54116C6.99219 5.4971 8.57791 7.08283 10.5339 7.08283Z" fill="#10108A"/>
<path d="M7.95586 30.8238C9.89738 30.8238 11.4713 29.2499 11.4713 27.3084C11.4713 25.3669 9.89738 23.793 7.95586 23.793C6.01434 23.793 4.44043 25.3669 4.44043 27.3084C4.44043 29.2499 6.01434 30.8238 7.95586 30.8238Z" fill="#10108A"/>
<path d="M7.97278 32.5353C5.52485 32.5174 3.52534 34.4864 3.50684 36.9344L12.3719 37.0006C12.3897 34.5527 10.4207 32.5538 7.97278 32.5353Z" fill="#10108A"/>
<path d="M19.5887 30.8238C21.5302 30.8238 23.1041 29.2499 23.1041 27.3084C23.1041 25.3669 21.5302 23.793 19.5887 23.793C17.6472 23.793 16.0732 25.3669 16.0732 27.3084C16.0732 29.2499 17.6472 30.8238 19.5887 30.8238Z" fill="#10108A"/>
<path d="M19.6051 32.5353C17.1577 32.5174 15.1576 34.4864 15.1396 36.9344L24.0048 37.0006C24.0227 34.5527 22.053 32.5538 19.6051 32.5353Z" fill="#10108A"/>
<path d="M31.2215 30.8238C33.163 30.8238 34.7369 29.2499 34.7369 27.3084C34.7369 25.3669 33.163 23.793 31.2215 23.793C29.28 23.793 27.7061 25.3669 27.7061 27.3084C27.7061 29.2499 29.28 30.8238 31.2215 30.8238Z" fill="#10108A"/>
<path d="M31.2372 32.5353C28.7898 32.5174 26.7903 34.4864 26.7725 36.9344L35.6369 37.0006C35.6554 34.5527 33.6851 32.5538 31.2372 32.5353Z" fill="#10108A"/>
<path d="M19.7042 17.0324H15.8371V14.1666C15.8562 11.622 14.0787 9.48449 11.6917 8.95312L11.2517 10.3168H9.81576L9.37696 8.95551C7.02096 9.48211 5.24951 11.5706 5.23101 14.0872V17.0324H1.36328V19.4631H19.7042V17.0324ZM9.81576 11.1013H11.2517V15.5177L10.5339 16.1386L9.81569 15.5177L9.81576 11.1013Z" fill="#10108A"/>
</g>
<defs>
<clipPath id="clip0_3387_1037">
<rect width="37" height="37" fill="white"/>
</clipPath>
</defs>
</svg>
