<svg width="36" height="37" viewBox="0 0 36 37" fill="none" xmlns="http://www.w3.org/2000/svg">
<g clip-path="url(#clip0_2207_3297)">
<path d="M34.327 3.87305H19.9352C19.0124 3.87305 18.2617 4.62369 18.2617 5.54633V12.9723C18.2617 13.8951 19.0125 14.6457 19.9352 14.6457H21.1989V17.5935C21.1989 17.7973 21.3178 17.9823 21.5032 18.0672C21.5725 18.0988 21.6463 18.1144 21.7196 18.1144C21.8424 18.1144 21.9638 18.071 22.0601 17.9875L25.9279 14.6456H34.3268C35.2496 14.6456 36.0001 13.8949 36.0001 12.9723V5.54633C36.0004 4.62361 35.2496 3.87305 34.327 3.87305ZM24.0823 8.9489L23.3138 9.69811L23.4952 10.756C23.5083 10.8324 23.477 10.9094 23.4142 10.955C23.3789 10.9807 23.3369 10.9938 23.2947 10.9938C23.2624 10.9938 23.2299 10.9861 23.2001 10.9705L22.2501 10.471L21.3002 10.9705C21.2315 11.0065 21.1484 11.0004 21.0858 10.955C21.0232 10.9095 20.9919 10.8324 21.005 10.756L21.1864 9.69811L20.4177 8.9489C20.3625 8.89485 20.3423 8.81401 20.3662 8.74046C20.39 8.66684 20.4538 8.61317 20.5305 8.60203L21.5926 8.44772L22.0676 7.48526C22.102 7.41578 22.1727 7.37182 22.2501 7.37182C22.3275 7.37182 22.3983 7.41578 22.4324 7.48526L22.9075 8.44772L23.9694 8.60203C24.0462 8.61317 24.1097 8.66684 24.1338 8.74046C24.1577 8.81401 24.1377 8.89493 24.0823 8.9489ZM28.9634 8.9489L28.1947 9.69811L28.3763 10.756C28.3893 10.8324 28.3579 10.9094 28.2953 10.955C28.26 10.9807 28.2182 10.9938 28.1758 10.9938C28.1434 10.9938 28.1111 10.9861 28.0809 10.9705L27.131 10.471L26.1811 10.9705C26.1125 11.0065 26.0295 11.0004 25.9669 10.955C25.9041 10.9095 25.8728 10.8324 25.8859 10.756L26.0673 9.69811L25.2989 8.9489C25.2436 8.89485 25.2234 8.81401 25.2474 8.74046C25.2712 8.66684 25.3347 8.61317 25.4116 8.60203L26.4737 8.44772L26.9487 7.48526C26.983 7.41578 27.0538 7.37182 27.131 7.37182C27.2085 7.37182 27.2791 7.41578 27.3134 7.48526L27.7885 8.44772L28.8505 8.60203C28.9274 8.61317 28.9908 8.66684 29.0148 8.74046C29.0388 8.81401 29.0186 8.89493 28.9634 8.9489ZM33.8443 8.9489L33.0756 9.69811L33.2569 10.756C33.2701 10.8324 33.239 10.9094 33.1762 10.955C33.1408 10.9807 33.0989 10.9938 33.0565 10.9938C33.0242 10.9938 32.9919 10.9861 32.9618 10.9705L32.0118 10.471L31.0617 10.9705C30.9934 11.0065 30.9103 11.0004 30.8477 10.955C30.7849 10.9095 30.7537 10.8324 30.7667 10.756L30.9482 9.69811L30.1796 8.9489C30.1243 8.89485 30.1043 8.81401 30.1281 8.74046C30.1519 8.66684 30.2157 8.61317 30.2924 8.60203L31.3546 8.44772L31.8296 7.48526C31.8637 7.41578 31.9346 7.37182 32.0118 7.37182C32.0891 7.37182 32.1601 7.41578 32.1944 7.48526L32.6695 8.44772L33.7315 8.60203C33.8081 8.61317 33.8716 8.66684 33.8958 8.74046C33.9197 8.81401 33.8997 8.89493 33.8443 8.9489Z" fill="#333232"/>
<path d="M11.5055 9C7.98566 9 6.03763 10.824 6.07323 14.3386C6.12487 19.1522 8.17031 22.0723 11.5055 22.0213C11.5055 22.0213 16.9352 22.2414 16.9352 14.3386C16.9352 10.824 15.1007 9 11.5055 9Z" fill="#333232"/>
<path d="M21.1091 25.6736L15.6838 23.5105L14.4134 22.4399C14.0779 22.1564 13.5823 22.1773 13.2709 22.4866L11.5047 24.2432L9.73325 22.4862C9.42184 22.1772 8.92683 22.1573 8.59179 22.4399L7.32107 23.5105L1.89572 25.6738C0.148668 26.3696 0.150173 32.5567 0 33.1245H23.0074C22.8576 32.5579 22.8569 26.3688 21.1091 25.6736Z" fill="#333232"/>
</g>
<defs>
<clipPath id="clip0_2207_3297">
<rect width="36" height="36" fill="white" transform="translate(0 0.5)"/>
</clipPath>
</defs>
</svg>
