<svg width="30" height="30" viewBox="0 0 30 30" fill="none" xmlns="http://www.w3.org/2000/svg">
<g clip-path="url(#clip0_205_2359)">
<path d="M11.25 30H1.25C0.918479 30 0.600537 29.8683 0.366117 29.6339C0.131696 29.3995 0 29.0815 0 28.75C0 28.4185 0.131696 28.1006 0.366117 27.8661C0.600537 27.6317 0.918479 27.5 1.25 27.5H11.25C11.5815 27.5 11.8995 27.6317 12.1339 27.8661C12.3683 28.1006 12.5 28.4185 12.5 28.75C12.5 29.0815 12.3683 29.3995 12.1339 29.6339C11.8995 29.8683 11.5815 30 11.25 30ZM8.75 25H1.25C0.918479 25 0.600537 24.8683 0.366117 24.6339C0.131696 24.3995 0 24.0815 0 23.75C0 23.4185 0.131696 23.1006 0.366117 22.8661C0.600537 22.6317 0.918479 22.5 1.25 22.5H8.75C9.08152 22.5 9.39946 22.6317 9.63388 22.8661C9.8683 23.1006 10 23.4185 10 23.75C10 24.0815 9.8683 24.3995 9.63388 24.6339C9.39946 24.8683 9.08152 25 8.75 25ZM6.25 20H1.25C0.918479 20 0.600537 19.8683 0.366117 19.6339C0.131696 19.3995 0 19.0815 0 18.75C0 18.4185 0.131696 18.1006 0.366117 17.8661C0.600537 17.6317 0.918479 17.5 1.25 17.5H6.25C6.58152 17.5 6.89946 17.6317 7.13388 17.8661C7.3683 18.1006 7.5 18.4185 7.5 18.75C7.5 19.0815 7.3683 19.3995 7.13388 19.6339C6.89946 19.8683 6.58152 20 6.25 20ZM16.25 29.9438C15.9185 29.9585 15.5947 29.841 15.3498 29.617C15.105 29.393 14.9591 29.0809 14.9444 28.7494C14.9296 28.4179 15.0472 28.0941 15.2712 27.8492C15.4951 27.6044 15.8072 27.4585 16.1388 27.4438C18.5043 27.2273 20.7592 26.3413 22.6394 24.8895C24.5196 23.4377 25.9471 21.4802 26.7549 19.2463C27.5627 17.0124 27.7172 14.5946 27.2003 12.276C26.6835 9.95749 25.5167 7.83421 23.8366 6.1549C22.1565 4.47559 20.0327 3.30976 17.7139 2.79398C15.3951 2.2782 12.9774 2.43381 10.7438 3.2426C8.51031 4.05138 6.55347 5.47984 5.10253 7.36068C3.65159 9.24151 2.76661 11.4968 2.55125 13.8625C2.53648 14.026 2.48964 14.185 2.41343 14.3304C2.33721 14.4758 2.2331 14.6048 2.10705 14.7099C1.98099 14.8151 1.83546 14.8944 1.67875 14.9433C1.52205 14.9922 1.35725 15.0098 1.19375 14.995C1.03025 14.9802 0.871269 14.9334 0.725873 14.8572C0.580476 14.781 0.451515 14.6769 0.346353 14.5508C0.24119 14.4248 0.161886 14.2792 0.112968 14.1225C0.0640501 13.9658 0.0464763 13.801 0.06125 13.6375C0.409861 9.79165 2.22826 6.22839 5.13791 3.68948C8.04757 1.15056 11.8243 -0.168398 15.6819 0.00716138C19.5396 0.182721 23.1809 1.83927 25.8479 4.63198C28.5149 7.42469 30.0022 11.1384 30 15C30.0192 18.7479 28.6268 22.3658 26.0999 25.1338C23.573 27.9018 20.0967 29.6172 16.3625 29.9388C16.325 29.9425 16.2862 29.9438 16.25 29.9438ZM15 7.50002C14.6685 7.50002 14.3505 7.63171 14.1161 7.86613C13.8817 8.10056 13.75 8.4185 13.75 8.75002V15C13.7501 15.3315 13.8818 15.6494 14.1163 15.8838L17.8663 19.6338C18.102 19.8615 18.4178 19.9875 18.7455 19.9846C19.0732 19.9818 19.3868 19.8503 19.6185 19.6185C19.8503 19.3868 19.9817 19.0733 19.9846 18.7455C19.9874 18.4178 19.8614 18.102 19.6337 17.8663L16.25 14.4825V8.75002C16.25 8.4185 16.1183 8.10056 15.8839 7.86613C15.6495 7.63171 15.3315 7.50002 15 7.50002Z" fill="#002c8a"/>
</g>
<defs>
<clipPath id="clip0_205_2359">
<rect width="30" height="30" fill="white"/>
</clipPath>
</defs>
</svg>
