<svg width="26" height="27" viewBox="0 0 26 27" fill="none" xmlns="http://www.w3.org/2000/svg">
<path fill-rule="evenodd" clip-rule="evenodd" d="M13 0C20.1797 0 26 6.04416 26 13.5C26 20.9558 20.1797 27 13 27C5.8203 27 0 20.9558 0 13.5C0 6.04416 5.8203 0 13 0ZM13 3.375C7.61522 3.375 3.25 7.90812 3.25 13.5C3.25 19.0919 7.61522 23.625 13 23.625C18.3848 23.625 22.75 19.0919 22.75 13.5C22.75 7.90812 18.3848 3.375 13 3.375ZM14.625 6.75L14.6249 11.8125H19.5V15.1875L14.6249 15.1874L14.625 20.25H11.375V15.1874L6.5 15.1875V11.8125H11.375V6.75H14.625Z" fill="#002c8a"/>
</svg>
