<svg width="17" height="17" viewBox="0 0 17 17" fill="none" xmlns="http://www.w3.org/2000/svg">
<g clip-path="url(#clip0_86_236)">
<path d="M15.9375 2.65625H6.375V1.0625C6.375 0.921604 6.31903 0.786478 6.2194 0.686849C6.11977 0.587221 5.98465 0.53125 5.84375 0.53125H2.27375C1.81161 0.53125 1.3684 0.714834 1.04162 1.04162C0.714834 1.3684 0.53125 1.81161 0.53125 2.27375V11.5387C0.53125 12.0009 0.714834 12.4441 1.04162 12.7709C1.3684 13.0977 1.81161 13.2812 2.27375 13.2812H4.39875C4.63824 14.1884 5.1712 14.9909 5.91451 15.5634C6.65783 16.136 7.56971 16.4464 8.50797 16.4464C9.44623 16.4464 10.3581 16.136 11.1014 15.5634C11.8447 14.9909 12.3777 14.1884 12.6172 13.2812H14.7422C15.2016 13.277 15.6407 13.0916 15.964 12.7653C16.2874 12.439 16.4688 11.9981 16.4688 11.5387V3.1875C16.4688 3.0466 16.4128 2.91148 16.3132 2.81185C16.2135 2.71222 16.0784 2.65625 15.9375 2.65625ZM8.5 15.4062C7.86957 15.4062 7.2533 15.2193 6.72912 14.8691C6.20494 14.5188 5.79639 14.021 5.55513 13.4386C5.31388 12.8561 5.25076 12.2152 5.37375 11.5969C5.49674 10.9786 5.80032 10.4106 6.2461 9.96485C6.69188 9.51907 7.25984 9.21549 7.87815 9.0925C8.49646 8.96951 9.13736 9.03263 9.7198 9.27388C10.3022 9.51514 10.8001 9.92369 11.1503 10.4479C11.5006 10.9721 11.6875 11.5883 11.6875 12.2187C11.6875 13.0641 11.3517 13.8749 10.7539 14.4727C10.1561 15.0704 9.34538 15.4062 8.5 15.4062ZM15.4062 5.3125H9.5625C9.4216 5.3125 9.28648 5.36847 9.18685 5.4681C9.08722 5.56773 9.03125 5.70285 9.03125 5.84375C9.03125 5.98465 9.08722 6.11977 9.18685 6.2194C9.28648 6.31903 9.4216 6.375 9.5625 6.375H15.4062V11.5387C15.4062 11.7191 15.3346 11.8921 15.2071 12.0196C15.0796 12.1471 14.9066 12.2187 14.7262 12.2187H12.75C12.75 11.0916 12.3022 10.0106 11.5052 9.21354C10.7082 8.41652 9.62717 7.96875 8.5 7.96875C7.37283 7.96875 6.29183 8.41652 5.4948 9.21354C4.69777 10.0106 4.25 11.0916 4.25 12.2187H2.27375C2.0934 12.2187 1.92044 12.1471 1.79292 12.0196C1.66539 11.8921 1.59375 11.7191 1.59375 11.5387V2.27375C1.59375 2.0934 1.66539 1.92044 1.79292 1.79292C1.92044 1.66539 2.0934 1.59375 2.27375 1.59375H5.3125V3.1875C5.3125 3.3284 5.36847 3.46352 5.4681 3.56315C5.56773 3.66278 5.70285 3.71875 5.84375 3.71875H15.4062V5.3125Z" fill="#002c8a"/>
<path d="M15.9375 2.65625H6.375V1.0625C6.375 0.921604 6.31903 0.786478 6.2194 0.686849C6.11977 0.587221 5.98465 0.53125 5.84375 0.53125H2.27375C1.81161 0.53125 1.3684 0.714834 1.04162 1.04162C0.714834 1.3684 0.53125 1.81161 0.53125 2.27375V11.5387C0.53125 12.0009 0.714834 12.4441 1.04162 12.7709C1.3684 13.0977 1.81161 13.2812 2.27375 13.2812H4.39875C4.63824 14.1884 5.1712 14.9909 5.91451 15.5634C6.65783 16.136 7.56971 16.4464 8.50797 16.4464C9.44623 16.4464 10.3581 16.136 11.1014 15.5634C11.8447 14.9909 12.3777 14.1884 12.6172 13.2812H14.7422C15.2016 13.277 15.6407 13.0916 15.964 12.7653C16.2874 12.439 16.4688 11.9981 16.4688 11.5387V3.1875C16.4688 3.0466 16.4128 2.91148 16.3132 2.81185C16.2135 2.71222 16.0784 2.65625 15.9375 2.65625ZM8.5 15.4062C7.86957 15.4062 7.2533 15.2193 6.72912 14.8691C6.20494 14.5188 5.79639 14.021 5.55513 13.4386C5.31388 12.8561 5.25076 12.2152 5.37375 11.5969C5.49674 10.9786 5.80032 10.4106 6.2461 9.96485C6.69188 9.51907 7.25984 9.21549 7.87815 9.0925C8.49646 8.96951 9.13736 9.03263 9.7198 9.27388C10.3022 9.51514 10.8001 9.92369 11.1503 10.4479C11.5006 10.9721 11.6875 11.5883 11.6875 12.2187C11.6875 13.0641 11.3517 13.8749 10.7539 14.4727C10.1561 15.0704 9.34538 15.4062 8.5 15.4062ZM15.4062 5.3125H9.5625C9.4216 5.3125 9.28648 5.36847 9.18685 5.4681C9.08722 5.56773 9.03125 5.70285 9.03125 5.84375C9.03125 5.98465 9.08722 6.11977 9.18685 6.2194C9.28648 6.31903 9.4216 6.375 9.5625 6.375H15.4062V11.5387C15.4062 11.7191 15.3346 11.8921 15.2071 12.0196C15.0796 12.1471 14.9066 12.2187 14.7262 12.2187H12.75C12.75 11.0916 12.3022 10.0106 11.5052 9.21354C10.7082 8.41652 9.62717 7.96875 8.5 7.96875C7.37283 7.96875 6.29183 8.41652 5.4948 9.21354C4.69777 10.0106 4.25 11.0916 4.25 12.2187H2.27375C2.0934 12.2187 1.92044 12.1471 1.79292 12.0196C1.66539 11.8921 1.59375 11.7191 1.59375 11.5387V2.27375C1.59375 2.0934 1.66539 1.92044 1.79292 1.79292C1.92044 1.66539 2.0934 1.59375 2.27375 1.59375H5.3125V3.1875C5.3125 3.3284 5.36847 3.46352 5.4681 3.56315C5.56773 3.66278 5.70285 3.71875 5.84375 3.71875H15.4062V5.3125Z" fill="#002c8a" fill-opacity="0.2"/>
<path d="M4.78142 5.84379C4.78142 5.98469 4.83739 6.11981 4.93702 6.21944C5.03665 6.31907 5.17178 6.37504 5.31267 6.37504H7.43767C7.57857 6.37504 7.71369 6.31907 7.81332 6.21944C7.91295 6.11981 7.96892 5.98469 7.96892 5.84379C7.96892 5.70289 7.91295 5.56777 7.81332 5.46814C7.71369 5.36851 7.57857 5.31254 7.43767 5.31254H5.31267C5.17178 5.31254 5.03665 5.36851 4.93702 5.46814C4.83739 5.56777 4.78142 5.70289 4.78142 5.84379ZM3.47986 5.40285C3.4528 5.38173 3.42223 5.36555 3.38955 5.35504C3.35851 5.33534 3.32439 5.32097 3.28861 5.31254C3.22044 5.29686 3.1496 5.29686 3.08142 5.31254C3.04816 5.31843 3.01594 5.32917 2.9858 5.34442C2.95189 5.35592 2.91972 5.37201 2.89017 5.39223L2.81048 5.45598C2.75996 5.50687 2.72026 5.56747 2.69378 5.63412C2.6673 5.70077 2.6546 5.7721 2.65642 5.84379C2.65602 5.91371 2.66942 5.98301 2.69586 6.04774C2.72229 6.11247 2.76125 6.17134 2.81048 6.22098C2.86212 6.2679 2.92142 6.30564 2.9858 6.33254C3.04939 6.36065 3.11815 6.37516 3.18767 6.37516C3.2572 6.37516 3.32596 6.36065 3.38955 6.33254C3.45388 6.30554 3.51316 6.26782 3.56486 6.22098C3.6141 6.17134 3.65305 6.11247 3.67949 6.04774C3.70593 5.98301 3.71933 5.91371 3.71892 5.84379C3.71697 5.70313 3.66194 5.56841 3.56486 5.4666L3.47986 5.40285ZM10.0939 11.6875H9.03142V10.0938C9.03142 9.95289 8.97545 9.81777 8.87582 9.71814C8.7762 9.61851 8.64107 9.56254 8.50017 9.56254C8.35928 9.56254 8.22415 9.61851 8.12452 9.71814C8.02489 9.81777 7.96892 9.95289 7.96892 10.0938V12.2188C7.96892 12.3597 8.02489 12.4948 8.12452 12.5944C8.22415 12.6941 8.35928 12.75 8.50017 12.75H10.0939C10.2348 12.75 10.3699 12.6941 10.4696 12.5944C10.5692 12.4948 10.6252 12.3597 10.6252 12.2188C10.6252 12.0779 10.5692 11.9428 10.4696 11.8431C10.3699 11.7435 10.2348 11.6875 10.0939 11.6875Z" fill="#002c8a"/>
<path d="M4.78142 5.84379C4.78142 5.98469 4.83739 6.11981 4.93702 6.21944C5.03665 6.31907 5.17178 6.37504 5.31267 6.37504H7.43767C7.57857 6.37504 7.71369 6.31907 7.81332 6.21944C7.91295 6.11981 7.96892 5.98469 7.96892 5.84379C7.96892 5.70289 7.91295 5.56777 7.81332 5.46814C7.71369 5.36851 7.57857 5.31254 7.43767 5.31254H5.31267C5.17178 5.31254 5.03665 5.36851 4.93702 5.46814C4.83739 5.56777 4.78142 5.70289 4.78142 5.84379ZM3.47986 5.40285C3.4528 5.38173 3.42223 5.36555 3.38955 5.35504C3.35851 5.33534 3.32439 5.32097 3.28861 5.31254C3.22044 5.29686 3.1496 5.29686 3.08142 5.31254C3.04816 5.31843 3.01594 5.32917 2.9858 5.34442C2.95189 5.35592 2.91972 5.37201 2.89017 5.39223L2.81048 5.45598C2.75996 5.50687 2.72026 5.56747 2.69378 5.63412C2.6673 5.70077 2.6546 5.7721 2.65642 5.84379C2.65602 5.91371 2.66942 5.98301 2.69586 6.04774C2.72229 6.11247 2.76125 6.17134 2.81048 6.22098C2.86212 6.2679 2.92142 6.30564 2.9858 6.33254C3.04939 6.36065 3.11815 6.37516 3.18767 6.37516C3.2572 6.37516 3.32596 6.36065 3.38955 6.33254C3.45388 6.30554 3.51316 6.26782 3.56486 6.22098C3.6141 6.17134 3.65305 6.11247 3.67949 6.04774C3.70593 5.98301 3.71933 5.91371 3.71892 5.84379C3.71697 5.70313 3.66194 5.56841 3.56486 5.4666L3.47986 5.40285ZM10.0939 11.6875H9.03142V10.0938C9.03142 9.95289 8.97545 9.81777 8.87582 9.71814C8.7762 9.61851 8.64107 9.56254 8.50017 9.56254C8.35928 9.56254 8.22415 9.61851 8.12452 9.71814C8.02489 9.81777 7.96892 9.95289 7.96892 10.0938V12.2188C7.96892 12.3597 8.02489 12.4948 8.12452 12.5944C8.22415 12.6941 8.35928 12.75 8.50017 12.75H10.0939C10.2348 12.75 10.3699 12.6941 10.4696 12.5944C10.5692 12.4948 10.6252 12.3597 10.6252 12.2188C10.6252 12.0779 10.5692 11.9428 10.4696 11.8431C10.3699 11.7435 10.2348 11.6875 10.0939 11.6875Z" fill="#002c8a" fill-opacity="0.2"/>
</g>
<defs>
<clipPath id="clip0_86_236">
<rect width="17" height="17" fill="#002c8a"/>
</clipPath>
</defs>
</svg>
