<svg width="38" height="38" viewBox="0 0 38 38" fill="none" xmlns="http://www.w3.org/2000/svg">
<g clip-path="url(#clip0_216_712)">
<path d="M12.6669 17.0367C12.3643 17.0367 12.0582 17.0367 11.7486 17.0367C10.4954 16.9914 9.24622 17.2042 8.07867 17.6618C6.91111 18.1193 5.85005 18.812 4.96134 19.6967L4.70801 19.9923V28.7323H9.01467V23.7712L9.59523 23.1167L9.85912 22.8106C11.2334 21.3988 12.9443 20.3599 14.8308 19.7917C13.8863 19.073 13.1414 18.1246 12.6669 17.0367Z" fill="#50B6FF"/>
<path d="M33.0811 19.665C32.1924 18.7803 31.1313 18.0876 29.9638 17.63C28.7962 17.1724 27.5471 16.9597 26.2939 17.005C25.9095 17.0061 25.5255 17.0272 25.1433 17.0683C24.66 18.0889 23.9354 18.9765 23.0322 19.6544C25.0462 20.2116 26.8706 21.3063 28.31 22.8211L28.5739 23.1167L29.1439 23.7711V28.7428H33.3028V19.9605L33.0811 19.665Z" fill="#50B6FF"/>
<path d="M11.7169 14.9785C11.833 14.9785 11.928 14.9785 12.0441 14.9785C11.892 13.673 12.1211 12.3514 12.7036 11.1733C13.2861 9.99512 14.1972 9.01076 15.3269 8.33901C14.9174 7.71343 14.3524 7.20493 13.6874 6.86328C13.0223 6.52164 12.2799 6.35858 11.5329 6.39006C10.7859 6.42154 10.0599 6.64648 9.4259 7.04287C8.79194 7.43925 8.27179 7.99348 7.91639 8.65129C7.56098 9.3091 7.38251 10.0479 7.39844 10.7954C7.41437 11.543 7.62417 12.2735 8.00727 12.9156C8.39038 13.5577 8.93367 14.0892 9.58395 14.4582C10.2342 14.8272 10.9692 15.0211 11.7169 15.0207V14.9785Z" fill="#50B6FF"/>
<path d="M25.7875 14.1866C25.8003 14.4292 25.8003 14.6723 25.7875 14.9149C25.9901 14.947 26.1947 14.9646 26.3998 14.9677H26.6003C27.3447 14.928 28.0661 14.6962 28.6944 14.2949C29.3226 13.8937 29.8362 13.3366 30.1852 12.6779C30.5343 12.0192 30.7068 11.2813 30.686 10.5362C30.6652 9.79101 30.4518 9.06393 30.0666 8.42572C29.6814 7.7875 29.1375 7.25991 28.4879 6.89429C27.8383 6.52867 27.105 6.33749 26.3596 6.33937C25.6141 6.34124 24.8819 6.53611 24.2341 6.90499C23.5863 7.27387 23.0451 7.8042 22.6631 8.44434C23.6185 9.06811 24.404 9.91927 24.9494 10.9215C25.4947 11.9237 25.7827 13.0456 25.7875 14.1866Z" fill="#50B6FF"/>
<path d="M18.8629 18.9157C21.4687 18.9157 23.5812 16.8032 23.5812 14.1973C23.5812 11.5915 21.4687 9.479 18.8629 9.479C16.257 9.479 14.1445 11.5915 14.1445 14.1973C14.1445 16.8032 16.257 18.9157 18.8629 18.9157Z" fill="#50B6FF"/>
<path d="M19.1165 21.4279C17.738 21.3723 16.3625 21.5961 15.0728 22.0858C13.783 22.5756 12.6056 23.3213 11.6115 24.2779L11.3477 24.5735V31.2551C11.3518 31.4728 11.3987 31.6875 11.4858 31.887C11.573 32.0865 11.6985 32.2668 11.8554 32.4178C12.0122 32.5687 12.1972 32.6873 12.3999 32.7667C12.6026 32.8462 12.8189 32.8849 13.0365 32.8807H25.1649C25.3825 32.8849 25.5989 32.8462 25.8015 32.7667C26.0042 32.6873 26.1892 32.5687 26.3461 32.4178C26.5029 32.2668 26.6285 32.0865 26.7156 31.887C26.8027 31.6875 26.8496 31.4728 26.8538 31.2551V24.5946L26.6004 24.2779C25.6128 23.3183 24.4395 22.5706 23.1526 22.0805C21.8657 21.5904 20.4923 21.3684 19.1165 21.4279Z" fill="#50B6FF"/>
</g>
<defs>
<clipPath id="clip0_216_712">
<rect width="38" height="38" fill="white"/>
</clipPath>
</defs>
</svg>
