<svg width="21" height="21" viewBox="0 0 21 21" fill="none" xmlns="http://www.w3.org/2000/svg">
<path d="M11.7142 3H10.4642H7.13086C5.75015 3 4.63086 4.11929 4.63086 5.5V15.5C4.63086 16.8807 5.75015 18 7.13086 18H10.4642M11.7142 3L16.2975 7.6875M11.7142 3V6.85417C11.7142 7.3144 12.0873 7.6875 12.5475 7.6875H16.2975M16.2975 7.6875V10.3437" stroke="white" stroke-linecap="round" stroke-linejoin="round"/>
<path d="M13.5545 17.0713V11.8213M13.5545 11.8213L15.6031 14.0088M13.5545 11.8213L11.5059 14.0088" stroke="white" stroke-linecap="round" stroke-linejoin="round"/>
<path d="M11.1953 10.4802H9.41125V12.2802H8.89125V10.4802H7.11525V10.0002H8.89125V8.2002H9.41125V10.0002H11.1953V10.4802Z" fill="white"/>
</svg>
