<svg width="60" height="60" viewBox="0 0 60 60" fill="none" xmlns="http://www.w3.org/2000/svg">
<path opacity="0.5" d="M42.5 22.5049C47.9375 22.5352 50.8822 22.7763 52.8032 24.6973C55 26.894 55 30.4295 55 37.5005V40.0005C55 47.0715 55 50.6073 52.8032 52.8038C50.6065 55.0005 47.071 55.0005 40 55.0005H20C12.9289 55.0005 9.3934 55.0005 7.1967 52.8038C5 50.6073 5 47.0715 5 40.0005V37.5005C5 30.4295 5 26.894 7.1967 24.6972C9.11765 22.7763 12.0624 22.5352 17.5 22.5049" stroke="#606060" stroke-width="3.75" stroke-linecap="round"/>
<path d="M30 37.5V5M30 5L37.5 13.75M30 5L22.5 13.75" stroke="#606060" stroke-width="3.75" stroke-linecap="round" stroke-linejoin="round"/>
</svg>
