<svg width="29" height="26" viewBox="0 0 29 26" fill="none" xmlns="http://www.w3.org/2000/svg">
<path opacity="0.3" d="M22.9867 10.8107C23.3224 11.4163 23.4903 11.7191 23.4903 12.4657C23.4903 13.2123 23.3224 13.5151 22.9867 14.1207C21.8454 16.1792 19.2711 19.4264 14.3877 19.4264C9.50439 19.4264 6.93012 16.1792 5.78875 14.1207C5.45302 13.5151 5.28516 13.2123 5.28516 12.4657C5.28516 11.7191 5.45302 11.4163 5.78875 10.8107C6.93012 8.75205 9.50439 5.50488 14.3877 5.50488C19.2711 5.50488 21.8454 8.75205 22.9867 10.8107Z" fill="#606060"/>
<path d="M14.3887 17.2849C16.4588 17.2849 18.1369 15.3671 18.1369 13.0013C18.1369 10.6356 16.4588 8.71777 14.3887 8.71777C12.3187 8.71777 10.6406 10.6356 10.6406 13.0013C10.6406 15.3671 12.3187 17.2849 14.3887 17.2849Z" fill="#606060"/>
<path d="M22.136 1.2207H22.4178C24.9419 1.2207 26.204 1.2207 26.9881 1.99193C27.7722 2.76315 27.7722 4.00442 27.7722 6.48696V6.76413M22.136 24.7803H22.4178C24.9419 24.7803 26.204 24.7803 26.9881 24.009C27.7722 23.2378 27.7722 21.9965 27.7722 19.514V19.2368M6.63626 1.2207H6.35445C3.83033 1.2207 2.56828 1.2207 1.78414 1.99193C1 2.76315 1 4.00442 1 6.48696V6.76413M6.63626 24.7803H6.35445C3.83033 24.7803 2.56828 24.7803 1.78414 24.009C1 23.2378 1 21.9965 1 19.514V19.2368" stroke="#606060" stroke-linecap="round"/>
</svg>
