<svg width="25" height="25" viewBox="0 0 25 25" fill="none" xmlns="http://www.w3.org/2000/svg">
<path fill-rule="evenodd" clip-rule="evenodd" d="M12.5 24.2188C18.5406 24.2188 23.4375 19.3219 23.4375 13.2812C23.4375 7.24063 18.5406 2.34375 12.5 2.34375C6.45938 2.34375 1.5625 7.24063 1.5625 13.2812C1.5625 15.2429 2.07891 17.0839 2.98318 18.6758L1.5625 24.2188L7.27723 22.8936C8.82922 23.7386 10.6085 24.2188 12.5 24.2188ZM12.5 22.5361C17.6113 22.5361 21.7548 18.3926 21.7548 13.2812C21.7548 8.17 17.6113 4.02645 12.5 4.02645C7.38871 4.02645 3.2452 8.17 3.2452 13.2812C3.2452 15.2548 3.86289 17.084 4.9155 18.5861L4.08654 21.6947L7.24995 20.9038C8.74172 21.9333 10.5505 22.5361 12.5 22.5361Z" fill="#BFC8D0"/>
<path d="M21.875 12.5C21.875 17.6777 17.6777 21.875 12.5 21.875C10.5252 21.875 8.69289 21.2644 7.18177 20.2216L3.97727 21.0227L4.817 17.8738C3.75072 16.3521 3.125 14.4991 3.125 12.5C3.125 7.32233 7.32233 3.125 12.5 3.125C17.6777 3.125 21.875 7.32233 21.875 12.5Z" fill="url(#paint0_linear_459_962)"/>
<path fill-rule="evenodd" clip-rule="evenodd" d="M12.5 23.4375C18.5406 23.4375 23.4375 18.5406 23.4375 12.5C23.4375 6.45938 18.5406 1.5625 12.5 1.5625C6.45938 1.5625 1.5625 6.45938 1.5625 12.5C1.5625 14.4616 2.07891 16.3027 2.98318 17.8945L1.5625 23.4375L7.27723 22.1123C8.82922 22.9573 10.6085 23.4375 12.5 23.4375ZM12.5 21.7548C17.6113 21.7548 21.7548 17.6113 21.7548 12.5C21.7548 7.38871 17.6113 3.2452 12.5 3.2452C7.38871 3.2452 3.2452 7.38871 3.2452 12.5C3.2452 14.4735 3.86289 16.3027 4.9155 17.8048L4.08654 20.9134L7.24995 20.1226C8.74172 21.152 10.5505 21.7548 12.5 21.7548Z" fill="white"/>
<path d="M9.76465 7.42196C9.50465 6.89963 9.10566 6.94587 8.7027 6.94587C7.98246 6.94587 6.85938 7.80859 6.85938 9.41423C6.85938 10.7301 7.43922 12.1705 9.39309 14.3252C11.2787 16.4048 13.7564 17.4805 15.8132 17.4438C17.8701 17.4073 18.2933 15.6372 18.2933 15.0395C18.2933 14.7745 18.1289 14.6424 18.0157 14.6064C17.3147 14.27 16.0219 13.6432 15.7278 13.5255C15.4336 13.4077 15.28 13.567 15.1846 13.6537C14.9179 13.9078 14.3891 14.657 14.208 14.8256C14.027 14.9941 13.7571 14.9088 13.6447 14.8451C13.2314 14.6792 12.1107 14.1807 11.2174 13.3147C10.1125 12.2438 10.0477 11.8752 9.83957 11.5473C9.67309 11.2849 9.79527 11.1239 9.85621 11.0535C10.0943 10.7789 10.4229 10.3549 10.5704 10.1442C10.7177 9.93337 10.6007 9.61345 10.5305 9.41423C10.2286 8.5572 9.9727 7.83978 9.76465 7.42196Z" fill="white"/>
<defs>
<linearGradient id="paint0_linear_459_962" x1="20.7031" y1="5.46875" x2="3.125" y2="21.875" gradientUnits="userSpaceOnUse">
<stop offset="1" stop-color="#27B43E"/>
</linearGradient>
</defs>
</svg>
