<svg width="23" height="22" viewBox="0 0 23 22" fill="none" xmlns="http://www.w3.org/2000/svg">
<path d="M11.5 11H11.49ZM11.5 4.14286H11.49ZM11.5 17.8571H11.49ZM10.5 11C10.5 11.6312 10.9477 12.1429 11.5 12.1429C12.0523 12.1429 12.5 11.6312 12.5 11C12.5 10.3688 12.0523 9.85714 11.5 9.85714C10.9477 9.85714 10.5 10.3688 10.5 11ZM10.5 17.8571C10.5 18.4883 10.9477 19 11.5 19C12.0523 19 12.5 18.4883 12.5 17.8571C12.5 17.2259 12.0523 16.7143 11.5 16.7143C10.9477 16.7143 10.5 17.2259 10.5 17.8571ZM10.5 4.14286C10.5 4.77403 10.9477 5.28571 11.5 5.28571C12.0523 5.28571 12.5 4.77403 12.5 4.14286C12.5 3.51168 12.0523 3 11.5 3C10.9477 3 10.5 3.51168 10.5 4.14286Z" fill="#fff"/>
</svg>
