<svg width="20" height="21" viewBox="0 0 20 21" fill="none" xmlns="http://www.w3.org/2000/svg">
<path d="M10 0.875C7.44729 0.875 4.99913 1.88906 3.1941 3.6941C1.38906 5.49913 0.375 7.94729 0.375 10.5C0.375 13.0527 1.38906 15.5009 3.1941 17.3059C4.99913 19.1109 7.44729 20.125 10 20.125C12.5527 20.125 15.0009 19.1109 16.8059 17.3059C18.6109 15.5009 19.625 13.0527 19.625 10.5C19.625 7.94729 18.6109 5.49913 16.8059 3.6941C15.0009 1.88906 12.5527 0.875 10 0.875ZM10 2.25C12.188 2.25 14.2865 3.11919 15.8336 4.66637C17.3808 6.21354 18.25 8.31196 18.25 10.5C18.25 12.688 17.3808 14.7865 15.8336 16.3336C14.2865 17.8808 12.188 18.75 10 18.75C7.81196 18.75 5.71354 17.8808 4.16637 16.3336C2.61919 14.7865 1.75 12.688 1.75 10.5C1.75 8.31196 2.61919 6.21354 4.16637 4.66637C5.71354 3.11919 7.81196 2.25 10 2.25Z" fill="#50B6FF"/>
<path d="M7.25 6.375L14.125 10.5L7.25 14.625V6.375Z" fill="#002c8a"/>
</svg>
