<svg width="13" height="15" viewBox="0 0 13 15" fill="none" xmlns="http://www.w3.org/2000/svg">
<path fill-rule="evenodd" clip-rule="evenodd" d="M0 1.66602V12.6464C0 13.9459 1.04934 14.9993 2.34375 14.9993H10.1562C11.4507 14.9993 12.5 13.9459 12.5 12.6464V4.80328C12.5 3.50378 11.4507 2.45033 10.1562 2.45033H0.78125C0.349781 2.45033 0 2.09918 0 1.66602ZM2.53906 7.15619C2.53906 6.83133 2.8014 6.56796 3.125 6.56796H9.375C9.69859 6.56796 9.96094 6.83133 9.96094 7.15619C9.96094 7.48106 9.69859 7.74443 9.375 7.74443H3.125C2.8014 7.74443 2.53906 7.48106 2.53906 7.15619ZM2.53906 9.9013C2.53906 9.57643 2.8014 9.31306 3.125 9.31306H7.42188C7.74547 9.31306 8.00781 9.57643 8.00781 9.9013C8.00781 10.2262 7.74547 10.4895 7.42188 10.4895H3.125C2.8014 10.4895 2.53906 10.2262 2.53906 9.9013Z" fill="#002c8a"/>
<path opacity="0.5" d="M10 1.29389V2.5C9.77657 2.42849 9.53614 2.38959 9.28571 2.38959H0.714286C0.3198 2.38959 0 2.09999 0 1.74276V1.69681C0 1.35204 0.27995 1.05974 0.65685 1.01098L8.36943 0.0132457C9.23 -0.0980922 10 0.506643 10 1.29389Z" fill="#002c8a"/>
</svg>
