<svg width="22" height="21" viewBox="0 0 22 21" fill="none" xmlns="http://www.w3.org/2000/svg">
<g clip-path="url(#clip0_606_52980)">
<path fill-rule="evenodd" clip-rule="evenodd" d="M12.9414 19.7637V1.23393H10.3531L5.17657 6.1752V14.8224L10.3531 19.7637H12.9414ZM19.1581 17.0505C20.9919 15.3001 22 12.9728 22 10.4984C22 8.02409 20.9919 5.69799 19.1581 3.94755L18.2431 4.82091C19.8323 6.33666 20.7059 8.35392 20.7059 10.4984C20.7059 12.6442 19.8323 14.6602 18.2431 16.1772L19.1581 17.0505ZM3.88243 14.8224V6.1752H1.94121C0.867075 6.1752 0 7.00286 0 8.02817V12.9694C0 13.9947 0.867075 14.8224 1.94121 14.8224H3.88243ZM16.4169 14.4277C17.5144 13.3666 18.1174 11.9707 18.1174 10.4994C18.1174 9.02692 17.5144 7.63102 16.4169 6.56987L15.4968 7.43584C16.3522 8.26596 16.8233 9.35428 16.8233 10.4994C16.8233 11.6433 16.3522 12.7316 15.4968 13.5618L16.4169 14.4277Z" fill="#002c8a"/>
</g>
<defs>
<clipPath id="clip0_606_52980">
<rect width="22" height="21" fill="white" transform="matrix(1 0 0 -1 0 21)"/>
</clipPath>
</defs>
</svg>
