<svg width="14" height="14" viewBox="0 0 14 14" fill="none" xmlns="http://www.w3.org/2000/svg">
<mask id="path-1-inside-1_603_1007" fill="white">
<path d="M9.07445 8.48616L8.80874 8.76587C8.80874 8.76587 8.17722 9.43075 6.45347 7.61594C4.72974 5.80116 5.36124 5.13629 5.36124 5.13629L5.52855 4.96015C5.94072 4.52622 5.97957 3.82957 5.61997 3.32097L4.8844 2.28061C4.43933 1.65113 3.57931 1.56797 3.06918 2.10504L2.15358 3.069C1.90063 3.3353 1.73113 3.68051 1.75168 4.06346C1.80427 5.04318 2.22291 7.15108 4.55896 9.61053C7.03622 12.2186 9.36063 12.3223 10.3112 12.2285C10.6118 12.1988 10.8733 12.0367 11.084 11.8148L11.9127 10.9424C12.472 10.3535 12.3143 9.34395 11.5986 8.932L10.4841 8.29051C10.0142 8.02002 9.44172 8.09947 9.07445 8.48616Z"/>
</mask>
<path d="M9.07445 8.48616L8.80874 8.76587C8.80874 8.76587 8.17722 9.43075 6.45347 7.61594C4.72974 5.80116 5.36124 5.13629 5.36124 5.13629L5.52855 4.96015C5.94072 4.52622 5.97957 3.82957 5.61997 3.32097L4.8844 2.28061C4.43933 1.65113 3.57931 1.56797 3.06918 2.10504L2.15358 3.069C1.90063 3.3353 1.73113 3.68051 1.75168 4.06346C1.80427 5.04318 2.22291 7.15108 4.55896 9.61053C7.03622 12.2186 9.36063 12.3223 10.3112 12.2285C10.6118 12.1988 10.8733 12.0367 11.084 11.8148L11.9127 10.9424C12.472 10.3535 12.3143 9.34395 11.5986 8.932L10.4841 8.29051C10.0142 8.02002 9.44172 8.09947 9.07445 8.48616Z" fill="white"/>
<path d="M9.07445 8.48616L33.2417 31.4438L33.2439 31.4415L9.07445 8.48616ZM8.80874 8.76587L-15.3585 -14.1918L-15.3601 -14.1901L8.80874 8.76587ZM6.45347 7.61594L30.6222 -15.3401L30.6222 -15.3402L6.45347 7.61594ZM5.36124 5.13629L-18.8071 -17.8203L-18.8075 -17.8198L5.36124 5.13629ZM5.52855 4.96015L-18.6397 -17.9965L-18.6398 -17.9964L5.52855 4.96015ZM5.61997 3.32097L-21.5976 22.5646L-21.5972 22.565L5.61997 3.32097ZM4.8844 2.28061L32.1019 -16.963L32.1017 -16.9633L4.8844 2.28061ZM3.06918 2.10504L-21.0994 -20.8513L-21.0995 -20.8512L3.06918 2.10504ZM2.15358 3.069L26.3222 26.0253L26.3222 26.0252L2.15358 3.069ZM1.75168 4.06346L35.0371 2.27683L35.0371 2.27672L1.75168 4.06346ZM4.55896 9.61053L-19.6098 32.5666L-19.6096 32.5668L4.55896 9.61053ZM10.3112 12.2285L13.5846 45.4007L13.5872 45.4004L10.3112 12.2285ZM11.084 11.8148L-13.0845 -11.1416L-13.0854 -11.1406L11.084 11.8148ZM11.9127 10.9424L-12.2555 -12.0143L-12.2558 -12.014L11.9127 10.9424ZM11.5986 8.932L-5.03031 37.8213L-5.03007 37.8214L11.5986 8.932ZM10.4841 8.29051L27.113 -20.5988L27.1128 -20.5989L10.4841 8.29051ZM-15.0928 -14.4715L-15.3585 -14.1918L32.976 31.7235L33.2417 31.4438L-15.0928 -14.4715ZM8.80874 8.76587C-15.3601 -14.1901 -15.3295 -14.2223 -15.2988 -14.2545C-15.2885 -14.2652 -15.2577 -14.2975 -15.2371 -14.319C-15.1958 -14.362 -15.1542 -14.4051 -15.1124 -14.4482C-15.0287 -14.5344 -14.9438 -14.6209 -14.8578 -14.7076C-14.6859 -14.8809 -14.5093 -15.0552 -14.328 -15.23C-13.9654 -15.5796 -13.5831 -15.9322 -13.1806 -16.2853C-12.3759 -16.9912 -11.486 -17.7028 -10.5062 -18.3978C-8.53864 -19.7933 -6.22 -21.1129 -3.54779 -22.1669C2.06994 -24.3828 8.01754 -24.9408 13.6207 -24.0308C23.8026 -22.3774 29.4684 -16.5549 30.6222 -15.3401L-17.7153 30.572C-14.8377 33.6016 -7.99422 39.999 2.93431 41.7738C8.91084 42.7443 15.1241 42.1335 20.9141 39.8497C23.6724 38.7617 26.0538 37.4043 28.0627 35.9795C29.0631 35.2699 29.9683 34.5458 30.783 33.8311C31.1906 33.4735 31.5766 33.1174 31.9417 32.7654C32.1243 32.5894 32.3018 32.4143 32.4744 32.2403C32.5607 32.1533 32.6458 32.0666 32.7296 31.9802C32.7715 31.9369 32.8132 31.8938 32.8545 31.8508C32.8751 31.8293 32.906 31.797 32.9163 31.7862C32.947 31.7541 32.9776 31.7218 8.80874 8.76587ZM30.6222 -15.3402C31.9758 -13.9151 36.8783 -8.44533 38.2422 0.863226C38.9763 5.87367 38.5452 11.2407 36.6938 16.4435C35.8039 18.9445 34.6669 21.1776 33.4147 23.1345C32.7918 24.108 32.1453 25.0056 31.4928 25.83C31.1666 26.2422 30.8387 26.6364 30.5111 27.0131C30.3473 27.2014 30.1835 27.3855 30.0199 27.5653C29.9381 27.6552 29.8564 27.7441 29.7747 27.8319C29.7339 27.8759 29.6931 27.9195 29.6523 27.9629C29.6319 27.9846 29.6013 28.017 29.5911 28.0278C29.5606 28.0601 29.53 28.0924 5.36124 5.13629C-18.8075 -17.8198 -18.8381 -17.7875 -18.8687 -17.7552C-18.8789 -17.7444 -18.9095 -17.712 -18.9299 -17.6903C-18.9707 -17.6468 -19.0116 -17.6031 -19.0525 -17.5591C-19.1343 -17.4711 -19.2162 -17.382 -19.2983 -17.2918C-19.4625 -17.1113 -19.6272 -16.9262 -19.7921 -16.7366C-20.122 -16.3572 -20.4533 -15.9591 -20.7837 -15.5416C-21.4446 -14.7065 -22.1029 -13.7929 -22.7398 -12.7977C-24.0197 -10.7974 -25.1926 -8.49812 -26.1148 -5.9064C-28.0307 -0.52227 -28.512 5.12441 -27.7202 10.5279C-26.2412 20.6226 -20.7926 27.3322 -17.7152 30.5721L30.6222 -15.3402ZM29.5295 28.0929L29.6969 27.9167L-18.6398 -17.9964L-18.8071 -17.8203L29.5295 28.0929ZM29.6968 27.9168C41.7105 15.2691 41.8323 -3.20114 32.8372 -15.9231L-21.5972 22.565C-29.8732 10.8603 -29.829 -6.21663 -18.6397 -17.9965L29.6968 27.9168ZM32.8375 -15.9226L32.1019 -16.963L-22.3331 21.5242L-21.5976 22.5646L32.8375 -15.9226ZM32.1017 -16.9633C20.518 -33.3465 -4.95922 -37.8437 -21.0994 -20.8513L27.2377 25.0613C12.1178 40.9797 -11.6394 36.6488 -22.3329 21.5245L32.1017 -16.9633ZM-21.0995 -20.8512L-22.0151 -19.8872L26.3222 26.0252L27.2378 25.0612L-21.0995 -20.8512ZM-22.015 -19.8873C-26.8114 -14.8375 -32.1679 -5.96338 -31.5337 5.85021L35.0371 2.27672C35.6301 13.3244 30.6127 21.5081 26.3222 26.0253L-22.015 -19.8873ZM-31.5337 5.85009C-31.0763 14.3722 -27.6577 24.0936 -19.6098 32.5666L28.7277 -13.3456C30.2074 -11.7877 31.7915 -9.56888 33.0162 -6.66258C34.2327 -3.77604 34.8755 -0.733788 35.0371 2.27683L-31.5337 5.85009ZM-19.6096 32.5668C-9.01658 43.7192 3.99361 46.3471 13.5846 45.4007L7.03772 -20.9437C10.4081 -21.2763 14.4398 -21.0748 18.6519 -19.6554C23.001 -18.1899 26.3876 -15.8093 28.7275 -13.3458L-19.6096 32.5668ZM13.5872 45.4004C24.1818 44.3541 31.3901 38.8378 35.2533 34.7703L-13.0854 -11.1406C-9.64355 -14.7645 -2.95812 -19.9566 7.03517 -20.9435L13.5872 45.4004ZM35.2524 34.7713L36.0811 33.8988L-12.2558 -12.014L-13.0845 -11.1416L35.2524 34.7713ZM36.0808 33.8991C52.0243 17.1143 46.9866 -9.15958 28.2273 -19.9574L-5.03007 37.8214C-22.3581 27.8475 -27.0803 3.59277 -12.2555 -12.0143L36.0808 33.8991ZM28.2275 -19.9573L27.113 -20.5988L-6.14477 37.1798L-5.03031 37.8213L28.2275 -19.9573ZM27.1128 -20.5989C13.6257 -28.362 -3.87572 -26.2819 -15.095 -14.4692L33.2439 31.4415C22.7592 42.4808 6.40268 44.402 -6.14451 37.1799L27.1128 -20.5989Z" fill="white" mask="url(#path-1-inside-1_603_1007)"/>
<mask id="path-3-inside-2_603_1007" fill="white">
<path d="M7.73405 1.09592C7.77267 0.857399 7.99812 0.6956 8.23665 0.73421C8.25141 0.73704 8.29895 0.745918 8.3238 0.75146C8.37362 0.762549 8.44303 0.779611 8.5296 0.804829C8.70273 0.855252 8.94458 0.938325 9.23485 1.0714C9.81602 1.33784 10.5894 1.80393 11.392 2.60648C12.1945 3.40903 12.6606 4.18242 12.927 4.76358C13.0601 5.05386 13.1432 5.29571 13.1936 5.46883C13.2188 5.5554 13.2359 5.62484 13.247 5.67461C13.2525 5.6995 13.2566 5.71948 13.2594 5.73425L13.2628 5.75245C13.3013 5.99094 13.141 6.22579 12.9025 6.26441C12.6647 6.30291 12.4406 6.14185 12.4011 5.90449C12.3998 5.89808 12.3965 5.88098 12.3929 5.86483C12.3857 5.83251 12.3732 5.78128 12.3535 5.71352C12.314 5.57799 12.2455 5.37655 12.1316 5.12824C11.9042 4.63222 11.4953 3.94729 10.7732 3.2252C10.0512 2.50311 9.36622 2.0942 8.87021 1.8668C8.62188 1.75296 8.42046 1.6844 8.28489 1.64492C8.21717 1.62518 8.132 1.60563 8.09968 1.59844C7.86227 1.55887 7.69555 1.33375 7.73405 1.09592Z"/>
</mask>
<path d="M7.73405 1.09592C7.77267 0.857399 7.99812 0.6956 8.23665 0.73421C8.25141 0.73704 8.29895 0.745918 8.3238 0.75146C8.37362 0.762549 8.44303 0.779611 8.5296 0.804829C8.70273 0.855252 8.94458 0.938325 9.23485 1.0714C9.81602 1.33784 10.5894 1.80393 11.392 2.60648C12.1945 3.40903 12.6606 4.18242 12.927 4.76358C13.0601 5.05386 13.1432 5.29571 13.1936 5.46883C13.2188 5.5554 13.2359 5.62484 13.247 5.67461C13.2525 5.6995 13.2566 5.71948 13.2594 5.73425L13.2628 5.75245C13.3013 5.99094 13.141 6.22579 12.9025 6.26441C12.6647 6.30291 12.4406 6.14185 12.4011 5.90449C12.3998 5.89808 12.3965 5.88098 12.3929 5.86483C12.3857 5.83251 12.3732 5.78128 12.3535 5.71352C12.314 5.57799 12.2455 5.37655 12.1316 5.12824C11.9042 4.63222 11.4953 3.94729 10.7732 3.2252C10.0512 2.50311 9.36622 2.0942 8.87021 1.8668C8.62188 1.75296 8.42046 1.6844 8.28489 1.64492C8.21717 1.62518 8.132 1.60563 8.09968 1.59844C7.86227 1.55887 7.69555 1.33375 7.73405 1.09592Z" fill="white"/>
<path d="M7.73405 1.09592L-25.1708 -4.23144L-25.171 -4.23061L7.73405 1.09592ZM8.23665 0.73421L14.5124 -32.003L14.0389 -32.0938L13.5631 -32.1708L8.23665 0.73421ZM8.3238 0.75146L1.06853 33.2856L1.08109 33.2884L8.3238 0.75146ZM8.5296 0.804829L-0.793133 32.8079L-0.791145 32.8085L8.5296 0.804829ZM9.23485 1.0714L-4.65683 31.3721L-4.65672 31.3721L9.23485 1.0714ZM12.927 4.76358L-17.3743 18.6539L-17.3723 18.6583L12.927 4.76358ZM13.1936 5.46883L45.1986 -3.84736L45.1982 -3.84852L13.1936 5.46883ZM13.247 5.67461L45.7837 -1.56933L45.7833 -1.57094L13.247 5.67461ZM13.2594 5.73425L46.0312 -0.358317L46.0202 -0.417509L46.009 -0.476661L13.2594 5.73425ZM13.2628 5.75245L46.1688 0.432425L46.1062 0.0453645L46.0346 -0.340117L13.2628 5.75245ZM12.9025 6.26441L18.2293 39.1694L18.2297 39.1693L12.9025 6.26441ZM12.4011 5.90449L45.2811 0.425835L45.2166 0.0389778L45.1431 -0.346256L12.4011 5.90449ZM12.3929 5.86483L44.9462 -1.30396L44.9339 -1.35996L44.9214 -1.41592L12.3929 5.86483ZM12.3535 5.71352L44.3594 -3.5995L44.3559 -3.61183L12.3535 5.71352ZM12.1316 5.12824L-18.1695 19.0189L-18.1679 19.0224L12.1316 5.12824ZM10.7732 3.2252L-12.7976 26.7949L-12.7967 26.7957L10.7732 3.2252ZM8.87021 1.8668L22.7619 -28.4339L22.7615 -28.4341L8.87021 1.8668ZM8.28489 1.64492L-1.04018 33.6473L-1.03533 33.6487L8.28489 1.64492ZM8.09968 1.59844L15.3413 -30.9388L14.4649 -31.1338L13.5794 -31.2814L8.09968 1.59844ZM40.6389 6.42327C37.7202 24.4509 20.7505 36.5271 2.91021 33.6392L13.5631 -32.1708C-4.75426 -35.1359 -22.1749 -22.7361 -25.1708 -4.23144L40.6389 6.42327ZM1.96094 33.4714C1.98122 33.4753 1.99751 33.4784 2.00567 33.48C2.01437 33.4816 2.02157 33.483 2.02416 33.4835C2.03316 33.4852 2.02639 33.4839 2.02252 33.4832C2.01178 33.4811 1.97614 33.4744 1.92875 33.4652C1.8855 33.4568 1.79988 33.4401 1.69004 33.4179C1.63342 33.4064 1.55513 33.3904 1.46148 33.3707C1.37209 33.3519 1.23548 33.3229 1.06853 33.2856L15.5791 -31.7827C15.2638 -31.853 15.0135 -31.904 14.9135 -31.9242C14.7873 -31.9497 14.6842 -31.9699 14.6241 -31.9815C14.5599 -31.994 14.5081 -32.0039 14.4835 -32.0086C14.4727 -32.0106 14.4596 -32.0131 14.4631 -32.0124C14.4633 -32.0124 14.4644 -32.0122 14.466 -32.0119C14.4677 -32.0116 14.4704 -32.011 14.4739 -32.0104C14.4797 -32.0093 14.4939 -32.0066 14.5124 -32.003L1.96094 33.4714ZM1.08109 33.2884C0.463097 33.1509 -0.162361 32.9917 -0.793133 32.8079L17.8523 -31.1983C17.0484 -31.4324 16.2841 -31.6258 15.5665 -31.7855L1.08109 33.2884ZM-0.791145 32.8085C-2.05104 32.4416 -3.34875 31.9718 -4.65683 31.3721L23.1265 -29.2293C21.2379 -30.0951 19.4565 -30.7311 17.8503 -31.1988L-0.791145 32.8085ZM-4.65672 31.3721C-7.31926 30.1515 -9.91539 28.4396 -12.1783 26.1767L34.9622 -20.9637C31.0942 -24.8317 26.9513 -27.4758 23.1264 -29.2293L-4.65672 31.3721ZM-12.1783 26.1767C-14.4411 23.9139 -16.1533 21.3175 -17.3743 18.6539L43.2283 -9.12671C41.4745 -12.9526 38.8301 -17.0958 34.9622 -20.9637L-12.1783 26.1767ZM-17.3723 18.6583C-17.9729 17.3486 -18.4435 16.0487 -18.8111 14.7862L45.1982 -3.84852C44.7299 -5.45731 44.0932 -7.24085 43.2263 -9.13116L-17.3723 18.6583ZM-18.8114 14.785C-18.9919 14.1649 -19.1507 13.543 -19.2894 12.9202L45.7833 -1.57094C45.6224 -2.29332 45.4295 -3.05407 45.1986 -3.84736L-18.8114 14.785ZM-19.2897 12.9185C-19.3486 12.6544 -19.4179 12.3263 -19.4902 11.9452L46.009 -0.476661C45.9311 -0.887357 45.8536 -1.25536 45.7837 -1.56933L-19.2897 12.9185ZM-19.5124 11.8268L-19.509 11.845L46.0346 -0.340117L46.0312 -0.358317L-19.5124 11.8268ZM-19.6433 11.0725C-22.3781 -5.84297 -11.3566 -23.5755 7.57527 -26.6405L18.2297 39.1693C37.6386 36.027 48.9807 17.8249 46.1688 0.432425L-19.6433 11.0725ZM7.57572 -26.6406C25.4621 -29.5361 42.3065 -17.4261 45.2811 0.425835L-20.4789 11.3831C-17.4253 29.7098 -0.13277 42.1419 18.2293 39.1694L7.57572 -26.6406ZM45.1431 -0.346256C45.1006 -0.568742 45.0343 -0.904085 44.9462 -1.30396L-20.1604 13.0336C-20.2082 12.8168 -20.2443 12.6421 -20.266 12.5352C-20.2871 12.4318 -20.3125 12.3041 -20.3409 12.1552L45.1431 -0.346256ZM44.9214 -1.41592C44.7741 -2.07383 44.5903 -2.80599 44.3594 -3.5995L-19.6524 15.0265C-19.8439 14.3686 -20.0028 13.7388 -20.1356 13.1456L44.9214 -1.41592ZM44.3559 -3.61183C43.9004 -5.17481 43.2796 -6.91574 42.4312 -8.76594L-18.1679 19.0224C-18.7886 17.6688 -19.2723 16.3308 -19.6488 15.0389L44.3559 -3.61183ZM42.4328 -8.76245C40.7177 -12.5036 38.1303 -16.5582 34.3432 -20.3453L-12.7967 26.7957C-15.1397 24.4528 -16.9092 21.7681 -18.1695 19.0189L42.4328 -8.76245ZM34.344 -20.3445C30.5565 -24.1322 26.5018 -26.7193 22.7619 -28.4339L-5.0215 32.1675C-7.7694 30.9077 -10.4541 29.1384 -12.7976 26.7949L34.344 -20.3445ZM22.7615 -28.4341C20.9153 -29.2805 19.1743 -29.9019 17.6051 -30.3589L-1.03533 33.6487C-2.33337 33.2707 -3.67149 32.7864 -5.02107 32.1677L22.7615 -28.4341ZM17.61 -30.3575C16.4429 -30.6976 15.4699 -30.9102 15.3413 -30.9388L0.858097 34.1357C0.710288 34.1028 0.51073 34.0572 0.271828 33.9989C0.147795 33.9686 -0.0190596 33.927 -0.217313 33.8751C-0.407195 33.8253 -0.692547 33.7486 -1.04018 33.6473L17.61 -30.3575ZM13.5794 -31.2814C30.8795 -28.3982 43.6228 -12.0099 40.6391 6.42244L-25.171 -4.23061C-28.2317 14.6774 -15.155 31.5159 2.61998 34.4783L13.5794 -31.2814Z" fill="white" mask="url(#path-3-inside-2_603_1007)"/>
<mask id="path-5-inside-3_603_1007" fill="white">
<path fill-rule="evenodd" clip-rule="evenodd" d="M7.86655 3.10844C7.93293 2.87611 8.17507 2.74158 8.40741 2.80796L8.28725 3.22863C8.40741 2.80796 8.40741 2.80796 8.40741 2.80796L8.40829 2.80821L8.40916 2.80846L8.41109 2.80903L8.41564 2.81038L8.42719 2.81397C8.43594 2.81679 8.44696 2.82045 8.46003 2.8251C8.48622 2.8344 8.52087 2.84762 8.56334 2.86582C8.64833 2.90224 8.76441 2.95848 8.9071 3.0429C9.19258 3.21188 9.58236 3.49257 10.0403 3.95047C10.4982 4.40837 10.7788 4.79814 10.9478 5.08367C11.0322 5.2263 11.0885 5.34242 11.1249 5.4274C11.1431 5.46987 11.1564 5.50449 11.1656 5.53069C11.1703 5.54379 11.1739 5.55477 11.1768 5.56357L11.1803 5.57511L11.1817 5.57963L11.1823 5.58158L11.1825 5.58247C11.1825 5.58247 11.1828 5.58331 10.7621 5.7035L11.1828 5.58331C11.2492 5.81564 11.1146 6.05777 10.8823 6.12416C10.652 6.18996 10.4119 6.0583 10.3431 5.82959L10.341 5.8233C10.3379 5.81454 10.3315 5.79728 10.3207 5.77208C10.2991 5.72172 10.26 5.63933 10.1949 5.52932C10.0648 5.30956 9.82987 4.97749 9.42154 4.56918C9.01326 4.16088 8.68117 3.92597 8.46143 3.79591C8.35141 3.73079 8.26905 3.69165 8.21865 3.67007C8.19345 3.65927 8.17618 3.65283 8.16743 3.64972L8.16113 3.64757C7.93246 3.57881 7.80075 3.33879 7.86655 3.10844Z"/>
</mask>
<path fill-rule="evenodd" clip-rule="evenodd" d="M7.86655 3.10844C7.93293 2.87611 8.17507 2.74158 8.40741 2.80796L8.28725 3.22863C8.40741 2.80796 8.40741 2.80796 8.40741 2.80796L8.40829 2.80821L8.40916 2.80846L8.41109 2.80903L8.41564 2.81038L8.42719 2.81397C8.43594 2.81679 8.44696 2.82045 8.46003 2.8251C8.48622 2.8344 8.52087 2.84762 8.56334 2.86582C8.64833 2.90224 8.76441 2.95848 8.9071 3.0429C9.19258 3.21188 9.58236 3.49257 10.0403 3.95047C10.4982 4.40837 10.7788 4.79814 10.9478 5.08367C11.0322 5.2263 11.0885 5.34242 11.1249 5.4274C11.1431 5.46987 11.1564 5.50449 11.1656 5.53069C11.1703 5.54379 11.1739 5.55477 11.1768 5.56357L11.1803 5.57511L11.1817 5.57963L11.1823 5.58158L11.1825 5.58247C11.1825 5.58247 11.1828 5.58331 10.7621 5.7035L11.1828 5.58331C11.2492 5.81564 11.1146 6.05777 10.8823 6.12416C10.652 6.18996 10.4119 6.0583 10.3431 5.82959L10.341 5.8233C10.3379 5.81454 10.3315 5.79728 10.3207 5.77208C10.2991 5.72172 10.26 5.63933 10.1949 5.52932C10.0648 5.30956 9.82987 4.97749 9.42154 4.56918C9.01326 4.16088 8.68117 3.92597 8.46143 3.79591C8.35141 3.73079 8.26905 3.69165 8.21865 3.67007C8.19345 3.65927 8.17618 3.65283 8.16743 3.64972L8.16113 3.64757C7.93246 3.57881 7.80075 3.33879 7.86655 3.10844Z" fill="white"/>
<path d="M7.86655 3.10844L-24.1841 -6.04935L-24.1848 -6.047L7.86655 3.10844ZM8.40829 2.80821L17.7924 -29.1769L17.5951 -29.2348L17.3971 -29.2903L8.40829 2.80821ZM8.40916 2.80846L17.8092 -29.172L17.8012 -29.1744L17.7932 -29.1767L8.40916 2.80846ZM8.41109 2.80903L17.9134 -29.1412L17.8623 -29.1564L17.8111 -29.1714L8.41109 2.80903ZM8.41564 2.81038L18.3182 -29.0181L18.1184 -29.0802L17.9179 -29.1399L8.41564 2.81038ZM8.42719 2.81397L18.6248 -28.9212L18.4774 -28.9685L18.3297 -29.0145L8.42719 2.81397ZM8.46003 2.8251L-2.71387 34.2298L-2.70282 34.2337L-2.69177 34.2376L8.46003 2.8251ZM8.56334 2.86582L-4.5673 33.504L-4.5668 33.5042L8.56334 2.86582ZM8.9071 3.0429L25.886 -25.6421L25.8798 -25.6457L8.9071 3.0429ZM10.0403 3.95047L33.6102 -19.6201L33.6101 -19.6202L10.0403 3.95047ZM10.9478 5.08367L39.6342 -11.8928L39.6334 -11.8943L10.9478 5.08367ZM11.1249 5.4274L41.7631 -7.70324L41.7584 -7.71415L11.1249 5.4274ZM11.1656 5.53069L-20.2565 16.6554L-20.2451 16.6876L-20.2337 16.7198L11.1656 5.53069ZM11.1768 5.56357L43.0314 -4.25439L42.9568 -4.49648L42.8785 -4.7374L11.1768 5.56357ZM11.1803 5.57511L43.1357 -3.91003L43.0862 -4.0767L43.035 -4.24285L11.1803 5.57511ZM11.1817 5.57963L-20.7736 15.0648L-20.7593 15.113L-20.7448 15.1613L11.1817 5.57963ZM11.1823 5.58158L43.4425 -2.80809L43.2867 -3.40716L43.1088 -4.00004L11.1823 5.58158ZM11.1825 5.58247L-21.0778 13.9721L-20.7457 15.2491L-20.3137 16.4957L11.1825 5.58247ZM11.1828 5.58331L43.2334 -3.57469L34.0758 -35.6239L2.02617 -26.4677L11.1828 5.58331ZM10.8823 6.12416L20.0375 38.1756L20.0418 38.1743L10.8823 6.12416ZM10.3431 5.82959L42.2644 -3.76951L42.0795 -4.38457L41.871 -4.99206L10.3431 5.82959ZM10.341 5.8233L41.8688 -4.99834L41.8235 -5.13034L41.7771 -5.26195L10.341 5.8233ZM10.3207 5.77208L40.9625 -7.35L40.9592 -7.3577L10.3207 5.77208ZM10.1949 5.52932L38.8817 -11.4464L38.8797 -11.4498L10.1949 5.52932ZM9.42154 4.56918L-14.1495 28.1386L-14.148 28.1401L9.42154 4.56918ZM8.46143 3.79591L25.4402 -24.8891L25.4387 -24.89L8.46143 3.79591ZM8.21865 3.67007L-4.90943 34.3093L-4.90343 34.3119L8.21865 3.67007ZM8.16743 3.64972L19.3282 -27.7596L19.1364 -27.8278L18.9437 -27.8936L8.16743 3.64972ZM8.16113 3.64757L18.9374 -27.8958L18.3524 -28.0957L17.7603 -28.2737L8.16113 3.64757ZM39.9172 12.2662C34.926 29.7346 16.7192 39.8495 -0.749213 34.859L17.564 -29.243C-0.369083 -34.3663 -19.0602 -23.9824 -24.1841 -6.04935L39.9172 12.2662ZM-23.6439 -6.34766L-23.764 -5.92699L40.3385 12.3843L40.4587 11.9636L-23.6439 -6.34766ZM40.3385 12.3842C40.3986 12.1739 40.4287 12.0688 40.4437 12.0162C40.4512 11.9899 40.4549 11.9768 40.4568 11.9702C40.4577 11.967 40.4582 11.9654 40.4584 11.9646C40.4585 11.9642 40.4586 11.9641 40.4586 11.9641C40.4586 11.9641 40.4585 11.9642 40.4585 11.9642C40.4585 11.9642 40.4585 11.9643 40.4585 11.9645C40.4584 11.9645 40.4583 11.9649 40.4582 11.9654C40.4582 11.9655 40.4579 11.9663 40.4577 11.9672C40.4576 11.9675 40.4572 11.969 40.4566 11.9709C40.4561 11.9728 40.455 11.9765 40.4545 11.9783C24.9953 31.7208 0.149524 35.1022 8.40741 2.80796C16.6653 -29.4863 -8.18052 -26.1049 -23.6397 -6.36242C-23.6402 -6.36057 -23.6413 -6.35687 -23.6418 -6.35502C-23.6423 -6.3531 -23.6428 -6.35159 -23.6428 -6.35132C-23.6431 -6.35036 -23.6433 -6.34961 -23.6434 -6.34947C-23.6435 -6.34899 -23.6436 -6.34861 -23.6436 -6.34853C-23.6437 -6.34828 -23.6438 -6.34807 -23.6438 -6.34798C-23.6439 -6.34776 -23.6439 -6.34746 -23.6441 -6.34703C-23.6443 -6.34615 -23.6448 -6.34446 -23.6457 -6.34116C-23.6476 -6.33456 -23.6514 -6.32139 -23.6589 -6.29509C-23.6739 -6.2425 -23.704 -6.13732 -23.7641 -5.92698L40.3385 12.3842ZM-0.581386 34.9064L-0.580511 34.9067L17.3971 -29.2903L17.3962 -29.2905L-0.581386 34.9064ZM-0.975786 34.7934L-0.974911 34.7936L17.7932 -29.1767L17.7924 -29.1769L-0.975786 34.7934ZM-0.990875 34.7889L-0.988951 34.7895L17.8111 -29.1714L17.8092 -29.172L-0.990875 34.7889ZM-1.09118 34.7593L-1.08663 34.7606L17.9179 -29.1399L17.9134 -29.1412L-1.09118 34.7593ZM-1.48687 34.6388L-1.47532 34.6424L18.3297 -29.0145L18.3182 -29.0181L-1.48687 34.6388ZM-1.77038 34.5491C-2.03443 34.4643 -2.35359 34.358 -2.71387 34.2298L19.6339 -28.5796C19.2475 -28.7171 18.9063 -28.8307 18.6248 -28.9212L-1.77038 34.5491ZM-2.69177 34.2376C-3.31941 34.0148 -3.94519 33.7706 -4.5673 33.504L21.694 -27.7724C20.9869 -28.0754 20.2919 -28.346 19.6118 -28.5875L-2.69177 34.2376ZM-4.5668 33.5042C-5.80344 32.9742 -6.9709 32.3792 -8.06564 31.7315L25.8798 -25.6457C24.4997 -26.4622 23.1001 -27.1698 21.6935 -27.7726L-4.5668 33.5042ZM-8.07179 31.7279C-10.2899 30.4149 -12.0982 28.9524 -13.5295 27.5211L33.6101 -19.6202C31.2629 -21.9673 28.6751 -23.9912 25.886 -25.6421L-8.07179 31.7279ZM-13.5296 27.521C-14.9623 26.0883 -16.4251 24.2794 -17.7377 22.0616L39.6334 -11.8943C37.9828 -14.6831 35.9587 -17.2716 33.6102 -19.6201L-13.5296 27.521ZM-17.7386 22.0602C-18.3907 20.9582 -18.9836 19.7926 -19.5086 18.569L41.7584 -7.71415C41.1605 -9.10781 40.4552 -10.5056 39.6342 -11.8928L-17.7386 22.0602ZM-19.5132 18.558C-19.7719 17.9545 -20.0211 17.3204 -20.2565 16.6554L42.5878 -5.59405C42.3338 -6.31139 42.0581 -7.01479 41.7631 -7.70324L-19.5132 18.558ZM-20.2337 16.7198C-20.3814 16.3051 -20.4879 15.9786 -20.525 15.8645L42.8785 -4.7374C42.8357 -4.8691 42.722 -5.21754 42.5649 -5.65837L-20.2337 16.7198ZM-20.6779 15.3815L-20.6743 15.3931L43.035 -4.24285L43.0314 -4.25439L-20.6779 15.3815ZM-20.775 15.0603L-20.7736 15.0648L43.137 -3.90551L43.1357 -3.91003L-20.775 15.0603ZM-20.7448 15.1613L-20.7443 15.1632L43.1088 -4.00004L43.1082 -4.00198L-20.7448 15.1613ZM-21.078 13.9712L-21.0778 13.9721L43.4428 -2.80719L43.4425 -2.80809L-21.078 13.9712ZM11.1825 5.58247C-20.3137 16.4957 -21.9705 9.04509 -21.889 1.41291C-21.5542 -0.696192 -20.0466 -6.07318 -18.673 -9.24173C-16.2802 -14.0608 -13.2903 -17.1287 -11.9216 -18.4448C-9.08313 -21.1742 -6.41009 -22.7415 -5.72294 -23.1459C-3.8313 -24.259 -2.24158 -24.9302 -1.92771 -25.0644C-0.89579 -25.5059 -0.0630636 -25.797 0.0898117 -25.851C0.620208 -26.0382 1.04167 -26.1709 1.11767 -26.195C1.38474 -26.2796 1.5947 -26.3422 1.62976 -26.3527C1.70487 -26.3751 1.76229 -26.392 1.78721 -26.3993C1.81634 -26.4078 1.83654 -26.4137 1.84345 -26.4157C1.85828 -26.42 1.80616 -26.4048 1.60543 -26.3475L19.9188 37.7545C20.1387 37.6917 20.2968 37.6463 20.4167 37.6115C20.4622 37.5983 20.5812 37.5638 20.7222 37.5216C20.7638 37.5092 20.977 37.4456 21.2457 37.3605C21.3225 37.3362 21.7444 37.2033 22.275 37.016C22.428 36.962 23.2608 36.6708 24.2927 36.2294C24.6066 36.0951 26.1963 35.424 28.0879 34.3108C28.7751 33.9064 31.4481 32.3392 34.2866 29.6098C35.6553 28.2937 38.6453 25.2257 41.0381 20.4067C42.4116 17.2381 43.9192 11.8611 44.254 9.75204C44.3355 2.11986 42.6787 -5.33077 11.1825 5.58247ZM19.9187 37.7545L20.3394 37.6343L2.02617 -26.4677L1.60546 -26.3475L19.9187 37.7545ZM-20.8678 14.7413C-25.8609 -2.73313 -15.7388 -20.9357 1.72283 -25.926L20.0418 38.1743C37.9681 33.0513 48.3593 14.3644 43.2334 -3.57469L-20.8678 14.7413ZM1.72709 -25.9273C19.043 -30.8734 37.0892 -20.9796 42.2644 -3.76951L-21.5781 15.4287C-16.2653 33.0962 2.26096 43.2533 20.0375 38.1756L1.72709 -25.9273ZM41.871 -4.99206L41.8688 -4.99834L-21.1868 16.645L-21.1847 16.6512L41.871 -4.99206ZM41.7771 -5.26195C41.5291 -5.96533 41.2573 -6.66175 40.9625 -7.35L-20.3211 18.8942C-20.5943 18.2563 -20.8533 17.5944 -21.0951 16.9086L41.7771 -5.26195ZM40.9592 -7.3577C40.3722 -8.72758 39.6815 -10.0948 38.8817 -11.4464L-18.492 22.5051C-19.1616 21.3735 -19.774 20.171 -20.3178 18.9019L40.9592 -7.3577ZM38.8797 -11.4498C37.2678 -14.173 35.2895 -16.7035 32.9911 -19.0017L-14.148 28.1401C-15.6297 26.6585 -17.1382 24.7921 -18.49 22.5085L38.8797 -11.4498ZM32.9926 -19.0002C30.6936 -21.2994 28.1628 -23.2776 25.4402 -24.8891L-8.51735 32.481C-10.8005 31.1296 -12.6671 29.6211 -14.1495 28.1386L32.9926 -19.0002ZM25.4387 -24.89C24.0889 -25.6889 22.7189 -26.3816 21.3407 -26.9718L-4.90343 34.3119C-6.18076 33.7649 -7.38607 33.1505 -8.51589 32.4818L25.4387 -24.89ZM21.3467 -26.9692C20.6633 -27.262 19.9896 -27.5246 19.3282 -27.7596L-2.99336 35.0591C-3.63722 34.8303 -4.2764 34.5806 -4.90943 34.3093L21.3467 -26.9692ZM18.9437 -27.8936L18.9374 -27.8958L-2.61514 35.1909L-2.60884 35.1931L18.9437 -27.8936ZM17.7603 -28.2737C34.9633 -23.1005 44.8662 -5.05924 39.9179 12.2639L-24.1848 -6.047C-29.2647 11.7368 -19.0983 30.2581 -1.43805 35.5688L17.7603 -28.2737Z" fill="white" mask="url(#path-5-inside-3_603_1007)"/>
</svg>
