<svg width="41" height="40" viewBox="0 0 41 40" fill="none" xmlns="http://www.w3.org/2000/svg">
<path d="M27.7158 8.04004C26.5268 8.04004 25.5018 8.88004 25.0918 10.04C26.6498 10.72 27.8388 12.2 28.2488 14C29.5198 13.72 30.4628 12.52 30.4628 11.08C30.4628 9.36004 29.2328 8.04004 27.7158 8.04004Z" fill="#002c8a"/>
<path d="M30.2576 15.1602C29.7246 15.6402 29.0686 15.9602 28.3306 16.0802C28.2076 17.1602 27.7976 18.1602 27.1826 18.9602H31.7336C32.3076 18.9602 32.7586 18.5202 32.7586 17.9602V17.4802C32.7586 16.4002 31.5286 15.7202 30.2576 15.1602Z" fill="#002c8a"/>
<path d="M25.9116 20C25.0916 20.72 24.0666 21.16 22.9596 21.16C22.8776 22.4 22.5086 23.52 21.9346 24.48H27.6746C28.3306 24.48 28.9046 23.96 28.9046 23.28V22.8C28.8636 21.48 27.3876 20.68 25.9116 20Z" fill="#002c8a"/>
<path d="M20.6232 26.08C19.4752 27.2 17.9172 27.84 16.2772 27.84C14.5962 27.84 13.0382 27.16 11.8902 26C10.0042 26.88 8.2002 28 8.2002 29.64V30.4C8.2002 31.28 8.9382 31.96 9.7992 31.96H22.6322C23.5342 31.96 24.2312 31.24 24.2312 30.4V29.68C24.2312 28 22.5092 26.92 20.6232 26.08Z" fill="#002c8a"/>
<path d="M16.2356 25.3599C18.6585 25.3599 20.6226 23.2467 20.6226 20.6399C20.6226 18.0331 18.6585 15.9199 16.2356 15.9199C13.8128 15.9199 11.8486 18.0331 11.8486 20.6399C11.8486 23.2467 13.8128 25.3599 16.2356 25.3599Z" fill="#002c8a"/>
<path d="M22.8367 11.7998C21.3197 11.7998 20.0487 12.8798 19.6797 14.3998C21.1967 15.3598 22.3037 16.9998 22.7547 18.8798C22.7957 18.8798 22.7957 18.8798 22.8367 18.8798C24.6407 18.8798 26.1167 17.2798 26.1167 15.3198C26.1577 13.3998 24.6817 11.7998 22.8367 11.7998Z" fill="#002c8a"/>
</svg>
