<svg width="22" height="24" viewBox="0 0 22 24" fill="none" xmlns="http://www.w3.org/2000/svg">
<path d="M6.97489 10.4346H4.58984V12.8198H6.97489V10.4346Z" fill="#002c8a"/>
<path d="M17.4095 10.4346H15.0244V12.8198H17.4095V10.4346Z" fill="#002c8a"/>
<path d="M13.9319 10.4346H11.5469V12.8198H13.9319V10.4346Z" fill="#002c8a"/>
<path d="M6.97489 14.1611H4.58984V16.5464H6.97489V14.1611Z" fill="#002c8a"/>
<path d="M13.9319 14.1611H11.5469V16.5464H13.9319V14.1611Z" fill="#002c8a"/>
<path d="M10.4534 14.1611H8.06836V16.5464H10.4534V14.1611Z" fill="#002c8a"/>
<path d="M17.4095 17.8877H15.0244V20.2729H17.4095V17.8877Z" fill="#002c8a"/>
<path d="M13.9319 17.8877H11.5469V20.2729H13.9319V17.8877Z" fill="#002c8a"/>
<path d="M10.4534 17.8877H8.06836V20.2729H10.4534V17.8877Z" fill="#002c8a"/>
<path d="M19.5912 2.58008H17.6517V4.43961C17.6517 5.13345 17.08 5.69773 16.3775 5.69773H13.845C13.1425 5.69773 12.5709 5.13345 12.5709 4.43961V2.58008H9.42585V4.42213C9.42585 5.12563 8.84793 5.69773 8.13754 5.69773H5.63329C4.9229 5.69773 4.34498 5.12563 4.34498 4.42213V2.58008H2.40548C1.14426 2.58008 0.118164 3.59689 0.118164 4.84667V21.7332C0.118164 22.9829 1.14426 23.9998 2.40548 23.9998H19.5912C20.8543 23.9998 21.8819 22.983 21.8819 21.7332V4.84667C21.8819 3.59694 20.8543 2.58008 19.5912 2.58008ZM20.2423 21.6892C20.2423 22.0904 19.9727 22.3599 19.5714 22.3599H2.42868C2.02743 22.3599 1.75785 22.0904 1.75785 21.6892V8.34772H20.2423V21.6892Z" fill="#002c8a"/>
<path d="M5.63447 4.80502H8.13722C8.34914 4.80502 8.52155 4.63378 8.52155 4.42327V0.960609C8.52155 0.430922 8.08702 0 7.55283 0H6.21881C5.68467 0 5.25 0.430875 5.25 0.960609V4.42327C5.25005 4.63378 5.42245 4.80502 5.63447 4.80502Z" fill="#002c8a"/>
<path d="M13.8451 4.80502H16.3775C16.5813 4.80502 16.747 4.64034 16.747 4.43817V0.945844C16.747 0.424359 16.3192 0 15.7931 0H14.4294C13.9035 0 13.4756 0.424359 13.4756 0.945844V4.43817C13.4755 4.64034 13.6413 4.80502 13.8451 4.80502Z" fill="#002c8a"/>
</svg>
