<svg width="28" height="28" viewBox="0 0 28 28" fill="none" xmlns="http://www.w3.org/2000/svg">
<path fill-rule="evenodd" clip-rule="evenodd" d="M28 5.59996C28 6.37276 27.3728 6.99995 26.6 6.99995H23.8V9.79993C23.8 10.5727 23.1728 11.1999 22.4 11.1999C21.6272 11.1999 21 10.5727 21 9.79993V6.99995H18.2001C17.4273 6.99995 16.8001 6.37276 16.8001 5.59996C16.8001 4.82717 17.4273 4.19997 18.2001 4.19997H21V1.39999C21 0.627196 21.6272 0 22.4 0C23.1728 0 23.8 0.627196 23.8 1.39999V4.19997H26.6C27.3728 4.19997 28 4.82717 28 5.59996ZM16.4361 25.1998H5.05696C3.94397 25.1998 3.23977 23.9384 3.88097 23.0284C5.39156 20.8878 7.87514 19.4824 10.6863 19.4628C10.7059 19.4628 10.7255 19.4683 10.7451 19.4683C10.7661 19.4683 10.7843 19.4628 10.8053 19.4628C13.6179 19.4824 16.1029 20.8864 17.6121 23.0284C18.2533 23.9384 17.5505 25.1998 16.4361 25.1998ZM10.7451 11.0683C12.2893 11.0683 13.5451 12.3241 13.5451 13.8683C13.5451 15.3929 12.3201 16.6306 10.8053 16.6628C10.7843 16.6628 10.7661 16.6597 10.7451 16.6597C10.7255 16.6597 10.7059 16.6628 10.6863 16.6628C9.17013 16.6306 7.94514 15.3929 7.94514 13.8683C7.94514 12.3241 9.20233 11.0683 10.7451 11.0683ZM14.9815 17.493C16.1435 16.1379 16.7035 14.2521 16.1001 12.2137C15.5443 10.3321 13.9623 8.84652 12.0485 8.41532C8.38893 7.59073 5.14516 10.3501 5.14516 13.8683C5.14516 15.2585 5.67015 16.5144 6.50875 17.493C3.52817 18.711 1.18738 21.2531 0.141591 24.3597C-0.460405 26.1517 0.936785 27.9998 2.82677 27.9998H18.6635C20.5535 27.9998 21.952 26.1517 21.3486 24.3597C20.3029 21.2531 17.9635 18.711 14.9815 17.493Z" fill="#002c8a"/>
</svg>
