<svg width="20" height="22" viewBox="0 0 20 22" fill="#fff" xmlns="http://www.w3.org/2000/svg">
<path d="M12.8889 9.5L14.7499 8.34044C15.3227 7.98352 15.6091 7.80507 15.8448 7.82788C16.0503 7.84777 16.2378 7.958 16.3599 8.13075C16.5 8.32886 16.5 8.67571 16.5 9.36943V12.6306C16.5 13.3242 16.5 13.6711 16.3599 13.8693C16.2378 14.042 16.0503 14.1522 15.8448 14.1721C15.6091 14.1949 15.3227 14.0165 14.7499 13.6596L12.8889 12.5M5.81111 15.5H10.5778C11.3867 15.5 11.7913 15.5 12.1002 15.3365C12.372 15.1927 12.593 14.9632 12.7314 14.681C12.8889 14.3602 12.8889 13.9401 12.8889 13.1V8.9C12.8889 8.05992 12.8889 7.63988 12.7314 7.31902C12.593 7.03677 12.372 6.8073 12.1002 6.66349C11.7913 6.5 11.3867 6.5 10.5778 6.5H5.81111C5.00215 6.5 4.59766 6.5 4.28868 6.66349C4.01689 6.8073 3.79592 7.03677 3.65744 7.31902C3.5 7.63988 3.5 8.05992 3.5 8.9V13.1C3.5 13.9401 3.5 14.3602 3.65744 14.681C3.79592 14.9632 4.01689 15.1927 4.28868 15.3365C4.59766 15.5 5.00214 15.5 5.81111 15.5Z" stroke="white" stroke-linecap="round" stroke-linejoin="round"/>
</svg>
