<svg xmlns="http://www.w3.org/2000/svg" viewBox="0 0 48 48"><defs><style>.cls-1{fill:#374f68;}.cls-2{fill:#425b72;}.cls-3{fill:#dad7e5;}.cls-4{fill:#edebf2;}.cls-5{fill:#f6ccaf;}.cls-6{fill:#edb996;}.cls-7{fill:#f26674;}.cls-8{fill:#db5669;}.cls-9{fill:#ffdec7;}.cls-10{fill:#be927c;}.cls-11{fill:#a87e6b;}</style></defs><title>Customer Service</title><g id="Customer_Service" data-name="Customer Service"><path class="cls-1" d="M24,47H5V35l10.5-6C20.9,39.8,19,35.67,24,47Z"/><path class="cls-1" d="M43,35V47H24c5-11.33,3.1-7.2,8.5-18Z"/><path class="cls-1" d="M43,35V47H24c5-11.33,3.1-7.2,8.5-18Z"/><path class="cls-2" d="M43,35V47H24c5-11.33,3.1-7.2,8.5-18Z"/><polygon class="cls-3" points="32.5 29 28 38 24 34 29 27 32.5 29"/><path class="cls-4" d="M29,27l-2,2.79a3.64,3.64,0,0,1,1.45,4.79l-1.29,2.59L28,38l4.5-9Z"/><path class="cls-5" d="M29,22.24V27l-5,7-5-7V22.24A8,8,0,0,0,29,22.24Z"/><path class="cls-6" d="M19,22.24v2.68a8,8,0,0,0,9-.68V28.4L29,27V22.24A8,8,0,0,1,19,22.24Z"/><polygon class="cls-3" points="24 34 20 38 15.5 29 19 27 24 34"/><path class="cls-7" d="M28,38l-4,9-4-9,4-4Z"/><polygon class="cls-8" points="27 37 23.28 45.38 20 38 24 34 27 37"/><path class="cls-9" d="M32,12c0,4.2.51,7.42-3,10.24A8,8,0,0,1,16,16c0-3.34-.32-5.56,1-7.9,2.2-4.39,8.71-5.67,12.64-1.76A8.06,8.06,0,0,1,32,12Z"/><path class="cls-5" d="M30,14c0,3.4.41,6-1.44,8.57A8,8,0,0,1,16.25,18c-.34-1.36-.25-2-.25-6a8,8,0,0,1,1.46-4.59A8,8,0,0,1,30,14Z"/><path class="cls-1" d="M33.52,9.9C30.51.68,17.41.74,14.46,10a1,1,0,0,1-1.9-.6C16.1-1.76,31.9-1.76,35.44,9.36A1,1,0,1,1,33.52,9.9Z"/><path class="cls-2" d="M35.44,9.36A12,12,0,0,0,15,5a12,12,0,0,1,19.41,5.34.76.76,0,0,1,.05.3A1,1,0,0,0,35.44,9.36Z"/><path class="cls-6" d="M30.23,21a8,8,0,0,1-2.36,2H25a1,1,0,0,1,0-2Z"/><path class="cls-1" d="M35,22H26a1,1,0,0,1,0-2h8V16a1,1,0,0,1,2,0v5A1,1,0,0,1,35,22Z"/><path class="cls-2" d="M34.5,15.15c.66.4.5.46.5,5.85a1,1,0,0,1-1,1h1a1,1,0,0,0,1-1V16A1,1,0,0,0,34.5,15.15Z"/><path class="cls-8" d="M16,16c0,2.15.57,2,0,2a5,5,0,1,1,1-9.9C15.73,10.38,16,12.14,16,16Z"/><path class="cls-7" d="M37,13a5,5,0,0,1-5,5c-.51,0,0,0,0-2,0-3.18.35-5.47-1-7.9A5,5,0,0,1,37,13Z"/><path class="cls-8" d="M34.39,17.39A4.93,4.93,0,0,1,32,18c-.51,0,0,0,0-2,0-4.19.06-4.61-.18-5.66A5,5,0,0,1,34.39,17.39Z"/><path class="cls-3" d="M37,44H34a1,1,0,0,1,0-2h3A1,1,0,0,1,37,44Z"/><path class="cls-10" d="M32,12v.92A7,7,0,0,1,26.5,8.6,10,10,0,0,1,16,11.54,8,8,0,0,1,32,12Z"/><path class="cls-5" d="M31,13.92a5.69,5.69,0,0,1-1-.23c-.08-2-.75-1.51,1-1A9.58,9.58,0,0,1,31,13.92Z"/><path class="cls-6" d="M30,13.69A6.92,6.92,0,0,1,25.5,9.6,9.93,9.93,0,0,1,16,12.79a10.53,10.53,0,0,1,0-1.25A10,10,0,0,0,26.5,8.6a7,7,0,0,0,3.29,3.62A6.53,6.53,0,0,1,30,13.69Z"/><path class="cls-11" d="M29.8,12.22A7,7,0,0,1,26.5,8.6,10,10,0,0,1,16,11.54a8,8,0,0,1,1.42-4.11A8,8,0,0,1,29.8,12.22Z"/></g></svg>