<svg width="12" height="13" viewBox="0 0 12 13" fill="none" xmlns="http://www.w3.org/2000/svg">
<path d="M10.5334 3C10.8293 3.47902 11 4.04302 11 4.64672C11 6.3846 9.5854 7.79345 7.84035 7.79345C7.52195 7.79345 6.79695 7.72025 6.44425 7.42755L6.00335 7.86665C5.636 8.2325 5.9299 8.2325 6.07685 8.52525C6.07685 8.52525 6.44425 9.0375 6.07685 9.54975C5.8564 9.84245 5.23915 10.2522 4.53377 9.54975L4.38681 9.6961C4.38681 9.6961 4.82769 10.2083 4.46029 10.7206C4.23985 11.0133 3.65202 11.306 3.13766 10.7938C3.11317 10.8182 2.976 10.9548 2.6233 11.306C2.2706 11.6573 1.83953 11.4524 1.66808 11.306L1.22721 10.8669C0.815715 10.4571 1.05575 10.0132 1.22721 9.84245L5.04815 6.03715C5.04815 6.03715 4.68075 5.45169 4.68075 4.64672C4.68075 2.90883 6.09535 1.5 7.84035 1.5C8.24975 1.5 8.641 1.57755 9 1.71869" stroke="#333232" stroke-linecap="round" stroke-linejoin="round"/>
<path d="M8.94268 4.64652C8.94268 5.25276 8.44923 5.74421 7.84048 5.74421C7.23178 5.74421 6.73828 5.25276 6.73828 4.64652C6.73828 4.04028 7.23178 3.54883 7.84048 3.54883C8.44923 3.54883 8.94268 4.04028 8.94268 4.64652Z" stroke="#333232"/>
</svg>
