<svg width="48" height="48" viewBox="0 0 48 48" fill="none" xmlns="http://www.w3.org/2000/svg">
<path d="M13.9201 4C14.7552 4 15.4321 4.61992 15.4321 5.38462V8.17766C16.7733 8.15384 18.2766 8.15384 19.968 8.15384H28.032C29.7234 8.15384 31.2268 8.15384 32.568 8.17766V5.38462C32.568 4.61992 33.2448 4 34.0798 4C34.915 4 35.5918 4.61992 35.5918 5.38462V8.30016C38.4936 8.51294 40.3984 9.03516 41.798 10.3168C43.1974 11.5983 43.7676 13.3428 44 16V18H4V16C4.23236 13.3428 4.8026 11.5983 6.20208 10.3168C7.60158 9.03516 9.50646 8.51294 12.4081 8.30016V5.38462C12.4081 4.61992 13.0851 4 13.9201 4Z" fill="#10108A"/>
<path opacity="0.5" d="M43.9999 28V24C43.9999 22.322 43.9745 19.3305 43.9487 18H4.01158C3.98578 19.3305 4.01114 22.322 4.01114 24V28C4.01114 35.5424 4.01114 39.3138 6.35362 41.6568C8.69612 44 12.4663 44 20.0067 44H28.0045C35.5447 44 39.3149 44 41.6575 41.6568C43.9999 39.3138 43.9999 35.5424 43.9999 28Z" fill="#10108A"/>
<path d="M36 33C36 34.6568 34.6568 36 33 36C31.3432 36 30 34.6568 30 33C30 31.3432 31.3432 30 33 30C34.6568 30 36 31.3432 36 33Z" fill="#10108A"/>
</svg>
