<svg width="60" height="60" viewBox="0 0 60 60" fill="none" xmlns="http://www.w3.org/2000/svg">
<g clip-path="url(#clip0_3307_1250)">
<path d="M59.0605 0.501953H0.939492C0.420469 0.501953 0 0.922539 0 1.44133V58.5603C0 59.0791 0.420469 59.4998 0.939492 59.4998H59.0606C59.5795 59.4998 60.0001 59.0792 60.0001 58.5603V1.44133C60 0.922539 59.5795 0.501953 59.0605 0.501953ZM58.1211 57.6209H1.87887V2.38082H58.121V57.6209H58.1211Z" fill="#10108A"/>
<path d="M54.9903 14.3482V6.45121C54.9903 5.93242 54.5698 5.51172 54.0508 5.51172H42.5268H30.0007H17.4747H5.95059C5.43168 5.51172 5.01109 5.9323 5.01109 6.45121V17.4742V29.4993V38.2109C3.56711 38.6211 2.50586 39.9507 2.50586 41.5243C2.50586 43.098 3.56711 44.4276 5.01109 44.8376V53.5492C5.01109 54.068 5.43156 54.4887 5.95059 54.4887H17.4746H30.0007H42.5268H54.0508C54.5697 54.4887 54.9903 54.0681 54.9903 53.5492V41.5243V29.4992V20.6C56.1856 20.047 56.9944 18.8356 56.9944 17.4741C56.9944 16.1126 56.1857 14.9014 54.9903 14.3482ZM43.4663 7.3907H53.1114V14.0583C51.7334 14.2343 50.6078 15.227 50.2364 16.5347H43.4663V7.3907ZM43.4663 18.4136H50.2383C50.3254 18.718 50.4541 19.0095 50.6206 19.2795L44.0727 26.4227C43.8784 26.3246 43.6756 26.2451 43.4664 26.1857V18.4136H43.4663ZM30.9402 7.3907H41.5874V16.5347H30.9402V7.3907ZM30.9402 18.4136H41.5874V26.1858C40.4423 26.511 39.5387 27.4145 39.2134 28.5598H30.9402V18.4136ZM30.9402 30.4387H39.213C39.2796 30.6735 39.3712 30.9004 39.4862 31.1158L31.7406 38.5517C31.4893 38.4036 31.2208 38.2887 30.9402 38.2096V30.4387ZM18.4141 7.3907H29.0613V16.5347H18.4141V7.3907ZM18.4141 18.4136H29.0613V28.5597H20.788C20.4629 27.4145 19.5592 26.5109 18.4141 26.1857V18.4136ZM20.5152 31.116C20.6303 30.9004 20.722 30.6737 20.7885 30.4389H29.0613V38.2098C28.7807 38.2891 28.5122 38.4038 28.2609 38.5519L20.5152 31.116ZM26.9602 39.9075C26.8451 40.1232 26.7535 40.3498 26.6869 40.5848H18.4142V32.8138C18.6947 32.7346 18.9632 32.6199 19.2146 32.4718L26.9602 39.9075ZM6.89008 7.3907H16.5352V16.5347H6.89008V7.3907ZM6.89008 18.4136H16.5352V26.1858C15.39 26.511 14.4864 27.4145 14.1612 28.5598H6.89008V18.4136ZM6.8902 30.4387H14.1631C14.2497 30.741 14.3772 31.0307 14.5421 31.2991L7.8052 38.6221C7.52184 38.4407 7.21422 38.301 6.8902 38.2095V30.4387ZM4.38484 41.5243C4.38484 40.6608 5.08715 39.9585 5.95059 39.9585C6.41816 39.9585 6.85774 40.1655 7.15691 40.5262C7.15703 40.5263 7.15703 40.5264 7.15715 40.5265C7.39211 40.8102 7.51633 41.1552 7.51633 41.5243C7.51633 42.3877 6.81402 43.09 5.95059 43.09C5.08727 43.09 4.38484 42.3877 4.38484 41.5243ZM16.5352 52.6098H6.89008V44.8376C8.03523 44.5124 8.93887 43.6088 9.26406 42.4636H16.5352V52.6098ZM16.5352 40.5849H9.2623C9.20898 40.397 9.14008 40.2141 9.0557 40.0378L15.9232 32.573C16.1193 32.6725 16.324 32.7528 16.5351 32.8128L16.5352 40.5849ZM16.4168 30.65C16.4167 30.6498 16.4167 30.6498 16.4166 30.6497C16.0892 30.3483 15.9088 29.9399 15.9088 29.4993C15.9089 28.6357 16.6112 27.9334 17.4747 27.9334C18.3381 27.9334 19.0404 28.6357 19.0404 29.4992C19.0404 29.9035 18.8852 30.2881 18.6033 30.5818C18.6032 30.5819 18.6031 30.582 18.603 30.5821C18.304 30.8934 17.9034 31.065 17.4747 31.065C17.0834 31.0652 16.7078 30.9177 16.4168 30.65ZM29.0613 52.6098H18.4141V42.4637H26.6873C27.0125 43.6089 27.9161 44.5125 29.0613 44.8377V52.6098ZM28.435 41.5243C28.435 41.12 28.5903 40.7354 28.8721 40.4417C28.8722 40.4416 28.8723 40.4414 28.8725 40.4413C29.1714 40.1301 29.5721 39.9585 30.0007 39.9585C30.4294 39.9585 30.83 40.13 31.129 40.4413C31.1291 40.4414 31.1293 40.4416 31.1294 40.4417C31.4113 40.7355 31.5665 41.1198 31.5665 41.5243C31.5665 42.3877 30.8642 43.09 30.0007 43.09C29.1373 43.09 28.435 42.3877 28.435 41.5243ZM41.5874 52.6098H30.9402V44.8376C32.0854 44.5124 32.989 43.6088 33.3142 42.4636H41.5874V52.6098ZM41.5874 40.5849H33.3147C33.248 40.35 33.1565 40.1233 33.0414 39.9078L40.787 32.4719C41.0384 32.6201 41.3069 32.7348 41.5874 32.8139V40.5849ZM41.3986 30.5821C41.3985 30.582 41.3984 30.5819 41.3983 30.5818C41.1164 30.288 40.9612 29.9036 40.9612 29.4992C40.9612 28.6357 41.6635 27.9334 42.5269 27.9334C42.917 27.9334 43.2918 28.0803 43.5825 28.3466C43.5827 28.3468 43.5828 28.347 43.583 28.3471C43.5831 28.3472 43.5832 28.3472 43.5834 28.3473C43.9118 28.6489 44.0928 29.0579 44.0928 29.4993C44.0927 30.3627 43.3904 31.065 42.5269 31.065C42.0982 31.065 41.6976 30.8935 41.3986 30.5821ZM53.1114 52.6098H43.4663V42.4637H53.1114V52.6098ZM53.1114 40.5849H43.4663V32.8127C44.6114 32.4875 45.515 31.5838 45.8403 30.4387H53.1114V40.5849ZM53.1114 28.5598H45.8384C45.7513 28.2554 45.6227 27.9639 45.4561 27.6939L52.004 20.5507C52.3505 20.7257 52.7245 20.8404 53.1114 20.8902V28.5598ZM53.8646 19.0082C53.8634 19.0084 53.8623 19.0086 53.8612 19.0087C53.7589 19.0292 53.6542 19.0397 53.5498 19.0397C53.1598 19.0397 52.7849 18.8929 52.4942 18.6265C52.4941 18.6264 52.4939 18.6262 52.4937 18.6261C52.4936 18.6259 52.4935 18.6259 52.4935 18.6258C52.1649 18.3243 51.9841 17.9153 51.9841 17.4739C51.9841 16.6104 52.6864 15.9081 53.5498 15.9081C53.6542 15.9081 53.7589 15.9187 53.8612 15.9392C53.8623 15.9394 53.8634 15.9395 53.8646 15.9396C54.5895 16.0874 55.1155 16.7325 55.1155 17.4741C55.1155 18.2157 54.5895 18.8608 53.8646 19.0082Z" fill="#10108A"/>
</g>
<defs>
<clipPath id="clip0_3307_1250">
<rect width="60" height="60" fill="white"/>
</clipPath>
</defs>
</svg>
