<svg width="36" height="36" viewBox="0 0 36 36" fill="none" xmlns="http://www.w3.org/2000/svg">
<g clip-path="url(#clip0_3312_1383)">
<path d="M17.9521 3.78516C16.2791 3.78516 14.8399 4.81447 14.2363 6.27344H21.667C21.0634 4.81459 19.625 3.78528 17.9521 3.78516ZM36.5576 35.6104H-0.654297V6.27344H10.7256C11.4327 2.93073 14.3988 0.412109 17.9521 0.412109C21.5054 0.412285 24.4706 2.9309 25.1777 6.27344H36.5576V35.6104Z" stroke="#10108A" stroke-width="2"/>
<path d="M12 22.4746C12 21.9914 12.2686 21.5996 12.6 21.5996H23.4C23.7314 21.5996 24 21.9914 24 22.4746C24 22.9579 23.7314 23.3496 23.4 23.3496H12.6C12.2686 23.3496 12 22.9579 12 22.4746Z" fill="#10108A"/>
<path d="M12 26.625C12 26.1417 12.2686 25.75 12.6 25.75H23.4C23.7314 25.75 24 26.1417 24 26.625C24 27.1083 23.7314 27.5 23.4 27.5H12.6C12.2686 27.5 12 27.1083 12 26.625Z" fill="#10108A"/>
<path d="M12.6 29.8984C12.2686 29.8984 12 30.2902 12 30.7734C12 31.2567 12.2686 31.6484 12.6 31.6484H19.8C20.1314 31.6484 20.4 31.2567 20.4 30.7734C20.4 30.2902 20.1314 29.8984 19.8 29.8984H12.6Z" fill="#10108A"/>
</g>
<defs>
<clipPath id="clip0_3312_1383">
<rect width="36" height="36" fill="white"/>
</clipPath>
</defs>
</svg>
