<svg width="50" height="58" viewBox="0 0 50 58" fill="none" xmlns="http://www.w3.org/2000/svg">
<path d="M49.0059 22.3724L43.0836 16.1758C42.5485 15.6159 41.6807 15.6159 41.1455 16.1758L35.8788 21.6866C35.8784 21.687 35.8779 21.6873 35.8775 21.6879C35.8771 21.6885 35.8768 21.6889 35.8762 21.6892L22.3653 35.8262C22.1627 36.0385 22.0283 36.3121 21.9819 36.6085L20.8208 44.0205C20.7494 44.4761 20.8923 44.94 21.2042 45.2666C21.4633 45.5375 21.8129 45.6865 22.1734 45.6865C22.2471 45.6865 22.3213 45.6804 22.3951 45.6675L29.4788 44.4526C29.762 44.404 30.0233 44.2637 30.2263 44.0514L49.0061 24.4006C49.2631 24.1316 49.4074 23.7669 49.4074 23.3864C49.4074 23.0059 49.2631 22.6415 49.0059 22.3724ZM28.5998 41.6965L23.8343 42.5139L24.6155 37.5276L36.8466 24.7298L40.8306 28.8986L28.5998 41.6965ZM42.7691 26.8706L38.785 22.7019L42.1147 19.2179L46.0989 23.3866L42.7691 26.8706Z" fill="#10108A"/>
<path d="M42.3287 36.8755C41.5716 36.8755 40.9582 37.5174 40.9582 38.3096V55.1319H2.74107V2.86813H40.9582V12.2159C40.9582 13.0081 41.5716 13.65 42.3287 13.65C43.0858 13.65 43.6992 13.0081 43.6992 12.2159V1.43406C43.6992 0.641886 43.0858 0 42.3287 0H1.37053C0.613451 0 0 0.641886 0 1.43406V56.5659C0 57.3581 0.613451 58 1.37053 58H42.3287C43.0858 58 43.6992 57.3581 43.6992 56.5659V38.3096C43.6992 37.5176 43.0858 36.8755 42.3287 36.8755Z" fill="#10108A"/>
<path d="M17.9393 8.05075C17.4039 7.49089 16.5362 7.49089 16.001 8.05075L10.778 13.5161L8.71083 11.3531C8.1754 10.7933 7.30776 10.7933 6.77252 11.3531C6.23728 11.9134 6.23728 12.8212 6.77252 13.3813L9.80871 16.5582C10.0764 16.8381 10.4273 16.9781 10.778 16.9781C11.1286 16.9781 11.4795 16.8381 11.7472 16.5582L17.9395 10.0789C18.4745 9.51885 18.4745 8.61099 17.9393 8.05075Z" fill="#10108A"/>
<path d="M17.9393 24.9433C17.4039 24.3835 16.5362 24.3835 16.001 24.9433L10.778 30.4086L8.71083 28.2455C8.1754 27.6856 7.30776 27.6856 6.77252 28.2455C6.23728 28.8057 6.23728 29.7136 6.77252 30.2736L9.80871 33.4506C10.0764 33.7305 10.4273 33.8705 10.778 33.8705C11.1286 33.8705 11.4795 33.7305 11.7472 33.4506L17.9395 26.9713C18.4745 26.4114 18.4745 25.5036 17.9393 24.9433Z" fill="#10108A"/>
<path d="M16.001 41.8362L10.778 47.3015L8.71083 45.1383C8.1754 44.5785 7.30776 44.5785 6.77252 45.1383C6.23728 45.6986 6.23728 46.6064 6.77252 47.1665L9.80871 50.3434C10.0658 50.6123 10.4143 50.7633 10.778 50.7633C11.1416 50.7633 11.4899 50.6123 11.7472 50.3432L17.9395 43.8639C18.4747 43.3037 18.4747 42.3958 17.9395 41.8358C17.404 41.2761 16.5364 41.2759 16.001 41.8362Z" fill="#10108A"/>
</svg>
