<svg width="33" height="33" viewBox="0 0 33 33" fill="none" xmlns="http://www.w3.org/2000/svg">
<path d="M22.9425 16.3723C22.6635 16.2471 22.3845 16.1341 22.1016 16.0292C24.0586 14.4027 25.3082 11.9206 25.3082 9.1439C25.3082 4.26042 21.4414 0.289062 16.6864 0.289062C11.9314 0.289062 8.06448 4.26042 8.06448 9.1439C8.06448 11.9247 9.31807 14.4108 11.2751 16.0332C5.2154 18.3055 0.876953 24.2867 0.876953 31.2891H3.7496C3.7496 23.9638 9.55385 18.0068 16.6824 18.0068C18.4626 18.0068 20.1838 18.37 21.799 19.0844L22.9425 16.3723ZM16.6864 3.23933C19.8577 3.23933 22.4356 5.8869 22.4356 9.1439C22.4356 12.4009 19.8577 15.0485 16.6864 15.0485C13.515 15.0485 10.9371 12.3969 10.9371 9.1439C10.9371 5.89094 13.515 3.23933 16.6864 3.23933ZM20.6633 23.0235C20.6633 23.4351 20.8833 23.8105 21.237 24.0002L26.2671 26.7285C26.4243 26.8132 26.5972 26.8576 26.7701 26.8576C26.943 26.8576 27.1159 26.8132 27.2731 26.7285L32.3032 24.0002C32.6569 23.8064 32.877 23.4311 32.877 23.0235C32.877 22.6158 32.6569 22.2365 32.3032 22.0468L27.2731 19.3144C26.9587 19.1449 26.5815 19.1449 26.2671 19.3144L21.237 22.0468C20.8833 22.2365 20.6633 22.6118 20.6633 23.0235ZM26.7701 21.5463L29.4934 23.0235L26.7701 24.5006L24.0468 23.0235L26.7701 21.5463Z" fill="#10108A"/>
<g clip-path="url(#clip0_3312_1429)">
<path d="M14.0988 26.5281L15.0224 25.8595C15.6194 25.4273 15.9179 25.2113 16.1055 25.318C16.2931 25.4247 16.1957 25.7552 16.0009 26.4162L15.9825 26.4785C15.9123 26.7169 15.8771 26.8361 15.9389 26.9313L15.9421 26.9362C16.0062 27.0303 16.1427 27.0635 16.4156 27.13C16.9067 27.2496 17.1524 27.3095 17.1954 27.4651C17.1961 27.4677 17.1968 27.4703 17.1974 27.4729C17.2352 27.6295 17.0415 27.7697 16.654 28.0502L15.7305 28.7189C15.1335 29.151 14.835 29.3671 14.6473 29.2604C14.4597 29.1536 14.5571 28.8232 14.752 28.1622L14.7704 28.0999C14.8406 27.8615 14.8758 27.7423 14.814 27.6471L14.8107 27.6421C14.7467 27.5481 14.6102 27.5149 14.3373 27.4484C13.8461 27.3287 13.6005 27.2689 13.5574 27.1133C13.5567 27.1107 13.5561 27.1081 13.5554 27.1055C13.5176 26.9489 13.7114 26.8086 14.0988 26.5281Z" stroke="#10108A"/>
<path d="M10.793 27.2897C10.793 24.9885 12.845 23.123 15.3763 23.123C17.9076 23.123 19.9596 24.9885 19.9596 27.2897C19.9596 29.5909 17.9076 31.4564 15.3763 31.4564C12.845 31.4564 10.793 29.5909 10.793 27.2897Z" stroke="#10108A"/>
</g>
<defs>
<clipPath id="clip0_3312_1429">
<rect width="11" height="10" fill="white" transform="translate(9.87695 22.2891)"/>
</clipPath>
</defs>
</svg>
