<svg width="60" height="60" viewBox="0 0 60 60" fill="none" xmlns="http://www.w3.org/2000/svg">
<path d="M29.766 19.3528C32.608 19.3528 34.92 17.0408 34.92 14.1989C34.92 11.3569 32.6079 9.04492 29.766 9.04492C26.9247 9.04492 24.6133 11.357 24.6133 14.1989C24.6132 17.0408 26.9247 19.3528 29.766 19.3528Z" fill="#10108A"/>
<path d="M38.1575 22.3947C41.8491 19.0164 42.2237 18.2744 42.4252 17.8755C43.307 16.1293 43.75 12.0666 43.8299 11.2699C43.9506 10.0668 43.0699 8.98968 41.8664 8.86872C41.7937 8.86146 41.7202 8.85777 41.6475 8.85777C40.5163 8.85777 39.5782 9.70646 39.465 10.8318C39.2796 12.6744 38.8712 15.1057 38.531 15.8526C38.1011 16.4709 36.0055 18.4538 33.7958 20.4259H26.2055C23.9958 18.4536 21.9 16.4707 21.4701 15.8524C21.13 15.1064 20.7216 12.6751 20.5363 10.8324C20.4234 9.70646 19.4861 8.85742 18.3557 8.85742C18.2824 8.85742 18.2083 8.86111 18.1351 8.86849C16.9315 8.98922 16.0506 10.0665 16.1712 11.2697C16.251 12.0666 16.694 16.1297 17.5758 17.8754C17.777 18.2739 18.1516 19.0158 21.8439 22.3947C22.8693 23.3332 23.8491 24.2004 24.4873 24.76V48.862C24.4873 50.1202 25.5108 51.1437 26.7688 51.1437C28.027 51.1437 29.0505 50.1202 29.0505 48.862V36.2221H30.4924V48.862C30.4924 50.1202 31.5159 51.1437 32.774 51.1437C34.0322 51.1437 35.0557 50.1202 35.0557 48.862L35.0481 25.1672C35.571 24.712 36.83 23.6096 38.1575 22.3947Z" fill="#10108A"/>
<path d="M18.7195 28.1623C18.4768 27.6007 17.9288 27.2391 17.3188 27.2247C17.315 27.2246 11.8027 27.2236 11.7935 27.2236C11.3274 27.2236 10.8955 27.4309 10.6046 27.7749L10.3119 27.0982C10.0927 26.5912 9.59394 26.2637 9.04137 26.2637C9.02857 26.2637 4.07938 26.2637 4.05113 26.2637C3.37632 26.2637 2.99983 26.5913 2.78074 27.0982L0.114498 33.2639C-0.0322944 33.603 -0.03806 33.9791 0.0978927 34.3226C0.234076 34.6661 0.495834 34.9359 0.834851 35.0825C1.00966 35.1583 1.19416 35.1967 1.3835 35.1967C1.93585 35.1967 2.43434 34.8691 2.65355 34.3621L3.21385 33.0664V45.0044C3.21385 45.8443 3.89742 46.5277 4.73747 46.5277C5.5774 46.5277 6.26074 45.8443 6.26074 45.0044V37.1824H6.90325V45.0044C6.90325 45.8443 7.58671 46.5277 8.42664 46.5277C9.26657 46.5277 9.95002 45.8443 9.95002 45.0044V36.7543C10.0608 36.631 10.1538 36.4895 10.2218 36.332L10.8442 34.8926C10.8468 34.8945 10.8493 34.8968 10.8519 34.8989V48.301C10.8519 49.2457 11.6205 50.0142 12.5653 50.0142C13.5099 50.0142 14.2785 49.2457 14.2785 48.301V39.4104H15.001V48.301C15.001 49.2457 15.7696 50.0142 16.7143 50.0142C17.659 50.0142 18.4275 49.2457 18.4275 48.301L18.4316 35.3365L18.862 36.3321C19.1087 36.9022 19.6694 37.2707 20.2906 37.2707C20.5033 37.2707 20.7108 37.2275 20.9075 37.1424C21.289 36.9776 21.5833 36.6741 21.7364 36.2877C21.8895 35.9013 21.8828 35.4785 21.7179 35.0971L18.7195 28.1623Z" fill="#10108A"/>
<path d="M14.7953 26.6549C16.9575 26.6549 18.7164 24.8958 18.7164 22.7336C18.7164 20.5715 16.9575 18.8125 14.7953 18.8125C12.6336 18.8125 10.875 20.5715 10.875 22.7336C10.875 24.8958 12.6336 26.6549 14.7953 26.6549Z" fill="#10108A"/>
<path d="M6.72002 25.758C8.6425 25.758 10.2065 24.194 10.2065 22.2715C10.2065 20.3491 8.6425 18.7852 6.72002 18.7852C4.798 18.7852 3.23438 20.3492 3.23438 22.2715C3.23449 24.1939 4.798 25.758 6.72002 25.758Z" fill="#10108A"/>
<path d="M41.2832 22.7336C41.2832 24.8958 43.0422 26.6549 45.2044 26.6549C47.366 26.6549 49.1246 24.8958 49.1246 22.7336C49.1246 20.5715 47.366 18.8125 45.2044 18.8125C43.0422 18.8125 41.2832 20.5715 41.2832 22.7336Z" fill="#10108A"/>
<path d="M59.8849 33.2639L57.2185 27.0982C56.9995 26.5912 56.5008 26.2637 55.9481 26.2637C55.9199 26.2637 50.9707 26.2637 50.9579 26.2637C50.4053 26.2637 49.9067 26.5913 49.6874 27.0982L49.3946 27.7751C49.1038 27.431 48.6718 27.2238 48.2057 27.2238C48.1965 27.2238 42.6842 27.2248 42.6804 27.2248C42.0049 27.2248 41.5225 27.6008 41.2797 28.1624L38.2811 35.0969C38.116 35.4784 38.1095 35.9012 38.2626 36.2875C38.4156 36.6739 38.71 36.9774 39.0914 37.1422C39.2882 37.2273 39.4958 37.2704 39.7084 37.2704C40.3296 37.2704 40.8903 36.9021 41.137 36.3319L41.5674 35.3363L41.5715 48.3008C41.5715 49.2454 42.34 50.014 43.2848 50.014C44.2295 50.014 44.9981 49.2454 44.9981 48.3008V39.4101H45.7206V48.3008C45.7206 49.2454 46.4892 50.014 47.4338 50.014C48.3786 50.014 49.1472 49.2454 49.1472 48.3008V34.8987C49.1498 34.8966 49.1523 34.8944 49.155 34.8923L49.7773 36.3318C49.8455 36.4893 49.9383 36.6308 50.0491 36.7541V45.0042C50.0491 45.8441 50.7326 46.5274 51.5725 46.5274C52.4124 46.5274 53.0959 45.8441 53.0959 45.0042V37.1822H53.7384V45.0042C53.7384 45.8441 54.4217 46.5274 55.2617 46.5274C56.1017 46.5274 56.7853 45.8441 56.7853 45.0042V33.0662L57.3456 34.3619C57.5647 34.8688 58.0633 35.1964 58.6156 35.1964C58.805 35.1964 58.9895 35.158 59.164 35.0824C59.5032 34.9358 59.765 34.6659 59.9012 34.3224C60.0373 33.979 60.0315 33.603 59.8849 33.2639Z" fill="#10108A"/>
<path d="M53.2794 25.758C55.2014 25.758 56.7651 24.194 56.7651 22.2715C56.7651 20.3491 55.2014 18.7852 53.2794 18.7852C51.3569 18.7852 49.793 20.3492 49.793 22.2715C49.7929 24.1939 51.3569 25.758 53.2794 25.758Z" fill="#10108A"/>
</svg>
