<svg width="59" height="53" viewBox="0 0 59 53" fill="none" xmlns="http://www.w3.org/2000/svg">
<path d="M3.53142 46.4878C3.53142 43.354 3.53142 6.66233 3.53142 3.52584C6.63429 3.52584 39.7359 3.52584 42.8387 3.52584C42.8387 4.63482 42.8387 9.94448 42.8387 16.4724C43.5977 16.3324 44.3761 16.2372 45.1743 16.2372C45.5831 16.2372 45.9696 16.3212 46.3729 16.3577V0H0V50.0136H29.1641V46.4878C18.5503 46.4878 5.43014 46.4878 3.53142 46.4878Z" fill="#10108A"/>
<path d="M8.55078 26.854H32.5032C32.7384 25.5349 33.2034 24.3083 33.8138 23.1602H8.55078V26.854Z" fill="#10108A"/>
<path d="M37.8101 11.6113H8.55078V15.3052H37.8101V11.6113Z" fill="#10108A"/>
<path d="M8.55078 38.4048H33.3825C34.0462 38.0015 34.7548 37.6738 35.5136 37.4722C34.7939 36.6348 34.203 35.694 33.6989 34.7109H8.55078V38.4048Z" fill="#10108A"/>
<g clip-path="url(#clip0_3312_1382)">
<path d="M40.5512 49.1673C40.2984 49.1637 40.0573 49.0604 39.8803 48.8798C38.9143 47.9105 38.1501 46.7592 37.6319 45.4926C37.1138 44.2259 36.8519 42.8691 36.8616 41.5007C36.8616 38.7048 37.9722 36.0235 39.9492 34.0466C41.9261 32.0696 44.6074 30.959 47.4033 30.959C50.1991 30.959 52.8804 32.0696 54.8573 34.0466C56.8343 36.0235 57.9449 38.7048 57.9449 41.5007C57.9546 42.8691 57.6928 44.2259 57.1746 45.4926C56.6564 46.7592 55.8922 47.9105 54.9262 48.8798C54.8438 48.9897 54.7388 49.0805 54.6182 49.1462C54.4977 49.212 54.3644 49.251 54.2274 49.2607C54.0905 49.2705 53.953 49.2507 53.8244 49.2027C53.6958 49.1546 53.5789 49.0795 53.4819 48.9825C53.3848 48.8854 53.3097 48.7686 53.2617 48.6399C53.2137 48.5113 53.1938 48.3738 53.2036 48.2369C53.2133 48.0999 53.2524 47.9667 53.3181 47.8461C53.3838 47.7256 53.4747 47.6205 53.5845 47.5381C54.7672 46.3228 55.5654 44.7857 55.8793 43.1191C56.1931 41.4526 56.0087 39.7305 55.3491 38.1681C54.6894 36.6058 53.5839 35.2726 52.1706 34.3352C50.7574 33.3979 49.0991 32.8979 47.4033 32.8979C45.7074 32.8979 44.0492 33.3979 42.6359 34.3352C41.2226 35.2726 40.1171 36.6058 39.4574 38.1681C38.7978 39.7305 38.6134 41.4526 38.9272 43.1191C39.2411 44.7857 40.0393 46.3228 41.222 47.5381C41.315 47.6234 41.3892 47.7271 41.4399 47.8426C41.4907 47.9581 41.5169 48.0828 41.5169 48.209C41.5169 48.3351 41.4907 48.4599 41.4399 48.5754C41.3892 48.6909 41.315 48.7945 41.222 48.8798C41.0451 49.0604 40.8039 49.1637 40.5512 49.1673Z" fill="#10108A"/>
<path d="M46.7316 36.9961L42.8983 40.7815C42.7323 40.9512 42.6316 41.1741 42.6141 41.4109C42.5965 41.6476 42.6633 41.883 42.8025 42.0753C42.88 42.1907 42.983 42.2869 43.1036 42.3564C43.2241 42.4259 43.3589 42.4668 43.4977 42.4761C43.6365 42.4853 43.7756 42.4626 43.9043 42.4098C44.0329 42.3569 44.1478 42.2753 44.24 42.1711L46.4441 39.9669V51.0836C46.4441 51.3378 46.5451 51.5815 46.7248 51.7612C46.9046 51.941 47.1483 52.0419 47.4025 52.0419C47.6566 52.0419 47.9004 51.941 48.0801 51.7612C48.2598 51.5815 48.3608 51.3378 48.3608 51.0836V39.9669L50.565 42.1711C50.6572 42.2753 50.772 42.3569 50.9007 42.4098C51.0294 42.4626 51.1685 42.4853 51.3073 42.4761C51.4461 42.4668 51.5809 42.4259 51.7014 42.3564C51.8219 42.2869 51.9249 42.1907 52.0025 42.0753C52.1417 41.883 52.2084 41.6476 52.1909 41.4109C52.1733 41.1741 52.0727 40.9512 51.9066 40.7815L48.0733 36.9961C47.988 36.9031 47.8844 36.8289 47.7689 36.7782C47.6534 36.7274 47.5286 36.7012 47.4025 36.7012C47.2763 36.7012 47.1516 36.7274 47.0361 36.7782C46.9206 36.8289 46.8169 36.9031 46.7316 36.9961Z" fill="#10108A"/>
</g>
<defs>
<clipPath id="clip0_3312_1382">
<rect width="23" height="23" fill="white" transform="translate(35.9023 30)"/>
</clipPath>
</defs>
</svg>
