<svg width="49" height="49" viewBox="0 0 49 49" fill="none" xmlns="http://www.w3.org/2000/svg">
<g clip-path="url(#clip0_3312_1290)">
<path fill-rule="evenodd" clip-rule="evenodd" d="M20.4167 18.375C19.2891 18.375 18.375 19.2891 18.375 20.4167V42.875C18.375 44.0026 19.2891 44.9167 20.4167 44.9167H42.875C44.0026 44.9167 44.9167 44.0026 44.9167 42.875V20.4167C44.9167 19.2891 44.0026 18.375 42.875 18.375H20.4167ZM30.625 14.2917V6.125C30.625 4.99743 29.7109 4.08333 28.5833 4.08333H6.125C4.99743 4.08333 4.08333 4.99743 4.08333 6.125V28.5833C4.08333 29.7109 4.99743 30.625 6.125 30.625H14.2917V20.4167C14.2917 17.0339 17.0339 14.2917 20.4167 14.2917H30.625ZM34.7083 14.2917H42.875C46.2578 14.2917 49 17.0339 49 20.4167V42.875C49 46.2578 46.2578 49 42.875 49H20.4167C17.0339 49 14.2917 46.2578 14.2917 42.875V34.7083H6.125C2.74226 34.7083 0 31.9662 0 28.5833V6.125C0 2.74226 2.74226 0 6.125 0H28.5833C31.9662 0 34.7083 2.74226 34.7083 6.125V14.2917Z" fill="#10108A"/>
</g>
<defs>
<clipPath id="clip0_3312_1290">
<rect width="49" height="49" fill="white"/>
</clipPath>
</defs>
</svg>
