<svg width="45" height="45" viewBox="0 0 45 45" fill="none" xmlns="http://www.w3.org/2000/svg">
<path d="M13.013 3.75C13.7928 3.75 14.4249 4.35789 14.4249 5.10776V7.84663C15.6772 7.82327 17.0809 7.82327 18.6604 7.82327H26.1902C27.7695 7.82327 29.1733 7.82327 30.4256 7.84663V5.10776C30.4256 4.35789 31.0577 3.75 31.8375 3.75C32.6171 3.75 33.2494 4.35789 33.2494 5.10776V7.96676C35.9587 8.17541 37.7376 8.68749 39.0443 9.94423C40.3511 11.201 40.8836 12.9115 41.1006 15.5172L41.25 16.875H5.48355H3.75V15.5172C3.96696 12.9115 4.49944 11.201 5.80622 9.94423C7.11302 8.68749 8.89174 8.17541 11.6012 7.96676V5.10776C11.6012 4.35789 12.2333 3.75 13.013 3.75Z" fill="#10108A"/>
<path opacity="0.5" d="M41.2487 26.2502V22.5002C41.2487 20.9269 41.2427 18.1224 41.2185 16.875H3.76682C3.74261 18.1224 3.74874 20.9269 3.74874 22.5002V26.2502C3.74874 33.3212 3.74874 36.8567 5.94543 39.0534C8.14213 41.2502 11.6777 41.2502 18.7487 41.2502H26.2487C33.3199 41.2502 36.8554 41.2502 39.0521 39.0534C41.2487 36.8567 41.2487 33.3212 41.2487 26.2502Z" fill="#10108A"/>
<path d="M33.75 31.875C33.75 32.9106 32.9106 33.75 31.875 33.75C30.8394 33.75 30 32.9106 30 31.875C30 30.8394 30.8394 30 31.875 30C32.9106 30 33.75 30.8394 33.75 31.875Z" fill="#10108A"/>
<path d="M33.75 24.375C33.75 25.4106 32.9106 26.25 31.875 26.25C30.8394 26.25 30 25.4106 30 24.375C30 23.3394 30.8394 22.5 31.875 22.5C32.9106 22.5 33.75 23.3394 33.75 24.375Z" fill="#10108A"/>
<path d="M24.375 31.875C24.375 32.9106 23.5356 33.75 22.5 33.75C21.4644 33.75 20.625 32.9106 20.625 31.875C20.625 30.8394 21.4644 30 22.5 30C23.5356 30 24.375 30.8394 24.375 31.875Z" fill="#10108A"/>
<path d="M24.375 24.375C24.375 25.4106 23.5356 26.25 22.5 26.25C21.4644 26.25 20.625 25.4106 20.625 24.375C20.625 23.3394 21.4644 22.5 22.5 22.5C23.5356 22.5 24.375 23.3394 24.375 24.375Z" fill="#10108A"/>
<path d="M15 31.875C15 32.9106 14.1605 33.75 13.125 33.75C12.0895 33.75 11.25 32.9106 11.25 31.875C11.25 30.8394 12.0895 30 13.125 30C14.1605 30 15 30.8394 15 31.875Z" fill="#10108A"/>
<path d="M15 24.375C15 25.4106 14.1605 26.25 13.125 26.25C12.0895 26.25 11.25 25.4106 11.25 24.375C11.25 23.3394 12.0895 22.5 13.125 22.5C14.1605 22.5 15 23.3394 15 24.375Z" fill="#10108A"/>
</svg>
