<svg width="60" height="60" viewBox="0 0 60 60" fill="none" xmlns="http://www.w3.org/2000/svg">
<path d="M14.8554 52.4885C11.8566 52.4885 9.4148 50.0469 9.4148 47.0461V23.2886H48.0541V35.9562C49.48 36.302 50.8152 36.8703 52.0292 37.6238L51.9772 11.3137C51.9737 9.51125 50.5115 8.05203 48.7091 8.05203H48.7077V6.71293C48.7077 3.55074 46.1354 0.980469 42.899 0.980469C39.7394 0.980469 37.1677 3.55062 37.1677 6.71293V8.05191H34.505V6.71293C34.505 3.55074 31.9327 0.980469 28.6958 0.980469C25.5366 0.980469 22.9644 3.55062 22.9644 6.71293V8.05191H20.3016V6.71293C20.3016 3.55074 17.73 0.980469 14.493 0.980469C11.3334 0.980469 8.76324 3.55062 8.76324 6.71293V8.05191C6.9602 8.05191 5.4977 9.51207 5.49488 11.315L5.43945 47.0461C5.43945 52.2392 9.66383 56.4628 14.8552 56.4628H33.1509C32.399 55.2484 31.8364 53.9123 31.4909 52.4884H14.8554V52.4885ZM41.1406 6.71281C41.1406 5.74402 41.9282 4.95453 42.9741 4.95453C43.9433 4.95453 44.7303 5.74402 44.7303 6.71281V13.4619C44.7303 14.4308 43.9432 15.218 42.9741 15.218H42.8989C41.9282 15.218 41.1406 14.4307 41.1406 13.4619V6.71281ZM26.938 6.71281C26.938 5.74402 27.7272 4.95453 28.7715 4.95453C29.74 4.95453 30.5298 5.74402 30.5298 6.71281V13.4619C30.5298 14.4308 29.74 15.218 28.7715 15.218H28.6941C27.7272 15.218 26.938 14.4307 26.938 13.4619V6.71281ZM12.7368 6.71281C12.7368 5.74402 13.524 4.95453 14.5687 4.95453C15.5394 4.95453 16.3249 5.74402 16.3249 6.71281V13.4619C16.3249 14.4308 15.5394 15.218 14.5687 15.218H14.493C13.5239 15.218 12.7368 14.4307 12.7368 13.4619V6.71281Z" fill="#10108A"/>
<path d="M44.8127 39.5273C39.431 39.5273 35.0684 43.8913 35.0684 49.2736C35.0684 54.6573 39.431 59.0205 44.8127 59.0205C50.1986 59.0205 54.5613 54.6574 54.5613 49.2736C54.5613 43.8913 50.1987 39.5273 44.8127 39.5273ZM48.6049 51.6207C48.4162 51.925 48.0912 52.0911 47.7589 52.0911C47.5812 52.0911 47.4004 52.0438 47.2378 51.9428L44.2917 50.1185C43.9972 49.9373 43.8196 49.6182 43.8196 49.2736V43.5138C43.8196 42.9645 44.2655 42.5196 44.8129 42.5196C45.3645 42.5196 45.8082 42.9645 45.8082 43.5138V48.7202L48.2843 50.2527C48.7485 50.5416 48.8941 51.1533 48.6049 51.6207Z" fill="#10108A"/>
<path d="M31.4211 37.2506V37.1891C33.8498 36.3383 35.0355 34.7002 35.0355 32.604C35.0355 29.9026 32.6977 27.6855 28.4771 27.6855C26.42 27.6855 24.4817 28.16 23.1874 28.7414C22.7108 28.9555 22.4617 29.4865 22.6036 29.9893L22.9739 31.3022C23.0554 31.5913 23.2564 31.832 23.5263 31.9638C23.7962 32.0958 24.1095 32.1061 24.3879 31.9931C25.2542 31.6414 26.3693 31.3302 27.444 31.3302C29.3895 31.3302 30.3601 32.2112 30.3601 33.3942C30.3601 35.0645 28.3847 35.6415 26.8361 35.6718H26.1011C25.5183 35.6718 25.0458 36.1443 25.0458 36.7272V37.9248C25.0458 38.5077 25.5183 38.9802 26.1011 38.9802H26.9287C28.9625 38.9802 30.9059 39.8623 30.9059 41.8054C30.9059 43.2926 29.6914 44.4472 27.2932 44.4472C26.0118 44.4472 24.7323 44.0818 23.7868 43.7145C23.508 43.6061 23.1962 43.6213 22.9291 43.7559C22.6619 43.8906 22.4635 44.1322 22.385 44.421L21.9883 45.8802C21.8516 46.3833 22.1021 46.9084 22.5785 47.1203C23.8025 47.6644 25.5881 48.0901 27.6255 48.0901C28.9758 48.0901 30.1694 47.8918 31.2137 47.5538C31.6008 44.4947 32.9888 41.7449 35.049 39.6534C34.2915 38.3845 32.9586 37.5265 31.4211 37.2506Z" fill="#10108A"/>
</svg>
