<svg width="60" height="61" viewBox="0 0 60 61" fill="none" xmlns="http://www.w3.org/2000/svg">
<path d="M22.5 17.5H12.5C9.73857 17.5 7.5 19.7386 7.5 22.5V45C7.5 47.7615 9.73857 50 12.5 50H47.5C50.2615 50 52.5 47.7615 52.5 45V22.5C52.5 19.7386 50.2615 17.5 47.5 17.5H37.5M22.5 17.5V12.5C22.5 9.73857 24.7386 7.5 27.5 7.5H32.5C35.2615 7.5 37.5 9.73857 37.5 12.5V17.5M22.5 17.5H37.5" stroke="#10108A" stroke-width="3" stroke-linecap="round" stroke-linejoin="round"/>
<path d="M21 28.6673C21 27.8619 21.4477 27.209 22 27.209H40C40.5523 27.209 41 27.8619 41 28.6673C41 29.4727 40.5523 30.1257 40 30.1257H22C21.4477 30.1257 21 29.4727 21 28.6673Z" fill="#10108A"/>
<path d="M21 35.5833C21 34.7779 21.4477 34.125 22 34.125H40C40.5523 34.125 41 34.7779 41 35.5833C41 36.3888 40.5523 37.0417 40 37.0417H22C21.4477 37.0417 21 36.3888 21 35.5833Z" fill="#10108A"/>
<path d="M22 41.041C21.4477 41.041 21 41.6939 21 42.4993C21 43.3048 21.4477 43.9577 22 43.9577H34C34.5523 43.9577 35 43.3048 35 42.4993C35 41.6939 34.5523 41.041 34 41.041H22Z" fill="#10108A"/>
</svg>
