<svg width="14" height="13" viewBox="0 0 14 13" fill="none" xmlns="http://www.w3.org/2000/svg">
<path opacity="0.4" d="M13 4.5H1M10.3333 0.5V1.83333M3.66667 0.5V1.83333M11 6.5H9.66667M7.66667 6.5H6.33333M4.33333 6.5H3M11 8.5H9.66667M7.66667 8.5H6.33333M4.33333 8.5H3M11 10.5H9.66667M7.66667 10.5H6.33333M4.33333 10.5H3M10.8667 12.5H3.13333C2.3866 12.5 2.0132 12.5 1.728 12.3547C1.47713 12.2269 1.27313 12.0229 1.14533 11.772C1 11.4868 1 11.1134 1 10.3667V3.96667C1 3.21993 1 2.84656 1.14533 2.56135C1.27313 2.31046 1.47713 2.10649 1.728 1.97866C2.0132 1.83333 2.3866 1.83333 3.13333 1.83333H10.8667C11.6134 1.83333 11.9868 1.83333 12.272 1.97866C12.5229 2.10649 12.7268 2.31046 12.8547 2.56135C13 2.84656 13 3.21993 13 3.96667V10.3667C13 11.1134 13 11.4868 12.8547 11.772C12.7268 12.0229 12.5229 12.2269 12.272 12.3547C11.9868 12.5 11.6134 12.5 10.8667 12.5Z" stroke="#606060" stroke-linecap="round"/>
</svg>
