<svg width="28" height="24" viewBox="0 0 28 24" fill="none" xmlns="http://www.w3.org/2000/svg">
<path d="M26.7693 18.1552C24.9305 16.8247 22.7186 16.1084 20.4489 16.1084C18.1792 16.1084 15.9674 16.8247 14.1285 18.1552C13.9806 18.2475 13.8578 18.375 13.7713 18.5264C13.6848 18.6779 13.6372 18.8484 13.6328 19.0227V22.6166C13.6486 22.8687 13.76 23.1052 13.9442 23.278C14.1285 23.4507 14.3717 23.5466 14.6242 23.5461H26.2736C26.5261 23.5466 26.7693 23.4507 26.9536 23.278C27.1378 23.1052 27.2492 22.8687 27.265 22.6166V19.0227C27.2606 18.8484 27.2131 18.6779 27.1265 18.5264C27.04 18.375 26.9173 18.2475 26.7693 18.1552ZM24.7864 21.0675H16.1114V19.8282C17.4192 19.0352 18.9194 18.6158 20.4489 18.6158C21.9784 18.6158 23.4786 19.0352 24.7864 19.8282V21.0675Z" fill="#002c8a"/>
<path d="M20.4483 14.8713C21.1837 14.8713 21.9025 14.6532 22.5139 14.2447C23.1253 13.8362 23.6018 13.2555 23.8832 12.5762C24.1646 11.8968 24.2382 11.1493 24.0948 10.4281C23.9513 9.7069 23.5972 9.04444 23.0773 8.52449C22.5573 8.00453 21.8949 7.65044 21.1737 7.50699C20.4525 7.36353 19.7049 7.43716 19.0256 7.71855C18.3462 7.99995 17.7656 8.47648 17.357 9.08788C16.9485 9.69928 16.7305 10.4181 16.7305 11.1534C16.7305 12.1395 17.1222 13.0851 17.8194 13.7824C18.5166 14.4796 19.4623 14.8713 20.4483 14.8713ZM20.4483 9.91413C20.6934 9.91413 20.9331 9.98681 21.1369 10.123C21.3407 10.2592 21.4995 10.4527 21.5933 10.6792C21.6871 10.9056 21.7116 11.1548 21.6638 11.3952C21.616 11.6356 21.498 11.8564 21.3247 12.0297C21.1513 12.203 20.9305 12.3211 20.6901 12.3689C20.4497 12.4167 20.2005 12.3922 19.9741 12.2984C19.7476 12.2046 19.5541 12.0457 19.4179 11.8419C19.2817 11.6381 19.209 11.3985 19.209 11.1534C19.209 10.8247 19.3396 10.5095 19.572 10.2771C19.8044 10.0447 20.1197 9.91413 20.4483 9.91413Z" fill="#002c8a"/>
<path d="M14.8715 14.8715V3.09823H12.3929V0H2.47858V3.09823H0V22.3072C0 22.6359 0.130568 22.9511 0.36298 23.1835C0.595392 23.4159 0.91061 23.5465 1.23929 23.5465C1.56797 23.5465 1.88319 23.4159 2.1156 23.1835C2.34801 22.9511 2.47858 22.6359 2.47858 22.3072V5.57681H4.95716V2.47858H9.91432V5.57681H12.3929V14.8715C12.3929 15.2002 12.5235 15.5154 12.7559 15.7478C12.9883 15.9802 13.3035 16.1108 13.6322 16.1108C13.9609 16.1108 14.2761 15.9802 14.5085 15.7478C14.7409 15.5154 14.8715 15.2002 14.8715 14.8715Z" fill="#002c8a"/>
<path d="M8.05526 8.05574H9.29455C9.45889 8.05574 9.6165 7.99046 9.7327 7.87426C9.84891 7.75805 9.91419 7.60044 9.91419 7.4361C9.91419 7.27176 9.84891 7.11415 9.7327 6.99794C9.6165 6.88174 9.45889 6.81645 9.29455 6.81645H8.05526V5.57716C8.05526 5.41282 7.98997 5.25522 7.87377 5.13901C7.75756 5.0228 7.59995 4.95752 7.43561 4.95752C7.27127 4.95752 7.11366 5.0228 6.99746 5.13901C6.88125 5.25522 6.81597 5.41282 6.81597 5.57716V6.81645H5.57668C5.41234 6.81645 5.25473 6.88174 5.13852 6.99794C5.02232 7.11415 4.95703 7.27176 4.95703 7.4361C4.95703 7.60044 5.02232 7.75805 5.13852 7.87426C5.25473 7.99046 5.41234 8.05574 5.57668 8.05574H6.81597V9.29503C6.81597 9.45937 6.88125 9.61698 6.99746 9.73319C7.11366 9.8494 7.27127 9.91468 7.43561 9.91468C7.59995 9.91468 7.75756 9.8494 7.87377 9.73319C7.98997 9.61698 8.05526 9.45937 8.05526 9.29503V8.05574Z" fill="#002c8a"/>
</svg>
