<svg width="58" height="60" viewBox="0 0 58 60" fill="none" xmlns="http://www.w3.org/2000/svg">
<path d="M39.8423 22.8182V33H38.3011V24.3594H38.2415L35.8054 25.9503V24.4787L38.3459 22.8182H39.8423Z" fill="#002c8a"/>
<path d="M22 43.75L29.5 46.25C29.5 46.25 48.25 42.5 50.75 42.5C53.25 42.5 53.25 45 50.75 47.5C48.25 50 39.5 57.5 32 57.5C24.5 57.5 19.5 53.75 14.5 53.75C9.5 53.75 2 53.75 2 53.75" stroke="#002c8a" stroke-width="3.75" stroke-linecap="round" stroke-linejoin="round"/>
<path d="M2 38.75C4.5 36.25 9.5 32.5 14.5 32.5C19.5 32.5 31.375 37.5 33.25 40C35.125 42.5 29.5 46.25 29.5 46.25" stroke="#002c8a" stroke-width="3.75" stroke-linecap="round" stroke-linejoin="round"/>
<path d="M21 14.5V4.5C21 3.11929 22.1193 2 23.5 2H53.5C54.8807 2 56 3.11929 56 4.5V24.5" stroke="#002c8a" stroke-width="3.75" stroke-linecap="round" stroke-linejoin="round"/>
<path d="M44.75 2H32.25V13.25H44.75V2Z" stroke="#002c8a" stroke-width="3.75" stroke-linecap="round" stroke-linejoin="round"/>
</svg>
