<svg width="60" height="60" viewBox="0 0 60 60" fill="none" xmlns="http://www.w3.org/2000/svg">
<path d="M48.125 6.875H43.125V8.125C43.125 10.5412 41.1662 12.5 38.75 12.5C36.3338 12.5 34.375 10.5412 34.375 8.125V6.875H24.375V8.125C24.375 10.5412 22.4162 12.5 20 12.5C17.5838 12.5 15.625 10.5412 15.625 8.125V6.875H11.875C9.11362 6.875 6.875 9.1135 6.875 11.875V48.125C6.875 50.8864 9.11362 53.125 11.875 53.125H48.125C50.8865 53.125 53.125 50.8864 53.125 48.125V11.875C53.125 9.1135 50.8865 6.875 48.125 6.875Z" stroke="#002c8a" stroke-width="1.25" stroke-linecap="round" stroke-linejoin="round"/>
<path d="M30.3011 27.1193C29.9432 27.1136 29.5852 27.0455 29.2273 26.9148C28.8693 26.7841 28.5426 26.5639 28.2472 26.2543C27.9517 25.9418 27.7145 25.5199 27.5355 24.9886C27.3565 24.4545 27.267 23.7841 27.267 22.9773C27.267 22.2045 27.3395 21.5199 27.4844 20.9233C27.6293 20.3239 27.8395 19.8196 28.1151 19.4105C28.3906 18.9986 28.723 18.6861 29.1122 18.473C29.5043 18.2599 29.946 18.1534 30.4375 18.1534C30.9261 18.1534 31.3608 18.2514 31.7415 18.4474C32.125 18.6406 32.4375 18.9105 32.679 19.2571C32.9205 19.6037 33.0767 20.0028 33.1477 20.4545H32.108C32.0114 20.0625 31.8239 19.7372 31.5455 19.4787C31.267 19.2202 30.8977 19.0909 30.4375 19.0909C29.7614 19.0909 29.2287 19.3849 28.8395 19.973C28.4531 20.5611 28.2585 21.3864 28.2557 22.4489H28.3239C28.483 22.2074 28.6719 22.0014 28.8906 21.831C29.1122 21.6577 29.3565 21.5241 29.6236 21.4304C29.8906 21.3366 30.1733 21.2898 30.4716 21.2898C30.9716 21.2898 31.429 21.4148 31.8438 21.6648C32.2585 21.9119 32.5909 22.2543 32.8409 22.6918C33.0909 23.1264 33.2159 23.625 33.2159 24.1875C33.2159 24.7273 33.0952 25.2216 32.8537 25.6705C32.6122 26.1165 32.2727 26.4716 31.8352 26.7358C31.4006 26.9972 30.8892 27.125 30.3011 27.1193ZM30.3011 26.1818C30.6591 26.1818 30.9801 26.0923 31.2642 25.9134C31.5511 25.7344 31.777 25.4943 31.9418 25.1932C32.1094 24.892 32.1932 24.5568 32.1932 24.1875C32.1932 23.8267 32.1122 23.4986 31.9503 23.2031C31.7912 22.9048 31.571 22.6676 31.2898 22.4915C31.0114 22.3153 30.6932 22.2273 30.3352 22.2273C30.0653 22.2273 29.8139 22.2812 29.581 22.3892C29.348 22.4943 29.1435 22.6392 28.9673 22.8239C28.794 23.0085 28.6577 23.2202 28.5582 23.4588C28.4588 23.6946 28.4091 23.9432 28.4091 24.2045C28.4091 24.5511 28.4901 24.875 28.652 25.1761C28.8168 25.4773 29.0412 25.7202 29.3253 25.9048C29.6122 26.0895 29.9375 26.1818 30.3011 26.1818Z" fill="#002c8a"/>
<path d="M12.8807 33.7273H13.9318L16.4034 39.7642H16.4886L18.9602 33.7273H20.0114V41H19.1875V35.4744H19.1165L16.8438 41H16.0483L13.7756 35.4744H13.7045V41H12.8807V33.7273ZM23.8794 41.1136C23.387 41.1136 22.955 40.9964 22.5833 40.7621C22.214 40.5277 21.9251 40.1998 21.7168 39.7784C21.5108 39.357 21.4078 38.8646 21.4078 38.3011C21.4078 37.733 21.5108 37.237 21.7168 36.8132C21.9251 36.3894 22.214 36.0604 22.5833 35.826C22.955 35.5916 23.387 35.4744 23.8794 35.4744C24.3719 35.4744 24.8027 35.5916 25.1721 35.826C25.5437 36.0604 25.8326 36.3894 26.0385 36.8132C26.2469 37.237 26.351 37.733 26.351 38.3011C26.351 38.8646 26.2469 39.357 26.0385 39.7784C25.8326 40.1998 25.5437 40.5277 25.1721 40.7621C24.8027 40.9964 24.3719 41.1136 23.8794 41.1136ZM23.8794 40.3608C24.2535 40.3608 24.5613 40.2649 24.8027 40.0732C25.0442 39.8814 25.223 39.6293 25.339 39.3168C25.455 39.0043 25.513 38.6657 25.513 38.3011C25.513 37.9366 25.455 37.5968 25.339 37.282C25.223 36.9671 25.0442 36.7126 24.8027 36.5185C24.5613 36.3243 24.2535 36.2273 23.8794 36.2273C23.5054 36.2273 23.1976 36.3243 22.9561 36.5185C22.7147 36.7126 22.5359 36.9671 22.4199 37.282C22.3039 37.5968 22.2459 37.9366 22.2459 38.3011C22.2459 38.6657 22.3039 39.0043 22.4199 39.3168C22.5359 39.6293 22.7147 39.8814 22.9561 40.0732C23.1976 40.2649 23.5054 40.3608 23.8794 40.3608ZM28.4684 37.7188V41H27.6303V35.5455H28.44V36.3977H28.511C28.6388 36.1207 28.833 35.8982 29.0934 35.7301C29.3538 35.5597 29.69 35.4744 30.1019 35.4744C30.4712 35.4744 30.7944 35.5502 31.0714 35.7017C31.3484 35.8509 31.5638 36.0781 31.7177 36.3835C31.8716 36.6866 31.9485 37.0701 31.9485 37.5341V41H31.1104V37.5909C31.1104 37.1624 30.9992 36.8286 30.7766 36.5895C30.5541 36.348 30.2487 36.2273 29.8604 36.2273C29.5929 36.2273 29.3538 36.2853 29.1431 36.4013C28.9348 36.5173 28.7702 36.6866 28.6495 36.9091C28.5288 37.1316 28.4684 37.4015 28.4684 37.7188ZM35.8521 35.5455V36.2557H33.0254V35.5455H35.8521ZM33.8493 34.2386H34.6873V39.4375C34.6873 39.6742 34.7217 39.8518 34.7903 39.9702C34.8613 40.0862 34.9513 40.1643 35.0602 40.2045C35.1715 40.2424 35.2886 40.2614 35.4118 40.2614C35.5041 40.2614 35.5798 40.2566 35.639 40.2472C35.6982 40.2353 35.7456 40.2259 35.7811 40.2188L35.9515 40.9716C35.8947 40.9929 35.8154 41.0142 35.7136 41.0355C35.6118 41.0592 35.4828 41.071 35.3265 41.071C35.0898 41.071 34.8578 41.0201 34.6305 40.9183C34.4056 40.8165 34.2186 40.6615 34.0694 40.4531C33.9226 40.2448 33.8493 39.982 33.8493 39.6648V34.2386ZM38.068 37.7188V41H37.2299V33.7273H38.068V36.3977H38.139C38.2669 36.116 38.4586 35.8923 38.7143 35.7266C38.9724 35.5585 39.3156 35.4744 39.7441 35.4744C40.1158 35.4744 40.4413 35.549 40.7207 35.6982C41.0001 35.8449 41.2167 36.071 41.3706 36.3764C41.5268 36.6795 41.6049 37.0653 41.6049 37.5341V41H40.7669V37.5909C40.7669 37.1577 40.6544 36.8227 40.4295 36.5859C40.207 36.3468 39.898 36.2273 39.5027 36.2273C39.228 36.2273 38.9818 36.2853 38.764 36.4013C38.5486 36.5173 38.3781 36.6866 38.2527 36.9091C38.1296 37.1316 38.068 37.4015 38.068 37.7188ZM47.0018 36.767L46.2489 36.9801C46.2016 36.8546 46.1317 36.7327 46.0394 36.6143C45.9495 36.4936 45.8263 36.3942 45.6701 36.3161C45.5138 36.2379 45.3138 36.1989 45.07 36.1989C44.7362 36.1989 44.458 36.2758 44.2354 36.4297C44.0153 36.5812 43.9052 36.7741 43.9052 37.0085C43.9052 37.2169 43.9809 37.3814 44.1325 37.5021C44.284 37.6229 44.5207 37.7235 44.8427 37.804L45.6523 38.0028C46.14 38.1212 46.5034 38.3023 46.7425 38.5462C46.9817 38.7876 47.1012 39.099 47.1012 39.4801C47.1012 39.7926 47.0112 40.072 46.8313 40.3182C46.6538 40.5644 46.4052 40.7585 46.0856 40.9006C45.766 41.0426 45.3943 41.1136 44.9705 41.1136C44.4142 41.1136 43.9537 40.9929 43.5891 40.7514C43.2246 40.5099 42.9937 40.1572 42.8967 39.6932L43.6921 39.4943C43.7679 39.7879 43.9111 40.008 44.1218 40.1548C44.3349 40.3016 44.613 40.375 44.9563 40.375C45.3469 40.375 45.6571 40.2921 45.8867 40.1264C46.1187 39.9583 46.2347 39.7571 46.2347 39.5227C46.2347 39.3333 46.1684 39.1747 46.0359 39.0469C45.9033 38.9167 45.6997 38.8196 45.4251 38.7557L44.516 38.5426C44.0165 38.4242 43.6495 38.2408 43.4151 37.9922C43.1831 37.7412 43.0671 37.4276 43.0671 37.0511C43.0671 36.7434 43.1535 36.4711 43.3263 36.2344C43.5015 35.9976 43.7395 35.8118 44.0401 35.6768C44.3432 35.5419 44.6864 35.4744 45.07 35.4744C45.6097 35.4744 46.0335 35.5928 46.3413 35.8295C46.6514 36.0663 46.8716 36.3788 47.0018 36.767Z" fill="#002c8a"/>
</svg>
