<svg width="60" height="60" viewBox="0 0 60 60" fill="none" xmlns="http://www.w3.org/2000/svg">
<g clip-path="url(#clip0_1346_1031)">
<path d="M17.1472 15.041H0.863717C0.386945 15.041 0 15.428 0 15.9047V54.4859C0 54.9627 0.386945 55.3496 0.863717 55.3496H17.1472C17.624 55.3496 18.0109 54.9627 18.0109 54.4859V15.9047C18.0109 15.428 17.624 15.041 17.1472 15.041ZM16.2835 53.6222H1.72743V16.7684H16.2835V53.6222Z" fill="#002c8a"/>
<path d="M51.4112 16.4231C51.3048 15.9726 50.8128 15.6797 50.372 15.7819L38.32 18.6578C38.2274 18.6799 38.1473 18.7255 38.0713 18.7725V4.5771C38.0713 4.10032 37.6843 3.71338 37.2075 3.71338H20.9227C20.4459 3.71338 20.059 4.10032 20.059 4.5771V54.4861C20.059 54.9629 20.4459 55.3498 20.9227 55.3498H37.2062C37.6829 55.3498 38.0699 54.9629 38.0699 54.4861V21.3346L46.2441 55.6221C46.298 55.8446 46.4348 56.0353 46.6324 56.1583C46.7679 56.2426 46.924 56.2868 47.0843 56.2868C47.1493 56.2868 47.2142 56.2771 47.2847 56.2633L59.338 53.3875C59.7996 53.2769 60.0871 52.8098 59.9765 52.3455L51.4112 16.4231ZM36.3424 53.6224H21.7864V5.44081H36.3424V53.6224ZM47.7242 54.3811L39.5596 20.1364L49.9298 17.6655L58.0943 51.9074L47.7242 54.3811Z" fill="#002c8a"/>
<path d="M9.00478 41.3063C12.0838 41.3063 14.5878 38.8022 14.5878 35.7246C14.5878 32.6442 12.0838 30.1401 9.00478 30.1401C5.92718 30.1401 3.4231 32.6442 3.4231 35.7246C3.4231 38.8022 5.92718 41.3063 9.00478 41.3063ZM9.00478 31.8676C11.1316 31.8676 12.8604 33.5978 12.8604 35.7246C12.8604 37.85 11.1302 39.5788 9.00478 39.5788C6.87934 39.5788 5.15053 37.85 5.15053 35.7246C5.15053 33.5978 6.87934 31.8676 9.00478 31.8676Z" fill="#002c8a"/>
<path d="M4.28681 52.872H13.7255C14.2023 52.872 14.5892 52.485 14.5892 52.0083V48.4677C14.5892 47.9909 14.2023 47.604 13.7255 47.604H4.28681C3.81004 47.604 3.4231 47.9909 3.4231 48.4677V52.0083C3.4231 52.485 3.81004 52.872 4.28681 52.872ZM5.15053 49.3301H12.8618V51.1432H5.15053V49.3301Z" fill="#002c8a"/>
<path d="M4.28681 24.9083H13.7255C14.2023 24.9083 14.5892 24.5213 14.5892 24.0446V20.5068C14.5892 20.03 14.2023 19.6431 13.7255 19.6431H4.28681C3.81004 19.6431 3.4231 20.03 3.4231 20.5068V24.0446C3.4231 24.5213 3.81004 24.9083 4.28681 24.9083ZM5.15053 21.3705H12.8618V23.1809H5.15053V21.3705Z" fill="#002c8a"/>
<path d="M29.0651 37.4134C32.1427 37.4134 34.6482 34.9093 34.6482 31.8317C34.6482 28.7541 32.1441 26.25 29.0651 26.25C25.9861 26.25 23.4821 28.7541 23.4821 31.8317C23.4821 34.9093 25.9861 37.4134 29.0651 37.4134ZM29.0651 27.9774C31.1906 27.9774 32.9208 29.7062 32.9208 31.8317C32.9208 33.9571 31.1906 35.6859 29.0651 35.6859C26.9397 35.6859 25.2095 33.9571 25.2095 31.8317C25.2095 29.7062 26.9383 27.9774 29.0651 27.9774Z" fill="#002c8a"/>
<path d="M24.3458 52.872H33.7831C34.2599 52.872 34.6468 52.485 34.6468 52.0083V48.4677C34.6468 47.9909 34.2599 47.604 33.7831 47.604H24.3458C23.869 47.604 23.4821 47.9909 23.4821 48.4677V52.0083C23.4821 52.485 23.869 52.872 24.3458 52.872ZM25.2095 49.3301H32.9194V51.1432H25.2095V49.3301Z" fill="#002c8a"/>
<path d="M24.3458 12.5205H33.7831C34.2599 12.5205 34.6468 12.1336 34.6468 11.6568V8.11762C34.6468 7.64085 34.2599 7.25391 33.7831 7.25391H24.3458C23.869 7.25391 23.4821 7.64085 23.4821 8.11762V11.6568C23.4821 12.1322 23.869 12.5205 24.3458 12.5205ZM25.2095 8.98134H32.9194V10.7931H25.2095V8.98134Z" fill="#002c8a"/>
<path d="M47.9163 32.1982C46.8964 32.4428 46.0313 33.0688 45.4799 33.963C44.9299 34.8571 44.7599 35.9129 45.0031 36.9328C45.4274 38.7113 46.9973 39.9537 48.8215 39.9537C49.131 39.9537 49.4406 39.9178 49.7405 39.8431C51.8479 39.3387 53.1539 37.2161 52.6494 35.1114C52.2321 33.3618 50.6166 32.0918 48.809 32.0918C48.5091 32.0932 48.2079 32.1277 47.9163 32.1982ZM50.9704 35.5135C51.1072 36.0829 51.0118 36.673 50.7037 37.1732C50.3941 37.6749 49.9104 38.0259 49.3369 38.1641C49.1711 38.2041 48.9997 38.2249 48.8297 38.2249C47.8209 38.2249 46.9185 37.5118 46.6836 36.5306C46.5468 35.9599 46.6421 35.367 46.9517 34.8654C47.2612 34.3651 47.7449 34.0141 48.3157 33.8787C48.4843 33.8386 48.657 33.8178 48.8284 33.8178C49.851 33.8192 50.7313 34.5157 50.9704 35.5135Z" fill="#002c8a"/>
<path d="M47.5473 48.4523C47.4271 48.6458 47.3898 48.8835 47.4423 49.1074L48.2645 52.5512C48.3184 52.7737 48.4552 52.9644 48.6529 53.0874C48.7883 53.1703 48.9444 53.2159 49.1048 53.2159C49.1697 53.2159 49.2347 53.2062 49.3065 53.191L56.3047 51.5175C56.7676 51.4069 57.0537 50.9412 56.9432 50.4783L56.1209 47.0344C56.0131 46.5784 55.5336 46.2868 55.0803 46.396L48.0807 48.0654C47.8569 48.1179 47.6661 48.2561 47.5473 48.4523ZM54.6422 48.2754L55.0637 50.0388L49.7446 51.3088L49.3231 49.5454L54.6422 48.2754Z" fill="#002c8a"/>
<path d="M48.5975 19.5396L41.598 21.209C41.3727 21.2629 41.182 21.4011 41.0632 21.5959C40.9443 21.7894 40.9056 22.0271 40.9581 22.251L41.7804 25.6948C41.873 26.0845 42.2185 26.3581 42.6192 26.3581C42.6897 26.3581 42.7588 26.3498 42.821 26.3332L49.8206 24.6625C50.2835 24.5519 50.5696 24.0862 50.459 23.6232L49.6381 20.1794C49.529 19.7248 49.0563 19.4345 48.5975 19.5396ZM43.2591 24.4524L42.8376 22.689L48.1567 21.4218L48.5782 23.1852L43.2591 24.4524Z" fill="#002c8a"/>
</g>
<defs>
<clipPath id="clip0_1346_1031">
<rect width="60" height="60" fill="white"/>
</clipPath>
</defs>
</svg>
