<svg width="60" height="60" viewBox="0 0 60 60" fill="none" xmlns="http://www.w3.org/2000/svg">
<path d="M45.5001 14.477V9.45422C45.5001 9.2776 45.3971 9.11733 45.236 9.04233C45.0758 8.96861 44.8833 8.99215 44.7481 9.10533C38.4793 14.3036 28.7742 15.3369 28.5079 15.3641L17.6536 16.0817C16.1904 16.1784 14.7295 16.4155 13.312 16.7861C12.2943 17.0519 11.5837 17.9599 11.5834 18.9939H11.125C8.85038 18.9939 7 21.1272 7 23.7495V26.9751C7 29.5975 8.85038 31.7307 11.125 31.7307H11.5834C11.5836 32.7646 12.2943 33.6727 13.312 33.9385C14.1438 34.156 14.9913 34.3216 15.8447 34.4457C16.3052 34.8593 17.9897 36.5277 18.6701 39.364C19.3093 42.0277 18.8365 44.7188 17.3394 46.9426C17.0655 47.3497 17.0408 47.8508 17.274 48.2827C17.5126 48.7252 17.9794 49 18.4923 49H26.681C27.0878 49 27.4715 48.8274 27.7333 48.5259C27.9866 48.2343 28.0994 47.8499 28.0425 47.4709C27.7443 45.4906 26.8644 39.6668 24.8997 35.1223L28.5078 35.361C28.774 35.3882 38.4792 36.4211 44.7481 41.6198C44.8313 41.6895 44.9361 41.7254 45.0417 41.7254C45.1079 41.7254 45.1741 41.7112 45.2359 41.6828C45.3971 41.6078 45.5 41.4475 45.5 41.2709V36.2481C48.5713 36.0145 51 33.467 51 30.3623V20.3627C51 17.2581 48.5714 14.7106 45.5001 14.477ZM7.91676 26.9752V23.7496C7.91676 21.6288 9.3562 19.903 11.1251 19.903H11.5834V30.8218H11.1251C9.3562 30.8218 7.91676 29.096 7.91676 26.9752ZM27.1359 47.605C27.1537 47.724 27.1193 47.8402 27.0387 47.9326C26.9514 48.0333 26.8207 48.091 26.6811 48.091H18.4924C18.3156 48.091 18.1621 48.0022 18.0824 47.854C18.0484 47.7911 17.9821 47.6254 18.1021 47.4479C19.7421 45.0114 20.2609 42.0659 19.5617 39.1537C19.0495 37.0183 18.0273 35.5078 17.2598 34.6076C17.3912 34.6186 17.5222 34.6344 17.6536 34.6431L23.8646 35.0539C25.2272 38.0324 26.329 42.2461 27.1359 47.605ZM28.0834 34.4216L17.7145 33.7358C16.3096 33.643 14.9068 33.4157 13.5456 33.0597C12.9302 32.8986 12.5001 32.3522 12.5001 31.7303V18.9943C12.5001 18.3724 12.9302 17.8259 13.5456 17.6649C14.9068 17.3089 16.3095 17.0816 17.7145 16.9888L28.0834 16.3035V34.4216ZM44.5834 40.3277C38.7453 35.9319 30.8679 34.733 29.0001 34.5027V16.2224C30.8679 15.9922 38.7453 14.7929 44.5834 10.3974V40.3277ZM50.0834 30.3624C50.0834 32.9658 48.0655 35.1084 45.5001 35.3392V15.3861C48.0655 15.6168 50.0834 17.7594 50.0834 20.3628V30.3624Z" fill="#002c8a" stroke="#002c8a" stroke-width="2"/>
</svg>
