<svg width="45" height="45" viewBox="0 0 45 45" fill="none" xmlns="http://www.w3.org/2000/svg">
<path d="M36.915 10.6844C38.1266 11.7839 38.7324 12.3336 39.0538 13.059C39.375 13.7843 39.375 14.6024 39.375 16.2386V24.375C39.375 27.9105 39.375 29.6782 38.2766 30.7766C37.1782 31.875 35.4105 31.875 31.875 31.875H24.375C20.8395 31.875 19.0717 31.875 17.9734 30.7766C16.875 29.6782 16.875 27.9105 16.875 24.375V13.125C16.875 9.58946 16.875 7.82169 17.9734 6.72336C19.0717 5.625 20.8395 5.625 24.375 5.625H28.4438C29.8748 5.625 30.5903 5.625 31.2422 5.87666C31.8939 6.12834 32.4238 6.60915 33.4836 7.5708L36.915 10.6844Z" stroke="#002c8a" stroke-width="2" stroke-linejoin="round"/>
<path d="M16.875 13.125H13.125C9.58946 13.125 7.82169 13.125 6.72336 14.2234C5.625 15.3217 5.625 17.0895 5.625 20.625V31.875C5.625 35.4105 5.625 37.1782 6.72336 38.2766C7.82169 39.375 9.58946 39.375 13.125 39.375H20.625C24.1605 39.375 25.9282 39.375 27.0266 38.2766C28.125 37.1782 28.125 35.4105 28.125 31.875" stroke="#002c8a" stroke-width="2" stroke-linejoin="round"/>
</svg>
