<svg width="36" height="36" viewBox="0 0 36 36" fill="none" xmlns="http://www.w3.org/2000/svg">
<path d="M25.2 10.2463H31.0708C31.1734 10.2492 31.2755 10.2311 31.3708 10.1931C31.4662 10.1552 31.5528 10.0981 31.6254 10.0256C31.698 9.95299 31.755 9.86636 31.793 9.77099C31.8309 9.67563 31.849 9.57352 31.8461 9.47091C31.8528 9.36792 31.8364 9.26473 31.7981 9.16891C31.7598 9.07308 31.7005 8.98703 31.6246 8.91707L24.3138 1.6063C24.2439 1.53042 24.1578 1.47115 24.062 1.43282C23.9662 1.39449 23.863 1.37807 23.76 1.38476C23.6574 1.38189 23.5553 1.39999 23.4599 1.43794C23.3645 1.4759 23.2779 1.53291 23.2053 1.60549C23.1328 1.67807 23.0757 1.76469 23.0378 1.86006C22.9998 1.95543 22.9817 2.05754 22.9846 2.16014V8.03091C22.9864 8.61791 23.2204 9.18034 23.6355 9.59541C24.0506 10.0105 24.613 10.2445 25.2 10.2463Z" fill="#002c8a"/>
<path d="M30.7385 13.5694H22.9846C22.1038 13.5676 21.2597 13.2169 20.6369 12.5941C20.0141 11.9713 19.6634 11.1271 19.6615 10.2463V2.49246C19.6615 2.19868 19.5448 1.91693 19.3371 1.7092C19.1294 1.50147 18.8476 1.38477 18.5538 1.38477H7.47692C6.59614 1.38659 5.75197 1.73729 5.12917 2.36009C4.50636 2.98289 4.15567 3.82707 4.15384 4.70784V31.2925C4.15567 32.1732 4.50636 33.0174 5.12917 33.6402C5.75197 34.263 6.59614 34.6137 7.47692 34.6155H28.5231C29.4038 34.6137 30.248 34.263 30.8708 33.6402C31.4936 33.0174 31.8443 32.1732 31.8461 31.2925V14.6771C31.8461 14.5316 31.8175 14.3876 31.7618 14.2532C31.7062 14.1188 31.6246 13.9967 31.5217 13.8938C31.4189 13.791 31.2967 13.7094 31.1624 13.6537C31.028 13.598 30.8839 13.5694 30.7385 13.5694ZM8.58461 12.4617C8.59698 12.1751 8.71871 11.9041 8.92474 11.7045C9.13078 11.5049 9.40546 11.3919 9.6923 11.3886H14.2269C14.3687 11.3877 14.5094 11.4147 14.6407 11.4682C14.7721 11.5216 14.8917 11.6004 14.9926 11.7C15.0936 11.7997 15.1739 11.9182 15.229 12.0489C15.2841 12.1796 15.3129 12.3199 15.3138 12.4617V13.5625C15.3051 13.851 15.1861 14.1252 14.9813 14.3286C14.7766 14.5321 14.5016 14.6494 14.2131 14.6563H9.6923C9.54788 14.6591 9.40437 14.6328 9.27039 14.5788C9.1364 14.5248 9.01469 14.4444 8.91255 14.3422C8.81041 14.2401 8.72994 14.1184 8.67597 13.9844C8.622 13.8504 8.59563 13.7069 8.59845 13.5625L8.58461 12.4617ZM25.2 26.8409C25.2 27.1347 25.0833 27.4164 24.8756 27.6242C24.6678 27.8319 24.3861 27.9486 24.0923 27.9486H9.6923C9.39852 27.9486 9.11678 27.8319 8.90904 27.6242C8.70131 27.4164 8.58461 27.1347 8.58461 26.8409V25.754C8.58461 25.4602 8.70131 25.1785 8.90904 24.9707C9.11678 24.763 9.39852 24.6463 9.6923 24.6463H24.0923C24.3861 24.6463 24.6678 24.763 24.8756 24.9707C25.0833 25.1785 25.2 25.4602 25.2 25.754V26.8409ZM27.4154 20.1948C27.4181 20.342 27.3915 20.4882 27.3371 20.625C27.2827 20.7618 27.2015 20.8864 27.0984 20.9915C26.9952 21.0966 26.8722 21.18 26.7364 21.237C26.6007 21.2939 26.4549 21.3233 26.3077 21.3232H9.6923C9.39852 21.3232 9.11678 21.2065 8.90904 20.9988C8.70131 20.7911 8.58461 20.5093 8.58461 20.2155V19.1078C8.58461 18.8141 8.70131 18.5323 8.90904 18.3246C9.11678 18.1169 9.39852 18.0001 9.6923 18.0001H26.3077C26.6015 18.0001 26.8832 18.1169 27.0909 18.3246C27.2987 18.5323 27.4154 18.8141 27.4154 19.1078V20.1948Z" fill="#002c8a"/>
</svg>
