<svg width="83" height="83" viewBox="0 0 83 83" fill="none" xmlns="http://www.w3.org/2000/svg">
<g clip-path="url(#clip0_2142_2439)">
<path d="M83 14.5464V0H68.4536V5.98962H48.7732V0H34.2268V5.98962H14.5464V0H0V14.5464H5.98962V34.2268H0V48.7732H5.98962V68.4536H0V83H14.5464V77.866H34.2268V83H48.7732V77.866H68.4536V83H83V68.4536H77.0104V48.7732H83V34.2268H77.0104V14.5464H83ZM36.7938 2.567H46.2062V11.9794H36.7938V2.567ZM2.567 11.9794V2.567H11.9794V11.9794H2.567ZM2.567 46.2062V36.7938H11.9794V46.2062H2.567ZM11.9794 80.433H2.567V71.0206H11.9794V80.433ZM46.2062 80.433H36.7938V71.0206H46.2062V80.433ZM68.4536 75.299H48.7732V68.4536H34.2268V75.299H14.5464V68.4536H8.55678V48.7732H14.5464V34.2268H8.55678V14.5464H14.5464V8.55678H34.2268V14.5464H48.7732V8.55678H68.4536V14.5464H74.4432V34.2268H68.4536V48.7732H74.4432V68.4536H68.4536V75.299ZM80.433 71.0206V80.433H71.0206V71.0206H80.433ZM80.433 36.7938V46.2062H71.0206V36.7938H80.433ZM71.0206 11.9794V2.567H80.433V11.9794H71.0206Z" fill="#002c8a"/>
<path d="M8.98512 5.98926H5.5625V8.55626H8.98512V5.98926Z" fill="#002c8a"/>
<path d="M8.98512 40.2168H5.5625V42.7838H8.98512V40.2168Z" fill="#002c8a"/>
<path d="M8.98512 74.4434H5.5625V77.0104H8.98512V74.4434Z" fill="#002c8a"/>
<path d="M43.2117 74.4434H39.7891V77.0104H43.2117V74.4434Z" fill="#002c8a"/>
<path d="M43.2117 5.98926H39.7891V8.55626H43.2117V5.98926Z" fill="#002c8a"/>
<path d="M77.4382 5.98926H74.0156V8.55626H77.4382V5.98926Z" fill="#002c8a"/>
<path d="M77.4382 40.2168H74.0156V42.7838H77.4382V40.2168Z" fill="#002c8a"/>
<path d="M77.4382 74.4434H74.0156V77.0104H77.4382V74.4434Z" fill="#002c8a"/>
<path d="M34.2266 34.2266V48.773H48.773V34.2266H34.2266ZM46.206 46.206H36.7936V36.7936H46.206V46.206Z" fill="#002c8a"/>
<path d="M43.2117 40.2168H39.7891V42.7838H43.2117V40.2168Z" fill="#002c8a"/>
</g>
<defs>
<clipPath id="clip0_2142_2439">
<rect width="83" height="83" fill="white"/>
</clipPath>
</defs>
</svg>
