<svg width="45" height="45" viewBox="0 0 45 45" fill="none" xmlns="http://www.w3.org/2000/svg">
<path d="M39.375 28.125L34.0688 22.8188M24.375 31.875H13.125M16.875 24.375H13.125M24.375 18.75C24.375 19.8625 24.7049 20.9501 25.323 21.8751C25.9411 22.8001 26.8196 23.5211 27.8474 23.9468C28.8752 24.3726 30.0062 24.484 31.0974 24.2669C32.1885 24.0499 33.1908 23.5141 33.9775 22.7275C34.7641 21.9408 35.2999 20.9385 35.5169 19.8474C35.734 18.7562 35.6226 17.6252 35.1968 16.5974C34.7711 15.5696 34.0501 14.6911 33.1251 14.073C32.2001 13.4549 31.1125 13.125 30 13.125C28.5082 13.125 27.0774 13.7176 26.0225 14.7725C24.9676 15.8274 24.375 17.2582 24.375 18.75Z" stroke="#002c8a" stroke-width="2" stroke-linecap="round" stroke-linejoin="round"/>
<path d="M31.875 31.875V37.5C31.875 37.9973 31.6775 38.4742 31.3258 38.8258C30.9742 39.1775 30.4973 39.375 30 39.375H7.5C7.00272 39.375 6.52581 39.1775 6.17417 38.8258C5.82254 38.4742 5.625 37.9973 5.625 37.5V7.5C5.625 7.00272 5.82254 6.52581 6.17417 6.17417C6.52581 5.82254 7.00272 5.625 7.5 5.625H30" stroke="#002c8a" stroke-width="2" stroke-linecap="round" stroke-linejoin="round"/>
</svg>
