<svg width="28" height="28" viewBox="0 0 28 28" fill="none" xmlns="http://www.w3.org/2000/svg">
<g clip-path="url(#clip0_1346_987)">
<path d="M16.2757 0H5.18579C4.34123 0 3.65417 0.687058 3.65417 1.53162V26.4684C3.65417 27.3129 4.34123 28 5.18579 28H22.8143C23.6589 28 24.3459 27.3129 24.3459 26.4684V7.55942C24.3459 7.15048 24.1866 6.76592 23.8974 6.47657L17.3416 0.431788C17.0544 0.153162 16.6769 0 16.2757 0ZM22.4314 26.0855H5.5687V1.91452H14.7288V7.05003C14.7288 8.18407 15.6509 9.10674 16.7843 9.10674H22.4314V26.0855ZM16.7843 7.19222C16.7066 7.19222 16.6433 7.1284 16.6433 7.05003V3.01933L21.1064 7.19209L16.7843 7.19222ZM8.35994 12.4833C7.7039 12.4833 7.17026 13.0171 7.17026 13.673C7.17026 14.329 7.70403 14.8627 8.35994 14.8627C9.01598 14.8627 9.54962 14.3289 9.54962 13.673C9.54962 13.0171 9.01586 12.4833 8.35994 12.4833ZM10.5297 12.7159H20.6767V14.6304H10.5297V12.7159ZM8.35994 16.3124C7.7039 16.3124 7.17026 16.8461 7.17026 17.502C7.17026 18.158 7.70403 18.6917 8.35994 18.6917C9.01598 18.6917 9.54962 18.158 9.54962 17.502C9.54962 16.8461 9.01586 16.3124 8.35994 16.3124ZM10.5297 16.5448H20.6767V18.4593H10.5297V16.5448ZM8.35994 20.1414C7.7039 20.1414 7.17026 20.6752 7.17026 21.3311C7.17026 21.987 7.70403 22.5208 8.35994 22.5208C9.01598 22.5208 9.54962 21.987 9.54962 21.3311C9.54962 20.6752 9.01586 20.1414 8.35994 20.1414ZM10.5297 20.3738H20.6767V22.2883H10.5297V20.3738Z" fill="#002c8a"/>
</g>
<defs>
<clipPath id="clip0_1346_987">
<rect width="28" height="28" fill="white"/>
</clipPath>
</defs>
</svg>
