<svg width="37" height="37" viewBox="0 0 37 37" fill="none" xmlns="http://www.w3.org/2000/svg">
<path fill-rule="evenodd" clip-rule="evenodd" d="M32.6977 28.1721C32.6977 28.9906 32.0318 29.6551 31.2114 29.6551H29.7252V31.215C29.7252 32.0335 29.0593 32.6977 28.2389 32.6977C27.4185 32.6977 26.7526 32.0335 26.7526 31.215V29.6551H25.2664C24.446 29.6551 23.7801 28.9906 23.7801 28.1721C23.7801 27.3537 24.446 26.6895 25.2664 26.6895H26.7526V25.2838C26.7526 24.4653 27.4185 23.8012 28.2389 23.8012C29.0593 23.8012 29.7252 24.4653 29.7252 25.2838V26.6895H31.2114C32.0318 26.6895 32.6977 27.3537 32.6977 28.1721ZM15.7885 14.7283C15.4675 14.7016 15.145 14.6793 14.8165 14.6793C14.5148 14.6793 14.219 14.7014 13.9233 14.7236C11.9153 14.2921 10.4038 12.51 10.4038 10.3793C10.4038 7.92684 12.4043 5.93106 14.8626 5.93106C17.3208 5.93106 19.3214 7.92684 19.3214 10.3793C19.3214 12.5145 17.8039 14.3013 15.7885 14.7283ZM2.99928 25.2069C2.97847 25.2143 2.99332 25.2082 2.97252 25.2156V4.43936C2.97252 3.62088 3.63836 2.96544 4.45877 2.96544H14.6352C10.6371 3.08703 7.43129 6.35652 7.43129 10.3748C7.43129 12.5159 8.35573 14.433 9.81226 15.7868C6.12931 17.4919 3.46596 21.0122 2.99928 25.2069ZM22.1497 8.88162C21.5404 5.75301 18.7729 3.0129 14.9607 2.96544H25.2664C26.0868 2.96544 26.7526 3.62977 26.7526 4.44825V17.793C26.7526 18.6115 27.4185 19.2756 28.2389 19.2756C29.0593 19.2756 29.7252 18.6115 29.7252 17.793V2.96544C29.7252 1.327 28.395 0 26.7526 0H2.97252C1.3302 0 0 1.327 0 2.96544V26.6895C0 28.3265 1.3302 29.6551 2.97252 29.6551H17.8351C18.6555 29.6551 19.3214 28.9906 19.3214 28.1721C19.3214 27.3537 18.6555 26.6895 17.8351 26.6895H5.90788C5.90788 26.6895 5.89895 26.5917 5.89895 26.5309C5.89895 17.4891 16.8764 16.2941 19.6335 18.8504C21.2282 20.3287 23.2956 17.9723 21.6934 16.838C21.1257 16.4347 20.5193 16.0805 19.8787 15.7795C21.683 14.1233 22.6863 11.641 22.1497 8.88162Z" fill="#002c8a"/>
<path d="M18.2419 18.9302H12.7349C12.5523 18.9302 12.3772 19.0007 12.2481 19.1262C12.119 19.2517 12.0465 19.4219 12.0465 19.5994V24.2842C12.0465 24.4617 12.119 24.6319 12.2481 24.7574C12.3772 24.8829 12.5523 24.9534 12.7349 24.9534H18.2419C18.4244 24.9534 18.5995 24.8829 18.7286 24.7574C18.8577 24.6319 18.9302 24.4617 18.9302 24.2842V19.5994C18.9302 19.4219 18.8577 19.2517 18.7286 19.1262C18.5995 19.0007 18.4244 18.9302 18.2419 18.9302ZM15.1442 23.6149H13.0791V22.9457H15.1442V23.6149ZM17.8977 22.2764H13.0791V21.6072H17.8977V22.2764ZM17.8977 20.9379H13.0791V20.2687H17.8977V20.9379Z" fill="#002c8a"/>
</svg>
