<svg width="60" height="60" viewBox="0 0 60 60" fill="none" xmlns="http://www.w3.org/2000/svg">
<path fill-rule="evenodd" clip-rule="evenodd" d="M35.2948 3.53125V56.4734H29.2699L15.152 42.3555H5.29422C2.37531 42.3555 0 39.9802 0 37.0612V22.9433C0 20.0245 2.37531 17.6492 5.29422 17.6492H15.152L29.2699 3.53125H35.2948ZM31.7653 7.06072H30.7311L17.6474 20.1445V39.8601L30.7311 52.9439H31.7653V7.06075V7.06072ZM52.2493 11.283C57.247 16.2843 60 22.9303 60 30.0033C60 37.0729 57.247 43.7189 52.2493 48.7202L49.7539 46.2248C54.0881 41.8906 56.4705 36.1305 56.4705 30.0034C56.4705 23.8727 54.0881 18.1126 49.7539 13.7784L52.2493 11.283ZM44.777 18.7751C47.7665 21.8069 49.4112 25.7952 49.4112 30.0023C49.4112 34.2094 47.7665 38.1977 44.777 41.2296L42.2605 38.7519C44.597 36.3836 45.8817 33.2777 45.8817 30.0023C45.8817 26.727 44.597 23.621 42.2605 21.2528L44.777 18.7751ZM14.1179 21.1786H5.29422C4.32359 21.1786 3.52947 21.9693 3.52947 22.9433V37.0612C3.52947 38.0354 4.32359 38.826 5.29422 38.826H14.1179V21.1786Z" fill="#002c8a"/>
</svg>
