<svg width="60" height="60" viewBox="0 0 60 60" fill="none" xmlns="http://www.w3.org/2000/svg">
<path d="M51.4852 21.28C49.1669 11.76 39.1742 6 28.1423 6C14.7921 6 4 16.72 4 30C4 43.28 14.7921 54 28.2223 54C46.7687 54 45.3297 44.56 39.4141 40.88C35.8966 38.64 33.9781 33.6 37.4955 30C43.9707 23.28 54.4431 34 51.4852 21.28ZM14.952 38C12.154 38 9.91567 35.76 9.91567 33.04C9.91567 30.32 12.154 28.08 14.952 28.08C17.7499 28.08 19.9084 30.32 19.9084 33.04C19.9084 35.76 17.7499 38 14.952 38ZM15.9912 18.96C15.9912 16.16 18.2296 14 20.9476 14C23.7455 14 25.904 16.24 25.904 18.96C25.904 21.68 23.6656 23.92 20.9476 23.92C18.1496 24 15.9912 21.84 15.9912 18.96ZM26.9432 48C24.1453 48 21.9868 45.76 21.9868 43.04C21.9868 40.32 24.2252 38.08 26.9432 38.08C29.7412 38.08 31.8996 40.32 31.8996 43.04C31.8996 45.76 29.7412 48 26.9432 48ZM35.9766 22C33.1786 22 31.0202 19.76 31.0202 17.04C31.0202 14.32 33.2586 12.08 35.9766 12.08C38.7745 12.08 40.933 14.32 40.933 17.04C40.933 19.76 38.7745 22 35.9766 22Z" fill="#002c8a"/>
</svg>
