<svg width="53" height="53" viewBox="0 0 53 53" fill="none" xmlns="http://www.w3.org/2000/svg">
<g clip-path="url(#clip0_1346_903)">
<path d="M26.5 0.81543C12.3327 0.81543 0.815369 12.3327 0.815369 26.5C0.815369 40.6674 12.3327 52.1847 26.5 52.1847C40.6673 52.1847 52.1846 40.6674 52.1846 26.5C52.1846 12.3327 40.6673 0.81543 26.5 0.81543ZM26.5 47.0885C15.1865 47.0885 5.91152 37.8135 5.91152 26.5C5.91152 15.1866 15.1865 5.91158 26.5 5.91158C37.8134 5.91158 47.0884 15.1866 47.0884 26.5C47.0884 37.8135 37.8134 47.0885 26.5 47.0885ZM26.5 11.1097C18.0404 11.1097 11.1096 18.0404 11.1096 26.5C11.1096 34.9597 18.0404 41.8904 26.5 41.8904C34.9596 41.8904 41.8904 34.9597 41.8904 26.5C41.8904 18.0404 34.9596 11.1097 26.5 11.1097ZM26.5 36.7943C20.8942 36.7943 16.2058 32.2077 16.2058 26.5C16.2058 20.7924 20.8942 16.2058 26.5 16.2058C32.1058 16.2058 36.7942 20.8943 36.7942 26.5C36.7942 32.1058 32.1058 36.7943 26.5 36.7943ZM26.5 21.4039C23.6461 21.4039 21.4038 23.7481 21.4038 26.5C21.4038 29.252 23.7481 31.5962 26.5 31.5962C29.2519 31.5962 31.5961 29.252 31.5961 26.5C31.5961 23.7481 29.3538 21.4039 26.5 21.4039Z" fill="#002c8a"/>
</g>
<defs>
<clipPath id="clip0_1346_903">
<rect width="53" height="53" fill="white"/>
</clipPath>
</defs>
</svg>
