<svg width="41" height="41" viewBox="0 0 41 41" fill="none" xmlns="http://www.w3.org/2000/svg">
<path d="M39.2917 20.5002C39.2917 21.1058 39.263 21.7047 39.2069 22.2956C38.239 21.3272 37.1057 20.5241 35.853 19.9321C35.5542 11.7104 28.7948 5.13683 20.5 5.13683C12.0151 5.13683 5.13668 12.0152 5.13668 20.5002C5.13668 28.795 11.7102 35.5543 19.932 35.8531C20.5239 37.1058 21.327 38.2392 22.2955 39.2071C21.7046 39.2631 21.1056 39.2918 20.5 39.2918C10.1217 39.2918 1.70834 30.8785 1.70834 20.5002C1.70834 10.1218 10.1217 1.7085 20.5 1.7085C30.8783 1.7085 39.2917 10.1218 39.2917 20.5002Z" fill="#002c8a"/>
<path d="M22.2083 20.2969L23.6478 21.128C22.6947 21.8327 21.8499 22.6757 21.1433 23.6273L19.6755 22.7798C19.3788 22.6084 19.153 22.3616 19.0081 22.0775C18.7917 21.7425 18.7917 21.2971 18.7917 21.2971V10.2498C18.7917 9.30634 19.5565 8.5415 20.5 8.5415C21.4435 8.5415 22.2083 9.30636 22.2083 10.2498V20.2969Z" fill="#002c8a"/>
<path d="M30.75 25.625C29.8065 25.625 29.0417 26.3898 29.0417 27.3333V29.0417H27.3333C26.3898 29.0417 25.625 29.8065 25.625 30.75C25.625 31.6935 26.3898 32.4583 27.3333 32.4583H29.0417V34.1667C29.0417 35.1102 29.8065 35.875 30.75 35.875C31.6935 35.875 32.4583 35.1102 32.4583 34.1667V32.4583H34.1667C35.1102 32.4583 35.875 31.6935 35.875 30.75C35.875 29.8065 35.1102 29.0417 34.1667 29.0417H32.4583V27.3333C32.4583 26.3898 31.6935 25.625 30.75 25.625Z" fill="#002c8a"/>
<path fill-rule="evenodd" clip-rule="evenodd" d="M30.75 41C36.4109 41 41 36.4109 41 30.75C41 25.0891 36.4109 20.5 30.75 20.5C25.0891 20.5 20.5 25.0891 20.5 30.75C20.5 36.4109 25.0891 41 30.75 41ZM30.75 37.6143C26.959 37.6143 23.8857 34.541 23.8857 30.75C23.8857 26.959 26.959 23.8857 30.75 23.8857C34.541 23.8857 37.6143 26.959 37.6143 30.75C37.6143 34.541 34.541 37.6143 30.75 37.6143Z" fill="#002c8a"/>
</svg>
