<svg width="62" height="63" viewBox="0 0 62 63" fill="none" xmlns="http://www.w3.org/2000/svg">
<path d="M52.3149 17.5274V41.6531C52.3115 42.6264 51.9295 43.5588 51.2522 44.2471C50.5749 44.9353 49.6572 45.3235 48.6994 45.327H35.079L31.7505 50.7483C31.6824 50.9123 31.5682 51.0522 31.4222 51.1506C31.2763 51.2489 31.105 51.3014 30.9298 51.3014C30.7547 51.3014 30.5834 51.2489 30.4375 51.1506C30.2915 51.0522 30.1773 50.9123 30.1092 50.7483L26.7807 45.327H13.3039C12.3455 45.3244 11.427 44.9366 10.749 44.2482C10.071 43.5599 9.6885 42.627 9.68506 41.6531V17.5274C9.6885 16.5541 10.0705 15.6217 10.7478 14.9334C11.4251 14.2452 12.3428 13.857 13.3006 13.8535H48.6994C49.6572 13.857 50.5749 14.2452 51.2522 14.9334C51.9295 15.6217 52.3115 16.5541 52.3149 17.5274ZM33.3038 37.6012C33.3044 37.1381 33.1699 36.6851 32.9171 36.2997C32.6644 35.9143 32.3048 35.6138 31.8839 35.4361C31.463 35.2584 30.9997 35.2116 30.5526 35.3015C30.1055 35.3915 29.6947 35.6142 29.3721 35.9414C29.0496 36.2687 28.8299 36.6858 28.7407 37.14C28.6516 37.5942 28.697 38.065 28.8713 38.493C29.0455 38.9209 29.3408 39.2867 29.7198 39.5441C30.0987 39.8015 30.5442 39.9388 31 39.9388C31.6104 39.9388 32.1959 39.6927 32.6279 39.2544C33.0598 38.8161 33.3029 38.2215 33.3038 37.6012ZM29.1922 31.5333C29.1922 32.0205 29.3827 32.4877 29.7217 32.8322C30.0607 33.1767 30.5206 33.3703 31 33.3703C31.4795 33.3703 31.9393 33.1767 32.2783 32.8322C32.6173 32.4877 32.8078 32.0205 32.8078 31.5333V20.8067C32.8078 20.3195 32.6173 19.8523 32.2783 19.5078C31.9393 19.1633 31.4795 18.9698 31 18.9698C30.5206 18.9698 30.0607 19.1633 29.7217 19.5078C29.3827 19.8523 29.1922 20.3195 29.1922 20.8067V31.5333Z" fill="#002c8a"/>
</svg>
