<svg width="38" height="38" viewBox="0 0 38 38" fill="none" xmlns="http://www.w3.org/2000/svg">
<g clip-path="url(#clip0_1346_1003)">
<path fill-rule="evenodd" clip-rule="evenodd" d="M12.6667 14.2497H7.91666C7.49674 14.2497 7.09401 14.0829 6.79708 13.7859C6.50014 13.489 6.33333 13.0863 6.33333 12.6663C6.33333 12.2464 6.50014 11.8437 6.79708 11.5468C7.09401 11.2498 7.49674 11.083 7.91666 11.083H12.6667C13.0866 11.083 13.4893 11.2498 13.7862 11.5468C14.0832 11.8437 14.25 12.2464 14.25 12.6663C14.25 13.0863 14.0832 13.489 13.7862 13.7859C13.4893 14.0829 13.0866 14.2497 12.6667 14.2497ZM12.6667 20.583H7.91666C7.49674 20.583 7.09401 20.4162 6.79708 20.1193C6.50014 19.8223 6.33333 19.4196 6.33333 18.9997C6.33333 18.5797 6.50014 18.177 6.79708 17.8801C7.09401 17.5832 7.49674 17.4163 7.91666 17.4163H12.6667C13.0866 17.4163 13.4893 17.5832 13.7862 17.8801C14.0832 18.177 14.25 18.5797 14.25 18.9997C14.25 19.4196 14.0832 19.8223 13.7862 20.1193C13.4893 20.4162 13.0866 20.583 12.6667 20.583ZM12.6667 26.9163H7.91666C7.49674 26.9163 7.09401 26.7495 6.79708 26.4526C6.50014 26.1557 6.33333 25.7529 6.33333 25.333C6.33333 24.9131 6.50014 24.5104 6.79708 24.2134C7.09401 23.9165 7.49674 23.7497 7.91666 23.7497H12.6667C13.0866 23.7497 13.4893 23.9165 13.7862 24.2134C14.0832 24.5104 14.25 24.9131 14.25 25.333C14.25 25.7529 14.0832 26.1557 13.7862 26.4526C13.4893 26.7495 13.0866 26.9163 12.6667 26.9163ZM25.3333 14.2497H30.0833C30.5033 14.2497 30.906 14.0829 31.2029 13.7859C31.4998 13.489 31.6667 13.0863 31.6667 12.6663C31.6667 12.2464 31.4998 11.8437 31.2029 11.5468C30.906 11.2498 30.5033 11.083 30.0833 11.083H25.3333C24.9134 11.083 24.5107 11.2498 24.2137 11.5468C23.9168 11.8437 23.75 12.2464 23.75 12.6663C23.75 13.0863 23.9168 13.489 24.2137 13.7859C24.5107 14.0829 24.9134 14.2497 25.3333 14.2497ZM25.3333 20.583H30.0833C30.5033 20.583 30.906 20.4162 31.2029 20.1193C31.4998 19.8223 31.6667 19.4196 31.6667 18.9997C31.6667 18.5797 31.4998 18.177 31.2029 17.8801C30.906 17.5832 30.5033 17.4163 30.0833 17.4163H25.3333C24.9134 17.4163 24.5107 17.5832 24.2137 17.8801C23.9168 18.177 23.75 18.5797 23.75 18.9997C23.75 19.4196 23.9168 19.8223 24.2137 20.1193C24.5107 20.4162 24.9134 20.583 25.3333 20.583ZM25.3333 26.9163H30.0833C30.5033 26.9163 30.906 26.7495 31.2029 26.4526C31.4998 26.1557 31.6667 25.7529 31.6667 25.333C31.6667 24.9131 31.4998 24.5104 31.2029 24.2134C30.906 23.9165 30.5033 23.7497 30.0833 23.7497H25.3333C24.9134 23.7497 24.5107 23.9165 24.2137 24.2134C23.9168 24.5104 23.75 24.9131 23.75 25.333C23.75 25.7529 23.9168 26.1557 24.2137 26.4526C24.5107 26.7495 24.9134 26.9163 25.3333 26.9163Z" fill="#002c8a"/>
<path fill-rule="evenodd" clip-rule="evenodd" d="M34.8333 3.1665H20.5833C20.0276 3.1665 19.4813 3.31375 19 3.594C18.5191 3.31452 17.9729 3.16704 17.4167 3.1665H3.16667C2.32759 3.16901 1.52359 3.50344 0.930264 4.09677C0.336941 4.69009 0.00250598 5.49409 0 6.33317L0 31.6665C0.00250598 32.5056 0.336941 33.3096 0.930264 33.9029C1.52359 34.4962 2.32759 34.8307 3.16667 34.8332H17.4167C17.955 34.8379 18.487 34.6954 18.9525 34.4215C18.9662 34.4112 18.9829 34.4057 19 34.4057C19.0171 34.4057 19.0338 34.4112 19.0475 34.4215C19.513 34.6954 20.045 34.8379 20.5833 34.8332H34.8333C35.6724 34.8307 36.4764 34.4962 37.0697 33.9029C37.6631 33.3096 37.9975 32.5056 38 31.6665V6.33317C37.9975 5.49409 37.6631 4.69009 37.0697 4.09677C36.4764 3.50344 35.6724 3.16901 34.8333 3.1665ZM16.625 31.6665H3.95833C3.74837 31.6665 3.54701 31.5831 3.39854 31.4346C3.25007 31.2862 3.16667 31.0848 3.16667 30.8748V7.12484C3.16667 6.91487 3.25007 6.71351 3.39854 6.56504C3.54701 6.41658 3.74837 6.33317 3.95833 6.33317H16.625C16.835 6.33317 17.0363 6.41658 17.1848 6.56504C17.3333 6.71351 17.4167 6.91487 17.4167 7.12484V30.8748C17.4167 31.0848 17.3333 31.2862 17.1848 31.4346C17.0363 31.5831 16.835 31.6665 16.625 31.6665ZM34.8333 30.8748C34.8333 31.0848 34.7499 31.2862 34.6015 31.4346C34.453 31.5831 34.2516 31.6665 34.0417 31.6665H21.375C21.165 31.6665 20.9637 31.5831 20.8152 31.4346C20.6667 31.2862 20.5833 31.0848 20.5833 30.8748V7.12484C20.5833 6.91487 20.6667 6.71351 20.8152 6.56504C20.9637 6.41658 21.165 6.33317 21.375 6.33317H34.0417C34.2516 6.33317 34.453 6.41658 34.6015 6.56504C34.7499 6.71351 34.8333 6.91487 34.8333 7.12484V30.8748Z" fill="#002c8a"/>
</g>
<defs>
<clipPath id="clip0_1346_1003">
<rect width="38" height="38" fill="white"/>
</clipPath>
</defs>
</svg>
