<svg width="32" height="32" viewBox="0 0 32 32" fill="none" xmlns="http://www.w3.org/2000/svg">
<path d="M6.8631 14.8296H13.7203V17.1152H6.8631V14.8296Z" fill="#002c8a"/>
<path d="M5.70966 11.4201H24.0103V15.8854H26.2959V4.52477C26.2959 3.27602 25.2803 2.25977 24.0315 2.25977H23.1765C22.264 2.25977 21.4562 2.78258 21.1178 3.5907C20.9393 4.01602 20.2478 4.01695 20.0693 3.5907C19.73 2.78195 18.9222 2.25977 18.0103 2.25977H17.4428C16.5315 2.25977 15.7234 2.78195 15.384 3.5907C15.2056 4.01602 14.514 4.01602 14.3356 3.5907C13.9962 2.78195 13.1884 2.25977 12.2768 2.25977H11.7315C10.819 2.25977 10.0112 2.78258 9.67278 3.5907C9.49435 4.01602 8.80278 4.01695 8.62435 3.5907C8.28497 2.78195 7.47716 2.25977 6.56528 2.25977H5.70372C4.45497 2.25977 3.43872 3.27602 3.43872 4.52477V29.6848H15.9765V27.3991H5.72341L5.70966 11.4201ZM6.51653 4.47414C6.96247 5.53883 7.99528 6.22695 9.14872 6.22695C10.3015 6.22695 11.3347 5.53945 11.7318 4.5457L12.2275 4.47477C12.6743 5.53945 13.7075 6.22695 14.8597 6.22695C16.0125 6.22695 17.0456 5.53945 17.4428 4.5457L17.9612 4.47414C18.4072 5.53883 19.44 6.22695 20.5934 6.22695C21.7462 6.22695 22.7793 5.53945 23.1765 4.5457L24.0103 4.52508V9.13445H5.70778L5.70372 4.5457L6.51653 4.47414Z" fill="#002c8a"/>
<path d="M26.2709 25.1443L25.0959 22.3749C25.4862 21.8865 25.7197 21.2671 25.7197 20.593C25.7197 19.0149 24.4406 17.7358 22.8625 17.7358C21.2847 17.7358 20.0053 19.0149 20.0053 20.593C20.0053 21.269 20.2403 21.8902 20.6328 22.3793L19.4597 25.1443H17.1384V29.7177H28.5669V25.1443H26.2709ZM22.8628 19.4502C23.4931 19.4502 24.0056 19.963 24.0056 20.593C24.0056 21.2233 23.4928 21.7358 22.8628 21.7358C22.2328 21.7358 21.72 21.223 21.72 20.593C21.72 19.963 22.2325 19.4502 22.8628 19.4502ZM22.0862 23.3433C22.3389 23.4145 22.6003 23.4505 22.8628 23.4502C23.1337 23.4502 23.3959 23.4124 23.6441 23.3421L24.4087 25.1446H21.3222L22.0862 23.3433ZM26.8531 28.0037H18.8531V26.8587H26.8531V28.0037Z" fill="#002c8a"/>
</svg>
