<svg width="45" height="45" viewBox="0 0 45 45" fill="none" xmlns="http://www.w3.org/2000/svg">
<path d="M26.7463 29.8832L23.5262 26.6899C22.0463 25.2223 21.3062 24.4884 20.4542 24.2132C19.7048 23.9709 18.8981 23.9709 18.1485 24.2132C17.2966 24.4884 16.5566 25.2223 15.0765 26.6899L7.57862 34.2416M26.7463 29.8832L27.3862 29.2483C28.8975 27.7498 29.6529 27.0006 30.5199 26.7272C31.2823 26.4866 32.1015 26.496 32.8583 26.754C33.7185 27.0474 34.4567 27.8137 35.9329 29.3466L37.5 30.9377M26.7463 29.8832L34.1625 37.4302M7.57862 34.2416C7.6362 34.7299 7.73593 35.1133 7.90873 35.4525C8.26824 36.1581 8.84194 36.7318 9.54754 37.0912C10.3497 37.5 11.3998 37.5 13.5 37.5H31.5C32.6649 37.5 33.5068 37.5 34.1625 37.4302M7.57862 34.2416C7.5 33.5749 7.5 32.7124 7.5 31.5V13.5C7.5 11.3998 7.5 10.3497 7.90873 9.54754C8.26824 8.84192 8.84194 8.26824 9.54754 7.90873C10.3497 7.5 11.3998 7.5 13.5 7.5H20.625M34.1625 37.4302C34.6888 37.3742 35.0953 37.2733 35.4525 37.0912C36.1581 36.7318 36.7318 36.1581 37.0912 35.4525C37.5 34.6504 37.5 33.6002 37.5 31.5V24.375M33.75 16.875V11.25M33.75 11.25V5.625M33.75 11.25H39.375M33.75 11.25H28.125" stroke="#002c8a" stroke-width="2" stroke-linecap="round" stroke-linejoin="round"/>
</svg>
