<svg width="40" height="40" viewBox="0 0 40 40" fill="none" xmlns="http://www.w3.org/2000/svg">
<path d="M23.3333 16.6665V36.6665H6.66665C5.78259 36.6665 4.93474 36.3153 4.30962 35.6902C3.6845 35.0651 3.33331 34.2172 3.33331 33.3332V16.6665H23.3333Z" fill="#002c8a"/>
<path d="M36.6667 16.6665V33.3332C36.6667 34.2172 36.3155 35.0651 35.6904 35.6902C35.0653 36.3153 34.2174 36.6665 33.3334 36.6665H26.6667V16.6665H36.6667Z" fill="#002c8a"/>
<path d="M36.6666 6.66683V13.3335H3.33331V6.66683C3.33331 5.78277 3.6845 4.93493 4.30962 4.30981C4.93474 3.68469 5.78259 3.3335 6.66665 3.3335H33.3333C34.2174 3.3335 35.0652 3.68469 35.6903 4.30981C36.3155 4.93493 36.6666 5.78277 36.6666 6.66683Z" fill="#002c8a"/>
</svg>
