<svg width="52" height="52" viewBox="0 0 52 52" fill="none" xmlns="http://www.w3.org/2000/svg">
<path d="M32.3143 18.9428H19.6857C17.8286 18.9428 16.3429 17.4571 16.3429 15.5999V5.57137C16.3429 3.71423 17.8286 2.22852 19.6857 2.22852H32.3143C34.1714 2.22852 35.6572 3.71423 35.6572 5.57137V15.5999C35.6572 17.4571 34.1714 18.9428 32.3143 18.9428ZM19.6857 5.19994C19.3143 5.19994 19.3143 5.19994 19.3143 5.57137V15.5999C19.3143 15.9714 19.3143 15.9714 19.6857 15.9714H32.3143C32.6857 15.9714 32.6857 15.9714 32.6857 15.5999V5.57137C32.6857 5.19994 32.6857 5.19994 32.3143 5.19994H19.6857Z" fill="#002c8a"/>
<path d="M47.5428 46.7998H34.9143C33.8 46.7998 33.0571 46.057 33.0571 44.9427V34.5427C33.0571 33.4284 33.8 32.6855 34.9143 32.6855H47.5428C48.6571 32.6855 49.4 33.4284 49.4 34.5427V44.5713C49.4 45.6855 48.6571 46.7998 47.5428 46.7998Z" fill="#002c8a"/>
<path d="M47.5429 48.2859H34.9143C33.0572 48.2859 31.5714 46.8002 31.5714 44.9431V34.5431C31.5714 32.6859 33.0572 31.2002 34.9143 31.2002H47.5429C49.4 31.2002 50.8857 32.6859 50.8857 34.5431V44.5716C50.8857 46.4288 49.4 48.2859 47.5429 48.2859ZM34.9143 34.1716C34.5429 34.1716 34.5429 34.1716 34.5429 34.5431V44.9431C34.5429 45.3145 34.5429 45.3145 34.9143 45.3145H47.5429C47.9143 45.3145 47.9143 44.9431 47.9143 44.5716V34.5431C47.9143 34.1716 47.9143 34.1716 47.5429 34.1716H34.9143Z" fill="#002c8a"/>
<path d="M17.0857 46.8H4.45715C3.34286 46.8 2.60001 46.0571 2.60001 44.9428V34.9143C2.60001 33.8 3.34286 33.0571 4.45715 33.0571H17.0857C18.2 33.0571 18.9429 33.8 18.9429 34.9143V44.9428C18.9429 46.0571 17.8286 46.8 17.0857 46.8Z" fill="#002c8a"/>
<path d="M17.0857 48.2858H4.45715C2.6 48.2858 1.11429 46.8 1.11429 44.9429V34.9143C1.11429 33.0572 2.6 31.5715 4.45715 31.5715H17.0857C18.9429 31.5715 20.4286 33.0572 20.4286 34.9143V44.9429C20.4286 46.8 18.5714 48.2858 17.0857 48.2858ZM4.45715 34.5429C4.08572 34.5429 4.08572 34.5429 4.08572 34.9143V44.9429C4.08572 45.3143 4.08572 45.3143 4.45715 45.3143H17.0857L17.4571 44.9429V34.9143C17.4571 34.5429 17.4571 34.5429 17.0857 34.5429H4.45715ZM24.8857 17.8286H27.1143V24.5143H24.8857V17.8286ZM40.4857 26H42.3429V31.9429H40.4857V26Z" fill="#002c8a"/>
<path d="M9.65714 25.6284H11.8857V32.3141H9.65714V25.6284Z" fill="#002c8a"/>
<path d="M9.65714 23.7715H42.3428V26.0001H9.65714V23.7715Z" fill="#002c8a"/>
</svg>
