<svg width="46" height="46" viewBox="0 0 46 46" fill="none" xmlns="http://www.w3.org/2000/svg">
<g clip-path="url(#clip0_1346_1081)">
<path d="M14.375 31.625C15.9 31.625 17.3625 31.0192 18.4409 29.9409C19.5192 28.8625 20.125 27.4 20.125 25.875C20.125 24.35 19.5192 22.8875 18.4409 21.8091C17.3625 20.7308 15.9 20.125 14.375 20.125C12.85 20.125 11.3875 20.7308 10.3091 21.8091C9.2308 22.8875 8.625 24.35 8.625 25.875C8.625 27.4 9.2308 28.8625 10.3091 29.9409C11.3875 31.0192 12.85 31.625 14.375 31.625ZM14.375 23C15.1375 23 15.8688 23.3029 16.4079 23.8421C16.9471 24.3812 17.25 25.1125 17.25 25.875C17.25 26.6375 16.9471 27.3688 16.4079 27.9079C15.8688 28.4471 15.1375 28.75 14.375 28.75C13.6125 28.75 12.8812 28.4471 12.3421 27.9079C11.8029 27.3688 11.5 26.6375 11.5 25.875C11.5 25.1125 11.8029 24.3812 12.3421 23.8421C12.8812 23.3029 13.6125 23 14.375 23ZM21.5625 34.5H7.1875C6.24362 34.5 5.30899 34.6859 4.43696 35.0471C3.56493 35.4083 2.77259 35.9377 2.10517 36.6052C1.43775 37.2726 0.908324 38.0649 0.547118 38.937C0.185912 39.809 0 40.7436 0 41.6875C0 42.8312 0.454354 43.9281 1.2631 44.7369C2.07185 45.5456 3.16875 46 4.3125 46H24.4375C25.5812 46 26.6781 45.5456 27.4869 44.7369C28.2956 43.9281 28.75 42.8312 28.75 41.6875C28.75 39.7813 27.9927 37.9531 26.6448 36.6052C25.2969 35.2573 23.4687 34.5 21.5625 34.5ZM24.4375 43.125H4.3125C3.93125 43.125 3.56562 42.9736 3.29603 42.704C3.02645 42.4344 2.875 42.0687 2.875 41.6875C2.875 40.5438 3.32935 39.4469 4.1381 38.6381C4.94685 37.8294 6.04375 37.375 7.1875 37.375H21.5625C22.7062 37.375 23.8031 37.8294 24.6119 38.6381C25.4206 39.4469 25.875 40.5438 25.875 41.6875C25.875 42.0687 25.7236 42.4344 25.454 42.704C25.1844 42.9736 24.8187 43.125 24.4375 43.125ZM46 7.1875V21.5625C46 23.4687 45.2427 25.2969 43.8948 26.6448C42.5469 27.9927 40.7187 28.75 38.8125 28.75H30.7826L25.4553 34.0803C25.3215 34.2137 25.1628 34.3194 24.9881 34.3914C24.8135 34.4634 24.6264 34.5003 24.4375 34.5C24.249 34.5008 24.0622 34.4636 23.8884 34.3907C23.6255 34.2821 23.4008 34.0979 23.2426 33.8614C23.0845 33.625 23 33.347 23 33.0625V27.3125C23 26.9313 23.1514 26.5656 23.421 26.296C23.6906 26.0264 24.0563 25.875 24.4375 25.875C24.8187 25.875 25.1844 26.0264 25.454 26.296C25.7236 26.5656 25.875 26.9313 25.875 27.3125V29.5924L29.1697 26.2947C29.3035 26.1613 29.4622 26.0556 29.6369 25.9836C29.8115 25.9116 29.9986 25.8747 30.1875 25.875H38.8125C39.9562 25.875 41.0531 25.4206 41.8619 24.6119C42.6706 23.8031 43.125 22.7062 43.125 21.5625V7.1875C43.125 6.04375 42.6706 4.94685 41.8619 4.1381C41.0531 3.32935 39.9562 2.875 38.8125 2.875H18.6875C17.5438 2.875 16.4469 3.32935 15.6381 4.1381C14.8294 4.94685 14.375 6.04375 14.375 7.1875V15.8125C14.375 16.1937 14.2236 16.5594 13.954 16.829C13.6844 17.0985 13.3187 17.25 12.9375 17.25C12.5563 17.25 12.1906 17.0985 11.921 16.829C11.6514 16.5594 11.5 16.1937 11.5 15.8125V7.1875C11.5 5.28126 12.2573 3.45309 13.6052 2.10517C14.9531 0.757252 16.7813 0 18.6875 0H38.8125C40.7187 0 42.5469 0.757252 43.8948 2.10517C45.2427 3.45309 46 5.28126 46 7.1875ZM26.2947 19.7053L20.5447 13.9553C20.4109 13.8217 20.3047 13.6631 20.2322 13.4884C20.1597 13.3138 20.1224 13.1266 20.1224 12.9375C20.1224 12.7484 20.1597 12.5612 20.2322 12.3866C20.3047 12.2119 20.4109 12.0533 20.5447 11.9197C20.6783 11.7859 20.8369 11.6797 21.0116 11.6072C21.1862 11.5347 21.3734 11.4974 21.5625 11.4974C21.7516 11.4974 21.9388 11.5347 22.1134 11.6072C22.2881 11.6797 22.4467 11.7859 22.5803 11.9197L27.3125 16.6549L34.9197 9.04475C35.0533 8.91088 35.2119 8.80467 35.3866 8.7322C35.5612 8.65973 35.7484 8.62243 35.9375 8.62243C36.1266 8.62243 36.3138 8.65973 36.4884 8.7322C36.6631 8.80467 36.8217 8.91088 36.9553 9.04475C37.0891 9.17828 37.1953 9.33691 37.2678 9.51155C37.3403 9.6862 37.3776 9.87342 37.3776 10.0625C37.3776 10.2516 37.3403 10.4388 37.2678 10.6134C37.1953 10.7881 37.0891 10.9467 36.9553 11.0803L28.3303 19.7053C28.1965 19.8387 28.0378 19.9444 27.8631 20.0164C27.6885 20.0884 27.5014 20.1253 27.3125 20.125C27.1236 20.1253 26.9365 20.0884 26.7619 20.0164C26.5872 19.9444 26.4285 19.8387 26.2947 19.7053Z" fill="#002c8a"/>
</g>
<defs>
<clipPath id="clip0_1346_1081">
<rect width="46" height="46" fill="white"/>
</clipPath>
</defs>
</svg>
