<svg width="38" height="38" viewBox="0 0 38 38" fill="none" xmlns="http://www.w3.org/2000/svg">
<path fill-rule="evenodd" clip-rule="evenodd" d="M9.3079 4.55775C7.91666 5.94899 7.91666 8.18816 7.91666 12.6665V25.3332C7.91666 29.8115 7.91666 32.0506 9.3079 33.4419C10.6991 34.8332 12.9383 34.8332 17.4167 34.8332H20.5833C25.0616 34.8332 27.3008 34.8332 28.692 33.4419C30.0833 32.0506 30.0833 29.8115 30.0833 25.3332V12.6665C30.0833 8.18816 30.0833 5.94899 28.692 4.55775C27.3008 3.1665 25.0616 3.1665 20.5833 3.1665H17.4167C12.9383 3.1665 10.6991 3.1665 9.3079 4.55775ZM13.0625 26.9165C13.0625 26.2607 13.5942 25.729 14.25 25.729H19C19.6558 25.729 20.1875 26.2607 20.1875 26.9165C20.1875 27.5723 19.6558 28.104 19 28.104H14.25C13.5942 28.104 13.0625 27.5723 13.0625 26.9165ZM14.25 19.3957C13.5942 19.3957 13.0625 19.9274 13.0625 20.5832C13.0625 21.239 13.5942 21.7707 14.25 21.7707H23.75C24.4058 21.7707 24.9375 21.239 24.9375 20.5832C24.9375 19.9274 24.4058 19.3957 23.75 19.3957H14.25ZM13.0625 14.2498C13.0625 13.594 13.5942 13.0623 14.25 13.0623H23.75C24.4058 13.0623 24.9375 13.594 24.9375 14.2498C24.9375 14.9057 24.4058 15.4373 23.75 15.4373H14.25C13.5942 15.4373 13.0625 14.9057 13.0625 14.2498Z" fill="#002c8a"/>
<path opacity="0.5" d="M8.28914 6.42529C7.91666 7.82382 7.91666 9.78003 7.91666 12.6664V25.3331C7.91666 28.2195 7.91666 30.1758 8.28917 31.5743L7.91666 31.546C6.37276 31.3941 5.33356 31.0509 4.5579 30.2752C3.16666 28.8839 3.16666 26.6448 3.16666 22.1665V15.8331C3.16666 11.3548 3.16666 9.11561 4.5579 7.72439C5.33356 6.94873 6.37276 6.60552 7.91666 6.45365L8.28914 6.42529Z" fill="#002c8a"/>
<path opacity="0.5" d="M29.7106 31.5743C30.0832 30.1758 30.0832 28.2195 30.0832 25.3331V12.6664C30.0832 9.78003 30.0832 7.82382 29.7108 6.42529L30.0832 6.45365C31.6271 6.60552 32.6664 6.94873 33.4419 7.72439C34.8332 9.11561 34.8332 11.3548 34.8332 15.8331V22.1665C34.8332 26.6448 34.8332 28.8839 33.4419 30.2752C32.6664 31.0509 31.6271 31.3941 30.0832 31.546L29.7106 31.5743Z" fill="#002c8a"/>
</svg>
