<svg width="29" height="29" viewBox="0 0 29 29" fill="none" xmlns="http://www.w3.org/2000/svg">
<g clip-path="url(#clip0_1387_362)">
<path d="M24.6617 25.1902V28.9998H4.24161V25.1887C4.24161 23.7753 5.46094 22.0325 6.95165 21.327L10.2684 19.75L12.5702 24.5463L13.7479 21.3515C13.9799 21.3969 14.2111 21.4548 14.452 21.4548C14.6937 21.4548 14.9241 21.3969 15.1569 21.3515L16.2743 24.3902L18.5293 19.6972L21.9516 21.3247C23.4424 22.0325 24.6617 23.7753 24.6617 25.1902ZM14.4528 19.6965C17.3665 19.6965 19.7286 16.0705 19.7286 12.747C19.7286 9.42064 17.3673 7.65633 14.4528 7.65633C11.539 7.65633 9.17842 9.42064 9.17842 12.747C9.17693 16.0705 11.539 19.6965 14.4528 19.6965ZM22.3345 11.2883L21.197 10.8965C21.3167 10.5493 21.4215 10.295 21.5108 10.1314C21.6 9.96711 21.7383 9.837 21.9234 9.74109C22.1093 9.64221 22.374 9.58198 22.7212 9.5567C22.8825 9.55224 23.0208 9.54778 23.139 9.54406C23.2542 9.53886 23.3583 9.52845 23.4483 9.51135C23.5383 9.49425 23.6178 9.46228 23.6818 9.41767C23.8528 9.30838 23.9896 9.10689 24.0892 8.81544C24.2178 8.44369 24.2424 8.17826 24.1643 8.01916C24.1234 7.90763 24.0409 7.81544 23.9137 7.74406C23.7858 7.67269 23.5918 7.59239 23.3308 7.50317C23.0357 7.41098 22.8141 7.3567 22.6661 7.33663C22.5219 7.31655 22.4 7.33589 22.3026 7.3976C22.1985 7.47492 22.0944 7.63477 21.9858 7.88012C21.9873 7.91358 21.9777 7.96042 21.9569 8.0199L21.8639 8.28756L20.7271 7.89722C20.9078 7.37232 21.0899 6.98793 21.2743 6.74406C21.4602 6.50094 21.6676 6.35299 21.8989 6.29797C22.1643 6.23403 22.4386 6.23031 22.7189 6.28682C22.9985 6.34332 23.3345 6.43923 23.7264 6.5738C24.6022 6.87566 25.1279 7.23998 25.3041 7.67046C25.4617 8.0489 25.4275 8.5634 25.2022 9.21841C25.0453 9.67195 24.8758 9.98496 24.6907 10.156C24.5056 10.3255 24.2766 10.437 24.0037 10.489C23.9167 10.5069 23.7717 10.5225 23.5658 10.5322C23.3628 10.5418 23.2096 10.55 23.1085 10.5612C23.0067 10.5708 22.9048 10.5998 22.7985 10.6429C22.6669 10.6824 22.5799 10.7433 22.5353 10.8244C22.4855 10.889 22.4178 11.0429 22.3345 11.2883ZM20.884 11.8021L22.0215 12.1931L21.5992 13.4206L20.4624 13.0296L20.884 11.8021ZM6.98213 11.0496L6.01931 11.4719C5.88994 11.1775 5.80592 10.9522 5.76578 10.7939C5.72711 10.6355 5.73752 10.469 5.79849 10.2972C5.85946 10.1255 5.99477 9.92845 6.20146 9.70615C6.30258 9.60652 6.38957 9.52176 6.46243 9.45038C6.53381 9.37827 6.59477 9.31061 6.64236 9.24592C6.6892 9.1805 6.72042 9.11358 6.73678 9.04667C6.78213 8.87418 6.75016 8.66302 6.64236 8.41841C6.50332 8.10243 6.36206 7.91656 6.21633 7.86154C6.12488 7.81321 6.01633 7.80429 5.89217 7.83403C5.76801 7.86302 5.59626 7.92696 5.3747 8.02436C5.13009 8.14183 4.95537 8.23849 4.84979 8.31209C4.74421 8.38644 4.67804 8.47046 4.65128 8.56786C4.6312 8.67789 4.65871 8.84518 4.73529 9.066C4.75685 9.08607 4.77842 9.1225 4.80072 9.1738L4.90035 9.40206L3.93752 9.82511C3.74273 9.3805 3.63195 9.02585 3.60667 8.75819C3.58065 8.49202 3.626 8.27343 3.74198 8.1002C3.87581 7.90169 4.04905 7.73812 4.26317 7.608C4.47656 7.47864 4.74942 7.34183 5.08176 7.19388C5.82303 6.86823 6.37767 6.7909 6.74645 6.96191C7.07135 7.11061 7.35537 7.46302 7.59849 8.01693C7.76801 8.4028 7.84384 8.70392 7.82525 8.92325C7.80667 9.14183 7.72637 9.34853 7.58213 9.54481C7.53604 9.60949 7.45128 9.70615 7.32563 9.83254C7.19998 9.95893 7.10853 10.0563 7.0483 10.1232C6.98882 10.1902 6.93975 10.2697 6.89812 10.3612C6.83715 10.463 6.81708 10.553 6.83641 10.6318C6.8431 10.7039 6.89068 10.8422 6.98213 11.0496ZM6.35462 12.24L7.31819 11.8162L7.77544 12.8563L6.81187 13.2779L6.35462 12.24ZM13.449 5.02957L12.3658 4.49945C12.5271 4.1686 12.6624 3.92696 12.7717 3.77455C12.8803 3.62362 13.0349 3.51061 13.2305 3.43626C13.4267 3.36042 13.6989 3.33291 14.0468 3.3515C14.2089 3.36711 14.3479 3.37975 14.4639 3.39165C14.5799 3.40131 14.6847 3.40354 14.7769 3.39611C14.8691 3.39016 14.9502 3.36711 15.0215 3.33365C15.2067 3.24369 15.3673 3.06154 15.5018 2.78496C15.6743 2.43031 15.7338 2.1686 15.6728 1.99908C15.6476 1.88384 15.5747 1.78124 15.4572 1.69425C15.3398 1.60875 15.1561 1.50391 14.907 1.38198C14.6245 1.2541 14.4104 1.17455 14.2676 1.1344C14.1256 1.09797 14.0022 1.10094 13.8974 1.15001C13.7851 1.2147 13.6609 1.36191 13.5234 1.59462C13.5219 1.62808 13.5063 1.67194 13.478 1.73068L13.3524 1.98644L12.2684 1.45707C12.513 0.956703 12.7427 0.596852 12.9554 0.378264C13.171 0.157446 13.3955 0.0355134 13.6319 0.010978C13.9048 -0.0195052 14.1777 0.010978 14.449 0.100197C14.7204 0.191647 15.0431 0.329194 15.4178 0.510606C16.252 0.920272 16.7308 1.34852 16.855 1.79685C16.9635 2.19016 16.8684 2.7002 16.5621 3.32622C16.3502 3.75745 16.1427 4.04815 15.9368 4.19462C15.7323 4.34035 15.4907 4.42436 15.2119 4.44295C15.1212 4.45038 14.9747 4.44741 14.7695 4.43031C14.565 4.41395 14.4126 4.40503 14.3108 4.40206C14.2082 4.39834 14.1018 4.41693 13.9911 4.4489C13.8572 4.46823 13.7621 4.51953 13.707 4.59536C13.6498 4.64964 13.565 4.79611 13.449 5.02957ZM11.9435 5.36191L13.0282 5.89128L12.4557 7.06154L11.371 6.53068L11.9435 5.36191Z" fill="#002c8a"/>
</g>
<defs>
<clipPath id="clip0_1387_362">
<rect width="29" height="29" fill="white"/>
</clipPath>
</defs>
</svg>
