<svg width="41" height="41" viewBox="0 0 41 41" fill="none" xmlns="http://www.w3.org/2000/svg">
<g clip-path="url(#clip0_1346_968)">
<path d="M4.09999 4.1001H36.9C38.0275 4.1001 38.95 5.0226 38.95 6.1501V34.8501C38.95 35.9776 38.0275 36.9001 36.9 36.9001H4.09999C2.97249 36.9001 2.04999 35.9776 2.04999 34.8501V6.1501C2.04999 5.0226 2.97249 4.1001 4.09999 4.1001ZM34.85 32.8001V14.3501H6.14999V32.8001H34.85ZM8.19999 16.4001V18.4501H14.35V16.4001H8.19999ZM16.4 16.4001V22.5501H32.8V16.4001H16.4ZM8.19999 24.6001V26.6501H14.35V24.6001H8.19999ZM16.4 24.6001V30.7501H32.8V24.6001H16.4Z" fill="#002c8a"/>
</g>
<defs>
<clipPath id="clip0_1346_968">
<rect width="41" height="41" fill="white"/>
</clipPath>
</defs>
</svg>
