<svg width="41" height="41" viewBox="0 0 41 41" fill="none" xmlns="http://www.w3.org/2000/svg">
<path d="M29.4688 24.3438C29.4688 22.5699 28.9427 20.8359 27.9572 19.361C26.9717 17.8861 25.571 16.7365 23.9322 16.0577C22.2934 15.3789 20.4901 15.2013 18.7503 15.5473C17.0105 15.8934 15.4124 16.7476 14.1581 18.0019C12.9038 19.2562 12.0496 20.8543 11.7036 22.594C11.3575 24.3338 11.5351 26.1371 12.214 27.7759C12.8928 29.4148 14.0423 30.8155 15.5172 31.801C16.9921 32.7865 18.7262 33.3125 20.5 33.3125C22.8787 33.3125 25.1599 32.3676 26.8419 30.6856C28.5238 29.0037 29.4688 26.7224 29.4688 24.3438ZM12.8125 24.3438C12.8125 22.8233 13.2634 21.337 14.1081 20.0728C14.9528 18.8086 16.1534 17.8233 17.5581 17.2414C18.9628 16.6596 20.5085 16.5073 21.9998 16.804C23.491 17.1006 24.8608 17.8328 25.9359 18.9079C27.011 19.983 27.7432 21.3528 28.0398 22.844C28.3364 24.3352 28.1842 25.8809 27.6023 27.2856C27.0205 28.6903 26.0352 29.891 24.771 30.7357C23.5067 31.5804 22.0204 32.0313 20.5 32.0313C18.4612 32.0313 16.5058 31.2213 15.0641 29.7796C13.6224 28.338 12.8125 26.3826 12.8125 24.3438Z" fill="#002c8a"/>
<path d="M24.7025 21.0379C24.2882 20.6688 23.7452 20.478 23.1911 20.5067C22.637 20.5355 22.1166 20.7816 21.7428 21.1917L19.2892 23.9143L18.6486 23.2737C18.4522 23.0806 18.2196 22.9281 17.9642 22.8249C17.7089 22.7217 17.4357 22.6698 17.1602 22.6722C16.8848 22.6746 16.6125 22.7312 16.359 22.8388C16.1054 22.9464 15.8756 23.1029 15.6825 23.2993C15.4894 23.4958 15.3369 23.7283 15.2337 23.9837C15.1305 24.2391 15.0786 24.5123 15.081 24.7877C15.0858 25.3439 15.3114 25.8755 15.7081 26.2654L17.8862 28.4499C18.089 28.6491 18.3298 28.8053 18.5942 28.9092C18.8587 29.0132 19.1414 29.0627 19.4254 29.055C19.7095 29.0472 19.989 28.9822 20.2474 28.864C20.5058 28.7457 20.7377 28.5766 20.9292 28.3667L24.8562 24.004C25.2273 23.5894 25.4194 23.0449 25.3906 22.4893C25.3618 21.9336 25.1144 21.4119 24.7025 21.0379ZM23.9017 23.1392L19.9747 27.5018C19.8987 27.5817 19.8073 27.6453 19.7059 27.6887C19.6046 27.7321 19.4955 27.7546 19.3853 27.7546C19.2751 27.7546 19.166 27.7321 19.0647 27.6887C18.9634 27.6453 18.8719 27.5817 18.7959 27.5018L16.6114 25.3237C16.4611 25.1694 16.377 24.9625 16.377 24.7471C16.377 24.5318 16.4611 24.3249 16.6114 24.1706C16.687 24.0946 16.7768 24.0344 16.8758 23.9933C16.9747 23.9522 17.0808 23.931 17.188 23.931C17.2951 23.931 17.4012 23.9522 17.5001 23.9933C17.5991 24.0344 17.6889 24.0946 17.7645 24.1706L18.86 25.266C18.9198 25.329 18.9919 25.3792 19.0717 25.4135C19.1516 25.4478 19.2376 25.4654 19.3245 25.4654C19.4113 25.4654 19.4973 25.4478 19.5772 25.4135C19.657 25.3792 19.7291 25.329 19.7889 25.266L22.6909 22.0629C22.8354 21.9024 23.0376 21.8057 23.2533 21.7943C23.4689 21.7829 23.6803 21.8576 23.8409 22.0021C24.0014 22.1465 24.098 22.3488 24.1094 22.5644C24.1209 22.7801 24.0461 22.9914 23.9017 23.152V23.1392Z" fill="#002c8a"/>
<path d="M34.5938 3.84375H32.6719V3.52344C32.6719 2.92877 32.4356 2.35846 32.0152 1.93797C31.5947 1.51748 31.0244 1.28125 30.4297 1.28125C29.835 1.28125 29.2647 1.51748 28.8442 1.93797C28.4237 2.35846 28.1875 2.92877 28.1875 3.52344V3.84375H22.7422V3.52344C22.7422 2.92877 22.506 2.35846 22.0855 1.93797C21.665 1.51748 21.0947 1.28125 20.5 1.28125C19.9053 1.28125 19.335 1.51748 18.9145 1.93797C18.494 2.35846 18.2578 2.92877 18.2578 3.52344V3.84375H12.8125V3.52344C12.8125 2.92877 12.5763 2.35846 12.1558 1.93797C11.7353 1.51748 11.165 1.28125 10.5703 1.28125C9.97565 1.28125 9.40534 1.51748 8.98485 1.93797C8.56435 2.35846 8.32813 2.92877 8.32812 3.52344V3.84375H6.40625C5.55673 3.84375 4.742 4.18122 4.1413 4.78192C3.5406 5.38263 3.20313 6.19735 3.20312 7.04688V26.9062C3.20312 27.0762 3.27062 27.2391 3.39076 27.3592C3.5109 27.4794 3.67385 27.5469 3.84375 27.5469C4.01365 27.5469 4.1766 27.4794 4.29674 27.3592C4.41688 27.2391 4.48438 27.0762 4.48438 26.9062V12.8125H36.5156V28.1875C36.5156 28.3574 36.4481 28.5204 36.328 28.6405C36.2079 28.7606 36.0449 28.8281 35.875 28.8281H32.6719C31.8224 28.8281 31.0076 29.1656 30.4069 29.7663C29.8062 30.367 29.4688 31.1817 29.4688 32.0312V35.2344C29.4688 35.4043 29.4013 35.5672 29.2811 35.6874C29.161 35.8075 28.998 35.875 28.8281 35.875L6.40625 35.8366C5.89654 35.8366 5.4077 35.6341 5.04728 35.2737C4.68686 34.9132 4.48438 34.4244 4.48438 33.9147V32.0312C4.48438 31.8613 4.41688 31.6984 4.29674 31.5783C4.1766 31.4581 4.01365 31.3906 3.84375 31.3906C3.67385 31.3906 3.5109 31.4581 3.39076 31.5783C3.27062 31.6984 3.20312 31.8613 3.20312 32.0312V36.5156C3.20312 37.3651 3.5406 38.1799 4.1413 38.7806C4.742 39.3813 5.55673 39.7188 6.40625 39.7188H34.5938C35.4433 39.7188 36.258 39.3813 36.8587 38.7806C37.4594 38.1799 37.7969 37.3651 37.7969 36.5156V7.04688C37.7969 6.19735 37.4594 5.38263 36.8587 4.78192C36.258 4.18122 35.4433 3.84375 34.5938 3.84375ZM29.4688 3.52344C29.4688 3.26858 29.57 3.02416 29.7502 2.84395C29.9304 2.66374 30.1748 2.5625 30.4297 2.5625C30.6845 2.5625 30.929 2.66374 31.1092 2.84395C31.2894 3.02416 31.3906 3.26858 31.3906 3.52344V6.08594C31.3906 6.34079 31.2894 6.58521 31.1092 6.76542C30.929 6.94563 30.6845 7.04687 30.4297 7.04688C30.1748 7.04687 29.9304 6.94563 29.7502 6.76542C29.57 6.58521 29.4688 6.34079 29.4688 6.08594V3.52344ZM19.5391 3.52344C19.5391 3.26858 19.6403 3.02416 19.8205 2.84395C20.0007 2.66374 20.2451 2.5625 20.5 2.5625C20.7549 2.5625 20.9993 2.66374 21.1795 2.84395C21.3597 3.02416 21.4609 3.26858 21.4609 3.52344V6.08594C21.4609 6.34079 21.3597 6.58521 21.1795 6.76542C20.9993 6.94563 20.7549 7.04687 20.5 7.04688C20.2451 7.04687 20.0007 6.94563 19.8205 6.76542C19.6403 6.58521 19.5391 6.34079 19.5391 6.08594V3.52344ZM9.60938 3.52344C9.60938 3.26858 9.71062 3.02416 9.89083 2.84395C10.071 2.66374 10.3155 2.5625 10.5703 2.5625C10.8252 2.5625 11.0696 2.66374 11.2498 2.84395C11.43 3.02416 11.5312 3.26858 11.5312 3.52344V6.08594C11.5312 6.34079 11.43 6.58521 11.2498 6.76542C11.0696 6.94563 10.8252 7.04687 10.5703 7.04688C10.3155 7.04687 10.071 6.94563 9.89083 6.76542C9.71062 6.58521 9.60938 6.34079 9.60938 6.08594V3.52344ZM4.48438 11.5312V7.04688C4.48438 6.53716 4.68686 6.04833 5.04728 5.6879C5.4077 5.32748 5.89654 5.125 6.40625 5.125H8.32812V6.08594C8.32813 6.6806 8.56435 7.25091 8.98485 7.6714C9.40534 8.0919 9.97565 8.32812 10.5703 8.32812C11.165 8.32812 11.7353 8.0919 12.1558 7.6714C12.5763 7.25091 12.8125 6.6806 12.8125 6.08594V5.125H18.2578V6.08594C18.2578 6.6806 18.494 7.25091 18.9145 7.6714C19.335 8.0919 19.9053 8.32812 20.5 8.32812C21.0947 8.32812 21.665 8.0919 22.0855 7.6714C22.506 7.25091 22.7422 6.6806 22.7422 6.08594V5.125H28.1875V6.08594C28.1875 6.6806 28.4237 7.25091 28.8442 7.6714C29.2647 8.0919 29.835 8.32812 30.4297 8.32812C31.0244 8.32812 31.5947 8.0919 32.0152 7.6714C32.4356 7.25091 32.6719 6.6806 32.6719 6.08594V5.125H34.5938C35.1035 5.125 35.5923 5.32748 35.9527 5.6879C36.3131 6.04833 36.5156 6.53716 36.5156 7.04688V11.5312H4.48438ZM30.75 32.0312C30.75 31.5215 30.9525 31.0327 31.3129 30.6723C31.6733 30.3119 32.1622 30.1094 32.6719 30.1094H35.6123L30.75 34.9717V32.0312ZM34.5938 38.4375H6.40625C6.14894 38.4376 5.89423 38.3861 5.65721 38.2859C5.4202 38.1857 5.20572 38.039 5.02648 37.8544C4.84724 37.6698 4.7069 37.451 4.61378 37.2112C4.52066 36.9713 4.47666 36.7152 4.48438 36.458C5.0366 36.878 5.71243 37.1033 6.40625 37.0986L29.0395 37.1562C29.462 37.157 29.8804 37.0742 30.2707 36.9126C30.661 36.7509 31.0155 36.5137 31.3138 36.2145L36.5156 31.0191V36.5156C36.5156 37.0253 36.3131 37.5142 35.9527 37.8746C35.5923 38.235 35.1035 38.4375 34.5938 38.4375Z" fill="#002c8a"/>
<path d="M3.84375 30.1094C4.19756 30.1094 4.48438 29.8226 4.48438 29.4688C4.48438 29.1149 4.19756 28.8281 3.84375 28.8281C3.48994 28.8281 3.20312 29.1149 3.20312 29.4688C3.20312 29.8226 3.48994 30.1094 3.84375 30.1094Z" fill="#002c8a"/>
</svg>
