<svg width="42" height="42" viewBox="0 0 42 42" fill="none" xmlns="http://www.w3.org/2000/svg">
<g clip-path="url(#clip0_1346_928)">
<path d="M33.871 0.270508L30.4839 4.50438V10.8389H14.2258H9.48388C6.86972 10.8389 4.74194 12.9667 4.74194 15.5809V24.3873C4.74194 25.8817 5.95723 27.097 7.45162 27.097C7.94749 27.097 8.4061 26.9534 8.80646 26.7203V42.0002H19.6452V16.2583H30.4839V38.6131C30.4839 40.4808 32.0033 42.0002 33.871 42.0002C35.7386 42.0002 37.2581 40.4808 37.2581 38.6131V4.50438L33.871 0.270508ZM15.5258 12.1938L14.2258 13.8189L12.9258 12.1938H15.5258ZM8.80646 24.3873C8.80646 25.1345 8.19881 25.7422 7.45162 25.7422C6.70443 25.7422 6.09678 25.1345 6.09678 24.3873V17.6131H8.80646V24.3873ZM13.5484 40.6454H10.1613V39.2905H13.5484V40.6454ZM18.2903 40.6454H14.9032V39.2905H18.2903V40.6454ZM18.2903 37.9357H14.9032V26.4196H13.5484V37.9357H10.1613V27.706C11.7051 27.391 12.871 26.0233 12.871 24.3873V23.7099H15.5807V24.3873C15.5807 26.0226 16.7465 27.391 18.2903 27.706V37.9357ZM10.1613 26.2949V24.3873V23.7099H11.5161V24.3873C11.5161 25.2693 10.9478 26.0145 10.1613 26.2949ZM18.2903 26.2949C17.5038 26.0145 16.9355 25.2693 16.9355 24.3873V23.7099H18.2903V26.2949ZM21 14.9034H19.6452H18.9678H18.2903V22.3551H10.1613V14.9034H8.80646V16.2583H6.09678V15.5809C6.09678 13.7132 7.61623 12.1938 9.48388 12.1938H11.1903L14.2258 15.988L17.2613 12.1938H21V14.9034ZM30.4839 14.9034H22.3548V12.1938H30.4839V14.9034ZM33.871 2.4396L35.7136 4.74215H32.0284L33.871 2.4396ZM31.8387 6.09699H33.1936V33.8712H31.8387V6.09699ZM35.9032 38.6131C35.9032 39.7336 34.9914 40.6454 33.871 40.6454C32.7505 40.6454 31.8387 39.7336 31.8387 38.6131V37.9357H35.9032V38.6131ZM35.9032 36.5809H31.8387V35.226H35.9032V36.5809ZM35.9032 33.8712H34.5484V6.09699H35.9032V33.8712Z" fill="#002c8a"/>
<path d="M19.6452 5.41935C19.6452 2.43126 17.2139 0 14.2258 0C11.2377 0 8.80646 2.43126 8.80646 5.41935C8.80646 8.40745 11.2377 10.8387 14.2258 10.8387C17.2139 10.8387 19.6452 8.40745 19.6452 5.41935ZM14.2258 9.48387C11.9842 9.48387 10.1613 7.66093 10.1613 5.41935C10.1613 3.17777 11.9842 1.35484 14.2258 1.35484C16.4674 1.35484 18.2903 3.17777 18.2903 5.41935C18.2903 7.66093 16.4674 9.48387 14.2258 9.48387Z" fill="#002c8a"/>
</g>
<defs>
<clipPath id="clip0_1346_928">
<rect width="42" height="42" fill="white"/>
</clipPath>
</defs>
</svg>
