<svg width="26" height="26" viewBox="0 0 26 26" fill="none" xmlns="http://www.w3.org/2000/svg">
<path d="M7.95 14C7.25 12.95 6.9 11.75 6.9 10.4C6.9 8.1 7.85 6.2 9.35 5.05C8.85 4.15 7.85 3.5 6.55 3.5C4.35 3.5 3.1 5.3 3.1 7.35C3.1 8.45 3.45 9.4 4.2 10.05C4.6 10.45 4.95 10.95 4.95 11.45C4.95 11.95 4.75 12.45 3.5 13C1.7 13.8 0.05 14.9 0 16.55C0.05 17.65 0.75 18.5 1.8 18.5H3.45C3.7 18.5 3.95 18.35 4.1 18.1C4.9 16.65 6.4 15.75 7.65 15.1C8.1 14.9 8.2 14.35 7.95 14Z" fill="#002c8a"/>
<path d="M22.55 13C21.3 12.45 21.1 12 21.1 11.45C21.1 10.9 21.45 10.4 21.85 10.05C22.6 9.35 22.95 8.45 22.95 7.35C22.95 5.3 21.75 3.5 19.5 3.5C18.2 3.5 17.2 4.15 16.65 5.05C18.15 6.2 19.1 8.1 19.1 10.4C19.1 11.75 18.75 12.95 18.05 14C17.8 14.4 17.95 14.9 18.35 15.1C19.6 15.7 21.1 16.65 21.9 18.1C22.05 18.35 22.3 18.5 22.55 18.5H24.2C25.25 18.5 25.95 17.65 25.95 16.55C26 14.9 24.35 13.8 22.55 13Z" fill="#002c8a"/>
<path d="M16.35 16.6502C15 16.0502 14.75 15.5002 14.75 14.9502C14.75 14.3502 15.15 13.8002 15.6 13.4002C16.4 12.6502 16.85 11.6002 16.85 10.4002C16.85 8.1502 15.5 6.2002 13.05 6.2002C10.6 6.2002 9.24999 8.1502 9.24999 10.4002C9.24999 11.6002 9.69999 12.6502 10.5 13.4002C10.95 13.8502 11.35 14.4002 11.35 14.9502C11.35 15.5502 11.15 16.0502 9.74999 16.6502C7.74999 17.5002 5.84999 18.4502 5.79999 20.2502C5.79999 21.4502 6.69999 22.4502 7.84999 22.4502H13.05H18.25C19.4 22.4502 20.3 21.4502 20.3 20.2502C20.25 18.5002 18.35 17.5502 16.35 16.6502Z" fill="#002c8a"/>
</svg>
