<svg width="60" height="60" viewBox="0 0 60 60" fill="none" xmlns="http://www.w3.org/2000/svg">
<path d="M35.6597 39.844L31.4895 35.7087C29.4773 33.713 28.471 32.7152 27.3165 32.3505C26.301 32.0297 25.2095 32.0415 24.2012 32.3842C23.0547 32.774 22.0703 33.7932 20.1017 35.8317L10.1102 45.7005M35.6597 39.844L36.5132 38.9977C38.528 36.9997 39.5353 36.0007 40.6913 35.636C41.7078 35.3155 42.8 35.328 43.809 35.672C44.956 36.063 45.9403 37.085 47.9085 39.1287L50 41.234M35.6597 39.844L45.6875 49.8915M10.1102 45.7005C10.1878 46.3305 10.3199 46.8285 10.545 47.2702C11.0243 48.211 11.7892 48.976 12.7301 49.4552C13.7996 50.0002 15.1997 50.0002 18 50.0002H42C43.6357 50.0002 44.794 50.0002 45.6875 49.8915M10.1102 45.7005C10 44.8055 10 43.644 10 42.0002V18.0003C10 15.2 10 13.7999 10.545 12.7303C11.0243 11.7895 11.7892 11.0246 12.7301 10.5452C13.7996 10.0003 15.1997 10.0003 18 10.0003L31.25 9.99999M50 41.234V42.0002C50 44.8005 50 46.2007 49.455 47.2702C48.9757 48.211 48.2108 48.976 47.27 49.4552C46.8253 49.682 46.3232 49.8142 45.6875 49.8915M50 41.234V28.75M35 25.0005L40.0623 23.9879C40.5038 23.8996 40.7245 23.8555 40.9303 23.7747C41.113 23.7031 41.2865 23.6102 41.4475 23.4979C41.6288 23.3715 41.788 23.2123 42.1063 22.894L52.5 12.5004C53.8805 11.1197 53.8805 8.88109 52.5 7.50037C51.1193 6.11967 48.8805 6.11967 47.5 7.50037L37.1062 17.894C36.788 18.2123 36.6287 18.3715 36.5022 18.5528C36.39 18.7137 36.2973 18.8873 36.2255 19.07C36.1448 19.2758 36.1007 19.4965 36.0122 19.9379L35 25.0005Z" stroke="#002c8a" stroke-width="5" stroke-linecap="round" stroke-linejoin="round"/>
</svg>
