<svg width="41" height="41" viewBox="0 0 41 41" fill="none" xmlns="http://www.w3.org/2000/svg">
<path d="M24.3675 27.2266L21.5178 24.4008C20.1428 23.037 19.4552 22.3553 18.6663 22.106C17.9723 21.8868 17.2265 21.8949 16.5375 22.1291C15.754 22.3954 15.0814 23.0919 13.7361 24.4849L6.90863 31.2285M24.3675 27.2266L24.9507 26.6483C26.3274 25.283 27.0157 24.6003 27.8057 24.3511C28.5003 24.1321 29.2466 24.1406 29.9361 24.3757C30.7199 24.6429 31.3925 25.3412 32.7375 26.7378L34.1666 28.1764M24.3675 27.2266L31.2198 34.0924M6.90863 31.2285C6.96164 31.659 7.05191 31.9993 7.20571 32.3012C7.53327 32.944 8.05595 33.4668 8.69885 33.7943C9.42971 34.1667 10.3865 34.1667 12.3 34.1667H28.7C29.8177 34.1667 30.6092 34.1667 31.2198 34.0924M6.90863 31.2285C6.83331 30.6169 6.83331 29.8232 6.83331 28.7V12.3C6.83331 10.3865 6.83331 9.42975 7.20571 8.69889C7.53327 8.05599 8.05595 7.53331 8.69885 7.20574C9.42971 6.83335 10.3865 6.83335 12.3 6.83335L21.3541 6.83317M34.1666 28.1764V28.7C34.1666 30.6135 34.1666 31.5703 33.7942 32.3012C33.4667 32.944 32.944 33.4668 32.3011 33.7943C31.9972 33.9492 31.6542 34.0396 31.2198 34.0924M34.1666 28.1764V19.6457M23.9166 17.0835L27.3759 16.3916C27.6775 16.3312 27.8284 16.3011 27.969 16.2459C28.0939 16.197 28.2124 16.1335 28.3224 16.0567C28.4463 15.9703 28.5551 15.8616 28.7726 15.6441L35.875 8.54176C36.8183 7.59828 36.8183 6.06858 35.875 5.12509C34.9315 4.18161 33.4017 4.18161 32.4583 5.12509L25.3559 12.2274C25.1384 12.4449 25.0296 12.5537 24.9432 12.6776C24.8665 12.7876 24.8031 12.9062 24.7541 13.031C24.6989 13.1716 24.6688 13.3225 24.6084 13.6241L23.9166 17.0835Z" stroke="#002c8a" stroke-width="2" stroke-linecap="round" stroke-linejoin="round"/>
</svg>
