<svg width="41" height="41" viewBox="0 0 41 41" fill="none" xmlns="http://www.w3.org/2000/svg">
<path d="M33.1948 2.92822H32.9353C31.7178 2.92822 30.5903 3.61329 29.9188 4.76001C29.6738 5.17882 29.0263 5.22887 28.7192 4.8573C27.6974 3.61329 26.3405 2.92822 24.8899 2.92822C23.4493 2.92822 22.0928 3.61329 21.0698 4.8573C20.7903 5.19764 20.2189 5.19844 19.9379 4.8565C18.9149 3.61329 17.5583 2.92822 16.1177 2.92822C14.6771 2.92822 13.3206 3.61329 12.2976 4.8573C11.9909 5.23207 11.3439 5.17962 11.0984 4.76001C10.4258 3.61329 9.29828 2.92822 8.0811 2.92822H7.79161C5.91418 2.92822 4.38629 4.45611 4.38629 6.33355V34.6656C4.38629 36.543 5.91418 38.0709 7.79161 38.0709H8.0811C9.29788 38.0709 10.4254 37.3858 11.0992 36.2375C11.3423 35.8191 11.9893 35.7655 12.2976 36.1422C13.3206 37.3854 14.6771 38.0705 16.1177 38.0705C17.5583 38.0705 18.9149 37.3854 19.9379 36.1414C20.2189 35.8003 20.7903 35.8011 21.0698 36.1422C22.0928 37.3854 23.4493 38.0705 24.8999 38.0705C26.3405 38.0705 27.6978 37.3854 28.7188 36.143C29.0283 35.7683 29.6754 35.8227 29.9184 36.2375C30.5907 37.3858 31.7182 38.0709 32.9357 38.0709H33.1952C35.0726 38.0709 36.6005 36.543 36.6005 34.6656V6.33395C36.6005 4.45611 35.0722 2.92822 33.1948 2.92822ZM33.6717 34.6656C33.6717 34.9286 33.4579 35.1425 33.1948 35.1425H32.9353C32.6895 35.1425 32.4985 34.8486 32.4457 34.7577C31.7906 33.6402 30.5794 32.9459 29.2854 32.9459C28.1871 32.9459 27.1569 33.4328 26.457 34.2828C26.1932 34.6039 25.6398 35.1421 24.8899 35.1421C24.15 35.1421 23.5958 34.6031 23.332 34.2828C21.937 32.5832 19.0722 32.5828 17.6757 34.282C17.4118 34.6031 16.8577 35.1421 16.1177 35.1421C15.3778 35.1421 14.8237 34.6031 14.5598 34.2828C13.8619 33.4328 12.8309 32.9459 11.7323 32.9459C10.4366 32.9459 9.22541 33.641 8.57197 34.7577C8.51912 34.8478 8.32734 35.1425 8.0815 35.1425H7.79201C7.52896 35.1425 7.31515 34.9286 7.31515 34.6656V6.33395C7.31515 6.07089 7.52896 5.85708 7.79201 5.85708H8.0815C8.32734 5.85708 8.51912 6.15177 8.57117 6.24025C9.22541 7.35854 10.4366 8.05362 11.7323 8.05362C12.8313 8.05362 13.8623 7.56675 14.5598 6.71712C14.8237 6.39601 15.3778 5.85708 16.1177 5.85708C16.8577 5.85708 17.4118 6.39601 17.6757 6.71632C19.0722 8.41718 21.937 8.41518 23.332 6.71712C23.5958 6.39601 24.15 5.85708 24.8999 5.85708C25.6398 5.85708 26.1932 6.39561 26.4578 6.71792C27.1569 7.56675 28.1875 8.05362 29.2854 8.05362C30.5794 8.05362 31.7906 7.35935 32.4465 6.24025C32.4985 6.15097 32.6895 5.85708 32.9353 5.85708H33.1948C33.4579 5.85708 33.6717 6.07089 33.6717 6.33395V34.6656Z" fill="#002c8a"/>
<path d="M10.2472 21.9676H24.8899V24.8961H10.2472V21.9676ZM10.2468 27.8242H30.7396V30.7526H10.2468V27.8242ZM24.8859 13.1819H27.2081L23.8509 16.5396L25.9213 18.61L29.279 15.2527V17.575H32.2074V10.2534H24.8859V13.1819Z" fill="#002c8a"/>
</svg>
