<svg width="50" height="50" viewBox="0 0 50 50" fill="none" xmlns="http://www.w3.org/2000/svg">
<g clip-path="url(#clip0_1346_907)">
<path d="M11.9792 42.9728L3.125 35.0755L5.20484 32.7431L14.0191 40.605L26.0356 28.9723C26.5952 28.4306 27.3429 28.1266 28.1217 28.1242C28.9006 28.1217 29.6501 28.421 30.2131 28.9592L35.875 34.3722L44.5923 25.0386L46.875 27.1725L38.1544 36.5097C37.8727 36.8112 37.534 37.0537 37.1579 37.2234C36.7818 37.3931 36.3758 37.4864 35.9634 37.498C35.5509 37.5097 35.1403 37.4393 34.7552 37.2911C34.3702 37.1429 34.0184 36.9198 33.7202 36.6347L28.1319 31.2923L16.1537 42.887C15.5973 43.4258 14.8577 43.734 14.0833 43.75C13.309 43.7659 12.5573 43.4882 11.9792 42.9728Z" fill="#002c8a"/>
<path d="M46.875 17.1875H40.625L43.75 12.5L46.875 17.1875Z" fill="#002c8a"/>
<path d="M34.375 6.25H28.125V9.375H34.375V12.5H29.6875V15.625H34.375V18.75H28.125V21.875H34.375C35.2035 21.8739 35.9977 21.5443 36.5835 20.9585C37.1693 20.3727 37.4989 19.5785 37.5 18.75V9.375C37.499 8.54649 37.1695 7.75219 36.5837 7.16634C35.9978 6.5805 35.2035 6.25095 34.375 6.25Z" fill="#002c8a"/>
<path d="M25 21.875H15.625V15.625C15.6258 14.7965 15.9553 14.0021 16.5412 13.4162C17.1271 12.8303 17.9215 12.5008 18.75 12.5H21.875V9.375H15.625V6.25H21.875C22.7035 6.25095 23.4978 6.5805 24.0837 7.16634C24.6695 7.75219 24.999 8.54649 25 9.375V12.5C24.999 13.3285 24.6695 14.1228 24.0837 14.7087C23.4978 15.2945 22.7035 15.624 21.875 15.625H18.75V18.75H25V21.875Z" fill="#002c8a"/>
<path d="M9.375 18.75V6.25H6.25V7.8125H3.125V10.9375H6.25V18.75H3.125V21.875H12.5V18.75H9.375Z" fill="#002c8a"/>
</g>
<defs>
<clipPath id="clip0_1346_907">
<rect width="50" height="50" fill="white"/>
</clipPath>
</defs>
</svg>
