<svg width="39" height="39" viewBox="0 0 39 39" fill="none" xmlns="http://www.w3.org/2000/svg">
<g clip-path="url(#clip0_1346_957)">
<path fill-rule="evenodd" clip-rule="evenodd" d="M39 33.6022C39 34.5784 38.2058 35.371 37.2273 35.371H35.4545V37.2316C35.4545 38.2078 34.6604 39 33.6818 39C32.7033 39 31.9091 38.2078 31.9091 37.2316V35.371H30.1364C29.1578 35.371 28.3636 34.5784 28.3636 33.6022C28.3636 32.6259 29.1578 31.8338 30.1364 31.8338H31.9091V30.1571C31.9091 29.1809 32.7033 28.3887 33.6818 28.3887C34.6604 28.3887 35.4545 29.1809 35.4545 30.1571V31.8338H37.2273C38.2058 31.8338 39 32.6259 39 33.6022ZM18.8317 17.5671C18.4487 17.5353 18.0641 17.5087 17.6723 17.5087C17.3124 17.5087 16.9597 17.535 16.6069 17.5615C14.212 17.0469 12.4091 14.9213 12.4091 12.3799C12.4091 9.4547 14.7952 7.07425 17.7273 7.07425C20.6594 7.07425 23.0455 9.4547 23.0455 12.3799C23.0455 14.9266 21.2355 17.0578 18.8317 17.5671ZM3.57737 30.0654C3.55255 30.0742 3.57027 30.0669 3.54545 30.0758V5.29503C3.54545 4.31879 4.33964 3.53702 5.31818 3.53702H17.456C12.6874 3.68204 8.86364 7.5817 8.86364 12.3745C8.86364 14.9283 9.96625 17.2149 11.7035 18.8296C7.31071 20.8634 4.13401 25.0622 3.57737 30.0654ZM26.419 10.5935C25.6922 6.86187 22.3913 3.59362 17.8443 3.53702H30.1364C31.1149 3.53702 31.9091 4.32939 31.9091 5.30563V21.2225C31.9091 22.1988 32.7033 22.9909 33.6818 22.9909C34.6604 22.9909 35.4545 22.1988 35.4545 21.2225V3.53702C35.4545 1.58278 33.868 0 31.9091 0H3.54545C1.58659 0 0 1.58278 0 3.53702V31.8338C0 33.7863 1.58659 35.371 3.54545 35.371H21.2727C22.2513 35.371 23.0455 34.5784 23.0455 33.6022C23.0455 32.6259 22.2513 31.8338 21.2727 31.8338H7.0466C7.0466 31.8338 7.03594 31.7172 7.03594 31.6447C7.03594 20.8601 20.1293 19.4347 23.4177 22.4837C25.3198 24.2469 27.7857 21.4364 25.8747 20.0834C25.1976 19.6024 24.4743 19.18 23.7102 18.8209C25.8623 16.8455 27.0589 13.8848 26.419 10.5935Z" fill="#002c8a"/>
</g>
<defs>
<clipPath id="clip0_1346_957">
<rect width="39" height="39" fill="white"/>
</clipPath>
</defs>
</svg>
