<svg width="101" height="102" viewBox="0 0 101 102" fill="none" xmlns="http://www.w3.org/2000/svg">
<path d="M50.5003 38.25V51M50.5003 51V63.75M50.5003 51H37.8753M50.5003 51H63.1253M58.9169 89.25H42.0836L39.7648 78.71C37.0052 77.6203 34.4244 76.1158 32.1099 74.2475L21.9089 77.4902L13.4922 62.7683L21.3702 55.4667C20.9293 52.5084 20.9293 49.5001 21.3702 46.5418L13.4922 39.236L21.9089 24.514L32.1099 27.7568C34.4255 25.8866 37.0077 24.3807 39.769 23.29L42.0836 12.75H58.9169L61.2357 23.29C63.9952 24.3799 66.576 25.8844 68.8907 27.7525L79.0917 24.5098L87.5084 39.2317L79.6304 46.5333C80.0716 49.4916 80.0716 52.4999 79.6304 55.4582L87.5084 62.7598L79.0917 77.4818L68.8907 74.239C66.5766 76.1103 63.9958 77.6176 61.2357 78.71L58.9169 89.25Z" stroke="#002c8a" stroke-width="5" stroke-linecap="round" stroke-linejoin="round"/>
</svg>
