<svg width="46" height="43" viewBox="0 0 46 43" fill="none" xmlns="http://www.w3.org/2000/svg">
<path d="M39.3096 14.3751C41.9104 14.3751 44.0188 12.2667 44.0188 9.66584C44.0188 7.06497 41.9104 4.95654 39.3096 4.95654C36.7086 4.95654 34.6003 7.06497 34.6003 9.66584C34.6003 12.2667 36.7086 14.3751 39.3096 14.3751Z" fill="#002c8a"/>
<path d="M36.7984 36.2936C37.1012 36.3319 37.4097 36.3514 37.7231 36.3514H37.7575C41.7936 36.3514 45.0653 33.0797 45.0653 29.0437V18.4561C45.0653 17.3581 44.1752 16.4678 43.077 16.4678H37.4113C37.7319 17.0746 37.9085 17.768 37.8966 18.5015V30.5309C37.9405 32.5739 37.5456 34.5249 36.7984 36.2936Z" fill="#002c8a"/>
<path d="M32.7216 34.3728C31.3016 33.0399 30.4144 31.1461 30.4142 29.0448V18.7178H33.3966V30.5823L33.3973 30.6083C33.4283 31.9381 33.186 33.2109 32.7216 34.3728Z" fill="#002c8a"/>
<path d="M25.3382 14.3211C28.7758 13.9798 31.4605 11.0796 31.4605 7.55234C31.4605 3.79551 28.4149 0.75 24.658 0.75C20.9012 0.75 17.8556 3.79551 17.8556 7.55234C17.8556 7.68207 17.8594 7.81095 17.8664 7.93891H21.1699C23.4721 7.93891 25.3382 9.80512 25.3382 12.1071V14.3211Z" fill="#002c8a"/>
<path d="M20.8382 13.1818V12.439H19.9258C20.2075 12.7118 20.5129 12.9605 20.8382 13.1818Z" fill="#002c8a"/>
<path d="M12.6208 30.962C12.6194 30.8272 12.6203 30.6918 12.6234 30.5559V28.1457H13.6875V18.0207H17.625V16.4678H20.8382V30.962H12.6208Z" fill="#002c8a"/>
<path d="M13.5638 35.462H21.1699C23.4721 35.462 25.3382 33.5959 25.3382 31.2939V16.4678H33.7285C34.8134 16.4946 35.6718 17.3952 35.6466 18.4801V30.5559C35.7983 37.0676 30.6464 42.4712 24.1352 42.6305C19.3645 42.5137 15.3238 39.5822 13.5638 35.462Z" fill="#002c8a"/>
<path fill-rule="evenodd" clip-rule="evenodd" d="M21.1703 10.189H1.98351C0.924125 10.189 0.0652771 11.0478 0.0652771 12.1072V31.294C0.0652771 32.3533 0.924102 33.2122 1.98351 33.2122H21.1703C22.2296 33.2122 23.0884 32.3533 23.0884 31.294V12.1072C23.0884 11.0478 22.2296 10.189 21.1703 10.189ZM6.375 18.0208H10.3125V28.1458H12.5625V18.0208H16.5V15.7708H6.375V18.0208Z" fill="#002c8a"/>
</svg>
