<svg width="45" height="45" viewBox="0 0 45 45" fill="none" xmlns="http://www.w3.org/2000/svg">
<path fill-rule="evenodd" clip-rule="evenodd" d="M42.1875 33.75C42.1875 34.0355 42.1327 34.3055 42.0539 34.5628L29.5312 21.0938L42.1875 11.25V33.75ZM5.00062 36.4866L17.6906 22.964L22.5 26.5992L27.1013 22.9416L39.9994 36.4866C39.7983 36.533 5.20172 36.533 5.00062 36.4866ZM2.8125 33.75V11.25L15.4688 21.0938L2.9461 34.5628C2.86735 34.3055 2.8125 34.0355 2.8125 33.75ZM40.7812 8.4375L22.5 22.5L4.21875 8.4375H40.7812ZM39.375 5.625H5.625C2.51859 5.625 0 8.14359 0 11.25V33.75C0 36.8564 2.51859 39.375 5.625 39.375H39.375C42.4814 39.375 45 36.8564 45 33.75V11.25C45 8.14359 42.4814 5.625 39.375 5.625Z" fill="#002c8a"/>
</svg>
