<svg width="38" height="38" viewBox="0 0 38 38" fill="none" xmlns="http://www.w3.org/2000/svg">
<path d="M21.7669 32.3296H5.24876C4.8612 32.3282 4.48958 32.1752 4.21332 31.9034C3.93706 31.6315 3.77807 31.2624 3.77032 30.875V7.19621C3.77032 6.8041 3.92609 6.42806 4.20335 6.1508C4.48061 5.87354 4.85666 5.71777 5.24876 5.71777H28.9038C29.2959 5.71777 29.6719 5.87354 29.9492 6.1508C30.2264 6.42806 30.3822 6.8041 30.3822 7.19621V20.4962" stroke="#002c8a" stroke-width="2"/>
<path d="M3.77032 12.249H30.3822" stroke="#002c8a" stroke-width="2"/>
<path d="M9.77313 5.71777V2.74902" stroke="#002c8a" stroke-width="2"/>
<path d="M23.9994 5.71777V2.74902" stroke="#002c8a" stroke-width="2"/>
<path d="M26.8494 34.3602C30.9254 34.3602 34.2297 31.056 34.2297 26.9799C34.2297 22.9039 30.9254 19.5996 26.8494 19.5996C22.7733 19.5996 19.4691 22.9039 19.4691 26.9799C19.4691 31.056 22.7733 34.3602 26.8494 34.3602Z" stroke="#002c8a" stroke-width="2"/>
<path d="M26.8494 21.7905V27.2055L29.4322 29.1887" stroke="#002c8a" stroke-width="2"/>
</svg>
