<svg width="75" height="75" viewBox="0 0 75 75" fill="none" xmlns="http://www.w3.org/2000/svg">
<path fill-rule="evenodd" clip-rule="evenodd" d="M14.0414 28.1318H14.039C11.4492 28.1318 9.34686 30.2342 9.34686 32.824C9.34686 35.4138 11.4492 37.5162 14.039 37.5162C16.6265 37.5162 18.7289 35.4138 18.7289 32.824V16.1318L32.7937 14.374L32.8008 23.4373C30.2109 23.4373 28.1086 25.5396 28.1086 28.1295C28.1086 30.7193 30.2109 32.8193 32.8008 32.8193C35.3906 32.8193 37.493 30.7193 37.493 28.1295L37.4789 11.7162C37.4789 11.0459 37.1906 10.406 36.6867 9.96072C36.1828 9.51541 35.5125 9.30916 34.8445 9.39353L16.0945 11.7373C14.9226 11.8826 14.0414 12.881 14.0414 14.0623V28.1318Z" fill="#002c8a"/>
<path fill-rule="evenodd" clip-rule="evenodd" d="M29.5711 48.2741C27.6656 50.1843 26.4633 51.3913 26.4633 51.3913C26.0273 51.8296 25.7836 52.4226 25.7812 53.039L25.7601 63.2765C25.7578 63.8976 26.0039 64.4952 26.4445 64.9358C26.8851 65.3765 27.4805 65.6249 28.1039 65.6249H38.4797C39.1008 65.6249 39.6937 65.3788 40.1344 64.9429L43.193 61.896L29.5711 48.2741ZM32.8781 44.953L46.5141 58.589L62.7937 42.3843C64.6055 40.5702 65.625 38.1116 65.625 35.5499C65.625 32.9858 64.6055 30.5272 62.7937 28.7155C62.7867 28.7062 62.7797 28.6991 62.7726 28.6921C60.9586 26.8804 58.5 25.8608 55.9383 25.8608C53.3742 25.8608 50.9156 26.8804 49.1039 28.6921C44.5148 33.2812 37.8023 40.0124 32.8781 44.953Z" fill="#002c8a"/>
</svg>
