<svg width="60" height="60" viewBox="0 0 60 60" fill="none" xmlns="http://www.w3.org/2000/svg">
<path fill-rule="evenodd" clip-rule="evenodd" d="M23.3374 11.8182V13.1335C16.6129 15.8911 11.9148 24.9484 12.0853 32.798L12.0852 37.1578C8.64282 41.5833 8.84537 48.1817 17.4337 48.1817H23.3374C23.3374 49.99 24.0421 51.7243 25.2965 53.003C26.5507 54.2818 28.252 55 30.026 55C31.8 55 33.5012 54.2818 34.7555 53.003C36.01 51.7243 36.7145 49.99 36.7145 48.1817H42.6345C51.2065 48.1817 51.3307 41.5695 47.8887 37.144L47.9845 32.804C48.1577 24.9453 43.4507 15.8799 36.7145 13.1262V11.8182C36.7145 10.0099 36.01 8.27565 34.7555 6.997C33.5012 5.71835 31.8 5 30.026 5C28.252 5 26.5507 5.71835 25.2965 6.997C24.0421 8.27565 23.3374 10.0099 23.3374 11.8182ZM32.2555 11.8182C32.2555 11.8643 32.2542 11.9104 32.2515 11.9562C31.5252 11.8651 30.7855 11.8182 30.035 11.8182C29.2782 11.8182 28.5325 11.8658 27.8007 11.9584C27.798 11.9118 27.7965 11.8651 27.7965 11.8182C27.7965 11.2154 28.0315 10.6373 28.4495 10.2111C28.8675 9.7849 29.4347 9.54545 30.026 9.54545C30.6172 9.54545 31.1845 9.7849 31.6025 10.2111C32.0207 10.6373 32.2555 11.2154 32.2555 11.8182ZM27.7965 48.1817C27.7965 48.7845 28.0315 49.3627 28.4495 49.789C28.8675 50.215 29.4347 50.4545 30.026 50.4545C30.6172 50.4545 31.1845 50.215 31.6025 49.789C32.0207 49.3627 32.2555 48.7845 32.2555 48.1817H27.7965ZM42.6345 43.6363C44.5392 43.6363 45.5667 41.3588 44.3272 39.8845C43.725 39.1683 43.404 38.257 43.4247 37.3215L43.5265 32.702C43.6967 24.9854 37.6067 16.3636 30.035 16.3636C22.4649 16.3636 16.3757 24.9825 16.5433 32.6973L16.6437 37.3222C16.664 38.2575 16.3431 39.1685 15.741 39.8845C14.5013 41.3588 15.5289 43.6363 17.4337 43.6363H42.6345Z" fill="#002c8a"/>
</svg>
