<svg width="40" height="40" viewBox="0 0 40 40" fill="none" xmlns="http://www.w3.org/2000/svg">
<path d="M30.2656 8.59375C29.9609 8.59375 29.7187 8.35156 29.7187 8.04688C29.7187 7.74219 29.9609 7.5 30.2656 7.5H36.1328L33.6562 3.44531H6.34375L3.86719 7.5H9.73437C10.0391 7.5 10.2813 7.74219 10.2813 8.04688C10.2813 8.35156 10.0391 8.59375 9.73437 8.59375H3.53125V12.6016H36.4687V8.59375H30.2656ZM15.3203 9.52344L14.0625 8.85938L12.8047 9.52344L13.0469 8.11719L12.0234 7.125L13.4297 6.92188L14.0625 5.64844L14.6953 6.92188L16.1016 7.125L15.0781 8.125L15.3203 9.52344ZM21.2578 9.52344L20 8.85938L18.7422 9.52344L18.9844 8.11719L17.9609 7.125L19.3672 6.92188L20 5.64844L20.6328 6.92188L22.0391 7.125L21.0234 8.125L21.2578 9.52344ZM27.2031 9.52344L25.9453 8.85938L24.6875 9.52344L24.9297 8.11719L23.9062 7.125L25.3125 6.92188L25.9453 5.64844L26.5781 6.92188L27.9844 7.125L26.9609 8.125L27.2031 9.52344Z" fill="#002c8a"/>
<path d="M23.0312 30.9063H32.9766V13.6953H7.02344V30.9063H16.9687V28.3281H23.0312V30.9063ZM14.5938 25.6016H10.7187V22.1641H14.5938V25.6016ZM14.5938 19.4062H10.7187V15.9687H14.5938V19.4062ZM21.9375 25.6016H18.0625V22.1641H21.9375V25.6016ZM21.9375 19.4062H18.0625V15.9687H21.9375V19.4062ZM25.4063 15.9687H29.2812V19.4062H25.4063V15.9687ZM25.4063 22.1641H29.2812V25.6016H25.4063V22.1641Z" fill="#002c8a"/>
<path d="M16.9688 32H3.53125V36.5547H16.9688V32Z" fill="#002c8a"/>
<path d="M36.4688 32H23.0312V36.5547H36.4688V32Z" fill="#002c8a"/>
<path d="M34.0703 30.9063H36.4687V16.9375L34.0703 16.2734V30.9063Z" fill="#002c8a"/>
<path d="M3.53125 16.9375V30.9063H5.92969V16.2734L3.53125 16.9375Z" fill="#002c8a"/>
<path d="M21.9375 29.4141H18.0625V36.5469H21.9375V29.4141Z" fill="#002c8a"/>
</svg>
