<svg width="60" height="60" viewBox="0 0 60 60" fill="none" xmlns="http://www.w3.org/2000/svg">
<g clip-path="url(#clip0_1460_1005)">
<mask id="mask0_1460_1005" style="mask-type:luminance" maskUnits="userSpaceOnUse" x="-5" y="-5" width="70" height="70">
<path d="M-4.28516 -4.28566H64.2857V64.2852H-4.28516V-4.28566Z" fill="white"/>
</mask>
<g mask="url(#mask0_1460_1005)">
<path d="M10.7258 41.5472H23.6642C23.7682 41.5793 23.8753 41.6018 23.9846 41.6018C24.0917 41.6018 24.1989 41.5804 24.3028 41.5472H34.1931L27.9306 52.3953C20.6193 51.7235 14.3279 47.5354 10.7258 41.5472ZM10.3529 19.0645L16.8339 30.2909C16.8779 30.4837 16.9829 30.653 17.1264 30.7977L22.0957 39.4044H9.58793C8.26152 36.5383 7.50081 33.3594 7.50081 29.9995C7.50081 26.0309 8.54223 22.3056 10.3529 19.0645ZM29.647 7.51786L23.165 18.7431C23.0203 18.877 22.9271 19.0528 22.8735 19.2488L17.9032 27.8566L11.6504 17.0246C15.665 11.3632 22.22 7.63465 29.647 7.51786ZM49.2744 18.4517H36.3316C36.142 18.3938 35.9427 18.4003 35.7456 18.4517H25.8081L32.0706 7.60465C39.382 8.27536 45.6733 12.4635 49.2744 18.4517ZM49.6483 40.9333L43.1662 29.707C43.1223 29.5162 43.0173 29.347 42.8748 29.2034L37.9055 20.5945H50.4133C51.7397 23.4617 52.5004 26.6395 52.5004 29.9995C52.5004 33.968 51.4579 37.6933 49.6483 40.9333ZM40.7812 29.9995L35.3909 39.3369H24.6092L19.2189 29.9995L24.6092 20.6631H35.3909L40.7812 29.9995ZM30.3542 52.4821L36.8352 41.2569C36.9798 41.1219 37.0752 40.9461 37.1277 40.749L42.0969 32.1423L48.3508 42.9743C44.3362 48.6357 37.7802 52.3653 30.3542 52.4821ZM50.4551 43.7286C50.4872 43.689 50.5086 43.645 50.5354 43.6022C53.1283 39.7012 54.6433 35.0244 54.6433 29.9995C54.6433 26.1038 53.7304 22.4181 52.1136 19.1395C52.1008 19.1053 52.0804 19.0753 52.0643 19.042C48.2565 11.406 40.6023 6.01466 31.6549 5.41895C31.6227 5.41359 31.5927 5.41359 31.5617 5.41145C31.0442 5.37931 30.5245 5.35681 30.0006 5.35681C21.4903 5.35681 13.9754 9.69391 9.54615 16.2724C9.51508 16.3099 9.49365 16.3517 9.46794 16.3935C6.87403 20.2956 5.35797 24.9734 5.35797 29.9995C5.35797 33.8951 6.26975 37.5808 7.88652 40.8594C7.90045 40.8947 7.91973 40.9236 7.93688 40.9579C11.7522 48.6079 19.4268 54.0046 28.3956 54.5842C28.4342 54.5885 28.4728 54.5992 28.5124 54.5992C28.5221 54.5992 28.5317 54.596 28.5413 54.596C29.0245 54.6239 29.511 54.6421 30.0006 54.6421C38.5098 54.6421 46.0248 50.3061 50.4551 43.7286Z" fill="#002c8a"/>
<path d="M1.07197 15.918C1.66339 15.918 2.14339 15.438 2.14339 14.8465V5.35699C2.14339 3.58486 3.58552 2.14273 5.35764 2.14273H14.934C15.5254 2.14273 16.0054 1.66274 16.0054 1.07131C16.0054 0.47989 15.5254 -0.000105489 14.934 -0.000105489H5.35764C2.40374 -0.000105489 0.000549316 2.40309 0.000549316 5.35699V14.8465C0.000549316 15.438 0.480545 15.918 1.07197 15.918Z" fill="#002c8a"/>
<path d="M54.6429 -0.000105489H45.0665C44.4751 -0.000105489 43.9951 0.47989 43.9951 1.07131C43.9951 1.66274 44.4751 2.14273 45.0665 2.14273H54.6429C56.415 2.14273 57.8571 3.58486 57.8571 5.35699V14.8465C57.8571 15.438 58.3361 15.918 58.9286 15.918C59.521 15.918 60 15.438 60 14.8465V5.35699C60 2.40309 57.5968 -0.000105489 54.6429 -0.000105489Z" fill="#002c8a"/>
<path d="M14.9334 57.8567H5.3571C3.58497 57.8567 2.14284 56.4145 2.14284 54.6424V45.1529C2.14284 44.5614 1.66391 44.0814 1.07142 44.0814C0.479996 44.0814 0 44.5614 0 45.1529V54.6424C0 57.5963 2.40426 59.9995 5.3571 59.9995H14.9334C15.5249 59.9995 16.0049 59.5195 16.0049 58.9281C16.0049 58.3367 15.5249 57.8567 14.9334 57.8567Z" fill="#002c8a"/>
<path d="M58.9286 44.0814C58.3361 44.0814 57.8571 44.5614 57.8571 45.1529V54.6424C57.8571 56.4145 56.415 57.8567 54.6429 57.8567H45.0665C44.4751 57.8567 43.9951 58.3367 43.9951 58.9281C43.9951 59.5195 44.4751 59.9995 45.0665 59.9995H54.6429C57.5968 59.9995 60 57.5963 60 54.6424V45.1529C60 44.5614 59.521 44.0814 58.9286 44.0814Z" fill="#002c8a"/>
<path d="M30.0002 25.6791H30.0077V25.6855C30.0077 27.4662 31.4552 28.9147 33.2359 28.9147C33.4159 28.9147 33.5938 28.8944 33.7706 28.8655C33.8263 28.8558 33.8809 28.8408 33.9366 28.829C34.0063 28.813 34.0781 28.8033 34.1456 28.783C34.2624 29.1751 34.3202 29.5822 34.3202 30.0001C34.3202 32.3819 32.3831 34.3201 30.0002 34.3201C27.6174 34.3201 25.6792 32.3819 25.6792 30.0001C25.6792 27.6173 27.6174 25.6791 30.0002 25.6791ZM33.2359 24.6012C33.8338 24.6012 34.3202 25.0876 34.3202 25.6855C34.3202 25.9941 34.1895 26.2844 33.9366 26.5019C33.7438 26.6787 33.5016 26.7719 33.2359 26.7719C32.637 26.7719 32.1506 26.2844 32.1506 25.6855C32.1506 25.5312 32.187 25.3716 32.2545 25.2226C32.4334 24.8444 32.8181 24.6012 33.2359 24.6012ZM30.0002 36.4629C33.5638 36.4629 36.463 33.5636 36.463 30.0001C36.463 29.1183 36.2755 28.2472 35.9252 27.4394C36.2648 26.924 36.463 26.3208 36.463 25.6855C36.463 23.9059 35.0156 22.4584 33.2359 22.4584C32.2867 22.4584 31.3974 22.8827 30.791 23.5855C30.5317 23.5534 30.2681 23.5362 30.0002 23.5362C26.4356 23.5362 23.5364 26.4355 23.5364 30.0001C23.5364 33.5636 26.4356 36.4629 30.0002 36.4629Z" fill="#002c8a"/>
</g>
</g>
<defs>
<clipPath id="clip0_1460_1005">
<rect width="60" height="60" fill="white"/>
</clipPath>
</defs>
</svg>
