<svg width="42" height="42" viewBox="0 0 42 42" fill="none" xmlns="http://www.w3.org/2000/svg">
<path d="M7 17.5V10.5C7 8.567 8.567 7 10.5 7H21M7.04713 32.0758C7.32174 33.7348 8.76312 35 10.5 35H31.5C33.433 35 35 33.433 35 31.5V24.8327M7.04713 32.0758C7.01613 31.8885 7 31.6962 7 31.5V26.25M7.04713 32.0758L13.7333 25.3895C14.9234 24.3483 16.6638 24.2342 17.9795 25.1114L18.8706 25.7054C20.1387 26.5508 21.8083 26.4784 22.9985 25.5262L27.6327 21.8188C28.8139 20.8738 30.4593 20.7996 31.7149 21.6097C31.854 21.6995 31.9779 21.8106 32.095 21.9277L35 24.8327M35 24.8327V10.5C35 8.567 33.433 7 31.5 7H29.75M19.25 15.75C19.25 17.683 17.683 19.25 15.75 19.25C13.817 19.25 12.25 17.683 12.25 15.75C12.25 13.817 13.817 12.25 15.75 12.25C17.683 12.25 19.25 13.817 19.25 15.75Z" stroke="#002c8a" stroke-width="2" stroke-linecap="round" stroke-linejoin="round"/>
<path d="M29.518 14.6437L28.736 12.8003C29.029 12.5075 29.2103 12.103 29.2103 11.6561C29.2103 10.7627 28.4862 10.0386 27.5929 10.0386C26.6996 10.0386 25.9754 10.7627 25.9754 11.6561C25.9754 12.1133 26.1668 12.5242 26.4717 12.8184L25.6975 14.6437H24.0325V16.5849H31.144V14.6437H29.518ZM27.5929 10.6855C28.1281 10.6855 28.5634 11.1209 28.5634 11.656C28.5634 12.1911 28.1281 12.6264 27.5929 12.6264C27.0578 12.6264 26.6224 12.1911 26.6224 11.656C26.6224 11.1209 27.0578 10.6855 27.5929 10.6855ZM27.0273 13.1663C27.2039 13.2325 27.3931 13.2735 27.5929 13.2735C27.8023 13.2735 28.001 13.2306 28.1847 13.1581L28.8148 14.6437H26.4006L27.0273 13.1663ZM30.4969 15.9378H24.6795V15.2907H30.4969V15.9378ZM24.356 17.2347H30.826V17.8817H24.356V17.2347Z" fill="#002c8a"/>
</svg>
