<svg width="60" height="60" viewBox="0 0 60 60" fill="none" xmlns="http://www.w3.org/2000/svg">
<path fill-rule="evenodd" clip-rule="evenodd" d="M17.5385 2.53844C17.7991 2.52698 18.0593 2.56988 18.3024 2.6644C18.5456 2.75892 18.7665 2.903 18.9509 3.08749C19.1354 3.27197 19.2795 3.49281 19.374 3.73598C19.4685 3.97915 19.5114 4.23933 19.5 4.49997V5.7692C19.5114 6.02985 19.4685 6.29002 19.374 6.5332C19.2795 6.77637 19.1354 6.99721 18.9509 7.18169C18.7665 7.36617 18.5456 7.51026 18.3024 7.60478C18.0593 7.6993 17.7991 7.7422 17.5385 7.73074H11.6538C10.6521 7.72901 9.68774 8.11051 8.95831 8.79703C8.22887 9.48355 7.78968 10.4231 7.73076 11.4231V48.3461C7.72903 49.3478 8.11052 50.3122 8.79705 51.0417C9.48357 51.7711 10.4231 52.2103 11.4231 52.2692H48.3461C49.3478 52.2709 50.3122 51.8894 51.0417 51.2029C51.7711 50.5164 52.2103 49.5768 52.2692 48.5769V42.4615C52.2578 42.2009 52.3007 41.9407 52.3952 41.6975C52.4897 41.4543 52.6338 41.2335 52.8183 41.049C53.0028 40.8645 53.2236 40.7205 53.4668 40.6259C53.7099 40.5314 53.9701 40.4885 54.2308 40.5H55.5C55.7606 40.4885 56.0208 40.5314 56.264 40.6259C56.5072 40.7205 56.728 40.8645 56.9125 41.049C57.097 41.2335 57.241 41.4543 57.3356 41.6975C57.4301 41.9407 57.473 42.2009 57.4615 42.4615V49.6154C57.4585 51.6953 56.6308 53.6893 55.1601 55.1601C53.6893 56.6308 51.6954 57.4585 49.6154 57.4615H10.3846C8.30461 57.4585 6.31069 56.6308 4.83991 55.1601C3.36913 53.6893 2.5415 51.6953 2.53845 49.6154V10.3846C2.5415 8.3046 3.36913 6.31067 4.83991 4.83989C6.31069 3.36911 8.30461 2.54149 10.3846 2.53844H17.5385Z" fill="#002c8a"/>
<path d="M46.6154 29.3076L50.1923 25.7307C50.3151 25.6224 50.4134 25.4892 50.4808 25.34C50.5481 25.1908 50.583 25.029 50.583 24.8653C50.583 24.7016 50.5481 24.5398 50.4808 24.3906C50.4134 24.2414 50.3151 24.1082 50.1923 23.9999L35.7692 9.46145C35.661 9.33867 35.5278 9.24034 35.3786 9.17299C35.2294 9.10563 35.0676 9.0708 34.9038 9.0708C34.7401 9.0708 34.5783 9.10563 34.4291 9.17299C34.2799 9.24034 34.1467 9.33867 34.0385 9.46145L30.4615 13.0384C30.3388 13.1467 30.2404 13.2798 30.1731 13.429C30.1057 13.5782 30.0709 13.7401 30.0709 13.9038C30.0709 14.0675 30.1057 14.2293 30.1731 14.3785C30.2404 14.5277 30.3388 14.6609 30.4615 14.7691L44.8846 29.1922C44.9845 29.3226 45.111 29.4301 45.2557 29.5076C45.4004 29.5852 45.56 29.631 45.7239 29.6419C45.8877 29.6528 46.052 29.6286 46.2057 29.571C46.3595 29.5133 46.4991 29.4235 46.6154 29.3076Z" fill="#002c8a"/>
<path d="M54.6923 21.1153L56.4231 19.3845C56.5458 19.2762 56.6442 19.143 56.7115 18.9938C56.7789 18.8446 56.8137 18.6828 56.8137 18.5191C56.8137 18.3554 56.7789 18.1936 56.7115 18.0444C56.6442 17.8952 56.5458 17.762 56.4231 17.6537L42.1154 3.11526C42.0071 2.99248 41.8739 2.89415 41.7247 2.8268C41.5755 2.75944 41.4137 2.72461 41.25 2.72461C41.0863 2.72461 40.9245 2.75944 40.7752 2.8268C40.626 2.89415 40.4929 2.99248 40.3846 3.11526L38.6538 4.84603C38.5311 4.95431 38.4327 5.08747 38.3654 5.23668C38.298 5.38588 38.2632 5.54771 38.2632 5.71141C38.2632 5.87511 38.298 6.03694 38.3654 6.18615C38.4327 6.33535 38.5311 6.46852 38.6538 6.5768L53.0769 21.1153C53.2926 21.3267 53.5826 21.4451 53.8846 21.4451C54.1866 21.4451 54.4766 21.3267 54.6923 21.1153Z" fill="#002c8a"/>
<path d="M42.4615 33.3463C43.1539 32.6539 43.0385 32.077 42.5769 31.6155L28.1539 17.1924C28.0456 17.0696 27.9124 16.9713 27.7632 16.9039C27.614 16.8366 27.4522 16.8018 27.2885 16.8018C27.1248 16.8018 26.9629 16.8366 26.8137 16.9039C26.6645 16.9713 26.5314 17.0696 26.4231 17.1924L26.3077 17.3078C26.1849 17.4161 26.0866 17.5492 26.0192 17.6984C25.9519 17.8476 25.9171 18.0095 25.9171 18.1732C25.9171 18.3369 25.9519 18.4987 26.0192 18.6479C26.0866 18.7971 26.1849 18.9303 26.3077 19.0386L40.7308 33.4616C40.847 33.5776 40.9867 33.6674 41.1405 33.725C41.2942 33.7827 41.4585 33.8068 41.6223 33.7959C41.7861 33.785 41.9457 33.7392 42.0905 33.6617C42.2352 33.5841 42.3617 33.4766 42.4615 33.3463Z" fill="#002c8a"/>
<path d="M37.3846 38.4231L38.1923 37.6154C38.3151 37.5072 38.4134 37.374 38.4808 37.2248C38.5481 37.0756 38.583 36.9138 38.583 36.7501C38.583 36.5864 38.5481 36.4245 38.4808 36.2753C38.4134 36.1261 38.3151 35.993 38.1923 35.8847L23.8846 21.3462C23.7763 21.2234 23.6432 21.1251 23.494 21.0578C23.3448 20.9904 23.1829 20.9556 23.0192 20.9556C22.8555 20.9556 22.6937 20.9904 22.5445 21.0578C22.3953 21.1251 22.2621 21.2234 22.1538 21.3462L21.3462 22.1539C21.2234 22.2622 21.125 22.3954 21.0577 22.5446C20.9903 22.6938 20.9555 22.8556 20.9555 23.0193C20.9555 23.183 20.9903 23.3448 21.0577 23.494C21.125 23.6432 21.2234 23.7764 21.3462 23.8847L35.7692 38.3078C36.1154 39.0001 36.8077 39.0001 37.3846 38.4231Z" fill="#002c8a"/>
<path d="M29.6538 46.269L33.2308 42.6921C33.3535 42.5838 33.4519 42.4507 33.5192 42.3015C33.5866 42.1523 33.6214 41.9904 33.6214 41.8267C33.6214 41.663 33.5866 41.5012 33.5192 41.352C33.4519 41.2028 33.3535 41.0696 33.2308 40.9613L18.8077 26.4229C18.6994 26.3001 18.5662 26.2018 18.417 26.1344C18.2678 26.0671 18.106 26.0322 17.9423 26.0322C17.7786 26.0322 17.6168 26.0671 17.4676 26.1344C17.3184 26.2018 17.1852 26.3001 17.0769 26.4229L13.5 29.9998C13.3772 30.1081 13.2789 30.2412 13.2115 30.3904C13.1442 30.5397 13.1093 30.7015 13.1093 30.8652C13.1093 31.0289 13.1442 31.1907 13.2115 31.3399C13.2789 31.4891 13.3772 31.6223 13.5 31.7306L27.9231 46.1536C28.0229 46.284 28.1494 46.3915 28.2942 46.4691C28.4389 46.5466 28.5985 46.5924 28.7623 46.6033C28.9262 46.6142 29.0904 46.5901 29.2442 46.5324C29.3979 46.4748 29.5376 46.385 29.6538 46.269Z" fill="#002c8a"/>
</svg>
