<svg width="47" height="47" viewBox="0 0 47 47" fill="none" xmlns="http://www.w3.org/2000/svg">
<path fill-rule="evenodd" clip-rule="evenodd" d="M18.1986 2.53207C18.5658 2.16483 19.0639 1.9585 19.5833 1.9585H35.25C38.4948 1.9585 41.125 4.58883 41.125 7.8335V13.7085C41.125 14.79 40.2483 15.6668 39.1667 15.6668C38.0851 15.6668 37.2083 14.79 37.2083 13.7085V7.8335C37.2083 6.75195 36.3316 5.87516 35.25 5.87516H21.5417V15.6668C21.5417 16.7484 20.6649 17.6252 19.5833 17.6252H9.79167V39.1668C9.79167 40.2484 10.6685 41.1252 11.75 41.1252H21.5417C22.6233 41.1252 23.5 42.0019 23.5 43.0835C23.5 44.1651 22.6233 45.0418 21.5417 45.0418H11.75C8.50534 45.0418 5.875 42.4116 5.875 39.1668V15.6668C5.875 15.1474 6.08133 14.6493 6.44858 14.2821L18.1986 2.53207ZM12.5612 13.7085H17.625V8.64466L12.5612 13.7085ZM35.7396 40.6356C35.7396 41.9876 34.6437 43.0835 33.2917 43.0835C31.9396 43.0835 30.8438 41.9876 30.8438 40.6356C30.8438 39.2835 31.9396 38.1877 33.2917 38.1877C34.6437 38.1877 35.7396 39.2835 35.7396 40.6356ZM29.64 25.3886C30.1581 24.4002 31.4961 23.5002 33.2917 23.5002C35.8042 23.5002 37.2083 25.1344 37.2083 26.4377C37.2083 27.7409 35.8042 29.3752 33.2917 29.3752C32.2101 29.3752 31.3333 30.2519 31.3333 31.3335V33.2918C31.3333 34.3734 32.2101 35.2502 33.2917 35.2502C34.3733 35.2502 35.25 34.3734 35.25 33.2918V33.0698C38.4452 32.3391 41.125 29.8591 41.125 26.4377C41.125 22.333 37.2685 19.5835 33.2917 19.5835C30.2692 19.5835 27.466 21.1002 26.1712 23.5701C25.6689 24.5279 26.0384 25.7115 26.9962 26.2138C27.954 26.7159 29.1376 26.3466 29.64 25.3886Z" fill="#002c8a"/>
</svg>
