<svg width="46" height="46" viewBox="0 0 46 46" fill="none" xmlns="http://www.w3.org/2000/svg">
<path fill-rule="evenodd" clip-rule="evenodd" d="M24.9167 0H5.75C4.2264 0.00455034 2.76651 0.611813 1.68916 1.68916C0.611813 2.76651 0.00455034 4.2264 0 5.75L0 32.5642C0.00455034 34.0878 0.611813 35.5477 1.68916 36.625C2.76651 37.7024 4.2264 38.3096 5.75 38.3142H24.9167C26.4403 38.3096 27.9002 37.7024 28.9775 36.625C30.0549 35.5477 30.6621 34.0878 30.6667 32.5642V5.75C30.6621 4.2264 30.0549 2.76651 28.9775 1.68916C27.9002 0.611813 26.4403 0.00455034 24.9167 0ZM26.8333 32.5642C26.8254 33.07 26.621 33.553 26.2632 33.9107C25.9055 34.2685 25.4225 34.4729 24.9167 34.4808H5.75C5.24413 34.4729 4.7612 34.2685 4.40346 33.9107C4.04571 33.553 3.84124 33.07 3.83333 32.5642V5.75C3.84124 5.24413 4.04571 4.7612 4.40346 4.40346C4.7612 4.04571 5.24413 3.84124 5.75 3.83333H24.9167C25.9689 3.85058 26.8161 4.69775 26.8333 5.75V32.5642Z" fill="#002c8a"/>
<path fill-rule="evenodd" clip-rule="evenodd" d="M38.3334 13.4167V40.25C38.3288 41.7736 37.7215 43.2335 36.6442 44.3108C35.5668 45.3882 34.1069 45.9954 32.5834 46H9.58335C9.07502 46 8.58751 45.7981 8.22807 45.4386C7.86862 45.0792 7.66669 44.5917 7.66669 44.0833C7.66669 43.575 7.86862 43.0875 8.22807 42.728C8.58751 42.3686 9.07502 42.1667 9.58335 42.1667H32.5834C33.0892 42.1588 33.5722 41.9543 33.9299 41.5965C34.2876 41.2388 34.4921 40.7559 34.5 40.25V13.4167C34.5 12.9083 34.702 12.4208 35.0614 12.0614C35.4208 11.7019 35.9084 11.5 36.4167 11.5C36.925 11.5 37.4125 11.7019 37.772 12.0614C38.1314 12.4208 38.3334 12.9083 38.3334 13.4167Z" fill="#002c8a"/>
<path d="M15.3334 30.6668C16.3919 30.6668 17.25 29.8087 17.25 28.7502C17.25 27.6916 16.3919 26.8335 15.3334 26.8335C14.2748 26.8335 13.4167 27.6916 13.4167 28.7502C13.4167 29.8087 14.2748 30.6668 15.3334 30.6668Z" fill="#002c8a"/>
<path fill-rule="evenodd" clip-rule="evenodd" d="M23 15.3332C23.0014 17.0325 22.437 18.684 21.3959 20.0271C20.3547 21.3701 18.8961 22.3284 17.25 22.7507V22.9998C17.25 23.5082 17.0481 23.9957 16.6886 24.3551C16.3292 24.7146 15.8417 24.9165 15.3334 24.9165C14.825 24.9165 14.3375 24.7146 13.9781 24.3551C13.6186 23.9957 13.4167 23.5082 13.4167 22.9998V21.0832C13.4167 20.5748 13.6186 20.0873 13.9781 19.7279C14.3375 19.3684 14.825 19.1665 15.3334 19.1665C16.0915 19.1665 16.8327 18.9417 17.463 18.5205C18.0934 18.0993 18.5848 17.5006 18.8749 16.8001C19.165 16.0997 19.2409 15.3289 19.093 14.5853C18.9451 13.8417 18.58 13.1587 18.0439 12.6226C17.5078 12.0865 16.8248 11.7214 16.0812 11.5735C15.3376 11.4256 14.5669 11.5015 13.8664 11.7916C13.1659 12.0818 12.5673 12.5731 12.1461 13.2035C11.7248 13.8339 11.5 14.575 11.5 15.3332C11.5 15.8415 11.2981 16.329 10.9386 16.6885C10.5792 17.0479 10.0917 17.2498 9.58335 17.2498C9.07502 17.2498 8.58751 17.0479 8.22807 16.6885C7.86862 16.329 7.66669 15.8415 7.66669 15.3332C7.66669 13.2998 8.47442 11.3498 9.9122 9.91202C11.35 8.47424 13.3 7.6665 15.3334 7.6665C17.3667 7.6665 19.3167 8.47424 20.7545 9.91202C22.1923 11.3498 23 13.2998 23 15.3332Z" fill="#002c8a"/>
</svg>
