<svg width="44" height="44" viewBox="0 0 44 44" fill="none" xmlns="http://www.w3.org/2000/svg">
<g clip-path="url(#clip0_1346_977)">
<path d="M42.5601 1.98682H1.43971C0.644555 1.98682 0 2.6317 0 3.42674V29.774C0 30.5693 0.644555 31.2139 1.43971 31.2139H23.4617V40.5733C23.4617 41.1556 23.8126 41.6808 24.3507 41.9037C24.5288 41.9776 24.7157 42.0134 24.9012 42.0134C25.2756 42.0134 25.6442 41.867 25.9195 41.5915L36.3694 31.2139H42.5602C43.3556 31.2139 44.0001 30.5693 44.0001 29.774V3.42663C44 2.63159 43.3556 1.98682 42.5601 1.98682ZM19.1204 21.8901C17.9518 23.3782 16.2035 24.1647 14.0647 24.1647C13.2152 24.1647 12.5267 23.4763 12.5267 22.6268C12.5267 21.7774 13.2152 21.0888 14.0647 21.0888C15.2749 21.0888 16.1125 20.7398 16.7008 19.9906C17.2711 19.264 17.5614 18.22 17.6823 17.1061H13.8455C13.2086 17.1061 12.692 16.5896 12.692 15.9525V10.9927C12.692 10.3555 13.2086 9.83904 13.8455 9.83904H18.8055C19.515 9.83904 20.1608 10.4606 20.2998 11.0303C20.3172 11.1017 20.7287 12.8052 20.8178 14.9276C20.945 17.9509 20.3738 20.2934 19.1204 21.8901ZM29.7585 21.8901C28.5902 23.3782 26.8419 24.1647 24.7028 24.1647C23.8534 24.1647 23.165 23.4763 23.165 22.6268C23.165 21.7774 23.8534 21.0888 24.7028 21.0888C25.9132 21.0888 26.751 20.7398 27.3391 19.9906C27.9095 19.264 28.1996 18.22 28.3205 17.1061H24.4838C23.8467 17.1061 23.3306 16.5896 23.3306 15.9525V10.9927C23.3306 10.3555 23.8467 9.83904 24.4838 9.83904H29.4439C30.1532 9.83904 30.799 10.4606 30.938 11.0303C30.9556 11.1017 31.3666 12.8052 31.4563 14.9276C31.5832 17.9509 31.0123 20.2934 29.7585 21.8901Z" fill="#002c8a"/>
</g>
<defs>
<clipPath id="clip0_1346_977">
<rect width="44" height="44" fill="white"/>
</clipPath>
</defs>
</svg>
