<svg width="87" height="87" viewBox="0 0 87 87" fill="none" xmlns="http://www.w3.org/2000/svg">
<g clip-path="url(#clip0_2142_2434)">
<path d="M26.8242 43.4997C26.8242 52.9247 34.3159 60.4163 43.7409 60.4163C53.1659 60.4163 60.6575 52.9247 60.6575 43.4997C60.6575 34.0747 53.1659 26.583 43.7409 26.583C34.3159 26.583 26.8242 34.0747 26.8242 43.4997ZM55.8242 43.4997C55.8242 50.2663 50.5076 55.583 43.7409 55.583C36.9742 55.583 31.6576 50.2663 31.6576 43.4997C31.6576 36.733 36.9742 31.4163 43.7409 31.4163C50.5076 31.4163 55.8242 36.733 55.8242 43.4997Z" fill="#002c8a"/>
<path d="M79.2654 35.5247L72.4987 33.3497L72.257 32.6247C70.3237 32.6247 68.3904 32.1413 66.457 31.658C67.182 33.108 67.907 34.7997 68.3904 36.2497L68.632 37.458L77.332 40.1163V46.883L68.632 49.5413L68.3904 50.7497C67.6654 52.4413 66.9404 54.133 66.2154 55.8247L65.4904 57.033L69.8404 65.008L65.007 69.8413L57.032 65.4913L55.8237 66.2163C54.132 67.183 52.4404 67.908 50.7487 68.3913L49.5404 68.633L46.882 77.333H40.1154L37.457 68.633L36.2487 68.3913C34.557 67.6663 32.8654 66.9413 31.1737 66.2163L29.9654 65.4913L21.9904 69.8413L17.157 65.008L21.507 57.033L20.782 55.8247C19.8154 54.133 19.0904 52.4413 18.607 50.7497L18.3654 49.5413L9.66536 46.883V40.1163L17.882 37.6997L18.3654 36.4913C18.8487 34.558 19.5737 32.8663 20.5404 31.1747L21.2654 29.9663L17.157 21.9913L21.9904 17.158L29.7237 21.508L30.932 20.783C32.6237 19.8163 34.3154 19.0913 36.2487 18.608L37.457 18.1247L40.1154 9.66634H46.882L49.5404 18.1247L50.7487 18.608C52.4404 19.0913 53.8904 19.8163 55.3404 20.5413C54.6154 18.608 54.3737 16.6747 54.3737 14.4997L53.407 14.0163L51.232 7.24967C50.7487 6.04134 49.2987 4.83301 47.607 4.83301H39.3904C37.6987 4.83301 36.2487 6.04134 36.007 7.73301L33.832 14.4997C32.382 14.7413 31.1737 15.2247 29.9654 15.9497L23.682 12.5663C22.232 11.8413 20.2987 12.083 19.0904 13.2913L13.2904 19.0913C12.082 20.2997 11.8404 22.233 12.5654 23.683L15.707 29.7247C15.2237 30.933 14.7404 32.383 14.257 33.5913L7.49036 35.7663C6.04036 36.2497 4.83203 37.6997 4.83203 39.3913V47.608C4.83203 49.2997 6.04036 50.7497 7.73203 51.233L14.4987 53.408L15.9487 57.033L12.5654 63.3163C11.8404 64.7663 12.082 66.6997 13.2904 67.908L19.0904 73.708C20.2987 74.9163 22.232 75.158 23.682 74.433L29.9654 71.0497L33.5904 72.4997L35.7654 79.508C36.2487 80.958 37.6987 82.1663 39.3904 82.1663H47.607C49.2987 82.1663 50.7487 80.958 51.232 79.508L53.407 72.4997L57.032 71.0497L63.3154 74.433C64.7654 75.158 66.6987 74.9163 67.907 73.708L73.707 67.908C74.9154 66.6997 75.157 64.7663 74.432 63.3163L71.0487 57.033L72.4987 53.408L79.507 51.233C80.957 50.7497 82.1654 49.2997 82.1654 47.608V39.3913C82.1654 37.6997 80.957 36.008 79.2654 35.5247Z" fill="#002c8a"/>
<path d="M72.5013 26.5837C79.1747 26.5837 84.5846 21.1738 84.5846 14.5003C84.5846 7.82688 79.1747 2.41699 72.5013 2.41699C65.8279 2.41699 60.418 7.82688 60.418 14.5003C60.418 21.1738 65.8279 26.5837 72.5013 26.5837Z" fill="#002c8a"/>
</g>
<defs>
<clipPath id="clip0_2142_2434">
<rect width="87" height="87" fill="white"/>
</clipPath>
</defs>
</svg>
