<svg width="34" height="34" viewBox="0 0 34 34" fill="none" xmlns="http://www.w3.org/2000/svg">
<g clip-path="url(#clip0_1346_960)">
<path d="M9.72719 24.2727C12.9997 27.5452 21.8503 33.9999 27.0937 33.9999C27.6089 34.0296 28.1247 33.955 28.6103 33.7806C29.0959 33.6063 29.5414 33.3358 29.92 32.9852C31.177 31.7371 32.3301 30.3886 33.3678 28.953C33.8406 28.2855 34.0482 27.4659 33.95 26.6538C33.8518 25.8417 33.4549 25.0952 32.8366 24.5596C30.8762 22.8809 26.1322 19.1621 24.4694 20.8409C23.29 22.0255 20.1503 25.1652 18.5087 23.529L10.4762 15.4699C8.84 13.8284 11.9797 10.6887 13.1644 9.50929C14.8272 7.84648 11.1084 3.10242 9.44562 1.1421C8.91003 0.523794 8.16352 0.12691 7.35142 0.0287102C6.53931 -0.0694891 5.71972 0.138024 5.05219 0.610853C3.60985 1.64628 2.25584 2.7995 1.00406 4.05867C-2.975 8.03773 5.74281 20.2884 9.72719 24.2727ZM25.245 21.6165C25.7762 21.0852 28.6025 22.3549 32.1512 25.4043C32.5447 25.7502 32.8036 26.2237 32.8823 26.7417C32.961 27.2596 32.8545 27.7887 32.5816 28.2359L24.7084 22.1159L25.245 21.6165ZM8.62219 1.82742C11.6716 5.39742 12.9625 8.20242 12.41 8.73367C12.1816 8.96742 11.8787 9.26492 11.5706 9.5996L5.72687 1.43429C6.17537 1.13848 6.71591 1.0153 7.24829 1.08759C7.78068 1.15987 8.2688 1.42272 8.62219 1.82742ZM1.75312 4.80773C2.86178 3.70058 4.05155 2.67773 5.3125 1.74773L11.2041 10.0193C9.65812 11.7565 7.88375 14.3755 9.72719 16.219L17.7809 24.2727C19.7519 26.2437 22.6047 24.0815 24.3206 22.4824L32.2894 28.6449C31.3563 29.9198 30.33 31.1238 29.2187 32.2468C26.2809 35.1793 15.3212 28.3368 10.5028 23.5237C5.68437 18.7105 -1.17938 7.74554 1.75312 4.80773Z" fill="#002c8a"/>
<path d="M17 2.23464e-05C15.1352 -0.0030078 13.2828 0.302145 11.5175 0.903147C11.3836 0.948234 11.2732 1.04465 11.2104 1.17117C11.1476 1.2977 11.1377 1.44398 11.1828 1.57783C11.2279 1.71169 11.3243 1.82214 11.4508 1.88491C11.5774 1.94768 11.7236 1.95761 11.8575 1.91252C14.6768 0.950649 17.7092 0.798157 20.6108 1.47235C23.5123 2.14653 26.1669 3.62042 28.2732 5.72678C30.3796 7.83315 31.8535 10.4877 32.5277 13.3892C33.2019 16.2908 33.0494 19.3232 32.0875 22.1425C32.0605 22.2093 32.0473 22.2809 32.0488 22.353C32.0504 22.425 32.0665 22.496 32.0963 22.5616C32.1262 22.6272 32.169 22.686 32.2223 22.7345C32.2756 22.783 32.3381 22.8202 32.4062 22.8438C32.4626 22.8514 32.5198 22.8514 32.5762 22.8438C32.6876 22.8441 32.7963 22.8093 32.8868 22.7445C32.9774 22.6797 33.0453 22.588 33.0809 22.4825C33.9524 19.9246 34.2016 17.1958 33.8077 14.5224C33.4139 11.849 32.3884 9.30793 30.8163 7.11001C29.2442 4.91209 27.1708 3.1206 24.768 1.88411C22.3652 0.64761 19.7023 0.00172991 17 2.23464e-05Z" fill="#002c8a"/>
<path d="M17 5.3125C16.8591 5.3125 16.724 5.36847 16.6243 5.4681C16.5247 5.56773 16.4688 5.70285 16.4688 5.84375V17C16.4689 17.0941 16.4941 17.1865 16.5417 17.2677C16.5893 17.349 16.6576 17.4161 16.7397 17.4622L21.5209 20.1184C21.6003 20.1634 21.69 20.1872 21.7812 20.1875C21.8984 20.1871 22.0122 20.1481 22.1048 20.0763C22.1975 20.0046 22.2638 19.9043 22.2935 19.7909C22.3232 19.6776 22.3146 19.5576 22.2691 19.4496C22.2235 19.3417 22.1435 19.2518 22.0416 19.1941L17.5312 16.6866V5.84375C17.5312 5.70285 17.4753 5.56773 17.3757 5.4681C17.276 5.36847 17.1409 5.3125 17 5.3125Z" fill="#002c8a"/>
<path d="M17 2.39062C16.8424 2.39062 16.6883 2.43736 16.5573 2.52492C16.4262 2.61248 16.3241 2.73694 16.2638 2.88255C16.2035 3.02816 16.1877 3.18838 16.2184 3.34296C16.2492 3.49754 16.3251 3.63953 16.4365 3.75098C16.548 3.86242 16.69 3.93832 16.8445 3.96906C16.9991 3.99981 17.1593 3.98403 17.305 3.92372C17.4506 3.8634 17.575 3.76127 17.6626 3.63022C17.7501 3.49917 17.7969 3.34511 17.7969 3.1875C17.7969 2.97616 17.7129 2.77347 17.5635 2.62402C17.414 2.47458 17.2113 2.39062 17 2.39062ZM17 3.45312C16.9475 3.45312 16.8961 3.43755 16.8524 3.40836C16.8087 3.37917 16.7747 3.33769 16.7546 3.28915C16.7345 3.24061 16.7292 3.18721 16.7395 3.13568C16.7497 3.08415 16.775 3.03682 16.8122 2.99967C16.8493 2.96253 16.8967 2.93723 16.9482 2.92698C16.9997 2.91673 17.0531 2.92199 17.1017 2.94209C17.1502 2.9622 17.1917 2.99624 17.2209 3.03993C17.25 3.08361 17.2656 3.13496 17.2656 3.1875C17.2656 3.25795 17.2376 3.32551 17.1878 3.37533C17.138 3.42514 17.0704 3.45312 17 3.45312Z" fill="#002c8a"/>
<path d="M23.5078 5.72674C23.6275 5.80118 23.7653 5.84159 23.9062 5.84361C24.0462 5.8437 24.1837 5.80692 24.305 5.73698C24.4262 5.66703 24.5269 5.56639 24.5969 5.44517C24.6621 5.33162 24.6983 5.20376 24.7023 5.07288C24.7064 4.942 24.6781 4.81215 24.62 4.6948C24.5619 4.57745 24.4758 4.47623 24.3693 4.40008C24.2627 4.32393 24.1391 4.2752 24.0093 4.25821C23.8794 4.24121 23.7474 4.25647 23.6249 4.30263C23.5023 4.3488 23.3931 4.42444 23.3067 4.52288C23.2204 4.62132 23.1596 4.73952 23.1298 4.86703C23.1001 4.99453 23.1021 5.12742 23.1359 5.25392C23.1633 5.35353 23.2103 5.44666 23.2742 5.52785C23.338 5.60904 23.4175 5.67666 23.5078 5.72674ZM23.6778 4.9033C23.7023 4.86513 23.7361 4.83386 23.7761 4.81247C23.8161 4.79108 23.8609 4.78028 23.9062 4.78111C23.9532 4.78019 23.9994 4.79312 24.039 4.8183C24.0694 4.83535 24.0961 4.85834 24.1174 4.88589C24.1388 4.91344 24.1544 4.945 24.1633 4.97869C24.1722 5.01238 24.1743 5.04752 24.1694 5.08202C24.1644 5.11652 24.1526 5.14969 24.1347 5.17955C24.0991 5.23972 24.0417 5.28383 23.9743 5.30264C23.907 5.32145 23.835 5.31351 23.7734 5.28049C23.7428 5.26299 23.7161 5.23931 23.695 5.21097C23.674 5.18262 23.6591 5.15021 23.6512 5.1158C23.6392 5.08069 23.6354 5.0433 23.64 5.00648C23.6446 4.96966 23.6575 4.93438 23.6778 4.9033Z" fill="#002c8a"/>
<path d="M28.7566 10.864C28.8244 10.8807 28.8939 10.8896 28.9638 10.8906C29.1035 10.89 29.2407 10.8534 29.3622 10.7843C29.4529 10.732 29.5324 10.6623 29.5962 10.5793C29.6599 10.4962 29.7067 10.4014 29.7338 10.3003C29.761 10.1992 29.7679 10.0937 29.7543 9.98989C29.7407 9.88607 29.7067 9.78596 29.6544 9.69527C29.6021 9.60457 29.5324 9.52507 29.4493 9.46131C29.3663 9.39754 29.2715 9.35075 29.1704 9.32362C29.0692 9.29649 28.9638 9.28954 28.8599 9.30317C28.7561 9.31681 28.656 9.35076 28.5653 9.40308C28.4741 9.45485 28.394 9.52424 28.3298 9.60723C28.2656 9.69021 28.2185 9.78513 28.1913 9.88647C28.1642 9.98781 28.1574 10.0935 28.1714 10.1975C28.1855 10.3015 28.22 10.4016 28.2731 10.4921C28.3244 10.5836 28.3937 10.6637 28.4768 10.7276C28.5599 10.7915 28.655 10.8379 28.7566 10.864ZM28.8309 9.86527C28.8703 9.83948 28.9167 9.8265 28.9638 9.82808C29.0217 9.82867 29.0779 9.84821 29.1237 9.88372C29.1696 9.91923 29.2025 9.96875 29.2176 10.0247C29.2326 10.0807 29.2289 10.1401 29.2071 10.1938C29.1852 10.2475 29.1464 10.2926 29.0966 10.3221C29.0668 10.3408 29.0334 10.3529 28.9985 10.3574C28.9637 10.362 28.9283 10.3591 28.8947 10.3487C28.8603 10.3408 28.8279 10.3259 28.7995 10.3049C28.7712 10.2839 28.7475 10.2572 28.73 10.2265C28.6956 10.1652 28.6869 10.0927 28.7058 10.025C28.7247 9.95732 28.7697 9.89986 28.8309 9.86527Z" fill="#002c8a"/>
<path d="M31.6094 17C31.6094 16.8424 31.5626 16.6883 31.4751 16.5573C31.3875 16.4262 31.2631 16.3241 31.1174 16.2638C30.9718 16.2035 30.8116 16.1877 30.657 16.2184C30.5025 16.2492 30.3605 16.3251 30.249 16.4365C30.1376 16.548 30.0617 16.69 30.0309 16.8445C30.0002 16.9991 30.016 17.1593 30.0763 17.305C30.1366 17.4506 30.2387 17.575 30.3698 17.6626C30.5008 17.7501 30.6549 17.7969 30.8125 17.7969C31.0238 17.7969 31.2265 17.7129 31.376 17.5635C31.5254 17.414 31.6094 17.2113 31.6094 17ZM30.5469 17C30.5469 16.9475 30.5625 16.8961 30.5916 16.8524C30.6208 16.8087 30.6623 16.7747 30.7108 16.7546C30.7594 16.7345 30.8128 16.7292 30.8643 16.7395C30.9158 16.7497 30.9632 16.775 31.0003 16.8122C31.0375 16.8493 31.0628 16.8967 31.073 16.9482C31.0833 16.9997 31.078 17.0531 31.0579 17.1017C31.0378 17.1502 31.0038 17.1917 30.9601 17.2209C30.9164 17.25 30.865 17.2656 30.8125 17.2656C30.7421 17.2656 30.6745 17.2376 30.6247 17.1878C30.5749 17.138 30.5469 17.0704 30.5469 17Z" fill="#002c8a"/>
</g>
<defs>
<clipPath id="clip0_1346_960">
<rect width="34" height="34" fill="white"/>
</clipPath>
</defs>
</svg>
