<svg width="60" height="60" viewBox="0 0 60 60" fill="none" xmlns="http://www.w3.org/2000/svg">
<path d="M40 47.5C35.3587 47.5 30.9075 45.6563 27.6256 42.3744C24.3437 39.0925 22.5 34.6413 22.5 30C22.5 25.3587 24.3437 20.9075 27.6256 17.6256C30.9075 14.3437 35.3587 12.5 40 12.5C40.8372 12.5034 41.6729 12.5703 42.5 12.7V10C42.5 8.67392 41.9732 7.40215 41.0355 6.46447C40.0979 5.52678 38.8261 5 37.5 5H10C8.67392 5 7.40215 5.52678 6.46447 6.46447C5.52678 7.40215 5 8.67392 5 10V50C5 51.3261 5.52678 52.5979 6.46447 53.5355C7.40215 54.4732 8.67392 55 10 55H37.5C38.8261 55 40.0979 54.4732 41.0355 53.5355C41.9732 52.5979 42.5 51.3261 42.5 50V47.3C41.6729 47.4297 40.8372 47.4966 40 47.5Z" fill="#002c8a"/>
<path d="M25 30C25 32.9667 25.8797 35.8668 27.528 38.3336C29.1762 40.8003 31.5189 42.7229 34.2597 43.8582C37.0006 44.9935 40.0166 45.2906 42.9264 44.7118C45.8361 44.133 48.5088 42.7044 50.6066 40.6066C52.7044 38.5088 54.133 35.8361 54.7118 32.9264C55.2906 30.0166 54.9935 27.0006 53.8582 24.2597C52.7229 21.5189 50.8003 19.1762 48.3336 17.528C45.8668 15.8797 42.9667 15 40 15C36.0218 15 32.2064 16.5804 29.3934 19.3934C26.5804 22.2064 25 26.0218 25 30ZM37.5 20.35V27.5H30.35C30.7989 25.7804 31.698 24.2114 32.9547 22.9547C34.2114 21.698 35.7804 20.7989 37.5 20.35ZM30.35 32.5H40C40.663 32.5 41.2989 32.2366 41.7678 31.7678C42.2366 31.2989 42.5 30.663 42.5 30V20.35C44.2128 20.784 45.78 21.6641 47.0421 22.9007C48.3042 24.1373 49.2161 25.6861 49.685 27.3897C50.1539 29.0933 50.1631 30.8906 49.7116 32.5989C49.2601 34.3072 48.3641 35.8653 47.1147 37.1147C45.8653 38.3641 44.3072 39.2601 42.5989 39.7116C40.8906 40.1631 39.0933 40.1539 37.3897 39.685C35.6861 39.2161 34.1373 38.3042 32.9007 37.0421C31.6641 35.78 30.784 34.2128 30.35 32.5Z" fill="#002c8a"/>
</svg>
