<svg width="60" height="60" viewBox="0 0 60 60" fill="none" xmlns="http://www.w3.org/2000/svg">
<path d="M30.0592 23.0541C33.6184 23.0541 36.4885 20.1837 36.4885 16.6247C36.4885 13.0657 33.6411 10.1953 30.0592 10.1953C26.5 10.1953 23.6298 13.0657 23.6298 16.6247C23.6525 20.2069 26.5229 23.0541 30.0592 23.0541ZM15.1337 41.6766H3.58371C-0.159028 41.6766 -0.365747 35.959 3.65261 35.959H13.6639L19.4045 27.5088C21.1037 25.1897 23.0326 24.0874 25.765 24.0874H34.33C37.0625 24.0874 38.9912 25.0978 40.6904 27.5088L46.4539 35.959H56.5344C60.5757 35.959 60.3231 41.6766 56.6722 41.6766H45.1222C44.2037 41.6766 43.1014 41.355 42.4585 40.3678L38.0497 34.0762L38.0268 49.8284H22.2289L22.206 34.0762L17.7971 40.3678C17.1543 41.332 16.0522 41.6766 15.1337 41.6766Z" fill="#10108A"/>
<path d="M12.3633 25.4589V32.3317H0.46875V20.4372H10.2042L8.50031 22.1364H2.16797V30.6325H10.6641V27.1532L12.3633 25.4589ZM14.0625 21.3752L12.8627 20.1719L6.42352 26.5907L4.43484 24.602L3.23344 25.8034L6.42187 28.9921L14.0625 21.3752Z" fill="#10108A"/>
<path d="M59.5312 21.7455L58.4695 26.2158C58.2757 27.0314 57.555 27.6012 56.7166 27.6012H50.272L50.5256 28.658C50.6229 29.0634 50.9822 29.3468 51.3991 29.3468H57.7859V30.2477H51.3991C50.5638 30.2477 49.8445 29.6805 49.6495 28.8684L47.673 20.6327C47.5758 20.2273 47.2165 19.9439 46.7995 19.9439H45.1172V19.043H46.7995C47.6346 19.043 48.3541 19.6102 48.5491 20.4225L48.8667 21.7458H59.5312V21.7455ZM50.4464 32.1621C50.4464 32.8774 51.0263 33.457 51.7413 33.457C52.4564 33.457 53.0362 32.8772 53.0362 32.1621C53.0362 31.447 52.4564 30.8672 51.7413 30.8672C51.0263 30.8672 50.4464 31.4468 50.4464 32.1621ZM55.1761 32.1621C55.1761 32.8774 55.7559 33.457 56.471 33.457C57.1861 33.457 57.7659 32.8772 57.7659 32.1621C57.7659 31.447 57.1861 30.8672 56.471 30.8672C55.7559 30.8672 55.1761 31.4468 55.1761 32.1621Z" fill="#10108A"/>
</svg>
