<svg width="44" height="44" viewBox="0 0 44 44" fill="none" xmlns="http://www.w3.org/2000/svg">
<path d="M39.4167 14.5565C39.408 12.3294 38.5492 10.1897 37.0159 8.5746C35.4825 6.95946 33.3903 5.99078 31.1667 5.8665V5.49984C31.1667 5.01361 30.9735 4.54729 30.6297 4.20347C30.2859 3.85966 29.8196 3.6665 29.3333 3.6665C28.8471 3.6665 28.3808 3.85966 28.037 4.20347C27.6932 4.54729 27.5 5.01361 27.5 5.49984V5.8115H16.5V5.49984C16.5 5.01361 16.3069 4.54729 15.963 4.20347C15.6192 3.85966 15.1529 3.6665 14.6667 3.6665C14.1804 3.6665 13.7141 3.85966 13.3703 4.20347C13.0265 4.54729 12.8333 5.01361 12.8333 5.49984V5.8665C10.6097 5.99078 8.5175 6.95946 6.98414 8.5746C5.45078 10.1897 4.59202 12.3294 4.58334 14.5565V18.0215C4.58675 18.0781 4.59913 18.1338 4.62001 18.1865C4.59708 18.2321 4.58456 18.2822 4.58334 18.3332V31.1665C4.58674 33.3535 5.45702 35.4499 7.00346 36.9964C8.5499 38.5428 10.6463 39.4131 12.8333 39.4165H31.1667C33.3537 39.4131 35.4501 38.5428 36.9966 36.9964C38.543 35.4499 39.4133 33.3535 39.4167 31.1665V18.3332C39.4155 18.2822 39.4029 18.2321 39.38 18.1865C39.4009 18.1338 39.4133 18.0781 39.4167 18.0215V14.5565ZM14.6667 32.9998C14.3041 32.9998 13.9496 32.8923 13.6481 32.6909C13.3466 32.4894 13.1117 32.2031 12.9729 31.8681C12.8341 31.5331 12.7978 31.1645 12.8686 30.8088C12.9393 30.4532 13.1139 30.1265 13.3703 29.8701C13.6267 29.6137 13.9534 29.4391 14.309 29.3684C14.6646 29.2977 15.0333 29.334 15.3683 29.4727C15.7033 29.6115 15.9896 29.8465 16.191 30.148C16.3925 30.4494 16.5 30.8039 16.5 31.1665C16.5 31.6527 16.3069 32.1191 15.963 32.4629C15.6192 32.8067 15.1529 32.9998 14.6667 32.9998ZM14.6667 25.6665C14.3041 25.6665 13.9496 25.559 13.6481 25.3575C13.3466 25.1561 13.1117 24.8698 12.9729 24.5348C12.8341 24.1998 12.7978 23.8311 12.8686 23.4755C12.9393 23.1199 13.1139 22.7932 13.3703 22.5368C13.6267 22.2804 13.9534 22.1058 14.309 22.0351C14.6646 21.9643 15.0333 22.0006 15.3683 22.1394C15.7033 22.2782 15.9896 22.5131 16.191 22.8146C16.3925 23.1161 16.5 23.4706 16.5 23.8332C16.5 24.3194 16.3069 24.7857 15.963 25.1295C15.6192 25.4733 15.1529 25.6665 14.6667 25.6665ZM22 32.9998C21.6374 32.9998 21.283 32.8923 20.9815 32.6909C20.68 32.4894 20.445 32.2031 20.3062 31.8681C20.1675 31.5331 20.1312 31.1645 20.2019 30.8088C20.2726 30.4532 20.4473 30.1265 20.7036 29.8701C20.96 29.6137 21.2867 29.4391 21.6423 29.3684C21.998 29.2977 22.3666 29.334 22.7016 29.4727C23.0366 29.6115 23.3229 29.8465 23.5244 30.148C23.7258 30.4494 23.8333 30.8039 23.8333 31.1665C23.8333 31.6527 23.6402 32.1191 23.2964 32.4629C22.9526 32.8067 22.4862 32.9998 22 32.9998ZM22 25.6665C21.6374 25.6665 21.283 25.559 20.9815 25.3575C20.68 25.1561 20.445 24.8698 20.3062 24.5348C20.1675 24.1998 20.1312 23.8311 20.2019 23.4755C20.2726 23.1199 20.4473 22.7932 20.7036 22.5368C20.96 22.2804 21.2867 22.1058 21.6423 22.0351C21.998 21.9643 22.3666 22.0006 22.7016 22.1394C23.0366 22.2782 23.3229 22.5131 23.5244 22.8146C23.7258 23.1161 23.8333 23.4706 23.8333 23.8332C23.8333 24.3194 23.6402 24.7857 23.2964 25.1295C22.9526 25.4733 22.4862 25.6665 22 25.6665ZM29.3333 32.9998C28.9707 32.9998 28.6163 32.8923 28.3148 32.6909C28.0133 32.4894 27.7783 32.2031 27.6396 31.8681C27.5008 31.5331 27.4645 31.1645 27.5352 30.8088C27.606 30.4532 27.7806 30.1265 28.037 29.8701C28.2934 29.6137 28.62 29.4391 28.9757 29.3684C29.3313 29.2977 29.6999 29.334 30.0349 29.4727C30.3699 29.6115 30.6563 29.8465 30.8577 30.148C31.0592 30.4494 31.1667 30.8039 31.1667 31.1665C31.1667 31.6527 30.9735 32.1191 30.6297 32.4629C30.2859 32.8067 29.8196 32.9998 29.3333 32.9998ZM29.3333 25.6665C28.9707 25.6665 28.6163 25.559 28.3148 25.3575C28.0133 25.1561 27.7783 24.8698 27.6396 24.5348C27.5008 24.1998 27.4645 23.8311 27.5352 23.4755C27.606 23.1199 27.7806 22.7932 28.037 22.5368C28.2934 22.2804 28.62 22.1058 28.9757 22.0351C29.3313 21.9643 29.6999 22.0006 30.0349 22.1394C30.3699 22.2782 30.6563 22.5131 30.8577 22.8146C31.0592 23.1161 31.1667 23.4706 31.1667 23.8332C31.1667 24.3194 30.9735 24.7857 30.6297 25.1295C30.2859 25.4733 29.8196 25.6665 29.3333 25.6665ZM35.75 17.4165H8.25001V14.5565C8.25311 13.2855 8.73343 12.0619 9.59585 11.1282C10.4583 10.1945 11.6399 9.61869 12.9067 9.51484C12.9813 9.92852 13.198 10.3032 13.5193 10.5743C13.8405 10.8453 14.2463 10.9959 14.6667 10.9998C15.094 10.9932 15.5056 10.8375 15.8303 10.5597C16.155 10.2819 16.3724 9.89931 16.445 9.47817H27.555C27.6276 9.89931 27.8451 10.2819 28.1698 10.5597C28.4945 10.8375 28.906 10.9932 29.3333 10.9998C29.7537 10.9959 30.1595 10.8453 30.4808 10.5743C30.802 10.3032 31.0187 9.92852 31.0933 9.51484C32.3591 9.62155 33.539 10.1982 34.4008 11.1313C35.2626 12.0644 35.744 13.2863 35.75 14.5565V17.4165Z" fill="#002c8a"/>
</svg>
