<svg width="43" height="43" viewBox="0 0 43 43" fill="none" xmlns="http://www.w3.org/2000/svg">
<path d="M21.5 26.875C24.4685 26.875 26.875 24.4685 26.875 21.5C26.875 18.5315 24.4685 16.125 21.5 16.125C18.5315 16.125 16.125 18.5315 16.125 21.5C16.125 24.4685 18.5315 26.875 21.5 26.875Z" stroke="#002c8a" stroke-width="3.75"/>
<path opacity="0.5" d="M24.663 3.85626C24.0044 3.5835 23.1696 3.5835 21.5 3.5835C19.8303 3.5835 18.9956 3.5835 18.337 3.85626C17.459 4.21995 16.7614 4.91754 16.3977 5.79554C16.2317 6.19636 16.1667 6.66248 16.1413 7.34239C16.104 8.34159 15.5915 9.26647 14.7256 9.76641C13.8597 10.2663 12.8025 10.2477 11.9185 9.78044C11.317 9.46249 10.8808 9.28569 10.4507 9.22907C9.50843 9.10502 8.55552 9.36035 7.80155 9.9389C7.23606 10.3728 6.81866 11.0958 5.98385 12.5417C5.14904 13.9877 4.73163 14.7106 4.63859 15.4173C4.51456 16.3595 4.76989 17.3124 5.34843 18.0664C5.61249 18.4106 5.98361 18.6998 6.55962 19.0617C7.40638 19.5938 7.9512 20.5002 7.95115 21.5002C7.9511 22.5001 7.40629 23.4063 6.5596 23.9383C5.98352 24.3004 5.61235 24.5897 5.34825 24.9339C4.76971 25.6878 4.51438 26.6406 4.63843 27.5829C4.73145 28.2895 5.14886 29.0126 5.98367 30.4585C6.8185 31.9044 7.2359 32.6275 7.80137 33.0612C8.55534 33.6398 9.50825 33.8951 10.4505 33.7711C10.8806 33.7145 11.3167 33.5377 11.9182 33.2198C12.8023 32.7525 13.8595 32.7339 14.7255 33.2338C15.5915 33.7338 16.104 34.6587 16.1413 35.6581C16.1667 36.3378 16.2317 36.804 16.3977 37.2048C16.7614 38.0828 17.459 38.7804 18.337 39.1441C18.9956 39.4168 19.8303 39.4168 21.5 39.4168C23.1696 39.4168 24.0044 39.4168 24.663 39.1441C25.5409 38.7804 26.2386 38.0828 26.6021 37.2048C26.7682 36.804 26.8332 36.3379 26.8587 35.6579C26.8959 34.6587 27.4084 33.7338 28.2743 33.2338C29.1402 32.7337 30.1975 32.7525 31.0816 33.2198C31.6831 33.5377 32.1192 33.7143 32.5492 33.7709C33.4914 33.8951 34.4444 33.6398 35.1984 33.0612C35.7638 32.6273 36.1813 31.9044 37.016 30.4583C37.8509 29.0124 38.2684 28.2895 38.3614 27.5829C38.4853 26.6406 38.23 25.6876 37.6515 24.9337C37.3874 24.5895 37.0162 24.3002 36.4402 23.9383C35.5936 23.4063 35.0487 22.4999 35.0487 21.5C35.0487 20.5001 35.5936 19.594 36.4402 19.0621C37.0164 18.7 37.3876 18.4108 37.6517 18.0664C38.2302 17.3126 38.4855 16.3596 38.3615 15.4174C38.2686 14.7107 37.8511 13.9878 37.0162 12.5418C36.1814 11.0959 35.764 10.3729 35.1985 9.93902C34.4446 9.36047 33.4916 9.10514 32.5494 9.2292C32.1194 9.28582 31.6833 9.4626 31.0816 9.78051C30.1976 10.2478 29.1404 10.2664 28.2745 9.76647C27.4084 9.2665 26.8959 8.34155 26.8587 7.34231C26.8332 6.66244 26.7682 6.19634 26.6021 5.79554C26.2386 4.91754 25.5409 4.21995 24.663 3.85626Z" stroke="#002c8a" stroke-width="3.75"/>
</svg>
