<svg width="27" height="27" viewBox="0 0 27 27" fill="none" xmlns="http://www.w3.org/2000/svg">
<g clip-path="url(#clip0_1346_1010)">
<path d="M20.2494 5.84185C20.2494 6.23658 20.6445 6.63131 21.1967 6.63131C21.9859 6.63131 22.2227 6.31552 22.2227 5.84185C22.2227 5.7629 22.2227 5.7629 22.2227 5.68431C22.1441 5.44747 21.9069 5.28957 21.6708 5.13168C21.5915 5.13168 21.4339 5.05273 21.2764 5.05273C20.7231 5.05309 20.2494 5.36852 20.2494 5.84185Z" fill="#002c8a"/>
<path d="M21.9076 3.23657C21.828 2.7629 21.5125 2.36816 21.1181 2.36816C20.7231 2.36816 20.4862 2.7629 20.5659 3.23657C20.6455 3.71025 20.9603 4.10498 21.355 4.10498C21.6708 4.10498 21.9862 3.71025 21.9076 3.23657Z" fill="#002c8a"/>
<path d="M18.355 9.15742L19.6971 7.81533C20.4862 8.44691 21.4346 8.84164 22.4606 8.84164C24.9076 8.84164 26.8816 6.86763 26.8816 4.42064C26.8809 1.97331 24.9076 0 22.4602 0C20.0136 0 18.0392 1.97366 18.0392 4.42099C18.0392 5.52624 18.4336 6.47325 19.0655 7.18412L17.7231 8.52656C17.9599 8.76304 18.1968 9.00024 18.355 9.15742ZM23.1708 2.99961H24.0388V2.13155H24.3546V2.99996H25.2234V3.31575H24.3546V4.18451H24.0388V3.31539H23.1708V2.99961ZM21.1971 4.49959C21.1971 4.42064 21.1971 4.3417 21.2767 4.26275C21.1971 4.26275 21.1971 4.26275 21.1192 4.26275C20.4873 4.26275 20.0136 3.78907 20.0136 3.23645C20.0136 2.68382 20.6448 2.21015 21.2767 2.21015H22.6971L22.3813 2.44698H21.9076C22.2234 2.52628 22.3813 2.92101 22.3813 3.31539C22.3813 3.63118 22.2234 3.86802 21.9862 4.10486C21.7494 4.26275 21.6704 4.3417 21.6704 4.49959C21.6704 4.65748 21.9076 4.89432 22.0651 4.97327C22.4595 5.21011 22.5388 5.52589 22.5388 5.92062C22.5388 6.47289 22.0651 6.94693 21.1181 6.94693C20.329 6.94693 19.6182 6.63114 19.6182 6.07852C19.6182 5.52589 20.2494 5.05221 21.0388 5.05221C21.1181 5.05221 21.1964 5.05221 21.2757 5.05221C21.2757 4.81573 21.1971 4.65783 21.1971 4.49959Z" fill="#002c8a"/>
<path d="M22.4602 18.1574C21.4343 18.1574 20.408 18.5518 19.6968 19.1837L18.355 17.8413C18.1968 18.0781 17.9599 18.2353 17.8024 18.3932L19.1448 19.7357C18.5133 20.5244 18.1185 21.4728 18.1185 22.4991C18.1185 24.9461 20.0929 26.9201 22.5399 26.9201C24.9865 26.9201 26.9612 24.9461 26.9612 22.4991C26.8809 20.0518 24.9076 18.1574 22.4602 18.1574ZM21.1971 24.5521H20.3287V21.7886H21.1971V24.5521ZM20.8024 21.3946C20.4866 21.3946 20.2501 21.1574 20.2501 20.9202C20.2501 20.6834 20.4869 20.4465 20.8024 20.4465C21.1178 20.4465 21.3546 20.6834 21.3546 20.9202C21.2757 21.2364 21.1181 21.3946 20.8024 21.3946ZM24.7497 24.5521H23.7234V23.1314C23.7234 22.737 23.5658 22.4998 23.2493 22.4998C23.0125 22.4998 22.855 22.6577 22.7757 22.8156C22.7757 22.8956 22.7757 22.9739 22.7757 23.0528V24.5532H21.8283C21.8283 24.5532 21.8283 22.0269 21.8283 21.7897H22.7757V22.1844C22.855 22.0269 23.1707 21.7107 23.6444 21.7107C24.2756 21.7107 24.7497 22.1051 24.7497 22.9739V24.5521Z" fill="#002c8a"/>
<path d="M8.56568 17.8423L7.22359 19.1847C6.43413 18.5528 5.48677 18.1584 4.46047 18.1584C2.01313 18.1584 0.0394745 20.1328 0.0394745 22.5791C0.0394745 25.0264 2.01313 27.0004 4.46047 27.0004C6.90745 27.0004 8.88146 25.0264 8.88146 22.5791C8.88146 21.5528 8.48673 20.5268 7.85516 19.8159L9.19725 18.4735C8.96041 18.2363 8.72357 17.9991 8.56568 17.8423ZM6.35553 21.8682C6.35553 23.2103 5.32923 24.7099 3.51347 24.7099C2.96119 24.7099 2.40822 24.552 2.01349 24.2355C2.09243 24.2355 2.17138 24.2355 2.25032 24.2355C2.724 24.2355 3.11873 24.078 3.51347 23.8412C3.11873 23.8412 2.724 23.5254 2.56611 23.1303C2.64506 23.1303 2.72365 23.1303 2.72365 23.1303C2.80295 23.1303 2.88154 23.1303 2.96084 23.1303C2.48681 23.0506 2.17138 22.6566 2.17138 22.1829C2.32927 22.2622 2.48716 22.3405 2.64506 22.3405C2.40822 22.1829 2.17138 21.8668 2.17138 21.551C2.17138 21.3938 2.25032 21.2352 2.32927 21.0773C2.80295 21.7092 3.51311 22.1036 4.38152 22.1036C4.38152 22.024 4.38152 21.9461 4.38152 21.8668C4.38152 21.3142 4.85555 20.8405 5.40782 20.8405C5.72361 20.8405 5.96045 20.998 6.11869 21.1563C6.35553 21.077 6.59237 20.9984 6.75027 20.9194C6.67097 21.1563 6.51307 21.3138 6.27624 21.4714C6.51307 21.4714 6.67097 21.3921 6.82886 21.3138C6.67097 21.5506 6.51307 21.7082 6.35518 21.7875C6.35553 21.7889 6.35553 21.7889 6.35553 21.8682Z" fill="#002c8a"/>
<path d="M4.46047 8.84179C5.48677 8.84179 6.51272 8.44706 7.22359 7.81549L8.56568 9.15758C8.72357 8.92074 8.96041 8.7632 9.1183 8.60531L7.77586 7.26322C8.40743 6.47376 8.80217 5.5264 8.80217 4.5001C8.80217 2.05276 6.82851 0.0791016 4.38117 0.0791016C1.93419 0.0791016 0.0394745 2.05276 0.0394745 4.5001C0.0394745 6.86778 2.01313 8.84179 4.46047 8.84179ZM3.43417 3.70993H3.90785V3.23625C3.90785 2.60468 4.14468 2.20995 4.93415 2.20995H5.56572V2.99941H5.17099C4.8552 2.99941 4.8552 3.07836 4.8552 3.3152V3.70993H5.56572L5.48677 4.49939H4.77555V6.70989H3.82819V4.49939H3.35487V3.70993H3.43417Z" fill="#002c8a"/>
<path d="M17.487 15.7101C17.4073 15.5529 17.2498 15.4729 17.1712 15.4729C16.4607 15.2361 15.8294 15.0789 15.1189 14.8417C15.04 14.8417 14.8821 14.6842 14.8821 14.368C14.8821 14.2098 14.8821 14.1308 14.7246 14.1308C14.6449 14.1308 14.7246 14.1308 14.6449 14.0519C14.5663 13.7361 14.5663 13.5779 14.5663 13.4993C14.5663 13.4207 14.6449 13.42 14.6449 13.3414C14.8821 13.0256 14.9607 12.5523 14.9607 12.394C14.9607 12.394 15.04 12.394 15.04 12.3147C15.1189 12.1568 15.1189 12.1568 15.1189 11.9196C15.1986 11.7625 15.1986 11.5256 15.04 11.5256C14.9607 11.6046 14.9607 11.5256 14.9607 11.3677V10.4204C14.9607 10.1046 14.7235 9.8681 14.5663 9.78915C14.3288 9.6309 14.2505 9.55196 14.1712 9.55196C14.0919 9.47301 14.0919 9.39407 14.1712 9.31512C14.2502 9.23653 14.3288 9.23653 14.3288 9.15723C14.3288 9.15723 14.3288 9.15723 14.2495 9.15723C14.1702 9.15723 13.6972 9.23688 13.4604 9.31512C13.0656 9.39407 12.6709 9.55196 12.3548 9.78915C12.1179 9.94669 11.96 10.1835 11.96 10.5C11.96 10.6572 11.96 11.1312 11.96 11.4474C11.96 11.527 11.96 11.6053 11.8811 11.527C11.6442 11.527 11.8021 11.8428 11.8021 11.9211C11.8021 12.0789 11.8811 12.1582 11.9597 12.3161C11.9597 12.3954 12.039 12.3954 12.039 12.3954C12.1179 12.6323 12.1969 13.106 12.3548 13.3428C12.3548 13.3428 12.434 13.4221 12.434 13.5007C12.434 13.6586 12.434 13.8954 12.3548 14.0533C12.3548 14.0533 12.3548 14.1326 12.2758 14.1326C12.1179 14.1326 12.1179 14.2116 12.1179 14.3694C12.1179 14.6063 11.96 14.8435 11.8811 14.8435C11.4863 15.0007 10.3025 15.3957 9.90741 15.4747C9.67057 15.5543 9.59163 15.6326 9.51268 15.7115L9.11795 16.6589C10.6965 16.6589 11.4863 17.6062 13.1442 17.922H13.9337C15.5916 17.6852 16.7754 16.6589 17.881 16.6589L17.487 15.7101Z" fill="#002c8a"/>
</g>
<defs>
<clipPath id="clip0_1346_1010">
<rect width="27" height="27" fill="white"/>
</clipPath>
</defs>
</svg>
