<svg width="48" height="47" viewBox="0 0 48 47" fill="none" xmlns="http://www.w3.org/2000/svg">
<path d="M6 7.05C6 6.40107 6.53726 5.875 7.2 5.875H40.8C41.4628 5.875 42 6.40107 42 7.05V34.075C42 34.724 41.4628 35.25 40.8 35.25H32.5184C32.1876 35.25 31.8714 35.3838 31.6446 35.6197L24.8738 42.6639C24.4 43.1568 23.6 43.1568 23.1262 42.6639L16.3554 35.6197C16.1286 35.3838 15.8124 35.25 15.4815 35.25H7.2C6.53726 35.25 6 34.724 6 34.075V7.05Z" stroke="#002c8a" stroke-width="2"/>
<path d="M24 13.7085L26.8508 18.7504L32 21.5418L26.8508 24.3332L24 29.3752L21.1492 24.3332L16 21.5418L21.1492 18.7504L24 13.7085Z" stroke="#002c8a" stroke-width="2" stroke-linecap="round" stroke-linejoin="round"/>
</svg>
