<svg width="35" height="35" viewBox="0 0 35 35" fill="none" xmlns="http://www.w3.org/2000/svg">
<path opacity="0.4" d="M24.4833 1.61719H10.5167C4.45001 1.61719 0.833344 5.23386 0.833344 11.3005V25.2672C0.833344 31.3338 4.45001 34.9505 10.5167 34.9505H24.4833C30.55 34.9505 34.1667 31.3338 34.1667 25.2672V11.3005C34.1667 5.23386 30.55 1.61719 24.4833 1.61719Z" fill="#002c8a"/>
<path d="M28.0175 13.0674C28.0175 13.7507 27.4675 14.3174 26.7675 14.3174H18.0175C17.3342 14.3174 16.7676 13.7507 16.7676 13.0674C16.7676 12.384 17.3342 11.8174 18.0175 11.8174H26.7675C27.4675 11.8174 28.0175 12.384 28.0175 13.0674Z" fill="#002c8a"/>
<path d="M14.1176 11.4505L10.3676 15.2005C10.1176 15.4505 9.80092 15.5671 9.48425 15.5671C9.16759 15.5671 8.83426 15.4505 8.60092 15.2005L7.35092 13.9505C6.85092 13.4671 6.85092 12.6671 7.35092 12.1838C7.83426 11.7005 8.61759 11.7005 9.11759 12.1838L9.48425 12.5505L12.3509 9.68379C12.8343 9.20046 13.6176 9.20046 14.1176 9.68379C14.6009 10.1671 14.6009 10.9671 14.1176 11.4505Z" fill="#002c8a"/>
<path d="M28.0175 24.7339C28.0175 25.4172 27.4675 25.9839 26.7675 25.9839H18.0175C17.3342 25.9839 16.7676 25.4172 16.7676 24.7339C16.7676 24.0506 17.3342 23.4839 18.0175 23.4839H26.7675C27.4675 23.4839 28.0175 24.0506 28.0175 24.7339Z" fill="#002c8a"/>
<path d="M14.1176 23.117L10.3676 26.867C10.1176 27.117 9.80092 27.2336 9.48425 27.2336C9.16759 27.2336 8.83426 27.117 8.60092 26.867L7.35092 25.617C6.85092 25.1336 6.85092 24.3336 7.35092 23.8503C7.83426 23.367 8.61759 23.367 9.11759 23.8503L9.48425 24.217L12.3509 21.3503C12.8343 20.867 13.6176 20.867 14.1176 21.3503C14.6009 21.8336 14.6009 22.6336 14.1176 23.117Z" fill="#002c8a"/>
</svg>
