<svg width="84" height="83" viewBox="0 0 84 83" fill="none" xmlns="http://www.w3.org/2000/svg">
<path d="M33.25 31.125V51.875M22.75 41.5H43.75M56 34.5833L65.0188 29.2365C67.7946 27.5907 69.1828 26.7678 70.3248 26.873C71.3206 26.9647 72.2291 27.473 72.821 28.2696C73.5 29.1831 73.5 30.7825 73.5 33.9812V49.0188C73.5 52.2174 73.5 53.8169 72.821 54.7305C72.2291 55.527 71.3206 56.0354 70.3248 56.127C69.1828 56.2322 67.7946 55.4094 65.0188 53.7636L56 48.4167M21.7 62.25H44.8C48.7204 62.25 50.6807 62.25 52.178 61.4961C53.495 60.8331 54.566 59.7749 55.237 58.4735C56 56.994 56 55.057 56 51.1833V31.8167C56 27.943 56 26.0061 55.237 24.5266C54.566 23.2251 53.495 22.167 52.178 21.5039C50.6807 20.75 48.7204 20.75 44.8 20.75H21.7C17.7796 20.75 15.8194 20.75 14.3221 21.5039C13.0049 22.167 11.9341 23.2251 11.263 24.5266C10.5 26.0061 10.5 27.943 10.5 31.8167V51.1833C10.5 55.057 10.5 56.994 11.263 58.4735C11.9341 59.7749 13.0049 60.8331 14.3221 61.4961C15.8194 62.25 17.7796 62.25 21.7 62.25Z" stroke="#002c8a" stroke-width="5" stroke-linecap="round" stroke-linejoin="round"/>
</svg>
