<svg width="12" height="12" viewBox="0 0 12 12" fill="none" xmlns="http://www.w3.org/2000/svg">
<g clip-path="url(#clip0_2592_1015)">
<path d="M0 3.40332V11.2784H12V3.40332H0ZM11.25 5.92782H9.40645V6.67784H11.25V10.5284H0.75V6.67784H2.59373V5.92782H0.75V4.15334H11.25V5.92782Z" fill="#999999"/>
<path d="M5.05236 1.86377C5.29607 1.62061 5.62888 1.47138 6.00022 1.47119C6.37157 1.47136 6.70436 1.62058 6.94806 1.86377C7.19125 2.1075 7.34057 2.44019 7.34075 2.81191H8.09075C8.09059 1.65686 7.15482 0.721355 6.00022 0.721191C4.84555 0.721355 3.90986 1.65686 3.90967 2.81191H4.65967C4.65988 2.44019 4.8092 2.1075 5.05236 1.86377Z" fill="#999999"/>
<path d="M8.84384 5.63525H7.71875V7.13528H8.84384V5.63525Z" fill="#999999"/>
<path d="M7.1563 5.92773H4.84375V6.67776H7.1563V5.92773Z" fill="#999999"/>
<path d="M4.28125 5.63525H3.15625V7.13528H4.28125V5.63525Z" fill="#999999"/>
</g>
<defs>
<clipPath id="clip0_2592_1015">
<rect width="12" height="12" fill="white"/>
</clipPath>
</defs>
</svg>
