<svg width="11" height="12" viewBox="0 0 11 12" fill="none" xmlns="http://www.w3.org/2000/svg">
<g clip-path="url(#clip0_2592_1029)">
<path d="M7.8211 8.32134C7.73812 8.28745 7.64767 8.24081 7.55576 8.18555L6.01813 10.5043L5.90877 8.98526H5.09166L4.98228 10.5043L3.44466 8.18555C3.34996 8.24334 3.2587 8.29071 3.1791 8.32134C2.37391 8.63055 0.395817 9.51984 0.523477 11.1856C0.554114 11.5854 2.56924 12.0002 5.50023 12.0002C8.43097 12.0002 10.4461 11.5854 10.4767 11.1856C10.6044 9.51823 8.6212 8.64773 7.8211 8.32134Z" fill="#999999"/>
<path d="M3.68462 4.88137C3.79656 5.57315 3.98467 6.18342 4.23235 6.48403C4.23235 6.84454 4.23235 7.10756 4.23235 7.3181C4.23235 7.33924 4.22895 7.3615 4.22341 7.38449L5.09159 7.84063V8.50966H5.90871V7.84063L6.77646 7.38473C6.77092 7.36174 6.76752 7.33945 6.76752 7.3181C6.76752 7.10756 6.76752 6.84454 6.76752 6.48403C7.01563 6.18342 7.20374 5.57315 7.31568 4.88137C7.57656 4.7797 7.72594 4.61697 7.91213 3.90501C8.11045 3.14662 7.61401 3.1724 7.61401 3.1724C8.01555 1.72225 7.48678 0.359383 6.60158 0.459438C5.99086 -0.706109 3.94553 0.725688 3.30416 0.625891C3.30416 1.02562 3.45695 1.32531 3.45695 1.32531C3.23397 1.7868 3.31993 2.70698 3.38292 3.1724C3.34631 3.1717 2.89733 3.17681 3.08798 3.90501C3.27436 4.61697 3.42331 4.77972 3.68462 4.88137Z" fill="#999999"/>
</g>
<defs>
<clipPath id="clip0_2592_1029">
<rect width="11" height="12" fill="white"/>
</clipPath>
</defs>
</svg>
