<svg width="34" height="34" viewBox="0 0 34 34" fill="none" xmlns="http://www.w3.org/2000/svg">
<path d="M6.36879 10.541C5.02542 11.5001 3.93628 12.5256 3.10168 13.4295C1.21481 15.4729 1.21481 18.5267 3.10168 20.5701C5.54883 23.2204 10.1843 26.9164 17.0002 26.9164C18.8359 26.9164 20.5134 26.6484 22.0326 26.2048L19.677 23.8492C18.8328 23.9994 17.9406 24.0831 17.0002 24.0831C11.2866 24.0831 7.35029 20.9948 5.1833 18.6479C4.2987 17.69 4.2987 16.3096 5.1833 15.3516C6.00335 14.4635 7.07678 13.4692 8.40403 12.5763L6.36879 10.541Z" fill="#999999"/>
<path d="M12.0884 16.2612C12.0524 16.5023 12.0337 16.749 12.0337 17.0002C12.0337 19.7386 14.2536 21.9585 16.992 21.9585C17.2431 21.9585 17.4899 21.9398 17.731 21.9038L12.0884 16.2612Z" fill="#999999"/>
<path d="M21.9105 17.6332L16.3589 12.0816C16.5663 12.0551 16.7777 12.0415 16.9923 12.0415C19.7307 12.0415 21.9506 14.2614 21.9506 16.9998C21.9506 17.2145 21.937 17.4258 21.9105 17.6332Z" fill="#999999"/>
<path d="M25.6582 21.3816C26.9567 20.4996 28.0095 19.5225 28.8167 18.6483C29.7012 17.6904 29.7012 16.31 28.8167 15.352C26.6497 13.0052 22.7134 9.91683 16.9998 9.91683C16.0923 9.91683 15.2297 9.99473 14.4119 10.1352L12.0483 7.77174C13.5461 7.34218 15.1967 7.0835 16.9998 7.0835C23.8157 7.0835 28.4512 10.7797 30.8983 13.4299C32.7852 15.4733 32.7852 18.527 30.8983 20.5704C30.0764 21.4607 29.0075 22.4689 27.692 23.4154L25.6582 21.3816Z" fill="#999999"/>
<path d="M2.84463 4.84809C2.29137 4.29485 2.29137 3.39786 2.84463 2.84463C3.39786 2.29137 4.29485 2.29137 4.84809 2.84463L31.1673 29.1639C31.7207 29.7172 31.7207 30.6142 31.1673 31.1674C30.6141 31.7206 29.7171 31.7206 29.1639 31.1674L2.84463 4.84809Z" fill="#999999"/>
</svg>
