<svg width="13" height="10" viewBox="0 0 13 10" fill="none" xmlns="http://www.w3.org/2000/svg">
<g clip-path="url(#clip0_2593_1044)">
<path d="M0.70988 0.5H12.2901C12.6816 0.502106 13 0.821128 13 1.21069V8.78931C13 9.17992 12.6784 9.5 12.2859 9.5H0.70988C0.319499 9.49789 0 9.17887 0 8.78931V1.21069C0 0.821128 0.318441 0.502106 0.70988 0.5Z" fill="#FF9933"/>
<path d="M0 3.49951H13V6.50021H0V3.49951Z" fill="white"/>
<path d="M0 6.50049H13V8.78944C13 9.18006 12.6784 9.50014 12.2859 9.50014H0.70988C0.319499 9.49803 0 9.17901 0 8.78944V6.50049Z" fill="#128807"/>
<path d="M7.70605 5.00009C7.70605 4.33677 7.1665 3.7998 6.5 3.7998C5.8335 3.7998 5.29395 4.33677 5.29395 5.00009C5.29395 5.66235 5.8335 6.20037 6.5 6.20037C7.1665 6.20037 7.70605 5.6634 7.70605 5.00009Z" fill="#000088"/>
<path d="M7.55485 4.99991C7.55485 4.41978 7.08301 3.9502 6.50008 3.9502C5.91715 3.9502 5.44531 4.41978 5.44531 4.99991C5.44531 5.58005 5.91715 6.04963 6.50008 6.04963C7.08301 6.04963 7.55485 5.58005 7.55485 4.99991Z" fill="white"/>
<path d="M6.71061 5.00013C6.71061 4.88431 6.61645 4.78955 6.50008 4.78955C6.38371 4.78955 6.28955 4.88326 6.28955 5.00013C6.28955 5.11594 6.38371 5.20965 6.50008 5.20965C6.61645 5.20965 6.71061 5.11594 6.71061 5.00013Z" fill="#000088"/>
<path d="M7.59795 5.14446C7.60218 5.11603 7.58102 5.08971 7.55246 5.0855C7.5239 5.08129 7.49745 5.10234 7.49322 5.13077C7.48898 5.1592 7.51014 5.18552 7.53871 5.18973C7.56833 5.19289 7.59478 5.17289 7.59795 5.14446Z" fill="#000088"/>
<path d="M6.49984 6.04981L6.53581 5.42019L6.49984 5.12012L6.46387 5.42019L6.49984 6.04981Z" fill="#000088"/>
<path d="M7.52289 5.42219C7.53452 5.39587 7.52077 5.36429 7.49432 5.35376C7.46787 5.34218 7.43613 5.35586 7.42555 5.38219C7.41392 5.40851 7.42767 5.44009 7.45412 5.45062C7.48163 5.46115 7.51231 5.44852 7.52289 5.42219Z" fill="black"/>
<path d="M6.22705 6.01383L6.42594 5.41474L6.46932 5.11572L6.35612 5.39684L6.22705 6.01383Z" fill="black"/>
<path d="M7.37939 5.6717C7.39737 5.64854 7.39314 5.6159 7.36986 5.598C7.34659 5.5801 7.31379 5.58431 7.29581 5.60748C7.27782 5.63064 7.28205 5.66328 7.30533 5.68118C7.3286 5.69908 7.3614 5.69381 7.37939 5.6717Z" fill="black"/>
<path d="M5.97217 5.90946L6.32023 5.38196L6.43978 5.104L6.25781 5.34511L5.97217 5.90946Z" fill="black"/>
<path d="M7.17406 5.87503C7.19734 5.85713 7.20157 5.82449 7.18358 5.80132C7.1656 5.77816 7.1328 5.77395 7.10953 5.79185C7.08625 5.80975 7.08202 5.84239 7.10001 5.86555C7.11799 5.88766 7.15185 5.89292 7.17406 5.87503Z" fill="black"/>
<path d="M5.75391 5.74245L6.22681 5.32235L6.41406 5.08545L6.17603 5.27181L5.75391 5.74245Z" fill="black"/>
<path d="M6.92401 6.01898C6.95046 6.0074 6.96421 5.97687 6.95257 5.95054C6.94094 5.92422 6.91025 5.91054 6.88381 5.92212C6.85736 5.93265 6.8436 5.96423 6.85524 5.99055C6.86582 6.01688 6.8965 6.02951 6.92401 6.01898Z" fill="black"/>
<path d="M5.58594 5.52543L6.15299 5.24115L6.39526 5.06006L6.11597 5.17903L5.58594 5.52543Z" fill="black"/>
<path d="M6.64502 6.09284C6.67359 6.08863 6.69369 6.06231 6.69052 6.03388C6.68628 6.00546 6.65983 5.98545 6.63127 5.98861C6.60271 5.99282 6.5826 6.01914 6.58578 6.04757C6.58895 6.07705 6.6154 6.09706 6.64502 6.09284Z" fill="black"/>
<path d="M5.48145 5.27179L6.10246 5.14334L6.38387 5.03174L6.08341 5.07385L5.48145 5.27179Z" fill="black"/>
<path d="M6.3549 6.09305C6.38347 6.09726 6.40992 6.07621 6.41415 6.04778C6.41838 6.01935 6.39722 5.99303 6.36866 5.98882C6.34009 5.98461 6.31364 6.00566 6.30941 6.03409C6.30624 6.06357 6.32634 6.08989 6.3549 6.09305Z" fill="black"/>
<path d="M5.44531 5.00015L6.07796 5.03595L6.37948 5.00015L6.07796 4.96436L5.44531 5.00015Z" fill="black"/>
<path d="M6.07575 6.01898C6.1022 6.03056 6.13394 6.01688 6.14451 5.99055C6.15509 5.96423 6.1424 5.93265 6.11595 5.92212C6.0895 5.91054 6.05776 5.92422 6.04718 5.95054C6.0366 5.97687 6.0493 6.0074 6.07575 6.01898Z" fill="black"/>
<path d="M5.48145 4.72852L6.08341 4.92646L6.38387 4.96962L6.10246 4.85697L5.48145 4.72852Z" fill="black"/>
<path d="M5.82507 5.87503C5.84834 5.89292 5.88114 5.88871 5.89912 5.86555C5.91711 5.84239 5.91288 5.80975 5.8896 5.79185C5.86633 5.77395 5.83353 5.77816 5.81554 5.80132C5.79862 5.82449 5.80285 5.85713 5.82507 5.87503Z" fill="black"/>
<path d="M5.58594 4.47461L6.11597 4.82101L6.39526 4.93998L6.15299 4.75889L5.58594 4.47461Z" fill="black"/>
<path d="M5.62068 5.6717C5.63867 5.69487 5.67147 5.69908 5.69474 5.68118C5.71802 5.66328 5.72225 5.63064 5.70426 5.60748C5.68628 5.58431 5.65348 5.5801 5.63021 5.598C5.60799 5.61485 5.6027 5.64854 5.62068 5.6717Z" fill="black"/>
<path d="M5.75391 4.25781L6.17603 4.72845L6.41406 4.91586L6.22681 4.67791L5.75391 4.25781Z" fill="black"/>
<path d="M5.47589 5.42219C5.48753 5.44852 5.51821 5.4622 5.54466 5.45062C5.57111 5.43904 5.58486 5.40851 5.57323 5.38219C5.56159 5.35586 5.53091 5.34218 5.50446 5.35376C5.47801 5.36429 5.46532 5.39482 5.47589 5.42219Z" fill="black"/>
<path d="M5.97217 4.09033L6.25781 4.65467L6.43978 4.89578L6.32023 4.61888L5.97217 4.09033Z" fill="black"/>
<path d="M5.40193 5.14425C5.40616 5.17268 5.43261 5.19268 5.46117 5.18952C5.48974 5.18531 5.50984 5.15899 5.50667 5.13056C5.50243 5.10213 5.47599 5.08213 5.44742 5.08529C5.4178 5.08845 5.3977 5.11477 5.40193 5.14425Z" fill="black"/>
<path d="M6.22705 3.98584L6.35612 4.60388L6.46932 4.88394L6.42594 4.58493L6.22705 3.98584Z" fill="black"/>
<path d="M5.40191 4.85566C5.39768 4.88409 5.41883 4.91041 5.4474 4.91462C5.47596 4.91883 5.50241 4.89778 5.50664 4.86935C5.51087 4.84092 5.48972 4.8146 5.46115 4.81039C5.43153 4.80723 5.40508 4.82723 5.40191 4.85566Z" fill="black"/>
<path d="M6.49984 3.9502L6.46387 4.57982L6.49984 4.87989L6.53581 4.57982L6.49984 3.9502Z" fill="black"/>
<path d="M5.47682 4.57804C5.46519 4.60436 5.47894 4.63594 5.50539 4.64647C5.53184 4.657 5.56358 4.64437 5.57415 4.61804C5.58579 4.59172 5.57204 4.56014 5.54559 4.54961C5.51808 4.53908 5.4874 4.55171 5.47682 4.57804Z" fill="black"/>
<path d="M6.77303 3.98584L6.57414 4.58493L6.53076 4.88394L6.64396 4.60388L6.77303 3.98584Z" fill="black"/>
<path d="M5.621 4.32916C5.60302 4.35232 5.60725 4.38496 5.63052 4.40286C5.6538 4.42076 5.6866 4.41654 5.70458 4.39338C5.72257 4.37022 5.71833 4.33758 5.69506 4.31968C5.67178 4.30178 5.63899 4.30599 5.621 4.32916Z" fill="black"/>
<path d="M7.02816 4.09033L6.68009 4.61888L6.56055 4.89578L6.74251 4.65467L7.02816 4.09033Z" fill="black"/>
<path d="M5.82633 4.1249C5.80305 4.1428 5.79882 4.17544 5.8168 4.1986C5.83479 4.22176 5.86759 4.22597 5.89086 4.20807C5.91413 4.19018 5.91837 4.15754 5.90038 4.13437C5.8824 4.11121 5.84854 4.10805 5.82633 4.1249Z" fill="black"/>
<path d="M7.24609 4.25781L6.77319 4.67791L6.58594 4.91586L6.82397 4.72845L7.24609 4.25781Z" fill="black"/>
<path d="M6.07575 3.98183C6.0493 3.99341 6.0366 4.02395 6.04718 4.05027C6.05882 4.07659 6.0895 4.09028 6.11595 4.0787C6.1424 4.06712 6.15615 4.03658 6.14451 4.01026C6.13394 3.98289 6.10326 3.97025 6.07575 3.98183Z" fill="black"/>
<path d="M7.41382 4.47461L6.84676 4.75889L6.60449 4.93998L6.88379 4.82101L7.41382 4.47461Z" fill="black"/>
<path d="M6.3549 3.90728C6.32634 3.91149 6.30624 3.93781 6.30941 3.96624C6.31364 3.99466 6.34009 4.01467 6.36866 4.01151C6.39722 4.0073 6.41838 3.98098 6.41415 3.95255C6.41097 3.92412 6.38453 3.90306 6.3549 3.90728Z" fill="black"/>
<path d="M7.51864 4.72852L6.89762 4.85697L6.61621 4.96962L6.91667 4.92646L7.51864 4.72852Z" fill="black"/>
<path d="M6.64475 3.90728C6.61618 3.90306 6.58973 3.92412 6.5855 3.95255C6.58127 3.98098 6.60243 4.0073 6.63099 4.01151C6.65956 4.01572 6.68601 3.99466 6.69024 3.96624C6.69341 3.93781 6.67331 3.91043 6.64475 3.90728Z" fill="black"/>
<path d="M7.55477 5.00015L6.92212 4.96436L6.62061 5.00015L6.92212 5.03595L7.55477 5.00015Z" fill="black"/>
<path d="M6.92401 3.98169C6.89756 3.97011 6.86582 3.98379 6.85524 4.01011C6.8436 4.03644 6.85736 4.06802 6.88381 4.07855C6.91025 4.08908 6.94199 4.07645 6.95257 4.05012C6.96315 4.02275 6.95046 3.99222 6.92401 3.98169Z" fill="black"/>
<path d="M7.51864 5.27179L6.91667 5.07385L6.61621 5.03174L6.89762 5.14334L7.51864 5.27179Z" fill="black"/>
<path d="M7.17406 4.12486C7.15079 4.10696 7.11799 4.11117 7.10001 4.13433C7.08202 4.1575 7.08625 4.19013 7.10953 4.20803C7.1328 4.22593 7.1656 4.22172 7.18358 4.19856C7.20157 4.17539 7.19734 4.14275 7.17406 4.12486Z" fill="black"/>
<path d="M7.41382 5.52543L6.88379 5.17903L6.60449 5.06006L6.84676 5.24115L7.41382 5.52543Z" fill="black"/>
<path d="M7.37939 4.32916C7.3614 4.30599 7.3286 4.30178 7.30533 4.31968C7.28205 4.33758 7.27782 4.37022 7.29581 4.39338C7.31379 4.41654 7.34659 4.42076 7.36986 4.40286C7.39208 4.38496 7.39737 4.35127 7.37939 4.32916Z" fill="black"/>
<path d="M7.24609 5.74245L6.82397 5.27181L6.58594 5.08545L6.77319 5.32235L7.24609 5.74245Z" fill="black"/>
<path d="M7.52386 4.57799C7.51223 4.55166 7.48154 4.53798 7.4551 4.54956C7.42865 4.56114 7.41489 4.59167 7.42653 4.618C7.43817 4.64432 7.46885 4.65695 7.4953 4.64642C7.52175 4.63589 7.53444 4.60536 7.52386 4.57799Z" fill="black"/>
<path d="M7.02816 5.90946L6.74251 5.34511L6.56055 5.104L6.68009 5.38196L7.02816 5.90946Z" fill="black"/>
<path d="M7.59823 4.85566C7.594 4.82723 7.56755 4.80723 7.53899 4.81039C7.51042 4.8146 7.49032 4.84092 7.49349 4.86935C7.49773 4.89778 7.52417 4.91778 7.55274 4.91462C7.58236 4.91146 7.60246 4.88514 7.59823 4.85566Z" fill="black"/>
<path d="M6.77303 6.01383L6.64396 5.39684L6.53076 5.11572L6.57414 5.41474L6.77303 6.01383Z" fill="black"/>
</g>
<defs>
<clipPath id="clip0_2593_1044">
<rect width="13" height="9" fill="white" transform="translate(0 0.5)"/>
</clipPath>
</defs>
</svg>
