<svg width="11" height="14" viewBox="0 0 11 14" fill="none" xmlns="http://www.w3.org/2000/svg">
<path d="M10.3889 5.16672H9.16667V3.63894C9.16667 2.74752 8.81255 1.89261 8.18222 1.26228C7.55189 0.631948 6.69698 0.277832 5.80556 0.277832H5.19444C4.30302 0.277832 3.44811 0.631948 2.81778 1.26228C2.18745 1.89261 1.83333 2.74752 1.83333 3.63894V5.16672H0.611111C0.449034 5.16672 0.293596 5.23111 0.17899 5.34571C0.0643847 5.46032 0 5.61576 0 5.77783V13.1112C0 13.2732 0.0643847 13.4287 0.17899 13.5433C0.293596 13.6579 0.449034 13.7223 0.611111 13.7223H10.3889C10.551 13.7223 10.7064 13.6579 10.821 13.5433C10.9356 13.4287 11 13.2732 11 13.1112V5.77783C11 5.61576 10.9356 5.46032 10.821 5.34571C10.7064 5.23111 10.551 5.16672 10.3889 5.16672ZM3.05556 3.63894C3.05556 3.07167 3.2809 2.52764 3.68202 2.12652C4.08314 1.7254 4.62718 1.50005 5.19444 1.50005H5.80556C6.37282 1.50005 6.91686 1.7254 7.31798 2.12652C7.7191 2.52764 7.94444 3.07167 7.94444 3.63894V5.16672H3.05556V3.63894ZM9.77778 12.5001H1.22222V6.38894H9.77778V12.5001Z" fill="#999999"/>
<path d="M3.05534 10.3612C3.5616 10.3612 3.97201 9.95076 3.97201 9.4445C3.97201 8.93824 3.5616 8.52783 3.05534 8.52783C2.54908 8.52783 2.13867 8.93824 2.13867 9.4445C2.13867 9.95076 2.54908 10.3612 3.05534 10.3612Z" fill="#999999"/>
<path d="M5.50016 10.3612C6.00642 10.3612 6.41683 9.95076 6.41683 9.4445C6.41683 8.93824 6.00642 8.52783 5.50016 8.52783C4.9939 8.52783 4.5835 8.93824 4.5835 9.4445C4.5835 9.95076 4.9939 10.3612 5.50016 10.3612Z" fill="#999999"/>
<path d="M7.9445 10.3612C8.45076 10.3612 8.86117 9.95076 8.86117 9.4445C8.86117 8.93824 8.45076 8.52783 7.9445 8.52783C7.43824 8.52783 7.02783 8.93824 7.02783 9.4445C7.02783 9.95076 7.43824 10.3612 7.9445 10.3612Z" fill="#999999"/>
</svg>
