<svg width="15" height="16" viewBox="0 0 15 16" fill="none" xmlns="http://www.w3.org/2000/svg">
<path d="M2.5 13.625C2.5 11.2088 4.45876 9.25 6.875 9.25C7.08719 9.25 7.29588 9.26512 7.5 9.29431M9.375 4.875C9.375 6.25571 8.25569 7.375 6.875 7.375C5.49429 7.375 4.375 6.25571 4.375 4.875C4.375 3.49429 5.49429 2.375 6.875 2.375C8.25569 2.375 9.375 3.49429 9.375 4.875ZM7.86862 13.625L9.13425 13.3719C9.24463 13.3498 9.29981 13.3388 9.35125 13.3186C9.39694 13.3007 9.44031 13.2774 9.48056 13.2494C9.52587 13.2178 9.56569 13.178 9.64525 13.0984L12.2436 10.5C12.5888 10.1548 12.5888 9.59519 12.2436 9.25C11.8985 8.90481 11.3388 8.90481 10.9936 9.25L8.39525 11.8484C8.31569 11.928 8.27587 11.9677 8.24425 12.0131C8.21619 12.0533 8.193 12.0967 8.17506 12.1424C8.15488 12.1939 8.14387 12.2491 8.12175 12.3594L7.86862 13.625Z" stroke="#999999" stroke-linecap="round" stroke-linejoin="round"/>
</svg>
