<svg width="32" height="32" viewBox="0 0 32 32" fill="none" xmlns="http://www.w3.org/2000/svg">
<path d="M15.2002 11.3C13.4002 7.9 11.5002 4.7 9.5002 1.5C4.6002 3.6 1.0002 8.2 0.200195 13.7C5.0002 13.8 10.0002 13 15.2002 11.3Z" fill="#EE6996"/>
<path d="M17.1004 10.6C20.7004 9.2 24.2004 7.4 27.8004 5.2C24.8004 2 20.7004 0 16.0004 0C14.4004 0 12.8004 0.2 11.4004 0.7C13.4004 3.9 15.3004 7.2 17.1004 10.6Z" fill="#EE6996"/>
<path d="M19.9 16.4992C22.8 15.6992 25.9 15.1992 29 15.1992C30 15.1992 30.9 15.1992 31.9 15.2992C31.8 12.0992 30.7 9.09922 29 6.69922C25.3 9.09922 21.6 10.9992 18 12.3992C18.6 13.7992 19.3 15.0992 19.9 16.4992Z" fill="#EE6996"/>
<path d="M18 17.1C17.4 15.7 16.7 14.4 16 13C11 14.7 6.1 15.6 1.4 15.6C0.9 15.6 0.5 15.6 0 15.6C0 15.7 0 15.8 0 16C0 20 1.5 23.6 3.9 26.4C7.9 22.1 12.7 19 18 17.1Z" fill="#EE6996"/>
<path d="M29.0998 17.3008C26.2998 17.3008 23.4998 17.7008 20.7998 18.4008C22.3998 21.9008 23.6998 25.6008 24.9998 29.3008C28.8998 26.7008 31.4998 22.4008 31.9998 17.5008C30.9998 17.3008 29.9998 17.3008 29.0998 17.3008Z" fill="#EE6996"/>
<path d="M18.8998 19C13.7998 20.7 9.1998 23.7 5.2998 27.9C8.0998 30.4 11.8998 32 15.9998 32C18.5998 32 20.9998 31.4 23.1998 30.3C21.8998 26.4 20.4998 22.7 18.8998 19Z" fill="#EE6996"/>
</svg>
