<svg width="35" height="35" viewBox="0 0 35 35" fill="none" xmlns="http://www.w3.org/2000/svg">
<path d="M35 17.4991C35 12.8581 33.157 8.4071 29.8767 5.12539C26.5964 1.84367 22.1472 7.44155e-06 17.5081 7.44155e-06C13.1035 -0.00405389 8.85948 1.65441 5.62383 4.64412C2.38818 7.63383 0.399067 11.7347 0.0538429 16.1275C-0.291382 20.5205 1.03268 24.8818 3.76157 28.3407C6.49044 31.7996 10.4232 34.1012 14.7743 34.7858V22.5564H10.3364V17.4991H14.7769V13.6444C14.7769 9.25955 17.3882 6.83467 21.3838 6.83467C23.2979 6.83467 25.2994 7.17715 25.2994 7.17715V11.4844H23.0931C20.919 11.4844 20.2444 12.8343 20.2444 14.2168V17.4991H25.0946L24.3199 22.5564H20.2418V34.7858C24.3562 34.1339 28.103 32.0348 30.8084 28.8659C33.5138 25.6971 35 21.6664 35 17.4991Z" fill="#1877F2"/>
<path d="M24.3169 22.5563L25.0917 17.499H20.2413V14.2167C20.2413 12.8342 20.916 11.4843 23.09 11.4843H25.2965V7.17451C25.2965 7.17451 23.2949 6.83203 21.3808 6.83203C17.3826 6.83203 14.7738 9.25691 14.7738 13.6417V17.499H10.3359V22.5563H14.7764V34.7857C16.5877 35.0707 18.4324 35.0707 20.2439 34.7857V22.5563H24.3169Z" fill="white"/>
</svg>
