<svg width="35" height="35" viewBox="0 0 35 35" fill="none" xmlns="http://www.w3.org/2000/svg">
<g clip-path="url(#clip0_3184_1118)">
<mask id="mask0_3184_1118" style="mask-type:luminance" maskUnits="userSpaceOnUse" x="0" y="0" width="35" height="35">
<path d="M35 0H0V35H35V0Z" fill="white"/>
</mask>
<g mask="url(#mask0_3184_1118)">
<path d="M8.87509 34.8763C6.79362 34.7816 5.66291 34.4351 4.91083 34.1418C3.91431 33.7538 3.20385 33.292 2.45593 32.5451C1.70803 31.7982 1.24513 31.0877 0.859215 30.0912C0.565875 29.3391 0.219485 28.2084 0.124825 26.127C0.0208042 23.877 0 23.2019 0 17.5016C0 11.8012 0.0228846 11.1271 0.123785 8.87509C0.218444 6.79362 0.566916 5.66499 0.858174 4.91083C1.24617 3.91431 1.70907 3.20385 2.4549 2.4549C3.20176 1.70803 3.91223 1.24409 4.9098 0.858174C5.66188 0.564835 6.79259 0.218444 8.87404 0.123785C11.1251 0.0208042 11.8012 0 17.4995 0C23.1999 0 23.8738 0.0228846 26.1259 0.123785C28.2074 0.218444 29.3361 0.566916 30.0902 0.858174C31.0867 1.24409 31.7972 1.70803 32.5451 2.4549C33.2931 3.20176 33.7538 3.91328 34.1418 4.9098C34.4351 5.66188 34.7816 6.79259 34.8763 8.87404C34.9792 11.1261 35 11.8002 35 17.5005C35 23.1989 34.9792 23.8749 34.8763 26.127C34.7816 28.2084 34.433 29.3391 34.1418 30.0912C33.7538 31.0877 33.292 31.7982 32.5451 32.5451C31.7982 33.292 31.0867 33.7538 30.0902 34.1418C29.3381 34.4351 28.2074 34.7816 26.1259 34.8763C23.876 34.9792 23.1999 35 17.4995 35C11.8012 35 11.1251 34.9802 8.87509 34.8763Z" fill="url(#paint0_radial_3184_1118)"/>
<path d="M8.87509 34.8763C6.79362 34.7816 5.66291 34.4351 4.91083 34.1418C3.91431 33.7538 3.20385 33.292 2.45593 32.5451C1.70803 31.7982 1.24513 31.0877 0.859215 30.0912C0.565875 29.3391 0.219485 28.2084 0.124825 26.127C0.0208042 23.877 0 23.2019 0 17.5016C0 11.8012 0.0228846 11.1271 0.123785 8.87509C0.218444 6.79362 0.566916 5.66499 0.858174 4.91083C1.24617 3.91431 1.70907 3.20385 2.4549 2.4549C3.20176 1.70803 3.91223 1.24409 4.9098 0.858174C5.66188 0.564835 6.79259 0.218444 8.87404 0.123785C11.1251 0.0208042 11.8012 0 17.4995 0C23.1999 0 23.8738 0.0228846 26.1259 0.123785C28.2074 0.218444 29.3361 0.566916 30.0902 0.858174C31.0867 1.24409 31.7972 1.70803 32.5451 2.4549C33.2931 3.20176 33.7538 3.91328 34.1418 4.9098C34.4351 5.66188 34.7816 6.79259 34.8763 8.87404C34.9792 11.1261 35 11.8002 35 17.5005C35 23.1989 34.9792 23.8749 34.8763 26.127C34.7816 28.2084 34.433 29.3391 34.1418 30.0912C33.7538 31.0877 33.292 31.7982 32.5451 32.5451C31.7982 33.292 31.0867 33.7538 30.0902 34.1418C29.3381 34.4351 28.2074 34.7816 26.1259 34.8763C23.876 34.9792 23.1999 35 17.4995 35C11.8012 35 11.1251 34.9802 8.87509 34.8763Z" fill="url(#paint1_radial_3184_1118)"/>
<path d="M13.2028 17.5749C13.2028 15.1813 15.1427 13.2404 17.5363 13.2404C19.93 13.2404 21.8709 15.1813 21.8709 17.5749C21.8709 19.9686 19.93 21.9095 17.5363 21.9095C15.1427 21.9095 13.2028 19.9686 13.2028 17.5749ZM10.8596 17.5749C10.8596 21.2625 13.8488 24.2515 17.5363 24.2515C21.2239 24.2515 24.2131 21.2625 24.2131 17.5749C24.2131 13.8874 21.2239 10.8982 17.5363 10.8982C13.8488 10.8982 10.8596 13.8872 10.8596 17.5749ZM22.9172 10.6335C22.9171 10.9421 23.0084 11.2438 23.1797 11.5004C23.3511 11.7571 23.5947 11.9572 23.8797 12.0754C24.1648 12.1936 24.4786 12.2246 24.7813 12.1646C25.0839 12.1045 25.362 11.956 25.5804 11.7379C25.7986 11.5197 25.9474 11.2418 26.0077 10.9391C26.0679 10.6365 26.0373 10.3227 25.9192 10.0376C25.8012 9.75242 25.6014 9.50865 25.3448 9.3371C25.0883 9.16554 24.7868 9.07391 24.4781 9.07379C24.0644 9.07398 23.6671 9.23834 23.3745 9.53079C23.0821 9.82323 22.9176 10.2198 22.9172 10.6335ZM12.2833 28.1589C11.0156 28.1012 10.3265 27.89 9.86862 27.7116C9.26156 27.4752 8.82842 27.1938 8.37302 26.739C7.9176 26.2842 7.63571 25.8514 7.40042 25.2443C7.22192 24.7867 7.01075 24.0975 6.95312 22.8298C6.89008 21.4592 6.8775 21.0475 6.8775 17.5751C6.8775 14.1028 6.89112 13.6922 6.95312 12.3205C7.01085 11.0528 7.22358 10.3649 7.40042 9.90586C7.63674 9.29879 7.91823 8.86565 8.37302 8.41024C8.82779 7.95484 9.26051 7.67293 9.86862 7.43765C10.3263 7.25915 11.0156 7.04797 12.2833 6.99035C13.6539 6.92731 14.0656 6.91473 17.5363 6.91473C21.0071 6.91473 21.4192 6.92815 22.7909 6.99056C24.0588 7.04829 24.7465 7.26102 25.2055 7.43786C25.8126 7.67314 26.2459 7.95566 26.7013 8.41045C27.1566 8.86523 27.4375 9.299 27.6739 9.90606C27.8524 10.3638 28.0635 11.053 28.121 12.3207C28.1842 13.6924 28.1968 14.103 28.1968 17.5753C28.1968 21.0476 28.1842 21.4582 28.121 22.83C28.0635 24.0977 27.8512 24.7867 27.6739 25.2447C27.4375 25.8517 27.1561 26.2849 26.7013 26.7392C26.2464 27.1935 25.8126 27.4754 25.2055 27.7118C24.7479 27.8903 24.0588 28.1014 22.7909 28.1591C21.4205 28.2221 21.0087 28.2347 17.5363 28.2347C14.064 28.2347 13.6534 28.2219 12.2833 28.1589ZM12.1756 4.65102C10.7914 4.71405 9.84554 4.93354 9.0195 5.25496C8.16456 5.5869 7.43983 6.0322 6.71615 6.75474C5.99249 7.47727 5.54831 8.2021 5.21638 9.05808C4.89496 9.88464 4.67548 10.83 4.61244 12.2142C4.54836 13.6006 4.53369 14.0438 4.53369 17.5749C4.53369 21.1061 4.54836 21.5492 4.61244 22.9357C4.67548 24.32 4.89496 25.2651 5.21638 26.0918C5.54831 26.9467 5.9926 27.6728 6.71615 28.395C7.43972 29.1172 8.16351 29.5621 9.0195 29.8949C9.84709 30.2162 10.7914 30.4359 12.1756 30.4989C13.5627 30.5619 14.0052 30.5776 17.5363 30.5776C21.0675 30.5776 21.5108 30.5629 22.8971 30.4989C24.2814 30.4359 25.2267 30.2162 26.0532 29.8949C26.9081 29.5621 27.6328 29.1176 28.3566 28.395C29.0802 27.6726 29.5235 26.9467 29.8563 26.0918C30.1776 25.2651 30.3983 24.3198 30.4603 22.9357C30.5233 21.5481 30.538 21.1061 30.538 17.5749C30.538 14.0438 30.5233 13.6006 30.4603 12.2142C30.3973 10.8299 30.1776 9.88411 29.8563 9.05808C29.5235 8.20313 29.079 7.47842 28.3566 6.75474C27.634 6.03107 26.9081 5.5869 26.0543 5.25496C25.2267 4.93354 24.2814 4.71302 22.8982 4.65102C21.5115 4.58767 21.0685 4.57227 17.5379 4.57227C14.0073 4.57227 13.5627 4.58695 12.1756 4.65102Z" fill="white"/>
</g>
</g>
<defs>
<radialGradient id="paint0_radial_3184_1118" cx="0" cy="0" r="1" gradientUnits="userSpaceOnUse" gradientTransform="translate(2.26516 34.2333) scale(44.4371)">
<stop offset="0.09" stop-color="#FA8F21"/>
<stop offset="0.78" stop-color="#D82D7E"/>
</radialGradient>
<radialGradient id="paint1_radial_3184_1118" cx="0" cy="0" r="1" gradientUnits="userSpaceOnUse" gradientTransform="translate(24.2433 33.1095) scale(39.105)">
<stop offset="0.64" stop-color="#8C3AAA" stop-opacity="0"/>
<stop offset="1" stop-color="#8C3AAA"/>
</radialGradient>
<clipPath id="clip0_3184_1118">
<rect width="35" height="35" fill="white"/>
</clipPath>
</defs>
</svg>
