<svg width="35" height="35" viewBox="0 0 35 35" fill="none" xmlns="http://www.w3.org/2000/svg">
<g clip-path="url(#clip0_3184_1110)">
<path d="M33.3335 1.66797H1.3335V34.0013H33.3335V1.66797Z" fill="white"/>
<path d="M29.823 29.8229H24.637V21.7C24.637 19.7633 24.6021 17.2695 21.9392 17.2695C19.2383 17.2695 18.8242 19.3812 18.8242 21.557V29.8229H13.6383V13.1192H18.6171V15.4029H18.687C19.702 13.6704 21.592 12.632 23.5987 12.705C28.8545 12.705 29.8258 16.1612 29.8258 20.6617L29.823 29.8199V29.8229ZM7.7875 10.8355C6.99088 10.8315 6.22794 10.5136 5.66437 9.95062C5.10079 9.38759 4.7821 8.62496 4.7775 7.82834C4.7775 6.17752 6.13667 4.81835 7.7875 4.81835C9.43833 4.81835 10.7946 6.17752 10.7975 7.82834C10.7975 9.47918 9.43833 10.8355 7.7875 10.8355ZM10.3804 29.8229H5.18875V13.1192H10.3804V29.8229ZM32.4042 4.33509e-05H2.58125C1.90502 -0.0038843 1.25457 0.259216 0.771234 0.732171C0.287901 1.20512 0.0107469 1.84972 0 2.52587V32.4741C0.0107469 33.1502 0.287901 33.7948 0.771234 34.2678C1.25457 34.7408 1.90502 35.0038 2.58125 34.9999H32.4071C33.0849 35.0054 33.7375 34.7432 34.223 34.2702C34.7084 33.7973 34.9877 33.1518 35 32.4741V2.52295C34.9877 1.84578 34.7083 1.20091 34.2226 0.728882C33.7369 0.256851 33.0843 -0.00407822 32.4071 0.00295979L32.4042 4.33509e-05Z" fill="#0A66C2"/>
</g>
<defs>
<clipPath id="clip0_3184_1110">
<rect width="35" height="35" fill="white"/>
</clipPath>
</defs>
</svg>
