<svg width="28" height="24" viewBox="0 0 28 24" fill="none" xmlns="http://www.w3.org/2000/svg">
<path fill-rule="evenodd" clip-rule="evenodd" d="M28 3.09526C26.9712 3.56378 25.8635 3.88062 24.7015 4.02219C25.8881 3.29413 26.7986 2.13968 27.2276 0.764455C26.1166 1.43859 24.8889 1.92901 23.5774 2.19192C22.5321 1.04758 21.0382 0.333008 19.3849 0.333008C16.2146 0.333008 13.6425 2.97054 13.6425 6.22322C13.6425 6.685 13.6918 7.1333 13.7905 7.56474C9.01614 7.31869 4.78417 4.97608 1.94917 1.40824C1.45448 2.28124 1.17179 3.29413 1.17179 4.37274C1.17179 6.41535 2.18583 8.21865 3.72742 9.27535C2.78735 9.2467 1.89986 8.97873 1.12414 8.54055V8.61301C1.12414 11.468 3.10453 13.8493 5.73411 14.3886C5.25256 14.5268 4.74473 14.5959 4.22046 14.5959C3.85068 14.5959 3.48911 14.5605 3.13905 14.4914C3.8704 16.8307 5.99048 18.5345 8.50501 18.58C6.53941 20.1609 4.06104 21.103 1.37066 21.103C0.907197 21.103 0.44867 21.076 0 21.0221C2.54247 22.6905 5.56318 23.6663 8.80577 23.6663C19.3734 23.6663 25.1502 14.692 25.1502 6.90746C25.1502 6.65129 25.1453 6.39512 25.1354 6.14401C26.2579 5.31314 27.2325 4.27667 28 3.09526Z" fill="#00AAEC"/>
</svg>
