<svg width="29" height="29" viewBox="0 0 29 29" fill="none" xmlns="http://www.w3.org/2000/svg">
<path d="M24.7578 14.916C24.7578 20.715 20.0568 25.416 14.2578 25.416C12.046 25.416 9.99385 24.7321 8.30139 23.5643L4.71236 24.4615L5.65285 20.9346C4.45862 19.2304 3.75781 17.1551 3.75781 14.916C3.75781 9.11702 8.45882 4.41602 14.2578 4.41602C20.0568 4.41602 24.7578 9.11702 24.7578 14.916Z" fill="url(#paint0_linear_625_1802)"/>
<path fill-rule="evenodd" clip-rule="evenodd" d="M14.2578 27.166C21.0233 27.166 26.5078 21.6815 26.5078 14.916C26.5078 8.15052 21.0233 2.66602 14.2578 2.66602C7.49232 2.66602 2.00781 8.15052 2.00781 14.916C2.00781 17.1131 2.58619 19.175 3.59897 20.9579L2.00781 27.166L8.40832 25.6818C10.1465 26.6282 12.1394 27.166 14.2578 27.166ZM14.2578 25.2814C19.9825 25.2814 24.6232 20.6407 24.6232 14.916C24.6232 9.19137 19.9825 4.55063 14.2578 4.55063C8.53317 4.55063 3.89243 9.19137 3.89243 14.916C3.89243 17.1264 4.58425 19.1751 5.76317 20.8574L4.83474 24.3391L8.37775 23.4533C10.0485 24.6063 12.0743 25.2814 14.2578 25.2814Z" fill="white"/>
<path d="M11.1953 9.22872C10.9041 8.64372 10.4573 8.69551 10.0059 8.69551C9.19926 8.69551 7.94141 9.66175 7.94141 11.4601C7.94141 12.9338 8.59083 14.5471 10.7792 16.9604C12.8911 19.2895 15.666 20.4943 17.9697 20.4532C20.2734 20.4123 20.7474 18.4298 20.7474 17.7603C20.7474 17.4636 20.5632 17.3156 20.4365 17.2753C19.6514 16.8985 18.2034 16.1965 17.874 16.0647C17.5446 15.9328 17.3725 16.1112 17.2656 16.2083C16.9669 16.4929 16.3747 17.332 16.1719 17.5208C15.9691 17.7095 15.6668 17.6139 15.541 17.5426C15.078 17.3569 13.8228 16.7985 12.8224 15.8286C11.5849 14.6291 11.5123 14.2164 11.2792 13.8491C11.0928 13.5552 11.2296 13.3749 11.2979 13.2961C11.5645 12.9885 11.9326 12.5136 12.0977 12.2776C12.2627 12.0415 12.1317 11.6832 12.0531 11.4601C11.7149 10.5002 11.4283 9.69668 11.1953 9.22872Z" fill="white"/>
<defs>
<linearGradient id="paint0_linear_625_1802" x1="23.4453" y1="7.04101" x2="3.75781" y2="25.416" gradientUnits="userSpaceOnUse">
<stop stop-color="#5BD066"/>
<stop offset="1" stop-color="#27B43E"/>
</linearGradient>
</defs>
</svg>
