<svg width="38" height="38" viewBox="0 0 38 38" fill="none" xmlns="http://www.w3.org/2000/svg">
<path d="M17.5 35C27.165 35 35 27.165 35 17.5C35 7.83502 27.165 0 17.5 0C7.83502 0 0 7.83502 0 17.5C0 27.165 7.83502 35 17.5 35Z" fill="#FF0000"/>
<path fill-rule="evenodd" clip-rule="evenodd" d="M26.2379 12.091C26.5539 12.4069 26.7815 12.8002 26.8982 13.2315C27.5703 15.9366 27.415 20.209 26.9113 23.0185C26.7946 23.4498 26.5669 23.8431 26.251 24.159C25.935 24.475 25.5418 24.7026 25.1105 24.8193C23.5315 25.25 17.1764 25.25 17.1764 25.25C17.1764 25.25 10.8213 25.25 9.24232 24.8193C8.81102 24.7026 8.4178 24.475 8.10185 24.159C7.7859 23.8431 7.55821 23.4498 7.44152 23.0185C6.76552 20.3251 6.95085 16.0501 7.42846 13.2445C7.54515 12.8132 7.77283 12.4199 8.08879 12.104C8.40474 11.788 8.79796 11.5604 9.22926 11.4437C10.8082 11.0131 17.1633 11 17.1633 11C17.1633 11 23.5184 11 25.0974 11.4307C25.5287 11.5474 25.9219 11.775 26.2379 12.091ZM20.4127 18.125L15.1407 21.1785V15.0714L20.4127 18.125Z" fill="white"/>
</svg>
