<svg width="40" height="41" viewBox="0 0 40 41" fill="none" xmlns="http://www.w3.org/2000/svg">
<rect x="0.5" width="39" height="41" rx="19.5" fill="#007FF5"/>
<path fill-rule="evenodd" clip-rule="evenodd" d="M27.5 14V28H11.5V14H27.5ZM25.9 15.75H13.1V26.25H25.9V15.75ZM24.3 22.75V24.0625H20.3V22.75H24.3ZM17 20.3875C18.156 20.3875 19.1 21.4375 19.1 22.75H14.3C14.3 21.4375 15.2402 20.3875 16.4 20.3875H17ZM24.3 20.125V21.4375H20.3V20.125H24.3ZM16.7 17.2249C17.2799 17.2249 17.75 17.7391 17.75 18.3733C17.75 19.0076 17.2799 19.5218 16.7 19.5218C16.1201 19.5218 15.65 19.0076 15.65 18.3733C15.65 17.7391 16.1201 17.2249 16.7 17.2249ZM24.3 17.5V18.8125H20.3V17.5H24.3Z" fill="#FAFAFA"/>
</svg>
