<svg width="15" height="14" viewBox="0 0 15 14" fill="none" xmlns="http://www.w3.org/2000/svg">
<path d="M0.914874 1.74127C0.954763 1.89014 1.04016 2.02804 1.16733 2.12947L2.50337 3.19542L1.96943 4.41599C1.86082 4.66477 1.86015 4.95162 1.96689 5.2028C2.07393 5.45411 2.27995 5.64857 2.53216 5.73639L5.99326 6.94082L4.96716 8.67024C4.8222 8.91472 4.79302 9.209 4.88669 9.47671C4.98048 9.74486 5.18583 9.95435 5.45021 10.0513L10.5007 11.9045L10.1396 12.829C10.0948 12.9436 10.0848 13.0552 10.1106 13.1515C10.1617 13.3423 10.3362 13.4452 10.5658 13.4201L13.8201 13.0631C13.9675 13.0469 14.0783 12.9863 14.1411 12.8878C14.2255 12.7553 14.2033 12.5692 14.0791 12.4001L12.046 9.6301C11.9372 9.48183 11.8031 9.40913 11.6683 9.42521C11.5334 9.44131 11.4228 9.54325 11.3569 9.71216L11.0123 10.5946L6.44082 8.91728L7.47466 7.17474C7.62077 6.92853 7.64865 6.63276 7.55283 6.36399C7.45638 6.09505 7.24751 5.88732 6.97975 5.79406L3.41883 4.55496L3.86057 3.54503C4.05157 3.10856 3.91403 2.55469 3.54068 2.25682L1.96798 1.0021C1.66535 0.760669 1.24072 0.817263 1.01959 1.12856C0.891408 1.30911 0.859768 1.53562 0.914874 1.74127Z" fill="#FF0000"/>
</svg>
