<svg width="40" height="41" viewBox="0 0 40 41" fill="none" xmlns="http://www.w3.org/2000/svg">
<rect x="0.5" width="39" height="41" rx="19.5" fill="#007FF5"/>
<path d="M24.169 15.6224C24.852 15.6719 25.468 15.1581 25.5229 14.44C25.5716 13.7467 25.0655 13.1215 24.358 13.0658C23.675 13.0163 23.059 13.5301 23.0041 14.2481C22.9553 14.9476 23.4798 15.5729 24.169 15.6224Z" fill="white"/>
<path d="M23.096 16.1403C23.3338 15.9546 23.6387 15.8618 23.9742 15.8741C24.395 15.9113 24.767 16.1775 24.9682 16.4932L26.2307 19.0374L27.9505 20.2569C28.0968 20.3807 28.1883 20.5602 28.1761 20.7583C28.1639 21.074 27.8773 21.3092 27.5663 21.2721C27.4809 21.2721 27.3833 21.2349 27.304 21.1854L25.4561 19.904C25.4073 19.8545 25.3464 19.7926 25.3098 19.7183L24.828 18.765L24.2608 21.303L26.4929 23.9834C26.5417 24.0701 26.5783 24.1691 26.6027 24.2496L27.2003 27.4809C27.2003 27.5552 27.2003 27.6047 27.2003 27.6666C27.1637 28.1557 26.7551 28.4838 26.2855 28.4714C25.9013 28.4342 25.6147 28.1557 25.5171 27.7904L24.9499 24.782L23.1387 22.733L22.724 24.7015C22.7118 24.7882 22.5776 24.9801 22.541 25.0543L20.809 28.0381C20.626 28.3042 20.3516 28.4899 20.0162 28.4528C19.5344 28.4157 19.1868 28.0009 19.2233 27.5243C19.2355 27.3757 19.2965 27.2581 19.3453 27.1467L20.9675 24.4044L22.3153 18.3441L21.4432 19.0683L20.9615 21.2225C20.9127 21.4887 20.6504 21.724 20.3638 21.7116C20.0528 21.6992 19.821 21.4083 19.8332 21.0926C19.8332 21.0802 19.8332 21.043 19.8454 21.0183L20.3882 18.505C20.4248 18.3936 20.4736 18.3069 20.5711 18.2388L23.096 16.1403Z" fill="white"/>
<path d="M15.4419 15.5599C16.125 15.6094 16.7409 15.0956 16.7958 14.3775C16.8446 13.6842 16.3445 13.059 15.6371 13.0033C14.9541 12.9538 14.3381 13.4676 14.2832 14.1856C14.2283 14.8913 14.7589 15.5104 15.4419 15.5599Z" fill="white"/>
<path d="M14.3753 16.0856C14.6131 15.8999 14.918 15.8071 15.2535 15.8195C15.6743 15.8566 16.0463 16.1228 16.2475 16.4385L17.51 18.9827L19.2298 20.2022C19.3761 20.326 19.4676 20.5055 19.4554 20.7036C19.4432 21.0193 19.1566 21.2545 18.8455 21.2174C18.7602 21.2174 18.6626 21.1802 18.5833 21.1307L16.7354 19.8493C16.6866 19.7998 16.6257 19.7379 16.5891 19.6636L16.1073 18.7103L15.5401 21.2483L17.7722 23.9287C17.821 24.0154 17.8576 24.1144 17.882 24.1949L18.4796 27.4262C18.4796 27.5005 18.4796 27.55 18.4796 27.6119C18.443 28.101 18.0344 28.4291 17.5648 28.4167C17.1806 28.3795 16.894 28.101 16.7964 27.7358L16.2292 24.7273L14.418 22.6783L14.0032 24.6406C13.9911 24.7273 13.8569 24.9192 13.8203 24.9935L12.0883 27.9772C11.9053 28.2434 11.6309 28.4291 11.2955 28.3919C10.8137 28.3548 10.466 27.94 10.5026 27.4634C10.5148 27.3148 10.5758 27.1972 10.6246 27.0858L12.2468 24.3435L13.5946 18.2832L12.7164 19.0075L12.2346 21.1679C12.1859 21.434 11.9236 21.6693 11.637 21.6569C11.326 21.6445 11.0942 21.3536 11.1064 21.0379C11.1064 21.0255 11.1064 20.9883 11.1186 20.9636L11.6614 18.4503C11.698 18.3389 11.7468 18.2522 11.8443 18.1841L14.3753 16.0856Z" fill="white"/>
</svg>
