<svg width="40" height="41" viewBox="0 0 40 41" fill="none" xmlns="http://www.w3.org/2000/svg">
<rect x="0.5" width="39" height="41" rx="19.5" fill="#007FF5"/>
<g clip-path="url(#clip0_2900_1323)">
<path d="M12.5 25.195V15.82C12.5 15.04 12.775 14.375 13.325 13.825C13.875 13.275 14.54 13 15.32 13H21.095L19.22 14.875H15.32C15.06 14.875 14.835 14.97 14.645 15.16C14.455 15.35 14.365 15.57 14.375 15.82V25.195C14.375 25.455 14.465 25.675 14.645 25.855C14.825 26.035 15.05 26.125 15.32 26.125H24.695C24.945 26.125 25.165 26.035 25.355 25.855C25.545 25.675 25.635 25.455 25.625 25.195V21.28L27.5 19.405V25.195C27.5 25.975 27.225 26.635 26.675 27.175C26.125 27.715 25.465 27.99 24.695 28H15.32C14.54 28 13.875 27.725 13.325 27.175C12.775 26.625 12.5 25.965 12.5 25.195ZM15.32 25.195L17.195 19.57L23.75 13L27.5 16.75L20.945 23.32L15.32 25.195ZM17.195 23.32L20 22.375L18.125 20.5L17.195 23.32ZM19.07 19.57L20.945 21.445L23.75 18.625L21.875 16.75L19.07 19.57Z" fill="#FAFAFA"/>
</g>
<defs>
<clipPath id="clip0_2900_1323">
<rect width="15" height="15" fill="white" transform="translate(12.5 13)"/>
</clipPath>
</defs>
</svg>
