<svg width="40" height="41" viewBox="0 0 40 41" fill="none" xmlns="http://www.w3.org/2000/svg">
<rect x="0.5" width="39" height="41" rx="19.5" fill="#007FF5"/>
<path d="M25.6774 21.043L25.1483 24.1028L26.2568 24.2946L26.786 21.2347L25.6774 21.043ZM20.4341 27.9375H16.9476V29.0625H20.4341V27.9375ZM16.264 27.3094L15.6549 20.2648L14.5341 20.3617L15.1432 27.4063L16.264 27.3094ZM25.1483 24.1028C24.7682 26.3008 22.7863 27.9375 20.4341 27.9375V29.0625C23.3037 29.0625 25.7784 27.0607 26.2568 24.2946L25.1483 24.1028ZM20.4414 15.8251L19.9444 18.8585L21.0546 19.0404L21.5516 16.007L20.4414 15.8251ZM15.8911 19.6842L16.9702 18.7544L16.2358 17.9022L15.1567 18.832L15.8911 19.6842ZM18.9333 15.729L19.2901 14.3537L18.2012 14.0712L17.8444 15.4466L18.9333 15.729ZM19.829 14.0838L19.9377 14.1187L20.2817 13.0476L20.1731 13.0127L19.829 14.0838ZM18.3929 17.112C18.6269 16.674 18.8086 16.21 18.9333 15.729L17.8444 15.4466C17.7421 15.8408 17.593 16.2217 17.4006 16.5819L18.3929 17.112ZM19.9377 14.1187C20.1675 14.1926 20.3307 14.3701 20.3843 14.5769L21.4733 14.2944C21.3192 13.7004 20.8646 13.2349 20.2817 13.0476L19.9377 14.1187ZM19.2901 14.3537C19.3163 14.2524 19.3895 14.1593 19.5002 14.106L19.0118 13.0926C18.6128 13.2848 18.3131 13.6397 18.2012 14.0712L19.2901 14.3537ZM19.5002 14.106C19.6012 14.0573 19.7201 14.0489 19.829 14.0838L20.1731 13.0127C19.7907 12.8899 19.3737 12.9181 19.0118 13.0926L19.5002 14.106ZM21.1156 20.2381H25.0014V19.1131H21.1156V20.2381ZM21.5516 16.007C21.645 15.4369 21.6183 14.8536 21.4733 14.2944L20.3843 14.5769C20.4901 14.9844 20.5095 15.4096 20.4414 15.8251L21.5516 16.007ZM16.9476 27.9375C16.5921 27.9375 16.2948 27.6652 16.264 27.3094L15.1432 27.4063C15.2242 28.3426 16.0073 29.0625 16.9476 29.0625V27.9375ZM16.9702 18.7544C17.48 18.315 18.0296 17.792 18.3929 17.112L17.4006 16.5819C17.1408 17.0682 16.7272 17.4787 16.2358 17.9022L16.9702 18.7544ZM26.786 21.2347C26.9774 20.1274 26.1259 19.1131 25.0014 19.1131V20.2381C25.4264 20.2381 25.7502 20.6219 25.6774 21.043L26.786 21.2347ZM19.9444 18.8585C19.8261 19.5807 20.3828 20.2381 21.1156 20.2381V19.1131C21.0782 19.1131 21.0482 19.0793 21.0546 19.0404L19.9444 18.8585ZM15.6549 20.2648C15.6358 20.0443 15.7239 19.8283 15.8911 19.6842L15.1567 18.832C14.7155 19.2122 14.4839 19.7815 14.5341 20.3617L15.6549 20.2648Z" fill="white"/>
<path d="M12.75 19.6758L13.3104 19.6274C13.2845 19.3272 13.0267 19.1008 12.7258 19.1138C12.4248 19.1268 12.1875 19.3746 12.1875 19.6758H12.75ZM14.0391 28.0547L13.3104 19.6274L12.1896 19.7243L12.9183 28.1516L14.0391 28.0547ZM13.3125 28.1347V19.6758H12.1875V28.1347H13.3125ZM12.9183 28.1516C12.9084 28.0373 12.9986 27.9377 13.115 27.9377V29.0627C13.6595 29.0627 14.0859 28.5961 14.0391 28.0547L12.9183 28.1516ZM13.115 27.9377C13.2247 27.9377 13.3125 28.0265 13.3125 28.1347H12.1875C12.1875 28.6466 12.6022 29.0627 13.115 29.0627V27.9377Z" fill="white"/>
</svg>
