<svg width="40" height="41" viewBox="0 0 40 41" fill="none" xmlns="http://www.w3.org/2000/svg">
<rect x="0.5" width="39" height="41" rx="19.5" fill="#007FF5"/>
<path d="M28.4429 25.8549L27.6203 24.5995C27.4504 24.3401 27.1023 24.2677 26.8429 24.4376L22.2568 27.4426C21.9974 27.6126 21.9249 27.9606 22.0948 28.22L22.9174 29.4753C23.0874 29.7347 23.4354 29.8072 23.6948 29.6373L28.2809 26.6322C28.5404 26.4623 28.6129 26.1143 28.4429 25.8549Z" fill="white"/>
<path d="M23.0353 25.8283L24.5368 24.8444C25.1429 24.4473 25.5581 23.8379 25.7058 23.1286C25.8455 22.4576 25.7367 21.7325 25.319 21.0887C25.1045 20.7613 23.3134 18.0277 23.1029 17.7064C22.8253 17.2828 22.2567 17.1644 21.8331 17.442C21.5573 17.6227 21.4119 17.9266 21.4198 18.2337L21.2564 17.9843C20.9788 17.5607 20.4102 17.4422 19.9866 17.7198C19.7108 17.9005 19.5654 18.2045 19.5734 18.5115L19.4603 18.3388C19.1826 17.9151 18.6141 17.7968 18.1905 18.0744C17.9147 18.2551 17.7693 18.5591 17.7772 18.8661L16.2566 16.5454C15.979 16.1217 15.4106 16.0034 14.9869 16.2809C14.5632 16.5585 14.4448 17.1271 14.7224 17.5507L18.5037 23.3216L16.9209 22.7823C16.441 22.619 15.9203 22.8753 15.757 23.3547C15.5937 23.8342 15.8499 24.3553 16.3294 24.5187L20.7798 26.035C21.0758 26.1581 21.3938 26.2228 21.7146 26.2228C22.1687 26.2228 22.6279 26.0953 23.0353 25.8283Z" fill="white"/>
<path d="M16.7252 15.9985C16.9083 16.2779 17.2833 16.3562 17.5627 16.173C17.8422 15.9899 17.9203 15.6148 17.7372 15.3354C16.8854 14.0356 15.1352 13.6709 13.8354 14.5227C12.5356 15.3743 12.171 17.1247 13.0226 18.4245C13.1387 18.6018 13.332 18.698 13.5292 18.698C13.6428 18.698 13.7579 18.666 13.8601 18.599C14.1395 18.4159 14.2177 18.041 14.0346 17.7615C13.5486 17.0196 13.7566 16.0207 14.4984 15.5346C15.2402 15.0486 16.2391 15.2567 16.7252 15.9985Z" fill="white"/>
<path d="M11.7885 16.1322C11.9883 15.1728 12.5498 14.3487 13.3695 13.8116C14.1891 13.2744 15.1689 13.0887 16.1283 13.2885C17.0877 13.4883 17.9118 14.0498 18.4489 14.8695C18.6321 15.1489 19.007 15.2272 19.2865 15.044C19.5659 14.8609 19.644 14.4859 19.4609 14.2064C18.7467 13.1164 17.6508 12.3698 16.375 12.1041C15.0994 11.8384 13.7964 12.0854 12.7064 12.7996C11.6164 13.5138 10.8698 14.6097 10.6041 15.8855C10.3384 17.1613 10.5854 18.4641 11.2995 19.5541C11.4157 19.7313 11.6089 19.8276 11.8061 19.8276C11.9198 19.8276 12.0348 19.7956 12.1371 19.7285C12.4165 19.5454 12.4946 19.1704 12.3115 18.891C11.7744 18.0713 11.5886 17.0915 11.7885 16.1322Z" fill="white"/>
</svg>
