<svg width="15" height="10" viewBox="0 0 15 10" fill="none" xmlns="http://www.w3.org/2000/svg">
<path d="M0.716562 10C0.870682 10 1.02599 9.9532 1.15687 9.85662L2.53229 8.84199L3.57308 9.67364C3.78527 9.84294 4.06217 9.91784 4.33242 9.87974C4.60287 9.84139 4.84403 9.69272 4.99413 9.47184L7.05332 6.44039L8.45824 7.87914C8.65687 8.08244 8.93357 8.18679 9.2164 8.1656C9.49969 8.1444 9.75519 8.00027 9.91728 7.77L13.0145 3.37129L13.814 3.95931C13.9131 4.03227 14.0183 4.07081 14.118 4.07081C14.3156 4.07081 14.4601 3.92891 14.4953 3.70057L14.9927 0.464773C15.0152 0.318282 14.9854 0.195532 14.9065 0.109328C14.8003 -0.00646009 14.6148 -0.0331231 14.4193 0.0430125L11.2175 1.28996C11.0462 1.35665 10.9412 1.4674 10.9219 1.60177C10.9025 1.73621 10.9724 1.8694 11.1184 1.9768L11.8817 2.53809L9.07828 6.51964L7.66269 5.07001C7.46268 4.86516 7.1842 4.76168 6.89979 4.78468C6.61506 4.80823 6.36034 4.95622 6.20095 5.19071L4.08245 8.3096L3.22126 7.62152C2.84909 7.32407 2.2785 7.31356 1.89415 7.5971L0.275139 8.79146C-0.0363928 9.0213 -0.0916285 9.44611 0.15183 9.74027C0.293046 9.91081 0.503651 10 0.716562 10Z" fill="#00C620"/>
</svg>
