<svg width="21" height="21" viewBox="0 0 21 21" fill="none" xmlns="http://www.w3.org/2000/svg">
<path d="M20.9999 12.3529H18.307C18.097 13.2176 17.7634 14.0206 17.3064 14.7371L19.2087 16.6394L16.6146 19.2335L14.7123 17.3312C13.9958 17.7759 13.1928 18.1094 12.3528 18.3071V21H8.64697V18.3071C7.80697 18.1094 7.00403 17.7759 6.28756 17.3312L4.3852 19.2335L1.76638 16.6147L3.66873 14.7124C3.22403 13.9959 2.8905 13.1929 2.69285 12.3529H-9.15527e-05V8.68412H2.6805C2.87814 7.81941 3.22403 7.01647 3.66873 6.28765L1.76638 4.38529L4.3605 1.79118L6.26285 3.69353C6.97932 3.23647 7.79461 2.90294 8.64697 2.69294V0H12.3528V2.69294C13.1928 2.89059 13.9958 3.22412 14.7123 3.66882L16.6146 1.76647L19.2334 4.38529L17.3311 6.28765C17.7758 7.01647 18.1217 7.81941 18.3193 8.68412H20.9999V12.3529ZM10.4999 14.2059C12.5505 14.2059 14.2058 12.5506 14.2058 10.5C14.2058 8.44941 12.5505 6.79412 10.4999 6.79412C8.44932 6.79412 6.79403 8.44941 6.79403 10.5C6.79403 12.5506 8.44932 14.2059 10.4999 14.2059Z" fill="#002c8a"/>
</svg>
