<svg width="31" height="34" viewBox="0 0 31 34" fill="none" xmlns="http://www.w3.org/2000/svg">
<path d="M2.66669 8.49967V26.9163C2.66669 29.2636 4.56948 31.1663 6.91669 31.1663H21.0834C23.4306 31.1663 25.3334 29.2636 25.3334 26.9163V12.7497C25.3334 10.4025 23.4306 8.49967 21.0834 8.49967H2.66669ZM2.66669 8.49967V7.08301" stroke="#002c8a"/>
<path d="M22.5 8.50047V9.56297H23.5625V8.50047H22.5ZM4.18404 9.56297H22.5V7.43797H4.18404V9.56297ZM23.5625 8.50047V6.10067H21.4375V8.50047H23.5625ZM19.1157 2.24399L3.81919 4.42921L4.11971 6.53285L19.4162 4.34763L19.1157 2.24399ZM3.81919 4.42921C2.54823 4.61077 1.60419 5.69927 1.60419 6.98312H3.72919C3.72919 6.75677 3.89563 6.56486 4.11971 6.53285L3.81919 4.42921ZM23.5625 6.10067C23.5625 3.72986 21.4627 1.90871 19.1157 2.24399L19.4162 4.34763C20.4831 4.19523 21.4375 5.02302 21.4375 6.10067H23.5625ZM4.18404 7.43797C3.93283 7.43797 3.72919 7.23432 3.72919 6.98312H1.60419C1.60419 8.40793 2.75922 9.56297 4.18404 9.56297V7.43797Z" fill="#002c8a"/>
<path opacity="0.5" d="M8.33337 17H19.6667" stroke="#002c8a" stroke-linecap="round"/>
<path opacity="0.5" d="M8.33331 21.958H16.125" stroke="#002c8a" stroke-linecap="round"/>
</svg>
