<svg width="47" height="47" viewBox="0 0 47 47" fill="none" xmlns="http://www.w3.org/2000/svg">
<path fill-rule="evenodd" clip-rule="evenodd" d="M20.6095 21.357C20.6095 22.1092 20.9083 22.8307 21.4403 23.3626C21.9722 23.8946 22.6937 24.1934 23.4459 24.1934C24.1982 24.1934 24.9197 23.8946 25.4516 23.3626C25.9836 22.8307 26.2824 22.1092 26.2824 21.357C26.2824 20.6047 25.9836 19.8832 25.4516 19.3513C24.9197 18.8193 24.1982 18.5205 23.4459 18.5205C22.6937 18.5205 21.9722 18.8193 21.4403 19.3513C20.9083 19.8832 20.6095 20.6047 20.6095 21.357Z" fill="#002c8a"/>
<path fill-rule="evenodd" clip-rule="evenodd" d="M23.4577 9.39986C21.0943 9.37941 18.778 10.061 16.8023 11.3581C14.8266 12.6553 13.2804 14.5098 12.3596 16.6865C11.4388 18.8633 11.1849 21.2644 11.63 23.5856C12.0751 25.9068 13.1992 28.0436 14.8598 29.7254C16.5205 31.4071 18.643 32.5581 20.9584 33.0325C23.2738 33.5069 25.6779 33.2833 27.8661 32.39C30.0543 31.4968 31.9281 29.9742 33.2501 28.015C34.5722 26.0558 35.2829 23.7483 35.2923 21.3849C35.2923 14.9036 30.0095 9.39986 23.4577 9.39986ZM31.2503 25.2342L30.7051 26.1413C30.5934 26.305 30.4444 26.4398 30.2703 26.5346C30.0962 26.6294 29.9021 26.6814 29.704 26.6865C29.5638 26.6785 29.4258 26.6484 29.2951 26.5972L27.7958 26.005C27.155 26.5602 26.4129 26.9863 25.6103 27.2599L25.3377 28.9425C25.2857 29.2063 25.144 29.444 24.9367 29.6153C24.7294 29.7867 24.4692 29.881 24.2003 29.8825H23.0676C22.7987 29.881 22.5385 29.7867 22.3312 29.6153C22.1239 29.444 21.9822 29.2063 21.9302 28.9425L21.6576 27.2599C20.8838 27.0213 20.1705 26.619 19.5661 26.0802L17.9775 26.6724C17.8468 26.7236 17.7088 26.7537 17.5686 26.7617C17.3649 26.7574 17.1657 26.7007 16.9903 26.5969C16.815 26.4932 16.6693 26.3459 16.5675 26.1695L16.0223 25.2295C15.8864 24.9948 15.8392 24.7192 15.8892 24.4527C15.9392 24.1862 16.0832 23.9465 16.2949 23.7772L17.6109 22.6868C17.5232 22.2837 17.4775 21.8726 17.4746 21.4601C17.4777 21.0631 17.5234 20.6676 17.6109 20.2804L16.2949 19.19C16.0815 19.0218 15.9363 18.782 15.8862 18.5149C15.8361 18.2479 15.8844 17.9718 16.0223 17.7377L16.5675 16.7977C16.6648 16.6173 16.8095 16.4669 16.9858 16.3626C17.1622 16.2582 17.3637 16.2039 17.5686 16.2055C17.7088 16.2134 17.8468 16.2435 17.9775 16.2948L19.5661 16.887C20.1801 16.3504 20.8896 15.9343 21.6576 15.6603L21.9302 14.0717C21.9729 13.8056 22.1129 13.565 22.3231 13.3965C22.5333 13.228 22.7987 13.1436 23.0676 13.1599H24.205C24.4669 13.143 24.7261 13.2211 24.9351 13.38C25.144 13.5389 25.2886 13.7678 25.3424 14.0247L25.615 15.6603C26.3807 15.9173 27.0904 16.3177 27.7065 16.84L29.2951 16.2478C29.4258 16.1965 29.5638 16.1664 29.704 16.1585C29.9077 16.1627 30.1069 16.2195 30.2823 16.3232C30.4576 16.4269 30.6033 16.5742 30.7051 16.7507L31.2503 17.6907C31.3753 17.928 31.4165 18.2006 31.367 18.4643C31.3175 18.7279 31.1803 18.9671 30.9777 19.143L29.6617 20.2334C29.7519 20.636 29.7976 21.0474 29.798 21.4601C29.7949 21.857 29.7492 22.2525 29.6617 22.6398L30.9777 23.7302C31.1935 23.9083 31.3392 24.157 31.3891 24.4323C31.439 24.7076 31.3898 24.9917 31.2503 25.2342Z" fill="#002c8a"/>
<path fill-rule="evenodd" clip-rule="evenodd" d="M12.22 30.1787H11.6231C11.0334 30.1812 10.4687 30.4169 10.0522 30.8342C9.6357 31.2516 9.40124 31.8169 9.4 32.4065V35.3722C9.4 35.9622 9.63407 36.5282 10.0508 36.9458C10.4676 37.3635 11.0331 37.5988 11.6231 37.6H35.3769C35.9666 37.5975 36.5313 37.3619 36.9478 36.9445C37.3643 36.5271 37.5988 35.9619 37.6 35.3722V32.4065C37.6 31.8165 37.3659 31.2505 36.9492 30.8329C36.5324 30.4152 35.9669 30.18 35.3769 30.1787H34.6531C33.3291 31.8927 31.6298 33.2804 29.6858 34.2351C27.7417 35.1899 25.6047 35.6864 23.4389 35.6864C21.2731 35.6864 19.1361 35.1899 17.192 34.2351C15.248 33.2804 13.5487 31.8927 12.2247 30.1787H12.22Z" fill="#002c8a"/>
</svg>
