<svg width="34" height="34" viewBox="0 0 34 34" fill="none" xmlns="http://www.w3.org/2000/svg">
<path opacity="0.5" d="M4.25 14.1663C4.25 8.82375 4.25 6.15247 5.90972 4.49273C7.56946 2.83301 10.2407 2.83301 15.5833 2.83301H18.4167C23.7592 2.83301 26.4306 2.83301 28.0902 4.49273C29.75 6.15247 29.75 8.82375 29.75 14.1663V19.833C29.75 25.1755 29.75 27.8469 28.0902 29.5066C26.4306 31.1663 23.7592 31.1663 18.4167 31.1663H15.5833C10.2407 31.1663 7.56946 31.1663 5.90972 29.5066C4.25 27.8469 4.25 25.1755 4.25 19.833V14.1663Z" fill="#002c8a"/>
<path d="M23.4018 23.3768C23.6497 23.1834 23.8745 22.9586 24.3243 22.5088L29.9306 16.9025C30.0661 16.767 30.004 16.5336 29.823 16.4707C29.1612 16.2412 28.3003 15.8101 27.4951 15.0048C26.6899 14.1996 26.2588 13.3387 26.0293 12.677C25.9664 12.4959 25.7329 12.4338 25.5975 12.5694L19.9911 18.1756C19.5414 18.6254 19.3165 18.8502 19.1232 19.0982C18.8951 19.3907 18.6994 19.707 18.5399 20.0419C18.4046 20.3257 18.304 20.6275 18.103 21.2308L17.8431 22.0104L17.4298 23.25L17.0424 24.4124C16.9435 24.7093 17.0207 25.0365 17.242 25.258C17.4634 25.4793 17.7906 25.5565 18.0876 25.4576L19.2499 25.0701L20.4895 24.6569L21.2691 24.3969C21.8723 24.1959 22.1742 24.0953 22.458 23.96C22.7929 23.8005 23.1092 23.6049 23.4018 23.3768Z" fill="#002c8a"/>
<path d="M31.6859 15.1476C32.8825 13.951 32.8825 12.011 31.6859 10.8144C30.4894 9.61785 28.5494 9.61785 27.3527 10.8144L27.1725 10.9947C26.9985 11.1686 26.9198 11.4115 26.9633 11.6536C26.9906 11.8059 27.0412 12.0286 27.1334 12.2943C27.3177 12.8256 27.6658 13.5231 28.3216 14.1788C28.9772 14.8345 29.6748 15.1826 30.206 15.3669C30.4718 15.4591 30.6943 15.5097 30.8466 15.5371C31.0887 15.5805 31.3317 15.5018 31.5057 15.3278L31.6859 15.1476Z" fill="#002c8a"/>
<path fill-rule="evenodd" clip-rule="evenodd" d="M10.2708 12.75C10.2708 12.1632 10.7465 11.6875 11.3333 11.6875H20.5417C21.1285 11.6875 21.6042 12.1632 21.6042 12.75C21.6042 13.3368 21.1285 13.8125 20.5417 13.8125H11.3333C10.7465 13.8125 10.2708 13.3368 10.2708 12.75ZM10.2708 18.4167C10.2708 17.8299 10.7465 17.3542 11.3333 17.3542H15.5833C16.1701 17.3542 16.6458 17.8299 16.6458 18.4167C16.6458 19.0034 16.1701 19.4792 15.5833 19.4792H11.3333C10.7465 19.4792 10.2708 19.0034 10.2708 18.4167ZM10.2708 24.0833C10.2708 23.4965 10.7465 23.0208 11.3333 23.0208H13.4583C14.0451 23.0208 14.5208 23.4965 14.5208 24.0833C14.5208 24.6701 14.0451 25.1458 13.4583 25.1458H11.3333C10.7465 25.1458 10.2708 24.6701 10.2708 24.0833Z" fill="#002c8a"/>
</svg>
