<svg width="24" height="24" viewBox="0 0 24 24" fill="none" xmlns="http://www.w3.org/2000/svg">
<path d="M11.9834 7.19644C13.9706 7.19644 15.5816 5.58546 15.5816 3.59822C15.5816 1.61098 13.9706 0 11.9834 0C9.99611 0 8.38513 1.61098 8.38513 3.59822C8.38513 5.58546 9.99611 7.19644 11.9834 7.19644Z" fill="#002c8a"/>
<path d="M23.19 10H11.9999H0.809722C0.0104248 10 -0.309294 10.9714 0.370108 11.3989L6.20498 15.0514C6.48473 15.2457 6.64459 15.5954 6.52469 15.9063L4.32663 23.0171C4.08684 23.7943 5.12592 24.3383 5.7254 23.7554L11.4004 17.9268C11.7201 17.5771 12.2796 17.5771 12.5993 17.9268L18.2744 23.7554C18.8339 24.3383 19.8729 23.7943 19.6731 23.0171L17.4751 15.9063C17.3951 15.5954 17.515 15.2457 17.7948 15.0514L23.6296 11.3989C24.309 10.9714 23.9893 10 23.19 10Z" fill="#002c8a"/>
</svg>
