<svg width="29" height="29" viewBox="0 0 29 29" fill="none" xmlns="http://www.w3.org/2000/svg">
<path d="M23.2052 7.9859C23.2727 8.16278 23.3916 8.31493 23.5462 8.42241C23.7008 8.52989 23.8839 8.58769 24.0716 8.58825C24.1865 8.58737 24.3002 8.56503 24.407 8.52237C24.6364 8.43195 24.821 8.25349 24.9205 8.02599C25.02 7.79849 25.0263 7.54045 24.9381 7.30826C24.5071 6.19309 23.9032 5.15424 23.1493 4.23062C22.9873 4.05571 22.7655 3.94973 22.5289 3.93426C22.2924 3.91879 22.0589 3.99499 21.876 4.14735C21.6931 4.29971 21.5746 4.51677 21.5446 4.75432C21.5146 4.99186 21.5753 5.23203 21.7145 5.42591C22.3423 6.19416 22.8455 7.05825 23.2052 7.9859ZM20.1119 3.88238C20.359 3.88238 20.596 3.78322 20.7708 3.60672C20.9455 3.43022 21.0436 3.19082 21.0436 2.94121C21.0395 2.81466 21.0102 2.69025 20.9573 2.57543C20.9045 2.46061 20.8293 2.35774 20.7362 2.27298C20.6568 2.18595 20.5602 2.1167 20.4527 2.06969C20.3452 2.02268 20.2291 1.99895 20.1119 2.00004C19.8649 2.00004 19.6279 2.09919 19.4531 2.2757C19.2784 2.4522 19.1803 2.69159 19.1803 2.94121C19.1839 3.07703 19.2166 3.21045 19.2761 3.3323C19.3356 3.45415 19.4205 3.56154 19.525 3.64709C19.6876 3.79215 19.8951 3.87537 20.1119 3.88238ZM8 11.4118C8 12.7148 8.3825 13.9886 9.09912 15.072C9.81575 16.1554 10.8343 16.9999 12.026 17.4985C13.2177 17.9971 14.5291 18.1276 15.7942 17.8734C17.0593 17.6192 18.2213 16.9917 19.1334 16.0704C20.0455 15.149 20.6667 13.9751 20.9183 12.6971C21.17 11.4191 21.0408 10.0944 20.5472 8.89057C20.0536 7.68673 19.2177 6.6578 18.1451 5.93387C17.0726 5.20995 15.8117 4.82356 14.5218 4.82356C12.7921 4.82356 11.1333 5.51767 9.9102 6.7532C8.68712 7.98873 8 9.66447 8 11.4118ZM19.1803 11.4118C19.1803 12.3425 18.907 13.2523 18.3952 14.0262C17.8833 14.8001 17.1557 15.4033 16.3045 15.7594C15.4533 16.1156 14.5167 16.2088 13.613 16.0272C12.7094 15.8456 11.8793 15.3975 11.2278 14.7393C10.5763 14.0812 10.1326 13.2427 9.95289 12.3298C9.77314 11.417 9.86539 10.4708 10.218 9.61092C10.5706 8.75103 11.1677 8.01608 11.9337 7.49899C12.6998 6.9819 13.6005 6.70591 14.5218 6.70591C15.7573 6.70591 16.9422 7.2017 17.8158 8.08422C18.6895 8.96675 19.1803 10.1637 19.1803 11.4118Z" fill="#002c8a"/>
<path d="M28.7142 24.4441L23.3512 19.0758C25.125 16.9855 26.0978 14.3317 26.0955 11.5891C26.0955 11.3325 25.9937 11.0865 25.8125 10.9051C25.6313 10.7237 25.3855 10.6218 25.1292 10.6218C24.8729 10.6218 24.6272 10.7237 24.4459 10.9051C24.2647 11.0865 24.1629 11.3325 24.1629 11.5891C24.1617 13.1619 23.7774 14.7106 23.0432 16.1011C22.3091 17.4917 21.2473 18.682 19.9499 19.5691L18.9836 20.1494C17.6029 20.878 16.0656 21.2587 14.5048 21.2587C12.944 21.2587 11.4068 20.878 10.0261 20.1494L9.05978 19.5691C7.17752 18.271 5.81589 16.347 5.21678 14.139C4.61768 11.931 4.81989 9.58185 5.7875 7.50895C6.7551 5.43605 8.42545 3.77362 10.5018 2.81699C12.5781 1.86037 14.926 1.67149 17.1283 2.28392C17.2533 2.32935 17.3862 2.34848 17.5189 2.34012C17.6516 2.33176 17.7811 2.29609 17.8994 2.23534C18.0176 2.17459 18.1221 2.09006 18.2063 1.98704C18.2904 1.88403 18.3524 1.76474 18.3884 1.63664C18.4244 1.50854 18.4336 1.37439 18.4154 1.24257C18.3973 1.11075 18.3521 0.984101 18.2828 0.870542C18.2135 0.756984 18.1216 0.658958 18.0127 0.582598C17.9038 0.506237 17.7804 0.453184 17.6501 0.426755C15.2642 -0.239393 12.7279 -0.123244 10.4127 0.758188C8.09756 1.63962 6.12519 3.24001 4.78455 5.32492C3.4439 7.40984 2.80545 9.86971 2.96271 12.3442C3.11996 14.8187 4.06466 17.1777 5.65843 19.0758L0.285844 24.4441C0.149569 24.5794 0.0566305 24.7523 0.0188778 24.9406C-0.0188749 25.129 0.000268654 25.3244 0.073868 25.5018C0.147467 25.6793 0.272188 25.8307 0.432128 25.937C0.592069 26.0432 0.779982 26.0993 0.971912 26.0982H4.14135L4.88539 28.3422C4.93716 28.4993 5.0283 28.6405 5.1501 28.7523C5.2719 28.864 5.42031 28.9426 5.58112 28.9806L5.80337 29C5.93054 29.0007 6.05661 28.9763 6.17434 28.9282C6.29207 28.88 6.39915 28.8091 6.48944 28.7195L12.2292 22.9739C13.728 23.2759 15.272 23.2759 16.7708 22.9739L22.5106 28.7195C22.6009 28.8091 22.7079 28.88 22.8257 28.9282C22.9434 28.9763 23.0695 29.0007 23.1966 29H23.4189C23.5797 28.962 23.7281 28.8834 23.8499 28.7716C23.9717 28.6598 24.0628 28.5187 24.1146 28.3616L24.8586 26.0982H28.0281C28.22 26.0993 28.4079 26.0432 28.5679 25.937C28.7278 25.8307 28.8525 25.6793 28.9261 25.5018C28.9997 25.3244 29.0189 25.129 28.9811 24.9406C28.9434 24.7523 28.8504 24.5794 28.7142 24.4441ZM10.0454 22.4225L6.18023 26.2916L5.70674 24.8794C5.65468 24.6841 5.5428 24.51 5.38681 24.3816C5.23083 24.2532 5.03858 24.177 4.83708 24.1636H3.30068L6.91461 20.546L7.98719 21.1844C8.34198 21.4238 8.70973 21.6434 9.08876 21.8422L10.0454 22.4225ZM24.1629 24.1636C23.9603 24.1631 23.7627 24.2263 23.598 24.3443C23.4333 24.4624 23.3098 24.6292 23.2449 24.8214L22.7715 26.2336L18.9063 22.3645L19.8726 21.7938C20.2516 21.5951 20.6194 21.3755 20.9742 21.1361L22.0467 20.4977L25.6993 24.1636H24.1629Z" fill="#002c8a"/>
</svg>
