<svg width="10" height="10" viewBox="0 0 10 10" fill="none" xmlns="http://www.w3.org/2000/svg">
<path fill-rule="evenodd" clip-rule="evenodd" d="M7.08398 5C6.77348 5 6.52148 4.748 6.52148 4.4375C6.52148 4.127 6.77348 3.875 7.08398 3.875C7.39448 3.875 7.64648 4.127 7.64648 4.4375C7.64648 4.748 7.39448 5 7.08398 5ZM4.83398 5C4.52348 5 4.27148 4.748 4.27148 4.4375C4.27148 4.127 4.52348 3.875 4.83398 3.875C5.14448 3.875 5.39648 4.127 5.39648 4.4375C5.39648 4.748 5.14448 5 4.83398 5ZM2.58398 5C2.27348 5 2.02148 4.748 2.02148 4.4375C2.02148 4.127 2.27348 3.875 2.58398 3.875C2.89448 3.875 3.14648 4.127 3.14648 4.4375C3.14648 4.748 2.89448 5 2.58398 5ZM4.83398 0.5C2.34886 0.5 0.333984 2.26316 0.333984 4.4375C0.333984 5.68034 0.993516 6.78706 2.02148 7.50847V9.5L3.99277 8.30385C4.26558 8.34885 4.54627 8.375 4.83398 8.375C7.31911 8.375 9.33398 6.61212 9.33398 4.4375C9.33398 2.26316 7.31911 0.5 4.83398 0.5Z" fill="#007FF5"/>
</svg>
