<svg width="12" height="11" viewBox="0 0 12 11" fill="none" xmlns="http://www.w3.org/2000/svg">
<path d="M11.8267 9.78111C11.9015 9.67055 11.8846 9.51727 11.7788 9.37916L10.0482 7.11711C9.95556 6.99606 9.84002 6.93763 9.72288 6.9525C9.60567 6.96742 9.50844 7.05295 9.44909 7.19329L9.13925 7.926L5.19267 6.59683L6.11101 5.14579C6.24084 4.94077 6.26956 4.69656 6.18883 4.47551C6.10847 4.25458 5.92969 4.08555 5.69841 4.01183L2.62338 3.03215L3.01901 2.19294C3.18988 1.83013 3.07721 1.37462 2.7571 1.13335L1.40763 0.11663C1.14792 -0.0790166 0.778723 -0.0271645 0.583037 0.232555C0.469562 0.383194 0.439357 0.570617 0.484647 0.739639C0.517456 0.862085 0.589871 0.974895 0.698952 1.05711L1.84535 1.92082L1.3673 2.93495C1.26989 3.14174 1.2656 3.37864 1.35543 3.58467C1.44527 3.79086 1.62169 3.94888 1.83942 4.01829L4.82833 4.97053L3.91685 6.41072C3.788 6.61417 3.75888 6.85717 3.83705 7.07754C3.91515 7.29784 4.09091 7.46827 4.31913 7.54515L8.67932 9.01361L8.35471 9.78124C8.31445 9.87645 8.30442 9.96869 8.32566 10.048L8.32567 10.048C8.36771 10.2049 8.51782 10.2877 8.71742 10.2641L11.546 9.92963C11.6739 9.91456 11.771 9.86318 11.8267 9.78111Z" fill="#FF0000"/>
</svg>
