<svg width="22" height="22" viewBox="0 0 22 22" fill="none" xmlns="http://www.w3.org/2000/svg">
<path d="M22 11.0672C22 8.13199 20.8416 5.31701 18.7797 3.24151C16.7177 1.16601 13.9211 4.72473e-06 11.0051 4.72473e-06C8.23648 -0.00256885 5.56882 1.04631 3.53498 2.93714C1.50114 4.82797 0.250843 7.42153 0.0338441 10.1998C-0.183155 12.978 0.649117 15.7364 2.36441 17.9239C4.07971 20.1114 6.55175 21.567 9.28674 22V14.2656H6.49717V11.0672H9.28831V8.62925C9.28831 5.85613 10.9297 4.32253 13.4412 4.32253C14.6444 4.32253 15.9025 4.53913 15.9025 4.53913V7.26324H14.5156C13.1491 7.26324 12.725 8.117 12.725 8.99131V11.0672H15.7737L15.2868 14.2656H12.7234V22C15.3096 21.5878 17.6648 20.2602 19.3653 18.2561C21.0658 16.2519 22.0001 13.7028 22 11.0672Z" fill="#1877F2"/>
</svg>
