<svg width="13" height="10" viewBox="0 0 13 10" fill="none" xmlns="http://www.w3.org/2000/svg">
<path d="M12.5901 0.739852C12.5027 0.638899 12.3503 0.615631 12.1895 0.682071L9.5566 1.76825C9.41572 1.82636 9.32937 1.92284 9.31341 2.03984C9.29749 2.15692 9.35494 2.27298 9.47514 2.36662L10.1027 2.85554L7.79736 6.32363L6.63345 5.06103C6.46901 4.88256 6.24056 4.79162 6.00615 4.81238C5.77195 4.83282 5.56241 4.96176 5.43134 5.16608L3.68917 7.88277L2.98094 7.28342C2.67472 7.02447 2.20558 7.0154 1.88967 7.26216L0.558327 8.30251C0.302129 8.50273 0.256659 8.87276 0.456882 9.129C0.573018 9.2776 0.746238 9.35528 0.921222 9.35528C1.04799 9.35528 1.1757 9.31453 1.28334 9.23045L2.41433 8.34666L3.27017 9.07089C3.44471 9.21851 3.67242 9.28396 3.89468 9.25052C4.11711 9.21711 4.3154 9.0876 4.4388 8.89525L6.13218 6.25465L7.28738 7.50781C7.45055 7.68493 7.67773 7.77595 7.91083 7.75749C8.14384 7.73906 8.35395 7.6134 8.48728 7.41285L11.0342 3.58129L11.6917 4.09353C11.7732 4.15705 11.8597 4.19062 11.9418 4.19062H11.9418C12.1043 4.19062 12.2231 4.06706 12.2519 3.86815L12.661 1.04936C12.6795 0.921895 12.655 0.814828 12.5901 0.739852Z" fill="#00B907"/>
</svg>
