<svg width="22" height="22" viewBox="0 0 22 22" fill="none" xmlns="http://www.w3.org/2000/svg">
<g clip-path="url(#clip0_3084_3053)">
<path d="M5.57863 21.9222C4.27028 21.8627 3.55954 21.645 3.08681 21.4606C2.46043 21.2167 2.01385 20.9264 1.54373 20.4569C1.07362 19.9875 0.782655 19.5409 0.540078 18.9145C0.355693 18.4418 0.137962 17.731 0.0784617 16.4227C0.0130769 15.0084 0 14.5841 0 11.001C0 7.4179 0.0143846 6.9942 0.0778078 5.57863C0.137308 4.27028 0.356347 3.56085 0.539424 3.08681C0.783309 2.46043 1.07427 2.01385 1.54308 1.54308C2.01254 1.07362 2.45912 0.782001 3.08616 0.539424C3.55889 0.355039 4.26962 0.137308 5.57797 0.0778078C6.9929 0.0130769 7.4179 0 10.9997 0C14.5828 0 15.0065 0.0143846 16.422 0.0778078C17.7304 0.137308 18.4398 0.356347 18.9138 0.539424C19.5402 0.782001 19.9868 1.07362 20.4569 1.54308C20.927 2.01254 21.2167 2.45977 21.4606 3.08616C21.645 3.55889 21.8627 4.26962 21.9222 5.57797C21.9869 6.99355 22 7.41724 22 11.0003C22 14.5821 21.9869 15.0071 21.9222 16.4227C21.8627 17.731 21.6437 18.4418 21.4606 18.9145C21.2167 19.5409 20.9264 19.9875 20.4569 20.4569C19.9875 20.9264 19.5402 21.2167 18.9138 21.4606C18.4411 21.645 17.7304 21.8627 16.422 21.9222C15.0078 21.9869 14.5828 22 10.9997 22C7.4179 22 6.9929 21.9876 5.57863 21.9222Z" fill="url(#paint0_radial_3084_3053)"/>
<path d="M5.57863 21.9222C4.27028 21.8627 3.55954 21.645 3.08681 21.4606C2.46043 21.2167 2.01385 20.9264 1.54373 20.4569C1.07362 19.9875 0.782655 19.5409 0.540078 18.9145C0.355693 18.4418 0.137962 17.731 0.0784617 16.4227C0.0130769 15.0084 0 14.5841 0 11.001C0 7.4179 0.0143846 6.9942 0.0778078 5.57863C0.137308 4.27028 0.356347 3.56085 0.539424 3.08681C0.783309 2.46043 1.07427 2.01385 1.54308 1.54308C2.01254 1.07362 2.45912 0.782001 3.08616 0.539424C3.55889 0.355039 4.26962 0.137308 5.57797 0.0778078C6.9929 0.0130769 7.4179 0 10.9997 0C14.5828 0 15.0065 0.0143846 16.422 0.0778078C17.7304 0.137308 18.4398 0.356347 18.9138 0.539424C19.5402 0.782001 19.9868 1.07362 20.4569 1.54308C20.927 2.01254 21.2167 2.45977 21.4606 3.08616C21.645 3.55889 21.8627 4.26962 21.9222 5.57797C21.9869 6.99355 22 7.41724 22 11.0003C22 14.5821 21.9869 15.0071 21.9222 16.4227C21.8627 17.731 21.6437 18.4418 21.4606 18.9145C21.2167 19.5409 20.9264 19.9875 20.4569 20.4569C19.9875 20.9264 19.5402 21.2167 18.9138 21.4606C18.4411 21.645 17.7304 21.8627 16.422 21.9222C15.0078 21.9869 14.5828 22 10.9997 22C7.4179 22 6.9929 21.9876 5.57863 21.9222Z" fill="url(#paint1_radial_3084_3053)"/>
<path d="M8.29877 11.0461C8.29877 9.54157 9.51813 8.32156 11.0227 8.32156C12.5273 8.32156 13.7473 9.54157 13.7473 11.0461C13.7473 12.5507 12.5273 13.7707 11.0227 13.7707C9.51813 13.7707 8.29877 12.5507 8.29877 11.0461ZM6.82592 11.0461C6.82592 13.364 8.70481 15.2429 11.0227 15.2429C13.3406 15.2429 15.2195 13.364 15.2195 11.0461C15.2195 8.72825 13.3406 6.84935 11.0227 6.84935C8.70481 6.84935 6.82598 8.72812 6.82598 11.0461M14.4049 6.68295C14.4048 6.87693 14.4623 7.06657 14.57 7.2279C14.6777 7.38923 14.8308 7.515 15.01 7.58931C15.1892 7.66361 15.3864 7.68311 15.5766 7.64534C15.7669 7.60758 15.9417 7.51424 16.0789 7.37713C16.2161 7.24002 16.3096 7.0653 16.3475 6.87507C16.3855 6.68483 16.3661 6.48762 16.292 6.30838C16.2178 6.12914 16.0922 5.97591 15.9309 5.86808C15.7697 5.76025 15.5801 5.70265 15.3861 5.70257H15.3857C15.1257 5.70269 14.8763 5.80601 14.6925 5.98983C14.5086 6.17365 14.4051 6.42294 14.4049 6.68295ZM7.72077 17.6989C6.92393 17.6626 6.49082 17.5299 6.203 17.4177C5.82141 17.2692 5.54915 17.0923 5.26289 16.8064C4.97664 16.5205 4.79945 16.2485 4.65155 15.867C4.53935 15.5793 4.40662 15.146 4.37039 14.3492C4.33077 13.4877 4.32286 13.2289 4.32286 11.0463C4.32286 8.86366 4.33142 8.60559 4.37039 7.74336C4.40668 6.94652 4.54039 6.51413 4.65155 6.22558C4.8001 5.844 4.97703 5.57174 5.26289 5.28548C5.54876 4.99923 5.82076 4.82203 6.203 4.67413C6.49069 4.56193 6.92393 4.4292 7.72077 4.39298C8.58228 4.35336 8.84107 4.34545 11.0227 4.34545C13.2043 4.34545 13.4634 4.35388 14.3256 4.39311C15.1225 4.4294 15.5548 4.56311 15.8434 4.67427C16.225 4.82217 16.4972 4.99975 16.7835 5.28561C17.0697 5.57147 17.2463 5.84413 17.3948 6.22571C17.507 6.51341 17.6398 6.94665 17.676 7.74349C17.7156 8.60572 17.7235 8.86379 17.7235 11.0464C17.7235 13.229 17.7156 13.4871 17.676 14.3493C17.6397 15.1462 17.5063 15.5793 17.3948 15.8671C17.2463 16.2487 17.0693 16.5209 16.7835 16.8065C16.4976 17.0921 16.225 17.2693 15.8434 17.4179C15.5557 17.5301 15.1225 17.6628 14.3256 17.699C13.4641 17.7387 13.2053 17.7466 11.0227 17.7466C8.84009 17.7466 8.58202 17.7387 7.72077 17.699M7.6531 2.92254C6.78302 2.96217 6.18848 3.10013 5.66926 3.30217C5.13186 3.51081 4.67633 3.79072 4.22145 4.24488C3.76656 4.69905 3.48737 5.15465 3.27873 5.6927C3.07669 6.21224 2.93873 6.80646 2.89911 7.67654C2.85883 8.54798 2.84961 8.82659 2.84961 11.0461C2.84961 13.2657 2.85883 13.5443 2.89911 14.4157C2.93873 15.2859 3.07669 15.88 3.27873 16.3996C3.48737 16.937 3.76663 17.3934 4.22145 17.8474C4.67626 18.3014 5.13121 18.5809 5.66926 18.7901C6.18946 18.9921 6.78302 19.1301 7.6531 19.1697C8.525 19.2094 8.80315 19.2192 11.0227 19.2192C13.2423 19.2192 13.5209 19.21 14.3923 19.1697C15.2624 19.1301 15.8566 18.9921 16.3761 18.7901C16.9135 18.5809 17.3691 18.3016 17.824 17.8474C18.2788 17.3932 18.5574 16.937 18.7667 16.3996C18.9687 15.88 19.1073 15.2858 19.1463 14.4157C19.1859 13.5436 19.1951 13.2657 19.1951 11.0461C19.1951 8.82659 19.1859 8.54798 19.1463 7.67654C19.1067 6.8064 18.9687 6.21192 18.7667 5.6927C18.5574 5.1553 18.2781 4.69977 17.824 4.24488C17.3698 3.79 16.9135 3.51081 16.3768 3.30217C15.8566 3.10013 15.2624 2.96151 14.393 2.92254C13.5214 2.88272 13.2429 2.87305 11.0237 2.87305C8.80446 2.87305 8.52533 2.88227 7.65343 2.92254" fill="white"/>
</g>
<defs>
<radialGradient id="paint0_radial_3084_3053" cx="0" cy="0" r="1" gradientUnits="userSpaceOnUse" gradientTransform="translate(1.42382 21.518) scale(27.9318)">
<stop offset="0.09" stop-color="#FA8F21"/>
<stop offset="0.78" stop-color="#D82D7E"/>
</radialGradient>
<radialGradient id="paint1_radial_3084_3053" cx="0" cy="0" r="1" gradientUnits="userSpaceOnUse" gradientTransform="translate(15.2386 20.8116) scale(24.5803)">
<stop offset="0.64" stop-color="#8C3AAA" stop-opacity="0"/>
<stop offset="1" stop-color="#8C3AAA"/>
</radialGradient>
<clipPath id="clip0_3084_3053">
<rect width="22" height="22" fill="white"/>
</clipPath>
</defs>
</svg>
