<svg width="16" height="15" viewBox="0 0 16 15" fill="none" xmlns="http://www.w3.org/2000/svg">
<path d="M8 4.5C9.24264 4.5 10.25 3.49264 10.25 2.25C10.25 1.00736 9.24264 0 8 0C6.75736 0 5.75 1.00736 5.75 2.25C5.75 3.49264 6.75736 4.5 8 4.5Z" fill="#007FF5"/>
<path d="M15.0007 6H8.00074H1.00074C0.500738 6 0.300738 6.625 0.725738 6.9L4.37574 9.25C4.55074 9.375 4.65074 9.6 4.57574 9.8L3.20074 14.375C3.05074 14.875 3.70074 15.225 4.07574 14.85L7.62574 11.1C7.82574 10.875 8.17574 10.875 8.37574 11.1L11.9257 14.85C12.2757 15.225 12.9257 14.875 12.8007 14.375L11.4257 9.8C11.3757 9.6 11.4507 9.375 11.6257 9.25L15.2757 6.9C15.7007 6.625 15.5007 6 15.0007 6Z" fill="#007FF5"/>
</svg>
