<svg width="23" height="22" viewBox="0 0 23 22" fill="none" xmlns="http://www.w3.org/2000/svg">
<path d="M19.5979 18.3937H16.1901V13.52C16.1901 12.358 16.1671 10.8617 14.4172 10.8617C12.6423 10.8617 12.3702 12.1287 12.3702 13.4342V18.3937H8.96233V8.3715H12.2341V9.74174H12.2801C12.9471 8.70225 14.1891 8.07925 15.5077 8.123C18.9616 8.123 19.5998 10.1967 19.5998 12.897L19.5979 18.392V18.3937ZM5.1175 7.00125C4.59401 6.99896 4.09265 6.80818 3.7223 6.47037C3.35195 6.13255 3.14252 5.67497 3.1395 5.19701C3.1395 4.20651 4.03267 3.39102 5.1175 3.39102C6.20233 3.39102 7.09358 4.20651 7.0955 5.19701C7.0955 6.1875 6.20233 7.00125 5.1175 7.00125ZM6.82142 18.3937H3.40975V8.3715H6.82142V18.3937ZM21.2942 0.500026H1.69625C1.25187 0.497669 0.82443 0.65553 0.506811 0.939303C0.189192 1.22308 0.00706227 1.60983 0 2.01552V19.9845C0.00706227 20.3901 0.189192 20.7769 0.506811 21.0607C0.82443 21.3444 1.25187 21.5023 1.69625 21.4999H21.2961C21.7415 21.5032 22.1703 21.3459 22.4894 21.0621C22.8084 20.7784 22.9919 20.3911 23 19.9845V2.01377C22.9919 1.60747 22.8083 1.22055 22.4891 0.93733C22.17 0.654111 21.7411 0.497553 21.2961 0.501776L21.2942 0.500026Z" fill="#1EA1FF"/>
</svg>
