<svg width="17" height="17" viewBox="0 0 17 17" fill="none" xmlns="http://www.w3.org/2000/svg">
<path fill-rule="evenodd" clip-rule="evenodd" d="M6.16667 5.5C5.79848 5.5 5.5 5.79848 5.5 6.16667V10.8333C5.5 11.2015 5.79848 11.5 6.16667 11.5H10.8333C11.2015 11.5 11.5 11.2015 11.5 10.8333V6.16667C11.5 5.79848 11.2015 5.5 10.8333 5.5H6.16667ZM6.83333 10.1667V6.83333H10.1667V10.1667H6.83333Z" fill="#007FF5"/>
<path fill-rule="evenodd" clip-rule="evenodd" d="M8.49935 1.16602C4.44926 1.16602 1.16602 4.44926 1.16602 8.49935C1.16602 12.5494 4.44926 15.8327 8.49935 15.8327C12.5494 15.8327 15.8327 12.5494 15.8327 8.49935C15.8327 4.44926 12.5494 1.16602 8.49935 1.16602ZM2.49935 8.49935C2.49935 5.18564 5.18564 2.49935 8.49935 2.49935C11.8131 2.49935 14.4993 5.18564 14.4993 8.49935C14.4993 11.8131 11.8131 14.4993 8.49935 14.4993C5.18564 14.4993 2.49935 11.8131 2.49935 8.49935Z" fill="#007FF5"/>
</svg>
