<svg width="15" height="15" viewBox="0 0 15 15" fill="none" xmlns="http://www.w3.org/2000/svg">
<path d="M10.416 1.95898V13.0423" stroke="#007FF5" stroke-linecap="round"/>
<path d="M4.58398 1.95898V13.0423" stroke="#007FF5" stroke-linecap="round"/>
<path d="M1.66602 7.5H4.58268M13.3327 7.5H10.416" stroke="#007FF5" stroke-linecap="round"/>
<path d="M1.95898 4.58398H4.58398M13.0423 4.58398H10.4173" stroke="#007FF5" stroke-linecap="round"/>
<path d="M13.041 10.8535C13.2826 10.8535 13.4785 10.6576 13.4785 10.416C13.4785 10.1744 13.2826 9.97852 13.041 9.97852V10.8535ZM10.416 9.97852C10.1744 9.97852 9.97852 10.1744 9.97852 10.416C9.97852 10.6576 10.1744 10.8535 10.416 10.8535V9.97852ZM4.58268 10.8535C4.8243 10.8535 5.02018 10.6576 5.02018 10.416C5.02018 10.1744 4.8243 9.97852 4.58268 9.97852V10.8535ZM10.416 10.8535H13.041V9.97852H10.416V10.8535ZM1.66602 10.8535H4.58268V9.97852H1.66602V10.8535Z" fill="#007FF5"/>
<path d="M8.66732 7.49935C8.66732 7.19147 8.35838 6.9838 7.74052 6.56852C7.11419 6.1476 6.801 5.93712 6.56749 6.09166C6.33398 6.2462 6.33398 6.6639 6.33398 7.49935C6.33398 8.3348 6.33398 8.75252 6.56749 8.90705C6.801 9.06157 7.11419 8.85111 7.74052 8.43017C8.35838 8.0149 8.66732 7.80723 8.66732 7.49935Z" stroke="#007FF5" stroke-linecap="round"/>
<path d="M1.66602 7.49935C1.66602 4.74949 1.66602 3.37456 2.52029 2.52029C3.37456 1.66602 4.74949 1.66602 7.49935 1.66602C10.2492 1.66602 11.6242 1.66602 12.4784 2.52029C12.9547 2.99656 13.1654 3.63468 13.2587 4.58268M13.3327 7.49935C13.3327 10.2492 13.3327 11.6242 12.4784 12.4784C11.6242 13.3327 10.2492 13.3327 7.49935 13.3327C4.74949 13.3327 3.37456 13.3327 2.52029 12.4784C2.04401 12.0022 1.83327 11.364 1.74002 10.416" stroke="#007FF5" stroke-linecap="round"/>
</svg>
