<svg width="13" height="13" viewBox="0 0 13 13" fill="none" xmlns="http://www.w3.org/2000/svg">
<path d="M4.55736 5.02291C5.92874 5.02291 7.04444 3.90725 7.04444 2.53591C7.04444 1.16453 5.92874 0.0488281 4.55736 0.0488281C3.18597 0.0488281 2.07031 1.16453 2.07031 2.53591C2.07031 3.90725 3.18597 5.02291 4.55736 5.02291ZM4.55736 1.23785C5.27311 1.23785 5.85541 1.82016 5.85541 2.53591C5.85541 3.25162 5.27311 3.83389 4.55736 3.83389C3.8416 3.83389 3.25934 3.25162 3.25934 2.53591C3.25934 1.82016 3.8416 1.23785 4.55736 1.23785Z" fill="#007AFF"/>
<path d="M9.05986 7.17806C8.82768 6.94588 8.45128 6.94584 8.2191 7.17802C7.98692 7.41016 7.98692 7.7866 8.21906 8.01878L8.98768 8.78748L8.21906 9.55607C7.98688 9.78821 7.98688 10.1646 8.21902 10.3968C8.33511 10.5129 8.48726 10.571 8.63942 10.571C8.79153 10.571 8.94373 10.513 9.05982 10.3969L10.2488 9.20792C10.3603 9.09643 10.423 8.94523 10.423 8.78756C10.423 8.6299 10.3603 8.47869 10.2488 8.36716L9.05986 7.17806Z" fill="#007AFF"/>
<path d="M8.83841 4.62695C7.47151 4.62695 6.25649 5.28948 5.49738 6.31022C5.1897 6.24569 4.87532 6.21232 4.55793 6.21232C2.04469 6.21232 0 8.257 0 10.7702C0 11.0986 0.266183 11.3648 0.594512 11.3648H5.5724C6.33524 12.3298 7.5157 12.9501 8.83841 12.9501C11.1331 12.9501 13 11.0832 13 8.78854C13 6.49384 11.1331 4.62695 8.83841 4.62695ZM1.24154 10.1757C1.52318 8.60071 2.90312 7.40134 4.55793 7.40134C4.67544 7.40134 4.79232 7.40788 4.90833 7.41985C4.75855 7.84869 4.67683 8.30924 4.67683 8.78854C4.67683 9.27477 4.76093 9.74162 4.91487 10.1757H1.24154ZM8.83841 11.7611C7.19934 11.7611 5.86585 10.4276 5.86585 8.78854C5.86585 7.14947 7.19934 5.81598 8.83841 5.81598C10.4775 5.81598 11.811 7.14947 11.811 8.78854C11.811 10.4276 10.4775 11.7611 8.83841 11.7611Z" fill="#007AFF"/>
</svg>
