<svg width="16" height="17" viewBox="0 0 16 17" fill="none" xmlns="http://www.w3.org/2000/svg">
<path d="M2.67038 5.78808C2.62216 7.06016 2.9441 9.22048 5.11115 11.3875C5.63396 11.9103 6.15637 12.3257 6.66602 12.6545M3.69122 3.79084C4.61986 2.8622 6.10146 2.98698 6.69108 4.04346L7.12375 4.81875C7.51422 5.5184 7.35748 6.43623 6.74248 7.05122C6.74248 7.05122 5.9966 7.79722 7.34902 9.14968C8.70102 10.5017 9.44748 9.75622 9.44748 9.75622C10.0625 9.14122 10.9803 8.98448 11.68 9.37495L12.4552 9.80762C13.5117 10.3972 13.6365 11.8788 12.7079 12.8075C12.1499 13.3655 11.4663 13.7997 10.7106 13.8283C10.1679 13.8489 9.46355 13.8021 8.66602 13.5734" stroke="#FAFAFA" stroke-linecap="round"/>
</svg>
