<svg width="14" height="15" viewBox="0 0 14 15" fill="none" xmlns="http://www.w3.org/2000/svg">
<path d="M13.4101 1.96914H12.518V1.09053C12.518 0.927298 12.4604 0.788066 12.3453 0.67284C12.2302 0.557613 12.0911 0.5 11.9281 0.5H10.6763C10.5132 0.5 10.3741 0.557613 10.259 0.67284C10.1439 0.788066 10.0863 0.927298 10.0863 1.09053V1.96914H9.19424C9.03118 1.96914 8.89209 2.02675 8.77698 2.14198C8.66187 2.2572 8.60432 2.39643 8.60432 2.55967V2.61728C7.82734 2.29081 7.01679 2.12757 6.17266 2.12757C5.05995 2.12757 4.01918 2.41084 3.05036 2.97737C2.1199 3.52469 1.38129 4.26406 0.834532 5.19547C0.278177 6.15569 0 7.19513 0 8.31379C0 9.43244 0.278177 10.4719 0.834532 11.4321C1.38129 12.3731 2.1199 13.1173 3.05036 13.6646C4.01918 14.2215 5.06235 14.5 6.17986 14.5C7.29736 14.5 8.33573 14.2215 9.29496 13.6646C10.2254 13.1173 10.964 12.3731 11.5108 11.4321C12.0767 10.4719 12.3597 9.43484 12.3597 8.32099C12.3597 7.47599 12.1966 6.66941 11.8705 5.90123H11.9281C12.0911 5.90123 12.2302 5.84362 12.3453 5.72839C12.4604 5.61317 12.518 5.47394 12.518 5.3107V4.4177H13.4101C13.5731 4.4177 13.7122 4.36008 13.8273 4.24486C13.9424 4.12963 14 3.9904 14 3.82716V2.55967C14 2.39643 13.9424 2.2572 13.8273 2.14198C13.7122 2.02675 13.5731 1.96914 13.4101 1.96914ZM8.89209 5.48354C9.17026 5.48354 9.40767 5.58196 9.60432 5.77881C9.80096 5.97565 9.89928 6.21091 9.89928 6.48457C9.89928 6.75823 9.80096 6.99348 9.60432 7.19033C9.40767 7.38717 9.17026 7.4856 8.89209 7.4856C8.61391 7.4856 8.3765 7.38717 8.17986 7.19033C7.98321 6.99348 7.88489 6.75823 7.88489 6.48457C7.88489 6.21091 7.98321 5.97565 8.17986 5.77881C8.3765 5.58196 8.61391 5.48354 8.89209 5.48354ZM3.46763 5.48354C3.7458 5.48354 3.98321 5.58196 4.17986 5.77881C4.3765 5.97565 4.47482 6.21091 4.47482 6.48457C4.47482 6.75823 4.3765 6.99348 4.17986 7.19033C3.98321 7.38717 3.7458 7.4856 3.46763 7.4856C3.18945 7.4856 2.95204 7.38717 2.7554 7.19033C2.55875 6.99348 2.46043 6.75823 2.46043 6.48457C2.46043 6.21091 2.55875 5.97565 2.7554 5.77881C2.95204 5.58196 3.18945 5.48354 3.46763 5.48354ZM10.2734 9.15638C10.1775 9.82853 9.93525 10.4359 9.54676 10.9784C9.15827 11.5209 8.66906 11.9458 8.07914 12.2531C7.48921 12.5604 6.85612 12.714 6.17986 12.714C5.5036 12.714 4.8705 12.5604 4.28058 12.2531C3.69065 11.9458 3.20144 11.5209 2.81295 10.9784C2.42446 10.4359 2.18225 9.82853 2.08633 9.15638C2.06715 9.00274 2.10791 8.87071 2.20863 8.76029C2.30935 8.64986 2.43645 8.59465 2.58993 8.59465H9.76978C9.92326 8.59465 10.0504 8.64986 10.1511 8.76029C10.2518 8.87071 10.2926 9.00274 10.2734 9.15638ZM13.4101 3.82716H11.9281V5.3107H10.6763V3.82716H9.19424V2.55967H10.6763V1.09053H11.9281V2.55967H13.4101V3.82716Z" fill="#007FF5"/>
</svg>
