<svg width="10" height="10" viewBox="0 0 10 10" fill="none" xmlns="http://www.w3.org/2000/svg">
<path d="M7.57143 3.75C8.63658 3.75 9.5 2.91053 9.5 1.875C9.5 0.839469 8.63658 0 7.57143 0C6.50631 0 5.64286 0.839469 5.64286 1.875C5.64286 2.01482 5.6586 2.15106 5.68845 2.28214L3.62982 3.53304C3.30028 3.27764 2.88276 3.125 2.42857 3.125C1.36345 3.125 0.5 3.96447 0.5 5C0.5 6.03553 1.36345 6.875 2.42857 6.875C2.88276 6.875 3.30028 6.72238 3.62982 6.46694L5.68845 7.71788C5.6586 7.84894 5.64286 7.98519 5.64286 8.125C5.64286 9.16056 6.50631 10 7.57143 10C8.63658 10 9.5 9.16056 9.5 8.125C9.5 7.08944 8.63658 6.25 7.57143 6.25C7.11725 6.25 6.69971 6.40262 6.37018 6.65806L4.31155 5.40714C4.3414 5.27606 4.35714 5.13982 4.35714 5C4.35714 4.86018 4.3414 4.72394 4.31155 4.59286L6.37018 3.34196C6.69971 3.59736 7.11725 3.75 7.57143 3.75Z" fill="#007FF5"/>
</svg>
