<svg width="17" height="17" viewBox="0 0 17 17" fill="none" xmlns="http://www.w3.org/2000/svg">
<path d="M12.75 13.3592H12.2117C11.645 13.3592 11.1067 13.5788 10.71 13.9754L9.49875 15.1725C8.94625 15.7179 8.04667 15.7179 7.49417 15.1725L6.28292 13.9754C5.88625 13.5788 5.34083 13.3592 4.78125 13.3592H4.25C3.07417 13.3592 2.125 12.4172 2.125 11.2555V3.52756C2.125 2.36589 3.07417 1.42383 4.25 1.42383H12.75C13.9258 1.42383 14.875 2.36589 14.875 3.52756V11.2555C14.875 12.4101 13.9258 13.3592 12.75 13.3592Z" stroke="#007FF5" stroke-miterlimit="10" stroke-linecap="round" stroke-linejoin="round"/>
<path opacity="0.4" d="M8.69833 10.5973C8.59208 10.6327 8.415 10.6327 8.30167 10.5973C7.38083 10.2786 5.3125 8.96815 5.3125 6.73691C5.3125 5.75232 6.10583 4.95898 7.08333 4.95898C7.66417 4.95898 8.17417 5.23523 8.5 5.66732C8.82583 5.23523 9.33583 4.95898 9.91667 4.95898C10.8942 4.95898 11.6875 5.75232 11.6875 6.73691C11.6804 8.96815 9.61917 10.2786 8.69833 10.5973Z" stroke="#007FF5" stroke-linecap="round" stroke-linejoin="round"/>
</svg>
