<svg width="17" height="17" viewBox="0 0 17 17" fill="none" xmlns="http://www.w3.org/2000/svg">
<path d="M4.97461 8.04906L7.07461 1.74906C7.0989 1.69461 7.13377 1.64554 7.1772 1.60468C7.22062 1.56383 7.27173 1.53201 7.32755 1.51107C7.38338 1.49014 7.4428 1.48051 7.50238 1.48274C7.56196 1.48497 7.6205 1.49901 7.67461 1.52406L8.42461 1.89906C8.74041 2.06336 9.00521 2.31097 9.1903 2.61505C9.37539 2.91913 9.47372 3.26808 9.47461 3.62406V6.54906H14.2746C14.5012 6.55319 14.7239 6.60861 14.9261 6.71116C15.1282 6.81372 15.3044 6.96074 15.4415 7.14119C15.5787 7.32163 15.6732 7.53081 15.7178 7.753C15.7625 7.97519 15.7563 8.20462 15.6996 8.42406L14.1996 14.4241C14.1177 14.7416 13.934 15.0235 13.6766 15.2266C13.4193 15.4298 13.1024 15.5431 12.7746 15.5491H2.72461C2.32678 15.5491 1.94525 15.391 1.66395 15.1097C1.38264 14.8284 1.22461 14.4469 1.22461 14.0491V9.54906C1.22461 9.15123 1.38264 8.7697 1.66395 8.4884C1.94525 8.2071 2.32678 8.04906 2.72461 8.04906H4.97461ZM4.97461 8.04906V15.5491" stroke="#007FF5" stroke-linecap="round" stroke-linejoin="round"/>
</svg>
