<svg width="17" height="17" viewBox="0 0 17 17" fill="none" xmlns="http://www.w3.org/2000/svg">
<path d="M8.50084 0.894725C8.64912 0.894725 8.76925 0.774529 8.76925 0.626311V0.268414C8.76925 0.120195 8.64912 0 8.50084 0C8.35255 0 8.23242 0.120195 8.23242 0.268414V0.626311C8.23242 0.774563 8.35255 0.894725 8.50084 0.894725Z" fill="#007FF5"/>
<path d="M8.50084 16.1055C8.35255 16.1055 8.23242 16.2257 8.23242 16.3739V16.7318C8.23242 16.88 8.35258 17.0002 8.50084 17.0002C8.64912 17.0002 8.76925 16.88 8.76925 16.7318V16.3739C8.76925 16.2256 8.64912 16.1055 8.50084 16.1055Z" fill="#007FF5"/>
<path d="M2.74185 13.8774L2.48877 14.1305C2.38395 14.2353 2.38395 14.4053 2.48877 14.5101C2.5412 14.5625 2.60993 14.5887 2.6786 14.5887C2.74726 14.5887 2.81599 14.5625 2.86842 14.5101L3.12149 14.257C3.22631 14.1522 3.22631 13.9822 3.12149 13.8774C3.01667 13.7726 2.84677 13.7726 2.74185 13.8774Z" fill="#007FF5"/>
<path d="M2.74181 3.12143C2.79424 3.17385 2.86297 3.20005 2.93164 3.20005C3.0003 3.20005 3.06903 3.17382 3.12146 3.12143C3.22628 3.01664 3.22628 2.84667 3.12146 2.74185L2.86838 2.48877C2.76356 2.38395 2.59363 2.38395 2.48877 2.48877C2.38395 2.59356 2.38395 2.76353 2.48877 2.86835L2.74181 3.12143Z" fill="#007FF5"/>
<path d="M14.0672 3.20005C14.1359 3.20005 14.2046 3.17382 14.2571 3.12143L14.5101 2.86835C14.615 2.76356 14.615 2.5936 14.5101 2.48877C14.4053 2.38395 14.2354 2.38395 14.1305 2.48877L13.8774 2.74185C13.7726 2.84664 13.7726 3.0166 13.8774 3.12143C13.9299 3.17382 13.9985 3.20005 14.0672 3.20005Z" fill="#007FF5"/>
<path d="M14.2571 13.8774C14.1522 13.7726 13.9823 13.7726 13.8774 13.8774C13.7726 13.9822 13.7726 14.1522 13.8774 14.257L14.1305 14.5101C14.1829 14.5625 14.2517 14.5887 14.3203 14.5887C14.389 14.5887 14.4577 14.5625 14.5102 14.5101C14.615 14.4053 14.615 14.2353 14.5102 14.1305L14.2571 13.8774Z" fill="#007FF5"/>
<path d="M15.3 6.79958H14.9929C14.6327 5.42298 13.8297 4.17892 12.7154 3.27819C11.5275 2.31792 10.0304 1.78906 8.5 1.78906C6.96957 1.78906 5.47251 2.31792 4.2846 3.27819C3.17033 4.17892 2.36732 5.42298 2.00706 6.79958H1.7C0.762643 6.79958 0 7.56222 0 8.49958C0 9.43694 0.762643 10.1996 1.7 10.1996H2.00706C2.36728 11.5762 3.17033 12.8202 4.2846 13.721C5.47247 14.6812 6.96957 15.2101 8.5 15.2101C10.0304 15.2101 11.5275 14.6812 12.7154 13.721C13.8297 12.8202 14.6327 11.5762 14.9929 10.1996H15.3C16.2374 10.1996 17 9.43694 17 8.49958C17 7.56222 16.2374 6.79958 15.3 6.79958ZM15.3 9.66275H14.7822C14.6568 9.66275 14.5482 9.74951 14.5204 9.87177C13.8789 12.6988 11.4032 14.6733 8.5 14.6733C5.59675 14.6733 3.12106 12.6988 2.47958 9.87173C2.45185 9.74948 2.34314 9.66272 2.2178 9.66272H1.7C1.05862 9.66272 0.536828 9.1409 0.536828 8.49955C0.536828 7.8582 1.05862 7.33638 1.7 7.33638H2.2178C2.34318 7.33638 2.45182 7.24962 2.47958 7.12736C3.12106 4.30031 5.59675 2.32589 8.5 2.32589C11.4032 2.32589 13.8789 4.30031 14.5204 7.1274C14.5481 7.24965 14.6569 7.33641 14.7822 7.33641H15.3C15.9414 7.33641 16.4632 7.85823 16.4632 8.49958C16.4632 9.14093 15.9414 9.66275 15.3 9.66275Z" fill="#007FF5"/>
<path d="M11.0055 4.29492C10.6512 4.29492 10.322 4.40399 10.0493 4.59016C9.55642 4.3944 9.03616 4.29492 8.5002 4.29492C6.18139 4.29492 4.29492 6.18139 4.29492 8.5002C4.29492 10.819 6.18139 12.7055 8.5002 12.7055C10.819 12.7055 12.7055 10.819 12.7055 8.5002C12.7055 7.9643 12.606 7.44397 12.4102 6.95107C12.5964 6.67847 12.7055 6.34923 12.7055 5.99492C12.7055 5.05756 11.9428 4.29492 11.0055 4.29492ZM8.5002 12.1686C6.47743 12.1686 4.83178 10.523 4.83178 8.5002C4.83178 6.47743 6.47743 4.83178 8.5002 4.83178C8.88589 4.83178 9.26224 4.89055 9.62339 5.0069C9.42358 5.2856 9.30547 5.62663 9.30547 5.99492C9.30547 6.93228 10.0681 7.69492 11.0055 7.69492C11.3738 7.69492 11.7148 7.57682 11.9935 7.377C12.1098 7.73815 12.1686 8.11448 12.1686 8.5002C12.1686 10.523 10.523 12.1686 8.5002 12.1686ZM11.0055 7.15809C10.3641 7.15809 9.8423 6.63627 9.8423 5.99492C9.8423 5.35357 10.3641 4.83175 11.0055 4.83175C11.6469 4.83175 12.1686 5.35357 12.1686 5.99492C12.1686 6.63627 11.6469 7.15809 11.0055 7.15809Z" fill="#007FF5"/>
<path d="M8.4421 6.62156C8.44443 6.62156 8.44682 6.62153 8.44917 6.62149C8.46574 6.62106 8.48234 6.62086 8.49841 6.62086L8.50376 6.62106C8.50974 6.62126 8.51571 6.62146 8.52172 6.62153C8.67094 6.62382 8.79083 6.50488 8.79289 6.35683C8.79492 6.20878 8.67628 6.08702 8.52823 6.0847L8.52298 6.08453C8.4939 6.0835 8.46445 6.0841 8.43529 6.08487C8.28708 6.08872 8.1701 6.21197 8.17392 6.36015C8.1777 6.50595 8.29707 6.62159 8.4421 6.62156Z" fill="#007FF5"/>
<path d="M10.9148 8.47027C10.9131 8.32311 10.7932 8.20508 10.6465 8.20508C10.6455 8.20508 10.6443 8.20508 10.6432 8.20508C10.495 8.20687 10.3763 8.32849 10.3781 8.47671C10.3781 8.48276 10.3783 8.48873 10.3785 8.49471L10.3787 8.49942C10.3787 9.53549 9.53578 10.3784 8.49978 10.3784C7.46377 10.3784 6.62085 9.53549 6.62085 8.49942C6.62085 7.90094 6.89617 7.35199 7.37625 6.99323C7.49505 6.90448 7.51932 6.73627 7.4306 6.6175C7.34188 6.4988 7.17364 6.47443 7.05491 6.56318C6.43786 7.02427 6.08398 7.73001 6.08398 8.49942C6.08398 9.8315 7.1677 10.9152 8.49978 10.9152C9.83185 10.9152 10.9156 9.8315 10.9156 8.49942C10.9156 8.49142 10.9153 8.48345 10.915 8.47552L10.9148 8.47027Z" fill="#007FF5"/>
</svg>
