<svg width="14" height="15" viewBox="0 0 14 15" fill="none" xmlns="http://www.w3.org/2000/svg">
<path d="M8.73531 12.6879C7.64465 13.0549 6.46566 13.0666 5.36797 12.7211C4.27028 12.3756 3.31048 11.6908 2.62668 10.7652C1.94288 9.83963 1.57033 8.72098 1.56262 7.57023C1.55492 6.41948 1.91246 5.29595 2.58381 4.36129C3.25516 3.42664 4.2057 2.72905 5.29867 2.36889C6.39164 2.00874 7.57068 2.00459 8.66616 2.35703C9.76163 2.70948 10.7171 3.40036 11.395 4.33026C12.0729 5.26016 12.4383 6.38115 12.4387 7.53192C12.4212 7.97303 12.3678 8.41197 12.2791 8.84442" stroke="#FAFAFA"/>
<path d="M8.28188 11.6777C7.89066 12.1222 7.46177 12.5321 7 12.9027" stroke="#FAFAFA"/>
<path d="M7 2.03125C8.46792 3.31376 9.37623 5.11938 9.53094 7.0625C9.5627 7.41523 9.56928 7.76977 9.55063 8.12344" stroke="#FAFAFA"/>
<path d="M7.00055 2.03125C6.2041 2.72545 5.56425 3.58096 5.1234 4.54111C4.68255 5.50126 4.45075 6.54413 4.44336 7.60062C4.44336 11.1444 6.03586 12.1944 6.99398 12.9031" stroke="#FAFAFA"/>
<path d="M2.26758 4.85352H11.757" stroke="#FAFAFA"/>
<path d="M7 2.0293V12.9034" stroke="#FAFAFA"/>
<path d="M2.41797 10.4492H8.10328" stroke="#FAFAFA"/>
<path d="M1.5625 7.60023L12.4388 7.4668" stroke="#FAFAFA"/>
<path d="M11.7179 12.9696L12.687 11.9984L10.937 10.2484L11.9323 9.6118C11.9468 9.60322 11.9583 9.59045 11.9654 9.57516C11.9725 9.55987 11.9747 9.54279 11.9719 9.52619C11.9691 9.50958 11.9612 9.49423 11.9495 9.48218C11.9377 9.47012 11.9225 9.46192 11.906 9.45867L8.56133 8.67554C8.54751 8.67273 8.53322 8.67338 8.51972 8.67744C8.50622 8.68151 8.49394 8.68885 8.48397 8.69882C8.474 8.70878 8.46666 8.72107 8.4626 8.73456C8.45854 8.74806 8.45789 8.76236 8.4607 8.77617L9.18695 12.1843C9.19044 12.2009 9.19878 12.216 9.21091 12.2278C9.22304 12.2396 9.23841 12.2476 9.25507 12.2506C9.27172 12.2537 9.2889 12.2517 9.30443 12.245C9.31996 12.2382 9.33313 12.227 9.34226 12.2127L9.96789 11.2196L11.7179 12.9696Z" stroke="#FAFAFA"/>
</svg>
