<?xml version="1.0" encoding="UTF-8"?>
<svg id="Layer_1" data-name="Layer 1" xmlns="http://www.w3.org/2000/svg" viewBox="0 0 500 500">
  <defs>
    <style>
      .cls-1 {
        fill: #fffae3;
      }

      .cls-1, .cls-2, .cls-3, .cls-4, .cls-5, .cls-6, .cls-7, .cls-8, .cls-9 {
        stroke-width: 0px;
      }

      .cls-3 {
        fill: #009adf;
      }

      .cls-4 {
        fill: #64d7ff;
      }

      .cls-5 {
        fill: #fff;
      }

      .cls-6 {
        fill: #f9b9b9;
      }

      .cls-7 {
        fill: #002c8a;
      }

      .cls-8 {
        fill: #9bc1f9;
      }

      .cls-9 {
        fill: #ffdd07;
      }
    </style>
  </defs>
  <g id="BACKGROUND">
    <rect class="cls-5" width="500" height="500"/>
  </g>
  <g id="OBJECTS">
    <g>
      <g>
        <path class="cls-4" d="m202.7,436.55c-13.47,0-26.14.49-37.2,1.36-11.42-.32-25.01-.51-39.61-.51-40.43,0-73.19,1.43-73.19,3.19s32.77,3.19,73.19,3.19h3.91c-3.34,1.26-5.18,2.62-5.18,4.05,0,2.39,5.17,4.61,13.97,6.43-8.17,1.83-12.69,5.64-12.69,9.38,0,5.17-1.42,4.26,13.62,4.26,11.72,0,31.17-4.78,39.19-9.34,7.56.35,15.63.54,23.99.54,43.12,0,78.09-5.05,78.09-11.28s-34.96-11.28-78.09-11.28h0Z"/>
        <path class="cls-9" d="m28.34,400.92c5.84,7.51,12.64,13.98,20.13,19.59h362.06c3.93-3.12,7.62-6.54,11.01-10.32,21.28-23.76,27.06-60.23,14.17-89.41,22.8-5.96,38.73-28.17,42.94-51.36,4.21-23.19-1.44-47.08-9.66-69.16-19.67-52.81-54.62-99.83-99.52-133.9-39.84-30.23-88.23-50.42-138.21-51.91-49.98-1.49-101.31,16.93-135.23,53.69-33.91,36.75-48.06,92.21-31.1,139.27-18.82-.65-37.54,10.49-45.93,27.35-8.39,16.86-6.03,38.5,5.82,53.14-22.7,33.31-21.21,81.22,3.52,113.04h-.01Z"/>
        <g>
          <g>
            <path class="cls-7" d="m95.05,367.86h1.23c-2.26-20.34,3.61-41.3,16.09-57.52l-.54-.41c-12.59,16.35-19.06,37.42-16.77,57.93h0Z"/>
            <path class="cls-7" d="m92.22,367.05l3.11-34.67c.78-7.31,1.6-14.87,1.07-22.36-.59-8.46-2.84-15.61-6.69-21.24l-.56.38c3.78,5.53,5.99,12.57,6.57,20.9.52,7.42-.29,14.95-1.07,22.24l-3.73,34.67,1.29.08h.02Z"/>
            <path class="cls-7" d="m88.52,365.56c1.06-8.58-4.2-16.51-8.91-22.47-.61-.77-1.23-1.55-1.86-2.32-4.51-5.6-9.17-11.4-10.62-18.37l-.66.14c1.48,7.13,6.2,13,10.76,18.66.62.77,1.25,1.55,1.86,2.32,4.63,5.85,9.29,14.32,8.25,22.66l1.19-.6h0Z"/>
            <path class="cls-7" d="m80.24,368.39l1.31-.37c-4.27-15.08-3.43-31.62,3.46-45.7l-.6-.3c-6.96,14.23-8.49,31.12-4.17,46.37h0Z"/>
            <path class="cls-7" d="m100.86,372.47c3.11-11.17,1.69-23,.31-34.45-.13-1.03-.25-2.05-.37-3.08-1.38-11.77-2.39-25.29,3.09-36.83l-.61-.29c-5.56,11.69-4.54,25.34-3.16,37.2.12,1.02.25,2.05.37,3.08,1.37,11.38,2.21,23.23-.85,34.27l1.22.1h0Z"/>
            <g>
              <path class="cls-7" d="m83.54,373.38l-1.34-.15c.62-9.95-2.21-19.93-7.77-27.38-1.26-1.69-2.4-2.38-3.4-2.07-1.13.35-1.8,1.88-1.98,4.54l-.67-.04c.2-3,1.01-4.69,2.46-5.14,1.3-.41,2.69.37,4.14,2.31,5.65,7.57,9.19,17.82,8.56,27.93h0Z"/>
              <path class="cls-7" d="m72.68,353.52c.37-1.95,2.26-3.49,2.16-5.47-.06-1.24-.94-2.33-2.03-2.93s-2.86,1.06-4.1,1c-1.91-.09-3.4-1.71-5.07-.76s-2.93,2.79-2.76,4.7c.14,1.51,1.11,2.87,1.1,4.38-.02,1.15-.6,2.2-1.11,3.23-.69,1.36-1.31,2.79-1.48,4.31s.16,3.14,1.17,4.28c.69.77,1.63,1.27,2.45,1.91,2.03,1.58,3.27,4.13,3.26,6.7.02-2.38,3.23-3.71,3.45-6.09.09-1.06-.45-2.14-.18-3.16.26-1,1.21-1.64,1.93-2.39,1.27-1.31,1.93-3.17,1.78-4.99-.14-1.59-.86-3.15-.56-4.71Zm-9.46,11.3c-1.15-.13-2.08-1.12-2.38-2.24s-.1-2.31.28-3.4c.09-.26.21-.55.47-.68.38-.2.88.08,1.08.46s.2.83.25,1.27c.09.97.41,1.91.91,2.75.15.25.32.49.41.77.09.28.07.6-.12.83-.21.24-.57.29-.89.26h0Zm1.98,2.42c-.07.28-.42.43-.69.34-.27-.09-.47-.35-.54-.63s-.07-.57-.05-.86c.33-.2.71.12.97.41.19.21.38.47.32.74h0Zm1.16-13.94c-.15.89-.63,1.75-1.4,2.21-.26.15-.6.25-.84.07-.25-.18-.26-.53-.28-.83-.08-.86-.49-1.65-.84-2.43-.37-.78-.7-1.63-.62-2.49.09-.86.71-1.73,1.57-1.8.62-.05,1.23.34,1.59.85s.54,1.13.66,1.74c.19.89.32,1.8.17,2.68h0Zm1.25,15.34c-.18.43-.59.75-1.04.84-.2-.82.19-1.75.92-2.17.26.38.3.9.12,1.33Zm1.71-6.33c-.43.92-1.16,1.66-1.87,2.37-.18.18-.44.37-.65.21-.13-.09-.14-.27-.14-.43,0-1.1.41-2.19,1.11-3.02.71-.83,1.72-1.41,2.8-1.6.59.83-.83,1.54-1.25,2.46h0Zm1.01-9.34c-.61.79-1.45,1.4-2.32,1.88.11-1.16.32-2.31.65-3.42.21-.73.49-1.48,1.06-1.97.31-.26.76-.44,1.11-.25.33.18.44.6.46.98.05,1-.34,1.99-.96,2.78h0Z"/>
            </g>
            <path class="cls-7" d="m74.41,331.63c.38,1.04,1.32,1.86,2.4,2.09.77.17,1.6.06,2.33.35,1.19.47,1.76,1.8,2.66,2.73,1.46,1.5,3.98,1.81,5.75.71,1.78-1.11,2.61-3.51,1.91-5.47-.28-.79-.79-1.62-.52-2.42.36-1.03,1.74-1.25,2.41-2.11.58-.75.49-1.79.43-2.73-.19-3.85.87-7.74,2.98-10.95-2.23,2.35-6.37,1.11-9.11,2.81-1.09.67-1.89,1.78-3.05,2.33-.83.4-1.76.49-2.66.71s-1.8.67-2.2,1.5c-.65,1.33.32,2.97-.15,4.37-.44,1.28-1.91,1.87-2.73,2.95-.66.89-.85,2.11-.46,3.15h.02Zm13.17-11.4c-.12.4-.43.77-.84.83-.6.09-1.11-.52-1.12-1.12,0-.6.37-1.14.81-1.56.2-.19.45-.37.71-.31.36.09.46.54.49.9.03.42.08.84-.04,1.24h0Zm3.3-3.27c.3-.02.6.14.76.41.14.24.14.55,0,.8-.27.48-1.09.49-1.38.03s.08-1.19.63-1.23h0Zm-3.77,11.63c-.52-.03-.98-.38-1.28-.81s-.46-.94-.61-1.43c-.11-.35-.2-.8.09-1.04.27-.23.68-.09,1.02.03.59.21,1.21.32,1.83.32.46,0,1-.02,1.29.33.22.27.2.68.05,1-.15.31-.43.55-.7.78-.49.42-1.06.84-1.69.8h0Zm-4.01,2.7c.03-.36.09-.73.32-1.01.35-.43.98-.53,1.53-.46,1.15.15,2.2.93,2.63,2s.2,2.39-.61,3.22c-.4.41-.96.69-1.52.64-.49-.04-.93-.33-1.27-.68-.92-.95-1.2-2.38-1.08-3.7Zm-2.79-5.14c-.2.04-.42.09-.61.03-.31-.09-.52-.39-.63-.7-.35-.97.14-2.16,1.06-2.64.33-.17.76-.25,1.07-.05.26.16.39.46.54.72.26.43.65.79,1.09,1.03.19.1.39.18.54.34s.19.43.03.57c-.09.08-.2.11-.31.13-.93.19-1.85.37-2.77.55v.02Zm-4.12,2.1c.66-.66,1.57-.96,2.48-1.17.9-.21,1.48.56,2.31.16.31.14.35.59.17.88s-.49.45-.77.65c-.66.46-1.17,1.12-1.45,1.88-.21.58-.31,1.25-.76,1.67-.46.43-1.21.44-1.75.14s-.89-.89-1.03-1.51c-.2-.96.1-2.01.8-2.71h0Z"/>
            <path class="cls-7" d="m102.68,317.87c1.1,1.03,2.84,1.29,4.19.63.43,2.54,2.03,5.02,4.46,5.86,2.43.84,5.58-.51,6.14-3.02.17-.77.09-1.58.2-2.37.1-.79.45-1.62,1.17-1.97.8-.39,1.86-.08,2.56-.64.92-.73.41-2.18.4-3.36,0-1.4.83-2.68,1.91-3.56,1.09-.87,2.41-1.4,3.7-1.9-2.5.12-4.72-1.42-6.88-2.7s-4.83-2.35-7.08-1.28c-.79.37-1.46.99-2.26,1.34-1.15.51-2.45.46-3.69.64-1.24.18-2.59.72-3.05,1.89-.31.77-.15,1.63-.35,2.44-.35,1.46-1.74,2.45-2.31,3.85-.58,1.39-.2,3.11.89,4.14h0Zm8.49-8.3c-.67.18-1.24.88-2.02,1.06-.51.13-1.06.31-1.56.15-.65-.21-.99-1-.81-1.65.19-.66.81-1.12,1.47-1.24.66-.12,1.36.07,1.95.4.38.22.73.49,1.06.79.16.15.1.43-.11.49h0Zm7.95-1.53c.34-.46.95-.62,1.52-.66.53-.03,1.06,0,1.57.12.2.04.4.1.56.23.15.13.26.35.2.54-.08.24-.35.34-.58.44-.63.27-1.17.74-1.52,1.33-.13.21-.24.45-.41.64s-.41.33-.66.31c-.42-.05-.62-.52-.74-.93-.2-.67-.36-1.46.06-2.03h0Zm-2.11-.41c-.7.16-1.45.17-2.12-.09-.62-.25-1.17-.82-1.14-1.48.03-.76.82-1.3,1.57-1.34.76-.04,1.47.29,2.16.61.52.25,1.05.49,1.57.74.16.08.35.19.37.37.02.21-.2.35-.39.43-.66.3-1.31.6-2.01.76h0Zm-2.73,9.89c-1-1.34-1.51-3.02-1.44-4.69.03-.5.11-1.03.38-1.45s.78-.73,1.28-.65c.24.71.79,1.27,1.4,1.69s1.29.75,1.92,1.14c.28.18.56.37.75.64.2.27.29.63.18.94-.15.43-.62.64-1.06.77-.43.13-.91.24-1.2.6-.42.51-.35,1.43-.97,1.66-.48.18-.96-.24-1.27-.65h.02Zm-5.61,1.1c.03-1.1.36-2.18.8-3.18.17-.38.36-.77.68-1.03s.8-.37,1.16-.15c.33,1.28,1.11,2.38,1.68,3.57.56,1.19.92,2.61.37,3.81-.26.58-.76,1.08-1.38,1.23-.92.22-1.86-.36-2.42-1.12-.65-.89-.92-2.02-.89-3.12h0Zm-5.94-4.33c.1-.66.35-1.32.83-1.78.83-.77,2.09-.76,3.23-.69.66.03,1.34.08,2,.11.21,0,.45.03.61.18.28.26.18.71.03,1.06-.47,1.08-1.16,2.07-2.02,2.88-.54.52-1.17.97-1.91,1.17-.73.19-1.57.08-2.12-.43-.66-.6-.79-1.61-.65-2.49h0Z"/>
            <path class="cls-7" d="m49.95,321.97c2.06-.74,4.6.42,5.4,2.45.3.76.37,1.58.6,2.36s.68,1.57,1.44,1.86c.56.23,1.21.14,1.8.28,1.33.31,2.16,1.62,2.69,2.88s.92,2.65,1.93,3.57c1.12,1.03,2.93,1.23,4.25.47,1.32-.76,2.06-2.42,1.74-3.91,1.48-.2,2.95-.81,3.95-1.92s1.46-2.77.92-4.16c-.21-.56-.57-1.06-.72-1.65-.25-.94.09-1.94.03-2.92-.09-1.76-1.49-3.26-3.12-3.92-1.63-.67-3.46-.65-5.22-.47-1.75.18-3.51.52-5.27.44-1.28-.05-2.56-.31-3.83-.14-2.76.37-4.8,2.66-6.58,4.79h0Zm17.08,8.18c.13-.25.43-.43.69-.31.2.09.3.31.37.51.27.78.39,1.62.34,2.45-.03.4-.2.92-.61.9-.27,0-.46-.26-.57-.51-.31-.69-.33-1.46-.35-2.22,0-.28,0-.57.12-.82h0Zm-.69-8.96c.2-.24.49-.39.77-.53.74-.37,1.51-.67,2.3-.92.31-.09.69-.17.94.03.25.2.26.57.24.89-.03.54-.06,1.14-.43,1.56-.39.44-1.06.54-1.65.51-.83-.04-1.64-.28-2.37-.68-.11-.29,0-.63.2-.87h0Zm-4.43,3.29c.2-.32.68-.48.95-.22.25.4.49.84.47,1.31-.03.47-.49.94-.94.77-.31-.11-.47-.46-.54-.77-.09-.37-.12-.77.07-1.09h0Zm-6.19-4.7c.14-.38.56-.61.97-.62.41-.02.8.16,1.13.39.8.55,1.33,1.47,1.4,2.44.03.44-.07.95-.45,1.17-.49.27-1.09-.11-1.49-.5-.45-.45-.87-.95-1.22-1.48-.27-.42-.53-.93-.35-1.39h0Z"/>
            <path class="cls-7" d="m75.72,284.03c2.37.77,4.16,3.08,4.31,5.57.09,1.35-.2,2.9.71,3.9.52.58,1.33.81,1.91,1.33,1.5,1.34.88,3.76,1.26,5.74.54,2.83,3.66,4.87,6.49,4.3,2.83-.57,4.9-3.58,4.49-6.44,1.48,1.33,3.97,1.32,5.45-.03s1.72-3.81.54-5.42c-.72-.99-1.87-1.63-2.48-2.68-.71-1.24-.6-2.93-1.59-3.97-1.36-1.43-3.87-.74-5.56-1.78-1.11-.68-1.71-2.04-2.87-2.65-1.17-.61-2.55.05-3.86,0-5.17-.24-5.87,1.42-8.8,2.14h0Zm15.54,4.76c0-.5.6-.77,1.1-.76.33.02,1.15.2,1.8.27.37.04.63.35.65.72.03.59.37,1.17.9,1.44.1.38-.31.75-.71.77s-.77-.2-1.11-.41c-.65-.4-1.29-.8-1.95-1.19-.32-.2-.69-.46-.7-.84h0Zm-7.36-3.12c0,.34-.43.46-.77.49-.26.02-.52.03-.76-.04-.24-.09-.46-.29-.47-.54-.02-.38.42-.64.8-.64.35,0,.7.12.97.34.12.1.24.24.23.4Zm6.94.66c-.06.21-.26.35-.48.38-.21.04-.43,0-.65-.05-.2-.04-.4-.09-.56-.2-.16-.12-.27-.33-.21-.52.09-.26.43-.32.71-.35.27-.02.56-.03.81.08.26.11.45.38.38.65h0Zm-4.18,10.37c.42-.85.83-1.69,1.25-2.54.2-.43.43-.87.83-1.11s1.38,1.35,1.51,1.8c.37,1.16.73,2.35.62,3.56-.11,1.21-.82,2.44-1.97,2.8-.63.2-1.35.09-1.91-.26-.56-.36-.95-.96-1.04-1.62-.13-.91.29-1.8.7-2.61h0Zm-5.17-6.49c.19-.54.89-.67,1.47-.71.73-.04,1.46-.08,2.2-.12.37-.02.79-.03,1.08.22.37.32.32.9.19,1.38-.23.78-.63,1.51-1.17,2.12-.49.56-1.24,1.04-1.95.8-.53-.18-.85-.69-1.1-1.19-.26-.54-.48-1.09-.66-1.65-.09-.27-.16-.58-.07-.85h0Z"/>
            <path class="cls-7" d="m99.43,303.23c2.34,1.38,5.29,1.4,7.89.58,1.86-.59,3.76-1.8,4.23-3.7.19-.77.14-1.6.5-2.3.37-.71,1.11-1.13,1.66-1.7,1.05-1.07,1.44-2.61,1.63-4.09s.25-3.01.78-4.41c.53-1.4,1.69-2.69,3.17-2.84-2.14-1.32-4.92-.85-7.26.06-2.34.9-4.58,2.21-7.07,2.49-1.89.21-4.14-.07-5.37,1.4-.72.87-.82,2.08-1.18,3.15-.54,1.57-1.69,2.88-2.12,4.48-.71,2.62.8,5.52,3.13,6.9h0Zm15.19-14.87c-.22.23-.49.43-.81.47-.31.03-.67-.14-.77-.44-.07-.22.03-.47.17-.65s.34-.31.54-.43c.22-.14.44-.29.66-.43.21-.14.49-.27.7-.13.2.14.17.46.09.69-.13.34-.32.66-.57.92h0Zm-4.62,3.79c0-.6.03-1.24.39-1.71.32-.4.87-.59,1.38-.53.71.54,1.44,1.11,1.89,1.89.44.78.54,1.83-.02,2.54-.31.39-.77.64-1.06,1.05-.25.35-.36.82-.71,1.04-.4.25-.95.07-1.26-.29s-.43-.83-.49-1.3c-.13-.89-.12-1.8-.12-2.69h0Zm-.94-3.9c-.31-.23-.6-.6-.5-.99.09-.37.49-.57.85-.72,1.07-.44,2.15-.89,3.28-1.18.26-.07.6-.1.75.13.09.16.04.37-.09.52-.12.14-.3.23-.46.31-.59.33-1.11.77-1.53,1.31-.27.34-.52.74-.93.9-.45.18-.98,0-1.37-.3v.02Zm-.71,1.81c-1.38.47-2.88.32-4.33.18-.37-.04-.76-.09-1.07-.29-.31-.21-.5-.64-.32-.97.16-.3.54-.38.87-.44.65-.12,1.29-.24,1.93-.36.41-.08.83-.15,1.24-.12.61.05,1.17.35,1.72.64.31.16.66.4.63.75-.03.32-.37.52-.67.62h0Zm-3.23,7.96c.36-.59,1.04-1.01,1.72-.91.68.11,1.19.71,1.45,1.35.39.98.27,2.2-.46,2.96-.59.61-1.63.83-2.31.32-.52-.39-.71-1.08-.76-1.73-.06-.69,0-1.41.37-2Zm-6.1-2.47c.1-.83.34-1.64.82-2.32.49-.67,1.23-1.18,2.07-1.23.6-.03,1.19.17,1.8.19.25,0,.51,0,.72.13.22.14.31.42.31.68,0,.79-.63,1.43-1.23,1.96-.77.68-1.53,1.37-2.3,2.05-.33.3-.71.61-1.17.6-.43-.02-.79-.37-.94-.77-.15-.4-.14-.84-.08-1.28h0Z"/>
            <path class="cls-7" d="m93.09,343.8c.95,4.25,5.82,6.86,5.93,11.21,1.27-2.94,5.14-6.77,6.41-9.69,1.2-2.77.7-5.1,3.21-6.77,1.1-.73,2.38-1.19,3.35-2.09,2.31-2.14,1.77-6.38-.77-8.25s-6.36-1.39-8.73.69c-.92-2.37-3.57-3.96-6.09-3.64s-4.71,2.49-5.02,5.02c-.35,2.84,1.41,5.53,1.64,8.39.14,1.71-.29,3.46.09,5.14h0Zm11.46-7.09c-.31.2-.64.4-1,.36-.44-.05-.76-.49-.83-.93-.06-.44.09-.89.25-1.29.36-.9.86-1.8,1.66-2.36.54-.37,1.17-.59,1.79-.78.66-.21,1.37-.43,2.05-.3.69.14,1.33.77,1.22,1.46-.09.56-.62.94-1.1,1.25-1.34.87-2.69,1.74-4.04,2.6v-.02Zm-.07,6.38c-.52.72-1.28,1.23-2.07,1.63-.07.03-.14.07-.22.07-.22,0-.31-.28-.31-.5-.04-.88.26-1.77.82-2.45.43-.52,1-.9,1.63-1.11.36-.12.73.15.74.54.02.65-.21,1.3-.59,1.83h0Zm-3.39,3.17c.57-.47,1.29-.68,2-.88l.45-.14c.3-.08.58.24.57.54-.02.31-.24.56-.49.74-.25.18-.54.3-.77.49-.55.45-.81,1.23-1.44,1.56-.2.1-.46.15-.66.04-.15-.08-.26-.24-.32-.4-.26-.68.09-1.49.66-1.96h0Zm-5.52-1.95c0-.35.2-.7.5-.87.31-.17.71-.17,1,.02.55.34.65,1.1,1.04,1.62.15.2.36.37.51.59.31.47.31,1.08.2,1.63-.04.21-.12.43-.28.58-.24.2-.61.16-.87-.02s-.41-.47-.52-.76c-.11-.29-.2-.6-.36-.87-.2-.33-.49-.6-.74-.89-.26-.29-.48-.64-.48-1.03h0Zm-1.19-8.48c.21-.33.71-.36.94-.03.2.29.47.53.76.72.51.34,1.08.58,1.59.92,1.28.84,2.09,2.33,2.11,3.86,0,.37-.03.77-.23,1.08s-.57.55-.94.49c-.69-.12-.84-1.05-1.32-1.57-.4-.43-1.03-.55-1.57-.81-.98-.46-1.69-1.44-1.83-2.51-.09-.74.09-1.51.49-2.15h0Zm-.95-6.38c.32-.68.99-1.16,1.7-1.4.71-.24,1.61-.23,2.1.34.39.45.42,1.11.6,1.68.26.8.86,1.44,1.41,2.08.55.64,1.1,1.34,1.23,2.18.12.83-.36,1.81-1.19,1.96-.61.1-1.2-.26-1.72-.6-1.11-.73-2.22-1.47-3.12-2.45-.94-1.02-1.62-2.53-1.01-3.78h0Z"/>
          </g>
          <g>
            <rect class="cls-2" x="80.92" y="362.98" width="31.86" height="77.91"/>
            <rect class="cls-7" x="73.06" y="362.98" width="31.86" height="77.91"/>
            <rect class="cls-2" x="73.06" y="369.04" width="31.86" height="2.77"/>
            <g>
              <rect class="cls-5" x="73.06" y="381.68" width="31.86" height="1.56"/>
              <rect class="cls-5" x="73.06" y="390.16" width="31.86" height="1.56"/>
              <rect class="cls-5" x="73.06" y="398.65" width="31.86" height="1.56"/>
              <rect class="cls-5" x="73.06" y="407.12" width="31.86" height="1.56"/>
              <rect class="cls-5" x="73.06" y="415.61" width="31.86" height="1.56"/>
              <rect class="cls-5" x="73.06" y="424.09" width="31.86" height="1.56"/>
            </g>
            <path class="cls-5" d="m107.38,365.14h-34.33c-.27,0-.5-.22-.5-.5s.22-.5.5-.5h34.33c.27,0,.5.22.5.5s-.22.5-.5.5Z"/>
          </g>
        </g>
        <g>
          <rect class="cls-7" x="294.68" y="221.71" width="132.76" height="162.83"/>
          <rect class="cls-5" x="299.26" y="226.63" width="123.59" height="152.99"/>
          <g>
            <rect class="cls-4" x="297.98" y="229.45" width="126.89" height="6.3"/>
            <rect class="cls-4" x="297.98" y="237.47" width="126.89" height="6.3"/>
            <rect class="cls-4" x="297.98" y="245.49" width="126.89" height="6.3"/>
            <rect class="cls-4" x="297.98" y="253.51" width="126.89" height="6.3"/>
            <rect class="cls-4" x="297.98" y="261.53" width="126.89" height="6.3"/>
            <rect class="cls-4" x="297.98" y="269.54" width="126.89" height="6.3"/>
            <rect class="cls-4" x="297.98" y="277.57" width="126.89" height="6.3"/>
            <rect class="cls-4" x="297.98" y="285.59" width="126.89" height="6.3"/>
            <rect class="cls-4" x="297.98" y="293.6" width="126.89" height="6.3"/>
            <rect class="cls-4" x="297.98" y="301.63" width="126.89" height="6.3"/>
            <rect class="cls-4" x="297.98" y="309.65" width="126.89" height="6.3"/>
            <rect class="cls-4" x="297.98" y="317.66" width="126.89" height="6.3"/>
            <rect class="cls-4" x="297.98" y="325.69" width="126.89" height="6.3"/>
            <rect class="cls-4" x="297.98" y="333.71" width="126.89" height="6.3"/>
            <rect class="cls-4" x="297.98" y="341.72" width="126.89" height="6.3"/>
            <rect class="cls-4" x="297.98" y="349.75" width="126.89" height="6.3"/>
          </g>
        </g>
      </g>
      <g>
        <g>
          <rect class="cls-2" x="186.81" y="344.51" width="5.63" height="99.41"/>
          <g>
            <path class="cls-2" d="m130.69,443.26c-.07-2.39.26-4.8,1-7.08,13.71-.54,27.43-1.07,41.14-1.61,3.02-.12,6.11-.26,8.9-1.4,1.05-.43,2.06-1.04,2.92-1.79v-7.29h9.95v7.29c.87.75,1.87,1.35,2.92,1.79,2.79,1.15,5.89,1.28,8.9,1.4,13.71.54,27.43,1.07,41.14,1.61.74,2.28,1.07,4.68,1,7.08h-117.89,0Z"/>
            <circle class="cls-2" cx="240.61" cy="443.51" r="6.47"/>
            <circle class="cls-2" cx="137.63" cy="443.51" r="6.47"/>
            <circle class="cls-2" cx="188.37" cy="443.48" r="6.47" transform="translate(-290.61 391.16) rotate(-60.75)"/>
          </g>
        </g>
        <path class="cls-2" d="m210.57,277.23c-1.43-11.81-4.29-23.45-8.49-34.58-2.28-6.03-5.23-12.26-10.63-15.77-6.68-4.35-15.29-3.51-23.26-3.69-5.47-.12-10.95-.78-16.42-.4-5.46.38-11.06,1.95-15.09,5.67-5.49,5.07-7.01,13.06-7.78,20.5-1.15,11.17-1.26,22.46-.33,33.65.54,6.61,1.64,13.62,6.04,18.58,5.51,6.22,14.59,7.54,22.88,8.14,9.81.71,19.66.96,29.49.77,4.72-.09,9.63-.34,13.79-2.58,4.97-2.68,8.18-7.94,9.5-13.43,1.32-5.49.97-11.24.29-16.85h0Z"/>
        <path class="cls-2" d="m246.09,332.89c0-4.31-2.64-8.21-6.67-9.71-.03,0-.05-.02-.07-.03-20.14-7.39-43.01-8.4-65.46-5.3-9.27,1.28-18.51,3.24-27.66,5.66-.03,0-.08.02-.11.03-6.24,1.65-10.57,7.33-10.57,13.78v8.77c1.93.91,4.07,1.57,6.12,2.08,30.03,7.32,63.07,6.3,94.47-2.92,3.44-1.01,7.24-2.54,9.97-4.81v-7.57.02Z"/>
        <path class="cls-2" d="m169.64,298.75c-1.46,10.17,1.23,20.89,7.33,29.16-3.1-1.23-6.89,1.7-9.79.07-1.04-.58-1.7-1.63-2.3-2.66-4.98-8.58-7.83-18.38-8.25-28.29,6.14.75,6.84,2.18,13.01,1.73h0Z"/>
      </g>
      <g>
        <rect class="cls-5" x="39.86" y="270.9" width="39.06" height="5"/>
        <rect class="cls-5" x="37.97" y="287.03" width="49.25" height="4.17"/>
        <rect class="cls-2" x="37.97" y="287.03" width="49.25" height="1.3"/>
        <rect class="cls-2" x="32.83" y="275.35" width="51.51" height="11.68"/>
        <rect class="cls-5" x="32.83" y="278.5" width="51.51" height="8.53"/>
      </g>
      <g>
        <g>
          <path class="cls-2" d="m180.09,219.74c3.63-.71,7.39-.66,11-1.47s7.27-2.71,8.85-6.05c1.97-4.17.17-9.06-1.74-13.26-1.91-4.2-3.98-8.88-2.5-13.24.75-2.2,2.38-4.19,2.3-6.5-.09-2.76-2.5-4.76-4.1-7-2.42-3.39-3.08-7.66-4.14-11.69-1.06-4.03-2.82-8.25-6.44-10.27-2.74-1.53-6.05-1.52-9.19-1.48-4.28.07-9.09-2.21-13.34-1.73-4.08.47-7.74,3.73-11.02,6.18-3.29,2.45-5.47,6.77-4.37,10.72.33,1.19.94,2.34.91,3.57-.04,2.01-1.7,3.55-3.2,4.89-3.41,3.06-6.68,6.52-8.28,10.82-1.61,4.3-1.2,9.62,2.04,12.86,1.86,1.86,4.5,2.94,5.89,5.17,2.02,3.23.67,7.39.8,11.19.2,5.81,4.44,11.27,10.03,12.89,4.41,1.27,9.15.3,13.48-1.2,4.33-1.5,8.52-3.51,13.01-4.4h0Z"/>
          <g>
            <g>
              <path class="cls-6" d="m266.61,450.25c-7.74-3.01-14.49-8.43-19.21-15.25-6.72-24.15-5.42-50.35-5.69-75.75-.1-9.46-.45-19.02-2.89-28.12-5.23-19.52-19.4-34.77-33.03-49.11l-19.51-7.89c-4.15.55-8.44,1.16-12.03,3.43s-6.31,6.68-5.42,10.99c.67,3.24,5.7,19.69,8.04,21.91,9.82,9.3,17.09,4.6,26.91,13.9,3.47,3.29,7.16,6.98,7.88,11.84.41,2.78.66,7.71.26,10.49-2.54,17.46,3.06,32.77,10,48.86,5.44,12.63,11.07,26.82,13.63,42.14-.47,4.57-1,6.04-1.46,10.61-.17,1.63-.28,3.47.77,4.73,1.48,1.77,4.23,1.37,6.54,1.36,4.66-.02,9.02,2.23,13.64,2.8,4.36.54,8.89-.47,12.61-2.8.64-.4,1.3-.92,1.4-1.67.16-1.24-1.27-2.02-2.43-2.47h0Z"/>
              <path class="cls-2" d="m266.61,450.25c-1.7-.66-3.34-1.45-4.94-2.33.03.44-.09.79-.46.97-9.34,6.22-17.96.37-26.51-5.24-.21,1.3-.43,2.69-.62,4.65-.17,1.63-.28,3.47.77,4.73,1.48,1.77,4.23,1.37,6.54,1.36,4.66-.02,9.02,2.23,13.64,2.8,4.36.54,8.89-.47,12.61-2.8.64-.4,1.3-.92,1.4-1.67.16-1.24-1.27-2.02-2.43-2.47h0Z"/>
              <rect class="cls-2" x="229.67" y="356.62" width="5.51" height=".64" transform="translate(-68.45 55.44) rotate(-11.87)"/>
            </g>
            <g>
              <g>
                <path class="cls-6" d="m200.72,352.76c-.23-7.37-2.6-15.59-3.66-20.72-3.57-17.44-6.75-27.8-5.41-45.63-7.69-4.14-16.79-4.83-24.9-1.86l-10.22,5.21c-8.54,32.31,10.59,45.51,11.73,69.46-14.33,11.28-22.1,42.24-30.51,75.04-3.15,3.86-6.54,7.54-9.31,11.69-4.11,6.15-6.7,14.16-4.02,20.95.24.6.82,1.03,1.46,1,9.5-.31,17.42-7.53,19.72-16.86,1.01-4.09,2.03-8.42,2.19-12.66,11.96-26.19,30.89-52.73,49.03-72.94,2.77-3.09,4.02-8.34,3.89-12.66h.02Z"/>
                <path class="cls-2" d="m181.91,366.78c-1,0-1.99-.04-2.99-.13l.05-.64c3.29.28,6.6.09,9.84-.56l.13.63c-2.31.47-4.67.7-7.03.7Z"/>
              </g>
              <path class="cls-2" d="m129.3,459.11c-3.84,0-4.31-4.33-3.58-8.29-2.34,5.17-3.3,10.96-1.29,16.06.24.6.82,1.03,1.46,1,9.5-.31,17.42-7.53,19.72-16.86.25-.99.49-1.98.71-2.99-3.98,6.21-9.1,11.07-17.03,11.07Z"/>
            </g>
          </g>
          <g>
            <path class="cls-7" d="m164.38,358.82c38.4,9.21,49.95-3.47,77.7-6.91,1.37-20.26-3.26-34.1-11.48-44.86-8.22-10.77-18.6-19.99-24.89-32.01-14.09,3.11-28.57,4.38-42.98,3.76-11.51,19.2-17.97,29.85-4.3,57.91,2.05,4.2,5.94,10.6,5.94,22.1h0Z"/>
            <path class="cls-5" d="m194.08,335.82l-.18-.61c12.69-3.63,25.81-5.88,39-6.66l.03.64c-13.14.78-26.21,3.01-38.86,6.64h0Z"/>
            <path class="cls-5" d="m192.09,343.54l-.33-.54c9.2-5.65,19.74-9.3,30.46-10.55l.08.63c-10.64,1.24-21.08,4.86-30.2,10.47h0Z"/>
            <path class="cls-5" d="m188.39,360.67c-8.33,0-16.66-1.06-24.74-3.18l.16-.61c15.47,4.06,31.87,4.21,47.41.43,3.06-.74,6.15-1.65,9.15-2.54,7.09-2.09,14.42-4.24,21.91-4.36v.64c-7.4.11-14.69,2.26-21.74,4.33-3,.89-6.1,1.8-9.17,2.54-7.53,1.83-15.26,2.74-22.99,2.74Z"/>
          </g>
          <g>
            <g>
              <path class="cls-2" d="m213.93,143.77h44.49c1.05,0,1.83-.85,1.74-1.9l-2.93-36.16c-.09-1.05-1-1.9-2.05-1.9h-44.49c-1.05,0-1.83.85-1.74,1.9l2.93,36.16c.09,1.05,1,1.9,2.05,1.9Z"/>
              <path class="cls-3" d="m251.62,143.77h-44.49c-1.05,0-1.83-.85-1.74-1.9l2.93-36.16c.09-1.05,1-1.9,2.05-1.9h44.49c1.05,0,1.83.85,1.74,1.9l-2.93,36.16c-.09,1.05-1,1.9-2.05,1.9Z"/>
              <g>
                <g>
                  <polygon class="cls-5" points="224.24 120.39 214.41 120.39 215.08 112.24 224.91 112.24 224.24 120.39"/>
                  <polygon class="cls-5" points="236.23 120.39 226.4 120.39 227.06 112.24 236.89 112.24 236.23 120.39"/>
                  <polygon class="cls-5" points="248.21 120.39 238.38 120.39 239.03 112.24 248.87 112.24 248.21 120.39"/>
                </g>
                <g>
                  <polygon class="cls-5" points="223.46 130.03 213.63 130.03 214.29 121.87 224.12 121.87 223.46 130.03"/>
                  <polygon class="cls-5" points="235.44 130.03 225.61 130.03 226.28 121.87 236.11 121.87 235.44 130.03"/>
                  <polygon class="cls-5" points="247.43 130.03 237.6 130.03 238.26 121.87 248.09 121.87 247.43 130.03"/>
                </g>
                <g>
                  <polygon class="cls-5" points="222.69 139.67 212.85 139.67 213.51 131.51 223.34 131.51 222.69 139.67"/>
                  <polygon class="cls-4" points="234.66 139.67 224.83 139.67 225.49 131.51 235.32 131.51 234.66 139.67"/>
                </g>
              </g>
              <g>
                <g>
                  <path class="cls-5" d="m216.16,106.73c0,.73-.59,1.32-1.32,1.32s-1.32-.59-1.32-1.32.59-1.32,1.32-1.32,1.32.59,1.32,1.32Z"/>
                  <rect class="cls-2" x="214.35" y="101.66" width=".94" height="5.19" rx=".47" ry=".47"/>
                </g>
                <g>
                  <path class="cls-5" d="m221.76,106.73c0,.73-.59,1.32-1.32,1.32s-1.32-.59-1.32-1.32.59-1.32,1.32-1.32,1.32.59,1.32,1.32Z"/>
                  <rect class="cls-2" x="219.95" y="101.66" width=".94" height="5.19" rx=".47" ry=".47"/>
                </g>
                <g>
                  <path class="cls-5" d="m227.36,106.73c0,.73-.59,1.32-1.32,1.32s-1.32-.59-1.32-1.32.59-1.32,1.32-1.32,1.32.59,1.32,1.32Z"/>
                  <rect class="cls-2" x="225.55" y="101.66" width=".94" height="5.19" rx=".47" ry=".47"/>
                </g>
                <g>
                  <path class="cls-5" d="m232.96,106.73c0,.73-.59,1.32-1.32,1.32s-1.32-.59-1.32-1.32.59-1.32,1.32-1.32,1.32.59,1.32,1.32Z"/>
                  <rect class="cls-2" x="231.15" y="101.66" width=".94" height="5.19" rx=".47" ry=".47"/>
                </g>
                <g>
                  <path class="cls-5" d="m238.56,106.73c0,.73-.59,1.32-1.32,1.32s-1.32-.59-1.32-1.32.59-1.32,1.32-1.32,1.32.59,1.32,1.32Z"/>
                  <rect class="cls-2" x="236.75" y="101.66" width=".94" height="5.19" rx=".47" ry=".47"/>
                </g>
                <g>
                  <path class="cls-5" d="m244.17,106.73c0,.73-.59,1.32-1.32,1.32s-1.32-.59-1.32-1.32.59-1.32,1.32-1.32,1.32.59,1.32,1.32Z"/>
                  <rect class="cls-2" x="242.35" y="101.66" width=".94" height="5.19" rx=".47" ry=".47"/>
                </g>
                <g>
                  <path class="cls-5" d="m249.77,106.73c0,.73-.59,1.32-1.32,1.32s-1.32-.59-1.32-1.32.59-1.32,1.32-1.32,1.32.59,1.32,1.32Z"/>
                  <rect class="cls-2" x="247.95" y="101.66" width=".94" height="5.19" rx=".47" ry=".47"/>
                </g>
              </g>
            </g>
            <g>
              <g>
                <path class="cls-6" d="m226.18,151c-.34-.79-.68-1.63-.66-2.49.09-2.53,3.26-4.07,3.49-6.59.1-1.14-.1-2.37-.21-3.51-.13-1.21.2-2.15-.21-3.3-.64-1.8-.72-2.39-1.68-2.66-1.19,1.17.09,3.04-1.09,5.06-.37.85-.37.9-1.49,1.74.02-2.14-.12-4.37.64-6.37.16-.43.76-1.94.9-2.39.05-1,2.44-2.3,2.34-3.3-.04-.4-.43-.83-.75-1.06-.54-.39-2.78,1.59-3.26,2.06-.94.92-1.75,1.97-2.41,3.11-.7-.59-1.8-.14-2.39.55s-.89,1.6-1.51,2.27c-.59-.14-1.23.09-1.68.51s-.71.99-.89,1.57c-.54,1.75-.33,3.63-.13,5.46.15,1.37.31,2.75.47,4.12.17,1.46.34,2.94.72,4.37.31,1.17.77,2.29,1.22,3.4.8,1.98,1.6,3.97,2.4,5.95,2.89-1.08,5.95-1.69,9.02-1.8-.95-2.24-1.91-4.48-2.87-6.71h.03Z"/>
                <path class="cls-6" d="m219.3,159.79c.25-.08.49-.14.74-.22,0-.02-.02-.03-.02-.05-.24.09-.49.18-.71.27h0Z"/>
              </g>
              <path class="cls-3" d="m243.15,186.94c.94,3.64,1.8,7.54.61,11.11-.85,2.54-2.66,4.65-4.44,6.66-10.78,12.13-25.63,24.35-40.32,31.23-2.03-9.08-4.06-18.17-6.09-27.25,12.18-2.74,22.06-7.79,31.85-15.53-.41-13.26-2.91-26.37-8.09-38.58,3.18-1.45,11-2.81,14.19-4.26,5.12,12.28,8.97,23.74,12.3,36.62h0Z"/>
              <path class="cls-2" d="m218.95,158.82l-.14-.62c1.65-.35,3.57-1,5.42-1.63,1.87-.64,3.8-1.29,5.49-1.66l.14.62c-1.65.35-3.57,1-5.42,1.63-1.87.64-3.81,1.3-5.5,1.66h0Z"/>
            </g>
          </g>
          <g>
            <g>
              <path class="cls-6" d="m280.84,194.21c3.46-3.18,5.39-7.97,5.09-12.67,4.18.49,10.22-.52,14.01,1.32.52.25-1.1,3.41-.87,3.94.26.58.03,1.25-.27,1.81-1.55,2.89-4.71,4.46-7.4,6.35-2.68,1.89-5.03,4.26-6.89,6.97-1.3-1.86-2.6-3.72-3.9-5.58-.26-.36-.51-.77-.44-1.2.07-.38.38-.67.67-.94h0Z"/>
              <g>
                <path class="cls-2" d="m280.41,137.76l.27,50.55c10.05-2.19,20.37-3.17,30.65-2.89-3.93-16.83,5.06-34.56,1.63-51.5-10.84,1.28-21.69,2.56-32.54,3.84h0Z"/>
                <path class="cls-5" d="m275.53,137.53c1.59,16.77,3.18,33.55,4.78,50.32,9.81-3.08,20-4.97,30.26-5.62-5.42-16.41,1.95-34.88-2.98-51.44-10.69,2.25-21.38,4.49-32.07,6.73Z"/>
                <path class="cls-2" d="m279.45,145.94v-.49h.31-.31l-.12-5.35.26-.06c3.66-.83,7.44-1.34,11.09-1.86,5.19-.71,10.56-1.46,15.63-3.08l.43-.14-.02.46c-.07,1.4.03,2.82.29,4.2l.05.28-.27.09c-3.71,1.1-7.63,1.6-11.42,2.09-5.23.67-10.66,1.37-15.46,3.65l-.44.21h0Zm.52-5.34l.09,4.35c4.77-2.16,10.07-2.84,15.2-3.51,3.68-.47,7.46-.96,11.05-1.98-.2-1.19-.29-2.4-.26-3.61-4.98,1.54-10.22,2.26-15.3,2.97-3.56.49-7.23,1-10.78,1.79h0Z"/>
                <path class="cls-7" d="m305.58,147.78c.05-1.46.09-2.93.14-4.39-2.97.66-5.93,1.34-8.9,2,.21,1.34.29,2.69.29,4.04,2.83-.5,5.65-1.06,8.47-1.65h0Z"/>
                <path class="cls-7" d="m296.03,164.6c.03,1.59.17,3.17.53,4.74,2.62-1.14,5.53-1.4,8.37-1.65l.14-4.33c-3,.58-6.01,1.01-9.05,1.24h0Z"/>
                <path class="cls-7" d="m305.22,158.88c.05-1.65.1-3.3.16-4.95-2.89.37-5.8.77-8.66,1.34-.17,1.62-.37,3.23-.51,4.85,3.01-.37,6.02-.75,9-1.23h0Z"/>
                <path class="cls-7" d="m305.43,152.22c.03-.9.06-1.8.09-2.7-2.81.59-5.63,1.13-8.45,1.63-.03.77-.09,1.56-.17,2.34,2.83-.54,5.68-.9,8.53-1.27h0Z"/>
                <path class="cls-2" d="m285.86,177.23l-.5-4.35.26-.07c6.6-1.79,13.43-2.77,20.27-2.92h.36l-.03.35c-.1,1.19-.04,2.39.19,3.57l.07.36-.36.03c-6.68.48-13.38,1.47-19.91,2.97l-.35.08h0Zm.2-3.87l.36,3.1c6.33-1.43,12.83-2.4,19.3-2.89-.17-1-.22-2.02-.16-3.03-6.58.17-13.14,1.12-19.5,2.82Z"/>
                <path class="cls-7" d="m306.58,176.03c-3.4.22-6.78.43-10.18.66-.17,1.45-.05,2.93.35,4.32l10.21-1.63c-.48-1.04-.61-2.23-.38-3.34Z"/>
                <path class="cls-2" d="m280.14,149.01l-.15-.62c4.39-1.08,8.9-1.68,13.42-1.76l.02.64c-4.47.09-8.94.68-13.28,1.74h0Z"/>
                <rect class="cls-2" x="279.78" y="149.46" width="14.5" height=".64" transform="translate(-19.32 45.03) rotate(-8.68)"/>
                <path class="cls-2" d="m281.61,157l-.07-.64c4.34-.49,8.71-1.22,12.96-2.19l.14.62c-4.28.97-8.66,1.71-13.03,2.2h0Z"/>
                <path class="cls-2" d="m281.45,158.98l-.04-.64c4.35-.28,8.7-.96,12.93-2l.15.62c-4.26,1.06-8.66,1.74-13.04,2.02Z"/>
                <path class="cls-2" d="m281.52,161.3l-.05-.64c4.2-.32,8.42-.91,12.54-1.74l.13.63c-4.15.83-8.4,1.43-12.62,1.75h0Z"/>
                <path class="cls-2" d="m282.38,166.45l-.05-.64c3.86-.31,7.74-.85,11.52-1.62l.13.63c-3.81.77-7.72,1.33-11.6,1.63h0Z"/>
                <path class="cls-2" d="m282.42,168.34v-.64c4.09-.03,8.2-.45,12.2-1.25l.13.63c-4.05.8-8.2,1.23-12.33,1.26Z"/>
                <path class="cls-2" d="m283.89,170.65c-.32,0-.66,0-.98,0l.02-.64c3.53.09,7.06-.29,10.49-1.12l.15.62c-3.17.77-6.42,1.15-9.67,1.15h0Z"/>
                <path class="cls-2" d="m283.88,180l-.06-.64c3.12-.31,6.26-.81,9.33-1.48l.14.62c-3.09.67-6.26,1.17-9.4,1.49h0Z"/>
                <path class="cls-2" d="m283.45,182.76l-.07-.64c3.31-.34,6.61-1,9.8-1.95l.18.61c-3.23.97-6.57,1.63-9.92,1.97h0Z"/>
              </g>
              <path class="cls-6" d="m284.71,191.01c.14-2.26-.71-4.44-1.13-6.66-.35-1.82-.41-3.69-.19-5.53,1.77-1.49,2.38-4,3.64-5.93.81.7,1.46,2.77.98,3.72-.49.94-1.13,1.97-.82,3,.21.69.82,1.17,1.3,1.72,1.43,1.6,1.86,4.01,1.09,6.01-.77,1.99-2.73,3.48-4.87,3.69h0Z"/>
            </g>
            <g>
              <path class="cls-3" d="m203.86,207.67c13.89,3.67,28.46,8.71,42.24,4.65,5.05-1.49,9.5-5.27,14.06-7.89l21.49-13.62c3.91,5.85,5.45,4.21,9.36,10.06l-30.25,23.38c-6.89,5.33-15.5,7.75-24.19,7.22-2.87-.18-5.76-.14-8.63-.03-6.87.26-13.8.88-20.56-.37-7.78-1.45-15.51-5.8-18.15-13.58-.78-2.3-.71-4.85.49-6.95,2.84-5,9.12-4.18,14.14-2.86h0Z"/>
              <path class="cls-2" d="m287.24,202.61c-1.28-1.49-2.6-2.68-3.89-3.83-1.31-1.17-2.55-2.29-3.71-3.68l.49-.41c1.12,1.34,2.35,2.44,3.64,3.61,1.3,1.17,2.65,2.37,3.95,3.89l-.49.42h0Z"/>
              <path class="cls-2" d="m238.26,214.14c-6.4,0-12.79-.74-19.02-2.2l.14-.62c6.94,1.63,14.07,2.35,21.18,2.15l.02.64c-.77.03-1.55.03-2.32.03h0Z"/>
            </g>
          </g>
          <g>
            <g>
              <path class="cls-3" d="m197.33,208.06c-4.2,4.62-4.52,11.79-2.42,17.67,2.1,5.88,6.23,10.78,10.28,15.54,1.98,2.34,3.97,4.67,5.96,7.01.97,1.14,2.04,2.35,3.5,2.68,1.58.37,3.27-.44,4.31-1.69,1.04-1.24,1.54-2.86,1.83-4.45,1.29-7.12-1.07-14.52-4.99-20.6-3.91-6.09-9.27-11.09-14.57-16.02-.66-.6-1.43-1.26-2.31-1.15-.64.08-1.16.54-1.59,1.02h0Z"/>
              <path class="cls-3" d="m141.11,220.21c.5-3.5,1.66-7.04,4.1-9.59,2.52-2.62,6.1-3.9,9.62-4.85,13.98-3.77,30.3-3.01,44.16,1.17,1.51,5.91-.76,10.37,1.18,14.5s3.1,6.14,3.91,10.63c1.13,6.26-1.55,12.52-2.37,18.83-.79,6.11.75,14.1,3.91,20.68,3.29,6.87,7.66,12.2,10.83,18.82-13.34,1.11-48.65,1.44-63.17,1.07.55-8.71,8.37-14.92,1.29-26.96-4.43-7.52-8.09-15.51-10.94-23.75-2.28-6.59-3.51-13.65-2.51-20.55h0Z"/>
              <path class="cls-1" d="m168.2,199.85c-5.15.15-10.12,3.14-12.69,7.61,2.36,5.06,7.67,8.04,12.94,9.9,4.41,1.55,9.06,2.56,13.28,4.52,1.29.6,2.81-.14,3.12-1.51,1.26-5.57,1.29-11.43.08-17.02-5.68-.64-11.01-3.67-16.72-3.49Z"/>
              <path class="cls-3" d="m171.71,279.45c-.86-23.2-18.9-41.24-22.34-64.44-.37-2.22-1.06-4.43-1.31-6.59-1.04.61-2,1.33-2.84,2.2-2.45,2.55-3.6,6.09-4.1,9.59-1,6.89.23,13.97,2.51,20.55,2.85,8.25,6.65,16.16,10.94,23.75,6.66,11.75-.74,18.26-1.29,26.96,3.31.09,14.49.14,18.59.18.08-4.06.02-8.13-.15-12.2h0Z"/>
            </g>
            <g>
              <path class="cls-2" d="m188.6,238.71l-.07-.33c-1.17-6.01-3.75-11.76-7.47-16.62l-.63-.83.99.33c.63.21,1.09.31,1.46.31.65,0,1.04-.28,1.84-1.08l.31-.31.2.38c.56,1.06,1.15,2.1,1.74,3.15,2.38,4.21,4.83,8.57,5.07,13.55v.26l-.24.07c-.77.2-1.06.35-1.37.5-.32.16-.66.33-1.49.54l-.33.09h0Zm-6.47-16.6c3.4,4.69,5.8,10.12,6.96,15.8.53-.15.78-.28,1.05-.41.29-.14.6-.3,1.24-.48-.29-4.71-2.57-8.75-4.98-13.01-.52-.93-1.05-1.85-1.55-2.78-.62.6-1.17.97-1.98.97h0c-.22,0-.46-.03-.74-.09Z"/>
              <path class="cls-2" d="m185.16,223c-.12-.15-.3-.28-.49-.27-.34,0-.54.38-.65.71-.14.42-.21.94.12,1.23.2.18.51.2.76.08s.42-.35.49-.61c.12-.38.03-.82-.22-1.13h0Z"/>
              <path class="cls-2" d="m187.55,230.3c.21.06.43-.06.57-.23.13-.18.19-.39.24-.6.06-.26.13-.54.07-.81-.06-.26-.28-.52-.56-.51-.24,0-.43.2-.53.42-.09.22-.1.46-.13.7-.02.2-.05.4-.02.6s.16.39.35.45h0Z"/>
              <path class="cls-2" d="m189.31,235.47c-.09.23-.15.47-.12.71s.2.48.43.53c.35.08.64-.26.82-.56.15-.25.29-.52.3-.81,0-.29-.14-.6-.42-.69-.23-.07-.49.03-.66.2-.17.17-.26.4-.35.62Z"/>
            </g>
            <path class="cls-2" d="m200.8,248.29c-10.64.66-21.13,3.73-30.44,8.93l30.44-8.93Z"/>
            <path class="cls-5" d="m173.69,265.31c-2.26,0-4.5-.09-6.74-.28l.05-.64c11.14.94,22.61-.5,33.17-4.17l.21.6c-8.52,2.96-17.63,4.49-26.69,4.49h0Z"/>
            <path class="cls-5" d="m166.76,270.24l-.02-.64c7.08-.19,14.22-.83,21.23-1.9l.09.63c-7.03,1.07-14.2,1.72-21.31,1.91h0Z"/>
          </g>
          <g>
            <path class="cls-6" d="m100.52,176.6c-1.6-5.98-5.52-11.03-9.34-15.9-.49-.63-1.09-1.32-1.9-1.37-.6-.03-1.15.56-1.15,1.08-.42-.83-1.04-1.63-1.92-1.55-.91.08-1.46,1.14-1.34,2.05.08.57.36,1.07.69,1.56-.51-.26-1.23-.26-1.68.14-.74.63-.42,1.57.16,2.52.53.86.64,1.23,1.11,2.29-1.44-2.88-2.82-2.93-3.29-1.44,1.17,10.51,7.29,20.26,15.03,27.46,2.55-.95,5.27-1.48,7.99-1.57-3.29-4.21-2.98-10.09-4.36-15.26h0Z"/>
            <g>
              <path class="cls-3" d="m93.67,132.73l6.12,46.61c.09.71-.44,1.35-1.17,1.39l-33.25,1.59c-.66.03-1.23-.46-1.29-1.11l-5.15-52.97c-.08-.8.61-1.46,1.4-1.34l32.28,4.77c.54.08.97.51,1.04,1.06h0Z"/>
              <polygon class="cls-5" points="90.8 135.68 96 175.3 67 176.68 62.62 131.52 90.8 135.68"/>
              <g>
                <rect class="cls-2" x="78.91" y="131.83" width=".64" height="15.06" transform="translate(-67.26 204.48) rotate(-84.35)"/>
                <rect class="cls-2" x="79.86" y="133.04" width=".64" height="20.6" transform="translate(-69.08 211.84) rotate(-85.43)"/>
                <path class="cls-2" d="m90.92,147.31c-6.9-.04-13.89-.26-20.78-.66l.03-.64c6.88.4,13.86.62,20.75.66v.64Z"/>
                <rect class="cls-2" x="80.87" y="144.17" width=".64" height="20.06" transform="translate(-73.18 235.07) rotate(-89.88)"/>
                <rect class="cls-2" x="71.63" y="156.53" width="20" height=".64" transform="translate(-6.47 3.54) rotate(-2.39)"/>
                <path class="cls-2" d="m72.95,166.66v-.64c3.13-.03,6.42-.21,9.58-.38,3.17-.17,6.46-.35,9.62-.39v.64c-3.13.03-6.42.21-9.58.38-3.17.17-6.46.35-9.62.39Z"/>
                <path class="cls-2" d="m72.98,169.6l-.09-.63c3.95-.52,7.78-.77,11.47-1,2.77-.18,5.4-.35,8.05-.62l.07.64c-2.67.27-5.29.44-8.08.62-3.69.24-7.51.49-11.44,1h0Z"/>
                <path class="cls-2" d="m66.46,145.47h-.06c-.92-.03-1.74-.77-1.87-1.68-.14-.91.44-1.85,1.31-2.14.43-.14.94-.13,1.37.04.85.35,1.36,1.33,1.17,2.22-.19.87-1.03,1.55-1.92,1.55h0Zm0-3.28c-.14,0-.29.03-.42.07-.58.2-.97.84-.89,1.45s.66,1.11,1.26,1.13l.04.32v-.32c.59,0,1.17-.47,1.29-1.04.13-.6-.22-1.27-.78-1.5-.15-.07-.33-.1-.5-.1h0Z"/>
                <path class="cls-2" d="m67.71,156.34h0c-.46,0-.9-.15-1.23-.43-.77-.63-.94-1.85-.37-2.66.26-.36.62-.63,1.05-.75.7-.21,1.54.03,2.03.56.67.73.66,1.97-.03,2.69-.36.37-.89.6-1.45.6h0Zm0-3.29c-.13,0-.25.02-.37.05-.28.09-.54.26-.71.51-.38.54-.26,1.38.25,1.8.22.18.52.28.83.28h0c.38,0,.74-.14.98-.4.45-.48.46-1.33.02-1.82-.25-.27-.62-.43-1-.43h0Z"/>
                <path class="cls-2" d="m69.3,169h-.14c-.84-.07-1.57-.77-1.71-1.63-.11-.72.22-1.46.81-1.81.57-.33,1.4-.26,1.97.14.61.43.94,1.19.82,1.87-.14.79-.92,1.41-1.75,1.41h0Zm-.2-3.02c-.19,0-.37.04-.51.13-.37.21-.57.7-.5,1.16.09.56.59,1.04,1.13,1.09h.09c.53,0,1.03-.4,1.12-.89.09-.44-.14-.94-.55-1.23-.22-.16-.5-.25-.77-.25h0Z"/>
              </g>
              <path class="cls-2" d="m84.82,136.6l-12.74-1.52c-.65-.08-1.17-.58-1.27-1.23l-.37-2.39c-.04-.29.04-.57.23-.79.22-.26.55-.38.9-.33l14.03,2.15c.49.08.83.49.83.98v1.69c0,.8-.66,1.46-1.46,1.46-.06,0-.12,0-.18,0h0Zm-13.68-5.53c-.07.09-.1.19-.09.3l.37,2.39c.06.37.36.66.73.71l12.74,1.52c.51.06.94-.34.94-.83v-1.69c0-.19-.14-.34-.31-.37l-14.09-2.16c-.11,0-.21.05-.28.13Z"/>
              <path class="cls-2" d="m83.08,129.99c.54.62.94,1.37,1.17,2.17.37,1.28-.74,2.51-2.06,2.35-2.56-.31-5.11-.64-7.67-1-.8-.11-1.45-.72-1.59-1.52-.21-1.18-.67-2.31-1.35-3.31-.16-.23.03-.54.31-.5l10.72,1.57c.18.03.34.11.46.24h0Z"/>
            </g>
            <g>
              <path class="cls-1" d="m64.69,186.51c3.94.87,7.97,1.34,12,1.44-3.11.12-6.17.89-9.29,1.11-3.11.22-6.44-.19-8.89-2.13s-3.56-5.75-1.75-8.3c-.57,2.02.52,4.22,2.15,5.52,1.63,1.31,3.73,1.9,5.77,2.35Z"/>
              <path class="cls-1" d="m55.01,186.92c-.07.9.83,1.54,1.61,1.97,2.3,1.29,4.64,2.5,7.01,3.65-1.95.4-4.09-.21-5.52-1.59-1.44-1.38-3.42-2.07-3.1-4.03Z"/>
            </g>
            <path class="cls-6" d="m98.81,171.17c-1.75.83-3.07,2.49-3.49,4.39-.6,2.8.71,5.62,2,8.17.87,1.73,1.34,3.63,2.46,5.04.59-.19,1.17-.38,1.75-.56,1.07-.33.03-.83,1.13-1.17.95-5.43.09-10.63.22-12.1.14-1.54.26-3.08.4-4.62.1-1.2-.61-2.35-1.75-2.72-2.37-.77-4.54-2.14-6.26-3.93-1.17,2.88.57,6.57,3.53,7.51h0Z"/>
            <path class="cls-3" d="m154.18,211.52c-4.2-4.05-9.54-2.08-16.08,2.77-4.63,3.43-8.71,7.82-14.19,9.64-6.73-11.41-13.56-26.32-17.83-38.87l-13.97,4.29c4.04,20.27,9.81,39.65,19.74,57.63,1.41,2.56,4.46,3.76,7.25,2.89,7.81-2.45,16.36-6.6,23.17-9.91,6.13-2.97,11.97-4.23,15.23-10.21,3.26-5.98,1.57-13.5-3.34-18.22h.02Z"/>
            <g>
              <path class="cls-2" d="m95.01,193.64c-.78,0-1.56-.03-2.33-.09l.05-.64c4.51.37,9.1-.37,13.27-2.16l.26.59c-3.54,1.52-7.39,2.31-11.23,2.31h0Z"/>
              <rect class="cls-2" x="115.29" y="228.04" width="6.94" height=".64" transform="translate(-132.58 172.85) rotate(-50.07)"/>
              <rect class="cls-2" x="119.93" y="228.87" width="1.51" height=".64" transform="translate(-126.73 152.51) rotate(-45.01)"/>
            </g>
          </g>
          <g>
            <path class="cls-6" d="m57.28,254.53c5.99-2.74,12.94-1.86,19.47-.93-.48-2.92-.32-7.79-.13-10.74-5.58,0-11.04,1.07-16.32-.71-5.29-1.79-11.37-4.51-16.37-2.04-.89.44-1.79,1.06-2.11,2-.32.94.26,2.21,1.26,2.23-1.46,1.19-1.51,3.71-.12,4.97.08,1.38.18,2.77.68,4.07.86,2.23,3,3.97,5.37,4.15,2.96.23,5.57-1.75,8.27-2.99h0Z"/>
            <g>
              <path class="cls-2" d="m55.7,259.72l-23.51,3.86c-.62.1-2.83-.66-2.94-1.28l-3.59-31.58c-.1-.62.31-1.2.94-1.3l21.86-4.46c.62-.1,2.86.93,2.96,1.54l5.23,31.91c.1.62-.31,1.2-.94,1.3h0Z"/>
              <rect class="cls-7" x="26.18" y="226.52" width="26.1" height="34.61" rx="1.13" ry="1.13" transform="translate(-38.89 9.54) rotate(-9.3)"/>
              <rect class="cls-1" x="26.63" y="229.02" width="21.34" height="5.74" transform="translate(-36.98 9.08) rotate(-9.3)"/>
              <g>
                <g>
                  <g>
                    <rect class="cls-5" x="28.05" y="238.3" width="4.11" height="4.11" rx=".89" ry=".89" transform="translate(-38.45 8.02) rotate(-9.3)"/>
                    <rect class="cls-5" x="33.65" y="237.39" width="4.11" height="4.11" rx=".89" ry=".89" transform="translate(-38.23 8.92) rotate(-9.3)"/>
                    <rect class="cls-5" x="39.25" y="236.47" width="4.11" height="4.11" rx=".89" ry=".89" transform="translate(-38 9.81) rotate(-9.3)"/>
                    <rect class="cls-5" x="44.85" y="235.55" width="4.11" height="4.11" rx=".89" ry=".89" transform="translate(-37.78 10.7) rotate(-9.3)"/>
                  </g>
                  <g>
                    <rect class="cls-5" x="28.94" y="243.7" width="4.11" height="4.11" rx=".89" ry=".89" transform="translate(-39.31 8.24) rotate(-9.3)"/>
                    <rect class="cls-5" x="34.53" y="242.78" width="4.11" height="4.11" rx=".89" ry=".89" transform="translate(-39.09 9.13) rotate(-9.3)"/>
                    <rect class="cls-5" x="40.13" y="241.86" width="4.11" height="4.11" rx=".89" ry=".89" transform="translate(-38.86 10.02) rotate(-9.3)"/>
                    <rect class="cls-5" x="45.73" y="240.95" width="4.11" height="4.11" rx=".89" ry=".89" transform="translate(-38.64 10.92) rotate(-9.3)"/>
                  </g>
                  <g>
                    <rect class="cls-5" x="29.81" y="249.09" width="4.11" height="4.11" rx=".89" ry=".89" transform="translate(-40.17 8.45) rotate(-9.3)"/>
                    <rect class="cls-5" x="35.41" y="248.17" width="4.11" height="4.11" rx=".89" ry=".89" transform="translate(-39.94 9.34) rotate(-9.3)"/>
                    <rect class="cls-5" x="41.01" y="247.25" width="4.11" height="4.11" rx=".89" ry=".89" transform="translate(-39.72 10.24) rotate(-9.3)"/>
                  </g>
                  <g>
                    <rect class="cls-5" x="30.7" y="254.47" width="4.11" height="4.11" rx=".89" ry=".89" transform="translate(-41.03 8.66) rotate(-9.3)"/>
                    <rect class="cls-5" x="36.3" y="253.56" width="4.11" height="4.11" rx=".89" ry=".89" transform="translate(-40.8 9.56) rotate(-9.3)"/>
                    <rect class="cls-5" x="41.9" y="252.64" width="4.11" height="4.11" rx=".89" ry=".89" transform="translate(-40.58 10.45) rotate(-9.3)"/>
                  </g>
                </g>
                <rect class="cls-4" x="47.07" y="246.3" width="4.11" height="9.64" rx=".89" ry=".89" transform="translate(-39.94 11.24) rotate(-9.3)"/>
              </g>
            </g>
            <g>
              <path class="cls-3" d="m155.47,211.86c-1.15-2.17-3.07-4.25-5.46-4.21-1.79.03-3.34,1.24-4.72,2.41-8.36,7.05-16.28,14.65-23.7,22.75-2.97,3.24-5.97,6.65-9.92,8.42-3.51,1.57-7.88.96-11.71,1.06-12.44.32-21.11-.43-33.63-.62l-2.55,15.88c12.62,1.29,25.25,2.6,37.87,3.89,4.17.43,8.43.85,12.51-.17,4.94-1.23,9.16-4.46,13.23-7.61,5.57-4.31,11.15-8.63,16.72-12.94,4.77-3.69,9.75-7.65,12.1-13.35,2.03-4.92,1.74-10.81-.74-15.5h0Z"/>
              <path class="cls-2" d="m108.55,242.72l-.28-.57c7.52-3.67,14.23-9.08,19.4-15.66l.5.39c-5.23,6.66-12.02,12.14-19.62,15.85h0Z"/>
              <path class="cls-3" d="m150.58,230.17c-10.21,6.81-18.72,17.02-28.94,22.13-18.3,8.54-37.91,4.84-57.26,1.43l-.61,3.81c12.62,1.29,25.25,2.6,37.87,3.89,4.17.43,8.43.85,12.51-.17,4.94-1.23,9.16-4.46,13.23-7.61,5.57-4.31,11.15-8.63,16.72-12.94,4.73-3.67,9.67-7.59,12.03-13.21-1.79.9-3.58,1.88-5.56,2.67h0Z"/>
              <path class="cls-2" d="m69.04,257.46l-.61-.18c1.09-3.66,1.97-7.41,2.62-11.17l.63.11c-.66,3.78-1.54,7.57-2.64,11.24Z"/>
            </g>
            <path class="cls-6" d="m55.41,237.29c-.43-.7-.83-1.46-1.54-1.88-.75-.45-1.69-.41-2.56-.38-3.11.09-6.22-.18-9.26-.78.03,1.49,1.06,2.9,2.47,3.4.81.28,1.69.28,2.53.38.85.1,1.74.34,2.31.99.62.7.71,1.7.89,2.62.37,1.99,1.31,3.94,2.89,5.22,1.57,1.29,3.83,1.8,5.7,1.03,1.87-.77,3.15-2.96,2.61-4.92-2.46-1.32-4.56-3.29-6.03-5.67h0Z"/>
          </g>
          <g>
            <path class="cls-6" d="m211.26,196.68c-.25-1.4-2.37-5.34-3.28-6.44-.62-.77-1.55-1.23-2.41-1.71-3.05-1.72-5.69-4.15-7.66-7.04-.28-.42-.64-.89-1.15-.89-.28,0-5.6-.85-5.84-.71-2.55,1.6-.14,3.23-2.7,4.83-.24.14-.39,1.29-.5,1.55-.16.35-.02.77.14,1.12.93,2.22,2.09,4.39,3.77,6.12,1.68,1.73,3.93,3,6.34,3.11.92.04,1.9-.06,2.72.35,1.07.54,1.57,1.79,1.8,2.96.24,1.17.32,2.43.95,3.45,2.78-.89,5.56-1.79,8.34-2.69-1.26-1.95-.12-1.73-.53-4.01h0Z"/>
            <g>
              <path class="cls-1" d="m183.09,172.11l15.97,15.07c.21.2.3.51.22.79l-3.03,10.65c-.16.56-.86.77-1.29.37l-16.25-14.96c-.22-.2-.31-.52-.22-.81l3.31-10.76c.17-.56.87-.74,1.29-.34h0Z"/>
              <path class="cls-3" d="m182.65,172.55l14.44,13.64c.2.18.27.46.2.71l-2.74,9.63c-.14.51-.78.69-1.17.33l-14.7-13.54c-.2-.19-.28-.47-.2-.73l3-9.74c.15-.5.79-.67,1.17-.31h0Z"/>
            </g>
            <g>
              <path class="cls-6" d="m184.04,205.22c-1.46-.33-2.92-.6-4.39-.83-1.75-5.74-1.51-11.65-1.2-17.35-4.51.79-10.6-.96-14.83-2.75.37,6.58,1.11,13.68-.93,19.97-1.87.37-3.64,1.08-4.82,2.54,3.3,3.38,7.72,5.51,12.28,6.76,4.55,1.26,9.29,1.7,14,2.14,1.03-3.4.99-7.11-.12-10.48h0Z"/>
              <path class="cls-2" d="m178.46,187.04c-4.32.76-10.09-.83-14.28-2.53-1.06,9.7,6.2,14.13,14.46,15.17-.59-4.23-.41-8.49-.18-12.65Z"/>
            </g>
            <g>
              <path class="cls-6" d="m170.81,193.39c-4.95-3.84-8.65-8.28-9.87-14.43-1.1-5.51,0-11.91,4.37-15.46s9.5-3.4,15.06-2.56c2.07.31,5.9,4.53,6.81,8.02.36,1.35-.26,3-.25,4.4.02,2.43,1.26,4.14,1.59,6.54.56,4.09-1.99,7.9-4.43,11.24-1.63,2.23-1.48,4.46-4.22,4.84-2.56.36-7.02-1.02-9.06-2.6h0Z"/>
              <g>
                <g>
                  <path class="cls-2" d="m171.43,172l-.26-.18-.21-.25c1.18-1.33,3.39-3.8,6.21-1.49l-.4.49c-2.35-1.91-4.14.09-5.33,1.42h0Z"/>
                  <path class="cls-2" d="m174.46,174.38c-.26.38-.47.8-.65,1.23-.12.3-.2.69.03.91.26.25.7.07.98-.16.41-.34.72-.78.91-1.28.09-.23.15-.49.11-.73-.04-.25-.21-.49-.45-.54-.38-.09-.71.26-.94.58Z"/>
                </g>
                <g>
                  <path class="cls-2" d="m187.16,170.35c-.72-.72-1.15-.58-1.72-.38-.26.09-.54.19-.85.2l-.03-.64c.23-.02.45-.09.68-.17.61-.21,1.37-.49,2.38.53l-.45.45h0Z"/>
                  <path class="cls-2" d="m185.83,175.8c.27.03.53-.2.63-.45.1-.26.09-.54.12-.83.03-.31.09-.63,0-.93-.09-.3-.38-.57-.68-.49-.23.07-.37.31-.44.54-.14.42-.2.87-.17,1.31.03.36.19.79.54.83h0Z"/>
                </g>
                <path class="cls-2" d="m181.75,185.52l-.48-.42c.5-.57,1.23-.82,1.94-1.06.76-.26,1.48-.49,1.75-1.11.24-.53.09-1.22-.46-2.12-.24-.4-.5-.79-.77-1.18-.57-.85-1.16-1.74-1.53-2.73-.5-1.32-.63-3.29.63-4.54l.45.45c-1.05,1.03-.91,2.72-.49,3.86.35.92.89,1.74,1.47,2.6.26.4.54.8.78,1.21.66,1.09.82,1.98.49,2.71-.39.88-1.28,1.17-2.14,1.46-.66.22-1.28.43-1.67.88Z"/>
                <path class="cls-2" d="m178.88,188.64c-.13.5.37.99.89,1.04.51.05,1-.19,1.46-.43.39-.2.77-.43,1.07-.75.3-.32.49-.77.4-1.21-1.06-.05-2.13.16-3.08.63-.32.15-.66.37-.74.72h0Z"/>
              </g>
            </g>
            <g>
              <path class="cls-6" d="m188.51,193.53c-.3.1-.72-.1-.98-.17-.37-.1-1.01-.15-1.3-.42-.45-.41-.43-1.24-.41-1.8.02-.46,0-.93-.05-1.39-.02-.13-.14-1.29-.23-1.3.84.08,1.63.03,2.12.83.68,1.11.66,2.43,1.08,3.63.05.15.07.33-.03.47-.05.08-.12.12-.2.14h0Z"/>
              <path class="cls-6" d="m190.77,177.82c-.06-.32-.2-.65-.45-.85-.38-.28-.94-.21-1.34.06s-.64.71-.83,1.14c-.31.7-.43,1.65.17,2.12.59.45,1.48.11,1.94-.48.43-.55.62-1.29.5-1.99h0Z"/>
              <path class="cls-6" d="m194.31,179.91c.12-.83-.08-1.8-.8-2.21-.51-.29-1.18-.22-1.69.08s-.89.78-1.16,1.31c-.45.85-.63,1.98,0,2.71.56.66,1.63.71,2.37.26s1.17-1.3,1.29-2.15h-.02Z"/>
              <path class="cls-6" d="m196.48,181.21c-.14-.46-.43-.94-.9-1.03-.44-.09-.87.2-1.22.49-.41.34-.8.73-1.04,1.2-.24.48-.32,1.06-.1,1.55.41.9,1.75,1.1,2.54.49.78-.6,1-1.74.72-2.7h0Z"/>
            </g>
            <g>
              <path class="cls-2" d="m187.83,163.91c.16-1.4-1.32-2.51-2.71-2.58s-2.72.56-4.04,1.04c-2.43.87-5.06,1.21-7.63.99-1.38-.12-2.74-.39-4.12-.31s-2.82.57-3.63,1.68c-1.39,1.88-.49,4.49-.4,6.83.13,3.69-2.03,7.17-4.88,9.51-2.85,2.34-6.35,3.74-9.8,5.03.36-6.09.71-12.17,1.07-18.26.2-3.43.49-7.11,2.68-9.78,2.17-2.65,5.72-3.66,9.06-4.42,3.46-.78,6.98-1.44,10.52-1.29s7.13,1.18,9.86,3.46l4.04,8.09h0Z"/>
              <path class="cls-3" d="m162.77,155.43c.41-.29.69-.77.75-1.27-.15-.09-.3-.2-.45-.29,1.87-.03,3.74-.31,5.54-.86.03.1.05.2.08.31,1.78.88,3.65,1.77,5.63,1.66-1.01,1.85-3.03,2.89-4.98,3.69-1.95.81-4.02,1.56-5.43,3.12.5-1,1-2.01,1.5-3-.48,0-.95,0-1.43,0,.57-.95,1.78-1.24,2.85-1.54,1.07-.3,2.26-.86,2.48-1.95v.43c-1.13.28-2.27.57-3.4.85.37-.35.61-.82.71-1.31-1.23.43-2.58.49-3.84.19v-.02Z"/>
            </g>
            <g>
              <path class="cls-3" d="m207.39,236.49c.54,3.91,1.14,7.97,3.63,11.24s7.49,5.46,11.6,3.86c4.7-1.82,5.8-7.23,5.33-11.71-1.64-15.49-11.23-29.92-12.12-45.46-3.73.43-10.21,3.39-13.94,3.82,1.84,13.3,3.66,24.94,5.51,38.25h0Z"/>
              <path class="cls-2" d="m210.08,244.83c-1.12-2.52-1.7-5.23-2.24-8-2.14-11.03-3.57-22.34-4.86-33.41l8.1-2.17-.16-.61-8.01,2.14c-.17-1.49-.35-2.98-.52-4.46h0l-.63.08c1.46,12.69,2.99,25.81,5.46,38.56.54,2.82,1.13,5.57,2.29,8.14.91,2.03,2.59,4.81,5.43,6.49l.32-.55c-2.7-1.6-4.3-4.26-5.17-6.2h-.02Z"/>
            </g>
          </g>
          <g>
            <path class="cls-3" d="m149.09,156.42c.46-1.06,1.63-1.63,2.77-1.92,1.12-.3,2.32-.43,3.31-1.04s1.7-1.91,1.17-2.94c-.5,1.53-2.17,2.31-3.66,2.92s-3.15,1.44-3.58,3h0Z"/>
            <path class="cls-3" d="m157.68,152.54c-.81.81-1.62,1.63-2.43,2.43.67.33,1.56.19,2.09-.34.54-.54.68-1.41.34-2.09h0Z"/>
            <path class="cls-3" d="m139.27,192.44c-1.21-1.19-1.47-3.23-.62-4.69-.17,1.52.89,3.08,2.36,3.5-1.1-1.16-1.75-2.73-1.8-4.32-.04-1.6.53-3.2,1.57-4.42-1.69,1.16-3.19,2.75-3.68,4.73s.31,4.37,2.18,5.21h0Z"/>
          </g>
          <g>
            <g>
              <g>
                <path class="cls-7" d="m166.58,105.05c-1,.38-2.08-.16-3-.69-3.52-2.01-7.05-4.03-10.57-6.03-.39-.22-.83-.51-.89-.95-.08-.49.93-1.73,1.33-2.03,2.76-2.09,5.97-2.12,9.22-.94s5.72,4.54,5.46,7.98c-.09,1.08-.53,2.27-1.54,2.66h0Z"/>
                <path class="cls-2" d="m153.95,97.94c2.32,1.4,4.65,2.8,6.97,4.2,1.03.62,2.06,1.24,3.11,1.84.56.32,1.2.65,1.84.53.79-.14,1.32-.97,1.35-1.77s-.31-1.57-.72-2.26c-1.2-1.97-3.06-3.54-5.21-4.4-2.14-.85-4.58-.99-6.81-.38-.68.19-1.49.67-1.34,1.37.09.4.47.66.82.87Z"/>
                <circle class="cls-7" cx="148.29" cy="120.69" r="24.53"/>
                <path class="cls-2" d="m130.43,109.33c.65.59.56,1.62.42,2.48-.94,5.85-1.88,11.69-2.82,17.54-.03.24-.09.49-.24.67-.31.37-.96.27-1.3-.08-.35-.35-.47-.85-.58-1.33-.7-3.06-1.37-6.14-1.38-9.27,0-3.13.71-6.35,2.57-8.88.39-.54.85-1.06,1.46-1.33s1.38-.26,1.87.19h0Z"/>
                <path class="cls-7" d="m119.48,111.62c-2.86,3.25-3.74,8.11-2.21,12.15.43,1.14,1.06,2.25,1.99,3.03.94.79,2.21,1.23,3.4.96,1.23-.27,2.19-1.23,2.97-2.21,2.31-2.95,3.63-6.68,3.69-10.43.03-1.95-.38-4.09-1.91-5.29-1.17-.94-2.83-1.11-4.27-.7s-2.67,1.37-3.67,2.49h0Z"/>
                <circle class="cls-5" cx="149.94" cy="121.92" r="19.99"/>
                <circle class="cls-4" cx="149.65" cy="120.79" r="18.26"/>
              </g>
              <path class="cls-2" d="m154.27,111.02c-.14.21-4.83,11.7-4.83,11.7l-8.23-.57v-1.7l-3.97,1.7,3.12,3.26.64-2.06,9.22,1.06,6.45-11.91,1.91,1.28-1.06-5.81-4.61,2.2,1.34.85h.02Z"/>
              <path class="cls-5" d="m162.2,118c.48,2.55.36,5.21-.35,7.71-.18.63-.37,1.36.03,1.87.45.57,1.37.47,1.98.07.91-.59,1.43-1.63,1.76-2.66.99-3.06.68-6.53-.84-9.37-.24-.45-.55-.92-1.04-1.06-.73-.21-1.48.44-1.68,1.17s0,1.51.14,2.26h0Z"/>
              <path class="cls-5" d="m161.55,131.34c.26-.23.54-.48.66-.81s.03-.77-.28-.92c-.28-.14-.61,0-.87.15-.4.25-.75.59-1,.98-.14.22-.26.5-.18.75.11.31.51.45.83.37.32-.08.59-.31.84-.53h0Z"/>
              <path class="cls-2" d="m122.18,126.97l-.46-.44c3.62-3.77,5.39-9.11,4.73-14.3l.63-.08c.68,5.37-1.15,10.91-4.9,14.82h0Z"/>
              <path class="cls-2" d="m131.94,110.29l-.54-.33c3.57-5.92,10.33-9.91,17.24-10.14,6.91-.25,13.94,3.27,17.9,8.94l-.52.37c-3.84-5.5-10.65-8.9-17.35-8.66-6.7.23-13.26,4.09-16.72,9.84Z"/>
            </g>
            <g>
              <g>
                <path class="cls-1" d="m126.07,137.99c3.96,5.63,10.58,9.31,17.45,9.7-3.24,1.41-7.06,1.43-10.31.05s-5.9-6.44-7.14-9.74h0Z"/>
                <path class="cls-1" d="m122.14,133.08c.15,6.94,3.89,13.69,9.68,17.52-2.12.35-4.31-.6-5.86-2.09s-2.56-3.45-3.38-5.44c-1.32-3.2-2.17-7-.43-9.99Z"/>
              </g>
              <g>
                <path class="cls-1" d="m176.35,109.48c3.02,6.22,3.1,13.8.21,20.08,4.78-6.85,5.27-16.46,1.2-23.75l-1.41,3.69h0Z"/>
                <path class="cls-1" d="m182.78,109.61c.82,3.96.82,8.08,0,12.03,4.28-5.22,5.36-12.86,2.7-19.06l-2.69,7.03h0Z"/>
              </g>
            </g>
          </g>
        </g>
        <g>
          <g>
            <path class="cls-5" d="m338.84,195.25c-6.6-3.28-14.77-3.19-21.31.24-6.53,3.42-11.26,10.09-12.31,17.39-.67,4.62.14,9.59,2.93,13.34,2.79,3.75,7.28,5.95,11.84,6.96,4.73,1.06,9.8.95,14.26-.94,5.23-2.22,9.29-6.85,11.26-12.19,1.97-5.34,1.91-11.31.33-16.77l-6.99-8.01h0Z"/>
            <g>
              <path class="cls-5" d="m309.49,195.76c-6.51,7.69-9.99,17.86-9.53,27.93-2.83-4.52-2.42-10.5-.21-15.35,2.2-4.86,5.97-8.81,9.74-12.57h0Z"/>
              <path class="cls-5" d="m314,193.5c-6.58.5-12.63,5.28-14.66,11.56-.83-4.15,1.94-8.4,5.65-10.43,3.71-2.03,4.77-1.43,9-1.12h0Z"/>
            </g>
          </g>
          <g>
            <path class="cls-3" d="m352.23,216.79l2.87-15.95c.17-.94-.49-1.85-1.46-1.95-10.35-1.07-20.81-1.11-31.16-.09-.72.07-1.47.16-2.07.57-.83.58-1.13,1.63-1.38,2.6-1.34,5.3-2.26,10.71-2.77,16.15-.11,1.17.72,2.21,1.89,2.34,9.64,1.06,19.39,1.23,29.06.49,1.46-.11,3.06-.31,4-1.43.64-.75.83-1.77,1.01-2.74h0Z"/>
            <path class="cls-2" d="m340.15,209.91c-.66-.57-1.32-1.14-1.97-1.71-.17-.15-.36-.31-.57-.38-.02,0-.03,0-.05,0,5.09-1.98,10.21-4.08,15.14-6.46l-.2-.43c-6.9,3.34-14.19,6.11-21.23,8.8-.55.21-1.17.45-1.77.37-.77-.11-1.38-.71-1.95-1.33-2.26-2.43-4.35-5.05-6.24-7.77l-.39.27c.3.43.61.86.93,1.29.59,1.31.87,2.35,1.46,3.52.6,1.17,1.02,2.56.75,3.8-2.54,1.9-4.84,4.09-6.88,6.55l.37.3c2.63-3.18,5.73-5.91,9.2-8.14.15.17.3.34.45.5.62.67,1.31,1.34,2.23,1.47.1.02.21.03.31.03.6,0,1.2-.22,1.69-.41.83-.31,1.65-.63,2.48-.94,1.27-.08,2.55.11,3.77.49.86.26,1.68.62,2.47,1.04,3.21,2.2,6.32,4.54,9.29,7.03l.31-.37c-2.62-2.2-5.36-4.3-8.18-6.27-.47-.42-.94-.83-1.41-1.23h0Z"/>
          </g>
        </g>
        <g>
          <path class="cls-2" d="m219.78,291.51c.16-2.9-9.11-6.4-14.02-6.34-4.78.06-11.28,1.61-10.82,6.34h24.83Z"/>
          <g>
            <path class="cls-6" d="m205.66,286.11c.26-.34.22-.85.02-1.23-.2-.38-.55-.66-.89-.94-.65-.53-1.29-1.06-1.94-1.59-.32-1.04-.51-2.14-1.29-2.86-.83-.77-2.03-.8-3.2-.93-1.97-1.32-4.09-2.56-6.43-2.49-.9.03-1.8.25-2.64.57-2.51.98-4.56,2.85-6.91,4.17-2.35,1.32-5.39,2.04-7.67.62-1.4,2.19-1.69,5.05-.77,7.48,7.58,1.69,11.29,2.64,21.84-1.14.32.09.66.19.97.29,1.36.45,2.71,1.02,4.15,1.14.37.03.76.03,1.08-.15.32-.19.53-.6.37-.94.54.24,1.11.49,1.7.45s1.21-.45,1.25-1.04c.04-.54-.37-1-.76-1.38.23.37.84.31,1.11-.03v-.02Z"/>
            <path class="cls-3" d="m160.18,228.76c.71-5.81.71-12.13-3.31-16.75-2.01-2.3-4.96-3.68-8-3.37-4.67.48-6.66,4.32-8.09,8-7.28,18.77-8.08,37.73-10.31,57.51-.39,3.45,1.75,6.66,5.09,7.63,12.44,3.57,26.23,8.3,38.15,11.43.71-3.97,2.03-7.84,3.87-11.42-10.43-5.09-18.43-8.86-28.52-14.6,4.79-16.14,9.51-25.36,11.11-38.42v-.02Z"/>
            <path class="cls-2" d="m148.92,267.54l-.61-.2c1.44-4.56,3.08-9.12,4.67-13.54,1.59-4.41,3.23-8.97,4.66-13.51.99-3.12,2.07-6.75,2.54-10.3.52-3.91.2-7.19-.97-10.05l.59-.24c1.22,2.97,1.55,6.36,1.01,10.37-.48,3.6-1.57,7.26-2.56,10.41-1.44,4.56-3.08,9.12-4.67,13.54-1.59,4.41-3.23,8.97-4.66,13.51h0Z"/>
            <rect class="cls-2" x="165.55" y="286.09" width="9.29" height=".64" transform="translate(-157.77 345.07) rotate(-69.42)"/>
          </g>
        </g>
      </g>
      <g>
        <rect class="cls-2" x="238.28" y="232.88" width="75.91" height="49.49"/>
        <rect class="cls-7" x="264.27" y="251.23" width="29.93" height="20.14" rx="4.26" ry="4.26"/>
        <rect class="cls-5" x="242" y="233.93" width=".85" height="46.54"/>
        <path class="cls-2" d="m281.66,281.62v-22.6c0-.91-.74-1.65-1.65-1.65h-.03c-.91,0-1.65.74-1.65,1.65v22.6c0,4.34-3.51,7.86-7.86,7.86h-13.29c-.76,0-1.38.61-1.38,1.38v.02h54.91v-.02c0-.76-.61-1.38-1.38-1.38h-19.82c-4.34,0-7.86-3.51-7.86-7.86h0Z"/>
      </g>
      <g>
        <g>
          <path class="cls-7" d="m134.65,291.23h-38.12c-.92,0-1.7-.66-1.86-1.56l-4.08-22.61c-.21-1.16.68-2.23,1.86-2.23h38.12c.92,0,1.7.66,1.86,1.56l4.08,22.61c.21,1.16-.68,2.23-1.86,2.23h0Z"/>
          <path class="cls-2" d="m132.74,290.5h-36c-.87,0-1.61-.62-1.76-1.47l-3.85-21.35c-.2-1.1.65-2.1,1.76-2.1h36c.87,0,1.61.62,1.76,1.47l3.85,21.35c.2,1.1-.65,2.1-1.76,2.1Z"/>
          <path class="cls-7" d="m92.6,277.24h41.06l-2.22,12.32c-.16.89-.93,1.52-1.82,1.52h-37.3c-1.16,0-2.03-1.05-1.82-2.18l2.1-11.67Z"/>
        </g>
        <rect class="cls-2" x="91.29" y="284.04" width="36.18" height=".64"/>
      </g>
      <g>
        <g>
          <rect class="cls-7" x="301.16" y="292.62" width="2.29" height="163.26"/>
          <rect class="cls-7" x="290.42" y="292.62" width="2.29" height="148.79"/>
        </g>
        <g>
          <rect class="cls-7" x="46.83" y="292.62" width="2.29" height="163.26"/>
          <rect class="cls-7" x="57.57" y="292.62" width="2.29" height="148.79"/>
        </g>
        <g>
          <rect class="cls-5" x="30.78" y="291.06" width="291.53" height="3.75"/>
          <rect class="cls-2" x="30.78" y="293.62" width="291.53" height="3.75"/>
        </g>
      </g>
    </g>
  </g>
  <g>
    <g>
      <path class="cls-3" d="m395.37,140.93h28.14v.63c0,5.95-4.83,10.79-10.79,10.79h-6.56c-5.95,0-10.79-4.83-10.79-10.79v-.63h0Z" transform="translate(818.87 293.27) rotate(-180)"/>
      <path class="cls-3" d="m414.58,154.44c0,4.66,3.38,8.44,7.55,8.44s7.55-3.78,7.55-8.44c0-4.66-3.38-8.44-7.55-8.44-4.17,0-7.55,3.78-7.55,8.44Z"/>
      <path class="cls-3" d="m384.73,193.94c0,4.66,3.38,8.44,7.55,8.44s7.55-3.78,7.55-8.44c0-4.66-3.38-8.44-7.55-8.44-4.17,0-7.55,3.78-7.55,8.44Z"/>
      <path class="cls-3" d="m385.08,236.5c0,4.66,3.38,8.44,7.55,8.44,4.17,0,7.55-3.78,7.55-8.44,0-4.66-3.38-8.44-7.55-8.44s-7.55,3.78-7.55,8.44Z"/>
      <path class="cls-3" d="m389.31,154.44c0,4.66,3.38,8.44,7.55,8.44,4.17,0,7.55-3.78,7.55-8.44s-3.38-8.44-7.55-8.44-7.55,3.78-7.55,8.44Z"/>
      <polygon class="cls-7" points="403.01 159.31 416.13 159.55 417.79 140.93 399.83 140.93 403.01 159.31"/>
      <polygon class="cls-7" points="400.72 145.03 409.4 148.13 417.32 142.06 416.02 132.16 406.81 128.33 397.35 135.94 400.72 145.03"/>
      <path class="cls-7" d="m387.38,191.41c4.36.22,8.73.14,13.09-.22,2-.17,3.5-2.13,3.31-4.36-.73-8.59-1.45-17.19-2.18-25.78-.18-2.1-1.79-3.68-3.68-3.61-2.64.09-5.28.03-7.91-.17-1.94-.15-3.64,1.44-3.83,3.6-.74,8.73-1.48,17.45-2.21,26.18-.19,2.28,1.37,4.26,3.41,4.37Z"/>
      <path class="cls-7" d="m376.61,233.24l5.74-29.83c.48-2.47,2.43-4.24,4.69-4.24h7.99c2.26,0,4.22,1.77,4.69,4.24l5.74,29.83h0v10.25c0,2.11-1.47,3.63-3.28,3.92-.28.04-4.21-1.81-4.21-4v-5.18c0-2.76-2-4.99-4.46-4.99h-11.04c-1.65,0-3,1.5-3,3.35v10.82s-2.86-1.01-2.86-2.59v-11.57s0,0,0,0Z"/>
      <path class="cls-3" d="m416.88,194.04c.07,4.66,3.5,8.39,7.67,8.32,4.17-.06,7.49-3.89,7.42-8.55-.07-4.66-3.5-8.39-7.67-8.32-4.17.06-7.49,3.89-7.42,8.55Z"/>
      <path class="cls-3" d="m419.75,236.45c.07,4.66,3.5,8.39,7.67,8.32,4.17-.06,7.49-3.89,7.42-8.55-.07-4.66-3.5-8.39-7.67-8.32-4.17.06-7.49,3.89-7.42,8.55Z"/>
      <path class="cls-7" d="m418,191.41c4.36.22,8.73.14,13.09-.22,2-.17,3.5-2.13,3.31-4.36-.73-8.59-1.45-17.19-2.18-25.78-.18-2.1-1.79-3.68-3.68-3.61-2.64.09-5.28.03-7.91-.17-1.94-.15-3.64,1.44-3.83,3.6-.74,8.73-1.48,17.45-2.21,26.18-.19,2.28,1.37,4.26,3.41,4.37Z"/>
      <path class="cls-7" d="m411.24,233.32l5.3-29.91c.44-2.48,2.37-4.27,4.63-4.31l7.99-.12c2.26-.03,4.24,1.7,4.76,4.17l6.18,29.74h0l.15,10.25c.03,2.11-1.34,3.88-3.15,4.19-.27.05-.56.06-.85.04-1.95-.15-3.45-2.01-3.49-4.2l-.08-5.18c-.04-2.75-2.07-4.96-4.54-4.92l-11.04.16c-1.66.02-2.97,1.54-2.95,3.39l.16,10.78s-2.87-.94-2.9-2.52l-.17-11.57h0Z"/>
      <g>
        <path class="cls-7" d="m368.97,38.93c.2.43.4.87.6,1.3-12.63,4.97-19.77,18.58-11.64,36.08-.41.19-3.69,1.56-4.1,1.75-8.52-18.37,1.9-33.88,15.15-39.13Z"/>
        <path class="cls-7" d="m353.97,74.29c3.01-1.31,7.46,2.4,9.91,8.21,2.33,5.53,2.09,11.16-.56,12.77,0,0,0,0,0,0-4.27,1.39-10.79-.02-12.72-4.59l-1.62-3.5c-2.17-4.68.53-10.95,5-12.89Z"/>
        <path class="cls-3" d="m433.12,103.93c3.65-1.99,8.62.09,11.1,4.65,2.48,4.56,1.52,9.86-2.13,11.85-3.65,1.99-8.63-.09-11.1-4.65-2.48-4.56-1.52-9.86,2.13-11.85Z"/>
        <path class="cls-7" d="m356.08,77.06c-15.59-33.57,30.42-54.96,46-21.38.39-.18.78-.36,1.17-.55-16.38-35.31-64.76-12.83-48.37,22.49.4-.19.8-.37,1.2-.56Z"/>
        <polygon class="cls-3" points="364.16 137.34 373.99 117.22 386.64 126.44 379.58 144.44 364.16 137.34"/>
        <path class="cls-3" d="m377.54,135.04c3.4,3.19,3.57,8.54.38,11.95-3.19,3.41-8.54,3.6-11.94.41-3.4-3.19-3.57-8.54-.38-11.95,3.19-3.41,8.54-3.6,11.94-.41Z"/>
        <path class="cls-3" d="m431.8,117l-15.86-17.08,2.29-3.22c3.53-4.95,10.64-4.72,15.57.51l9.56,10.14-11.56,9.65Z"/>
        <g>
          <g>
            <path class="cls-7" d="m471.55,152.71c.46-.33.92-.66,1.38-.98.35-.25.84-.17,1.09.19.62.89,1.2,1.8,1.75,2.73.22.38.08.87-.31,1.08-.49.27-.99.54-1.48.81-.37.21-.84.07-1.05-.29-.49-.83-1.01-1.64-1.56-2.44-.25-.35-.17-.84.18-1.09Z"/>
            <path class="cls-7" d="m474.73,156.88c.22-.11.45-.22.67-.33.39-.19.86-.04,1.05.35.58,1.19,1.1,2.41,1.56,3.65.15.41-.07.86-.49,1-.24.08-.47.16-.71.24-.4.14-.84-.07-.98-.47-.42-1.15-.91-2.28-1.45-3.39-.19-.39-.04-.86.35-1.05Z"/>
          </g>
          <path class="cls-7" d="m438.92,114.09c1.04-.6,2.04-1.26,3.01-1.97,2.72-2.02,6.54-1.69,8.95.7,4.71,4.66,9.42,9.32,14.13,13.98,2.84,2.81,2.69,7.41-.29,10.08-3.38,3.03-7.1,5.64-11.11,7.78-3.58,1.91-8.03.38-9.63-3.35-2.65-6.18-5.29-12.35-7.94-18.53-1.37-3.2-.15-6.94,2.87-8.68Z"/>
          <path class="cls-7" d="m460.32,141.38l2.55-1.94c2.56-1.95,6.22-1.47,8.17,1.08l2.07,2.71-10.8,8.24-2.85-3.72c-1.52-1.99-1.14-4.84.86-6.37Z"/>
          <path class="cls-7" d="m468.87,147.03h2.63c.43,0,.78.35.78.78v3.65c0,.43-.35.78-.78.78h-2.63c-.43,0-.78-.35-.78-.78v-3.65c0-.43.35-.78.78-.78Z" transform="translate(5.69 316.11) rotate(-37.37)"/>
          <g>
            <path class="cls-7" d="m475.22,149.78c.46-.33.92-.66,1.38-.98.35-.25.84-.17,1.09.19.62.89,1.2,1.8,1.75,2.73.22.38.08.87-.31,1.08-.49.27-.99.54-1.48.81-.37.21-.84.07-1.05-.29-.49-.83-1.01-1.65-1.56-2.44-.25-.35-.17-.84.18-1.09Z"/>
            <path class="cls-7" d="m478.4,153.95c.22-.11.45-.22.67-.33.39-.19.86-.04,1.05.35.58,1.19,1.1,2.41,1.56,3.65.15.41-.07.86-.49,1-.24.08-.47.16-.71.24-.4.14-.84-.07-.98-.47-.42-1.15-.91-2.28-1.45-3.39-.19-.39-.04-.86.35-1.05Z"/>
          </g>
          <path class="cls-7" d="m472.54,144.1h2.63c.43,0,.78.35.78.78v3.65c0,.43-.35.78-.78.78h-2.63c-.43,0-.78-.35-.78-.78v-3.65c0-.43.35-.78.78-.78Z" transform="translate(8.22 317.71) rotate(-37.37)"/>
          <g>
            <path class="cls-7" d="m467.9,155.69c.46-.33.92-.66,1.38-.98.35-.25.84-.17,1.09.19.62.89,1.2,1.8,1.75,2.73.22.38.08.87-.31,1.08-.49.27-.99.54-1.48.81-.37.21-.84.07-1.05-.29-.49-.83-1.01-1.65-1.56-2.44-.25-.35-.17-.84.18-1.09Z"/>
            <path class="cls-7" d="m471.08,159.86c.22-.11.45-.22.67-.33.39-.19.86-.04,1.05.35.58,1.19,1.1,2.41,1.56,3.65.15.41-.07.86-.49,1-.24.08-.47.16-.71.24-.4.14-.84-.07-.98-.47-.42-1.15-.91-2.28-1.45-3.39-.19-.39-.04-.86.35-1.05Z"/>
          </g>
          <path class="cls-7" d="m465.22,150.01h2.63c.43,0,.78.35.78.78v3.65c0,.43-.35.78-.78.78h-2.63c-.43,0-.78-.35-.78-.78v-3.65c0-.43.35-.78.78-.78Z" transform="translate(3.13 314.5) rotate(-37.37)"/>
          <g>
            <path class="cls-7" d="m461.65,153.68c-.55.14-1.1.28-1.64.42-.42.11-.67.54-.56.95.28,1.05.6,2.08.96,3.1.15.41.61.62,1.02.46.52-.21,1.05-.41,1.57-.61.4-.15.6-.59.46-.99-.32-.91-.6-1.83-.85-2.77-.11-.42-.53-.67-.95-.56Z"/>
            <path class="cls-7" d="m462.78,158.8c-.23.1-.46.2-.69.3-.4.17-.58.64-.41,1.03.54,1.21,1.13,2.4,1.78,3.54.22.38.71.5,1.08.27.21-.13.43-.26.64-.39.36-.22.48-.69.27-1.06-.6-1.07-1.16-2.16-1.65-3.29-.17-.39-.63-.58-1.03-.41Z"/>
          </g>
          <path class="cls-7" d="m459.15,148.34s-.07-.09-.1-.13l-.76.17c-.41.09-.66.49-.57.9l.8,3.65c.09.4.49.66.9.57l2.3-.51c.28-.06.49-.27.56-.54l-3.14-4.11Z"/>
        </g>
        <path class="cls-7" d="m394.11,140.88c-6.33-7.63-12.81-15.15-19.45-22.56-1.33-1.48-1.06-3.78.56-4.94,12.86-9.15,27.33-15.78,42.64-19.55,2.03-.5,4.01.97,4.11,3.05.47,9.73,1.35,19.41,2.62,29.04.21,1.6-.87,2.84-2.29,3.62-2.98,1.63-4.06,1.71-22.42,11.26-.7.23-.89.43-1.8.97-1.35.63-2.99.28-3.97-.9Z"/>
        <path class="cls-3" d="m397.62,107.82l1.18-.55c2.34-1.09,3.35-3.86,2.27-6.2l-4.49-9.67-9.65,4.48,4.48,9.66c1.09,2.34,3.87,3.36,6.21,2.27Z"/>
        <ellipse class="cls-7" cx="382.34" cy="72.15" rx="28.83" ry="27.74" transform="translate(6.02 171.02) rotate(-25.41)"/>
        <path class="cls-3" d="m368.68,88.08c8.16-6.06,17.41-10.32,27.32-12.57,2.01-.46,3.14-2.64,2.56-4.96-.49-1.95-.98-3.9-1.47-5.84-.62-2.45-2.89-4.1-5.01-3.61-11.54,2.68-22.29,7.72-31.73,14.88-1.72,1.31-1.92,4.1-.46,6.14,1.12,1.57,2.25,3.13,3.37,4.7,1.39,1.94,3.77,2.49,5.42,1.26Z"/>
        <path class="cls-8" d="m364.9,80.32c.74,1.6,2.7,2.27,4.38,1.49,1.68-.78,2.43-2.71,1.69-4.31-.74-1.6-2.7-2.27-4.38-1.49-1.68.78-2.43,2.71-1.69,4.31Z"/>
        <path class="cls-8" d="m383.83,70.91c.74,1.6,2.7,2.27,4.38,1.49,1.68-.78,2.43-2.71,1.69-4.31-.74-1.6-2.7-2.27-4.38-1.49-1.68.78-2.43,2.71-1.69,4.31Z"/>
        <path class="cls-7" d="m405.21,54.13c-.39.18-3.37,2.08-3.77,2.26-7.32-15.78-20.72-20.13-31.93-16.08-.2-.43-.37-.87-.49-1.34,11.79-4.26,28.49-1.43,36.18,15.16Z"/>
        <path class="cls-7" d="m401.21,52.01c-3.37,1.67-3.42,8.31-.15,14.75,3.12,6.13,8.22,10.08,11.59,8.95,0,0,0,0,0,0,4.37-2.72,7.96-9.47,5.39-14.55l-1.86-4.01c-2.49-5.37-9.97-7.63-14.97-5.15Z"/>
        <g>
          <g>
            <path class="cls-7" d="m334.63,176.77c.34.45.68.91,1.01,1.36.26.35.18.84-.16,1.09-.88.64-1.77,1.24-2.69,1.81-.37.23-.86.1-1.08-.29-.28-.49-.56-.98-.84-1.46-.21-.37-.09-.84.27-1.06.82-.51,1.62-1.05,2.4-1.62.35-.25.83-.19,1.09.16Z"/>
            <path class="cls-7" d="m330.54,180.04c.12.22.23.44.35.66.2.38.06.86-.33,1.06-1.18.61-2.38,1.15-3.61,1.64-.41.16-.86-.05-1.01-.47-.08-.24-.17-.47-.26-.7-.15-.4.06-.84.45-.99,1.14-.45,2.26-.96,3.35-1.52.38-.2.85-.06,1.06.33Z"/>
          </g>
          <path class="cls-7" d="m370.76,142.15c.72.96,1.5,1.87,2.34,2.74,2.35,2.45,2.5,6.28.44,8.97-4.02,5.27-8.05,10.53-12.07,15.8-2.42,3.17-7,3.6-10.02.98-3.43-2.97-6.48-6.34-9.11-10.04-2.35-3.31-1.39-7.92,2.1-9.98,5.79-3.41,11.57-6.81,17.36-10.22,3-1.77,6.86-1.03,8.97,1.76Z"/>
          <path class="cls-7" d="m345.71,165.28l2,2.51c2.01,2.52,1.6,6.19-.9,8.2l-2.66,2.13-8.47-10.62,3.66-2.93c1.96-1.57,4.81-1.24,6.38.72Z"/>
          <path class="cls-7" d="m338.89,172.67l1.64,2.06c.27.34.21.83-.12,1.1l-2.85,2.28c-.34.27-.83.21-1.1-.12l-1.64-2.06c-.27-.34-.22-.83.12-1.1l2.85-2.28c.34-.27.83-.21,1.1.12Z"/>
          <g>
            <path class="cls-7" d="m337.65,180.37c.34.45.68.91,1.01,1.36.26.35.18.84-.16,1.09-.88.64-1.77,1.24-2.69,1.81-.37.23-.86.1-1.08-.29-.28-.49-.56-.98-.84-1.46-.21-.37-.09-.84.27-1.06.82-.51,1.62-1.05,2.4-1.62.35-.25.83-.19,1.09.16Z"/>
            <path class="cls-7" d="m333.55,183.65c.12.22.23.44.35.66.2.38.06.86-.33,1.06-1.18.61-2.38,1.15-3.61,1.64-.41.16-.86-.06-1.01-.47-.08-.23-.17-.47-.26-.7-.15-.4.06-.84.45-.99,1.14-.45,2.26-.96,3.35-1.52.38-.2.85-.06,1.06.33Z"/>
          </g>
          <path class="cls-7" d="m341.9,176.28l1.64,2.06c.27.34.21.83-.12,1.1l-2.85,2.28c-.34.27-.83.21-1.1-.12l-1.64-2.06c-.27-.34-.21-.83.12-1.1l2.85-2.28c.34-.27.83-.21,1.1.12Z"/>
          <g>
            <path class="cls-7" d="m331.58,173.18c.34.45.68.91,1.01,1.36.26.35.18.84-.16,1.09-.87.64-1.77,1.24-2.69,1.81-.37.23-.86.1-1.08-.29-.28-.49-.56-.98-.84-1.46-.21-.37-.09-.84.27-1.06.82-.51,1.62-1.05,2.4-1.62.35-.25.83-.19,1.09.16Z"/>
            <path class="cls-7" d="m327.48,176.45c.12.22.23.44.35.66.2.38.06.86-.33,1.06-1.18.61-2.38,1.15-3.61,1.64-.41.16-.86-.06-1.01-.47-.08-.24-.17-.47-.25-.7-.15-.4.05-.84.45-.99,1.14-.45,2.26-.96,3.35-1.52.38-.2.85-.06,1.06.33Z"/>
          </g>
          <path class="cls-7" d="m335.84,169.09l1.64,2.06c.27.34.22.83-.12,1.1l-2.85,2.28c-.34.27-.83.21-1.1-.12l-1.64-2.06c-.27-.34-.22-.83.12-1.1l2.85-2.28c.34-.27.83-.21,1.1.12Z"/>
          <g>
            <path class="cls-7" d="m333.45,166.88c-.15-.55-.3-1.09-.46-1.63-.12-.41-.55-.66-.96-.54-1.04.3-2.07.64-3.08,1.03-.41.16-.6.62-.44,1.03.22.52.43,1.04.64,1.56.16.39.6.58,1,.43.9-.34,1.82-.64,2.75-.92.41-.12.66-.55.54-.96Z"/>
            <path class="cls-7" d="m328.36,168.12c-.1-.23-.21-.45-.31-.68-.18-.39-.65-.57-1.04-.39-1.2.56-2.37,1.18-3.5,1.86-.37.22-.48.72-.25,1.09.13.21.27.42.4.63.23.36.7.47,1.06.25,1.05-.63,2.14-1.2,3.25-1.73.39-.18.57-.64.39-1.04Z"/>
          </g>
          <path class="cls-7" d="m338.73,164.27s.09-.07.13-.1l-.18-.75c-.1-.4-.51-.65-.91-.55l-3.63.88c-.4.1-.65.5-.55.91l.56,2.29c.07.28.29.49.55.55l4.03-3.23Z"/>
        </g>
      </g>
      <path class="cls-3" d="m410.3,247.41c-.43-1.32-.67-2.72-.67-4.18,0-7.37,5.97-13.34,13.33-13.34,7.36,0,13.33,5.97,13.33,13.34,0,1.46-.24,2.86-.67,4.18h-25.31Z"/>
      <path class="cls-3" d="m376.87,247.41c-.43-1.32-.67-2.72-.67-4.18,0-7.37,5.97-13.34,13.33-13.34,7.36,0,13.33,5.97,13.33,13.34,0,1.46-.24,2.86-.67,4.18h-25.31Z"/>
    </g>
    <path class="cls-7" d="m409.44,27.68c0,1.42,1.15,2.57,2.57,2.57s2.57-1.15,2.57-2.57-1.15-2.57-2.57-2.57-2.57,1.15-2.57,2.57Z"/>
    <polygon class="cls-7" points="408.71 55.35 410.1 42.17 406.64 39.89 411.79 38.24 408.32 35.82 411.3 34.43 412.61 27.8 411.39 27.56 410.21 33.57 405.84 35.61 409.01 37.82 403.78 39.49 408.78 42.79 407.47 55.22 408.71 55.35"/>
  </g>
</svg>