<svg width="15" height="12" viewBox="0 0 15 12" fill="none" xmlns="http://www.w3.org/2000/svg">
<path d="M13.875 3.16663L11.3528 4.56787C9.94658 5.34907 9.24349 5.73972 8.49889 5.89286C7.83986 6.02836 7.16014 6.02836 6.50111 5.89286C5.75654 5.73972 5.05344 5.34907 3.64723 4.56787L1.125 3.16663M3.39167 10.9583H11.6083C12.4017 10.9583 12.7985 10.9583 13.1015 10.8039C13.368 10.6681 13.5848 10.4513 13.7206 10.1848C13.875 9.88177 13.875 9.48503 13.875 8.69163V3.30829C13.875 2.51489 13.875 2.11818 13.7206 1.81514C13.5848 1.54857 13.368 1.33185 13.1015 1.19604C12.7985 1.04163 12.4017 1.04163 11.6083 1.04163H3.39167C2.59826 1.04163 2.20155 1.04163 1.89851 1.19604C1.63195 1.33185 1.41523 1.54857 1.27941 1.81514C1.125 2.11818 1.125 2.51488 1.125 3.30829V8.69163C1.125 9.48503 1.125 9.88177 1.27941 10.1848C1.41523 10.4513 1.63195 10.6681 1.89851 10.8039C2.20155 10.9583 2.59826 10.9583 3.39167 10.9583Z" stroke="#999999" stroke-linecap="round" stroke-linejoin="round"/>
</svg>
