<svg width="13" height="13" viewBox="0 0 13 13" fill="none" xmlns="http://www.w3.org/2000/svg">
<path d="M6.5 9.75H6.50542M4.98333 11.375H8.01667C8.62339 11.375 8.92678 11.375 9.1585 11.2569C9.36233 11.1531 9.52808 10.9873 9.63192 10.7835C9.75 10.5518 9.75 10.2484 9.75 9.64167V3.35833C9.75 2.75161 9.75 2.44825 9.63192 2.21651C9.52808 2.01267 9.36233 1.84694 9.1585 1.74308C8.92678 1.625 8.62339 1.625 8.01667 1.625H4.98333C4.37661 1.625 4.07325 1.625 3.84151 1.74308C3.63767 1.84694 3.47194 2.01267 3.36808 2.21651C3.25 2.44825 3.25 2.75161 3.25 3.35833V9.64167C3.25 10.2484 3.25 10.5518 3.36808 10.7835C3.47194 10.9873 3.63767 11.1531 3.84151 11.2569C4.07325 11.375 4.37661 11.375 4.98333 11.375Z" stroke="#999999" stroke-linecap="round" stroke-linejoin="round"/>
</svg>
