<svg width="10" height="10" viewBox="0 0 10 10" fill="none" xmlns="http://www.w3.org/2000/svg">
<g clip-path="url(#clip0_2147_999)">
<path d="M7.91667 0.833313H2.08333C1.86252 0.833972 1.65094 0.921982 1.49481 1.07812C1.33867 1.23426 1.25066 1.44584 1.25 1.66665L1.25 9.16665H8.75V1.66665C8.74934 1.44584 8.66133 1.23426 8.50519 1.07812C8.34906 0.921982 8.13748 0.833972 7.91667 0.833313ZM4.58333 8.33331V6.66665H5.41667V8.33331H4.58333ZM7.91667 8.33331H6.25V6.24998C6.25334 6.19439 6.24485 6.13873 6.2251 6.08666C6.20534 6.03459 6.17476 5.98731 6.13538 5.94793C6.096 5.90855 6.04872 5.87797 5.99665 5.85822C5.94459 5.83846 5.88892 5.82997 5.83333 5.83331H4.16667C4.11108 5.82997 4.05541 5.83846 4.00335 5.85822C3.95128 5.87797 3.904 5.90855 3.86462 5.94793C3.82524 5.98731 3.79466 6.03459 3.7749 6.08666C3.75515 6.13873 3.74666 6.19439 3.75 6.24998V8.33331H2.08333V1.66665H7.91667V8.33331ZM4.58333 3.33331H3.75V2.49998H4.58333V3.33331ZM6.25 3.33331H5.41667V2.49998H6.25V3.33331ZM4.58333 4.99998H3.75V4.16665H4.58333V4.99998ZM6.25 4.99998H5.41667V4.16665H6.25V4.99998Z" fill="#999999"/>
</g>
<defs>
<clipPath id="clip0_2147_999">
<rect width="10" height="10" fill="white"/>
</clipPath>
</defs>
</svg>
