<svg width="11" height="14" viewBox="0 0 11 14" fill="none" xmlns="http://www.w3.org/2000/svg">
<path d="M10.3889 5.16666H9.16667V3.63888C9.16667 2.74746 8.81255 1.89255 8.18222 1.26222C7.55189 0.631887 6.69698 0.277771 5.80556 0.277771H5.19444C4.30302 0.277771 3.44811 0.631887 2.81778 1.26222C2.18745 1.89255 1.83333 2.74746 1.83333 3.63888V5.16666H0.611111C0.449034 5.16666 0.293596 5.23104 0.17899 5.34565C0.0643847 5.46026 0 5.61569 0 5.77777V13.1111C0 13.2732 0.0643847 13.4286 0.17899 13.5432C0.293596 13.6578 0.449034 13.7222 0.611111 13.7222H10.3889C10.551 13.7222 10.7064 13.6578 10.821 13.5432C10.9356 13.4286 11 13.2732 11 13.1111V5.77777C11 5.61569 10.9356 5.46026 10.821 5.34565C10.7064 5.23104 10.551 5.16666 10.3889 5.16666ZM3.05556 3.63888C3.05556 3.07161 3.2809 2.52758 3.68202 2.12646C4.08314 1.72534 4.62718 1.49999 5.19444 1.49999H5.80556C6.37282 1.49999 6.91686 1.72534 7.31798 2.12646C7.7191 2.52758 7.94444 3.07161 7.94444 3.63888V5.16666H3.05556V3.63888ZM9.77778 12.5H1.22222V6.38888H9.77778V12.5Z" fill="#999999"/>
<path d="M3.05558 10.3611C3.56184 10.3611 3.97225 9.9507 3.97225 9.44444C3.97225 8.93818 3.56184 8.52777 3.05558 8.52777C2.54932 8.52777 2.13892 8.93818 2.13892 9.44444C2.13892 9.9507 2.54932 10.3611 3.05558 10.3611Z" fill="#999999"/>
<path d="M5.49992 10.3611C6.00618 10.3611 6.41659 9.9507 6.41659 9.44444C6.41659 8.93818 6.00618 8.52777 5.49992 8.52777C4.99366 8.52777 4.58325 8.93818 4.58325 9.44444C4.58325 9.9507 4.99366 10.3611 5.49992 10.3611Z" fill="#999999"/>
<path d="M7.9445 10.3611C8.45076 10.3611 8.86117 9.9507 8.86117 9.44444C8.86117 8.93818 8.45076 8.52777 7.9445 8.52777C7.43824 8.52777 7.02783 8.93818 7.02783 9.44444C7.02783 9.9507 7.43824 10.3611 7.9445 10.3611Z" fill="#999999"/>
</svg>
