<svg width="11" height="11" viewBox="0 0 11 11" fill="none" xmlns="http://www.w3.org/2000/svg">
<path d="M5.50008 4.58335C6.5126 4.58335 7.33341 3.76254 7.33341 2.75002C7.33341 1.7375 6.5126 0.916687 5.50008 0.916687C4.48756 0.916687 3.66675 1.7375 3.66675 2.75002C3.66675 3.76254 4.48756 4.58335 5.50008 4.58335Z" stroke="#999999"/>
<path d="M9.16544 8.24998C9.16658 8.17472 9.16658 8.09827 9.16658 8.02081C9.16658 6.88172 7.52497 5.95831 5.49992 5.95831C3.47487 5.95831 1.83325 6.88172 1.83325 8.02081C1.83325 9.15991 1.83325 10.0833 5.49992 10.0833C6.52246 10.0833 7.25983 10.0115 7.79159 9.8832" stroke="#999999" stroke-linecap="round"/>
</svg>
