<svg width="60" height="60" viewBox="0 0 60 60" fill="none" xmlns="http://www.w3.org/2000/svg">
<g clip-path="url(#clip0_2868_1499)">
<path d="M5.33825 52.4129C2.41489 52.4129 0.00195312 50.0464 0.00195312 47.0766V5.45349C0.00195313 2.53012 2.36849 0.117188 5.33825 0.117188H44.502C47.4254 0.117188 49.8383 2.48372 49.8383 5.45349V25.1282L49.6527 25.0818C48.8639 24.8498 48.1214 24.757 47.2862 24.757H47.2398L47.1934 24.6178H47.0542V5.45349C47.0542 4.10781 45.8477 2.90134 44.502 2.90134H5.33825C3.99258 2.90134 2.78611 4.10781 2.78611 5.45349V47.0766C2.78611 48.4223 3.99258 49.6288 5.33825 49.6288H25.8946L25.941 49.6752C26.4514 50.3712 26.173 50.8816 25.9874 51.2528C25.8018 51.5777 25.709 51.8097 26.0338 52.1345L26.3122 52.4129H5.33825Z" fill="#10108A"/>
<path d="M8.35383 10.3223C7.8434 10.3223 7.42578 9.67264 7.42578 8.88379C7.42578 8.09495 7.8434 7.44531 8.35383 7.44531H24.1307C24.6411 7.44531 25.0588 8.09495 25.0588 8.88379C25.0588 9.67264 24.6411 10.3223 24.1307 10.3223H8.35383Z" fill="#10108A"/>
<path d="M24.1307 7.58594H8.35383C7.93621 7.58594 7.56499 8.14277 7.56499 8.88521C7.56499 9.62765 7.93621 10.1845 8.35383 10.1845H24.1307C24.5483 10.1845 24.9196 9.62765 24.9196 8.88521C24.9196 8.14277 24.5947 7.58594 24.1307 7.58594ZM8.16822 17.7481C7.7506 17.7481 7.42578 17.1449 7.42578 16.3096C7.42578 15.4744 7.7506 14.8711 8.16822 14.8711H19.4905C19.9081 14.8711 20.2329 15.4744 20.2329 16.3096C20.2329 17.1449 19.9081 17.7481 19.4905 17.7481H8.16822Z" fill="#10108A"/>
<path d="M19.4904 15.012H8.16816C7.84334 15.012 7.61133 15.5688 7.61133 16.3112C7.61133 17.0537 7.84334 17.6105 8.16816 17.6105H19.4904C19.8152 17.6105 20.0472 17.0537 20.0472 16.3112C20.0472 15.5688 19.7688 15.012 19.4904 15.012ZM42.8773 59.8833C41.2532 59.8833 39.4899 59.7904 37.2162 59.6048C33.9216 59.3264 30.9054 57.7951 27.9821 54.9646L14.8037 42.0647C11.7412 39.0949 11.602 35.1971 14.3397 32.2273C15.4998 31.0208 17.3095 30.2784 19.2584 30.2784C21.2073 30.2784 22.9706 31.0208 24.0842 32.3201C24.1307 32.3665 24.2235 32.4593 24.4091 32.5521C24.4555 32.5985 24.5483 32.6449 24.5947 32.6913V26.4734V23.4108C24.5947 21.0443 24.5947 18.6314 24.6411 16.2648C24.6875 12.7382 27.4252 10.0469 31.0446 10.0469H31.091C34.5712 10.0469 37.2162 12.599 37.4018 16.0792C37.4482 16.8681 37.4482 17.7033 37.4018 18.5385V19.6058H38.0978C40.5108 19.6058 42.3669 20.4411 43.7125 22.2044C43.7589 22.2972 44.0374 22.39 44.4086 22.39C44.5478 22.39 44.687 22.39 44.7798 22.3436C45.1974 22.2972 45.615 22.2508 45.9863 22.2508C47.8424 22.2508 49.4665 22.9932 50.8585 24.5245C51.0906 24.7565 51.601 24.9421 52.065 24.9421H52.2506C52.5754 24.8957 52.9467 24.8493 53.2715 24.8493C56.7517 24.8493 59.5358 27.3086 59.5822 30.5104C59.7214 36.4035 59.8142 42.2039 59.1646 47.9578C58.3758 54.9182 54.6636 58.6304 47.4248 59.5584C46.0791 59.7904 44.5478 59.8833 42.8773 59.8833ZM19.0264 32.9234C18.0519 32.9234 17.1239 33.2946 16.4278 33.9442C15.5926 34.7795 15.1285 35.7539 15.1285 36.8212C15.1285 37.9348 15.639 39.0485 16.567 39.9765L18.3303 41.7398C22.1817 45.5449 26.1724 49.4427 30.163 53.2941C32.1119 55.1502 34.3392 56.3567 36.7986 56.8207C38.7011 57.1919 40.6036 57.3775 42.4597 57.3775C44.1302 57.3775 45.8007 57.2383 47.4248 56.9135C53.3179 55.8462 56.0092 53.0157 56.5661 47.5402C57.0765 42.2967 57.0301 36.914 56.9373 31.7169V30.8816C56.8909 28.9791 55.5452 27.6799 53.6427 27.6799C53.1323 27.6799 52.6682 27.7727 52.1578 27.9583V35.1971C52.1578 35.8467 52.1578 37.0996 50.8585 37.0996H50.8121C50.3945 37.0996 50.0697 37.0068 49.8841 36.7748C49.5129 36.4035 49.4665 35.7075 49.4665 35.1507V34.8723C49.4665 32.7377 49.5129 30.5568 49.4665 28.3759C49.4201 26.4734 48.0744 25.1277 46.2183 25.1277C45.7543 25.1277 45.2902 25.2205 44.8726 25.3597V32.8769C44.8726 33.5266 44.7334 34.037 44.4086 34.3618C44.1766 34.5938 43.8518 34.733 43.4341 34.733H43.3877C42.1349 34.6866 42.1349 33.3874 42.1349 32.9234V29.8608V25.963C42.1349 25.0813 41.7636 24.1533 41.0676 23.4572C40.418 22.8076 39.5363 22.4364 38.6547 22.4364C38.2834 22.4364 37.8658 22.4828 37.4946 22.622V25.963C37.4946 27.5407 37.4946 29.2111 37.4018 30.8352C37.3554 31.2529 36.9842 31.5777 36.6129 31.9025C36.4737 32.0417 36.2881 32.1809 36.1489 32.3201L36.0097 32.4593L35.9169 32.2273C35.8241 32.0881 35.6849 31.9489 35.5457 31.8561C35.2673 31.5313 34.9425 31.2065 34.7568 30.8352C34.6176 30.5568 34.664 30.232 34.664 29.9536V29.5824V25.5453C34.664 22.5756 34.664 19.513 34.6176 16.4968C34.6176 14.2695 33.1792 12.7846 31.091 12.7382C28.8173 12.7382 27.286 14.3623 27.286 16.7288V38.5845L26.6828 38.9557L26.6364 38.8629C26.2188 38.3989 25.7547 37.9348 25.3371 37.4708C24.3627 36.4499 23.3418 35.3363 22.3209 34.3154C21.3929 33.4338 20.2328 32.9234 19.0264 32.9234Z" fill="#10108A"/>
</g>
<defs>
<clipPath id="clip0_2868_1499">
<rect width="60" height="60" fill="white"/>
</clipPath>
</defs>
</svg>
