<svg width="24" height="27" viewBox="0 0 24 27" fill="none" xmlns="http://www.w3.org/2000/svg">
<path d="M21.8771 8.19629H20.752V15.429H21.8771C22.6406 15.429 23.259 14.7864 23.259 13.9939V9.63177C23.259 8.83891 22.6406 8.19629 21.8771 8.19629Z" fill="#002c8a"/>
<path d="M21.2849 0H19.7767H2.71508C1.6248 0 0.741211 0.917947 0.741211 2.04979V24.9498C0.741211 26.0821 1.62475 27 2.71508 27H17.8025C18.8928 27 19.7767 26.0821 19.7767 24.9498V7.23231H21.8768C22.6404 7.23231 23.2588 6.59006 23.2588 5.79756V2.04979C23.2588 0.917947 22.3749 0 21.2849 0ZM7.22105 10.9207C7.22105 9.02902 8.69731 7.49566 10.5192 7.49566C12.3404 7.49566 13.8166 9.02907 13.8166 10.9207V11.741C13.8166 13.6322 12.3404 15.1652 10.5192 15.1652C8.69731 15.1652 7.22105 13.6322 7.22105 11.741V10.9207ZM14.5515 20.5572C13.4848 20.5572 10.5192 20.5572 10.5192 20.5572C10.5192 20.5572 7.55301 20.5572 6.48625 20.5572C5.41954 20.5572 4.936 18.9462 5.55299 17.8079C6.01764 16.9495 6.77895 15.9773 8.01908 15.4244C8.72819 15.9393 9.58964 16.2425 10.5192 16.2425C11.4478 16.2425 12.3096 15.9393 13.0187 15.4244C14.2585 15.9773 15.0202 16.9495 15.4851 17.8079C16.1018 18.9462 15.6182 20.5572 14.5515 20.5572Z" fill="#002c8a"/>
</svg>
