<svg width="60" height="60" viewBox="0 0 60 60" fill="none" xmlns="http://www.w3.org/2000/svg">
<g clip-path="url(#clip0_2869_1530)">
<path fill-rule="evenodd" clip-rule="evenodd" d="M25 22.5C23.6193 22.5 22.5 23.6193 22.5 25V52.5C22.5 53.8807 23.6193 55 25 55H52.5C53.8807 55 55 53.8807 55 52.5V25C55 23.6193 53.8807 22.5 52.5 22.5H25ZM37.5 17.5V7.5C37.5 6.1193 36.3807 5 35 5H7.5C6.1193 5 5 6.1193 5 7.5V35C5 36.3807 6.1193 37.5 7.5 37.5H17.5V25C17.5 20.8579 20.8579 17.5 25 17.5H37.5ZM42.5 17.5H52.5C56.6423 17.5 60 20.8579 60 25V52.5C60 56.6423 56.6423 60 52.5 60H25C20.8579 60 17.5 56.6423 17.5 52.5V42.5H7.5C3.35788 42.5 0 39.1423 0 35V7.5C0 3.35788 3.35788 0 7.5 0H35C39.1423 0 42.5 3.35788 42.5 7.5V17.5Z" fill="#10108A"/>
</g>
<defs>
<clipPath id="clip0_2869_1530">
<rect width="60" height="60" fill="white"/>
</clipPath>
</defs>
</svg>
