<svg width="27" height="23" viewBox="0 0 27 23" fill="none" xmlns="http://www.w3.org/2000/svg">
<path fill-rule="evenodd" clip-rule="evenodd" d="M16.2 6.7752C16.2 6.03 16.8048 5.4252 17.55 5.4252C18.2952 5.4252 18.9 6.03 18.9 6.7752C18.9 7.5204 18.2952 8.1252 17.55 8.1252C16.8048 8.1252 16.2 7.5204 16.2 6.7752ZM17.2125 11.1627L21.6 16.9002H5.4L11.4993 8.54641L15.3279 13.6939L17.2125 11.1627ZM24.3 18.2502C24.3 18.9954 23.6952 19.6002 22.95 19.6002H4.05C3.3048 19.6002 2.7 18.9954 2.7 18.2502V4.7502C2.7 4.005 3.3048 3.4002 4.05 3.4002H22.95C23.6952 3.4002 24.3 4.005 24.3 4.7502V18.2502ZM24.3 0.700195H2.7C1.2096 0.700195 0 1.90845 0 3.4002V19.6002C0 21.0906 1.2096 22.3002 2.7 22.3002H24.3C25.7917 22.3002 27 21.0906 27 19.6002V3.4002C27 1.90845 25.7917 0.700195 24.3 0.700195Z" fill="#002c8a"/>
</svg>
