<svg width="61" height="61" viewBox="0 0 61 61" fill="none" xmlns="http://www.w3.org/2000/svg">
<g clip-path="url(#clip0_2869_1505)">
<path d="M17.3933 20.092H48.2849V18.161C48.2849 16.5673 46.9796 15.2644 45.3884 15.2644H32.6384V13.578C32.6384 11.1783 30.6867 9.23438 28.2948 9.23438H20.8795C19.7209 9.23438 18.6318 9.68747 17.8079 10.5114C16.9839 11.3354 16.5333 12.4167 16.5333 13.578V15.2669H3.78328C2.18956 15.2644 0.886719 16.5671 0.886719 18.161V44.0294L10.6244 24.3018C11.8062 21.8994 14.7208 20.092 17.3933 20.092ZM19.43 13.578C19.43 13.1943 19.5871 12.8312 19.8574 12.5584C20.1278 12.2803 20.4934 12.1284 20.877 12.1284H28.2923C29.0931 12.1284 29.7393 12.7773 29.7393 13.578V15.2669H19.4301V13.578H19.43Z" fill="#10108A"/>
<path d="M59.0017 22.9844H17.394C15.8027 22.9844 13.9206 24.1533 13.2229 25.5797L2.03313 48.2476C1.3277 49.6715 2.05629 50.8404 3.64751 50.8404H45.2552C46.8465 50.8404 48.7312 49.674 49.4315 48.2476L60.6187 25.5797C61.3215 24.1533 60.598 22.9844 59.0017 22.9844Z" fill="#10108A"/>
</g>
<defs>
<clipPath id="clip0_2869_1505">
<rect width="60" height="60" fill="white" transform="translate(0.886719 0.0390625)"/>
</clipPath>
</defs>
</svg>
