<svg width="25" height="25" viewBox="0 0 25 25" fill="none" xmlns="http://www.w3.org/2000/svg">
<path d="M18.749 5.40937C18.749 5.77486 19.1148 6.14035 19.6262 6.14035C20.3569 6.14035 20.5762 5.84796 20.5762 5.40937C20.5762 5.33627 20.5762 5.33627 20.5762 5.2635C20.5034 5.0442 20.2838 4.89801 20.0651 4.75181C19.9917 4.75181 19.8458 4.67871 19.7 4.67871C19.1876 4.67904 18.749 4.9711 18.749 5.40937Z" fill="#002c8a"/>
<path d="M20.2839 2.99647C20.2102 2.55788 19.9181 2.19238 19.5529 2.19238C19.1871 2.19238 18.9678 2.55788 19.0416 2.99647C19.1153 3.43506 19.4067 3.80055 19.7722 3.80055C20.0646 3.80055 20.3567 3.43506 20.2839 2.99647Z" fill="#002c8a"/>
<path d="M16.9953 8.4791L18.2379 7.23642C18.9686 7.82121 19.8468 8.1867 20.7967 8.1867C23.0624 8.1867 24.8902 6.35891 24.8902 4.09319C24.8896 1.82714 23.0624 0 20.7964 0C18.531 0 16.7029 1.82746 16.7029 4.09351C16.7029 5.11689 17.068 5.99375 17.6532 6.65196L16.4102 7.89496C16.6295 8.11393 16.8487 8.33355 16.9953 8.4791ZM21.4543 2.77742H22.258V1.97366H22.5504V2.77774H23.3548V3.07014H22.5504V3.87454H22.258V3.06981H21.4543V2.77742ZM19.6268 4.16629C19.6268 4.09319 19.6268 4.02009 19.7006 3.94699C19.6268 3.94699 19.6268 3.94699 19.5547 3.94699C18.9696 3.94699 18.531 3.5084 18.531 2.99671C18.531 2.48502 19.1155 2.04643 19.7006 2.04643H21.0157L20.7233 2.26573H20.2847C20.5771 2.33915 20.7233 2.70464 20.7233 3.06981C20.7233 3.3622 20.5771 3.5815 20.3575 3.80079C20.1382 3.94699 20.0651 4.02009 20.0651 4.16629C20.0651 4.31248 20.2847 4.53178 20.4306 4.60488C20.7957 4.82417 20.8692 5.11657 20.8692 5.48206C20.8692 5.99342 20.4306 6.43234 19.5537 6.43234C18.8231 6.43234 18.1648 6.13994 18.1648 5.62826C18.1648 5.11657 18.7493 4.67798 19.4803 4.67798C19.5537 4.67798 19.6262 4.67798 19.6996 4.67798C19.6996 4.45901 19.6268 4.31281 19.6268 4.16629Z" fill="#002c8a"/>
<path d="M20.7962 16.8123C19.8463 16.8123 18.896 17.1774 18.2374 17.7625L16.9951 16.5195C16.8486 16.7388 16.6293 16.8844 16.4834 17.0306L17.7264 18.2736C17.1416 19.0039 16.7761 19.8821 16.7761 20.8323C16.7761 23.0981 18.6042 24.9259 20.87 24.9259C23.1354 24.9259 24.9638 23.0981 24.9638 20.8323C24.8894 18.5663 23.0623 16.8123 20.7962 16.8123ZM19.6266 22.7332H18.8225V20.1745H19.6266V22.7332ZM19.2611 19.8096C18.9687 19.8096 18.7498 19.59 18.7498 19.3704C18.7498 19.1511 18.9691 18.9318 19.2611 18.9318C19.5532 18.9318 19.7725 19.1511 19.7725 19.3704C19.6994 19.6631 19.5535 19.8096 19.2611 19.8096ZM22.9161 22.7332H21.9658V21.4178C21.9658 21.0526 21.8199 20.833 21.5269 20.833C21.3076 20.833 21.1617 20.9792 21.0883 21.1254C21.0883 21.1995 21.0883 21.2719 21.0883 21.345V22.7342H20.2111C20.2111 22.7342 20.2111 20.3951 20.2111 20.1754H21.0883V20.5409C21.1617 20.3951 21.4541 20.1023 21.8927 20.1023C22.4771 20.1023 22.9161 20.4675 22.9161 21.2719V22.7332Z" fill="#002c8a"/>
<path d="M7.93077 16.5205L6.68809 17.7635C5.95711 17.1784 5.07993 16.8132 4.12965 16.8132C1.86359 16.8132 0.0361328 18.6413 0.0361328 20.9064C0.0361328 23.1725 1.86359 25.0003 4.12965 25.0003C6.39537 25.0003 8.22316 23.1725 8.22316 20.9064C8.22316 19.9561 7.85767 19.0062 7.27288 18.348L8.51555 17.105C8.29626 16.8853 8.07696 16.6657 7.93077 16.5205ZM5.88434 20.2482C5.88434 21.4909 4.93406 22.8794 3.25279 22.8794C2.74143 22.8794 2.22941 22.7332 1.86392 22.4402C1.93702 22.4402 2.01012 22.4402 2.08322 22.4402C2.52181 22.4402 2.8873 22.2943 3.25279 22.075C2.8873 22.075 2.52181 21.7826 2.37561 21.4168C2.44871 21.4168 2.52148 21.4168 2.52148 21.4168C2.59491 21.4168 2.66768 21.4168 2.7411 21.4168C2.30219 21.343 2.01012 20.9782 2.01012 20.5396C2.15631 20.613 2.30251 20.6855 2.44871 20.6855C2.22941 20.5396 2.01012 20.2469 2.01012 19.9545C2.01012 19.809 2.08322 19.6621 2.15631 19.5159C2.59491 20.101 3.25247 20.4662 4.05655 20.4662C4.05655 20.3924 4.05655 20.3203 4.05655 20.2469C4.05655 19.7352 4.49547 19.2966 5.00683 19.2966C5.29922 19.2966 5.51852 19.4425 5.66504 19.589C5.88434 19.5156 6.10363 19.4428 6.24983 19.3697C6.1764 19.589 6.03021 19.7349 5.81091 19.8808C6.03021 19.8808 6.1764 19.8073 6.3226 19.7349C6.1764 19.9542 6.03021 20.1 5.88401 20.1735C5.88434 20.1748 5.88434 20.1748 5.88434 20.2482Z" fill="#002c8a"/>
<path d="M4.12965 8.18685C5.07993 8.18685 6.02988 7.82135 6.68809 7.23657L7.93077 8.47924C8.07696 8.25994 8.29626 8.11407 8.44246 7.96788L7.19946 6.7252C7.78424 5.99422 8.14974 5.11704 8.14974 4.16676C8.14974 1.9007 6.32227 0.0732422 4.05622 0.0732422C1.7905 0.0732422 0.0361328 1.9007 0.0361328 4.16676C0.0361328 6.35906 1.86359 8.18685 4.12965 8.18685ZM3.17937 3.43512H3.61796V2.99653C3.61796 2.41174 3.83725 2.04625 4.56824 2.04625H5.15303V2.77723H4.78753C4.49514 2.77723 4.49514 2.85033 4.49514 3.06963V3.43512H5.15303L5.07993 4.1661H4.42139V6.21286H3.54421V4.1661H3.10594V3.43512H3.17937Z" fill="#002c8a"/>
<path d="M16.1915 14.546C16.1177 14.4005 15.9719 14.3264 15.8991 14.3264C15.2412 14.1071 14.6567 13.9616 13.9988 13.7419C13.9257 13.7419 13.7796 13.5961 13.7796 13.3033C13.7796 13.1568 13.7795 13.0837 13.6337 13.0837C13.5599 13.0837 13.6337 13.0837 13.5599 13.0106C13.4872 12.7182 13.4872 12.5717 13.4872 12.4989C13.4872 12.4262 13.5599 12.4255 13.5599 12.3527C13.7796 12.0603 13.8523 11.6221 13.8523 11.4756C13.8523 11.4756 13.9257 11.4756 13.9257 11.4021C13.9988 11.2559 13.9988 11.2559 13.9988 11.0363C14.0726 10.8908 14.0726 10.6715 13.9257 10.6715C13.8523 10.7446 13.8523 10.6715 13.8523 10.5253V9.64809C13.8523 9.3557 13.6327 9.13673 13.4872 9.06363C13.2672 8.91711 13.1948 8.84401 13.1213 8.84401C13.0479 8.77091 13.0479 8.69781 13.1213 8.62471C13.1944 8.55194 13.2672 8.55194 13.2672 8.47852C13.2672 8.47852 13.2672 8.47852 13.1938 8.47852C13.1204 8.47852 12.6824 8.55227 12.4631 8.62471C12.0976 8.69781 11.7321 8.84401 11.4394 9.06363C11.2201 9.2095 11.0739 9.4288 11.0739 9.72184C11.0739 9.86739 11.0739 10.3063 11.0739 10.599C11.0739 10.6728 11.0739 10.7452 11.0008 10.6728C10.7815 10.6728 10.9277 10.9652 10.9277 11.0376C10.9277 11.1838 11.0008 11.2572 11.0736 11.4034C11.0736 11.4769 11.147 11.4769 11.147 11.4769C11.2201 11.6962 11.2932 12.1347 11.4394 12.354C11.4394 12.354 11.5128 12.4275 11.5128 12.5002C11.5128 12.6464 11.5128 12.8657 11.4394 13.0119C11.4394 13.0119 11.4394 13.0854 11.3663 13.0854C11.2201 13.0854 11.2201 13.1584 11.2201 13.3046C11.2201 13.5239 11.0739 13.7436 11.0008 13.7436C10.6353 13.8891 9.53919 14.2549 9.17337 14.328C8.95407 14.4018 8.88097 14.4742 8.80787 14.5473L8.44238 15.4245C9.90403 15.4245 10.6353 16.3017 12.1704 16.5941H12.9014C14.4365 16.3748 15.5326 15.4245 16.5563 15.4245L16.1915 14.546Z" fill="#002c8a"/>
</svg>
