<svg width="60" height="60" viewBox="0 0 60 60" fill="none" xmlns="http://www.w3.org/2000/svg">
<path d="M17.4002 5C18.444 5 19.2901 5.7749 19.2901 6.73078V10.2221C20.9666 10.1923 22.8457 10.1923 24.9601 10.1923H35.04C37.1542 10.1923 39.0335 10.1923 40.71 10.2221V6.73078C40.71 5.7749 41.556 5 42.5997 5C43.6437 5 44.4898 5.7749 44.4898 6.73078V10.3752C48.117 10.6412 50.498 11.294 52.2475 12.896C53.9968 14.4979 54.7095 16.6785 55 20V22.5H5V20C5.29045 16.6785 6.00325 14.4979 7.7526 12.896C9.50197 11.294 11.8831 10.6412 15.5102 10.3752V6.73078C15.5102 5.7749 16.3563 5 17.4002 5Z" fill="#FAFAFA"/>
<path opacity="0.5" d="M54.9998 35V30C54.9998 27.9025 54.9681 24.1632 54.9358 22.5H5.01448C4.98223 24.1632 5.01393 27.9025 5.01393 30V35C5.01393 44.428 5.01393 49.1422 7.94203 52.071C10.8702 55 15.5829 55 25.0083 55H35.0056C44.4308 55 49.1436 55 52.0718 52.071C54.9998 49.1422 54.9998 44.428 54.9998 35Z" fill="#FAFAFA"/>
<path d="M45 41.25C45 43.321 43.321 45 41.25 45C39.179 45 37.5 43.321 37.5 41.25C37.5 39.179 39.179 37.5 41.25 37.5C43.321 37.5 45 39.179 45 41.25Z" fill="#FAFAFA"/>
</svg>
