<svg width="50" height="50" viewBox="0 0 50 50" fill="none" xmlns="http://www.w3.org/2000/svg">
<path d="M36.6074 26.793L28.5703 31.2559V40.1865L36.6074 44.6494L44.6445 40.1865V31.2559L36.6074 26.793ZM41.0703 38.0869L36.6074 40.5674L32.1445 38.0869V33.3604L36.6074 30.8799L41.0703 33.3604V38.0869Z" fill="#FAFAFA"/>
<path d="M34.8434 36.0088C34.8809 36.2404 34.9638 36.4624 35.0871 36.6621C35.2105 36.8617 35.372 37.0351 35.5624 37.1724C35.7527 37.3096 35.9683 37.408 36.1967 37.4619C36.4251 37.5159 36.6619 37.5243 36.8935 37.4867C37.1252 37.4491 37.3472 37.3663 37.5468 37.2429C37.7465 37.1196 37.9199 36.9581 38.0571 36.7677C38.1944 36.5773 38.2928 36.3618 38.3467 36.1334C38.4006 35.905 38.4091 35.6682 38.3715 35.4365C38.3339 35.2049 38.2511 34.9829 38.1277 34.7832C38.0043 34.5836 37.8429 34.4102 37.6525 34.273C37.4621 34.1357 37.2466 34.0373 37.0182 33.9834C36.7897 33.9294 36.553 33.921 36.3213 33.9586C36.0896 33.9962 35.8676 34.079 35.668 34.2024C35.4684 34.3257 35.295 34.4872 35.1577 34.6776C35.0205 34.868 34.9221 35.0835 34.8682 35.3119C34.8142 35.5403 34.8058 35.7771 34.8434 36.0088Z" fill="#FAFAFA"/>
<path d="M33.627 23.4277C33.0068 23.125 32.3721 22.8516 31.7275 22.6172C34.1592 20.6494 35.7119 17.6465 35.7119 14.2871C35.7119 8.37891 30.9072 3.57422 24.999 3.57422C19.0908 3.57422 14.2861 8.37891 14.2861 14.2871C14.2861 17.6514 15.8437 20.6592 18.2754 22.6221C10.7461 25.376 5.35547 32.6074 5.35547 41.0791H8.9248C8.9248 32.2168 16.1367 25.0098 24.9941 25.0098C27.4697 25.0098 29.8428 25.5566 32.0498 26.6357L33.627 23.4277ZM24.999 7.14355C28.9395 7.14355 32.1426 10.3467 32.1426 14.2871C32.1426 18.2275 28.9395 21.4307 24.999 21.4307C21.0586 21.4307 17.8555 18.2275 17.8555 14.2871C17.8555 10.3467 21.0635 7.14355 24.999 7.14355Z" fill="#FAFAFA"/>
</svg>
