<svg width="60" height="60" viewBox="0 0 60 60" fill="none" xmlns="http://www.w3.org/2000/svg">
<path d="M12.5 10C5.5 10 0 15.5 0 22.5C0 29.5 5.5 35 12.5 35H20C24 35 27.75 33 30 30C32.25 33 36 35 40 35H47.5C54.5 35 60 29.5 60 22.5C60 15.5 54.5 10 47.5 10H40C36 10 32.25 12 30 15C27.75 12 24 10 20 10H12.5ZM12.5 15H20C22.25 15 24.2188 16 25.4688 17.5H34.5312C35.7812 16 37.75 15 40 15H47.5C51.75 15 55 18.25 55 22.5C55 26.75 51.75 30 47.5 30H40C37.75 30 35.7812 29 34.5312 27.5H25.4688C24.2188 29 22.25 30 20 30H12.5C8.25 30 5 26.75 5 22.5C5 18.25 8.25 15 12.5 15ZM19.5312 20C18.8682 20.0622 18.257 20.3852 17.8321 20.898C17.4072 21.4108 17.2035 22.0713 17.2656 22.7344C17.3278 23.3974 17.6508 24.0086 18.1636 24.4335C18.6764 24.8584 19.337 25.0622 20 25H40C40.3313 25.0047 40.6602 24.9435 40.9676 24.8199C41.275 24.6964 41.5548 24.513 41.7908 24.2804C42.0267 24.0478 42.214 23.7706 42.3419 23.465C42.4698 23.1593 42.5356 22.8313 42.5356 22.5C42.5356 22.1687 42.4698 21.8407 42.3419 21.535C42.214 21.2294 42.0267 20.9522 41.7908 20.7196C41.5548 20.487 41.275 20.3036 40.9676 20.1801C40.6602 20.0565 40.3313 19.9953 40 20H20C19.9219 19.9963 19.8437 19.9963 19.7656 20C19.6875 19.9963 19.6093 19.9963 19.5312 20ZM42.5 40V47.5H35V52.5H42.5V60H47.5V52.5H55V47.5H47.5V40H42.5Z" fill="#FAFAFA"/>
</svg>
