<svg width="60" height="60" viewBox="0 0 60 60" fill="none" xmlns="http://www.w3.org/2000/svg">
<path d="M17.3507 5C18.3903 5 19.2332 5.81052 19.2332 6.81035V10.4622C20.9029 10.431 22.7746 10.431 24.8805 10.431H34.9202C37.026 10.431 38.8977 10.431 40.5675 10.4622V6.81035C40.5675 5.81052 41.4102 5 42.45 5C43.4895 5 44.3325 5.81052 44.3325 6.81035V10.6223C47.945 10.9005 50.3168 11.5833 52.059 13.259C53.8015 14.9346 54.5115 17.2154 54.8007 20.6896L55 22.5H7.3114H5V20.6896C5.28927 17.2154 5.99925 14.9346 7.74162 13.259C9.48402 11.5833 11.8557 10.9005 15.4683 10.6223V6.81035C15.4683 5.81052 16.311 5 17.3507 5Z" fill="#333232"/>
<path opacity="0.5" d="M54.9969 35.0003V30.0003C54.9969 27.9025 54.9889 24.1632 54.9567 22.5H5.02112C4.98884 24.1632 4.99702 27.9025 4.99702 30.0003V35.0003C4.99702 44.4283 4.99702 49.1423 7.92594 52.0713C10.8549 55.0003 15.5689 55.0002 24.997 55.0002H34.9969C44.4252 55.0002 49.1392 55.0003 52.0682 52.0713C54.9969 49.1423 54.9969 44.4283 54.9969 35.0003Z" fill="#333232"/>
<path d="M45 42.5C45 43.8807 43.8807 45 42.5 45C41.1193 45 40 43.8807 40 42.5C40 41.1193 41.1193 40 42.5 40C43.8807 40 45 41.1193 45 42.5Z" fill="#333232"/>
<path d="M45 32.5C45 33.8807 43.8807 35 42.5 35C41.1193 35 40 33.8807 40 32.5C40 31.1193 41.1193 30 42.5 30C43.8807 30 45 31.1193 45 32.5Z" fill="#333232"/>
<path d="M32.5 42.5C32.5 43.8807 31.3807 45 30 45C28.6193 45 27.5 43.8807 27.5 42.5C27.5 41.1193 28.6193 40 30 40C31.3807 40 32.5 41.1193 32.5 42.5Z" fill="#333232"/>
<path d="M32.5 32.5C32.5 33.8807 31.3807 35 30 35C28.6193 35 27.5 33.8807 27.5 32.5C27.5 31.1193 28.6193 30 30 30C31.3807 30 32.5 31.1193 32.5 32.5Z" fill="#333232"/>
<path d="M20 42.5C20 43.8807 18.8807 45 17.5 45C16.1193 45 15 43.8807 15 42.5C15 41.1193 16.1193 40 17.5 40C18.8807 40 20 41.1193 20 42.5Z" fill="#333232"/>
<path d="M20 32.5C20 33.8807 18.8807 35 17.5 35C16.1193 35 15 33.8807 15 32.5C15 31.1193 16.1193 30 17.5 30C18.8807 30 20 31.1193 20 32.5Z" fill="#333232"/>
</svg>
