<svg width="20" height="21" viewBox="0 0 20 21" fill="none" xmlns="http://www.w3.org/2000/svg">
<path d="M10 21.0001V15.6441V12.9707" stroke="#50B6FF" stroke-miterlimit="10"/>
<path d="M10 8.02937V0" stroke="#50B6FF" stroke-miterlimit="10"/>
<path d="M13.0002 1.85303L10.0001 4.94125L7 1.85303" stroke="#50B6FF" stroke-miterlimit="10"/>
<path d="M10 21.0001V15.6441V12.9707" stroke="#50B6FF" stroke-miterlimit="10"/>
<path d="M10 8.02937V0" stroke="#50B6FF" stroke-miterlimit="10"/>
<path d="M7 19.1473L10.0001 16.0591L13.0002 19.1473" stroke="#50B6FF" stroke-miterlimit="10"/>
<path d="M18.999 16.0589L14.1989 13.1799L11.7988 11.7354" stroke="#50B6FF" stroke-miterlimit="10"/>
<path d="M7.60018 9.26443L1 4.94092" stroke="#50B6FF" stroke-miterlimit="10"/>
<path d="M4.07214 3.70557L5.20011 8.09711L1 9.26436" stroke="#50B6FF" stroke-miterlimit="10"/>
<path d="M18.999 16.0589L14.1989 13.1799L11.7988 11.7354" stroke="#50B6FF" stroke-miterlimit="10"/>
<path d="M7.60018 9.26443L1 4.94092" stroke="#50B6FF" stroke-miterlimit="10"/>
<path d="M15.3291 17.2942L14.2012 13.3991L18.4013 12.353" stroke="#50B6FF" stroke-miterlimit="10"/>
<path d="M7.60018 11.7354L1 16.0589" stroke="#50B6FF" stroke-miterlimit="10"/>
<path d="M11.7988 9.26443L14.1989 7.82994L18.999 4.94092" stroke="#50B6FF" stroke-miterlimit="10"/>
<path d="M15.3291 3.70557L14.2012 8.09711L18.4013 9.26436" stroke="#50B6FF" stroke-miterlimit="10"/>
<path d="M7.60018 11.7354L1 16.0589" stroke="#50B6FF" stroke-miterlimit="10"/>
<path d="M11.7988 9.26443L14.1989 7.82994L18.999 4.94092" stroke="#50B6FF" stroke-miterlimit="10"/>
<path d="M4.07214 17.2942L5.20011 13.3991L1 12.353" stroke="#50B6FF" stroke-miterlimit="10"/>
<path d="M12.4001 10.4914C12.4024 11.0909 12.1663 11.6708 11.7359 12.1228C11.3054 12.5748 10.71 12.8682 10.0607 12.9483C9.41132 13.0284 8.7523 12.8897 8.20645 12.558C7.6606 12.2264 7.26518 11.7244 7.09389 11.1457C6.92261 10.567 6.98714 9.95109 7.27547 9.41272C7.5638 8.87435 8.05624 8.45028 8.66101 8.21956C9.26578 7.98884 9.94161 7.96722 10.5625 8.15872C11.1834 8.35022 11.707 8.74178 12.0358 9.2604C12.2725 9.63464 12.3981 10.059 12.4001 10.4914Z" stroke="#50B6FF" stroke-miterlimit="10"/>
</svg>
