<svg width="17" height="14" viewBox="0 0 17 14" fill="none" xmlns="http://www.w3.org/2000/svg">
<path d="M17 1.3735V10.393C16.9986 10.7568 16.8463 11.1054 16.5762 11.3627C16.3061 11.62 15.9401 11.7651 15.5582 11.7664H10.1266L8.7993 13.7932C8.77213 13.8545 8.72659 13.9068 8.66838 13.9436C8.61017 13.9804 8.54187 14 8.47202 14C8.40217 14 8.33388 13.9804 8.27567 13.9436C8.21746 13.9068 8.17192 13.8545 8.14475 13.7932L6.81744 11.7664H1.44313C1.06093 11.7655 0.694656 11.6205 0.424278 11.3632C0.153899 11.1058 0.00137344 10.757 0 10.393V1.3735C0.00137155 1.00962 0.153718 0.661029 0.423816 0.403731C0.693914 0.146434 1.05985 0.00130655 1.44183 0H15.5582C15.9401 0.00130655 16.3061 0.146434 16.5762 0.403731C16.8463 0.661029 16.9986 1.00962 17 1.3735ZM9.41871 8.87814C9.41897 8.705 9.3653 8.53567 9.26451 8.39158C9.16372 8.2475 9.02033 8.13513 8.85248 8.06871C8.68463 8.00228 8.49987 7.98477 8.32157 8.0184C8.14327 8.05202 7.97945 8.13528 7.85084 8.25762C7.72222 8.37997 7.6346 8.53591 7.59904 8.70571C7.56349 8.87551 7.5816 9.05154 7.6511 9.21153C7.7206 9.37151 7.83835 9.50827 7.98946 9.60449C8.14057 9.70071 8.31824 9.75207 8.5 9.75207C8.74343 9.75207 8.97691 9.66003 9.14917 9.49618C9.32142 9.33232 9.41836 9.11003 9.41871 8.87814ZM7.77909 6.60964C7.77909 6.79178 7.85504 6.96645 7.99024 7.09524C8.12544 7.22403 8.3088 7.29639 8.5 7.29639C8.6912 7.29639 8.87457 7.22403 9.00976 7.09524C9.14496 6.96645 9.22091 6.79178 9.22091 6.60964V2.59948C9.22091 2.41734 9.14496 2.24266 9.00976 2.11387C8.87457 1.98508 8.6912 1.91273 8.5 1.91273C8.3088 1.91273 8.12544 1.98508 7.99024 2.11387C7.85504 2.24266 7.77909 2.41734 7.77909 2.59948V6.60964Z" fill="#606060"/>
</svg>
