<svg width="19" height="19" viewBox="0 0 19 19" fill="none" xmlns="http://www.w3.org/2000/svg">
<path d="M9.52503 1.60791C7.98135 1.60791 6.54048 2.05124 5.32923 2.81124L10.7601 8.25003L10.768 6.08083C10.768 5.75624 11.0372 5.48708 11.3618 5.48708C11.6943 5.48708 11.9555 5.75624 11.9555 6.08083L11.9476 9.68287C11.9476 9.92837 11.7971 10.1421 11.5755 10.2292C11.5042 10.2609 11.4251 10.2766 11.3539 10.2766C11.1955 10.2766 11.0451 10.2134 10.9343 10.1025L4.45048 3.61083C4.41882 3.57916 4.39506 3.54749 4.37131 3.51583C2.67715 4.97249 1.6084 7.12583 1.6084 9.52454C1.6084 13.8946 5.15507 17.4412 9.52503 17.4412C11.0688 17.4412 12.5097 16.9979 13.7209 16.2379L8.2901 10.7992L8.28219 12.9683C8.28219 13.2929 8.01302 13.562 7.6884 13.562C7.3559 13.562 7.09465 13.2929 7.09465 12.9683L7.10256 9.36628C7.10256 9.12079 7.25298 8.90712 7.47465 8.82003C7.6884 8.72503 7.94969 8.77253 8.11594 8.9467L14.5996 15.4383C14.6314 15.47 14.655 15.5016 14.6789 15.5334C16.3729 14.0766 17.4417 11.9233 17.4417 9.52454C17.4417 5.15458 13.8951 1.60791 9.52503 1.60791Z" fill="#50B6FF"/>
</svg>
