<svg width="18" height="18" viewBox="0 0 18 18" fill="none" xmlns="http://www.w3.org/2000/svg">
<path d="M16.3561 7.23391C16.1251 7.23391 15.9485 7.4241 15.9485 7.64146V14.9773C15.9485 15.4392 15.5817 15.806 15.1199 15.806H2.70326C2.24137 15.806 1.87458 15.4392 1.87458 14.9773V3.00901C1.87458 2.54712 2.24137 2.18033 2.70326 2.18033H10.6912C10.9221 2.18033 11.0987 1.99014 11.0987 1.77278C11.0987 1.54184 10.9085 1.36523 10.6912 1.36523H2.62175C1.75231 1.36523 1.0459 2.07165 1.0459 2.94108V15.086C1.0459 15.9554 1.75231 16.6618 2.62175 16.6618H15.2014C16.0708 16.6618 16.7772 15.9554 16.7772 15.086V7.64146C16.7772 7.4241 16.587 7.23391 16.3561 7.23391Z" fill="#606060"/>
<path d="M16.438 2.8733L15.6909 2.12613C15.1746 1.6099 14.3596 1.55557 13.8977 2.03104L6.032 9.8967L8.66747 12.5322L16.5331 4.66651C17.0086 4.20462 16.9679 3.38953 16.438 2.8733ZM14.4546 5.5767L8.61313 11.4182L7.14596 9.96462L13.0146 4.09594L14.4546 5.5767ZM15.949 4.08236L15.0795 4.95179L13.626 3.48462L14.4818 2.62877C14.6584 2.45217 14.9709 2.46575 15.1611 2.66953L15.9082 3.4167C16.112 3.5933 16.1256 3.90575 15.949 4.08236ZM6.032 9.92387L5.21691 12.8854C5.17615 13.0212 5.21691 13.1571 5.312 13.2522C5.4071 13.3473 5.54295 13.388 5.67879 13.3473L8.6403 12.5322L8.02898 11.9208L6.11351 12.4507L6.64332 10.5216L6.032 9.92387Z" fill="#606060"/>
</svg>
