<svg width="20" height="20" viewBox="0 0 20 20" fill="none" xmlns="http://www.w3.org/2000/svg">
<path d="M14.18 10.0783C14.18 7.63703 12.9106 6.36703 10.4688 6.36703C12.91 6.36703 14.18 5.11703 14.18 2.67578C14.18 5.11703 15.43 6.36703 17.8713 6.36703C15.43 6.36703 14.18 7.63641 14.18 10.0783ZM8.61312 3.80891C8.61312 8.24266 10.9375 10.567 15.3713 10.567C10.9375 10.567 8.61312 12.8914 8.61312 17.3252C8.61312 12.8914 6.30813 10.567 1.875 10.567C6.30875 10.567 8.61312 8.24266 8.61312 3.80891ZM13.4963 13.1445C13.4963 14.297 14.1019 14.922 15.2544 14.922H15.2738C14.1019 14.922 13.4963 15.5277 13.4963 16.6802C13.4963 15.5277 12.8906 14.922 11.7381 14.922C12.8906 14.922 13.4963 14.297 13.4963 13.1445Z" fill="#50B6FF"/>
</svg>
