<svg width="17" height="19" viewBox="0 0 17 19" fill="none" xmlns="http://www.w3.org/2000/svg">
<path d="M16.7903 7.86182C16.977 7.67039 17.0469 7.36767 16.968 7.09287C16.8892 6.81798 16.6768 6.62542 16.4292 6.60387L11.4931 6.17369C11.2639 6.15335 11.0637 5.98696 10.9732 5.74092L9.01287 0.434108C8.9144 0.168541 8.68909 -0.0031566 8.44088 4.39897e-05C8.19323 0.0027179 7.97073 0.178345 7.87669 0.446546L6.00095 5.79501C5.91431 6.04316 5.71628 6.21416 5.48767 6.23888L0.558894 6.77548C0.311935 6.80222 0.102729 6.9994 0.0283324 7.27554C-0.0459948 7.55172 0.0289223 7.85339 0.217829 8.0406L3.99474 11.7766C4.16984 11.9503 4.24802 12.2225 4.19777 12.4837L3.11194 18.1225C3.05764 18.4052 3.15323 18.6983 3.35564 18.8667C3.55808 19.0345 3.82638 19.0449 4.03777 18.8921L8.24739 15.852C8.44255 15.7111 8.6886 15.7084 8.88646 15.8455L13.1437 18.7936C13.3567 18.9412 13.6256 18.9255 13.8246 18.7532C14.0237 18.5808 14.1154 18.285 14.0561 18.0038L12.8819 12.3896C12.8271 12.1291 12.9009 11.8549 13.0731 11.6782L16.7903 7.86182Z" fill="#50B6FF"/>
</svg>
