<svg width="21" height="17" viewBox="0 0 21 17" fill="none" xmlns="http://www.w3.org/2000/svg">
<path fill-rule="evenodd" clip-rule="evenodd" d="M19.6875 13.75C19.6875 13.8832 19.6619 14.0092 19.6252 14.1293L13.7812 7.84375L19.6875 3.25V13.75ZM2.33362 15.0271L8.25562 8.71655L10.5 10.413L12.6473 8.70606L18.6664 15.0271C18.5725 15.0487 2.42747 15.0487 2.33362 15.0271ZM1.3125 13.75V3.25L7.21875 7.84375L1.37484 14.1293C1.33809 14.0092 1.3125 13.8832 1.3125 13.75ZM19.0312 1.9375L10.5 8.5L1.96875 1.9375H19.0312ZM18.375 0.625H2.625C1.17534 0.625 0 1.80034 0 3.25V13.75C0 15.1997 1.17534 16.375 2.625 16.375H18.375C19.8247 16.375 21 15.1997 21 13.75V3.25C21 1.80034 19.8247 0.625 18.375 0.625Z" fill="#606060"/>
</svg>
