<svg width="25" height="25" viewBox="0 0 25 25" fill="none" xmlns="http://www.w3.org/2000/svg">
<path opacity="0.5" d="M16.2044 15.1539L15.7299 15.6533C15.7299 15.6533 14.6022 16.8406 11.5241 13.5999C8.44596 10.3592 9.57364 9.17195 9.57364 9.17195L9.87241 8.85741C10.6084 8.08254 10.6778 6.83851 10.0357 5.93031L8.72214 4.07251C7.92737 2.94844 6.39162 2.79995 5.48067 3.759L3.84567 5.48035C3.39399 5.9559 3.0913 6.57234 3.12801 7.25619C3.22191 9.00569 3.96949 12.7698 8.141 17.1617C12.5647 21.819 16.7154 22.0041 18.4128 21.8366C18.9497 21.7835 19.4166 21.4941 19.7928 21.0979L21.2726 19.54C22.2715 18.4884 21.9898 16.6856 20.7118 15.95L18.7217 14.8045C17.8825 14.3215 16.8602 14.4633 16.2044 15.1539Z" fill="#606060"/>
<path d="M13.8126 1.95808C13.8816 1.53215 14.2842 1.24322 14.7101 1.31217C14.7365 1.31722 14.8214 1.33308 14.8657 1.34297C14.9547 1.36278 15.0787 1.39324 15.2332 1.43828C15.5424 1.52832 15.9743 1.67666 16.4926 1.9143C17.5304 2.39009 18.9115 3.22238 20.3446 4.6555C21.7777 6.08863 22.61 7.46968 23.0857 8.50747C23.3234 9.02583 23.4718 9.4577 23.5618 9.76685C23.6068 9.92144 23.6373 10.0454 23.6571 10.1343C23.667 10.1788 23.6743 10.2144 23.6793 10.2408L23.6853 10.2733C23.7542 10.6992 23.4679 11.1186 23.042 11.1875C22.6173 11.2563 22.2172 10.9687 22.1466 10.5448C22.1444 10.5334 22.1383 10.5028 22.132 10.474C22.1191 10.4163 22.0969 10.3248 22.0617 10.2038C21.9912 9.96179 21.8688 9.60207 21.6654 9.15865C21.2594 8.27291 20.5292 7.04981 19.2397 5.76036C17.9503 4.47092 16.7272 3.74072 15.8415 3.33465C15.398 3.13136 15.0383 3.00893 14.7963 2.93843C14.6753 2.90319 14.5232 2.86829 14.4655 2.85544C14.0416 2.78479 13.7439 2.38279 13.8126 1.95808Z" fill="#606060"/>
<path fill-rule="evenodd" clip-rule="evenodd" d="M14.0478 5.55145C14.1664 5.13658 14.5988 4.89635 15.0137 5.01488L14.7991 5.76608C15.0137 5.01488 15.0137 5.01488 15.0137 5.01488L15.0152 5.01532L15.0168 5.01577L15.0202 5.01678L15.0283 5.0192L15.049 5.02562C15.0646 5.03064 15.0843 5.03718 15.1076 5.04548C15.1544 5.06209 15.2163 5.08569 15.2921 5.11819C15.4439 5.18323 15.6512 5.28367 15.9059 5.43441C16.4157 5.73616 17.1118 6.23739 17.9295 7.05507C18.7472 7.87275 19.2483 8.56877 19.5501 9.07864C19.7008 9.33334 19.8013 9.54069 19.8664 9.69245C19.8989 9.76828 19.9225 9.83012 19.9391 9.8769C19.9474 9.90028 19.9539 9.9199 19.959 9.93561L19.9653 9.95622L19.9677 9.96429L19.9688 9.96776L19.9692 9.96937C19.9692 9.96937 19.9697 9.97087 19.2184 10.1855L19.9697 9.97087C20.0882 10.3857 19.8479 10.8181 19.4331 10.9367C19.0218 11.0542 18.5931 10.8191 18.4703 10.4106L18.4665 10.3994C18.4609 10.3838 18.4495 10.353 18.4302 10.308C18.3917 10.218 18.3218 10.0709 18.2055 9.87445C17.9732 9.48201 17.5538 8.88904 16.8246 8.15992C16.0955 7.43081 15.5025 7.01133 15.1101 6.77907C14.9137 6.66279 14.7666 6.5929 14.6766 6.55436C14.6316 6.53508 14.6007 6.52358 14.5851 6.51802L14.5739 6.51418C14.1655 6.39139 13.9303 5.96279 14.0478 5.55145Z" fill="#606060"/>
</svg>
