<svg width="18" height="18" viewBox="0 0 18 18" fill="none" xmlns="http://www.w3.org/2000/svg">
<path d="M11.7861 8.2915C11.6613 8.23701 11.5365 8.18779 11.41 8.14209C12.2854 7.43369 12.8443 6.35264 12.8443 5.14326C12.8443 3.01631 11.1146 1.28662 8.9877 1.28662C6.86074 1.28662 5.13105 3.01631 5.13105 5.14326C5.13105 6.3544 5.6918 7.43721 6.56719 8.14385C3.85664 9.1335 1.91602 11.7386 1.91602 14.7884H3.20098C3.20098 11.5979 5.79727 9.00342 8.98594 9.00342C9.78223 9.00342 10.5521 9.16162 11.2746 9.47276L11.7861 8.2915ZM8.9877 2.57158C10.4062 2.57158 11.5594 3.72471 11.5594 5.14326C11.5594 6.56182 10.4062 7.71494 8.9877 7.71494C7.56914 7.71494 6.41602 6.56006 6.41602 5.14326C6.41602 3.72647 7.56914 2.57158 8.9877 2.57158ZM10.7666 11.1884C10.7666 11.3677 10.865 11.5312 11.0232 11.6138L13.2732 12.8021C13.3436 12.839 13.4209 12.8583 13.4982 12.8583C13.5756 12.8583 13.6529 12.839 13.7232 12.8021L15.9732 11.6138C16.1314 11.5294 16.2299 11.3659 16.2299 11.1884C16.2299 11.0108 16.1314 10.8456 15.9732 10.763L13.7232 9.57295C13.5826 9.49912 13.4139 9.49912 13.2732 9.57295L11.0232 10.763C10.865 10.8456 10.7666 11.0091 10.7666 11.1884ZM13.4982 10.545L14.7164 11.1884L13.4982 11.8317L12.2801 11.1884L13.4982 10.545Z" fill="#50B6FF"/>
<path d="M13.4979 13.419L10.9139 12.0532L10.4639 12.9058L13.4979 14.5089L16.5195 12.9128L16.0695 12.0603L13.4979 13.419Z" fill="#50B6FF"/>
<path d="M13.4979 14.9661L10.9139 13.6021L10.4639 14.4528L13.4979 16.0577L16.509 14.4651L16.059 13.6126L13.4979 14.9661Z" fill="#50B6FF"/>
</svg>
