<svg width="19" height="19" viewBox="0 0 19 19" fill="none" xmlns="http://www.w3.org/2000/svg">
<g clip-path="url(#clip0_853_510)">
<path d="M11.083 2.177C12.5926 2.177 13.665 2.17826 14.4786 2.28765C15.275 2.39473 15.734 2.59555 16.069 2.93059C16.404 3.26563 16.6049 3.72452 16.7119 4.52101C16.8213 5.33457 16.8226 6.40702 16.8226 7.91658C16.8226 8.24449 17.0884 8.51033 17.4163 8.51033C17.7442 8.51033 18.0101 8.24449 18.0101 7.91658V7.87193C18.0101 6.41703 18.0101 5.26465 17.8889 4.36278C17.764 3.43461 17.5011 2.68336 16.9087 2.0909C16.3162 1.49845 15.5649 1.23552 14.6368 1.11074C13.7349 0.989479 12.5826 0.989486 11.1277 0.989502H11.083C10.7551 0.989502 10.4893 1.25534 10.4893 1.58325C10.4893 1.91117 10.7551 2.177 11.083 2.177Z" fill="#606060"/>
<path d="M7.87167 0.989502H7.91634C8.24425 0.989502 8.51009 1.25534 8.51009 1.58325C8.51009 1.91117 8.24425 2.177 7.91634 2.177C6.40677 2.177 5.33433 2.17826 4.52076 2.28765C3.72428 2.39473 3.26539 2.59555 2.93035 2.93059C2.5953 3.26563 2.39449 3.72452 2.2874 4.52101C2.17802 5.33457 2.17676 6.40702 2.17676 7.91658C2.17676 8.24449 1.91092 8.51033 1.58301 8.51033C1.25509 8.51033 0.989258 8.24449 0.989258 7.91658V7.87192C0.989242 6.41703 0.989234 5.26465 1.11049 4.36278C1.23528 3.43461 1.4982 2.68336 2.09066 2.0909C2.68312 1.49845 3.43437 1.23552 4.36253 1.11074C5.26441 0.989479 6.41679 0.989486 7.87167 0.989502Z" fill="#606060"/>
<path d="M4.37538 4.37563C3.95801 4.793 3.95801 5.46475 3.95801 6.80825C3.95801 7.70392 3.95801 8.15179 4.23625 8.42998C4.5145 8.70825 4.96234 8.70825 5.85801 8.70825H6.80801C7.70368 8.70825 8.15155 8.70825 8.42974 8.42998C8.70801 8.15179 8.70801 7.70392 8.70801 6.80825V5.85825C8.70801 4.96258 8.70801 4.51475 8.42974 4.2365C8.15155 3.95825 7.70368 3.95825 6.80801 3.95825C5.46451 3.95825 4.79276 3.95825 4.37538 4.37563Z" fill="#606060"/>
<path d="M4.37538 14.6244C3.95801 14.207 3.95801 13.5353 3.95801 12.1917C3.95801 11.2961 3.95801 10.8482 4.23625 10.57C4.51451 10.2917 4.96234 10.2917 5.85801 10.2917H6.80801C7.70368 10.2917 8.15155 10.2917 8.42974 10.57C8.70801 10.8482 8.70801 11.2961 8.70801 12.1917V13.1417C8.70801 14.0374 8.70801 14.4853 8.42974 14.7635C8.15155 15.0417 7.70368 15.0417 6.80802 15.0417C5.46453 15.0417 4.79275 15.0417 4.37538 14.6244Z" fill="#606060"/>
<path d="M10.292 5.85825C10.292 4.96258 10.292 4.51475 10.5703 4.2365C10.8485 3.95825 11.2963 3.95825 12.192 3.95825C13.5355 3.95825 14.2073 3.95825 14.6246 4.37563C15.042 4.793 15.042 5.46475 15.042 6.80825C15.042 7.70392 15.042 8.15179 14.7637 8.42998C14.4855 8.70825 14.0377 8.70825 13.142 8.70825H12.192C11.2963 8.70825 10.8485 8.70825 10.5703 8.42998C10.292 8.15179 10.292 7.70392 10.292 6.80825V5.85825Z" fill="#606060"/>
<path d="M10.5703 14.7635C10.292 14.4853 10.292 14.0374 10.292 13.1417V12.1917C10.292 11.2961 10.292 10.8482 10.5703 10.57C10.8485 10.2917 11.2963 10.2917 12.192 10.2917H13.142C14.0377 10.2917 14.4855 10.2917 14.7637 10.57C15.042 10.8482 15.042 11.2961 15.042 12.1917C15.042 13.5352 15.042 14.207 14.6246 14.6244C14.2073 15.0417 13.5355 15.0417 12.192 15.0417C11.2964 15.0417 10.8485 15.0417 10.5703 14.7635Z" fill="#606060"/>
<path d="M17.4163 10.4895C17.7442 10.4895 18.0101 10.7553 18.0101 11.0833V11.1279C18.0101 12.5828 18.0101 13.7352 17.8889 14.637C17.764 15.5652 17.5011 16.3165 16.9087 16.909C16.3162 17.5014 15.5649 17.7643 14.6368 17.8891C13.7349 18.0103 12.5826 18.0103 11.1277 18.0103H11.083C10.7551 18.0103 10.4893 17.7445 10.4893 17.4166C10.4893 17.0887 10.7551 16.8228 11.083 16.8228C12.5926 16.8228 13.665 16.8216 14.4786 16.7122C15.275 16.6051 15.734 16.4043 16.069 16.0692C16.404 15.7342 16.6049 15.2753 16.7119 14.4789C16.8213 13.6653 16.8226 12.5928 16.8226 11.0833C16.8226 10.7553 17.0884 10.4895 17.4163 10.4895Z" fill="#606060"/>
<path d="M2.17676 11.0833C2.17676 10.7553 1.91092 10.4895 1.58301 10.4895C1.25509 10.4895 0.989258 10.7553 0.989258 11.0833V11.1279C0.989242 12.5828 0.989234 13.7352 1.11049 14.637C1.23528 15.5652 1.4982 16.3165 2.09066 16.909C2.68312 17.5014 3.43437 17.7643 4.36253 17.8891C5.26441 18.0103 6.41679 18.0103 7.87168 18.0103H7.91634C8.24425 18.0103 8.51009 17.7445 8.51009 17.4166C8.51009 17.0887 8.24425 16.8228 7.91634 16.8228C6.40677 16.8228 5.33433 16.8216 4.52076 16.7122C3.72428 16.6051 3.26539 16.4043 2.93035 16.0692C2.5953 15.7342 2.39449 15.2753 2.2874 14.4789C2.17802 13.6653 2.17676 12.5928 2.17676 11.0833Z" fill="#606060"/>
</g>
<defs>
<clipPath id="clip0_853_510">
<rect width="19" height="19" fill="white"/>
</clipPath>
</defs>
</svg>
