<svg width="19" height="18" viewBox="0 0 19 18" fill="none" xmlns="http://www.w3.org/2000/svg">
<path d="M8.79762 1.86439C9.02015 1.37167 9.13146 1.1253 9.28642 1.04944C9.42099 0.983521 9.57903 0.983521 9.7136 1.04944C9.86856 1.1253 9.97987 1.37167 10.2024 1.86439L11.975 5.78904C12.0408 5.9347 12.0737 6.00753 12.1246 6.0633C12.1696 6.11266 12.2247 6.15213 12.2861 6.17915C12.3556 6.2097 12.436 6.21806 12.5967 6.2348L16.9265 6.68581C17.4701 6.74243 17.7418 6.77074 17.8629 6.89273C17.9679 6.99869 18.0168 7.14706 17.9949 7.29377C17.9697 7.46263 17.7666 7.64317 17.3606 8.00433L14.1263 10.8809C14.0063 10.9877 13.9462 11.0411 13.9082 11.1061C13.8746 11.1636 13.8536 11.2275 13.8465 11.2935C13.8386 11.3682 13.8553 11.4462 13.8888 11.6022L14.7922 15.8056C14.9057 16.3333 14.9624 16.5971 14.8822 16.7484C14.8125 16.8799 14.6847 16.9715 14.5365 16.9963C14.366 17.0247 14.1292 16.89 13.6557 16.6205L9.88422 14.4736C9.74427 14.3939 9.67429 14.3542 9.59988 14.3385C9.53404 14.3248 9.46598 14.3248 9.40013 14.3385C9.32573 14.3542 9.25575 14.3939 9.11579 14.4736L5.34431 16.6205C4.87081 16.89 4.63407 17.0247 4.46353 16.9963C4.31539 16.9715 4.1875 16.8799 4.11787 16.7484C4.03771 16.5971 4.09441 16.3333 4.20783 15.8056L5.11119 11.6022C5.14472 11.4462 5.16148 11.3682 5.15352 11.2935C5.14647 11.2275 5.12545 11.1636 5.09181 11.1061C5.05379 11.0411 4.99377 10.9877 4.87374 10.8809L1.63946 8.00433C1.23342 7.64317 1.03039 7.46263 1.00515 7.29377C0.98323 7.14706 1.03207 6.99869 1.13718 6.89273C1.25818 6.77074 1.52997 6.74243 2.07357 6.68581L6.40336 6.2348C6.56406 6.21806 6.6444 6.2097 6.71388 6.17915C6.77536 6.15213 6.8304 6.11266 6.87544 6.0633C6.92634 6.00753 6.95924 5.9347 7.02504 5.78904L8.79762 1.86439Z" stroke="#606060" stroke-width="2" stroke-linecap="round" stroke-linejoin="round"/>
</svg>
