<svg width="19" height="17" viewBox="0 0 19 17" fill="none" xmlns="http://www.w3.org/2000/svg">
<path d="M18 1L11.5872 10.9134C11.4994 11.0502 11.395 11.1588 11.2799 11.233C11.1648 11.3071 11.0413 11.3452 10.9167 11.3452C10.792 11.3452 10.6685 11.3071 10.5535 11.233C10.4384 11.1588 10.3339 11.0502 10.2461 10.9134L7.80944 7.14659C7.72165 7.00974 7.61719 6.90113 7.5021 6.82701C7.38701 6.75288 7.26357 6.71472 7.13889 6.71472C7.01421 6.71472 6.89077 6.75288 6.77568 6.82701C6.66059 6.90113 6.55613 7.00974 6.46833 7.14659L1 15.6" stroke="#50B6FF" stroke-linecap="round" stroke-linejoin="round"/>
<path d="M17.9999 6.72548V1H14.2637" stroke="#50B6FF" stroke-linecap="round" stroke-linejoin="round"/>
</svg>
