<svg width="27" height="25" viewBox="0 0 27 25" fill="none" xmlns="http://www.w3.org/2000/svg">
<path d="M16.3624 23.3992C14.0265 24.1755 11.5014 24.2001 9.1504 23.4695C6.79941 22.7389 4.74376 21.2907 3.27922 19.3334C1.81468 17.3761 1.01676 15.0105 1.00026 12.577C0.983763 10.1435 1.74954 7.76756 3.18741 5.79104C4.62527 3.81453 6.6611 2.33934 9.00197 1.57772C11.3428 0.816094 13.8681 0.807313 16.2143 1.55263C18.5606 2.29795 20.6069 3.75895 22.0588 5.72542C23.5107 7.69188 24.2934 10.0624 24.2943 12.496C24.2567 13.4288 24.1423 14.357 23.9523 15.2715" stroke="#50B6FF"/>
<path d="M15.1799 22C14.5617 22.7257 13.884 23.3948 13.1543 24" stroke="#50B6FF"/>
<path d="M13.1543 1C16.6374 3.73673 18.7927 7.58971 19.1598 11.7361C19.2352 12.4888 19.2508 13.2453 19.2065 14" stroke="#50B6FF"/>
<path d="M13.1539 1C11.2613 2.46861 9.74079 4.27849 8.69316 6.30974C7.64554 8.34098 7.0947 10.5472 7.07715 12.7823C7.07715 20.2793 10.8615 22.5006 13.1383 24" stroke="#50B6FF"/>
<path d="M2.01367 7H23.2824" stroke="#50B6FF"/>
<path d="M13.1543 1V24" stroke="#50B6FF"/>
<path d="M3.02637 19H15.1799" stroke="#50B6FF"/>
<path d="M1 13H24.2943" stroke="#50B6FF"/>
<path d="M23.2183 24L25.3075 21.9652L21.5347 18.2988L23.6805 16.9651C23.7118 16.9472 23.7367 16.9204 23.7519 16.8884C23.7672 16.8563 23.7721 16.8206 23.766 16.7858C23.7598 16.751 23.7429 16.7188 23.7176 16.6936C23.6922 16.6683 23.6595 16.6511 23.6239 16.6443L16.413 15.0036C16.3832 14.9977 16.3524 14.9991 16.3233 15.0076C16.2942 15.0161 16.2677 15.0315 16.2463 15.0524C16.2248 15.0732 16.2089 15.099 16.2002 15.1272C16.1914 15.1555 16.19 15.1855 16.1961 15.2144L17.7618 22.3547C17.7693 22.3894 17.7873 22.4212 17.8135 22.4459C17.8396 22.4707 17.8728 22.4873 17.9087 22.4937C17.9446 22.5001 17.9816 22.4959 18.0151 22.4818C18.0486 22.4677 18.077 22.4442 18.0967 22.4143L19.4455 20.3336L23.2183 24Z" stroke="#50B6FF"/>
</svg>
