<svg width="20" height="25" viewBox="0 0 20 25" fill="none" xmlns="http://www.w3.org/2000/svg">
<path fill-rule="evenodd" clip-rule="evenodd" d="M13.0178 0L20 6.98223V25H0V0H13.0178ZM11.9812 2.5H2.5V22.5H17.5V8.01875L11.9812 2.5ZM9.06246 10V11.875H7.5C6.46447 11.875 5.625 12.7145 5.625 13.75C5.625 14.7246 6.36861 15.5256 7.31942 15.6164L7.5 15.625H9.06246V17.5H7.5C5.42893 17.5 3.75 15.8211 3.75 13.75C3.75 11.6789 5.42893 10 7.5 10H9.06246ZM12.5 10C14.5711 10 16.25 11.6789 16.25 13.75C16.25 15.8211 14.5711 17.5 12.5 17.5H10.9375V15.625H12.5C13.5355 15.625 14.375 14.7855 14.375 13.75C14.375 12.7754 13.6314 11.9744 12.6806 11.8836L12.5 11.875H10.9375V10H12.5ZM12.1875 12.8125V14.6875H7.8125V12.8125H12.1875Z" fill="#999999"/>
</svg>
