<svg width="39" height="26" viewBox="0 0 39 26" fill="none" xmlns="http://www.w3.org/2000/svg">
<path fill-rule="evenodd" clip-rule="evenodd" d="M0 2.58333C0 1.43275 0.97006 0.5 2.16667 0.5H36.8333C38.03 0.5 39 1.43275 39 2.58333C39 3.73392 38.03 4.66667 36.8333 4.66667H2.16667C0.97006 4.66667 0 3.73392 0 2.58333ZM6.5 13C6.5 11.8494 7.47006 10.9167 8.66667 10.9167H30.3333C31.53 10.9167 32.5 11.8494 32.5 13C32.5 14.1506 31.53 15.0833 30.3333 15.0833H8.66667C7.47006 15.0833 6.5 14.1506 6.5 13ZM13 23.4167C13 22.266 13.9701 21.3333 15.1667 21.3333H23.8333C25.03 21.3333 26 22.266 26 23.4167C26 24.5673 25.03 25.5 23.8333 25.5H15.1667C13.9701 25.5 13 24.5673 13 23.4167Z" fill="#B1B1B1"/>
</svg>
