<svg width="34" height="43" viewBox="0 0 34 43" fill="none" xmlns="http://www.w3.org/2000/svg">
<path d="M26.7363 27.984C26.2328 28.1351 25.4936 28.1521 24.701 28.0353C23.8504 27.9099 22.9828 27.6456 22.13 27.2562C23.6507 27.0312 24.8304 27.1005 25.8395 27.464C26.0786 27.5501 26.4712 27.7802 26.7363 27.984ZM18.2516 26.5662C18.1897 26.5833 18.1287 26.5995 18.0681 26.6166C17.6589 26.7298 17.2608 26.8403 16.8771 26.9385L16.3598 27.0719C15.3191 27.3395 14.2551 27.6129 13.2042 27.9386C13.6035 26.9596 13.9746 25.9699 14.3379 25.0022C14.6069 24.2859 14.8816 23.5542 15.1657 22.8319C15.3098 23.0738 15.4602 23.3158 15.6167 23.5585C16.3297 24.6622 17.226 25.6827 18.2516 26.5662ZM15.6044 15.5272C15.6719 16.7352 15.4155 17.8972 15.0393 19.012C14.576 17.6335 14.3601 16.1114 14.9393 14.8824C15.0879 14.5674 15.2096 14.399 15.2885 14.3111C15.4104 14.5024 15.5707 14.9304 15.6044 15.5272ZM10.1714 30.8287C9.91112 31.302 9.64541 31.7451 9.37307 32.1635C8.71584 33.1703 7.64098 34.2482 7.0888 34.2482C7.03446 34.2482 6.96871 34.2393 6.87263 34.1362C6.81078 34.0702 6.80087 34.023 6.80387 33.9585C6.82248 33.5884 7.30497 32.9292 8.00393 32.318C8.63833 31.7635 9.35539 31.2705 10.1714 30.8287ZM28.4945 28.0364C28.4101 26.8035 26.3682 26.0125 26.3481 26.0052C25.5587 25.7207 24.7012 25.5826 23.7266 25.5826C22.6834 25.5826 21.5586 25.736 20.1141 26.079C18.8288 25.1529 17.7185 23.9935 16.889 22.71C16.5227 22.1429 16.1933 21.5768 15.9063 21.0239C16.6071 19.3207 17.2382 17.4894 17.1235 15.4383C17.031 13.7937 16.3014 12.689 15.3092 12.689C14.6285 12.689 14.0425 13.2014 13.5659 14.2134C12.7158 16.0166 12.9393 18.324 14.2297 21.0773C13.765 22.1869 13.3332 23.3371 12.9152 24.4507C12.3952 25.8353 11.8593 27.2638 11.2554 28.6227C9.56182 29.3039 8.17046 30.1299 7.01092 31.144C6.25131 31.8072 5.33555 32.8209 5.28328 33.8792C5.25777 34.3777 5.4259 34.8347 5.76758 35.201C6.13058 35.5898 6.58662 35.7945 7.08807 35.7952C8.74422 35.7952 10.3382 33.4823 10.6406 33.0185C11.2491 32.0861 11.8187 31.046 12.3769 29.8464C13.7827 29.33 15.2808 28.9446 16.7328 28.572L17.2528 28.4377C17.6437 28.3367 18.05 28.225 18.4667 28.1091C18.9077 27.9879 19.3615 27.8622 19.8226 27.7428C21.3136 28.7066 22.917 29.3353 24.4807 29.5659C25.7978 29.7607 26.9675 29.6477 27.7593 29.2282C28.4718 28.851 28.511 28.269 28.4945 28.0364ZM31.702 38.6379C31.702 40.8959 29.7441 41.0351 29.349 41.0396H4.0883C1.8749 41.0396 1.74161 39.0359 1.73739 38.6379L1.73709 4.52725C1.73709 2.2671 3.69861 2.13008 4.088 2.12554H21.1521L21.1612 2.1347V8.90317C21.1612 10.2615 21.9691 12.8333 25.0289 12.8333H31.645L31.7018 12.8909L31.702 38.6379ZM30.1335 11.2905H25.03C22.8173 11.2905 22.6834 9.29768 22.6804 8.90339V3.68373L30.1335 11.2905ZM33.2197 38.6379V12.2545L22.6804 1.49758V1.44753H22.63L21.7835 0.583008H4.08835C2.75019 0.583008 0.219727 1.40761 0.219727 4.52797V38.6387C0.219727 40.0028 1.02855 42.583 4.08835 42.583H29.3514C30.6893 42.5827 33.2197 41.758 33.2197 38.6379Z" fill="#EB5757"/>
</svg>
