<svg width="103" height="103" viewBox="0 0 103 103" fill="none" xmlns="http://www.w3.org/2000/svg">
<g clip-path="url(#clip0_3201_375)">
<path d="M45.0625 8.58301C42.0583 8.58301 39.9125 10.2997 39.0542 12.8747H21.4583C16.7375 12.8747 12.875 16.7372 12.875 21.458V81.5413C12.875 86.2622 16.7375 90.1247 21.4583 90.1247H51.5C51.5 92.6997 53.2167 94.4163 55.7917 94.4163H85.8333C88.4083 94.4163 90.125 92.6997 90.125 90.1247V47.208C90.125 44.633 88.4083 42.9163 85.8333 42.9163H77.25V21.458C77.25 16.7372 73.3875 12.8747 68.6667 12.8747H51.0708C50.2125 10.2997 48.0667 8.58301 45.0625 8.58301ZM45.0625 12.8747C46.35 12.8747 47.2083 13.733 47.2083 15.0205C47.2083 16.308 46.35 17.1663 45.0625 17.1663C43.775 17.1663 42.9167 16.308 42.9167 15.0205C42.9167 13.733 43.775 12.8747 45.0625 12.8747ZM23.6042 21.458H34.3333V25.7497H55.7917V21.458H66.5208C67.8083 21.458 68.6667 22.3163 68.6667 23.6038V42.9163H55.7917C53.2167 42.9163 51.5 44.633 51.5 47.208V81.5413H23.6042C22.3167 81.5413 21.4583 80.683 21.4583 79.3955V23.6038C21.4583 22.3163 22.3167 21.458 23.6042 21.458ZM45.4917 36.0497H28.325V44.633H45.4917V36.0497ZM45.4917 48.9247H28.325V57.508H45.4917V48.9247ZM45.4917 62.2288H28.325V70.8122H45.4917V62.2288ZM60.0833 51.4997H81.5417V60.083H60.0833V51.4997ZM60.0833 64.3747H68.6667V72.958H60.0833V64.3747ZM72.9583 64.3747H81.5417V72.958H72.9583V64.3747ZM60.0833 77.2497H68.6667V85.833H60.0833V77.2497ZM72.9583 77.2497H81.5417V85.833H72.9583V77.2497Z" fill="#10108A"/>
</g>
<defs>
<clipPath id="clip0_3201_375">
<rect width="103" height="103" fill="white"/>
</clipPath>
</defs>
</svg>
