<svg width="82" height="82" viewBox="0 0 82 82" fill="none" xmlns="http://www.w3.org/2000/svg">
<path fill-rule="evenodd" clip-rule="evenodd" d="M22.3891 5.48589C24.2908 4.5351 26.5596 3.41699 30.7503 3.41699C34.9409 3.41699 37.2099 4.53499 39.1116 5.48578L39.1659 5.51301C40.6542 6.2573 41.8063 6.83335 44.417 6.83342C48.6437 6.83359 51.1471 5.25758 51.9818 4.63032C53.2812 3.65384 54.8163 3.73618 55.8762 4.2264C56.9497 4.72294 58.0837 5.90771 58.0837 7.65872V44.417H68.3337C73.9923 44.417 78.5837 49.0005 78.5837 54.6636V64.917C78.5837 68.0774 77.7838 70.6748 76.4083 72.7381C75.0471 74.7799 73.2564 76.0984 71.5699 76.9416C69.8968 77.7784 68.265 78.1795 67.0801 78.377C66.3687 78.4955 65.64 78.585 64.917 78.5837H17.0837C13.9233 78.5837 11.3259 77.7838 9.26264 76.4083C7.2208 75.0471 5.90224 73.2564 5.05894 71.5699C4.22237 69.8968 3.82108 68.265 3.62363 67.0804C3.52356 66.4798 3.47221 65.9721 3.44569 65.601C3.42362 65.2918 3.41709 65.1087 3.41699 64.917V7.65865C3.41699 5.90771 4.55078 4.72294 5.62436 4.2264C6.68428 3.73614 8.21949 3.6538 9.51878 4.63022C10.3535 5.25748 12.8569 6.83342 17.0837 6.83342C19.6945 6.83342 20.8464 6.2574 22.3347 5.51312L22.3891 5.48589ZM10.2617 64.917L10.2503 12.5863C12.0959 13.2084 14.3753 13.6668 17.0837 13.6668C21.2744 13.6668 23.5432 12.5487 25.4449 11.5979L25.4993 11.5707C26.9876 10.8264 28.1395 10.2503 30.7503 10.2503C33.3612 10.2503 34.5131 10.8263 36.0014 11.5706L36.0557 11.5978C37.9574 12.5486 40.2261 13.6667 44.417 13.6668C47.1254 13.6669 49.4046 13.2085 51.2503 12.5864V64.917C51.2503 67.5922 51.8236 69.8643 52.8339 71.7503H17.0837C15.119 71.7503 13.8727 71.2689 13.0531 70.7226C12.2121 70.1619 11.6088 69.3901 11.1709 68.5141C10.7262 67.6247 10.4869 66.694 10.364 65.957C10.3063 65.6102 10.2712 65.2669 10.2617 64.917ZM65.957 71.6366C66.694 71.5139 67.6247 71.2744 68.5141 70.8299C69.3901 70.3919 70.1619 69.7885 70.7226 68.9476C71.2689 68.128 71.7503 66.8816 71.7503 64.917V54.6636C71.7503 52.7789 70.2227 51.2503 68.3337 51.2503H58.0837V64.917C58.0837 66.8816 58.5651 68.128 59.1114 68.9476C59.6721 69.7885 60.4439 70.3919 61.3199 70.8299C62.2093 71.2744 63.14 71.5139 63.8773 71.6366C64.2378 71.6967 64.5306 71.7254 64.7199 71.7391C65.1319 71.7684 65.5515 71.7042 65.957 71.6366Z" fill="#10108A"/>
<path d="M17.083 27.3337C17.083 25.4467 18.6127 23.917 20.4997 23.917H40.9997C42.8867 23.917 44.4163 25.4467 44.4163 27.3337C44.4163 29.2206 42.8867 30.7503 40.9997 30.7503H20.4997C18.6127 30.7503 17.083 29.2206 17.083 27.3337Z" fill="#10108A"/>
<path d="M17.083 40.9997C17.083 39.1126 18.6127 37.583 20.4997 37.583H40.9997C42.8867 37.583 44.4163 39.1126 44.4163 40.9997C44.4163 42.8867 42.8867 44.4163 40.9997 44.4163H20.4997C18.6127 44.4163 17.083 42.8867 17.083 40.9997Z" fill="#10108A"/>
<path d="M17.083 54.6667C17.083 52.7796 18.6127 51.25 20.4997 51.25H40.9997C42.8867 51.25 44.4163 52.7796 44.4163 54.6667C44.4163 56.5537 42.8867 58.0833 40.9997 58.0833H20.4997C18.6127 58.0833 17.083 56.5537 17.083 54.6667Z" fill="#10108A"/>
</svg>
