<svg width="104" height="104" viewBox="0 0 104 104" fill="none" xmlns="http://www.w3.org/2000/svg">
<path d="M94.7278 29.6592H28.1402C24.5278 29.6592 21.589 32.5984 21.589 36.2108V39.2869C21.589 39.3982 21.5963 39.5083 21.6057 39.6172H18.2773C14.6649 39.6172 11.7257 42.556 11.7257 46.1688V48.9414H8.68734C5.07496 48.9414 2.13574 51.8806 2.13574 55.4926V88.6069C2.13574 92.2196 5.07496 95.1585 8.68734 95.1585H75.275C78.8881 95.1585 81.827 92.2196 81.827 88.6069V85.8297C81.8538 85.8306 81.881 85.8338 81.9086 85.8338H84.8641C88.4773 85.8338 91.4157 82.895 91.4157 79.2826V75.8575C91.5331 75.8681 91.6521 75.8758 91.772 75.8758H94.7274C98.3402 75.8758 101.279 72.9366 101.279 69.3242V36.2108C101.279 32.5984 98.3402 29.6592 94.7278 29.6592Z" fill="#DBDBFF"/>
<path d="M84.8639 43.4688H18.2767C16.7857 43.4688 15.5771 44.6773 15.5771 46.1687V49.2444H74.8892C78.7592 49.2444 81.908 52.3928 81.908 56.2628V81.9817H84.8639C86.3548 81.9817 87.5638 80.7731 87.5638 79.2821V46.1683C87.5638 44.6773 86.3548 43.4688 84.8639 43.4688Z" fill="#10108A"/>
<path d="M41.9809 82.0253C47.49 82.0253 51.956 77.5593 51.956 72.0503C51.956 66.5412 47.49 62.0752 41.9809 62.0752C36.4718 62.0752 32.0059 66.5412 32.0059 72.0503C32.0059 77.5593 36.4718 82.0253 41.9809 82.0253Z" fill="#10108A"/>
<path d="M75.2745 52.793H8.68684C7.1959 52.793 5.9873 54.0016 5.9873 55.4925V88.6076C5.9873 90.0977 7.1959 91.3071 8.68684 91.3071H75.2745C76.7654 91.3071 77.9744 90.0977 77.9744 88.6076V55.4925C77.9748 54.0016 76.7654 52.793 75.2745 52.793ZM62.1038 85.9064H20.9028C20.7358 80.3611 16.6912 75.7924 11.3864 74.819V69.2794C16.6912 68.306 20.7358 63.7369 20.9028 58.192H62.1038C62.5438 63.9092 66.9484 68.5128 72.5749 69.2587V74.8385C66.9484 75.586 62.5438 80.1897 62.1038 85.9064Z" fill="#10108A"/>
<path d="M94.7276 33.5107H28.14C26.6494 33.5107 25.4404 34.7193 25.4404 36.2103V39.2864H84.7525C88.6225 39.2864 91.7709 42.4348 91.7709 46.3052V72.0236H94.7268C96.2181 72.0236 97.4267 70.8146 97.4267 69.3237V36.2103C97.4267 34.7189 96.2193 33.5107 94.7276 33.5107Z" fill="#10108A"/>
</svg>
