<svg width="78" height="78" viewBox="0 0 78 78" fill="none" xmlns="http://www.w3.org/2000/svg">
<path d="M64.0762 64.0686H13.9322V13.9322H36.2125V8.35645H8.35645V69.6443H69.6443V47.3564H64.0762V64.0686Z" fill="#10108A"/>
<path d="M30.6437 44.5686H36.2119C36.2119 36.8904 42.458 30.6367 50.1437 30.6367C57.8295 30.6367 64.0756 36.8828 64.0756 44.5686H69.6437C69.6437 36.7838 65.0582 30.0502 58.4465 26.9271C60.2137 24.9543 61.2877 22.3492 61.2877 19.5004C61.2877 13.3457 56.2984 8.35645 50.1437 8.35645C43.9891 8.35645 38.9998 13.3457 38.9998 19.5004C38.9998 22.3568 40.0738 24.9619 41.841 26.9271C35.2293 30.0578 30.6437 36.7838 30.6437 44.5686ZM50.1437 13.9322C53.2135 13.9322 55.7119 16.4307 55.7119 19.5004C55.7119 22.5701 53.2135 25.0686 50.1437 25.0686C47.074 25.0686 44.5756 22.5701 44.5756 19.5004C44.5756 16.4307 47.074 13.9322 50.1437 13.9322ZM16.7119 19.5004H33.424V25.0686H16.7119V19.5004ZM16.7119 50.1443H61.2801V55.7125H16.7119V50.1443ZM16.7119 30.6443H27.8559V36.2125H16.7119V30.6443Z" fill="#10108A"/>
</svg>
