<svg width="85" height="85" viewBox="0 0 85 85" fill="none" xmlns="http://www.w3.org/2000/svg">
<path d="M44.9706 31.7107V59.5386H41.9523C40.1855 59.5386 38.8368 60.2451 38.2525 61.4772C37.668 62.7093 37.974 64.2007 39.0917 65.5693L49.036 77.7426C50.0381 78.9689 51.4625 79.6725 52.944 79.6725C54.4254 79.6725 55.85 78.9691 56.8523 77.7424L66.7964 65.5693C67.9142 64.2006 68.2201 62.7093 67.6356 61.4772C67.0511 60.2453 65.7027 59.5386 63.9359 59.5386H60.9175V31.7111C60.9175 29.6944 59.2769 28.0537 57.2603 28.0537H48.6278C46.6112 28.0537 44.9706 29.6943 44.9706 31.7107ZM41.8388 63.1797H46.7911C47.7966 63.1797 48.6117 62.3646 48.6117 61.3591V31.7107C48.6117 31.7019 48.619 31.6948 48.6278 31.6948H57.2601C57.2691 31.6948 57.2762 31.7019 57.2762 31.7111V61.3591C57.2762 62.3646 58.0913 63.1797 59.0968 63.1797L64.0677 63.1779L54.0324 75.4386C53.7201 75.8208 53.3335 76.0313 52.9439 76.0313C52.5543 76.0313 52.1676 75.8208 51.8555 75.4388L41.8388 63.1797Z" fill="#10108A"/>
<path d="M21.0646 25.4621H24.0831V53.2897C24.0831 55.3064 25.7236 56.9469 27.7403 56.9469H36.3726C38.3892 56.9469 40.0298 55.3064 40.0298 53.2899V25.4621H43.048C44.8148 25.4621 46.1636 24.7555 46.7479 23.5234C47.3324 22.2912 47.0263 20.7999 45.9087 19.4314L35.9644 7.25807C34.9623 6.03172 33.5379 5.32812 32.0563 5.32812C30.5749 5.32812 29.1504 6.03155 28.1481 7.25824L18.2041 19.4314C17.0863 20.8001 16.7803 22.2914 17.3648 23.5236C17.9494 24.7553 19.2978 25.4621 21.0646 25.4621ZM20.9538 21.821L30.9682 9.562C31.2804 9.17986 31.6671 8.96937 32.0567 8.96937C32.4463 8.96937 32.8329 9.17986 33.145 9.56183L43.1607 21.821H38.2096C37.2041 21.821 36.389 22.6361 36.389 23.6415V53.2899C36.389 53.2988 36.3818 53.3059 36.3729 53.3059H27.7406C27.7316 53.3059 27.7245 53.2988 27.7245 53.2897V23.6415C27.7245 22.6361 26.9094 21.821 25.904 21.821H20.9538Z" fill="#10108A"/>
<path d="M72.4832 0H12.5168C11.5114 0 10.6963 0.81508 10.6963 1.82054V83.1795C10.6963 84.1849 11.5114 85 12.5168 85H72.4832C73.4887 85 74.3038 84.1849 74.3038 83.1795V1.82054C74.3038 0.81508 73.4887 0 72.4832 0ZM70.6627 81.3589H14.3374V3.64107H70.6627V81.3589Z" fill="#10108A"/>
</svg>
