<svg width="123" height="112" viewBox="0 0 123 112" fill="none" xmlns="http://www.w3.org/2000/svg">
<g clip-path="url(#clip0_3200_252)">
<path fill-rule="evenodd" clip-rule="evenodd" d="M122.88 58.58L87.88 111.5L60 93.6L61.85 89.69L82.28 102.69L82.53 102.86C82.9926 103.151 83.508 103.347 84.0467 103.438C84.5854 103.529 85.1367 103.513 85.6691 103.39C86.2015 103.267 86.7044 103.041 87.149 102.723C87.5936 102.406 87.9712 102.004 88.26 101.54L89.39 99.74H89.45L94.72 91.17L118.72 55.87L122.93 58.56L122.88 58.58ZM30.72 14.92C33.1665 14.8653 35.6026 15.255 37.91 16.07L36.25 22.87H35.64C34.5736 22.3185 33.4631 21.8569 32.32 21.49C31.3257 21.2025 30.295 21.061 29.26 21.07C28.322 21.0155 27.3865 21.2123 26.55 21.64C25.8648 22.1154 25.3802 22.828 25.19 23.64C24.865 25.0221 24.7238 26.441 24.77 27.86C24.7241 29.3021 24.8653 30.7441 25.19 32.15C25.3791 33.0025 25.8964 33.7462 26.63 34.22C27.5415 34.6713 28.5546 34.8781 29.57 34.82C30.0492 34.8212 30.5277 34.781 31 34.7V33.47L30.89 29.29L37.89 28.79L37.77 32.17V39C34.9404 40.097 31.9347 40.6697 28.9 40.69C24.9 40.69 21.8633 39.62 19.79 37.48C17.7167 35.34 16.6867 32.2767 16.7 28.29C16.7 23.93 17.91 20.6133 20.33 18.34C22.75 16.0667 26.2133 14.9267 30.72 14.92ZM51.18 14.92C53.6488 14.9268 56.0956 15.3843 58.4 16.27L57.17 22.53L56.09 23C55.0832 22.3661 54.0143 21.8367 52.9 21.42C52.0939 21.0918 51.239 20.8992 50.37 20.85C49.88 20.8223 49.3927 20.9406 48.97 21.19C48.8097 21.2837 48.6772 21.4182 48.5858 21.5798C48.4945 21.7414 48.4476 21.9244 48.45 22.11C48.4595 22.3696 48.5376 22.622 48.6764 22.8416C48.8152 23.0611 49.0096 23.24 49.24 23.36C50.0838 23.8771 50.9626 24.3349 51.87 24.73C53.0796 25.2556 54.2582 25.8499 55.4 26.51C56.3543 27.092 57.1782 27.8648 57.82 28.78C58.5228 29.8267 58.8732 31.0704 58.82 32.33C58.834 33.8452 58.3839 35.3283 57.53 36.58C56.603 37.8958 55.3339 38.9332 53.86 39.58C52.1216 40.3559 50.2333 40.7383 48.33 40.7C45.5287 40.665 42.752 40.1718 40.11 39.24L41.23 32.55L41.99 32.09C43.1453 32.9771 44.4215 33.6944 45.78 34.22C46.8424 34.6861 47.9812 34.9538 49.14 35.01C49.6846 35.053 50.2293 34.9274 50.7 34.65C50.8445 34.5461 50.9623 34.4094 51.044 34.2513C51.1257 34.0932 51.1689 33.918 51.17 33.74C51.1616 33.462 51.0817 33.1908 50.9381 32.9526C50.7945 32.7144 50.5919 32.5172 50.35 32.38C49.5139 31.8465 48.6341 31.3848 47.72 31C46.5245 30.4902 45.3622 29.9057 44.24 29.25C43.304 28.6742 42.4998 27.9075 41.88 27C41.1822 25.951 40.8324 24.709 40.88 23.45C40.8635 21.8973 41.3204 20.3764 42.19 19.09C43.1023 17.7466 44.3645 16.6781 45.84 16C47.5147 15.2357 49.3394 14.8564 51.18 14.89V14.92ZM79.58 15.92L79.16 21.53L74.09 21.3H73.63L73.44 32.17L73.74 40.23H66.06L66.45 32.94L66.25 21.3H65.75L60.65 21.53L60.18 21L60.61 15.39H79.16L79.58 15.93V15.92ZM48.58 83.32L48 82.72L39.7 91.25C39.6564 91.3091 39.6096 91.3658 39.56 91.42C39.3269 91.6531 39.0502 91.8381 38.7456 91.9642C38.4411 92.0904 38.1147 92.1553 37.785 92.1553C37.4553 92.1553 37.1289 92.0904 36.8244 91.9642C36.5198 91.8381 36.2431 91.6531 36.01 91.42L27.31 82.72L18.31 91.26C17.835 91.7091 17.2035 91.9551 16.5498 91.9458C15.8962 91.9364 15.272 91.6725 14.81 91.21L6.3 82.59L4.52 84.59C4.20764 85.0081 3.77273 85.3184 3.27579 85.4778C2.77884 85.6372 2.24457 85.6377 1.74731 85.4793C1.25006 85.3209 0.814545 85.0114 0.501376 84.5939C0.188206 84.1764 0.0129525 83.6717 0 83.15L0 2.51C0 1.84431 0.264446 1.20588 0.735162 0.735162C1.20588 0.264446 1.84431 0 2.51 0L93.87 0C94.1992 -2.63311e-06 94.5251 0.0649917 94.829 0.191253C95.133 0.317515 95.409 0.502558 95.6413 0.735765C95.8736 0.968972 96.0575 1.24575 96.1826 1.55022C96.3076 1.85469 96.3713 2.18085 96.37 2.51V21.69L95.14 20.9C94.5868 20.5416 93.9646 20.303 93.3135 20.1997C92.6625 20.0963 91.997 20.1305 91.36 20.3V5H5V76.7C5.44477 76.4656 5.94988 76.3708 6.44939 76.4279C6.94889 76.4849 7.41958 76.6913 7.8 77.02C7.84819 77.0582 7.89181 77.1018 7.93 77.15H8L16.66 86L25.66 77.47C26.1256 77.0126 26.7523 76.7563 27.405 76.7563C28.0577 76.7563 28.6844 77.0126 29.15 77.47L37.78 86.1L46.13 77.5C46.5824 77.029 47.2017 76.7545 47.8545 76.7358C48.5074 76.7171 49.1414 76.9557 49.62 77.4L51.2 78.86L49.2 81.8C48.9062 82.2569 48.6931 82.7609 48.57 83.29L48.58 83.32ZM60.14 65.32H19.14C18.6493 65.32 18.1788 65.1251 17.8319 64.7781C17.4849 64.4312 17.29 63.9607 17.29 63.47C17.29 62.9794 17.4849 62.5088 17.8319 62.1619C18.1788 61.8149 18.6493 61.62 19.14 61.62H62.59L60.15 65.32H60.14ZM68.29 53H18.59C18.0993 53 17.6288 52.8051 17.2819 52.4581C16.9349 52.1112 16.74 51.6407 16.74 51.15C16.74 50.6594 16.9349 50.1888 17.2819 49.8419C17.6288 49.4949 18.0993 49.3 18.59 49.3H70.73L68.29 53ZM119.6 47.16L84.6 100L56.68 82.14L91.68 29.22L119.59 47.12L119.6 47.16ZM94.08 61.57C94.824 62.8622 95.1682 64.346 95.069 65.8338C94.9699 67.3216 94.4318 68.7466 93.5228 69.9286C92.6138 71.1106 91.3748 71.9966 89.9624 72.4745C88.5499 72.9524 87.0275 73.0008 85.5876 72.6136C84.1476 72.2263 82.8548 71.4208 81.8726 70.2989C80.8904 69.177 80.2629 67.7891 80.0695 66.3106C79.876 64.8321 80.1252 63.3294 80.7857 61.9926C81.4462 60.6557 82.4882 59.5447 83.78 58.8C84.6378 58.304 85.585 57.9821 86.5674 57.8529C87.5499 57.7237 88.5481 57.7897 89.505 58.047C90.4618 58.3043 91.3585 58.748 92.1436 59.3525C92.9287 59.9571 93.5867 60.7106 94.08 61.57ZM109.6 53.37L86.13 88.29C85.034 87.592 83.7061 87.357 82.4371 87.6362C81.1682 87.9155 80.0617 88.6864 79.36 89.78L68.36 82.71C68.7069 82.1677 68.9436 81.5624 69.0564 80.9286C69.1693 80.2948 69.1562 79.645 69.0178 79.0163C68.8794 78.3875 68.6185 77.7923 68.25 77.2644C67.8815 76.7366 67.4125 76.2865 66.87 75.94L90.31 41C90.8509 41.3471 91.455 41.5842 92.0876 41.6977C92.7202 41.8112 93.369 41.7988 93.9968 41.6614C94.6247 41.5239 95.2192 41.264 95.7466 40.8966C96.2739 40.5292 96.7236 40.0614 97.07 39.52L108.12 46.59C107.773 47.1317 107.535 47.7365 107.422 48.3699C107.308 49.0033 107.32 49.6529 107.458 50.2815C107.595 50.9102 107.855 51.5056 108.223 52.0338C108.59 52.562 109.058 53.0127 109.6 53.36V53.37Z" fill="#10108A"/>
<circle cx="88" cy="65" r="11" fill="#D9D9D9"/>
<path d="M83.0568 69V60.2727H86.0057C86.6875 60.2727 87.2472 60.3892 87.6847 60.6222C88.1222 60.8523 88.446 61.169 88.6562 61.5724C88.8665 61.9759 88.9716 62.4347 88.9716 62.9489C88.9716 63.4631 88.8665 63.919 88.6562 64.3168C88.446 64.7145 88.1236 65.027 87.6889 65.2543C87.2543 65.4787 86.6989 65.5909 86.0227 65.5909H83.6364V64.6364H85.9886C86.4545 64.6364 86.8295 64.5682 87.1136 64.4318C87.4006 64.2955 87.608 64.1023 87.7358 63.8523C87.8665 63.5994 87.9318 63.2983 87.9318 62.9489C87.9318 62.5994 87.8665 62.294 87.7358 62.0327C87.6051 61.7713 87.3963 61.5696 87.1094 61.4276C86.8224 61.2827 86.4432 61.2102 85.9716 61.2102H84.1136V69H83.0568ZM87.1648 65.0795L89.3125 69H88.0852L85.9716 65.0795H87.1648ZM90.5792 69V68.233L93.4599 65.0795C93.7979 64.7102 94.0763 64.3892 94.2951 64.1165C94.5138 63.8409 94.6758 63.5824 94.7809 63.3409C94.8888 63.0966 94.9428 62.8409 94.9428 62.5739C94.9428 62.267 94.869 62.0014 94.7212 61.777C94.5763 61.5526 94.3775 61.3793 94.1246 61.2571C93.8718 61.1349 93.5877 61.0739 93.2724 61.0739C92.9371 61.0739 92.6445 61.1435 92.3945 61.2827C92.1474 61.419 91.9556 61.6108 91.8192 61.858C91.6857 62.1051 91.619 62.3949 91.619 62.7273H90.6133C90.6133 62.2159 90.7312 61.767 90.967 61.3807C91.2028 60.9943 91.5238 60.6932 91.93 60.4773C92.3391 60.2614 92.7979 60.1534 93.3065 60.1534C93.8178 60.1534 94.271 60.2614 94.6658 60.4773C95.0607 60.6932 95.3704 60.9844 95.5948 61.3509C95.8192 61.7173 95.9315 62.125 95.9315 62.5739C95.9315 62.8949 95.8732 63.2088 95.7567 63.5156C95.6431 63.8196 95.4442 64.1591 95.1602 64.5341C94.8789 64.9062 94.4883 65.3608 93.9883 65.8977L92.0281 67.9943V68.0625H96.0849V69H90.5792Z" fill="#10108A"/>
</g>
<defs>
<clipPath id="clip0_3200_252">
<rect width="122.88" height="111.5" fill="white"/>
</clipPath>
</defs>
</svg>
