<svg width="87" height="87" viewBox="0 0 87 87" fill="none" xmlns="http://www.w3.org/2000/svg">
<path d="M76.125 25.375V67.425C76.125 72.2463 72.2463 76.125 67.425 76.125H19.575C14.7538 76.125 10.875 72.2463 10.875 67.425V25.375" fill="#DFDFFF"/>
<path d="M76.125 25.375V67.425C76.125 72.2463 72.2463 76.125 67.425 76.125H19.575C14.7538 76.125 10.875 72.2463 10.875 67.425V25.375" stroke="#10108A" stroke-width="3.75" stroke-miterlimit="10" stroke-linecap="round"/>
<path d="M77.575 10.875H9.425C7.88674 10.875 6.41149 11.4861 5.32378 12.5738C4.23607 13.6615 3.625 15.1367 3.625 16.675V19.575C3.625 20.3367 3.77502 21.0909 4.0665 21.7946C4.35798 22.4983 4.7852 23.1376 5.32378 23.6762C6.41149 24.7639 7.88674 25.375 9.425 25.375H77.575C79.1133 25.375 80.5885 24.7639 81.6762 23.6762C82.7639 22.5885 83.375 21.1133 83.375 19.575V16.675C83.375 15.9133 83.225 15.1591 82.9335 14.4554C82.642 13.7517 82.2148 13.1124 81.6762 12.5738C81.1376 12.0352 80.4983 11.608 79.7946 11.3165C79.0909 11.025 78.3367 10.875 77.575 10.875Z" fill="white" stroke="#10108A" stroke-width="3.75" stroke-miterlimit="10"/>
<path d="M29 39.875H58" stroke="#10108A" stroke-width="3.75" stroke-miterlimit="10" stroke-linecap="round"/>
</svg>
