<svg width="67" height="85" viewBox="0 0 67 85" fill="none" xmlns="http://www.w3.org/2000/svg">
<g clip-path="url(#clip0_3202_415)">
<path d="M45.2203 85H3.78747C2.7659 85 1.80687 84.578 1.11192 83.8863C0.416969 83.1946 0 82.2746 0 81.2231V3.76994C0 2.72542 0.423919 1.7985 1.11192 1.10677C1.79992 0.415039 2.7381 0 3.78747 0C23.0931 0 43.9347 0 63.143 0C64.1994 0 65.1236 0.421956 65.8186 1.10677C66.5135 1.79159 66.9375 2.71851 66.9375 3.76994V63.0306C66.9652 63.1759 67 63.3004 67 63.4526C67 63.9644 66.7637 64.4141 66.4232 64.7392L46.8395 84.4535C46.5129 84.7786 45.7485 85.0138 45.2203 85ZM8.88144 9.49748H11.1956V19.1402H8.88144V9.49748ZM13.1484 9.49748H15.3028L18.1034 14.8238V9.49748H20.2856V19.1402H18.1034L15.3167 13.8416V19.1402H13.1484V9.49748ZM21.3627 9.49748H23.7742L25.456 16.4425L27.1169 9.49748H29.4589L26.686 19.1402H24.1842L21.3627 9.49748ZM29.8341 14.3258C29.8341 12.7486 30.1747 11.5243 30.8557 10.6527C31.5368 9.77417 32.4819 9.33838 33.6981 9.33838C34.942 9.33838 35.901 9.76725 36.5751 10.6319C37.2492 11.4897 37.5828 12.7002 37.5828 14.2497C37.5828 15.3772 37.4369 16.2972 37.145 17.0166C36.8531 17.736 36.4223 18.2963 35.8732 18.6975C35.3173 19.0987 34.6223 19.2993 33.7954 19.2993C32.9545 19.2993 32.2526 19.1264 31.7036 18.7805C31.1545 18.4347 30.7028 17.8813 30.3623 17.1342C30.0079 16.394 29.8341 15.4533 29.8341 14.3258ZM32.1414 14.3327C32.1414 15.308 32.2804 16.0067 32.5653 16.4286C32.8433 16.8506 33.2324 17.065 33.712 17.065C34.2054 17.065 34.5945 16.8575 34.8656 16.4425C35.1366 16.0274 35.2756 15.2804 35.2756 14.2013C35.2756 13.2951 35.1297 12.631 34.8517 12.216C34.5667 11.794 34.1845 11.5865 33.6981 11.5865C33.2324 11.5865 32.8572 11.8009 32.5722 12.2229C32.2873 12.6449 32.1414 13.3504 32.1414 14.3327ZM39.1882 9.49748H41.5023V19.1402H39.1882V9.49748ZM48.4101 15.1973L50.4324 15.9859C50.2934 16.7192 50.078 17.3279 49.7861 17.819C49.4942 18.3101 49.1329 18.6837 48.695 18.9327C48.2642 19.1817 47.7082 19.3062 47.0411 19.3062C46.228 19.3062 45.5608 19.1541 45.0466 18.8497C44.5323 18.5453 44.0875 18.0058 43.7123 17.2449C43.337 16.484 43.1494 15.4948 43.1494 14.305C43.1494 12.714 43.476 11.4827 44.1362 10.625C44.7964 9.76725 45.7276 9.33838 46.9299 9.33838C47.8681 9.33838 48.6117 9.58049 49.1537 10.0716C49.6888 10.5627 50.0919 11.3167 50.356 12.3336L48.3198 12.9146C48.2503 12.6241 48.1738 12.4097 48.0974 12.2782C47.9654 12.05 47.8055 11.877 47.6248 11.7525C47.4372 11.628 47.2287 11.5658 46.9994 11.5658C46.4712 11.5658 46.0751 11.8355 45.7971 12.3751C45.5886 12.7763 45.4774 13.4127 45.4774 14.2704C45.4774 15.3357 45.6025 16.0689 45.8527 16.4632C46.1029 16.8575 46.4573 17.0581 46.916 17.0581C47.3607 17.0581 47.6943 16.899 47.9167 16.5808C48.146 16.2695 48.3059 15.8061 48.4101 15.1973ZM51.8223 9.49748H58.0004V11.5588H54.1365V13.0945H57.7155V15.059H54.1365V16.9613H58.1116V19.1471H51.8223V9.49748ZM19.1597 63.2312C20.6886 63.2312 22.0716 63.8468 23.0792 64.8499C24.08 65.8459 24.7054 67.2294 24.7054 68.7512C24.7054 70.273 24.0869 71.6496 23.0792 72.6526C22.0785 73.6487 20.6886 74.2643 19.1597 74.2643C17.6308 74.2643 16.2479 73.6487 15.2402 72.6526C14.2395 71.6565 13.614 70.273 13.614 68.7512C13.614 67.2294 14.2325 65.8459 15.2402 64.8499C16.2479 63.8468 17.6308 63.2312 19.1597 63.2312ZM21.6546 66.2679C21.0152 65.6315 20.1327 65.2441 19.1597 65.2441C18.1868 65.2441 17.3042 65.6384 16.6649 66.2679C16.0255 66.8974 15.6363 67.7828 15.6363 68.7512C15.6363 69.7196 16.0325 70.5981 16.6649 71.2345C17.2973 71.8709 18.1868 72.2583 19.1597 72.2583C20.1327 72.2583 21.0152 71.864 21.6546 71.2345C22.294 70.6051 22.6831 69.7196 22.6831 68.7512C22.6901 67.7759 22.294 66.8974 21.6546 66.2679ZM19.1597 58.6658C21.9534 58.6658 24.483 59.7933 26.3177 61.6195C28.1524 63.4456 29.2851 65.9635 29.2851 68.7443C29.2851 71.5251 28.1524 74.043 26.3177 75.8622C24.483 77.6884 21.9534 78.8159 19.1597 78.8159C16.366 78.8159 13.8295 77.6884 12.0018 75.8622C10.1671 74.036 9.03433 71.5181 9.03433 68.7374C9.03433 65.9566 10.1671 63.4318 12.0018 61.6125L12.0643 61.5641C13.892 59.7725 16.4008 58.6658 19.1597 58.6658ZM24.9 63.0375C23.4337 61.578 21.4044 60.6787 19.1667 60.6787C16.9498 60.6787 14.9414 61.5641 13.4751 62.996L13.4264 63.0444C11.9601 64.504 11.0497 66.5238 11.0497 68.7512C11.0497 70.9786 11.9601 72.9985 13.4264 74.458C14.8927 75.9176 16.922 76.8237 19.1597 76.8237C21.3975 76.8237 23.4267 75.9176 24.8931 74.458C26.3594 72.9985 27.2698 70.9786 27.2698 68.7512C27.2698 66.5169 26.3664 64.4971 24.9 63.0375ZM16.3452 30.9273C15.6711 30.9273 15.129 30.3878 15.129 29.7168C15.129 29.0458 15.6711 28.5063 16.3452 28.5063H40.7518C41.4259 28.5063 41.9679 29.0458 41.9679 29.7168C41.9679 30.3878 41.4259 30.9273 40.7518 30.9273H16.3452ZM16.3452 49.0023C15.6711 49.0023 15.129 48.4627 15.129 47.7917C15.129 47.1208 15.6711 46.5812 16.3452 46.5812H49.9946C50.6687 46.5812 51.2108 47.1208 51.2108 47.7917C51.2108 48.4627 50.6687 49.0023 49.9946 49.0023H16.3452ZM16.3452 41.6007C15.6711 41.6007 15.129 41.0612 15.129 40.3902C15.129 39.7192 15.6711 39.1797 16.3452 39.1797H40.7518C41.4259 39.1797 41.9679 39.7192 41.9679 40.3902C41.9679 41.0612 41.4259 41.6007 40.7518 41.6007H16.3452ZM55.1233 35.7694H11.8767V52.3226H55.1233V35.7694ZM11.8767 33.3484H55.1233V25.9953H11.8767V33.3484ZM10.6605 23.5742H56.3395C57.0136 23.5742 57.5556 24.1138 57.5556 24.7847V34.5589V53.54C57.5556 54.211 57.0136 54.7506 56.3395 54.7506H10.6605C9.98641 54.7506 9.44435 54.2041 9.44435 53.54V34.5589V24.7847C9.44435 24.1207 9.98641 23.5742 10.6605 23.5742ZM43.7818 81.6105V66.8559C43.7818 65.4447 44.3586 64.1581 45.2898 63.2312C46.221 62.3043 47.5136 61.7301 48.9313 61.7301H63.4836V3.76302C63.4836 3.6731 63.4558 3.5555 63.3585 3.49325C63.2959 3.43099 63.2056 3.36873 63.0874 3.36873C47.8055 3.36873 18.6316 3.36873 3.76662 3.36873C3.67628 3.36873 3.55119 3.3964 3.49559 3.49325C3.41915 3.5555 3.3566 3.6731 3.3566 3.76302V81.2231C3.3566 81.3477 3.3844 81.4307 3.48169 81.4929C3.54424 81.5552 3.63458 81.6174 3.75272 81.6174H43.7401L43.7818 81.6105ZM47.1801 66.8559V79.2171L61.1624 65.1196H48.9244C48.4449 65.1196 48.0209 65.3341 47.6943 65.6315C47.3885 65.929 47.1801 66.3786 47.1801 66.8559Z" fill="#10108A"/>
</g>
<defs>
<clipPath id="clip0_3202_415">
<rect width="67" height="85" fill="white"/>
</clipPath>
</defs>
</svg>
