<svg width="123" height="105" viewBox="0 0 123 105" fill="none" xmlns="http://www.w3.org/2000/svg">
<g clip-path="url(#clip0_3200_261)">
<path fill-rule="evenodd" clip-rule="evenodd" d="M59 86.6903L92.48 36.0003L118.82 53.4203L85.32 104.07L59 86.6903ZM49 84.2703L48.8 84.0803L40.37 92.7603L40.22 92.9203C39.9847 93.1586 39.7044 93.3477 39.3954 93.4768C39.0864 93.6059 38.7549 93.6724 38.42 93.6724C38.0851 93.6724 37.7536 93.6059 37.4446 93.4768C37.1356 93.3477 36.8553 93.1586 36.62 92.9203L27.77 84.0803L18.66 92.7703C18.1826 93.2322 17.5443 93.4904 16.88 93.4904C16.2157 93.4904 15.5774 93.2322 15.1 92.7703L6.4 84.0003L4.6 86.0003C4.28221 86.43 3.83748 86.7489 3.32861 86.9121C2.81975 87.0753 2.27247 87.0745 1.76408 86.9098C1.25569 86.7452 0.81188 86.4249 0.495341 85.9944C0.178802 85.5638 0.00553057 85.0447 0 84.5103L0 2.51031C0.0105008 1.84097 0.283789 1.20259 0.760874 0.732994C1.23796 0.263394 1.88057 0.000231404 2.55 0.000313769H95.41C95.7482 -0.00499232 96.0841 0.0570469 96.3981 0.182819C96.7121 0.30859 96.998 0.495581 97.239 0.732901C97.4801 0.97022 97.6715 1.25313 97.8021 1.56514C97.9328 1.87716 98 2.21205 98 2.55031V27.3203C96.4727 26.3545 94.7159 25.8126 92.91 25.7503V5.10031H5.1V78.0003C5.55181 77.7639 6.06432 77.6689 6.57084 77.7278C7.07736 77.7866 7.55444 77.9966 7.94 78.3303L8.09 78.4603L16.93 87.3903L26 78.7003C26.4745 78.2367 27.1116 77.9772 27.775 77.9772C28.4384 77.9772 29.0755 78.2367 29.55 78.7003L38.32 87.4703L46.81 78.7203C47.2709 78.2461 47.8986 77.9703 48.5597 77.9516C49.2208 77.933 49.863 78.1729 50.35 78.6203L51.35 79.5103L50.4 81.0003C49.7485 82.0015 49.2748 83.1078 49 84.2703ZM35.8 16.0903L35.4 21.4603L30.54 21.2403H30.1L29.91 31.6603L30.21 39.3803H22.85L23.21 32.3803L23 21.2403H22.52L17.63 21.4603L17.22 21.0003L17.62 15.6203H35.4L35.8 16.1403V16.0903ZM57.07 39.3803H49.6L48.94 35.4503V35.3403L45.34 35.2603L42.34 35.4103L41.71 39.4103H34.44L41.65 15.6003H50.56L57.07 39.4103V39.3803ZM47.8 30.0003L46.18 22.2003H45.74L43.68 30.0003H45.74H47.8ZM73.56 26.8003L80.74 39.3803H71.94L70.69 36.4803L68.56 32.6103L65.83 36.8503L64.65 39.3803H57.18L64.25 27.9403L57 15.5703H65.8L67.08 18.5703L69.18 22.3303L71.57 18.1703L72.68 15.5903H80.37L73.56 26.8003ZM60.09 66.3503H19.43C18.9314 66.3503 18.4532 66.1522 18.1006 65.7997C17.7481 65.4471 17.55 64.9689 17.55 64.4703C17.55 63.9717 17.7481 63.4935 18.1006 63.141C18.4532 62.7884 18.9314 62.5903 19.43 62.5903H62.58L60.09 66.3503ZM68.37 53.8303H18.89C18.6323 53.8492 18.3734 53.8146 18.1296 53.729C17.8858 53.6433 17.6623 53.5082 17.473 53.3323C17.2837 53.1563 17.1327 52.9432 17.0295 52.7063C16.9263 52.4694 16.873 52.2137 16.873 51.9553C16.873 51.6969 16.9263 51.4412 17.0295 51.2043C17.1327 50.9674 17.2837 50.7543 17.473 50.5784C17.6623 50.4024 17.8858 50.2674 18.1296 50.1817C18.3734 50.096 18.6323 50.0615 18.89 50.0803H70.89L68.41 53.8303H68.37ZM106.31 100.59L103.31 84.0603L108.18 87.4703C113.74 82.2403 115.73 76.4703 113.65 69.4703C122.78 76.8303 122.81 86.6103 117.89 94.2703L122.89 97.7503L106.33 100.57L106.31 100.59ZM81.16 65.0003C82.1725 63.4636 83.6182 62.2618 85.3141 61.547C87.01 60.8323 88.8799 60.6368 90.6869 60.9853C92.4939 61.3338 94.157 62.2106 95.4655 63.5047C96.774 64.7988 97.6691 66.452 98.0376 68.2551C98.406 70.0582 98.2313 71.93 97.5354 73.6337C96.8395 75.3374 95.6537 76.7964 94.1283 77.8258C92.6028 78.8553 90.8062 79.4091 88.9659 79.417C87.1256 79.4249 85.3243 78.8866 83.79 77.8703C81.7349 76.5121 80.3033 74.3934 79.8101 71.9799C79.3169 69.5664 79.8025 67.0559 81.16 65.0003ZM68.59 80.8803L90.87 47.2003C91.3807 47.5381 91.9531 47.7719 92.5542 47.8884C93.1554 48.0049 93.7736 48.0017 94.3736 47.8792C94.9735 47.7566 95.5434 47.5169 96.0507 47.174C96.558 46.831 96.9927 46.3914 97.33 45.8803L107.74 52.7703C107.06 53.8026 106.818 55.0622 107.065 56.2731C107.313 57.4839 108.03 58.5474 109.06 59.2303L86.79 92.9103C85.7561 92.2302 84.495 91.9873 83.2825 92.2347C82.07 92.4821 81.0048 93.1996 80.32 94.2303L69.91 87.3403C70.2478 86.8296 70.4816 86.2572 70.5981 85.6561C70.7146 85.0549 70.7114 84.4367 70.5888 83.8367C70.4663 83.2368 70.2266 82.6669 69.8836 82.1596C69.5407 81.6523 69.1011 81.2176 68.59 80.8803Z" fill="#10108A"/>
</g>
<defs>
<clipPath id="clip0_3200_261">
<rect width="122.88" height="104.11" fill="white"/>
</clipPath>
</defs>
</svg>
