<svg width="98" height="98" viewBox="0 0 98 98" fill="none" xmlns="http://www.w3.org/2000/svg">
<path d="M97.8117 86.6912L90.3866 68.08V10.3089C90.3866 8.80779 89.1761 7.58105 87.6587 7.58105H10.3401C8.83898 7.58105 7.61225 8.79156 7.61225 10.3089V68.08L0.187183 86.6912C-0.135668 87.5144 -0.0387879 88.483 0.461593 89.2253C0.961974 89.9839 1.81742 90.4198 2.7213 90.4198H95.2935C96.1974 90.4198 97.0528 89.9841 97.5532 89.2253C98.0376 88.4989 98.1345 87.5466 97.8117 86.6912ZM13.052 50.8083H16.7484C18.2496 50.8083 19.4763 49.5976 19.4763 48.0804C19.4763 46.5631 18.2658 45.3526 16.7484 45.3526H13.052V40.5101H23.189C24.6901 40.5101 25.9168 39.2993 25.9168 37.7822C25.9168 36.281 24.7063 35.0543 23.189 35.0543H13.052V13.053H84.9468V65.9009H13.052V50.8083ZM6.72434 84.98L12.1641 71.3242H85.7863L91.226 84.98H6.72434Z" fill="#10108A"/>
<path d="M71.4046 24.3027H60.2831C58.782 24.3027 57.5552 25.5135 57.5552 27.0306C57.5552 28.5318 58.766 29.7585 60.2831 29.7585H64.819L52.0026 42.5589L43.9641 34.5203C43.4637 34.02 42.7695 33.7293 42.027 33.7293C41.3006 33.7293 40.6227 34.02 40.0899 34.5203L24.6584 49.9517C23.593 51.0172 23.593 52.7281 24.6584 53.8097C25.643 54.8105 27.7254 54.5845 28.5164 53.8097L42.0432 40.283L50.0817 48.3215C51.0987 49.3385 52.9227 49.3385 53.9397 48.3215L68.677 33.5843V38.1201C68.677 39.6213 69.8875 40.848 71.4049 40.848C72.9222 40.848 74.1327 39.6375 74.1327 38.1201V26.9986C74.1163 25.5295 72.9058 24.3027 71.4046 24.3027Z" fill="#10108A"/>
<path d="M54.8593 75.4238H43.1244C41.6232 75.4238 40.3965 76.6346 40.3965 78.1517C40.3965 79.6528 41.607 80.8796 43.1244 80.8796H54.8593C56.3605 80.8796 57.5872 79.6691 57.5872 78.1517C57.5872 76.6506 56.3767 75.4238 54.8593 75.4238Z" fill="#10108A"/>
</svg>
