<svg width="99" height="99" viewBox="0 0 99 99" fill="none" xmlns="http://www.w3.org/2000/svg">
<path d="M73.465 28.6285C73.1715 29.6726 72.2216 30.3556 71.1879 30.3556C70.9763 30.3556 70.7609 30.3267 70.5465 30.2666L51.6002 24.9461C50.3417 24.5925 49.608 23.2862 49.9616 22.0276C50.3152 20.7695 51.621 20.0354 52.8801 20.389L71.8269 25.7095C73.0845 26.0636 73.8186 27.3699 73.465 28.6285ZM39.8256 86.2702C36.3159 86.2702 33.4604 89.1257 33.4604 92.6353C33.4604 96.145 36.3159 99 39.8256 99C43.3352 99 46.1902 96.145 46.1902 92.6353C46.1902 89.1257 43.3352 86.2702 39.8256 86.2702ZM78.4571 86.2702C74.9474 86.2702 72.0919 89.1257 72.0919 92.6353C72.0919 96.145 74.9474 99 78.4571 99C81.9667 99 84.8222 96.145 84.8222 92.6353C84.8217 89.1257 81.9667 86.2702 78.4571 86.2702ZM93.4522 34.4517L87.3009 68.0764C87.0951 69.2005 86.1158 70.017 84.9732 70.017H34.1723L35.4786 76.1758C35.8033 77.706 37.1745 78.8169 38.7388 78.8169H81.6926C82.9995 78.8169 84.0592 79.8766 84.0592 81.1835C84.0592 82.4903 82.9995 83.55 81.6926 83.55H38.7383C34.9523 83.55 31.6339 80.8616 30.8482 77.1579L28.9436 68.1791L16.2734 16.7052H7.87536C6.56854 16.7052 5.50879 15.6454 5.50879 14.3386C5.50879 13.0318 6.56854 11.972 7.87536 11.972H18.1278C19.2169 11.972 20.1655 12.7151 20.4258 13.773L24.811 31.5881L38.9958 31.6032L45.4741 8.53529C45.4746 8.53434 45.4741 8.53387 45.4746 8.53292L47.3858 1.72855C47.7394 0.470475 49.0457 -0.26411 50.3043 0.0899296L84.595 9.71905C85.8535 10.0726 86.5872 11.379 86.2336 12.637C85.9402 13.6816 84.9902 14.3642 83.9565 14.3646C83.7449 14.3646 83.5296 14.3362 83.3156 14.2757L82.7921 14.1285L82.1797 16.3095L82.7032 16.4562C83.9612 16.8098 84.6949 18.1161 84.3418 19.3747L80.8951 31.6477L91.1282 31.6586C91.8296 31.6591 92.4951 31.9715 92.9443 32.5106C93.392 33.0506 93.5785 33.7611 93.4522 34.4517ZM51.302 5.28598L50.6896 7.46702L77.6212 15.0301L78.2336 12.8491L51.302 5.28598ZM45.1115 31.6094L74.9697 31.6416L76.4185 26.4829C76.5879 25.8785 76.5108 25.2315 76.2036 24.6843C75.8964 24.1367 75.3843 23.7344 74.7799 23.5645L51.6527 17.0701C51.0488 16.9002 50.4018 16.9773 49.8542 17.285C49.307 17.5922 48.9042 18.1043 48.7343 18.7087L45.1115 31.6094Z" fill="#10108A"/>
</svg>
