<svg width="30" height="30" viewBox="0 0 30 30" fill="none" xmlns="http://www.w3.org/2000/svg">
<g clip-path="url(#clip0_3202_411)">
<path d="M22.5 0H12.1875C11.1525 0 10.3125 0.839062 10.3125 1.875H20.625V9.375H28.125V24.375H21.5625V26.25H28.125C29.1609 26.25 30 25.4109 30 24.375V7.5L22.5 0ZM22.5 7.5V2.65125L27.3478 7.5H22.5ZM1.875 3.75C0.839062 3.75 0 4.59 0 5.625V28.125C0 29.1609 0.839062 30 1.875 30H17.8125C18.8484 30 19.6875 29.1609 19.6875 28.125V11.25L12.1875 3.74906L1.875 3.75ZM17.8125 28.125H1.875V5.625H10.3125V13.125H17.8125V28.125ZM12.1875 11.25V6.40125L17.0353 11.25H12.1875Z" fill="#10108A"/>
</g>
<defs>
<clipPath id="clip0_3202_411">
<rect width="30" height="30" fill="white"/>
</clipPath>
</defs>
</svg>
