<svg width="82" height="82" viewBox="0 0 82 82" fill="none" xmlns="http://www.w3.org/2000/svg">
<path opacity="0.5" d="M21.3884 73.0771H20.5003C17.2791 73.0771 15.6684 73.0771 14.6677 72.0763C13.667 71.0756 13.667 69.465 13.667 66.2437V62.4444C13.667 60.6729 13.667 59.7873 14.122 58.9963C14.5771 58.205 15.2635 57.8059 16.6364 57.0075C25.6751 51.7502 38.5113 48.7911 47.0789 53.901C47.6543 54.2444 48.1723 54.6588 48.6144 55.1556C50.5212 57.2975 50.3825 60.53 48.1849 62.4482C47.7206 62.853 47.2262 63.1605 46.728 63.2671C47.1373 63.2196 47.5296 63.1653 47.904 63.1055C51.018 62.6087 53.6317 60.9448 56.0248 59.1371L62.1994 54.473C64.3761 52.8285 67.6069 52.8282 69.784 54.472C71.7442 55.9521 72.3435 58.3888 71.1042 60.3749C69.6593 62.6914 67.6233 65.6547 65.6683 67.4652C63.7106 69.2784 60.7961 70.8972 58.4168 72.0456C55.7808 73.3179 52.8691 74.0508 49.9072 74.5305C43.9004 75.5026 37.6404 75.3543 31.6945 74.1294C28.3331 73.4368 24.8422 73.0771 21.3884 73.0771Z" fill="#10108A"/>
<path d="M22.5014 8.83436C21.2482 10.0875 20.7797 11.8189 20.6045 14.5197C24.7672 14.4642 28.1312 11.1002 28.1867 6.9375C25.4858 7.11267 23.7545 7.5812 22.5014 8.83436Z" fill="#10108A"/>
<path d="M59.4988 8.83436C58.2456 7.5812 56.5144 7.11267 53.8135 6.9375C53.8688 11.1002 57.2329 14.4642 61.3957 14.5197C61.2205 11.8189 60.752 10.0875 59.4988 8.83436Z" fill="#10108A"/>
<path d="M59.4988 32.1649C58.2456 33.418 56.5144 33.8866 53.8135 34.0617C53.8692 29.899 57.2329 26.535 61.3957 26.4795C61.2205 29.1804 60.752 30.9117 59.4988 32.1649Z" fill="#10108A"/>
<path d="M22.5014 32.1649C23.7545 33.418 25.4858 33.8866 28.1867 34.0617C28.1312 29.8991 24.7672 26.535 20.6045 26.4795C20.7797 29.1804 21.2482 30.9117 22.5014 32.1649Z" fill="#10108A"/>
<path fill-rule="evenodd" clip-rule="evenodd" d="M20.5 19.6455C27.5762 19.6455 33.3125 13.9092 33.3125 6.83301H48.6875C48.6875 13.9092 54.4237 19.6455 61.5 19.6455V21.3538C54.4237 21.3538 48.6875 27.0902 48.6875 34.1663H33.3125C33.3125 27.0902 27.5762 21.3538 20.5 21.3538V19.6455ZM41 23.9163C42.887 23.9163 44.4167 22.3866 44.4167 20.4997C44.4167 18.6127 42.887 17.083 41 17.083C39.113 17.083 37.5833 18.6127 37.5833 20.4997C37.5833 22.3866 39.113 23.9163 41 23.9163Z" fill="#10108A"/>
</svg>
