<svg width="69" height="69" viewBox="0 0 69 69" fill="none" xmlns="http://www.w3.org/2000/svg">
<path fill-rule="evenodd" clip-rule="evenodd" d="M58.2188 6.46875C58.2188 5.2785 57.2527 4.3125 56.0625 4.3125H12.9375C11.7473 4.3125 10.7812 5.2785 10.7812 6.46875V62.5312C10.7812 63.7215 11.7473 64.6875 12.9375 64.6875H56.0625C57.2527 64.6875 58.2188 63.7215 58.2188 62.5312V6.46875ZM53.9062 8.625V60.375H15.0938V8.625H53.9062ZM34.5 30.1875C27.3607 30.1875 21.5625 35.9857 21.5625 43.125C21.5625 50.2643 27.3607 56.0625 34.5 56.0625C41.6393 56.0625 47.4375 50.2643 47.4375 43.125C47.4375 35.9857 41.6393 30.1875 34.5 30.1875ZM32.3438 34.7717C28.6264 35.7312 25.875 39.1101 25.875 43.125C25.875 47.886 29.739 51.75 34.5 51.75C38.5149 51.75 41.8938 48.9986 42.8533 45.2812H34.5C33.3098 45.2812 32.3438 44.3152 32.3438 43.125V34.7717ZM28.0312 25.875H40.9688C42.159 25.875 43.125 24.909 43.125 23.7188C43.125 22.5285 42.159 21.5625 40.9688 21.5625H28.0312C26.841 21.5625 25.875 22.5285 25.875 23.7188C25.875 24.909 26.841 25.875 28.0312 25.875ZM23.7188 17.25H45.2812C46.4715 17.25 47.4375 16.284 47.4375 15.0938C47.4375 13.9035 46.4715 12.9375 45.2812 12.9375H23.7188C22.5285 12.9375 21.5625 13.9035 21.5625 15.0938C21.5625 16.284 22.5285 17.25 23.7188 17.25Z" fill="#10108A"/>
</svg>
