<svg width="99" height="99" viewBox="0 0 99 99" fill="none" xmlns="http://www.w3.org/2000/svg">
<g clip-path="url(#clip0_3201_341)">
<path d="M93.8077 60.4785C95.9994 57.8877 99.0002 54.3397 99.0002 49.4999C99.0002 44.6601 95.9996 41.1118 93.8072 38.5207C93.1093 37.6958 91.9412 36.3148 91.7431 35.7746C91.5462 35.1679 91.6809 33.2393 91.7609 32.0852C91.9927 28.7563 92.31 24.1969 89.5447 20.3977C86.7603 16.5724 82.3051 15.468 79.0508 14.6611C77.9479 14.3876 76.1019 13.9299 75.6065 13.5748C75.1284 13.2126 74.1465 11.6286 73.5594 10.6822C71.7816 7.81526 69.3464 3.88854 64.7987 2.41178C63.6719 2.04577 62.4736 1.86035 61.2365 1.86035C58.1936 1.86035 55.4909 2.95175 53.1064 3.91502C51.9442 4.38444 50.1871 5.09378 49.5006 5.09378C48.8137 5.09378 47.0568 4.38418 45.8943 3.91452C43.5098 2.95175 40.8072 1.86035 37.7648 1.86035C36.5277 1.86035 35.3291 2.04577 34.203 2.41152C29.6548 3.88828 27.2194 7.81501 25.4413 10.6824C24.8542 11.6289 23.8721 13.2129 23.3961 13.5738C22.8994 13.9299 21.0531 14.3876 19.9484 14.6616C16.6957 15.468 12.2402 16.5724 9.45628 20.3977C6.69023 24.1984 7.0081 28.7583 7.24013 32.0875C7.32036 33.24 7.45484 35.1691 7.26051 35.7679C7.06057 36.315 5.89225 37.696 5.19361 38.522C3.0014 41.1121 0 44.6601 0 49.4999C0 54.3397 3.00114 57.8877 5.19284 60.4788C5.89098 61.304 7.05929 62.685 7.25694 63.2252C7.45383 63.8317 7.3196 65.7603 7.23937 66.913C7.00733 70.242 6.68947 74.8021 9.45552 78.6025C12.2397 82.4279 16.6949 83.532 19.9495 84.3389C21.0523 84.6122 22.8986 85.0702 23.3938 85.4252C23.8713 85.7871 24.8535 87.3714 25.4408 88.3179C27.2186 91.185 29.6538 95.1117 34.2023 96.5885C35.3288 96.9545 36.5272 97.1397 37.764 97.1397C40.8064 97.1397 43.509 96.0483 45.8936 95.0855C47.056 94.6158 48.8132 93.9062 49.4999 93.9062C50.1868 93.9062 51.9435 94.6158 53.1062 95.0855C55.4907 96.0483 58.1933 97.1397 61.2357 97.1397C62.4728 97.1397 63.6712 96.9543 64.7975 96.5885C69.3457 95.1117 71.7809 91.1853 73.5592 88.3176C74.1458 87.3711 75.1281 85.7869 75.6042 85.426C76.1016 85.0697 77.9482 84.6122 79.0531 84.3382C82.3056 83.5318 86.7603 82.4274 89.544 78.602C92.3098 74.8014 91.9919 70.2417 91.7601 66.9123C91.6801 65.7597 91.5452 63.8304 91.7397 63.2318C91.9407 62.6852 93.109 61.3043 93.8077 60.4785ZM87.9737 55.5442C86.5614 57.2133 85.1015 58.9394 84.4762 60.8654C83.8211 62.8824 83.9823 65.2009 84.139 67.4438C84.3142 69.9572 84.495 72.5559 83.3675 74.106C82.2213 75.6809 79.6763 76.3118 77.2149 76.922C75.0459 77.4594 72.8035 78.0152 71.1095 79.2479C69.4399 80.4629 68.2331 82.4088 67.0661 84.2913C65.7195 86.4624 64.327 88.7078 62.4387 89.3209C62.0755 89.4388 61.671 89.4986 61.2362 89.4986C59.6782 89.4986 57.8765 88.771 55.9683 88.0005C53.8563 87.147 51.6725 86.2652 49.5001 86.2652C47.3288 86.2652 45.1445 87.1472 43.0322 88.0005C41.1243 88.7707 39.3223 89.4989 37.764 89.4989C37.3295 89.4989 36.9248 89.439 36.5616 89.3211C34.6735 88.7081 33.2808 86.4624 31.9339 84.2908C30.7669 82.409 29.5603 80.4634 27.8913 79.2487C26.1983 78.0162 23.9559 77.4605 21.7859 76.9225C19.3244 76.3123 16.7792 75.6814 15.633 74.106C14.505 72.557 14.6861 69.9582 14.8615 67.4448C15.0177 65.2019 15.1792 62.8834 14.5241 60.8657C13.8985 58.9399 12.4386 57.2143 11.0263 55.5442C9.36205 53.5764 7.64103 51.5421 7.64103 49.5001C7.64103 47.4585 9.36205 45.4239 11.0265 43.4561C12.4388 41.787 13.8988 40.0609 14.5243 38.1349C15.1792 36.1179 15.0179 33.7991 14.8615 31.5565C14.6863 29.0431 14.5052 26.4441 15.633 24.8942C16.7792 23.3192 19.3244 22.6883 21.7876 22.0778C23.9559 21.5401 26.198 20.9843 27.891 19.7521C29.5603 18.5374 30.7669 16.5915 31.9342 14.7095C33.2808 12.5379 34.6735 10.2925 36.5618 9.67916C36.925 9.56124 37.3295 9.50138 37.764 9.50138C39.322 9.50138 41.124 10.2291 43.032 10.9995C45.144 11.8528 47.3278 12.7348 49.5001 12.7348C51.6709 12.7348 53.855 11.853 55.968 10.9995C57.8757 10.2291 59.678 9.50113 61.2362 9.50113C61.671 9.50113 62.0755 9.56098 62.4387 9.67891C64.327 10.292 65.7195 12.5377 67.0661 14.709C68.2331 16.591 69.4399 18.5369 71.109 19.7516C72.8022 20.9841 75.0443 21.5398 77.2144 22.0778C79.6758 22.688 82.2213 23.3189 83.3675 24.894C84.4948 26.4428 84.3142 29.0413 84.139 31.5549C83.9823 33.7973 83.8206 36.1161 84.4762 38.1346C85.1015 40.0607 86.5617 41.7865 87.9737 43.4558C89.6377 45.4237 91.359 47.4582 91.359 49.4999C91.359 51.5416 89.6385 53.5761 87.9737 55.5442Z" fill="#10108A"/>
<path d="M42.7881 53.2101H45.3328L44.0603 44.709L42.7881 53.2101Z" fill="#10108A"/>
<path d="M49.5006 20.209C33.3238 20.209 20.21 33.3228 20.21 49.4996C20.21 65.6767 33.3238 78.7902 49.5006 78.7902C65.6774 78.7902 78.7912 65.6767 78.7912 49.4996C78.7912 33.3228 65.6774 20.209 49.5006 20.209ZM32.6473 60.438C29.3 60.438 27.4577 58.4694 27.4577 54.8932V54.2773C27.4577 53.7317 27.9009 53.2898 28.4455 53.2898H30.2105C30.7559 53.2898 31.1985 53.7317 31.1985 54.2773V55.1005C31.1985 56.5862 31.8855 56.7863 32.5586 56.7863C33.2303 56.7863 33.9187 56.5862 33.9187 55.1005C33.9187 53.2868 32.6119 52.0922 31.2309 50.8274C29.5037 49.2475 27.5466 47.4574 27.5466 44.1063C27.5466 40.5303 29.369 38.5612 32.6763 38.5612C35.9449 38.5612 37.7632 40.4837 37.8067 43.9784C37.8118 44.0184 37.8139 44.0589 37.8139 44.0994C37.8139 44.6458 37.371 45.0879 36.8264 45.0879C36.8251 45.0879 36.8208 45.0882 36.8193 45.0879H35.0544C34.5081 45.0879 34.0654 44.6458 34.0654 44.0994V43.8992C34.0654 42.3873 33.4101 42.1836 32.7662 42.1836C32.1223 42.1836 31.4657 42.3873 31.4657 43.8992C31.4657 45.7137 32.7708 46.9073 34.1528 48.1721C35.8794 49.7528 37.8365 51.5421 37.8365 54.8934C37.8363 58.4692 35.9945 60.438 32.6473 60.438ZM50.2856 60.0832C50.0935 60.3081 49.8128 60.438 49.5171 60.438H47.5241C47.0241 60.438 46.5995 60.0717 46.5252 59.5774L46.0782 56.5907H42.5699L42.1221 59.5774C42.049 60.0717 41.6242 60.438 41.1237 60.438H39.4343C39.1386 60.438 38.8574 60.3081 38.6661 60.0832C38.4736 59.8583 38.3905 59.5603 38.4376 59.2684L41.6143 39.4119C41.6927 38.9224 42.1153 38.5617 42.6107 38.5617H46.34C46.8359 38.5617 47.2579 38.9224 47.3366 39.4119L50.5135 59.2684C50.5612 59.5603 50.4766 59.8583 50.2856 60.0832ZM61.0024 59.4281C61.0024 59.9854 60.5503 60.438 59.9927 60.438H52.5241C51.9669 60.438 51.5148 59.9856 51.5148 59.4281V39.5719C51.5148 39.0143 51.9666 38.562 52.5241 38.562H54.51C55.0678 38.562 55.5204 39.0143 55.5204 39.5719V56.7359H59.9932C60.5505 56.7359 61.0031 57.188 61.0031 57.7456V59.4281H61.0024ZM71.5437 39.5716V41.2542C71.5437 41.8117 71.0916 42.2638 70.5333 42.2638H65.7879V47.4971H69.3522C69.9098 47.4971 70.3616 47.9492 70.3616 48.507V50.1898C70.3616 50.7471 69.91 51.1995 69.3522 51.1995H65.7879V56.7357H70.5333C71.0913 56.7357 71.5437 57.1878 71.5437 57.7453V59.4279C71.5437 59.9851 71.0916 60.4377 70.5333 60.4377H62.7927C62.2351 60.4377 61.783 59.9854 61.783 59.4279V39.5716C61.783 39.0141 62.2344 38.5617 62.7927 38.5617H70.5333C71.0913 38.5615 71.5437 39.0141 71.5437 39.5716Z" fill="#10108A"/>
</g>
<defs>
<clipPath id="clip0_3201_341">
<rect width="99" height="99" fill="white"/>
</clipPath>
</defs>
</svg>
