<svg width="94" height="94" viewBox="0 0 94 94" fill="none" xmlns="http://www.w3.org/2000/svg">
<path fill-rule="evenodd" clip-rule="evenodd" d="M43.1519 74.4163C41.7521 74.4163 40.5579 73.3772 40.3299 71.9606C40.12 70.8146 39.3155 69.8781 38.2334 69.5205C37.3516 69.2099 36.4894 68.8437 35.6519 68.4238C34.6553 67.901 33.4596 67.9793 32.5358 68.6275C31.4178 69.452 29.8819 69.3243 28.908 68.3259L25.1198 64.4406C24.1003 63.3948 23.9678 61.7463 24.8066 60.5435C25.4536 59.5741 25.5467 58.3243 25.051 57.2653C24.7244 56.5297 24.4363 55.7765 24.188 55.0093C23.8323 53.8002 22.8506 52.8946 21.6409 52.6593C20.1821 52.4203 19.1051 51.1353 19.0938 49.6199V44.7593C19.086 43.0129 20.3159 41.5191 21.996 41.2343C23.2706 40.9856 24.3349 40.0903 24.8219 38.8569C24.967 38.5096 25.1198 38.165 25.2802 37.8229C25.9279 36.5439 25.8384 35.0034 25.0472 33.8123C24.0577 32.4018 24.2097 30.4639 25.4062 29.2337L28.19 26.3784C29.5631 24.9697 31.7285 24.7874 33.3072 25.9476L33.395 26.0103C34.5738 26.824 36.0738 26.9714 37.3818 26.4019C38.7811 25.8854 39.8125 24.6521 40.0969 23.155L40.1353 23.0218C40.4494 21.0399 42.1183 19.5838 44.0762 19.583H47.4367C49.4471 19.5821 51.163 21.0736 51.492 23.108L51.5531 23.3822C51.823 24.8163 52.801 26.0033 54.1346 26.5155C55.42 27.0813 56.8982 26.9336 58.0528 26.1238L58.2436 25.9828C59.8631 24.7857 62.0901 24.9698 63.5021 26.4176L66.0644 29.0496C67.3486 30.3741 67.51 32.4568 66.4462 33.9728C65.6128 35.24 65.5066 36.8682 66.1674 38.2381L66.3319 38.6298C66.8669 39.9673 68.0251 40.9367 69.4096 41.2069C71.2195 41.5097 72.5504 43.11 72.5562 44.9904V49.3497C72.5559 51.008 71.3863 52.4227 69.7915 52.6945C68.4798 52.9526 67.4113 53.9267 67.0075 55.2325C66.8293 55.7546 66.6307 56.2771 66.4118 56.7992C65.9022 57.9468 66.0154 59.2839 66.7098 60.3242C67.6259 61.6316 67.4838 63.4274 66.3738 64.5659L62.8186 68.2163C61.8019 69.2589 60.1984 69.3932 59.0304 68.5335C58.0552 67.85 56.7921 67.7748 55.7463 68.3377C55.001 68.7164 54.236 69.0525 53.4551 69.3443C52.3627 69.7308 51.5574 70.6896 51.3471 71.8548C51.1242 73.3208 49.8987 74.4054 48.4523 74.4163H43.1519Z" stroke="#10108A" stroke-width="3.75" stroke-linecap="round" stroke-linejoin="round"/>
<path fill-rule="evenodd" clip-rule="evenodd" d="M54.7344 46.9999C54.7344 52.0466 50.7456 56.1375 45.8251 56.1375C40.9046 56.1375 36.916 52.0466 36.916 46.9999C36.916 41.9533 40.9046 37.8623 45.8251 37.8623C50.7456 37.8623 54.7344 41.9533 54.7344 46.9999Z" stroke="#10108A" stroke-width="3.75" stroke-linecap="round" stroke-linejoin="round"/>
</svg>
