<svg width="78" height="78" viewBox="0 0 78 78" fill="none" xmlns="http://www.w3.org/2000/svg">
<path d="M8.93758 57.9215H13.2853M8.93758 46.6017H13.2853M8.93758 8.9375V69.0625H69.0626M8.93555 13.3794H13.2832M8.93555 24.4782H13.2832M8.93555 35.4884H13.2832" stroke="#10108A" stroke-width="3.75" stroke-miterlimit="6" stroke-linecap="round" stroke-linejoin="round"/>
<path d="M27.967 52.2823C27.9669 53.4439 27.5054 54.5578 26.6841 55.3792C25.8627 56.2005 24.7488 56.662 23.5872 56.6621C22.4256 56.6621 21.3115 56.2007 20.4901 55.3793C19.6687 54.558 19.2071 53.4439 19.207 52.2823C19.207 51.1206 19.6685 50.0065 20.49 49.1851C21.3114 48.3636 22.4255 47.9021 23.5872 47.9021C24.7488 47.9022 25.8629 48.3638 26.6842 49.1852C27.5056 50.0066 27.967 51.1207 27.967 52.2823ZM38.6181 31.0204C38.6181 31.5957 38.5048 32.1653 38.2846 32.6967C38.0645 33.2282 37.7418 33.7111 37.335 34.1178C36.9282 34.5246 36.4453 34.8472 35.9138 35.0673C35.3823 35.2874 34.8127 35.4006 34.2375 35.4006C33.0758 35.4006 31.9617 34.9391 31.1402 34.1177C30.3188 33.2962 29.8573 32.1821 29.8573 31.0204C29.8573 29.8587 30.3188 28.7446 31.1402 27.9231C31.9617 27.1017 33.0758 26.6402 34.2375 26.6402C35.3991 26.6403 36.5131 27.1019 37.3345 27.9233C38.1558 28.7447 38.6173 29.8588 38.6173 31.0204H38.6181ZM56.3208 45.8063C56.3207 46.9679 55.8592 48.0819 55.0377 48.9033C54.2163 49.7246 53.1023 50.1861 51.9406 50.1861C50.7791 50.186 49.6651 49.7245 48.8438 48.9031C48.0224 48.0818 47.561 46.9678 47.5608 45.8063C47.5608 44.6447 48.0223 43.5306 48.8436 42.7092C49.665 41.8877 50.779 41.4262 51.9406 41.4261C53.1023 41.4261 54.2164 41.8876 55.0379 42.709C55.8593 43.5305 56.3208 44.6446 56.3208 45.8063ZM65.0974 15.9892C65.0974 17.1509 64.636 18.265 63.8145 19.0864C62.9931 19.9079 61.8789 20.3693 60.7173 20.3693C59.5556 20.3693 58.4414 19.9079 57.62 19.0864C56.7985 18.265 56.3371 17.1509 56.3371 15.9892C56.3372 14.8275 56.7987 13.7135 57.6201 12.8922C58.4416 12.0708 59.5556 11.6094 60.7173 11.6094C61.8788 11.6095 62.9928 12.071 63.8141 12.8923C64.6355 13.7136 65.0969 14.8276 65.097 15.9892H65.0974Z" stroke="#10108A" stroke-width="3.75" stroke-miterlimit="6" stroke-linecap="round" stroke-linejoin="round"/>
<path d="M26.1543 48.0183L31.8893 35.2775M38.0156 34.2928L47.9009 42.8744M53.4535 41.2222L59.7625 19.9375" stroke="#10108A" stroke-width="2.5" stroke-miterlimit="6" stroke-linecap="round" stroke-linejoin="round"/>
</svg>
