<svg width="111" height="111" viewBox="0 0 111 111" fill="none" xmlns="http://www.w3.org/2000/svg">
<path d="M90.1875 12.1406H20.8125C18.0526 12.1406 15.4057 13.237 13.4542 15.1885C11.5026 17.1401 10.4063 19.787 10.4062 22.5469V88.4531C10.4063 91.213 11.5026 93.8599 13.4542 95.8115C15.4057 97.763 18.0526 98.8594 20.8125 98.8594H90.1875C92.9474 98.8594 95.5943 97.763 97.5458 95.8115C99.4974 93.8599 100.594 91.213 100.594 88.4531V22.5469C100.594 19.787 99.4974 17.1401 97.5458 15.1885C95.5943 13.237 92.9474 12.1406 90.1875 12.1406ZM93.6562 88.4531C93.6562 89.3731 93.2908 90.2554 92.6403 90.9059C91.9898 91.5564 91.1075 91.9219 90.1875 91.9219H20.8125C19.8925 91.9219 19.0102 91.5564 18.3597 90.9059C17.7092 90.2554 17.3438 89.3731 17.3438 88.4531V22.5469C17.3438 21.6269 17.7092 20.7446 18.3597 20.0941C19.0102 19.4436 19.8925 19.0781 20.8125 19.0781H90.1875C91.1075 19.0781 91.9898 19.4436 92.6403 20.0941C93.2908 20.7446 93.6562 21.6269 93.6562 22.5469V88.4531Z" fill="#10108A"/>
<path d="M78.0467 50.2971C78.9667 50.2971 79.849 49.9317 80.4995 49.2812C81.15 48.6306 81.5155 47.7484 81.5155 46.8284C81.5155 45.9084 81.15 45.0261 80.4995 44.3756C79.849 43.7251 78.9667 43.3596 78.0467 43.3596H39.5956L44.0703 38.8676C44.6386 38.204 44.9356 37.3504 44.9018 36.4774C44.8681 35.6044 44.5062 34.7763 43.8884 34.1586C43.2707 33.5408 42.4425 33.1789 41.5695 33.1452C40.6965 33.1114 39.843 33.4084 39.1794 33.9767L28.7731 44.3829C28.286 44.8668 27.9534 45.4845 27.8176 46.1575C27.6817 46.8306 27.7487 47.5289 28.01 48.1639C28.2741 48.7968 28.7198 49.3373 29.2909 49.717C29.862 50.0967 30.5328 50.2986 31.2186 50.2971H78.0467Z" fill="#10108A"/>
<path d="M81.5156 62.4375H34.6875C33.7675 62.4375 32.8852 62.803 32.2347 63.4535C31.5842 64.104 31.2188 64.9863 31.2188 65.9063C31.2188 66.8262 31.5842 67.7085 32.2347 68.359C32.8852 69.0096 33.7675 69.375 34.6875 69.375H73.1386L68.6639 73.867C68.3008 74.178 68.0059 74.5607 67.7977 74.991C67.5895 75.4214 67.4725 75.8901 67.454 76.3678C67.4356 76.8455 67.5161 77.3219 67.6904 77.767C67.8648 78.2122 68.1294 78.6164 68.4674 78.9545C68.8054 79.2925 69.2097 79.5571 69.6548 79.7314C70.1 79.9058 70.5763 79.9863 71.0541 79.9679C71.5318 79.9494 72.0005 79.8324 72.4309 79.6242C72.8612 79.416 73.2439 79.1211 73.5548 78.758L83.9611 68.3517C84.4482 67.8678 84.7808 67.2502 84.9166 66.5771C85.0525 65.904 84.9855 65.2058 84.7242 64.5708C84.4602 63.9378 84.0145 63.3974 83.4434 63.0177C82.8723 62.638 82.2014 62.4361 81.5156 62.4375Z" fill="#10108A"/>
</svg>
