<svg width="83" height="83" viewBox="0 0 83 83" fill="none" xmlns="http://www.w3.org/2000/svg">
<g clip-path="url(#clip0_3202_418)">
<path d="M72.6247 1.72949H10.3747C8.54026 1.72949 6.78098 2.45821 5.48385 3.75534C4.18673 5.05246 3.45801 6.81174 3.45801 8.64616V76.0837C3.45801 77.9181 4.18673 79.6774 5.48385 80.9745C6.78098 82.2716 8.54026 83.0003 10.3747 83.0003H72.6247C74.4591 83.0003 76.2184 82.2716 77.5155 80.9745C78.8126 79.6774 79.5413 77.9181 79.5413 76.0837V8.64616C79.5413 6.81174 78.8126 5.05246 77.5155 3.75534C76.2184 2.45821 74.4591 1.72949 72.6247 1.72949ZM72.6247 8.64616V15.5628H10.3747V8.64616H72.6247ZM10.3747 76.0837V22.4795H72.6247V76.0837H10.3747Z" fill="#10108A"/>
<path d="M43.2292 13.8333H69.1667C69.6253 13.8333 70.0651 13.6512 70.3894 13.3269C70.7137 13.0026 70.8958 12.5628 70.8958 12.1042C70.8958 11.6456 70.7137 11.2057 70.3894 10.8815C70.0651 10.5572 69.6253 10.375 69.1667 10.375H43.2292C42.7706 10.375 42.3307 10.5572 42.0065 10.8815C41.6822 11.2057 41.5 11.6456 41.5 12.1042C41.5 12.5628 41.6822 13.0026 42.0065 13.3269C42.3307 13.6512 42.7706 13.8333 43.2292 13.8333Z" fill="#10108A"/>
<path d="M15.5628 13.8333C15.7791 13.8823 16.0036 13.8823 16.2199 13.8333C16.4365 13.7612 16.6283 13.6293 16.7732 13.4529C16.9578 13.2833 17.1007 13.0733 17.1907 12.8393C17.2807 12.6053 17.3154 12.3537 17.292 12.1041C17.3409 11.8878 17.3409 11.6633 17.292 11.447C17.2182 11.2312 17.0866 11.0398 16.9115 10.8937C16.5883 10.5769 16.1537 10.3994 15.7011 10.3994C15.2485 10.3994 14.8139 10.5769 14.4907 10.8937C14.2114 10.9916 13.9776 11.1885 13.8336 11.447C13.7846 11.6633 13.7846 11.8878 13.8336 12.1041C13.8425 12.56 14.0275 12.9947 14.3499 13.317C14.6723 13.6394 15.107 13.8244 15.5628 13.8333Z" fill="#10108A"/>
<path d="M19.5398 13.3146C19.6658 13.5408 19.8592 13.7222 20.0931 13.8333C20.3095 13.8812 20.5338 13.8812 20.7502 13.8333C20.977 13.8361 21.2018 13.7914 21.4103 13.702C21.6188 13.6127 21.8062 13.4807 21.9606 13.3146C22.1357 13.1685 22.2673 12.9771 22.341 12.7613C22.3759 12.5436 22.3759 12.3218 22.341 12.1042C22.3309 11.6489 22.145 11.2151 21.8223 10.8938C21.6122 10.6531 21.3385 10.4767 21.0325 10.3849C20.7266 10.2932 20.4009 10.2897 20.0931 10.375C19.8773 10.4487 19.6859 10.5803 19.5398 10.7554C19.3736 10.9098 19.2417 11.0973 19.1523 11.3057C19.063 11.5142 19.0183 11.7391 19.021 11.9658C18.9683 12.1817 18.9683 12.4071 19.021 12.6229C19.1029 12.9095 19.2876 13.1558 19.5398 13.3146Z" fill="#10108A"/>
<path d="M27.667 27.667H15.5628C14.6456 27.667 13.766 28.0314 13.1174 28.6799C12.4689 29.3285 12.1045 30.2081 12.1045 31.1253C12.1045 32.0425 12.4689 32.9222 13.1174 33.5707C13.766 34.2193 14.6456 34.5837 15.5628 34.5837H27.667C28.5842 34.5837 29.4638 34.2193 30.1124 33.5707C30.761 32.9222 31.1253 32.0425 31.1253 31.1253C31.1253 30.2081 30.761 29.3285 30.1124 28.6799C29.4638 28.0314 28.5842 27.667 27.667 27.667Z" fill="#10108A"/>
<path d="M27.667 40.3584H15.5628C14.6456 40.3584 13.766 40.7228 13.1174 41.3713C12.4689 42.0199 12.1045 42.8995 12.1045 43.8167C12.1045 44.7339 12.4689 45.6136 13.1174 46.2621C13.766 46.9107 14.6456 47.2751 15.5628 47.2751H27.667C28.5842 47.2751 29.4638 46.9107 30.1124 46.2621C30.761 45.6136 31.1253 44.7339 31.1253 43.8167C31.1253 42.8995 30.761 42.0199 30.1124 41.3713C29.4638 40.7228 28.5842 40.3584 27.667 40.3584Z" fill="#10108A"/>
<path d="M27.667 53.0166H15.5628C14.6456 53.0166 13.766 53.381 13.1174 54.0295C12.4689 54.6781 12.1045 55.5577 12.1045 56.4749C12.1045 57.3921 12.4689 58.2718 13.1174 58.9203C13.766 59.5689 14.6456 59.9333 15.5628 59.9333H27.667C28.5842 59.9333 29.4638 59.5689 30.1124 58.9203C30.761 58.2718 31.1253 57.3921 31.1253 56.4749C31.1253 55.5577 30.761 54.6781 30.1124 54.0295C29.4638 53.381 28.5842 53.0166 27.667 53.0166Z" fill="#10108A"/>
<path d="M27.667 65.708H15.5628C14.6456 65.708 13.766 66.0724 13.1174 66.7209C12.4689 67.3695 12.1045 68.2491 12.1045 69.1663C12.1045 70.0835 12.4689 70.9632 13.1174 71.6118C13.766 72.2603 14.6456 72.6247 15.5628 72.6247H27.667C28.5842 72.6247 29.4638 72.2603 30.1124 71.6118C30.761 70.9632 31.1253 70.0835 31.1253 69.1663C31.1253 68.2491 30.761 67.3695 30.1124 66.7209C29.4638 66.0724 28.5842 65.708 27.667 65.708Z" fill="#10108A"/>
<path d="M48.417 27.667H36.3128C35.3956 27.667 34.516 28.0314 33.8674 28.6799C33.2189 29.3285 32.8545 30.2081 32.8545 31.1253C32.8545 32.0425 33.2189 32.9222 33.8674 33.5707C34.516 34.2193 35.3956 34.5837 36.3128 34.5837H48.417C49.3342 34.5837 50.2138 34.2193 50.8624 33.5707C51.511 32.9222 51.8753 32.0425 51.8753 31.1253C51.8753 30.2081 51.511 29.3285 50.8624 28.6799C50.2138 28.0314 49.3342 27.667 48.417 27.667Z" fill="#10108A"/>
<path d="M48.417 40.3584H36.3128C35.3956 40.3584 34.516 40.7228 33.8674 41.3713C33.2189 42.0199 32.8545 42.8995 32.8545 43.8167C32.8545 44.7339 33.2189 45.6136 33.8674 46.2621C34.516 46.9107 35.3956 47.2751 36.3128 47.2751H48.417C49.3342 47.2751 50.2138 46.9107 50.8624 46.2621C51.511 45.6136 51.8753 44.7339 51.8753 43.8167C51.8753 42.8995 51.511 42.0199 50.8624 41.3713C50.2138 40.7228 49.3342 40.3584 48.417 40.3584Z" fill="#10108A"/>
<path d="M48.417 53.0166H36.3128C35.3956 53.0166 34.516 53.381 33.8674 54.0295C33.2189 54.6781 32.8545 55.5577 32.8545 56.4749C32.8545 57.3921 33.2189 58.2718 33.8674 58.9203C34.516 59.5689 35.3956 59.9333 36.3128 59.9333H48.417C49.3342 59.9333 50.2138 59.5689 50.8624 58.9203C51.511 58.2718 51.8753 57.3921 51.8753 56.4749C51.8753 55.5577 51.511 54.6781 50.8624 54.0295C50.2138 53.381 49.3342 53.0166 48.417 53.0166Z" fill="#10108A"/>
<path d="M48.417 65.708H36.3128C35.3956 65.708 34.516 66.0724 33.8674 66.7209C33.2189 67.3695 32.8545 68.2491 32.8545 69.1663C32.8545 70.0835 33.2189 70.9632 33.8674 71.6118C34.516 72.2603 35.3956 72.6247 36.3128 72.6247H48.417C49.3342 72.6247 50.2138 72.2603 50.8624 71.6118C51.511 70.9632 51.8753 70.0835 51.8753 69.1663C51.8753 68.2491 51.511 67.3695 50.8624 66.7209C50.2138 66.0724 49.3342 65.708 48.417 65.708Z" fill="#10108A"/>
<path d="M67.4378 27.667H57.0628C56.1456 27.667 55.266 28.0314 54.6174 28.6799C53.9689 29.3285 53.6045 30.2081 53.6045 31.1253C53.6045 32.0425 53.9689 32.9222 54.6174 33.5707C55.266 34.2193 56.1456 34.5837 57.0628 34.5837H67.4378C68.355 34.5837 69.2347 34.2193 69.8832 33.5707C70.5318 32.9222 70.8962 32.0425 70.8962 31.1253C70.8962 30.2081 70.5318 29.3285 69.8832 28.6799C69.2347 28.0314 68.355 27.667 67.4378 27.667Z" fill="#10108A"/>
<path d="M67.4378 40.3584H57.0628C56.1456 40.3584 55.266 40.7228 54.6174 41.3713C53.9689 42.0199 53.6045 42.8995 53.6045 43.8167C53.6045 44.7339 53.9689 45.6136 54.6174 46.2621C55.266 46.9107 56.1456 47.2751 57.0628 47.2751H67.4378C68.355 47.2751 69.2347 46.9107 69.8832 46.2621C70.5318 45.6136 70.8962 44.7339 70.8962 43.8167C70.8962 42.8995 70.5318 42.0199 69.8832 41.3713C69.2347 40.7228 68.355 40.3584 67.4378 40.3584Z" fill="#10108A"/>
<path d="M67.4378 53.0166H57.0628C56.1456 53.0166 55.266 53.381 54.6174 54.0295C53.9689 54.6781 53.6045 55.5577 53.6045 56.4749C53.6045 57.3921 53.9689 58.2718 54.6174 58.9203C55.266 59.5689 56.1456 59.9333 57.0628 59.9333H67.4378C68.355 59.9333 69.2347 59.5689 69.8832 58.9203C70.5318 58.2718 70.8962 57.3921 70.8962 56.4749C70.8962 55.5577 70.5318 54.6781 69.8832 54.0295C69.2347 53.381 68.355 53.0166 67.4378 53.0166Z" fill="#10108A"/>
<path d="M67.4378 65.708H57.0628C56.1456 65.708 55.266 66.0724 54.6174 66.7209C53.9689 67.3695 53.6045 68.2491 53.6045 69.1663C53.6045 70.0835 53.9689 70.9632 54.6174 71.6118C55.266 72.2603 56.1456 72.6247 57.0628 72.6247H67.4378C68.355 72.6247 69.2347 72.2603 69.8832 71.6118C70.5318 70.9632 70.8962 70.0835 70.8962 69.1663C70.8962 68.2491 70.5318 67.3695 69.8832 66.7209C69.2347 66.0724 68.355 65.708 67.4378 65.708Z" fill="#10108A"/>
</g>
<defs>
<clipPath id="clip0_3202_418">
<rect width="83" height="83" fill="white"/>
</clipPath>
</defs>
</svg>
