<svg width="73" height="77" viewBox="0 0 73 77" fill="none" xmlns="http://www.w3.org/2000/svg">
<g clip-path="url(#clip0_3201_315)">
<path fill-rule="evenodd" clip-rule="evenodd" d="M32.3771 44.62C33.8504 47.9245 38.3179 48.0459 39.7318 44.6392C39.3456 44.2173 39.0605 43.7699 38.7753 43.3225C38.7278 43.2522 38.6803 43.1755 38.6327 43.1052C37.9495 43.6868 37.1238 44.0575 36.0485 44.0575C34.8841 44.0511 34.0108 43.5782 33.292 42.8687C33.2504 42.8239 33.2088 42.7856 33.1672 42.7408C33.0662 43.0476 32.9355 43.4184 32.793 43.7571C32.6623 44.0831 32.5197 44.3963 32.3771 44.62ZM68.6217 23.9814V50.8838H71.6039C72.0911 50.8838 72.495 51.312 72.495 51.8361V76.0413C72.495 76.5654 72.097 76.9936 71.6039 76.9936H0.885173C0.398031 76.9936 0 76.5654 0 76.0413V51.8361C0 51.312 0.398031 50.8838 0.885173 50.8838H3.86743V23.1761C3.57039 22.9332 3.29118 22.6711 3.02384 22.3899C1.58024 20.8367 0.689128 18.6955 0.689128 16.3434V13.0198V12.975V12.9686C0.689128 12.8024 0.724772 12.6363 0.802002 12.4893L7.05762 0.498547C7.22396 0.178966 7.53288 0 7.84774 0H65.3424C65.7048 0 66.0137 0.223707 66.1622 0.54968L72.8693 12.4573C72.9525 12.5979 72.9941 12.7577 73 12.9111C73.0059 12.9431 73.0059 12.975 73.0059 13.0134V16.337C73.0059 18.6891 72.1089 20.8303 70.6712 22.3835C70.0653 23.0291 69.3821 23.5659 68.6217 23.9814ZM61.6829 50.8838V24.0965C60.8393 23.6682 60.0729 23.0866 59.4254 22.3899C58.8551 21.7763 58.3739 21.0732 57.9937 20.2998C57.6194 21.0732 57.1322 21.7763 56.5619 22.3899C55.1183 23.9431 53.1282 24.9018 50.942 24.9018C48.7558 24.9018 46.7656 23.9367 45.322 22.3899C44.7517 21.7763 44.2705 21.0732 43.8903 20.2998C43.516 21.0732 43.0289 21.7763 42.4586 22.3899C41.015 23.9431 39.0248 24.9018 36.8386 24.9018C34.6524 24.9018 32.6623 23.9367 31.2187 22.3899C30.6484 21.7763 30.1672 21.0732 29.7869 20.2998C29.4127 21.0732 28.9255 21.7763 28.3552 22.3899C26.9116 23.9431 24.9215 24.9018 22.7353 24.9018C20.5491 24.9018 18.5589 23.9367 17.1153 22.3899C16.545 21.7763 16.0638 21.0732 15.6836 20.2998C15.3093 21.0732 14.8222 21.7763 14.2519 22.3899C13.3014 23.4125 12.1191 24.1795 10.7944 24.5822V50.8902H22.664C22.7769 49.7205 23.3947 48.3719 23.7868 47.8094C24.1432 47.3045 24.5828 46.9338 25.07 46.6397C26.5374 45.7641 30.3454 45.4701 31.9256 44.2812C32.0444 44.0959 32.1692 43.821 32.288 43.527C32.4722 43.0796 32.6326 42.5938 32.7395 42.2615C32.2939 41.699 31.9197 41.0662 31.5573 40.4463L30.3573 38.3945C29.9176 37.6915 29.6919 37.0459 29.68 36.5218C29.6741 36.2725 29.7097 36.0488 29.7988 35.8507C29.8879 35.6461 30.0246 35.4672 30.2087 35.3329C30.2979 35.269 30.3929 35.2179 30.4998 35.1732C30.4226 34.061 30.3929 32.6612 30.4404 31.4852C30.4642 31.2039 30.5177 30.9291 30.589 30.6479C30.8979 29.4718 31.6642 28.5259 32.6147 27.8739C33.1375 27.516 33.7138 27.2411 34.3138 27.0622C34.694 26.9471 34.2603 26.0267 34.6524 25.982C36.5535 25.7711 39.3634 27.2539 40.6942 28.8007C41.3595 29.5741 41.7754 30.6031 41.8645 31.9582L41.7873 35.3074C42.12 35.416 42.3338 35.6397 42.417 36.0105C42.512 36.4195 42.4111 36.9884 42.0903 37.7745C42.0843 37.7873 42.0784 37.8001 42.0724 37.8193L40.7061 40.2417C40.207 41.1302 39.6961 42.025 39.0308 42.7281C39.0902 42.8175 39.1496 42.9134 39.209 43.0093C39.4823 43.4375 39.7496 43.8658 40.1001 44.2429C40.112 44.2557 40.1239 44.2684 40.1298 44.2812C41.7041 45.4765 45.53 45.7641 46.9973 46.6461C47.4845 46.9402 47.9241 47.3109 48.2805 47.8158C48.6785 48.3783 49.2905 49.7269 49.4033 50.8966H61.6829V50.8838ZM3.11296 12.0418H14.9766L17.1569 1.94945H8.37647L3.11296 12.0418ZM43.8012 1.94945L44.7101 12.0418H56.8174L54.3401 1.94945H43.8012ZM42.8923 12.0418L41.9893 1.94945H31.6761L30.785 12.0418H42.8923ZM28.9731 12.0418L29.8642 1.94945H19.0164L16.8361 12.0418H28.9731ZM56.2114 1.94945L58.6887 12.0418H70.5168L64.8315 1.94945H56.2114ZM58.9026 13.9913V16.337C58.9026 18.1522 59.5917 19.8077 60.7086 21.0029C61.8195 22.1981 63.3582 22.946 65.0453 22.946C66.7325 22.946 68.2712 22.2045 69.3821 21.0029C70.493 19.8077 71.1881 18.1522 71.1881 16.337V13.9913H58.9026ZM44.7992 13.9913V16.337C44.7992 18.1522 45.4884 19.8077 46.6052 21.0029C47.7161 22.1981 49.2548 22.946 50.942 22.946C52.6292 22.946 54.1678 22.2045 55.2787 21.0029C56.3897 19.8077 57.0847 18.1522 57.0847 16.337V13.9913H44.7992ZM30.7018 13.9913V16.337C30.7018 18.1522 31.391 19.8077 32.5078 21.0029C33.6187 22.1981 35.1574 22.946 36.8446 22.946C38.5317 22.946 40.0704 22.2045 41.1813 21.0029C42.2922 19.8077 42.9873 18.1522 42.9873 16.337V13.9913H30.7018ZM16.6044 13.9913V16.337C16.6044 18.1522 17.2935 19.8077 18.4104 21.0029C19.5213 22.1981 21.06 22.946 22.7472 22.946C24.4343 22.946 25.973 22.2045 27.0839 21.0029C28.1948 19.8077 28.8899 18.1522 28.8899 16.337V13.9913H16.6044ZM14.7865 13.9913H2.50106V16.337C2.50106 18.1522 3.19019 19.8077 4.30705 21.0029C5.41797 22.1981 6.95662 22.946 8.6438 22.946C10.331 22.946 11.8696 22.2045 12.9806 21.0029C14.0915 19.8077 14.7865 18.1522 14.7865 16.337V13.9913ZM28.6879 50.8838H43.6467L44.0507 46.0389C42.815 45.7769 41.5081 45.5787 40.1357 44.7286C39.2922 48.7234 33.5593 49.2923 31.9078 44.8373C30.6781 45.502 29.484 45.8855 28.0582 46.122L28.6879 50.8838ZM4.20011 54.885H68.283C68.5682 54.885 68.8058 55.1406 68.8058 55.4474V72.4428C68.8058 72.7496 68.5682 73.0052 68.283 73.0052H4.20011C3.91496 73.0052 3.67733 72.756 3.67733 72.4428V55.4474C3.68327 55.1342 3.91496 54.885 4.20011 54.885ZM31.2008 35.7676C30.9335 35.7804 30.7315 35.8379 30.5949 35.9401C30.5177 35.9977 30.4583 36.068 30.4226 36.1575C30.381 36.2533 30.3632 36.3684 30.3632 36.5026C30.3751 36.8925 30.5652 37.4102 30.9335 37.9983L30.9395 38.0046L32.1395 40.0564C32.6207 40.8809 33.1257 41.7182 33.7494 42.3318C34.3494 42.9262 35.0802 43.3225 36.0485 43.3289C37.0941 43.3289 37.8604 42.9134 38.4783 42.287C39.1258 41.6351 39.6308 40.7467 40.1357 39.8582L41.4843 37.4677C41.7338 36.8478 41.8289 36.4387 41.7695 36.1958C41.7338 36.0488 41.5853 35.9785 41.3358 35.9657C41.2823 35.9657 41.2288 35.9593 41.1694 35.9657C41.11 35.9657 41.0447 35.9721 40.9793 35.9785C40.9437 35.9849 40.908 35.9785 40.8724 35.9721C40.7536 35.9785 40.6288 35.9721 40.5041 35.9529L40.9675 33.7542C37.5396 34.3359 34.9732 31.5938 31.3434 33.2045L31.6048 35.7995C31.4682 35.7931 31.3315 35.7868 31.2008 35.7676Z" fill="#10108A"/>
</g>
<defs>
<clipPath id="clip0_3201_315">
<rect width="73" height="77" fill="white"/>
</clipPath>
</defs>
</svg>
